# Blender v2.79 (sub 0) OBJ File: ''
# www.blender.org
mtllib hurricos.120.mtl
o hurricos.120_hurricos.114_tex_72.387
v 5.604003 0.408029 1.689578
v 5.634090 0.426544 1.691893
v 5.617889 0.435802 1.687264
v 5.641033 0.449688 1.680321
v 5.645662 0.445059 1.684949
v 5.629461 0.426544 1.673377
v 5.631776 0.408029 1.664120
v 5.643348 0.445059 1.675692
v 5.664178 0.449688 1.673377
v 5.641033 0.408029 1.698836
vt 0.625000 0.875000
vt 0.687500 0.750000
vt 0.625000 0.750000
vt 0.625000 0.750000
vt 0.687500 0.875000
vt 0.687500 0.750000
vt 0.625000 0.875000
vt 0.687500 0.750000
vt 0.625000 0.750000
vt 0.687500 0.875000
vt 0.687500 0.750000
vt 0.625000 0.750000
vt 0.687500 0.875000
vt 0.625000 0.875000
vt 0.687500 0.750000
vt 0.625000 0.750000
vt 0.625000 0.875000
vt 0.687500 0.875000
vt 0.625000 0.750000
vt 0.687500 0.875000
vt 0.687500 0.875000
vt 0.625000 0.750000
vt 0.687500 0.875000
vt 0.625000 0.875000
vt 0.625000 0.875000
vn -0.8514 0.4801 0.2111
vn 0.6051 0.2455 0.7573
vn -0.7047 0.6680 0.2391
vn -0.3449 0.9381 0.0326
vn 0.5354 0.0003 0.8446
vn 0.1587 0.2829 -0.9459
vn 0.2445 0.4636 -0.8516
vn 0.1039 -0.1104 -0.9884
vn 0.9393 0.1444 -0.3114
vn 0.6286 0.4685 0.6207
usemtl Material__25.016
s 1
f 1/1/1 2/2/2 3/3/3
f 4/4/4 2/5/2 5/6/5
f 4/7/4 6/8/6 3/3/3
f 1/9/1 6/10/6 7/11/7
f 2/12/2 7/13/7 6/8/6
f 2/14/2 8/15/8 5/16/5
f 5/17/5 8/18/8 9/19/9
f 4/7/4 5/20/5 9/19/9
f 4/7/4 9/21/9 8/22/8
f 1/1/1 10/23/10 2/2/2
f 4/4/4 3/24/3 2/5/2
f 4/7/4 8/18/8 6/8/6
f 1/9/1 3/24/3 6/10/6
f 2/12/2 10/25/10 7/13/7
f 2/14/2 6/10/6 8/15/8
