# Blender v2.79 (sub 0) OBJ File: ''
# www.blender.org
mtllib hurricos.054.mtl
o hurricos.054_hurricos.114_tex_72.053
v 6.809799 1.366188 -3.332646
v 7.293507 1.333786 -3.166010
v 7.207874 1.319900 -3.351161
v 6.455699 1.375444 -2.455493
v 6.802856 1.370815 -2.147679
v 7.001894 1.361558 -2.270342
v 6.606134 1.347672 -2.673046
v 7.177788 1.366186 -2.436978
v 6.795914 1.347672 -2.934572
v 7.323595 1.398588 -2.661474
v 6.404782 1.407846 -3.128980
v 6.515873 1.407847 -3.413650
v 6.606134 1.361558 -1.999558
v 7.358311 1.375445 -2.911427
v 7.332851 1.134749 -3.307188
v 7.462458 1.134748 -3.029461
v 7.515688 1.111604 -2.360603
v 7.133814 1.241210 -2.145365
v 7.399969 1.190293 -2.256455
v 6.876917 1.259725 -2.029645
v 6.742683 1.278240 -1.874581
v 7.434685 1.111604 -2.214797
v 7.168530 1.111604 -2.103706
v 6.911633 1.111604 -1.960214
v 6.786655 1.111604 -1.823665
v 6.418669 1.352300 -1.761176
v 6.296005 1.403217 -2.226368
v 6.083082 1.430989 -1.990301
v 6.152514 1.407846 -2.684618
v 6.180286 1.407846 -2.916056
v 6.177972 0.815362 -2.673046
v 6.235831 1.111604 -2.890598
v 6.235831 0.815362 -2.890598
v 6.425611 1.111604 -3.115094
v 6.177972 1.111604 -2.673046
v 5.934961 1.417103 -2.423091
v 6.152514 0.519120 -2.684618
v 6.180286 0.519120 -2.916057
v 6.425611 0.815363 -3.115094
v 6.404782 0.519121 -3.128980
v 7.395340 0.667242 -3.330332
v 7.513374 0.667241 -3.057234
v 7.205561 0.519120 -2.052789
v 7.476345 0.519120 -1.916240
v 7.455515 0.519120 -2.189338
v 6.927834 0.519120 -1.939384
v 7.187046 0.519120 -1.916240
v 7.434685 0.667241 -2.214797
v 7.168530 0.667241 -2.103706
v 6.911633 0.667241 -1.960214
v 6.194173 0.519121 -3.429851
v 5.930332 0.519121 -3.385878
v 6.127055 0.519121 -3.209984
v 6.515873 0.519121 -3.413650
v 6.515873 0.815363 -3.413650
v 6.515873 1.111605 -3.413650
v 5.715094 1.421732 -2.163880
v 6.015965 0.519120 -3.015575
vt 0.437500 0.625000
vt 0.500000 0.625000
vt 0.437500 0.500000
vt 0.500000 0.625000
vt 0.562500 0.625000
vt 0.500000 0.500000
vt 0.500000 0.625000
vt 0.562500 0.500000
vt 0.500000 0.500000
vt 0.500000 0.625000
vt 0.562500 0.500000
vt 0.500000 0.500000
vt 0.500000 0.625000
vt 0.562500 0.500000
vt 0.500000 0.500000
vt 0.562500 0.500000
vt 0.500000 0.500000
vt 0.562500 0.625000
vt 0.500000 0.500000
vt 0.500000 0.500000
vt 0.562500 0.625000
vt 0.562500 0.500000
vt 0.187500 0.500000
vt 0.250000 0.625000
vt 0.250000 0.500000
vt 0.375000 0.500000
vt 0.437500 0.625000
vt 0.437500 0.500000
vt 0.437500 0.625000
vt 0.500000 0.500000
vt 0.437500 0.500000
vt 0.437500 0.625000
vt 0.500000 0.500000
vt 0.437500 0.500000
vt 0.562500 0.625000
vt 0.562500 0.500000
vt 0.562500 0.625000
vt 0.562500 0.500000
vt 0.500000 0.625000
vt 0.750000 0.750000
vt 0.812500 0.875000
vt 0.812500 0.750000
vt 0.500000 0.625000
vt 0.562500 0.500000
vt 0.500000 0.500000
vt 0.375000 0.500000
vt 0.312500 0.625000
vt 0.312500 0.500000
vt 0.500000 0.625000
vt 0.562500 0.500000
vt 0.500000 0.500000
vt 0.500000 0.500000
vt 0.562500 0.625000
vt 0.562500 0.500000
vt 0.500000 0.625000
vt 0.562500 0.500000
vt 0.500000 0.500000
vt 0.500000 0.500000
vt 0.562500 0.625000
vt 0.562500 0.500000
vt 0.375000 0.500000
vt 0.312500 0.625000
vt 0.312500 0.500000
vt 0.437500 0.500000
vt 0.500000 0.500000
vt 0.375000 0.625000
vt 0.375000 0.500000
vt 0.500000 0.625000
vt 0.562500 0.500000
vt 0.500000 0.500000
vt 0.875000 0.625000
vt 0.812500 0.750000
vt 0.812500 0.625000
vt 0.187500 0.625000
vt 0.250000 0.500000
vt 0.187500 0.500000
vt 0.875000 0.750000
vt 0.937500 0.625000
vt 0.875000 0.625000
vt 0.812500 0.625000
vt 0.875000 0.750000
vt 0.875000 0.625000
vt 0.437500 0.625000
vt 0.500000 0.500000
vt 0.437500 0.500000
vt 0.500000 0.625000
vt 0.562500 0.625000
vt 0.500000 0.500000
vt 0.875000 0.750000
vt 0.937500 0.625000
vt 0.875000 0.625000
vt 0.250000 0.625000
vt 0.312500 0.500000
vt 0.250000 0.500000
vt 0.187500 0.500000
vt 0.125000 0.625000
vt 0.125000 0.500000
vt 0.875000 0.625000
vt 0.937500 0.750000
vt 0.875000 0.750000
vt 0.500000 0.500000
vt 0.562500 0.625000
vt 0.500000 0.625000
vt 0.750000 0.750000
vt 0.812500 0.875000
vt 0.750000 0.875000
vt 0.437500 0.500000
vt 0.500000 0.625000
vt 0.437500 0.625000
vt 0.250000 0.625000
vt 0.312500 0.500000
vt 0.875000 0.625000
vt 0.937500 0.750000
vt 0.937500 0.625000
vt 0.437500 0.625000
vt 0.437500 0.500000
vt 0.562500 0.625000
vt 0.500000 0.625000
vt 0.187500 0.625000
vt 0.375000 0.625000
vt 0.500000 0.625000
vt 0.500000 0.625000
vt 0.750000 0.875000
vt 0.562500 0.625000
vt 0.375000 0.625000
vt 0.500000 0.625000
vt 0.375000 0.625000
vt 0.437500 0.625000
vt 0.562500 0.625000
vt 0.875000 0.750000
vt 0.937500 0.750000
vt 0.812500 0.750000
vt 0.500000 0.625000
vt 0.312500 0.625000
vt 0.187500 0.625000
vt 0.812500 0.750000
vt 0.500000 0.500000
vt 0.312500 0.625000
vt 0.875000 0.750000
vt 0.500000 0.625000
vn 0.0971 0.9948 0.0303
vn 0.4177 0.8719 -0.2556
vn 0.4188 0.8703 -0.2590
vn 0.0989 0.9945 -0.0355
vn 0.1859 0.9463 0.2646
vn 0.1894 0.9504 0.2468
vn 0.0637 0.9980 -0.0051
vn 0.2129 0.9505 0.2265
vn 0.0368 0.9992 0.0180
vn 0.0889 0.9878 0.1280
vn -0.5379 0.7791 -0.3219
vn -0.5865 0.7769 -0.2289
vn 0.1457 0.9789 0.1433
vn -0.0439 0.9915 -0.1227
vn 0.8584 0.3108 -0.4082
vn 0.8822 0.2415 -0.4043
vn 0.6163 0.7380 0.2748
vn 0.3907 0.6500 0.6518
vn 0.5375 0.7165 0.4447
vn 0.4556 0.6783 0.5766
vn 0.5662 0.7043 0.4282
vn 0.5140 0.3766 0.7707
vn 0.4398 0.2046 0.8745
vn 0.5574 0.2950 0.7760
vn 0.6847 0.3722 0.6267
vn 0.1210 0.9897 0.0764
vn 0.1130 0.9936 -0.0021
vn 0.1024 0.9947 -0.0001
vn -0.3181 0.9445 -0.0817
vn -0.7151 0.6011 -0.3569
vn -0.9654 0.0462 -0.2567
vn -0.8842 -0.0716 -0.4615
vn -0.8842 0.0716 -0.4615
vn -0.8777 -0.0417 -0.4774
vn -0.9654 -0.0462 -0.2567
vn 0.0296 0.9993 -0.0233
vn -0.9728 0.1526 -0.1741
vn -0.6751 0.6558 -0.3380
vn -0.8777 0.0417 -0.4774
vn -0.6157 0.6946 -0.3721
vn 0.9061 0.1292 -0.4029
vn 0.9110 0.1226 -0.3937
vn 0.2203 0.8328 0.5079
vn 0.0000 1.0000 0.0000
vn 0.3415 0.7018 0.6252
vn 0.3989 0.4823 0.7799
vn 0.4142 0.1385 0.8996
vn 0.4125 0.1774 0.8935
vn 0.4858 0.0863 0.8698
vn -0.7292 0.6224 -0.2845
vn -0.9510 0.0198 -0.3084
vn -0.9510 -0.0198 -0.3084
vn -0.0119 0.9995 -0.0280
usemtl Material__25.079
s 1
f 1/1/1 2/2/2 3/3/3
f 4/4/4 5/5/5 6/6/6
f 7/7/7 6/8/6 8/9/8
f 9/10/9 8/11/8 10/12/10
f 11/13/11 1/14/1 12/15/12
f 4/4/4 13/16/13 5/17/5
f 9/10/9 10/18/10 14/19/14
f 2/20/2 9/21/9 14/22/14
f 15/23/15 2/24/2 16/25/16
f 8/26/8 17/27/17 10/28/10
f 8/29/8 18/30/18 19/31/19
f 6/32/6 20/33/20 18/34/18
f 20/33/20 13/35/13 21/36/21
f 19/37/19 22/38/22 17/39/17
f 23/40/23 19/41/19 18/42/18
f 18/43/18 24/44/24 23/45/23
f 24/46/24 21/47/21 25/48/25
f 26/49/26 27/50/27 28/51/28
f 29/52/29 27/53/27 4/54/4
f 29/55/29 7/56/7 30/57/30
f 11/58/11 7/59/7 9/60/9
f 31/61/31 32/62/32 33/63/33
f 32/64/32 11/13/11 34/65/34
f 29/66/29 32/64/32 35/67/35
f 36/68/36 28/69/28 27/70/27
f 37/71/37 33/72/33 38/73/38
f 32/74/32 39/75/39 33/76/33
f 33/77/33 40/78/40 38/79/38
f 41/80/41 16/81/16 42/82/42
f 43/83/43 44/84/44 45/85/45
f 46/86/46 47/87/44 43/88/43
f 48/89/47 43/90/43 45/91/45
f 22/92/22 49/93/48 48/94/47
f 49/95/48 24/96/24 50/97/49
f 46/98/46 49/99/48 50/100/49
f 51/101/44 52/102/44 53/103/44
f 53/104/44 38/105/38 40/106/40
f 51/107/44 40/108/40 54/109/50
f 34/110/34 55/111/51 39/75/39
f 40/112/40 55/113/51 54/114/50
f 11/58/11 56/115/52 34/116/34
f 7/7/7 4/117/4 6/8/6
f 9/10/9 7/59/7 8/11/8
f 11/13/11 9/21/9 1/14/1
f 4/4/4 27/53/27 13/16/13
f 2/20/2 1/118/1 9/21/9
f 15/23/15 3/119/3 2/24/2
f 8/26/8 19/120/19 17/27/17
f 8/29/8 6/121/6 18/30/18
f 6/32/6 5/122/5 20/33/20
f 20/33/20 5/122/5 13/35/13
f 23/40/23 22/123/22 19/41/19
f 18/43/18 20/124/20 24/44/24
f 24/46/24 20/125/20 21/47/21
f 26/49/26 13/35/13 27/50/27
f 29/52/29 36/68/36 27/53/27
f 29/55/29 4/117/4 7/56/7
f 11/58/11 30/126/30 7/59/7
f 31/61/31 35/127/35 32/62/32
f 32/64/32 30/128/30 11/13/11
f 29/66/29 30/128/30 32/64/32
f 36/68/36 57/129/53 28/69/28
f 37/71/37 31/130/31 33/72/33
f 32/74/32 34/110/34 39/75/39
f 33/77/33 39/131/39 40/78/40
f 41/80/41 15/132/15 16/81/16
f 43/83/43 47/133/44 44/84/44
f 48/89/47 49/99/48 43/90/43
f 22/92/22 23/134/23 49/93/48
f 49/95/48 23/135/23 24/96/24
f 46/98/46 43/90/43 49/99/48
f 53/104/44 58/136/44 38/105/38
f 51/107/44 53/137/44 40/108/40
f 34/110/34 56/138/52 55/111/51
f 40/112/40 39/139/39 55/113/51
f 11/58/11 12/140/12 56/115/52
