# Blender v2.79 (sub 0) OBJ File: ''
# www.blender.org
mtllib hurricos.055.mtl
o hurricos.055_hurricos.114_tex_72.054
v 8.517818 0.704271 -2.763307
v 8.513191 0.722787 -2.793394
v 8.510876 0.732044 -2.774879
v 8.503933 0.741302 -2.802651
v 8.499304 0.745932 -2.798023
v 8.496990 0.722787 -2.786451
v 8.487732 0.704271 -2.784136
v 8.517818 0.704271 -2.800337
v 8.494675 0.741302 -2.800337
v 8.490047 0.745932 -2.818852
vt 0.625000 0.875000
vt 0.687500 0.750000
vt 0.625000 0.750000
vt 0.625000 0.875000
vt 0.687500 0.750000
vt 0.625000 0.750000
vt 0.625000 0.875000
vt 0.687500 0.750000
vt 0.625000 0.750000
vt 0.687500 0.875000
vt 0.687500 0.750000
vt 0.625000 0.875000
vt 0.625000 0.750000
vt 0.625000 0.750000
vt 0.687500 0.750000
vt 0.625000 0.875000
vt 0.687500 0.875000
vt 0.625000 0.750000
vt 0.687500 0.875000
vt 0.687500 0.875000
vt 0.625000 0.750000
vt 0.687500 0.875000
vt 0.687500 0.875000
vt 0.687500 0.875000
vt 0.625000 0.875000
vn 0.3860 0.5070 0.7706
vn 0.6397 0.2329 -0.7325
vn 0.2635 0.6431 0.7190
vn 0.6863 0.0881 -0.7220
vn -0.0447 0.9425 0.3311
vn -0.9817 0.1818 -0.0568
vn -0.8945 0.4471 -0.0009
vn 0.4936 0.3773 -0.7836
vn -0.9730 -0.2256 0.0486
vn -0.4363 0.1535 -0.8866
usemtl Material__25.078
s 1
f 1/1/1 2/2/2 3/3/3
f 3/4/3 4/5/4 5/6/5
f 5/7/5 6/8/6 3/3/3
f 1/9/1 6/10/6 7/11/7
f 8/12/8 6/8/6 2/13/2
f 4/14/4 6/10/6 9/15/9
f 4/16/4 9/17/9 10/18/10
f 5/7/5 4/19/4 10/18/10
f 5/7/5 10/20/10 9/21/9
f 1/1/1 8/22/8 2/2/2
f 3/4/3 2/23/2 4/5/4
f 5/7/5 9/17/9 6/8/6
f 1/9/1 3/4/3 6/10/6
f 8/12/8 7/24/7 6/8/6
f 4/14/4 2/25/2 6/10/6
