# Blender v2.79 (sub 0) OBJ File: ''
# www.blender.org
mtllib hurricos.081.mtl
o hurricos.081_hurricos.114_tex_72.348
v -5.514322 0.222878 0.844826
v -5.576811 0.222878 1.240587
v -5.380088 0.222878 1.145697
v -5.211137 0.222878 0.759194
v -5.134763 0.222878 1.106352
v -5.104676 0.204363 1.446567
v -5.389346 0.208991 1.502113
v -5.685587 0.227507 1.594688
v -5.829080 0.222878 1.402594
v -5.759647 0.222878 0.988318
v -6.007287 0.222878 1.161897
v -5.974886 0.222878 1.613203
v -5.715674 0.218249 1.777525
v -6.206325 0.222878 1.340105
v -6.310472 0.222878 1.640976
v -6.541911 0.199734 1.388708
v -6.588199 0.222878 1.696521
v -6.363703 0.222878 1.161897
v -6.150780 0.199734 0.951288
v -5.639299 0.199734 0.664304
v -5.387031 0.222878 0.502296
v -5.104676 0.495976 1.446567
v -5.356944 0.505233 1.624775
v -5.044501 0.519120 1.636347
v -5.685587 0.519120 1.594688
v -5.389346 0.495976 1.502113
v -5.354630 0.361741 1.529885
v -5.079217 0.361741 1.474340
v -5.636985 0.394143 1.606260
v -6.208639 -0.073364 0.867970
v -5.923969 0.208992 0.754565
v -5.972571 -0.073364 0.673561
v -6.426192 -0.073364 1.071636
v -6.618286 -0.073364 1.388708
v -5.137077 -0.073364 0.358804
v -5.097733 0.199734 0.437493
v -5.417118 -0.073364 0.435179
v -5.678644 -0.073364 0.594872
v -6.648373 -0.073364 1.708093
vt 0.437500 0.500000
vt 0.500000 0.625000
vt 0.500000 0.500000
vt 0.500000 0.625000
vt 0.562500 0.500000
vt 0.500000 0.500000
vt 0.500000 0.500000
vt 0.562500 0.625000
vt 0.562500 0.500000
vt 0.437500 0.625000
vt 0.500000 0.500000
vt 0.437500 0.500000
vt 0.750000 0.750000
vt 0.812500 0.875000
vt 0.812500 0.750000
vt 0.500000 0.500000
vt 0.562500 0.625000
vt 0.562500 0.500000
vt 0.500000 0.625000
vt 0.562500 0.500000
vt 0.500000 0.500000
vt 0.500000 0.500000
vt 0.562500 0.625000
vt 0.562500 0.500000
vt 0.437500 0.500000
vt 0.500000 0.625000
vt 0.500000 0.500000
vt 0.500000 0.500000
vt 0.562500 0.625000
vt 0.562500 0.500000
vt 0.500000 0.625000
vt 0.562500 0.500000
vt 0.500000 0.500000
vt 0.500000 0.625000
vt 0.562500 0.500000
vt 0.500000 0.500000
vt 0.437500 0.625000
vt 0.500000 0.625000
vt 0.437500 0.500000
vt 0.562500 0.625000
vt 0.500000 0.500000
vt 0.437500 0.625000
vt 0.437500 0.500000
vt 0.500000 0.500000
vt 0.562500 0.625000
vt 0.562500 0.500000
vt 0.500000 0.625000
vt 0.500000 0.500000
vt 0.187500 0.500000
vt 0.250000 0.625000
vt 0.250000 0.500000
vt 0.187500 0.500000
vt 0.250000 0.625000
vt 0.250000 0.500000
vt 0.937500 0.750000
vt 1.000000 0.625000
vt 0.937500 0.625000
vt 0.000000 0.500000
vt 0.062500 0.625000
vt 0.000000 0.625000
vt 1.000000 0.750000
vt 0.937500 0.875000
vt 0.937500 0.750000
vt 1.000000 0.750000
vt 0.937500 0.875000
vt 0.937500 0.750000
vt 0.937500 0.750000
vt 1.000000 0.875000
vt 0.937500 0.875000
vt 0.937500 0.750000
vt 1.000000 0.875000
vt 0.937500 0.875000
vt 0.937500 0.750000
vt 1.000000 0.875000
vt 0.937500 0.875000
vt 0.937500 0.750000
vt 1.000000 0.875000
vt 0.937500 0.875000
vt 0.937500 0.750000
vt 1.000000 0.875000
vt 0.937500 0.875000
vt 0.437500 0.625000
vt 0.562500 0.625000
vt 0.500000 0.625000
vt 0.750000 0.875000
vt 0.500000 0.625000
vt 0.437500 0.625000
vt 0.500000 0.625000
vt 0.562500 0.625000
vt 0.562500 0.625000
vt 0.500000 0.625000
vt 0.187500 0.625000
vt 0.187500 0.625000
vt 1.000000 0.750000
vt 0.062500 0.500000
vt 1.000000 0.875000
vt 1.000000 0.875000
vt 1.000000 0.750000
vt 1.000000 0.750000
vt 1.000000 0.750000
vt 1.000000 0.750000
vt 1.000000 0.750000
vn -0.0310 0.9991 -0.0284
vn 0.0125 0.9999 0.0079
vn 0.0076 0.9998 0.0201
vn 0.0000 1.0000 0.0000
vn 0.0043 0.9996 0.0267
vn -0.1134 0.7908 -0.6015
vn -0.1133 0.8017 -0.5869
vn -0.0812 0.9589 -0.2720
vn -0.0058 1.0000 -0.0062
vn -0.0178 0.9994 -0.0313
vn -0.0129 0.9993 -0.0353
vn -0.0061 1.0000 0.0053
vn -0.0129 0.9987 0.0485
vn -0.0223 0.9997 0.0041
vn -0.0288 0.9991 -0.0327
vn -0.6368 0.7252 -0.2619
vn -0.6904 0.7115 -0.1308
vn -0.4455 0.8104 -0.3806
vn -0.4050 0.7852 -0.4685
vn -0.2807 0.7858 -0.5511
vn -0.3267 0.6227 -0.7110
vn -0.1712 0.5682 -0.8049
vn 0.0059 0.9963 -0.0861
vn -0.0401 0.9933 -0.1084
vn -0.2867 0.1282 -0.9494
vn -0.1806 0.5588 -0.8094
vn -0.2226 -0.0091 -0.9749
vn -0.1977 -0.0153 -0.9801
vn -0.2919 -0.0401 -0.9556
vn -0.6272 0.3375 -0.7019
vn -0.3035 0.7674 -0.5648
vn -0.4362 0.3167 -0.8423
vn -0.7183 0.3179 -0.6188
vn -0.9201 0.2366 -0.3121
vn -0.2216 0.2673 -0.9378
vn -0.1861 0.2967 -0.9367
vn -0.3929 0.2511 -0.8846
vn -0.3833 0.2878 -0.8776
vn -0.9765 0.1948 -0.0920
usemtl Material__25.054
s 1
f 1/1/1 2/2/2 3/3/3
f 4/4/4 3/5/3 5/6/5
f 6/7/6 3/8/3 7/9/7
f 8/10/8 2/11/2 9/12/9
f 9/13/9 10/14/10 11/15/11
f 8/16/8 12/17/12 13/18/13
f 14/19/14 9/20/9 11/21/11
f 15/22/15 16/23/16 17/24/17
f 11/25/11 18/26/18 14/27/14
f 10/28/10 19/29/19 11/30/11
f 20/31/20 10/32/10 1/33/1
f 21/34/21 1/35/1 4/36/4
f 2/37/2 7/38/7 3/39/3
f 14/19/14 15/40/15 12/41/12
f 14/42/14 18/26/18 16/43/16
f 22/44/22 23/45/23 24/46/24
f 25/47/25 23/45/23 26/48/26
f 27/49/27 22/50/22 28/51/28
f 29/52/29 26/53/26 27/54/27
f 29/55/29 7/56/7 8/57/8
f 6/58/6 27/59/27 28/60/28
f 30/61/30 31/62/31 32/63/32
f 33/64/33 19/65/19 30/66/30
f 33/67/33 16/68/16 18/69/18
f 34/70/34 17/71/17 16/72/16
f 35/73/35 21/74/21 36/75/36
f 37/76/37 20/77/20 21/78/21
f 38/79/38 31/80/31 20/81/20
f 1/1/1 10/82/10 2/2/2
f 4/4/4 1/83/1 3/5/3
f 6/7/6 5/84/5 3/8/3
f 8/10/8 7/38/7 2/11/2
f 9/13/9 2/85/2 10/14/10
f 8/16/8 9/86/9 12/17/12
f 14/19/14 12/17/12 9/20/9
f 15/22/15 14/19/14 16/23/16
f 11/25/11 19/87/19 18/26/18
f 10/28/10 31/88/31 19/29/19
f 20/31/20 31/89/31 10/32/10
f 21/34/21 20/90/20 1/35/1
f 22/44/22 26/91/26 23/45/23
f 27/49/27 26/92/26 22/50/22
f 29/52/29 25/93/25 26/53/26
f 29/55/29 27/94/27 7/56/7
f 6/58/6 7/95/7 27/59/27
f 30/61/30 19/96/19 31/62/31
f 33/64/33 18/97/18 19/65/19
f 33/67/33 34/98/34 16/68/16
f 34/70/34 39/99/39 17/71/17
f 35/73/35 37/100/37 21/74/21
f 37/76/37 38/101/38 20/77/20
f 38/79/38 32/102/32 31/80/31
