# Blender v2.79 (sub 0) OBJ File: ''
# www.blender.org
mtllib hurricos.032.mtl
o hurricos.032_hurricos.114_tex_72.031
v 3.092891 1.417105 -4.760624
v 3.046603 1.106976 -4.591674
v 3.018830 1.106976 -4.779140
v 3.009573 0.815363 -4.612504
v 2.613812 1.435620 -4.288489
v 2.833679 1.458763 -4.526871
v 2.576782 1.430991 -4.480583
v 2.667044 1.444877 -4.712022
v 2.928570 1.426362 -4.658791
v 2.717960 1.454135 -4.779140
v 3.125293 1.435620 -4.545386
v 4.592615 0.519121 -3.436794
v 4.479210 0.667242 -3.550199
v 4.456066 0.519121 -3.543256
v 4.511612 0.519121 -3.719150
v 4.530127 0.667242 -3.702949
v 4.226942 0.519121 -4.283861
v 4.416721 0.482091 -4.556958
v 4.011703 0.482091 -4.466697
v 3.933014 0.519121 -3.388192
v 4.229257 0.519121 -3.749237
v 3.933014 0.472834 -3.726093
v 2.995687 0.519121 -3.182211
v 3.044289 0.519121 -3.478453
v 2.711017 0.519121 -3.672862
v 4.115851 0.519121 -3.323389
v 3.636772 0.519121 -3.420593
v 3.636772 0.519121 -3.726093
v 3.340530 0.519121 -3.429851
v 3.340530 0.495977 -3.726093
v 3.044289 0.519121 -3.726093
v 4.446809 0.519121 -4.075565
v 3.933014 0.519121 -4.022335
v 4.229257 0.542265 -4.038535
v 3.340530 0.519121 -4.022335
v 3.636772 0.519121 -4.022335
v 2.720274 0.519121 -4.033906
v 3.044289 0.519121 -4.022335
v 3.963101 0.519121 -4.327834
v 3.657602 0.519121 -4.378750
v 3.657602 0.222880 -4.434296
v 3.949215 -0.073362 -4.593988
v 3.659917 -0.073362 -4.545386
v 4.000132 0.222880 -4.501413
v 4.347290 -0.073362 -4.698136
v 4.382006 0.222880 -4.633333
v 2.866081 0.671871 -3.184525
v 3.004944 0.519121 -4.311633
v 3.051232 0.519122 -4.621761
v 2.947084 0.519121 -4.408837
v 3.319701 0.509864 -4.332463
v 3.423849 0.463576 -4.469012
v 2.667044 0.519121 -4.360235
v 2.896168 0.847765 -4.457439
v 2.923941 1.144006 -4.425038
v 2.597611 1.190294 -4.364864
v 2.590669 0.889424 -4.401894
v 3.210925 -0.073362 -4.718966
v 3.435421 0.222880 -4.515299
v 3.435421 -0.073362 -4.614818
v 3.122978 0.222880 -4.642591
v 2.984115 0.815363 -4.788397
v 2.986429 1.458763 -4.355606
v 4.613444 0.667242 -3.448366
v 4.534756 0.519121 -4.404209
v 2.646214 0.671871 -3.559457
vt 0.187500 0.625000
vt 0.250000 0.500000
vt 0.187500 0.500000
vt 0.000000 1.000000
vt 0.062500 0.875000
vt 0.000000 0.875000
vt 0.500000 0.625000
vt 0.562500 0.500000
vt 0.500000 0.500000
vt 0.500000 0.500000
vt 0.562500 0.625000
vt 0.562500 0.500000
vt 0.500000 0.500000
vt 0.562500 0.625000
vt 0.562500 0.500000
vt 0.562500 0.625000
vt 0.500000 0.750000
vt 0.500000 0.625000
vt 0.500000 0.625000
vt 0.562500 0.750000
vt 0.500000 0.750000
vt 0.500000 0.500000
vt 0.562500 0.625000
vt 0.562500 0.500000
vt 0.500000 0.625000
vt 0.562500 0.625000
vt 0.500000 0.500000
vt 0.500000 0.625000
vt 0.562500 0.625000
vt 0.500000 0.500000
vt 0.562500 0.625000
vt 0.500000 0.500000
vt 0.500000 0.625000
vt 0.562500 0.500000
vt 0.500000 0.500000
vt 0.562500 0.625000
vt 0.562500 0.500000
vt 0.500000 0.500000
vt 0.562500 0.625000
vt 0.562500 0.500000
vt 0.500000 0.500000
vt 0.562500 0.500000
vt 0.500000 0.625000
vt 0.562500 0.625000
vt 0.500000 0.500000
vt 0.562500 0.500000
vt 0.500000 0.625000
vt 0.562500 0.500000
vt 0.500000 0.500000
vt 0.500000 0.500000
vt 0.562500 0.625000
vt 0.562500 0.500000
vt 0.500000 0.625000
vt 0.562500 0.500000
vt 0.500000 0.500000
vt 0.500000 0.500000
vt 0.562500 0.500000
vt 0.437500 0.625000
vt 0.500000 0.500000
vt 0.437500 0.500000
vt 0.500000 0.625000
vt 0.562500 0.625000
vt 0.437500 0.500000
vt 0.500000 0.500000
vt 0.562500 0.625000
vt 0.562500 0.500000
vt 0.500000 0.625000
vt 0.562500 0.625000
vt 0.500000 0.500000
vt 0.500000 0.625000
vt 0.562500 0.625000
vt 0.000000 0.750000
vt 0.062500 0.625000
vt 0.000000 0.625000
vt 0.187500 0.500000
vt 0.250000 0.625000
vt 0.250000 0.500000
vt 0.000000 0.750000
vt 0.062500 0.625000
vt 0.000000 0.625000
vt 0.187500 0.625000
vt 0.250000 0.500000
vt 0.187500 0.500000
vt 0.125000 0.625000
vt 0.187500 0.750000
vt 0.187500 0.625000
vt 0.500000 0.625000
vt 0.562500 0.625000
vt 0.500000 0.500000
vt 0.437500 0.625000
vt 0.437500 0.500000
vt 0.500000 0.500000
vt 0.562500 0.625000
vt 0.562500 0.500000
vt 0.437500 0.500000
vt 0.500000 0.625000
vt 0.500000 0.500000
vt 0.500000 0.625000
vt 0.562500 0.625000
vt 0.500000 0.500000
vt 0.437500 0.625000
vt 0.437500 0.500000
vt 0.500000 0.625000
vt 0.562500 0.625000
vt 0.875000 0.625000
vt 0.937500 0.750000
vt 0.875000 0.750000
vt 0.812500 0.750000
vt 0.875000 0.625000
vt 0.812500 0.625000
vt 0.187500 0.500000
vt 0.250000 0.625000
vt 0.250000 0.500000
vt 0.000000 1.000000
vt 0.062500 0.875000
vt 0.000000 0.875000
vt 0.187500 0.625000
vt 0.250000 0.500000
vt 0.187500 0.500000
vt 0.000000 1.000000
vt 0.062500 0.875000
vt 0.000000 0.875000
vt 0.000000 0.625000
vt 0.062500 0.750000
vt 0.062500 0.625000
vt 0.187500 0.500000
vt 0.250000 0.625000
vt 0.250000 0.500000
vt 0.000000 0.750000
vt 0.062500 0.625000
vt 0.000000 0.625000
vt 0.187500 0.625000
vt 0.250000 0.500000
vt 0.187500 0.500000
vt 0.250000 0.625000
vt 0.062500 1.000000
vt 0.562500 0.625000
vt 0.500000 0.625000
vt 0.500000 0.625000
vt 0.562500 0.750000
vt 0.562500 0.625000
vt 0.500000 0.625000
vt 0.562500 0.625000
vt 0.500000 0.625000
vt 0.500000 0.625000
vt 0.500000 0.625000
vt 0.562500 0.625000
vt 0.500000 0.625000
vt 0.562500 0.625000
vt 0.500000 0.625000
vt 0.500000 0.625000
vt 0.437500 0.625000
vt 0.062500 0.750000
vt 0.187500 0.625000
vt 0.062500 0.750000
vt 0.250000 0.625000
vt 0.125000 0.750000
vt 0.437500 0.625000
vt 0.937500 0.625000
vt 0.875000 0.750000
vt 0.187500 0.625000
vt 0.062500 1.000000
vt 0.250000 0.625000
vt 0.062500 1.000000
vt 0.000000 0.750000
vt 0.187500 0.625000
vt 0.062500 0.750000
vt 0.250000 0.625000
vn 0.9673 -0.2165 -0.1324
vn 0.9476 -0.1998 0.2493
vn 0.9756 -0.1656 -0.1439
vn 0.9402 -0.0163 0.3404
vn 0.0635 0.5792 0.8127
vn 0.0223 0.9970 -0.0743
vn -0.1080 0.9941 -0.0031
vn 0.0616 0.9971 0.0441
vn 0.0768 0.9860 -0.1478
vn 0.0365 0.9858 0.1637
vn 0.9388 0.2585 0.2278
vn -0.6033 0.1393 0.7853
vn -0.9410 0.1701 0.2927
vn -0.6172 0.7632 0.1915
vn -0.4380 0.8876 -0.1423
vn -0.9377 0.1514 -0.3126
vn -0.0137 0.9924 -0.1227
vn -0.1419 0.8025 -0.5796
vn -0.1384 0.6839 -0.7163
vn -0.0274 0.9959 -0.0867
vn -0.0385 0.9990 0.0209
vn -0.0169 0.9996 0.0229
vn 0.4984 0.8173 -0.2892
vn 0.0168 0.9998 -0.0142
vn 0.2479 0.9579 -0.1449
vn -0.0000 1.0000 0.0000
vn 0.0415 0.9984 -0.0386
vn 0.0386 0.9991 0.0194
vn -0.0144 0.9983 -0.0568
vn -0.0090 0.9999 0.0086
vn 0.0292 0.9995 0.0097
vn 0.0720 0.9974 -0.0092
vn -0.0177 0.9990 0.0400
vn 0.0141 0.9999 -0.0040
vn 0.0000 1.0000 0.0046
vn -0.0038 1.0000 -0.0039
vn 0.0040 1.0000 -0.0046
vn 0.0205 0.9922 -0.1230
vn 0.0070 0.8268 -0.5625
vn 0.0700 0.2599 -0.9631
vn -0.2024 0.3303 -0.9219
vn 0.0756 0.3405 -0.9372
vn -0.2442 0.2228 -0.9438
vn -0.2850 0.2756 -0.9180
vn -0.2830 0.2418 -0.9282
vn 0.6985 0.5892 -0.4061
vn 0.0134 0.9999 0.0000
vn 0.6827 0.7047 -0.1932
vn 0.2945 0.8658 0.4046
vn 0.0414 0.9947 -0.0938
vn 0.2460 0.6328 -0.7342
vn 0.1251 0.7329 0.6687
vn 0.5223 0.0250 0.8524
vn 0.4941 -0.2188 0.8414
vn 0.1463 -0.2218 0.9641
vn 0.1785 -0.0073 0.9839
vn 0.3783 0.3124 -0.8714
vn 0.3469 0.2565 -0.9022
vn 0.3470 0.2987 -0.8890
vn 0.3741 0.2427 -0.8951
vn 0.9834 -0.1126 -0.1423
vn 0.4603 0.5484 0.6981
vn -0.5979 0.1457 0.7882
vn -0.0714 0.9806 -0.1826
vn 0.6929 0.5956 -0.4063
usemtl Material__25.101
s 1
f 1/1/1 2/2/2 3/3/3
f 4/4/4 3/5/3 2/6/2
f 5/7/5 6/8/6 7/9/7
f 8/10/8 9/11/9 10/12/10
f 6/13/6 11/14/11 9/15/9
f 12/16/12 13/17/13 14/18/14
f 15/19/15 13/20/13 16/21/16
f 17/22/17 18/23/18 19/24/19
f 20/25/20 21/26/21 22/27/22
f 23/28/23 24/29/24 25/30/25
f 14/18/14 15/31/15 21/32/21
f 21/33/21 26/34/26 14/35/14
f 22/27/22 27/36/27 20/37/20
f 28/38/28 29/39/29 27/40/27
f 30/41/30 24/29/24 29/42/29
f 24/43/24 31/44/31 25/30/25
f 32/45/32 21/26/21 15/46/15
f 33/47/33 21/48/21 34/49/34
f 33/50/33 28/51/28 22/52/22
f 35/53/35 28/54/28 36/55/36
f 35/56/35 31/44/31 30/57/30
f 37/58/26 31/59/31 38/60/37
f 34/61/34 32/62/32 17/22/17
f 17/63/17 33/47/33 34/49/34
f 39/64/38 36/65/36 33/66/33
f 39/67/38 17/68/17 19/69/19
f 40/70/39 39/71/38 19/69/19
f 41/72/40 42/73/41 43/74/42
f 41/75/40 19/76/19 44/77/43
f 44/78/43 45/79/44 42/80/41
f 19/81/19 46/82/45 44/83/43
f 25/84/25 47/85/46 23/86/23
f 48/87/47 49/88/48 50/89/49
f 51/90/50 36/55/36 40/91/39
f 51/92/50 38/93/37 35/94/35
f 48/95/47 37/96/26 38/97/37
f 51/98/50 40/99/39 52/100/51
f 49/101/48 51/92/50 52/102/51
f 53/103/52 48/104/47 50/89/49
f 50/105/49 4/106/4 54/107/53
f 54/108/53 53/109/52 50/110/49
f 55/111/54 5/112/5 56/113/55
f 57/114/56 55/115/54 56/116/55
f 11/117/11 55/118/54 2/119/2
f 54/120/53 2/121/2 55/122/54
f 58/123/57 59/124/58 60/125/59
f 61/126/60 52/127/51 59/128/58
f 59/129/58 43/130/42 60/131/59
f 52/132/51 41/133/40 59/134/58
f 1/1/1 11/135/11 2/2/2
f 4/4/4 62/136/61 3/5/3
f 5/7/5 63/137/62 6/8/6
f 8/10/8 6/138/6 9/11/9
f 6/13/6 63/139/62 11/14/11
f 12/16/12 64/140/63 13/17/13
f 15/19/15 14/141/14 13/20/13
f 17/22/17 65/142/64 18/23/18
f 21/33/21 20/143/20 26/34/26
f 22/27/22 28/144/28 27/36/27
f 28/38/28 30/145/30 29/39/29
f 30/41/30 31/146/31 24/29/24
f 32/45/32 34/61/34 21/26/21
f 33/47/33 22/147/22 21/48/21
f 33/50/33 36/148/36 28/51/28
f 35/53/35 30/149/30 28/54/28
f 35/56/35 38/150/37 31/44/31
f 37/58/26 25/151/25 31/59/31
f 17/63/17 39/152/38 33/47/33
f 39/64/38 40/70/39 36/65/36
f 41/72/40 44/153/43 42/73/41
f 41/75/40 40/154/39 19/76/19
f 44/78/43 46/155/45 45/79/44
f 19/81/19 18/156/18 46/82/45
f 25/84/25 66/157/65 47/85/46
f 51/90/50 35/53/35 36/55/36
f 51/92/50 48/87/47 38/93/37
f 48/95/47 53/158/52 37/96/26
f 49/101/48 48/87/47 51/92/50
f 50/105/49 49/159/48 4/106/4
f 54/108/53 57/160/56 53/109/52
f 55/111/54 63/161/62 5/112/5
f 57/114/56 54/162/53 55/115/54
f 11/117/11 63/163/62 55/118/54
f 54/120/53 4/164/4 2/121/2
f 58/123/57 61/165/60 59/124/58
f 61/126/60 49/166/48 52/127/51
f 59/129/58 41/167/40 43/130/42
f 52/132/51 40/168/39 41/133/40
