# Blender v2.79 (sub 0) OBJ File: ''
# www.blender.org
mtllib hurricos.042.mtl
o hurricos.042_hurricos.114_tex_72.041
v -3.729928 0.889424 -3.441423
v -3.952110 0.815363 -3.221556
v -3.729928 0.815363 -3.441423
v -3.729928 0.667242 -3.441423
v -3.952110 0.537636 -3.221556
v -3.952110 0.889424 -3.221556
v -4.197435 0.815363 -3.469195
v -4.197435 0.537636 -3.469196
v -4.197435 0.889424 -3.469195
vt 0.375000 1.000000
vt 0.437500 0.875000
vt 0.375000 0.875000
vt 0.375000 0.875000
vt 0.437500 1.000000
vt 0.437500 0.875000
vt 0.437500 1.000000
vt 0.375000 1.000000
vn 0.7034 0.0000 0.7108
usemtl Material__25.092
s 1
f 1/1/1 2/2/1 3/3/1
f 4/4/1 2/5/1 5/6/1
f 1/1/1 6/7/1 2/2/1
f 4/4/1 3/8/1 2/5/1
l 9 6
l 7 8
l 5 8
l 9 7
