# Blender v2.79 (sub 0) OBJ File: ''
# www.blender.org
mtllib hurricos.052.mtl
o hurricos.052_hurricos.114_tex_72.051
v 4.219998 1.148634 -2.217111
v 4.219998 1.111604 -2.217111
v 4.219998 1.111604 -2.159251
v 4.219998 0.815362 -2.133793
v 4.219998 0.519120 -2.166194
v 4.219998 0.519120 -2.108335
v 4.219998 0.815362 -2.191653
v 3.669174 0.519120 -2.804966
v 3.692318 0.815362 -2.480951
v 3.692318 0.815362 -2.804966
v 3.692318 0.815363 -3.126666
v 3.967731 0.519120 -2.455493
v 3.988560 0.815362 -2.191653
v 3.988560 0.815362 -2.480951
v 3.715462 1.111604 -2.506409
v 4.011703 1.111604 -2.217111
v 3.715462 1.111604 -3.098893
v 3.967731 0.519120 -2.166194
v 3.949215 0.519120 -1.932441
v 4.229257 0.519120 -1.900040
v 3.636772 0.519120 -1.948642
v 3.636772 0.519120 -2.224054
v 3.340530 0.528378 -1.948642
v 3.340530 0.519120 -2.244884
v 3.044289 0.519120 -1.948642
v 2.748047 0.519120 -2.244884
v 3.044289 0.519120 -2.244884
v 3.669174 0.519120 -2.455493
v 3.340530 0.519120 -2.520296
v 2.748047 0.519120 -2.541125
v 3.044289 0.519120 -2.541125
v 3.340530 0.519120 -2.837367
v 2.729532 0.519120 -2.723962
v 3.044289 0.519120 -2.837367
v 3.669174 0.519121 -3.152124
v 3.340530 0.519121 -3.142867
v 2.995687 0.519121 -3.182211
v 4.224627 1.333785 -2.508724
v 4.011703 1.111604 -2.506409
v 4.224627 1.333786 -2.804966
v 3.928386 1.333786 -2.804966
v 3.715462 1.111604 -2.804966
v 3.909870 0.519121 -3.152124
v 3.909870 0.815363 -3.191469
v 3.909870 0.519121 -3.216927
v 3.909870 0.815363 -3.126666
v 3.909870 1.111604 -3.166010
v 4.164454 0.815363 -3.191469
v 4.164454 0.519121 -3.216927
v 4.164454 0.519121 -3.152124
v 4.164454 1.111604 -3.166010
v 4.164454 0.815363 -3.126666
v 4.398207 0.815363 -3.115094
v 4.375063 1.111604 -3.087321
v 4.115851 0.519121 -3.323389
v 3.636772 0.519121 -3.420593
v 3.340530 0.519121 -3.429851
v 2.734160 0.889424 -3.186840
v 2.981800 0.741303 -3.182211
v 2.866081 0.671871 -3.184525
v 2.722589 0.741302 -2.730905
v 4.421350 0.519121 -3.140552
v 4.456066 0.519121 -3.543256
v 4.506983 1.407846 -1.793578
v 4.506983 1.111604 -2.159251
v 4.506983 1.111604 -1.793578
v 4.506983 0.815362 -2.133793
v 4.506983 0.519120 -2.108335
v 4.506983 0.815362 -1.793578
v 4.506983 1.148634 -2.217111
v 4.506983 1.440247 -2.166194
v 4.421350 0.519120 -2.832738
v 4.398207 0.815362 -2.807280
v 4.375063 1.111604 -2.781822
v 3.909870 1.148634 -3.098893
v 4.164454 1.148634 -3.098893
v 4.164454 1.111604 -3.098893
v 3.909870 1.111604 -3.098893
v 2.748047 0.519120 -1.948642
v 3.933014 0.519121 -3.388192
v 3.044289 0.519121 -3.478453
v 2.592983 0.889423 -2.941515
v 4.592615 0.519121 -3.436794
v 4.506983 0.519120 -1.793578
v 4.613444 0.667242 -3.448366
vt 0.312500 0.875000
vt 0.375000 0.875000
vt 0.312500 0.750000
vt 0.312500 0.875000
vt 0.375000 0.750000
vt 0.312500 0.750000
vt 0.312500 0.875000
vt 0.375000 0.750000
vt 0.312500 0.750000
vt 0.437500 0.875000
vt 0.500000 0.750000
vt 0.437500 0.750000
vt 0.437500 0.750000
vt 0.500000 0.875000
vt 0.500000 0.750000
vt 0.625000 0.875000
vt 0.687500 0.750000
vt 0.625000 0.750000
vt 0.125000 0.625000
vt 0.187500 0.750000
vt 0.187500 0.625000
vt 0.500000 0.875000
vt 0.562500 1.000000
vt 0.562500 0.875000
vt 0.500000 0.875000
vt 0.562500 1.000000
vt 0.562500 0.875000
vt 0.250000 0.625000
vt 0.187500 0.750000
vt 0.250000 0.625000
vt 0.187500 0.625000
vt 0.187500 0.625000
vt 0.250000 0.750000
vt 0.250000 0.625000
vt 0.125000 0.625000
vt 0.625000 0.875000
vt 0.687500 0.875000
vt 0.625000 0.750000
vt 0.875000 0.875000
vt 0.937500 1.000000
vt 0.937500 0.875000
vt 0.812500 1.000000
vt 0.875000 0.875000
vt 0.812500 0.875000
vt 0.937500 0.875000
vt 1.000000 1.000000
vt 1.000000 0.875000
vt 0.500000 0.500000
vt 0.562500 0.625000
vt 0.562500 0.500000
vt 0.437500 0.625000
vt 0.500000 0.500000
vt 0.437500 0.500000
vt 0.000000 0.875000
vt 0.062500 0.750000
vt 0.000000 0.750000
vt 0.937500 1.000000
vt 1.000000 0.875000
vt 0.500000 0.500000
vt 0.562500 0.625000
vt 0.562500 0.500000
vt 0.500000 0.625000
vt 0.562500 0.500000
vt 0.500000 0.500000
vt 0.750000 0.875000
vt 0.812500 0.750000
vt 0.750000 0.750000
vt 0.500000 0.500000
vt 0.562500 0.625000
vt 0.562500 0.500000
vt 0.500000 0.625000
vt 0.562500 0.500000
vt 0.500000 0.500000
vt 0.437500 0.625000
vt 0.437500 0.500000
vt 0.500000 0.500000
vt 0.562500 0.625000
vt 0.562500 0.500000
vt 0.500000 0.500000
vt 0.375000 0.750000
vt 0.437500 0.750000
vt 0.375000 0.625000
vt 0.375000 0.750000
vt 0.437500 0.750000
vt 0.375000 0.625000
vt 0.375000 0.750000
vt 0.437500 0.750000
vt 0.375000 0.625000
vt 0.375000 0.750000
vt 0.437500 0.750000
vt 0.375000 0.625000
vt 0.437500 0.750000
vt 0.375000 0.625000
vt 0.375000 0.750000
vt 0.437500 0.750000
vt 0.437500 0.625000
vt 0.375000 0.750000
vt 0.437500 0.750000
vt 0.375000 0.625000
vt 0.312500 0.750000
vt 0.375000 0.875000
vt 0.375000 0.750000
vt 0.312500 0.750000
vt 0.375000 0.875000
vt 0.375000 0.750000
vt 0.125000 0.875000
vt 0.187500 0.750000
vt 0.125000 0.750000
vt 0.062500 0.875000
vt 0.125000 0.750000
vt 0.062500 0.750000
vt 0.312500 0.875000
vt 0.375000 0.750000
vt 0.312500 0.750000
vt 0.312500 0.875000
vt 0.375000 0.750000
vt 0.312500 0.750000
vt 0.500000 1.000000
vt 0.562500 0.875000
vt 0.500000 0.875000
vt 0.500000 0.875000
vt 0.562500 1.000000
vt 0.562500 0.875000
vt 0.125000 0.750000
vt 0.187500 0.625000
vt 0.125000 0.625000
vt 0.125000 0.625000
vt 0.187500 0.750000
vt 0.187500 0.625000
vt 0.500000 0.625000
vt 0.562500 0.625000
vt 0.500000 0.500000
vt 0.437500 0.625000
vt 0.500000 0.500000
vt 0.437500 0.500000
vt 0.437500 0.500000
vt 0.500000 0.625000
vt 0.437500 0.500000
vt 0.500000 0.500000
vt 0.562500 0.625000
vt 0.562500 0.500000
vt 0.750000 1.000000
vt 0.812500 1.000000
vt 0.750000 0.875000
vt 0.500000 0.750000
vt 0.437500 0.875000
vt 0.437500 0.750000
vt 0.750000 1.000000
vt 0.812500 1.000000
vt 0.750000 0.875000
vt 0.687500 0.750000
vt 0.625000 0.875000
vt 0.625000 0.750000
vt 0.500000 0.500000
vt 0.562500 0.625000
vt 0.500000 0.625000
vt 0.500000 0.500000
vt 0.562500 0.625000
vt 0.500000 0.625000
vt 0.500000 0.500000
vt 0.437500 0.625000
vt 0.375000 0.625000
vt 0.437500 0.500000
vt 0.375000 0.500000
vt 0.125000 0.500000
vt 0.187500 0.625000
vt 0.125000 0.625000
vt 0.875000 0.625000
vt 0.937500 0.750000
vt 0.875000 0.750000
vt 0.312500 0.875000
vt 0.375000 0.750000
vt 0.312500 0.750000
vt 0.125000 0.875000
vt 0.187500 0.750000
vt 0.125000 0.750000
vt 0.062500 0.875000
vt 0.125000 0.750000
vt 0.062500 0.750000
vt 0.000000 0.750000
vt 0.062500 0.875000
vt 0.062500 0.750000
vt 0.500000 0.625000
vt 0.562500 0.625000
vt 0.500000 0.500000
vt 0.625000 0.750000
vt 0.687500 0.875000
vt 0.687500 0.750000
vt 0.187500 0.625000
vt 0.250000 0.750000
vt 0.187500 0.750000
vt 0.375000 0.750000
vt 0.375000 0.750000
vt 0.375000 0.625000
vt 0.375000 0.750000
vt 0.437500 0.750000
vt 0.437500 0.625000
vt 0.375000 0.625000
vt 0.312500 0.875000
vt 0.375000 0.750000
vt 0.312500 0.750000
vt 0.312500 0.875000
vt 0.375000 0.875000
vt 0.312500 0.750000
vt 0.312500 0.750000
vt 0.375000 0.750000
vt 0.375000 0.750000
vt 0.437500 0.750000
vt 0.375000 0.625000
vt 0.375000 0.875000
vt 0.500000 0.875000
vt 0.437500 0.875000
vt 0.125000 0.750000
vt 0.500000 1.000000
vt 0.500000 1.000000
vt 0.250000 0.750000
vt 0.250000 0.750000
vt 0.187500 0.750000
vt 0.125000 0.750000
vt 0.875000 1.000000
vt 0.875000 1.000000
vt 0.937500 1.000000
vt 0.500000 0.625000
vt 0.500000 0.625000
vt 0.062500 0.875000
vt 1.000000 1.000000
vt 0.500000 0.625000
vt 0.562500 0.625000
vt 0.812500 0.875000
vt 0.500000 0.625000
vt 0.562500 0.625000
vt 0.500000 0.625000
vt 0.500000 0.625000
vt 0.312500 0.875000
vt 0.312500 0.875000
vt 0.187500 0.875000
vt 0.125000 0.875000
vt 0.375000 0.875000
vt 0.562500 1.000000
vt 0.500000 1.000000
vt 0.187500 0.750000
vt 0.125000 0.750000
vt 0.500000 0.625000
vt 0.437500 0.625000
vt 0.500000 0.625000
vt 0.500000 0.875000
vt 0.687500 0.875000
vt 0.500000 0.625000
vt 0.437500 0.625000
vt 0.187500 0.500000
vt 0.937500 0.625000
vt 0.375000 0.875000
vt 0.187500 0.875000
vt 0.125000 0.875000
vt 0.000000 0.875000
vt 0.625000 0.875000
vt 0.250000 0.625000
vt 0.375000 0.875000
vn -0.2886 0.6290 0.7219
vn -0.6976 0.0307 0.7158
vn -0.6198 0.4059 0.6716
vn -0.7071 0.0605 0.7045
vn -0.5820 0.5991 0.5498
vn -0.2799 0.9136 0.2950
vn -0.6790 0.7341 0.0000
vn -0.7026 0.1152 0.7022
vn -0.9970 0.0779 0.0000
vn -0.7017 0.1178 -0.7027
vn -0.5588 0.6181 0.5529
vn -0.7038 0.1124 0.7014
vn -0.7021 0.1127 0.7032
vn -0.6206 0.4642 0.6320
vn -0.6435 0.4388 0.6271
vn -0.6450 0.4401 -0.6247
vn -0.2757 0.9201 0.2782
vn -0.0000 1.0000 0.0000
vn 0.0154 0.9999 0.0000
vn 0.0044 1.0000 -0.0041
vn -0.0076 0.9997 -0.0238
vn -0.0034 0.9999 -0.0114
vn -0.0078 0.9999 -0.0078
vn -0.2751 0.9208 0.2764
vn 0.4472 0.8565 0.2576
vn -0.2751 0.9208 -0.2764
vn 0.3499 0.9361 0.0341
vn -0.4081 0.9074 0.1003
vn -0.5782 0.6456 0.4989
vn 0.3210 0.9424 -0.0936
vn -0.2535 0.9669 0.0288
vn -0.9127 0.4087 0.0000
vn -0.5820 0.5991 -0.5498
vn -0.7071 0.0605 -0.7045
vn -0.2799 0.9136 -0.2950
vn -0.7080 0.0632 -0.7034
vn -0.6149 0.4297 -0.6613
vn 0.7071 0.0605 -0.7045
vn 0.2799 0.9136 -0.2950
vn 0.5934 0.6014 -0.5349
vn 0.6149 0.4297 -0.6613
vn 0.7255 0.0624 -0.6854
vn 0.7186 0.1168 -0.6855
vn 0.6625 0.4171 -0.6222
vn 0.5122 0.8580 0.0386
vn 0.8038 0.4168 -0.4245
vn 0.0193 0.0011 -0.9998
vn 0.7889 0.4151 0.4532
vn 0.4920 0.7306 -0.4734
vn -1.0000 -0.0000 0.0000
vn -0.8213 0.2951 0.4882
vn -0.7814 0.5256 0.3363
vn 0.9970 0.0779 0.0000
vn 0.9222 0.3866 0.0000
vn -0.2321 0.7101 -0.6648
vn 0.2419 0.6993 -0.6727
vn 0.7161 0.0327 -0.6972
vn -0.6967 0.0335 -0.7165
vn 0.4880 0.8264 0.2809
vn -0.7935 0.6086 0.0000
usemtl Material__25.081
s 1
f 1/1/1 2/2/2 3/3/3
f 4/4/4 5/5/5 6/6/6
f 3/7/3 7/8/4 4/9/4
f 8/10/7 9/11/8 10/12/9
f 11/13/10 8/14/7 10/15/9
f 12/16/11 13/17/12 14/18/13
f 14/19/13 15/20/14 9/21/8
f 9/22/8 12/23/11 14/24/13
f 13/25/12 5/26/5 7/27/4
f 15/20/14 10/28/9 9/21/8
f 16/29/15 14/30/13 13/31/12
f 10/32/9 17/33/16 11/34/10
f 7/35/4 16/29/15 13/31/12
f 5/36/5 18/37/17 6/38/6
f 6/39/6 19/40/18 20/41/18
f 21/42/19 18/43/17 22/44/20
f 22/45/20 23/46/21 21/47/19
f 24/48/22 25/49/23 23/50/21
f 26/51/18 25/52/23 27/53/18
f 12/54/11 22/55/20 18/56/17
f 28/57/24 24/58/22 22/45/20
f 29/59/18 27/60/18 24/61/22
f 30/62/18 27/63/18 31/64/18
f 29/65/18 8/66/7 32/67/18
f 32/68/18 31/69/18 29/70/18
f 33/71/25 31/72/18 34/73/18
f 35/74/26 32/68/18 8/75/7
f 36/76/18 34/77/18 32/78/18
f 33/71/25 34/77/18 37/79/27
f 1/80/1 16/81/15 2/82/2
f 16/83/15 1/84/1 38/85/28
f 38/86/28 39/87/29 16/88/15
f 39/89/29 38/90/28 40/91/30
f 39/89/29 40/92/30 41/93/31
f 15/94/14 39/87/29 41/93/31
f 41/95/31 42/96/32 15/94/14
f 41/97/31 17/98/16 42/99/32
f 43/100/33 44/101/34 45/102/35
f 46/103/36 47/104/37 44/105/34
f 47/106/37 48/107/38 44/108/34
f 44/109/34 49/110/39 45/111/35
f 48/112/38 50/113/40 49/114/39
f 51/115/41 52/116/42 48/117/38
f 43/118/33 11/119/10 46/120/36
f 53/121/43 50/122/40 52/123/42
f 17/124/16 46/125/36 11/126/10
f 52/127/42 54/128/44 53/129/43
f 43/130/33 45/131/35 35/132/26
f 55/133/18 45/134/35 49/135/39
f 45/136/35 56/137/18 35/132/26
f 36/138/18 56/137/18 57/139/18
f 57/139/18 37/140/27 36/141/18
f 58/142/45 59/143/46 60/144/47
f 59/145/46 33/146/25 37/147/27
f 37/148/27 60/149/47 59/150/46
f 58/151/45 61/152/48 59/153/46
f 50/154/40 62/155/49 49/156/39
f 49/157/39 63/158/18 55/159/18
f 62/160/49 63/161/18 49/135/39
f 64/162/50 65/163/51 66/164/50
f 67/165/4 66/166/50 65/167/51
f 68/168/5 69/169/50 67/170/4
f 70/171/52 3/172/3 65/173/51
f 65/174/51 4/175/4 67/176/4
f 67/177/4 6/178/6 68/179/5
f 20/180/18 68/181/5 6/182/6
f 65/183/51 71/184/50 70/185/52
f 72/186/53 53/187/43 73/188/53
f 73/189/53 54/190/44 74/191/54
f 75/192/55 17/98/16 41/93/31
f 76/193/56 40/92/30 54/194/44
f 74/195/54 54/196/44 40/91/30
f 74/195/54 40/92/30 38/85/28
f 41/97/31 76/197/56 75/198/55
f 75/199/55 51/200/41 47/201/37
f 76/202/56 77/203/57 51/204/41
f 75/199/55 47/104/37 78/205/58
f 78/206/58 17/98/16 75/198/55
f 54/207/44 77/208/57 76/209/56
f 4/4/4 7/210/4 5/5/5
f 3/7/3 2/2/2 7/8/4
f 8/10/7 28/211/24 9/11/8
f 11/13/10 35/212/26 8/14/7
f 12/16/11 18/37/17 13/17/12
f 14/19/13 39/213/29 15/20/14
f 9/22/8 28/214/24 12/23/11
f 13/25/12 18/215/17 5/26/5
f 15/20/14 42/216/32 10/28/9
f 16/29/15 39/217/29 14/30/13
f 10/32/9 42/218/32 17/33/16
f 7/35/4 2/219/2 16/29/15
f 6/39/6 18/220/17 19/40/18
f 21/42/19 19/221/18 18/43/17
f 22/45/20 24/222/22 23/46/21
f 24/48/22 27/223/18 25/49/23
f 26/51/18 79/224/18 25/52/23
f 12/54/11 28/225/24 22/55/20
f 28/57/24 29/226/18 24/58/22
f 29/59/18 31/227/18 27/60/18
f 30/62/18 26/228/18 27/63/18
f 29/65/18 28/229/24 8/66/7
f 32/68/18 34/230/18 31/69/18
f 33/71/25 30/231/18 31/72/18
f 35/74/26 36/232/18 32/68/18
f 36/76/18 37/233/27 34/77/18
f 43/100/33 46/234/36 44/101/34
f 46/103/36 78/235/58 47/104/37
f 47/106/37 51/236/41 48/107/38
f 44/109/34 48/237/38 49/110/39
f 48/112/38 52/238/42 50/113/40
f 51/115/41 77/203/57 52/116/42
f 43/118/33 35/239/26 11/119/10
f 53/121/43 62/240/49 50/122/40
f 17/124/16 78/241/58 46/125/36
f 52/127/42 77/242/57 54/128/44
f 55/133/18 80/243/18 45/134/35
f 45/136/35 80/244/18 56/137/18
f 36/138/18 35/74/26 56/137/18
f 57/139/18 81/245/18 37/140/27
f 59/145/46 61/246/48 33/146/25
f 58/151/45 82/247/59 61/152/48
f 62/160/49 83/248/18 63/161/18
f 64/162/50 71/249/50 65/163/51
f 67/165/4 69/250/50 66/166/50
f 68/168/5 84/251/60 69/169/50
f 70/171/52 1/252/1 3/172/3
f 65/174/51 3/253/3 4/175/4
f 67/177/4 4/254/4 6/178/6
f 20/180/18 84/255/60 68/181/5
f 72/186/53 62/256/49 53/187/43
f 73/189/53 53/257/43 54/190/44
f 41/97/31 40/92/30 76/197/56
f 75/199/55 76/258/56 51/200/41
l 85 83
