# Blender v2.79 (sub 0) OBJ File: ''
# www.blender.org
mtllib hurricos.057.mtl
o hurricos.057_hurricos.114_tex_72.056
v 9.348684 0.704271 -2.242569
v 9.378773 0.722786 -2.247198
v 9.362572 0.732044 -2.249512
v 9.388029 0.741301 -2.256455
v 9.383402 0.745930 -2.258770
v 9.371828 0.722786 -2.263399
v 9.369514 0.704271 -2.272656
v 9.385715 0.704271 -2.242569
v 9.385715 0.741301 -2.265713
v 9.404230 0.745930 -2.270342
vt 0.625000 0.875000
vt 0.687500 0.750000
vt 0.625000 0.750000
vt 0.625000 0.875000
vt 0.687500 0.750000
vt 0.625000 0.750000
vt 0.625000 0.875000
vt 0.687500 0.750000
vt 0.625000 0.750000
vt 0.687500 0.875000
vt 0.687500 0.750000
vt 0.625000 0.875000
vt 0.625000 0.750000
vt 0.625000 0.750000
vt 0.687500 0.750000
vt 0.625000 0.875000
vt 0.687500 0.875000
vt 0.625000 0.750000
vt 0.687500 0.875000
vt 0.687500 0.875000
vt 0.625000 0.750000
vt 0.687500 0.875000
vt 0.687500 0.875000
vt 0.687500 0.875000
vt 0.625000 0.875000
vn -0.7589 0.5307 0.3773
vn 0.7337 0.2284 0.6399
vn -0.6794 0.6718 0.2951
vn 0.7254 -0.0302 0.6876
vn -0.3020 0.9388 0.1658
vn 0.0416 0.2362 -0.9708
vn 0.0009 0.4471 -0.8945
vn 0.7835 0.3774 0.4936
vn -0.1009 -0.1250 -0.9870
vn 0.8731 0.1535 -0.4628
usemtl Material__25.076
s 1
f 1/1/1 2/2/2 3/3/3
f 3/4/3 4/5/4 5/6/5
f 5/7/5 6/8/6 3/3/3
f 1/9/1 6/10/6 7/11/7
f 8/12/8 6/8/6 2/13/2
f 4/14/4 6/10/6 9/15/9
f 4/16/4 9/17/9 10/18/10
f 5/7/5 4/19/4 10/18/10
f 5/7/5 10/20/10 9/21/9
f 1/1/1 8/22/8 2/2/2
f 3/4/3 2/23/2 4/5/4
f 5/7/5 9/17/9 6/8/6
f 1/9/1 3/4/3 6/10/6
f 8/12/8 7/24/7 6/8/6
f 4/14/4 2/25/2 6/10/6
