# Blender v2.79 (sub 0) OBJ File: ''
# www.blender.org
mtllib hurricos.010.mtl
o hurricos.010_hurricos.114_tex_72.009
v -5.125505 0.667242 -4.813856
v -4.780661 0.667242 -4.746738
v -4.921839 0.667242 -4.596303
v -5.150963 0.519122 -5.218874
v -4.935725 0.519122 -5.015207
v -4.993585 0.667242 -4.955033
v -4.720487 0.519122 -4.813856
v -5.340743 0.519122 -5.017522
v -4.935725 0.222880 -5.015207
v -5.150963 0.222880 -5.218874
v -4.720487 0.222880 -4.813856
v -4.657999 0.667242 -4.654163
v -4.806119 0.222880 -4.494470
v -4.910267 0.222880 -4.610189
v -4.595510 0.519122 -4.721280
v -4.595510 0.222880 -4.721280
v -5.340743 0.222880 -5.017522
v -5.125505 0.222880 -4.813856
v -5.324543 0.667242 -4.600932
v -5.324543 0.222880 -4.600932
v -5.123191 0.222880 -4.378750
v -5.123191 0.667242 -4.378750
vt 0.375000 0.750000
vt 0.437500 0.625000
vt 0.375000 0.625000
vt 0.375000 0.625000
vt 0.312500 0.625000
vt 0.375000 0.750000
vt 0.375000 0.625000
vt 0.312500 0.625000
vt 0.062500 0.750000
vt 0.125000 0.625000
vt 0.062500 0.625000
vt 0.312500 0.750000
vt 0.250000 0.875000
vt 0.187500 1.000000
vt 0.187500 0.875000
vt 0.312500 0.875000
vt 0.250000 1.000000
vt 0.375000 0.625000
vt 0.437500 0.750000
vt 0.625000 0.750000
vt 0.687500 0.875000
vt 0.687500 0.750000
vt 0.187500 0.750000
vt 0.250000 0.625000
vt 0.187500 0.625000
vt 0.687500 0.875000
vt 0.625000 1.000000
vt 0.625000 0.875000
vt 0.625000 1.000000
vt 0.625000 0.875000
vt 0.437500 0.750000
vt 0.437500 0.625000
vt 0.687500 0.875000
vt 0.625000 1.000000
vt 0.625000 0.875000
vt 0.437500 0.750000
vt 0.125000 0.750000
vt 0.312500 1.000000
vt 0.375000 0.750000
vt 0.625000 0.875000
vt 0.250000 0.750000
vt 0.687500 1.000000
vt 0.687500 1.000000
vt 0.375000 0.750000
vt 0.687500 1.000000
vn 0.1113 -0.9883 0.1040
vn -0.4146 -0.7722 0.4815
vn -0.0000 -1.0000 -0.0000
vn -0.3765 -0.5633 0.7355
vn -0.6628 -0.2539 0.7045
vn -0.1912 -0.8802 0.4344
vn -0.6194 -0.2707 0.7369
vn 0.3263 -0.8941 0.3067
vn -0.4841 0.7077 0.5145
vn -0.4863 0.7067 0.5139
vn -0.4442 0.7202 0.5329
vn -0.5113 -0.5211 0.6834
vn 0.0000 1.0000 0.0000
vn -0.5736 -0.2671 0.7744
vn -0.4360 0.6808 0.5886
usemtl Material__25.123
s 1
f 1/1/1 2/2/2 3/3/3
f 4/4/4 5/5/5 6/6/6
f 5/7/5 7/8/7 6/6/6
f 6/9/6 8/10/8 4/11/4
f 2/12/2 6/6/6 7/8/7
f 9/13/9 4/14/4 10/15/10
f 11/16/11 5/17/5 9/13/9
f 7/18/7 12/19/12 2/2/2
f 13/20/13 11/21/11 14/22/13
f 15/23/14 11/24/11 16/25/15
f 9/26/9 17/27/13 18/28/13
f 11/21/11 18/29/13 14/30/13
f 3/3/3 19/31/3 1/32/1
f 14/33/13 20/34/13 21/35/13
f 1/1/1 6/36/6 2/2/2
f 6/9/6 1/37/1 8/10/8
f 9/13/9 5/17/5 4/14/4
f 11/16/11 7/38/7 5/17/5
f 7/18/7 15/39/14 12/19/12
f 13/20/13 16/40/15 11/21/11
f 15/23/14 7/41/7 11/24/11
f 9/26/9 10/42/10 17/27/13
f 11/21/11 9/43/9 18/29/13
f 3/3/3 22/44/3 19/31/3
f 14/33/13 18/45/13 20/34/13
