# Blender v2.79 (sub 0) OBJ File: ''
# www.blender.org
mtllib hurricos.080.mtl
o hurricos.080_hurricos.114_tex_72.347
v 7.494860 1.060687 -1.309870
v 7.524946 1.037543 -1.214980
v 7.587435 1.037543 -1.279783
v 7.494860 1.060687 -1.337643
v 7.587435 1.037543 -1.372359
v 7.522633 1.037543 -1.434847
v 7.622150 0.963483 -1.386245
v 7.536518 0.963483 -1.471878
v 7.622150 0.963483 -1.265897
v 7.538834 0.963483 -1.180264
v 8.045685 0.519120 -0.428088
v 7.779530 0.519120 -0.731273
v 7.779530 0.519120 -0.435031
v 7.483288 0.519120 -0.435031
v 8.362755 0.542264 -0.680356
v 8.339611 0.519120 -0.347085
v 8.483103 0.222878 -0.668785
v 8.392843 -0.073364 -0.386429
v 8.515505 -0.073364 -0.666470
v 8.365070 0.222878 -0.388744
v 9.966627 0.718158 -1.920869
v 9.728245 0.704271 -1.749604
v 9.756018 0.704271 -1.717203
v 9.911081 0.644097 -1.983358
v 9.934225 0.718158 -1.950956
v 9.434317 0.713529 -1.657029
v 9.700472 0.630211 -1.779691
v 9.422745 0.713529 -1.696373
v 9.182049 0.727415 -1.617684
v 9.406546 0.639468 -1.712574
v 9.154276 0.727415 -1.657029
v 9.110304 0.653355 -1.680173
v 8.844149 0.722786 -1.633885
v 8.885807 0.722786 -1.594540
v 9.311655 0.644097 -1.909297
v 9.064014 0.667241 -1.782006
v 8.816376 0.648726 -1.657029
v 9.772219 -0.073364 -1.680173
v 9.441261 0.296939 -1.592226
v 9.448204 -0.073364 -1.562139
v 10.001343 -0.073364 -1.897725
v 9.762960 0.296939 -1.703317
v 9.978199 0.296939 -1.913926
v 9.188992 0.296939 -1.552881
v 8.899694 -0.073364 -1.501965
v 9.193621 -0.073364 -1.520480
v 8.892750 0.296939 -1.534366
v 8.529392 0.667241 -1.636199
v 8.598824 0.741301 -1.573711
v 8.564108 0.741301 -1.615370
v 8.598824 0.519120 -1.545938
v 8.529392 0.519120 -1.608427
v 8.608080 0.667241 -1.911612
v 8.314154 0.667241 -1.879210
v 8.314154 0.519120 -1.879210
v 8.020226 0.639468 -1.967157
v 8.010967 0.519120 -1.916240
v 8.617338 0.296939 -1.534366
v 8.645111 -0.073364 -1.511222
v 7.767958 0.519120 -1.518165
v 7.872105 0.519120 -1.395503
v 7.779530 0.519120 -1.619998
v 7.670753 0.519120 -1.036772
v 7.779530 0.519120 -1.027515
v 7.767958 0.519120 -1.136291
v 8.075771 0.519120 -1.619998
v 8.075771 0.519120 -1.323757
v 7.872105 0.519120 -1.265897
v 8.075771 0.500605 -1.020572
v 7.666124 0.519120 -1.617684
v 8.418301 0.519120 -1.291355
v 8.372013 0.519120 -1.619998
v 8.277122 0.542264 -0.978913
v 8.075771 0.519120 -0.724330
v 7.483288 0.519120 -0.731273
v 7.288879 0.519120 -1.034458
v 7.761015 0.519120 -1.916240
v 7.286564 0.519120 -1.615370
v 7.476345 0.519120 -1.916240
v 8.402100 -0.073364 -0.974284
v 8.376642 0.222878 -0.978913
v 8.508562 0.222878 -1.286726
v 8.540964 -0.073364 -1.272840
v 7.754070 0.556150 -1.441791
v 7.735556 0.741301 -1.497336
v 7.723984 0.741301 -1.427904
v 7.707783 0.926453 -1.478821
v 7.691582 0.963483 -1.414018
v 7.754070 0.556150 -1.212666
v 7.723984 0.741301 -1.224238
v 7.737869 0.741301 -1.157121
v 7.710098 0.926453 -1.175636
v 7.691582 0.963483 -1.238124
v 7.860533 0.556150 -1.272840
v 7.860533 0.556150 -1.386245
v 7.754070 0.519120 -1.201094
v 7.754070 0.519120 -1.453362
v 7.365253 0.519120 -1.048344
v 7.362940 0.519120 -1.601483
v 7.580492 0.741301 -1.080746
v 7.390713 0.963483 -1.113147
v 7.376825 0.741301 -1.078431
v 7.631409 0.926453 -1.096946
v 7.566605 0.963483 -1.113147
v 7.594378 0.519120 -1.050659
v 7.649923 0.741301 -1.066859
v 7.647610 0.741301 -1.585283
v 7.629093 0.926453 -1.557510
v 7.578176 0.741301 -1.573711
v 7.564291 0.963483 -1.538995
v 7.589748 0.519120 -1.601483
v 7.374512 0.741301 -1.571396
v 7.388397 0.963483 -1.538995
v 7.416170 0.963483 -1.469563
v 7.418484 0.963483 -1.180264
vt 0.312500 0.875000
vt 0.375000 0.875000
vt 0.312500 0.750000
vt 0.312500 0.875000
vt 0.375000 0.875000
vt 0.312500 0.750000
vt 0.375000 0.750000
vt 0.312500 0.750000
vt 0.375000 0.875000
vt 0.437500 0.750000
vt 0.375000 0.750000
vt 0.375000 0.750000
vt 0.437500 0.875000
vt 0.437500 0.750000
vt 0.437500 0.750000
vt 0.375000 0.750000
vt 0.937500 1.000000
vt 1.000000 0.875000
vt 0.937500 0.875000
vt 0.937500 1.000000
vt 0.500000 0.500000
vt 0.562500 0.625000
vt 0.562500 0.500000
vt 0.000000 0.750000
vt 0.062500 0.625000
vt 0.000000 0.625000
vt 0.312500 0.625000
vt 0.375000 0.500000
vt 0.312500 0.500000
vt 0.312500 0.750000
vt 0.375000 0.875000
vt 0.312500 0.875000
vt 0.250000 0.750000
vt 0.187500 0.875000
vt 0.187500 0.750000
vt 0.375000 0.750000
vt 0.312500 0.875000
vt 0.312500 0.750000
vt 0.312500 0.750000
vt 0.250000 0.875000
vt 0.250000 0.750000
vt 0.375000 0.750000
vt 0.312500 0.875000
vt 0.312500 0.750000
vt 0.250000 0.750000
vt 0.187500 0.875000
vt 0.187500 0.750000
vt 0.312500 0.750000
vt 0.250000 0.875000
vt 0.250000 0.750000
vt 0.375000 0.750000
vt 0.312500 0.875000
vt 0.312500 0.750000
vt 0.437500 0.625000
vt 0.500000 0.500000
vt 0.437500 0.500000
vt 0.500000 0.625000
vt 0.437500 0.500000
vt 0.000000 0.625000
vt 0.062500 0.750000
vt 0.062500 0.625000
vt 0.312500 0.750000
vt 0.375000 0.875000
vt 0.375000 0.750000
vt 0.000000 0.625000
vt 0.062500 0.750000
vt 0.062500 0.625000
vt 0.312500 0.875000
vt 0.375000 0.750000
vt 0.312500 0.750000
vt 0.000000 0.750000
vt 0.062500 0.625000
vt 0.000000 0.625000
vt 0.312500 0.875000
vt 0.375000 0.750000
vt 0.312500 0.750000
vt 0.000000 0.750000
vt 0.062500 0.625000
vt 0.000000 0.625000
vt 0.312500 0.750000
vt 0.375000 0.875000
vt 0.375000 0.750000
vt 0.312500 0.875000
vt 0.375000 0.875000
vt 0.312500 0.750000
vt 0.312500 0.750000
vt 0.375000 0.875000
vt 0.375000 0.750000
vt 0.250000 0.750000
vt 0.187500 0.875000
vt 0.187500 0.750000
vt 0.375000 0.750000
vt 0.312500 0.875000
vt 0.312500 0.750000
vt 0.437500 0.625000
vt 0.500000 0.500000
vt 0.437500 0.500000
vt 0.375000 0.625000
vt 0.437500 0.500000
vt 0.375000 0.500000
vt 0.375000 0.500000
vt 0.312500 0.625000
vt 0.312500 0.500000
vt 0.312500 0.875000
vt 0.375000 0.750000
vt 0.312500 0.750000
vt 0.375000 0.875000
vt 0.000000 0.750000
vt 0.062500 0.625000
vt 0.000000 0.625000
vt 0.500000 0.625000
vt 0.562500 0.625000
vt 0.500000 0.500000
vt 0.500000 0.625000
vt 0.562500 0.625000
vt 0.500000 0.500000
vt 0.937500 0.875000
vt 1.000000 1.000000
vt 1.000000 0.875000
vt 0.500000 0.625000
vt 0.500000 0.500000
vt 0.500000 0.625000
vt 0.562500 0.500000
vt 0.500000 0.500000
vt 0.500000 0.625000
vt 0.562500 0.625000
vt 0.500000 0.500000
vt 0.562500 0.625000
vt 0.500000 0.500000
vt 0.500000 0.625000
vt 0.562500 0.500000
vt 0.500000 0.500000
vt 0.500000 0.500000
vt 0.562500 0.625000
vt 0.562500 0.500000
vt 0.500000 0.500000
vt 0.562500 0.625000
vt 0.562500 0.500000
vt 0.562500 0.500000
vt 0.500000 0.500000
vt 0.500000 0.625000
vt 0.562500 0.500000
vt 0.500000 0.500000
vt 0.500000 0.625000
vt 0.562500 0.625000
vt 0.500000 0.500000
vt 0.937500 1.000000
vt 1.000000 0.875000
vt 1.000000 1.000000
vt 1.000000 0.875000
vt 0.937500 1.000000
vt 1.000000 0.875000
vt 0.500000 0.500000
vt 0.562500 0.500000
vt 0.500000 0.625000
vt 0.500000 0.500000
vt 0.500000 0.625000
vt 0.562500 0.625000
vt 0.500000 0.500000
vt 0.000000 0.625000
vt 0.062500 0.750000
vt 0.062500 0.625000
vt 0.187500 0.500000
vt 0.250000 0.625000
vt 0.250000 0.500000
vt 0.000000 0.750000
vt 0.062500 0.625000
vt 0.000000 0.625000
vt 0.250000 0.500000
vt 0.312500 0.625000
vt 0.250000 0.625000
vt 0.000000 0.625000
vt 0.062500 0.750000
vt 0.062500 0.625000
vt 0.187500 0.500000
vt 0.250000 0.625000
vt 0.250000 0.500000
vt 0.312500 0.875000
vt 0.375000 0.750000
vt 0.312500 0.750000
vt 0.312500 0.875000
vt 0.375000 0.750000
vt 0.312500 0.750000
vt 0.375000 0.875000
vt 0.437500 0.750000
vt 0.375000 0.750000
vt 0.375000 0.875000
vt 0.437500 0.750000
vt 0.375000 0.750000
vt 0.312500 0.750000
vt 0.375000 0.875000
vt 0.375000 0.750000
vt 0.312500 0.750000
vt 0.375000 0.875000
vt 0.375000 0.750000
vt 0.625000 0.875000
vt 0.687500 0.750000
vt 0.625000 0.750000
vt 0.625000 0.875000
vt 0.687500 0.750000
vt 0.625000 0.750000
vt 0.625000 0.875000
vt 0.687500 0.750000
vt 0.625000 0.750000
vt 0.625000 0.750000
vt 0.687500 0.875000
vt 0.687500 0.750000
vt 0.312500 0.875000
vt 0.375000 0.875000
vt 0.312500 0.750000
vt 0.375000 0.875000
vt 0.312500 0.750000
vt 0.500000 0.625000
vt 0.562500 0.625000
vt 0.500000 0.625000
vt 0.562500 0.500000
vt 0.500000 0.625000
vt 0.562500 0.500000
vt 0.500000 0.500000
vt 0.375000 0.750000
vt 0.437500 0.875000
vt 0.437500 0.750000
vt 0.375000 0.750000
vt 0.437500 0.875000
vt 0.375000 0.875000
vt 0.312500 0.875000
vt 0.375000 0.750000
vt 0.312500 0.750000
vt 0.312500 0.875000
vt 0.375000 0.750000
vt 0.312500 0.750000
vt 0.312500 0.750000
vt 0.375000 0.875000
vt 0.375000 0.750000
vt 0.312500 0.750000
vt 0.375000 0.750000
vt 0.312500 0.750000
vt 0.375000 0.875000
vt 0.375000 0.750000
vt 0.312500 0.875000
vt 0.375000 0.750000
vt 0.312500 0.750000
vt 0.312500 0.750000
vt 0.375000 0.875000
vt 0.375000 0.750000
vt 0.312500 0.750000
vt 0.375000 0.875000
vt 0.375000 0.750000
vt 0.375000 0.750000
vt 0.437500 0.875000
vt 0.437500 0.750000
vt 0.375000 0.750000
vt 0.437500 0.875000
vt 0.437500 0.750000
vt 0.312500 0.875000
vt 0.312500 0.875000
vt 0.312500 0.750000
vt 0.375000 0.875000
vt 0.312500 0.750000
vt 0.375000 0.875000
vt 0.375000 0.750000
vt 0.312500 0.875000
vt 0.375000 0.750000
vt 0.312500 0.750000
vt 0.312500 0.750000
vt 0.375000 0.875000
vt 0.312500 0.750000
vt 0.375000 0.875000
vt 0.437500 0.875000
vt 0.375000 0.875000
vt 0.437500 0.875000
vt 1.000000 1.000000
vt 1.000000 1.000000
vt 0.500000 0.625000
vt 0.062500 0.750000
vt 0.375000 0.625000
vt 0.375000 0.750000
vt 0.250000 0.875000
vt 0.375000 0.875000
vt 0.312500 0.875000
vt 0.375000 0.875000
vt 0.250000 0.875000
vt 0.312500 0.875000
vt 0.375000 0.875000
vt 0.500000 0.625000
vt 0.000000 0.750000
vt 0.312500 0.875000
vt 0.000000 0.750000
vt 0.375000 0.875000
vt 0.062500 0.750000
vt 0.375000 0.875000
vt 0.062500 0.750000
vt 0.312500 0.875000
vt 0.250000 0.875000
vt 0.375000 0.875000
vt 0.500000 0.625000
vt 0.437500 0.625000
vt 0.375000 0.625000
vt 0.375000 0.875000
vt 0.062500 0.750000
vt 0.937500 1.000000
vt 0.562500 0.625000
vt 0.500000 0.625000
vt 0.500000 0.625000
vt 0.562500 0.625000
vt 0.562500 0.625000
vt 1.000000 1.000000
vt 0.937500 1.000000
vt 1.000000 1.000000
vt 0.500000 0.625000
vt 0.000000 0.750000
vt 0.187500 0.625000
vt 0.062500 0.750000
vt 0.312500 0.500000
vt 0.000000 0.750000
vt 0.187500 0.625000
vt 0.375000 0.875000
vt 0.375000 0.875000
vt 0.437500 0.875000
vt 0.437500 0.875000
vt 0.312500 0.875000
vt 0.312500 0.875000
vt 0.687500 0.875000
vt 0.687500 0.875000
vt 0.562500 0.625000
vt 0.562500 0.625000
vt 0.375000 0.875000
vt 0.437500 0.750000
vt 0.375000 0.875000
vt 0.375000 0.875000
vt 0.312500 0.875000
vt 0.312500 0.875000
vt 0.312500 0.875000
vt 0.375000 0.875000
vt 0.312500 0.875000
vt 0.312500 0.875000
vt 0.375000 0.875000
vt 0.312500 0.875000
vt 0.312500 0.875000
vn 0.2241 0.9728 0.0587
vn 0.5189 0.6913 0.5028
vn 0.6266 0.7376 0.2517
vn 0.2215 0.9734 -0.0583
vn 0.6223 0.7365 -0.2653
vn 0.5019 0.6982 -0.5105
vn 0.3826 0.9100 -0.1598
vn 0.1855 0.9650 -0.1855
vn 0.3885 0.9080 0.1571
vn 0.1923 0.9633 0.1871
vn -0.0239 0.9996 0.0170
vn 0.0081 0.9999 -0.0079
vn -0.0000 1.0000 0.0000
vn 0.6113 0.7912 -0.0150
vn 0.6990 0.7084 0.0977
vn 0.9745 0.2220 0.0334
vn 0.9146 0.0958 0.3929
vn 0.9936 0.1089 0.0308
vn 0.9401 0.1560 0.3032
vn 0.4621 0.7132 0.5272
vn -0.2126 0.8983 -0.3845
vn 0.3594 0.6637 0.6560
vn -0.6322 0.4705 -0.6156
vn -0.3873 0.8581 -0.3370
vn 0.1402 0.7549 0.6407
vn -0.3870 0.4542 -0.8024
vn -0.0783 0.7928 -0.6044
vn 0.0954 0.7608 0.6419
vn -0.1231 0.5562 -0.8219
vn -0.0475 0.8250 -0.5631
vn -0.0149 0.8352 -0.5497
vn -0.0149 0.7960 -0.6051
vn 0.0516 0.7489 0.6607
vn 0.0675 0.9975 0.0190
vn 0.0652 0.9923 0.1057
vn -0.0319 0.6313 -0.7749
vn 0.5205 0.0704 0.8509
vn 0.2277 0.1012 0.9685
vn 0.2520 0.0831 0.9642
vn 0.6917 0.0678 0.7190
vn 0.5239 0.0540 0.8500
vn 0.6973 0.0546 0.7147
vn 0.1095 0.1183 0.9869
vn 0.0137 0.0873 0.9961
vn 0.1106 0.0864 0.9901
vn 0.0372 0.1011 0.9942
vn -0.6688 0.6497 0.3615
vn -0.2598 0.6936 0.6719
vn -0.6276 0.7426 -0.2340
vn 0.0764 0.4245 0.9022
vn -0.4627 0.7688 0.4414
vn 0.0296 0.9995 0.0084
vn -0.5185 0.3097 0.7970
vn -0.3999 0.6521 0.6441
vn -0.1639 0.2890 0.9432
vn -0.0442 0.9311 0.3621
vn 0.4990 0.1176 0.8586
vn 0.5204 0.1096 0.8469
vn 0.4776 0.8627 -0.1663
vn 0.3327 0.9186 -0.2132
vn 0.1583 0.8658 0.4746
vn 0.0274 0.9996 0.0047
vn 0.4854 0.8589 0.1633
vn -0.0139 0.9999 0.0070
vn 0.3680 0.9019 0.2261
vn -0.0837 0.9965 0.0056
vn 0.1438 0.8676 -0.4760
vn 0.5379 0.8037 0.2543
vn 0.4199 0.9075 0.0136
vn -0.0535 0.9984 -0.0199
vn 0.9943 0.1007 0.0357
vn 0.9778 0.2043 0.0459
vn 0.8920 0.1808 0.4143
vn 0.9052 0.1181 0.4082
vn 0.9147 0.3602 -0.1833
vn 0.9373 0.1723 -0.3028
vn 0.9859 0.1459 0.0817
vn 0.8267 0.4675 -0.3129
vn 0.6329 0.7722 -0.0560
vn 0.9207 0.3485 0.1758
vn 0.9843 0.1446 -0.1014
vn 0.9444 0.1706 0.2810
vn 0.8357 0.4639 0.2939
vn 0.6295 0.7754 0.0499
vn 0.5834 0.7359 0.3438
vn 0.5755 0.7424 -0.3429
vn 0.7390 0.6298 0.2392
vn 0.7354 0.6295 -0.2508
vn 0.0046 0.9037 0.4280
vn -0.0023 0.9025 -0.4306
vn -0.0921 0.1360 0.9864
vn 0.0040 0.6608 0.7506
vn 0.0112 0.1433 0.9896
vn 0.3121 0.4674 0.8271
vn 0.0549 0.7721 0.6331
vn -0.0621 0.7309 0.6797
vn 0.2905 0.1693 0.9418
vn 0.2981 0.1640 -0.9403
vn 0.2996 0.4718 -0.8292
vn -0.0882 0.1327 -0.9872
vn 0.0470 0.7769 -0.6279
vn -0.0715 0.7283 -0.6815
vn -0.0090 0.1420 -0.9898
vn 0.0000 0.6617 -0.7497
usemtl Material__25.055
s 1
f 1/1/1 2/2/2 3/3/3
f 4/4/4 5/5/5 6/6/6
f 4/4/4 3/7/3 5/8/5
f 6/9/6 7/10/7 8/11/8
f 9/12/9 2/13/2 10/14/10
f 5/5/5 9/15/9 7/16/7
f 11/17/11 12/18/12 13/19/13
f 12/18/12 14/20/13 13/19/13
f 15/21/14 11/22/11 16/23/15
f 17/24/16 18/25/17 19/26/18
f 15/27/14 20/28/19 17/29/16
f 21/30/20 22/31/21 23/32/22
f 24/33/23 22/34/21 25/35/24
f 22/36/21 26/37/25 23/38/22
f 27/39/26 28/40/27 22/41/21
f 28/42/27 29/43/28 26/44/25
f 30/45/29 31/46/30 28/47/27
f 32/48/31 33/49/32 31/50/30
f 31/51/30 34/52/33 29/53/28
f 32/54/31 35/55/34 36/56/35
f 32/54/31 36/57/35 37/58/36
f 38/59/37 39/60/38 40/61/39
f 39/62/38 23/63/22 26/64/25
f 41/65/40 42/66/41 38/67/37
f 43/68/42 23/69/22 42/70/41
f 44/71/43 45/72/44 46/73/45
f 44/74/43 34/75/33 47/76/46
f 39/77/38 46/78/45 40/79/39
f 44/80/43 26/81/25 29/82/28
f 48/83/47 49/84/48 50/85/49
f 51/86/50 48/87/47 52/88/51
f 37/89/36 50/90/49 33/91/32
f 33/92/32 49/93/48 34/94/33
f 48/95/47 53/96/52 54/97/53
f 48/98/47 55/99/54 52/100/51
f 55/101/54 56/102/55 57/103/56
f 47/104/46 51/105/50 58/106/57
f 49/93/48 51/107/50 34/94/33
f 47/108/46 59/109/58 45/110/44
f 60/111/59 61/112/60 62/113/13
f 63/114/61 64/115/62 65/116/63
f 66/117/13 61/118/60 67/119/64
f 65/120/63 64/115/62 68/121/65
f 68/122/65 69/123/66 67/124/64
f 62/125/13 70/126/67 60/127/59
f 68/122/65 67/128/64 61/129/60
f 71/130/68 52/131/51 72/132/13
f 73/133/69 74/134/70 15/135/14
f 69/136/66 12/137/12 74/138/70
f 63/114/61 12/139/12 64/140/62
f 67/141/64 73/142/69 71/143/68
f 75/144/13 63/145/61 76/146/13
f 67/147/64 72/148/13 66/117/13
f 66/117/13 55/149/54 57/150/56
f 57/151/56 62/152/13 66/117/13
f 77/153/13 70/126/67 62/154/13
f 78/155/13 70/126/67 79/156/13
f 72/157/13 52/158/51 55/159/54
f 80/160/71 17/161/16 19/162/18
f 81/163/72 15/164/14 17/165/16
f 82/166/73 80/167/71 83/168/74
f 81/169/72 71/170/68 73/171/69
f 59/172/58 82/173/73 83/174/74
f 58/175/57 71/176/68 82/177/73
f 84/178/75 85/179/76 86/180/77
f 86/181/77 87/182/78 88/183/79
f 86/184/77 89/185/80 84/186/75
f 88/187/79 90/188/81 86/189/77
f 91/190/82 89/191/80 90/192/81
f 92/193/83 90/194/81 93/195/84
f 84/196/75 94/197/85 95/198/86
f 94/199/85 96/200/87 68/201/65
f 95/202/86 68/203/65 61/204/60
f 97/205/88 95/206/86 61/207/60
f 89/208/80 65/209/63 96/210/87
f 84/178/75 97/211/88 60/212/59
f 96/213/87 65/214/63 68/121/65
f 97/215/88 61/112/60 60/127/59
f 63/114/61 98/216/89 76/146/13
f 99/217/90 70/218/67 78/219/13
f 100/220/91 101/221/92 102/222/93
f 98/223/89 100/224/91 102/225/93
f 100/226/91 103/227/94 104/228/95
f 105/229/96 106/230/97 100/231/91
f 103/232/94 91/233/82 92/234/83
f 106/235/97 65/209/63 91/236/82
f 87/237/78 107/238/98 108/239/99
f 60/240/59 107/241/98 85/242/76
f 108/243/99 109/244/100 110/245/101
f 107/246/98 111/247/102 109/248/100
f 112/249/103 110/250/101 109/251/100
f 99/252/90 109/253/100 111/254/102
f 110/255/101 87/182/78 108/243/99
f 93/256/84 103/227/94 92/193/83
f 7/257/7 110/258/101 8/11/8
f 8/259/8 113/260/104 114/261/13
f 101/262/92 10/263/10 115/264/13
f 10/265/10 93/266/84 9/12/9
f 93/256/84 7/16/7 9/267/9
f 4/4/4 1/268/1 3/7/3
f 6/9/6 5/269/5 7/10/7
f 9/12/9 3/270/3 2/13/2
f 5/5/5 3/271/3 9/15/9
f 11/17/11 74/272/70 12/18/12
f 12/18/12 75/273/13 14/20/13
f 15/21/14 74/274/70 11/22/11
f 17/24/16 20/275/19 18/25/17
f 15/27/14 16/276/15 20/28/19
f 21/30/20 25/277/24 22/31/21
f 24/33/23 27/278/26 22/34/21
f 22/36/21 28/279/27 26/37/25
f 27/39/26 30/280/29 28/40/27
f 28/42/27 31/281/30 29/43/28
f 30/45/29 32/282/31 31/46/30
f 32/48/31 37/283/36 33/49/32
f 31/51/30 33/284/32 34/52/33
f 32/54/31 30/285/29 35/55/34
f 38/59/37 42/286/41 39/60/38
f 39/62/38 42/287/41 23/63/22
f 41/65/40 43/288/42 42/66/41
f 43/68/42 21/289/20 23/69/22
f 44/71/43 47/290/46 45/72/44
f 44/74/43 29/291/28 34/75/33
f 39/77/38 44/292/43 46/78/45
f 44/80/43 39/293/38 26/81/25
f 51/86/50 49/93/48 48/87/47
f 37/89/36 48/294/47 50/90/49
f 33/92/32 50/295/49 49/93/48
f 48/95/47 37/296/36 53/96/52
f 48/98/47 54/297/53 55/99/54
f 55/101/54 54/298/53 56/102/55
f 47/104/46 34/299/33 51/105/50
f 47/108/46 58/300/57 59/109/58
f 66/117/13 62/301/13 61/118/60
f 68/122/65 64/115/62 69/123/66
f 71/130/68 51/302/50 52/131/51
f 73/133/69 69/303/66 74/134/70
f 69/136/66 64/304/62 12/137/12
f 63/114/61 75/305/13 12/139/12
f 67/141/64 69/306/66 73/142/69
f 67/147/64 71/307/68 72/148/13
f 66/117/13 72/308/13 55/149/54
f 57/151/56 77/309/13 62/152/13
f 77/153/13 79/310/13 70/126/67
f 80/160/71 81/311/72 17/161/16
f 81/163/72 73/312/69 15/164/14
f 82/166/73 81/313/72 80/167/71
f 81/169/72 82/314/73 71/170/68
f 59/172/58 58/315/57 82/173/73
f 58/175/57 51/316/50 71/176/68
f 84/178/75 60/317/59 85/179/76
f 86/181/77 85/318/76 87/182/78
f 86/184/77 90/319/81 89/185/80
f 88/187/79 93/320/84 90/188/81
f 91/190/82 65/321/63 89/191/80
f 92/193/83 91/322/82 90/194/81
f 84/196/75 89/323/80 94/197/85
f 94/199/85 89/323/80 96/200/87
f 95/202/86 94/324/85 68/203/65
f 97/205/88 84/196/75 95/206/86
f 63/114/61 105/325/96 98/216/89
f 99/217/90 111/326/102 70/218/67
f 100/220/91 104/327/95 101/221/92
f 98/223/89 105/328/96 100/224/91
f 100/226/91 106/329/97 103/227/94
f 105/229/96 63/330/61 106/230/97
f 103/232/94 106/331/97 91/233/82
f 106/235/97 63/332/61 65/209/63
f 87/237/78 85/333/76 107/238/98
f 60/240/59 70/334/67 107/241/98
f 108/243/99 107/335/98 109/244/100
f 107/246/98 70/336/67 111/247/102
f 112/249/103 113/260/104 110/250/101
f 99/252/90 112/337/103 109/253/100
f 110/255/101 88/187/79 87/182/78
f 93/256/84 104/327/95 103/227/94
f 7/257/7 88/338/79 110/258/101
f 8/259/8 110/255/101 113/260/104
f 101/262/92 104/327/95 10/263/10
f 10/265/10 104/339/95 93/266/84
f 93/256/84 88/187/79 7/16/7
