# Blender v2.79 (sub 0) OBJ File: ''
# www.blender.org
mtllib hurricos.112.mtl
o hurricos.112_hurricos.114_tex_72.379
v -4.206693 0.361741 1.728923
v -4.151147 0.208991 1.608575
v -4.169662 0.357112 1.601631
v -4.215950 0.509862 1.701150
v -4.185863 0.505233 1.597003
v -3.473031 0.222878 1.812241
v -3.799360 0.222878 1.840013
v -3.674383 0.222878 1.964990
v -3.875735 0.222878 1.747438
v -3.718357 0.403400 2.015907
v -3.512376 0.463574 2.265861
v -3.533206 0.384885 2.279747
v -3.674383 0.292309 2.006649
v -3.493861 0.273794 2.242717
v -3.873421 0.519120 1.944161
v -3.799360 0.519120 1.840013
v -3.903508 0.519120 1.694207
v -3.542463 0.472832 2.515815
v -3.845648 0.519120 2.809743
v -3.537834 0.495976 2.809743
v -4.158091 0.519120 2.513501
v -3.859534 0.505233 2.513501
v -4.484419 0.477461 2.661622
v -4.461276 0.505233 2.513501
v -4.734373 0.505233 2.511187
v -5.021358 0.472832 2.490357
v -4.752888 0.477461 2.578304
v -4.125689 0.495976 2.217259
v -3.868792 0.482089 2.217259
v -4.421931 0.495976 2.217259
v -4.701972 0.495976 2.217259
v -5.002842 0.509862 2.217259
v -3.704470 0.509862 1.995077
v -4.373329 0.519120 1.858528
v -4.109488 0.519120 1.907131
v -4.701972 0.519120 1.902502
v -3.776216 0.500605 3.080526
v -3.517004 0.495975 3.062011
v -3.970625 0.468203 3.068954
v -3.817875 0.394143 1.853900
v -3.924337 0.394143 1.717351
v -4.049314 0.370999 3.064326
v -4.206693 0.477461 2.775027
v -4.243723 0.370999 2.853716
v -4.493677 0.370999 2.742626
v -4.778347 0.370999 2.661622
v -5.028301 0.370999 2.610705
v -3.456831 0.283052 1.849271
v -4.352499 0.509862 1.659491
v -4.373329 0.509862 1.728923
v -4.368700 0.630210 1.710408
v -5.285198 0.519120 2.217259
v -5.007471 0.519120 1.921017
v -4.715858 0.519120 1.684949
v -5.310656 0.519120 1.921017
v -5.044501 0.519120 1.636347
v -5.356944 0.505233 1.624775
v -4.544593 0.509862 1.675692
v -4.345556 0.630210 1.640976
v -4.338613 0.806104 1.613203
v -4.537650 0.630210 1.657177
v -4.521450 0.509862 1.606260
v -4.225208 0.630210 1.678006
v -4.199749 0.630210 1.594688
v -4.236780 0.806104 1.645605
v -5.238910 0.370999 2.809743
v -4.424245 0.384885 2.997209
v -4.669570 0.384885 3.133757
v -4.338613 0.384884 3.279564
v -4.757517 0.384885 2.846773
v -4.947297 0.384884 3.235590
v -5.076903 0.384885 2.964807
v -5.225024 0.384884 3.339738
v -5.268997 0.519120 2.522758
v -4.516821 0.630210 1.587745
v -4.560794 0.384884 3.353624
v -5.368516 0.384885 3.092098
vt 0.625000 0.750000
vt 0.625000 0.875000
vt 0.687500 0.750000
vt 0.625000 0.875000
vt 0.625000 0.750000
vt 0.500000 0.625000
vt 0.562500 0.625000
vt 0.500000 0.500000
vt 0.500000 0.625000
vt 0.500000 0.500000
vt 0.250000 0.500000
vt 0.312500 0.625000
vt 0.312500 0.500000
vt 0.875000 0.625000
vt 0.812500 0.750000
vt 0.812500 0.625000
vt 0.500000 0.625000
vt 0.562500 0.625000
vt 0.500000 0.500000
vt 0.500000 0.500000
vt 0.562500 0.625000
vt 0.562500 0.500000
vt 0.500000 0.625000
vt 0.562500 0.500000
vt 0.500000 0.500000
vt 0.437500 0.625000
vt 0.500000 0.500000
vt 0.437500 0.500000
vt 0.500000 0.625000
vt 0.562500 0.500000
vt 0.500000 0.500000
vt 0.500000 0.625000
vt 0.562500 0.625000
vt 0.500000 0.500000
vt 0.500000 0.500000
vt 0.562500 0.625000
vt 0.562500 0.500000
vt 0.750000 0.750000
vt 0.812500 0.875000
vt 0.812500 0.750000
vt 0.500000 0.625000
vt 0.562500 0.500000
vt 0.500000 0.500000
vt 0.500000 0.625000
vt 0.562500 0.500000
vt 0.500000 0.500000
vt 0.437500 0.500000
vt 0.500000 0.500000
vt 0.500000 0.500000
vt 0.562500 0.625000
vt 0.562500 0.500000
vt 0.500000 0.500000
vt 0.562500 0.625000
vt 0.562500 0.500000
vt 0.500000 0.625000
vt 0.562500 0.500000
vt 0.500000 0.500000
vt 0.500000 0.625000
vt 0.562500 0.500000
vt 0.500000 0.500000
vt 0.437500 0.500000
vt 0.500000 0.625000
vt 0.500000 0.500000
vt 0.562500 0.625000
vt 0.500000 0.500000
vt 0.562500 0.625000
vt 0.562500 0.500000
vt 0.500000 0.500000
vt 0.562500 0.625000
vt 0.562500 0.500000
vt 0.500000 0.500000
vt 0.562500 0.625000
vt 0.562500 0.500000
vt 0.187500 0.500000
vt 0.250000 0.625000
vt 0.250000 0.500000
vt 0.312500 0.625000
vt 0.312500 0.500000
vt 0.187500 0.625000
vt 0.187500 0.500000
vt 0.875000 0.625000
vt 0.937500 0.750000
vt 0.937500 0.625000
vt 0.812500 0.625000
vt 0.875000 0.750000
vt 0.875000 0.625000
vt 0.000000 1.000000
vt 0.062500 0.875000
vt 0.000000 0.875000
vt 0.125000 0.500000
vt 0.062500 0.500000
vt 0.125000 0.625000
vt 0.500000 0.625000
vt 0.562500 0.750000
vt 0.562500 0.625000
vt 0.312500 0.625000
vt 0.375000 0.500000
vt 0.312500 0.500000
vt 0.375000 0.625000
vt 0.437500 0.500000
vt 0.312500 0.500000
vt 0.375000 0.625000
vt 0.312500 0.625000
vt 0.500000 0.625000
vt 0.562500 0.750000
vt 0.562500 0.625000
vt 0.500000 0.625000
vt 0.562500 0.625000
vt 0.187500 0.625000
vt 0.250000 0.750000
vt 0.250000 0.625000
vt 0.500000 0.625000
vt 0.562500 0.500000
vt 0.500000 0.500000
vt 0.500000 0.625000
vt 0.562500 0.500000
vt 0.500000 0.500000
vt 0.500000 0.500000
vt 0.562500 0.625000
vt 0.562500 0.500000
vt 0.500000 0.500000
vt 0.562500 0.625000
vt 0.562500 0.500000
vt 0.437500 0.625000
vt 0.500000 0.500000
vt 0.437500 0.500000
vt 0.500000 0.625000
vt 0.562500 0.500000
vt 0.500000 0.500000
vt 0.437500 0.625000
vt 0.375000 0.625000
vt 0.437500 0.750000
vt 0.125000 0.750000
vt 0.187500 0.625000
vt 0.125000 0.625000
vt 0.187500 0.750000
vt 0.250000 0.625000
vt 0.312500 1.000000
vt 0.375000 0.875000
vt 0.312500 0.875000
vt 0.625000 0.875000
vt 0.687500 0.750000
vt 0.625000 0.750000
vt 0.625000 0.750000
vt 0.687500 0.875000
vt 0.687500 0.750000
vt 0.500000 0.625000
vt 0.562500 0.625000
vt 0.500000 0.500000
vt 0.437500 0.625000
vt 0.500000 0.500000
vt 0.437500 0.500000
vt 0.500000 0.625000
vt 0.562500 0.500000
vt 0.500000 0.500000
vt 0.500000 0.625000
vt 0.500000 0.500000
vt 0.500000 0.625000
vt 0.562500 0.500000
vt 0.500000 0.500000
vt 0.562500 0.625000
vt 0.562500 0.500000
vt 0.500000 0.500000
vt 0.562500 0.625000
vt 0.562500 0.500000
vt 0.562500 0.625000
vt 0.500000 0.625000
vt 0.687500 0.875000
vt 0.875000 0.750000
vt 0.500000 0.625000
vt 0.562500 0.625000
vt 0.500000 0.625000
vt 0.500000 0.625000
vt 0.750000 0.875000
vt 0.562500 0.625000
vt 0.562500 0.625000
vt 0.437500 0.625000
vt 0.500000 0.625000
vt 0.562500 0.625000
vt 0.562500 0.625000
vt 0.437500 0.625000
vt 0.500000 0.625000
vt 0.500000 0.625000
vt 0.187500 0.625000
vt 0.250000 0.625000
vt 0.875000 0.750000
vt 0.812500 0.750000
vt 0.062500 1.000000
vt 0.500000 0.750000
vt 0.437500 0.625000
vt 0.375000 0.500000
vt 0.500000 0.750000
vt 0.187500 0.750000
vt 0.562500 0.625000
vt 0.562500 0.625000
vt 0.500000 0.625000
vt 0.500000 0.625000
vt 0.562500 0.625000
vt 0.250000 0.750000
vt 0.375000 1.000000
vt 0.687500 0.875000
vt 0.625000 0.875000
vt 0.500000 0.625000
vt 0.562500 0.625000
vt 0.562500 0.625000
vt 0.500000 0.625000
vt 0.437500 0.625000
vn 0.6901 0.2734 -0.6701
vn 0.5102 0.4439 -0.7366
vn 0.9543 0.1221 0.2726
vn 0.5522 0.8247 0.1225
vn 0.9545 0.1163 0.2746
vn -0.3643 0.7979 -0.4802
vn 0.5038 0.7528 -0.4237
vn 0.0697 0.7823 -0.6190
vn 0.6321 0.2852 -0.7205
vn 0.8307 0.0595 -0.5536
vn 0.5699 0.7395 -0.3583
vn 0.8107 0.0645 -0.5819
vn 0.5603 0.4198 -0.7140
vn 0.7317 0.4343 -0.5254
vn 0.0164 0.9980 0.0610
vn 0.6475 0.6312 -0.4269
vn 0.3900 0.5280 -0.7544
vn 0.0951 0.9945 -0.0446
vn -0.0126 0.9991 0.0400
vn 0.0606 0.9978 -0.0261
vn -0.0222 0.9996 0.0175
vn 0.0687 0.9959 -0.0585
vn -0.1568 0.8536 0.4969
vn -0.0233 0.9970 0.0740
vn -0.0601 0.9835 0.1708
vn -0.0692 0.9617 0.2651
vn -0.1663 0.8148 0.5553
vn 0.0179 0.9998 0.0049
vn 0.0480 0.9983 0.0340
vn -0.0051 0.9999 0.0109
vn 0.0170 0.9997 0.0169
vn 0.0181 0.9980 0.0609
vn 0.6698 0.6611 -0.3380
vn 0.0053 1.0000 -0.0000
vn -0.0111 0.9996 0.0242
vn 0.0024 0.9993 0.0363
vn -0.0432 0.9971 0.0624
vn 0.0178 0.9998 -0.0015
vn -0.3478 0.8927 0.2867
vn 0.8048 -0.0079 -0.5934
vn 0.4641 -0.0283 -0.8853
vn -0.4158 0.8369 0.3559
vn -0.2707 0.8827 0.3841
vn -0.2692 0.8919 0.3634
vn -0.1426 0.9026 0.4062
vn -0.1103 0.9105 0.3986
vn -0.0938 0.9456 0.3114
vn -0.5080 0.5286 -0.6801
vn 0.4077 0.6170 0.6731
vn 0.1726 0.9363 0.3058
vn 0.6765 0.0812 0.7320
vn 0.0583 0.9975 0.0403
vn 0.0104 0.9998 0.0173
vn 0.0076 0.9999 -0.0151
vn -0.0121 0.9999 -0.0113
vn -0.0429 0.9983 -0.0401
vn -0.4727 0.8539 0.2177
vn 0.4566 0.1147 0.8823
vn -0.0761 0.1584 0.9844
vn -0.9041 0.1068 0.4137
vn -0.9518 0.0016 -0.3066
vn 0.2032 0.1942 0.9597
vn 0.9504 0.1110 0.2904
vn -0.2959 0.1582 0.9420
vn -0.0152 0.9988 -0.0473
vn 0.0219 0.9994 -0.0278
vn -0.0000 1.0000 0.0000
vn 0.0170 0.9998 -0.0051
vn 0.0005 0.9990 -0.0447
vn -0.0090 0.9996 -0.0269
vn 0.1825 0.9832 -0.0097
vn -0.9578 -0.0074 -0.2873
usemtl Material__25.021
s 1
f 1/1/1 2/2/2 3/3/3
f 4/4/4 3/3/3 5/5/5
f 6/6/6 7/7/7 8/8/8
f 9/9/9 7/7/7 6/10/6
f 10/11/10 11/12/11 12/13/12
f 13/14/13 12/15/12 14/16/14
f 15/17/15 16/18/16 17/19/17
f 18/20/18 19/21/19 20/22/20
f 21/23/21 19/24/19 22/25/22
f 23/26/23 21/27/21 24/28/24
f 25/29/25 23/30/23 24/31/24
f 26/32/26 27/33/27 25/34/25
f 11/35/11 22/36/22 18/37/18
f 28/38/28 22/39/22 29/40/29
f 30/41/30 21/42/21 28/43/28
f 31/44/31 24/45/24 30/46/30
f 32/47/32 25/29/25 31/48/31
f 33/49/33 29/50/29 11/51/11
f 15/52/15 28/53/28 29/54/29
f 34/55/34 28/56/28 35/57/35
f 36/58/36 30/59/30 34/60/34
f 20/61/20 37/62/37 38/63/38
f 15/17/15 33/64/33 16/65/16
f 17/19/17 35/66/35 15/67/15
f 4/68/4 34/69/34 35/70/35
f 19/71/19 39/72/39 37/73/37
f 40/74/40 33/75/33 10/11/10
f 41/76/41 16/77/16 40/78/40
f 4/79/4 41/76/41 1/80/1
f 2/81/2 41/82/41 9/83/9
f 9/84/9 40/85/40 7/86/7
f 40/87/40 13/88/13 7/89/7
f 8/90/8 7/91/7 13/92/13
f 42/93/42 43/94/43 44/95/44
f 43/96/43 45/97/45 44/98/44
f 23/99/23 46/100/46 45/97/45
f 47/101/47 27/102/27 26/103/26
f 8/104/8 48/105/48 6/106/6
f 49/107/49 50/108/50 4/68/4
f 49/109/49 51/110/51 50/111/50
f 52/112/52 26/113/26 32/114/32
f 53/115/53 31/116/31 36/117/36
f 53/118/53 52/119/52 32/120/32
f 36/58/36 34/69/34 54/121/54
f 54/121/54 53/122/53 36/123/36
f 55/124/55 56/125/55 57/126/56
f 58/127/57 34/128/34 50/129/50
f 51/130/51 59/131/58 60/132/59
f 51/133/51 58/134/57 50/135/50
f 61/136/60 62/137/61 58/134/57
f 63/138/62 49/139/49 4/140/4
f 63/141/62 5/142/5 64/143/63
f 65/144/64 59/145/58 63/146/62
f 47/147/47 66/148/65 46/149/46
f 67/150/66 42/151/42 44/152/44
f 68/153/67 69/154/68 67/155/66
f 67/156/66 44/95/44 45/157/45
f 70/158/69 67/159/66 45/157/45
f 70/160/69 71/161/67 68/162/67
f 72/163/70 73/164/67 71/165/67
f 70/158/69 45/166/45 46/149/46
f 46/100/46 72/167/70 70/160/69
f 4/4/4 1/168/1 3/3/3
f 10/11/10 33/75/33 11/12/11
f 13/14/13 10/169/10 12/15/12
f 18/20/18 22/170/22 19/21/19
f 21/23/21 43/171/43 19/24/19
f 23/26/23 43/172/43 21/27/21
f 25/29/25 27/33/27 23/30/23
f 11/35/11 29/173/29 22/36/22
f 28/38/28 21/174/21 22/39/22
f 30/41/30 24/175/24 21/42/21
f 31/44/31 25/176/25 24/45/24
f 32/47/32 26/177/26 25/29/25
f 33/49/33 15/17/15 29/50/29
f 15/52/15 35/178/35 28/53/28
f 34/55/34 30/179/30 28/56/28
f 36/58/36 31/180/31 30/59/30
f 20/61/20 19/181/19 37/62/37
f 17/19/17 4/182/4 35/66/35
f 4/68/4 50/183/50 34/69/34
f 19/71/19 43/172/43 39/72/39
f 40/74/40 16/184/16 33/75/33
f 41/76/41 17/185/17 16/77/16
f 4/79/4 17/185/17 41/76/41
f 2/81/2 1/186/1 41/82/41
f 9/84/9 41/187/41 40/85/40
f 40/87/40 10/188/10 13/88/13
f 42/93/42 39/189/39 43/94/43
f 43/96/43 23/99/23 45/97/45
f 23/99/23 27/190/27 46/100/46
f 47/101/47 46/191/46 27/102/27
f 8/104/8 13/192/13 48/105/48
f 49/109/49 59/193/58 51/110/51
f 52/112/52 74/194/71 26/113/26
f 53/115/53 32/195/32 31/116/31
f 53/118/53 55/196/55 52/119/52
f 54/121/54 56/197/55 53/122/53
f 55/124/55 53/115/53 56/125/55
f 58/127/57 54/198/54 34/128/34
f 51/133/51 61/136/60 58/134/57
f 61/136/60 75/199/72 62/137/61
f 63/138/62 59/200/58 49/139/49
f 63/141/62 4/201/4 5/142/5
f 65/144/64 60/202/59 59/145/58
f 67/150/66 69/203/68 42/151/42
f 68/153/67 76/204/67 69/154/68
f 70/158/69 68/205/67 67/159/66
f 70/160/69 72/167/70 71/161/67
f 72/163/70 77/206/67 73/164/67
f 46/100/46 66/207/65 72/167/70
