# Blender v2.79 (sub 0) OBJ File: ''
# www.blender.org
mtllib hurricos.071.mtl
o hurricos.071_hurricos.114_tex_72.338
v -0.297689 1.491164 -0.691928
v -0.586987 1.134748 -0.756731
v -0.297689 1.134748 -0.691928
v -0.876287 1.477277 -0.823848
v -0.876287 1.125490 -0.823849
v -1.165586 1.477277 -0.893280
v -1.165586 1.111604 -0.893280
v -1.468770 1.111604 -0.828477
v -1.811300 1.491164 -0.775246
v -1.820557 1.111604 -0.800705
v -1.265104 1.583739 -1.041401
v -1.457198 1.491164 -0.793761
v -0.543015 1.602254 -1.041401
v -0.188912 1.592997 -0.999742
v -0.586987 1.514307 -0.756731
v -0.867029 1.597625 -1.099261
v -1.515058 1.583739 -1.052973
v -0.496727 1.648542 -1.328385
v -0.168083 1.630027 -1.307556
v -0.857771 1.620769 -1.374673
v -1.253531 1.583739 -1.291355
v -0.450438 1.542080 -1.613055
v -0.848514 1.486535 -1.647771
v -1.390080 0.815362 -1.800521
v -1.181786 0.657983 -1.960214
v -1.390080 0.644097 -1.800521
v -1.762698 1.111604 -1.860695
v -1.688637 0.815362 -1.758862
v -1.873788 0.815362 -1.846809
v -1.390080 1.111604 -1.800521
v -1.181786 0.815362 -1.960214
v -1.688637 0.653355 -1.758862
v -1.165586 0.745930 -0.893280
v -1.468770 0.741301 -0.828477
v -1.457198 0.370999 -0.793762
v -1.820557 0.741301 -0.800705
v -1.811300 0.370999 -0.775246
v -1.804357 -0.073364 -0.694243
v -0.297689 0.769074 -0.691928
v -0.586987 0.370999 -0.756731
v -0.297689 0.366370 -0.691928
v -0.586987 0.764445 -0.756731
v -0.876287 0.759817 -0.823849
v -0.876287 0.357113 -0.823849
v -1.165586 0.357113 -0.893280
v -0.297689 -0.068735 -0.691928
v -0.586987 -0.077992 -0.756731
v -0.876287 -0.096508 -0.823849
v -1.165586 -0.110394 -0.893280
v -1.450255 -0.073364 -0.712758
v -1.304448 1.778148 -1.043715
v -1.535887 1.680943 -1.055287
v -1.589118 1.759633 -1.057602
v -1.413225 1.940155 -1.048344
v -1.670122 1.815178 -1.062231
v -1.575232 2.046617 -1.057602
v -1.765012 2.083647 -1.066859
v -1.765012 1.833693 -1.066859
v -1.658550 1.815178 -1.312185
v -1.753440 2.083647 -1.316813
v -1.561346 2.046617 -1.307556
v -1.399339 1.940155 -1.298298
v -1.577547 1.759633 -1.307556
v -1.522001 1.680943 -1.305241
v -1.290562 1.778148 -1.293669
v -1.503486 1.583739 -1.302927
v -1.753440 1.583739 -1.316813
v -1.753440 1.833693 -1.316813
v -1.174843 1.870723 -1.073802
v -1.274362 2.023473 -1.078431
v -1.725667 2.241026 -1.101575
v -1.765012 1.583739 -1.066859
v -1.165586 1.870723 -1.249696
v -1.265104 2.023473 -1.254325
v -1.540516 2.203996 -1.268211
v -1.716410 2.241026 -1.277469
v -0.420352 1.157892 -1.768119
v -0.839256 1.468020 -1.923183
v -0.406466 1.500421 -1.837551
v -1.688637 1.435618 -1.758862
v -1.933962 1.407846 -1.846809
v -1.390080 1.407846 -1.800521
v -1.688637 1.111604 -1.758862
v -1.184100 1.157892 -1.953270
v -1.167899 1.537451 -1.622313
v -1.167899 1.495792 -1.846809
v -1.406281 1.523565 -1.550567
v -1.718724 1.495792 -1.513536
v -1.977936 1.495792 -1.587597
v -1.933962 0.667241 -1.846809
v -1.547459 2.203996 -1.092318
v -0.853143 1.157892 -1.867638
vt 0.312500 0.625000
vt 0.375000 0.500000
vt 0.312500 0.500000
vt 0.437500 0.625000
vt 0.437500 0.500000
vt 0.375000 0.500000
vt 0.437500 0.625000
vt 0.437500 0.500000
vt 0.437500 0.500000
vt 0.500000 0.625000
vt 0.500000 0.500000
vt 0.375000 0.500000
vt 0.437500 0.625000
vt 0.437500 0.500000
vt 0.500000 0.500000
vt 0.562500 0.625000
vt 0.562500 0.500000
vt 0.437500 0.625000
vt 0.500000 0.500000
vt 0.437500 0.500000
vt 0.437500 0.500000
vt 0.500000 0.625000
vt 0.500000 0.500000
vt 0.437500 0.500000
vt 0.500000 0.625000
vt 0.500000 0.500000
vt 0.437500 0.500000
vt 0.500000 0.625000
vt 0.500000 0.500000
vt 0.500000 0.500000
vt 0.562500 0.625000
vt 0.562500 0.500000
vt 0.500000 0.625000
vt 0.562500 0.500000
vt 0.500000 0.500000
vt 0.500000 0.500000
vt 0.562500 0.625000
vt 0.562500 0.500000
vt 0.500000 0.625000
vt 0.562500 0.500000
vt 0.500000 0.500000
vt 0.000000 0.625000
vt 0.062500 0.500000
vt 0.000000 0.500000
vt 0.187500 0.625000
vt 0.250000 0.500000
vt 0.187500 0.500000
vt 0.187500 0.500000
vt 0.125000 0.625000
vt 0.125000 0.500000
vt 0.187500 0.500000
vt 0.875000 0.625000
vt 0.937500 0.750000
vt 0.875000 0.750000
vt 0.062500 0.500000
vt 0.187500 0.500000
vt 0.250000 0.625000
vt 0.250000 0.500000
vt 0.687500 0.625000
vt 0.750000 0.750000
vt 0.687500 0.750000
vt 0.187500 0.500000
vt 0.125000 0.625000
vt 0.125000 0.500000
vt 0.625000 0.625000
vt 0.625000 0.750000
vt 0.000000 0.625000
vt 0.062500 0.750000
vt 0.000000 0.750000
vt 0.000000 0.875000
vt 0.062500 1.000000
vt 0.062500 0.875000
vt 0.750000 0.750000
vt 0.812500 0.625000
vt 0.750000 0.625000
vt 0.125000 0.500000
vt 0.187500 0.625000
vt 0.187500 0.500000
vt 0.437500 0.625000
vt 0.500000 0.750000
vt 0.500000 0.625000
vt 0.250000 0.500000
vt 0.312500 0.625000
vt 0.312500 0.500000
vt 0.812500 0.625000
vt 0.750000 0.625000
vt 0.000000 0.625000
vt 0.062500 0.750000
vt 0.062500 0.625000
vt 0.000000 0.625000
vt 0.062500 0.750000
vt 0.062500 0.625000
vt 0.000000 0.625000
vt 0.062500 0.750000
vt 0.062500 0.625000
vt 0.000000 0.750000
vt 0.062500 0.625000
vt 0.000000 0.625000
vt 0.625000 0.875000
vt 0.687500 0.750000
vt 0.625000 0.750000
vt 0.625000 0.750000
vt 0.687500 0.875000
vt 0.687500 0.750000
vt 0.625000 0.750000
vt 0.687500 0.875000
vt 0.687500 0.750000
vt 0.625000 0.875000
vt 0.687500 0.750000
vt 0.625000 0.750000
vt 0.625000 0.750000
vt 0.687500 0.875000
vt 0.687500 0.750000
vt 0.625000 0.875000
vt 0.687500 0.750000
vt 0.625000 0.750000
vt 0.625000 0.750000
vt 0.687500 0.875000
vt 0.687500 0.750000
vt 0.625000 0.875000
vt 0.687500 0.750000
vt 0.625000 0.750000
vt 0.625000 0.750000
vt 0.687500 0.875000
vt 0.625000 0.750000
vt 0.312500 0.875000
vt 0.375000 0.875000
vt 0.312500 0.750000
vt 0.312500 0.875000
vt 0.312500 0.750000
vt 0.625000 0.750000
vt 0.687500 0.875000
vt 0.687500 0.750000
vt 0.625000 0.875000
vt 0.687500 0.750000
vt 0.625000 0.750000
vt 0.312500 0.875000
vt 0.375000 0.875000
vt 0.312500 0.750000
vt 0.312500 0.875000
vt 0.312500 0.750000
vt 0.312500 0.875000
vt 0.312500 0.750000
vt 0.312500 0.875000
vt 0.312500 0.750000
vt 0.312500 0.875000
vt 0.312500 0.750000
vt 0.312500 0.875000
vt 0.312500 0.750000
vt 0.625000 0.750000
vt 0.625000 0.875000
vt 0.687500 0.750000
vt 0.625000 0.750000
vt 0.625000 0.875000
vt 0.625000 0.750000
vt 0.625000 0.875000
vt 0.625000 0.750000
vt 0.687500 0.875000
vt 0.625000 0.750000
vt 0.687500 0.875000
vt 0.687500 0.750000
vt 0.625000 0.875000
vt 0.687500 0.750000
vt 0.625000 0.750000
vt 0.312500 0.500000
vt 0.375000 0.625000
vt 0.312500 0.625000
vt 0.750000 0.875000
vt 0.812500 0.750000
vt 0.750000 0.750000
vt 0.375000 0.500000
vt 0.437500 0.625000
vt 0.437500 0.500000
vt 0.562500 0.500000
vt 0.500000 0.500000
vt 0.562500 0.625000
vt 0.500000 0.500000
vt 0.562500 0.625000
vt 0.562500 0.500000
vt 0.437500 0.625000
vt 0.500000 0.500000
vt 0.437500 0.500000
vt 0.500000 0.500000
vt 0.562500 0.625000
vt 0.562500 0.500000
vt 0.500000 0.625000
vt 0.562500 0.500000
vt 0.500000 0.500000
vt 0.500000 0.500000
vt 0.562500 0.625000
vt 0.437500 0.500000
vt 0.500000 0.625000
vt 0.500000 0.500000
vt 0.437500 0.500000
vt 0.500000 0.625000
vt 0.500000 0.625000
vt 0.375000 0.625000
vt 0.375000 0.625000
vt 0.437500 0.625000
vt 0.375000 0.625000
vt 0.500000 0.625000
vt 0.500000 0.625000
vt 0.437500 0.625000
vt 0.437500 0.625000
vt 0.437500 0.625000
vt 0.500000 0.625000
vt 0.562500 0.625000
vt 0.500000 0.625000
vt 0.562500 0.625000
vt 0.062500 0.625000
vt 0.250000 0.625000
vt 0.187500 0.625000
vt 0.187500 0.625000
vt 0.937500 0.625000
vt 0.062500 0.625000
vt 0.187500 0.625000
vt 0.187500 0.625000
vt 0.000000 1.000000
vt 0.812500 0.750000
vt 0.125000 0.625000
vt 0.437500 0.750000
vt 0.250000 0.625000
vt 0.812500 0.750000
vt 0.000000 0.750000
vt 0.000000 0.750000
vt 0.000000 0.750000
vt 0.687500 0.875000
vt 0.625000 0.875000
vt 0.625000 0.875000
vt 0.625000 0.875000
vt 0.687500 0.875000
vt 0.625000 0.875000
vt 0.687500 0.875000
vt 0.625000 0.875000
vt 0.625000 0.875000
vt 0.625000 0.875000
vt 0.687500 0.875000
vt 0.687500 0.875000
vt 0.687500 0.875000
vt 0.625000 0.875000
vt 0.375000 0.500000
vt 0.812500 0.875000
vt 0.375000 0.625000
vt 0.500000 0.625000
vt 0.500000 0.625000
vt 0.500000 0.625000
vt 0.437500 0.625000
vt 0.437500 0.625000
vt 0.437500 0.625000
vn -0.1364 0.5936 0.7931
vn -0.2223 -0.0000 0.9750
vn -0.2186 0.0000 0.9758
vn -0.2093 0.5407 0.8148
vn -0.2297 -0.0000 0.9733
vn 0.0579 0.5264 0.8483
vn -0.0125 0.0000 0.9999
vn 0.1531 -0.0310 0.9877
vn 0.0449 0.5012 0.8642
vn 0.0787 -0.0341 0.9963
vn 0.2964 0.8004 0.5211
vn 0.1495 0.5038 0.8508
vn -0.0431 0.9699 0.2396
vn 0.0098 0.9751 0.2216
vn -0.1863 0.6170 0.7646
vn -0.0645 0.9682 0.2419
vn -0.0358 0.5848 0.8104
vn -0.0202 0.9994 -0.0294
vn 0.0481 0.9913 0.1225
vn -0.0570 0.9847 -0.1648
vn 0.2399 0.9125 -0.3314
vn -0.0869 0.9509 -0.2971
vn 0.0099 0.9636 -0.2670
vn -0.3861 0.0000 -0.9225
vn -0.6084 0.0000 -0.7936
vn -0.3843 0.0000 -0.9232
vn 0.6698 0.0115 -0.7424
vn 0.1811 -0.0408 -0.9826
vn 0.3873 -0.1320 -0.9124
vn -0.3807 0.0021 -0.9247
vn -0.6059 0.0028 -0.7955
vn 0.1229 -0.0276 -0.9920
vn 0.0002 0.0140 0.9999
vn 0.1401 0.0454 0.9891
vn 0.1785 0.1236 0.9761
vn 0.0787 0.0350 0.9963
vn 0.0582 0.1312 0.9896
vn 0.0514 0.1799 0.9823
vn 0.0722 0.0284 0.9970
vn -0.2224 0.0000 0.9750
vn -0.2298 0.0000 0.9732
vn 0.1553 0.0000 0.9879
vn 0.2654 0.1250 0.9560
vn 0.4787 -0.1171 0.8701
vn -0.0519 0.0042 0.9986
vn -0.0519 -0.0005 0.9987
vn 0.0472 0.5274 0.8483
vn -0.0520 0.0013 0.9986
vn 0.4053 0.2868 0.8680
vn -0.0261 0.1147 0.9931
vn -0.0487 0.0000 0.9988
vn 0.0518 -0.0015 -0.9987
vn 0.0729 0.1184 -0.9903
vn 0.4916 0.2929 -0.8201
vn 0.1330 0.5306 -0.8372
vn 0.0514 0.0007 -0.9987
vn 0.0496 -0.0035 -0.9988
vn 0.5660 -0.1165 -0.8161
vn 0.0111 0.5884 -0.8085
vn 0.0450 0.5242 -0.8504
vn 0.0487 0.0000 -0.9988
vn 0.8279 -0.1278 0.5462
vn 0.1940 0.8354 0.5143
vn 0.1260 0.7608 0.6367
vn -0.0419 0.6100 0.7913
vn 0.8802 -0.1253 -0.4578
vn 0.2452 0.8365 -0.4900
vn 0.7151 0.5196 -0.4675
vn 0.1927 0.7604 -0.6202
vn 0.2109 -0.1942 -0.9580
vn 0.1198 0.7980 -0.5906
vn 0.0730 0.5981 -0.7981
vn 0.0782 0.6933 -0.7163
vn 0.1695 0.7000 -0.6937
vn -0.2558 0.6096 -0.7503
vn 0.3910 0.0000 -0.9204
vn -0.5967 0.0073 -0.8024
vn -0.0782 0.9646 -0.2519
vn -0.1173 0.9814 -0.1522
vn -0.0884 0.9507 -0.2974
vn -0.0324 0.9589 -0.2818
vn 0.0363 0.9604 -0.2762
vn 0.3278 -0.1332 -0.9353
vn 0.6715 0.5114 0.5362
vn 0.2204 -0.1815 -0.9584
usemtl Material__25.064
s 1
f 1/1/1 2/2/2 3/3/3
f 2/2/2 4/4/4 5/5/5
f 5/6/5 6/7/6 7/8/7
f 6/9/6 8/10/8 7/11/7
f 8/12/8 9/13/9 10/14/10
f 11/15/11 12/16/12 6/17/6
f 13/18/13 1/19/1 14/20/14
f 13/21/13 4/22/4 15/23/15
f 16/24/16 6/25/6 4/26/4
f 17/27/17 9/28/9 12/29/12
f 18/30/18 14/31/14 19/32/19
f 16/33/16 18/34/18 20/35/20
f 21/36/21 16/37/16 20/38/20
f 20/39/20 22/40/22 23/41/23
f 24/42/24 25/43/25 26/44/26
f 27/45/27 28/46/28 29/47/29
f 28/48/28 30/49/30 24/50/24
f 30/49/30 31/51/31 24/50/24
f 32/52/32 29/53/29 28/54/28
f 32/55/32 24/42/24 26/44/26
f 33/56/33 8/57/8 34/58/34
f 35/59/35 33/60/33 34/61/34
f 34/62/34 10/63/10 36/64/36
f 37/65/37 34/61/34 36/66/36
f 38/67/38 35/68/35 37/69/37
f 2/70/2 39/71/3 3/72/3
f 39/73/3 40/74/2 41/75/3
f 42/76/2 5/77/5 43/78/5
f 43/79/5 40/80/2 42/81/2
f 43/82/5 7/83/7 33/84/33
f 44/85/5 33/60/33 45/86/39
f 46/87/3 40/88/2 47/89/40
f 47/90/40 44/91/5 48/92/41
f 48/93/41 45/94/39 49/95/42
f 45/96/39 50/97/43 49/98/42
f 17/99/17 51/100/44 52/101/45
f 53/102/46 51/103/44 54/104/47
f 55/105/48 54/106/47 56/107/49
f 55/108/48 57/109/50 58/110/51
f 59/111/52 60/112/53 61/113/54
f 59/114/52 62/115/55 63/116/56
f 64/117/57 62/118/55 65/119/58
f 64/120/57 21/121/21 66/122/59
f 51/123/44 21/124/21 65/119/58
f 56/125/49 62/118/55 61/113/54
f 59/126/52 67/127/60 68/128/61
f 63/129/56 67/127/60 59/130/52
f 54/131/47 69/132/62 70/133/63
f 56/134/49 71/135/64 57/136/50
f 52/137/45 72/138/65 17/139/17
f 53/140/46 72/138/65 52/141/45
f 58/142/51 72/138/65 55/143/48
f 64/144/57 67/127/60 63/145/56
f 55/146/48 72/138/65 53/147/46
f 66/148/59 67/127/60 64/149/57
f 73/150/66 51/103/44 65/119/58
f 69/151/62 74/152/67 70/153/63
f 73/154/66 62/115/55 74/155/67
f 70/156/63 62/115/55 54/131/47
f 75/157/68 56/158/49 61/113/54
f 71/159/64 75/160/68 76/161/69
f 75/162/68 60/163/53 76/164/69
f 77/165/70 78/166/71 79/167/72
f 80/168/73 27/169/27 81/170/74
f 82/171/75 83/172/76 80/173/73
f 84/174/77 30/175/30 82/176/75
f 82/177/75 85/178/78 86/179/79
f 23/180/23 86/181/79 85/182/78
f 85/183/78 20/184/20 23/185/23
f 21/186/21 87/187/80 66/188/59
f 88/189/81 66/190/59 87/187/80
f 23/191/23 79/192/72 78/193/71
f 87/194/80 80/195/73 88/189/81
f 80/173/73 89/196/82 88/189/81
f 1/1/1 15/197/15 2/2/2
f 2/2/2 15/197/15 4/4/4
f 5/6/5 4/198/4 6/7/6
f 6/9/6 12/199/12 8/10/8
f 8/12/8 12/200/12 9/13/9
f 11/15/11 17/201/17 12/16/12
f 13/18/13 15/202/15 1/19/1
f 13/21/13 16/203/16 4/22/4
f 16/24/16 11/204/11 6/25/6
f 17/27/17 72/205/65 9/28/9
f 18/30/18 13/206/13 14/31/14
f 16/33/16 13/207/13 18/34/18
f 21/36/21 11/208/11 16/37/16
f 20/39/20 18/209/18 22/40/22
f 24/42/24 31/210/31 25/43/25
f 27/45/27 83/211/76 28/46/28
f 28/48/28 83/212/76 30/49/30
f 30/49/30 84/213/77 31/51/31
f 32/52/32 90/214/83 29/53/29
f 32/55/32 28/215/28 24/42/24
f 33/56/33 7/216/7 8/57/8
f 35/59/35 45/86/39 33/60/33
f 34/62/34 8/217/8 10/63/10
f 37/65/37 35/59/35 34/61/34
f 38/67/38 50/97/43 35/68/35
f 2/70/2 42/218/2 39/71/3
f 39/73/3 42/219/2 40/74/2
f 42/76/2 2/220/2 5/77/5
f 43/79/5 44/221/5 40/80/2
f 43/82/5 5/222/5 7/83/7
f 44/85/5 43/223/5 33/60/33
f 46/87/3 41/224/3 40/88/2
f 47/90/40 40/225/2 44/91/5
f 48/93/41 44/226/5 45/94/39
f 45/96/39 35/68/35 50/97/43
f 17/99/17 11/227/11 51/100/44
f 53/102/46 52/228/45 51/103/44
f 55/105/48 53/229/46 54/106/47
f 55/108/48 56/158/49 57/109/50
f 59/111/52 68/230/61 60/112/53
f 59/114/52 61/231/54 62/115/55
f 64/117/57 63/232/56 62/118/55
f 64/120/57 65/233/58 21/121/21
f 51/123/44 11/234/11 21/124/21
f 56/125/49 54/235/47 62/118/55
f 54/131/47 51/236/44 69/132/62
f 56/134/49 91/237/84 71/135/64
f 73/150/66 69/151/62 51/103/44
f 69/151/62 73/238/66 74/152/67
f 73/154/66 65/233/58 62/115/55
f 70/156/63 74/239/67 62/115/55
f 75/157/68 91/240/84 56/158/49
f 71/159/64 91/240/84 75/160/68
f 75/162/68 61/231/54 60/163/53
f 77/165/70 92/241/85 78/166/71
f 80/168/73 83/242/76 27/169/27
f 82/171/75 30/243/30 83/172/76
f 82/177/75 87/244/80 85/178/78
f 23/180/23 78/245/71 86/181/79
f 85/183/78 21/186/21 20/184/20
f 21/186/21 85/178/78 87/187/80
f 88/189/81 67/246/60 66/190/59
f 23/191/23 22/247/22 79/192/72
f 87/194/80 82/248/75 80/195/73
f 80/173/73 81/249/74 89/196/82
l 92 84
