# Blender v2.79 (sub 0) OBJ File: ''
# www.blender.org
mtllib hurricos.067.mtl
o hurricos.067_hurricos.114_tex_72.334
v -4.234465 0.815362 -1.078431
v -4.498306 0.519120 -0.816905
v -4.234465 0.519120 -1.078431
v -4.458961 1.111604 -0.853936
v -4.498306 0.815362 -0.816905
v -4.195121 1.111604 -1.117776
v -4.421931 1.407846 -0.890966
v -4.158091 1.407846 -1.154806
v -4.158091 1.407846 -0.627125
v -3.931280 1.111604 -0.851621
v -3.894250 1.407846 -0.888651
v -3.970625 0.815362 -0.814591
v -4.197435 1.111603 -0.590095
v -4.236780 0.519120 -0.550751
v -3.970625 0.519120 -0.814591
v -3.970625 0.232136 -0.814591
v -4.236780 0.227507 -0.550751
v -4.234465 0.222878 -1.078431
v -4.498306 0.222878 -0.816905
v -3.968310 1.407845 -0.467433
v -4.003026 1.111603 -0.411887
v -4.042371 0.815362 -0.370228
v -4.236780 0.815362 -0.550751
v -4.023856 0.667241 -0.351713
v -3.706784 1.555966 -1.256639
v -4.111803 1.555966 -1.224238
v -3.910451 1.555966 -1.029829
v -3.574864 1.555966 -0.754417
v -3.727614 1.407845 -0.312369
v -4.630226 1.407846 -1.101575
v -3.741500 1.555966 -0.858564
v -3.456831 1.555966 -0.710443
v -3.510061 1.407845 -0.254509
v -3.551721 1.555966 -1.092318
v -4.236780 -0.073364 -0.553065
v -4.498306 -0.073364 -0.816905
v -4.072458 -0.073364 -0.402630
v -4.042371 0.519120 -0.370228
v -4.042371 0.222878 -0.370228
v -4.440446 1.704087 -1.999558
v -4.662627 1.555966 -1.777377
v -4.440446 1.555966 -1.999558
v -5.002842 1.657800 -1.793578
v -5.095418 1.407846 -1.763491
v -5.002842 1.454133 -1.793578
v -4.857036 1.657800 -1.645457
v -5.095418 1.704087 -1.763490
v -4.857036 1.454133 -1.645457
v -4.887123 1.704087 -1.552881
v -4.887123 1.407846 -1.552881
v -4.296954 1.555966 -1.851437
v -4.477476 1.555966 -1.589911
v -4.667256 1.407846 -1.330700
v -4.870922 1.555966 -1.985672
v -4.662627 1.704087 -1.777377
v -4.870922 1.704087 -1.985672
v -4.296954 1.704087 -1.851437
v -4.211321 1.555966 -1.527423
v -4.331669 1.555966 -1.448734
v -4.843150 0.222878 -1.157121
v -4.614025 0.815362 -1.383931
v -4.614025 0.222878 -1.386245
v -4.833892 0.815362 -1.606112
v -5.063016 0.222878 -1.379302
v -4.833892 0.222878 -1.608427
v -4.667256 1.111604 -1.064545
v -4.711229 0.815362 -1.022886
v -4.708915 0.519120 -1.022886
v -4.803805 1.111604 -1.194151
v -4.843150 0.815362 -1.157121
v -4.843150 0.519120 -1.157121
v -4.766775 1.407846 -1.231181
v -5.063016 1.111604 -1.379302
v -4.924153 1.111604 -1.515851
v -5.063016 0.815362 -1.379302
v -4.704286 1.111604 -1.293669
v -5.063016 -0.073364 -1.379302
v -4.963498 -0.073364 -1.478821
v -4.708915 0.222878 -1.022886
v -4.708915 -0.073364 -1.025200
v -4.745945 -0.073364 -1.256639
v -4.843150 -0.073364 -1.159435
v -5.271312 1.111604 -1.589911
v -3.734557 1.704087 -2.001873
v -3.646610 1.555966 -1.675544
v -3.734557 1.555966 -2.001873
v -3.884993 1.704087 -1.439476
v -4.130318 1.852208 -1.603798
v -4.211321 1.704087 -1.527423
v -3.884993 1.555966 -1.439476
v -4.188178 1.852208 -1.821350
v -3.755387 1.852208 -1.705631
v -3.646610 1.704087 -1.675544
v -3.915080 1.852208 -1.545938
v -3.813246 1.852208 -1.923183
v -3.477660 1.555966 -1.520480
v -4.030799 1.852208 -1.981043
v -5.303713 1.407846 -1.974100
vt 0.625000 0.875000
vt 0.687500 0.750000
vt 0.625000 0.750000
vt 0.625000 0.750000
vt 0.687500 0.875000
vt 0.687500 0.750000
vt 0.625000 0.750000
vt 0.687500 0.875000
vt 0.687500 0.750000
vt 0.625000 0.875000
vt 0.687500 0.750000
vt 0.625000 0.750000
vt 0.625000 0.750000
vt 0.687500 0.875000
vt 0.625000 0.875000
vt 0.625000 0.750000
vt 0.687500 0.875000
vt 0.625000 0.875000
vt 0.687500 0.750000
vt 0.625000 0.875000
vt 0.625000 0.750000
vt 0.625000 0.750000
vt 0.687500 0.875000
vt 0.625000 0.875000
vt 0.687500 0.750000
vt 0.625000 0.875000
vt 0.625000 0.750000
vt 0.062500 0.750000
vt 0.125000 0.625000
vt 0.062500 0.625000
vt 0.125000 0.625000
vt 0.187500 0.750000
vt 0.187500 0.625000
vt 0.625000 0.875000
vt 0.687500 0.875000
vt 0.625000 0.750000
vt 0.625000 0.875000
vt 0.687500 0.750000
vt 0.375000 0.750000
vt 0.437500 0.625000
vt 0.375000 0.625000
vt 0.375000 0.750000
vt 0.437500 0.625000
vt 0.375000 0.625000
vt 0.375000 0.750000
vt 0.437500 0.625000
vt 0.375000 0.625000
vt 0.375000 0.750000
vt 0.437500 0.625000
vt 0.375000 0.625000
vt 0.375000 0.750000
vt 0.437500 0.625000
vt 0.375000 0.625000
vt 0.375000 0.750000
vt 0.437500 0.625000
vt 0.375000 0.625000
vt 0.375000 0.750000
vt 0.437500 0.625000
vt 0.375000 0.625000
vt 0.625000 0.750000
vt 0.687500 0.875000
vt 0.687500 0.750000
vt 0.625000 0.750000
vt 0.687500 0.875000
vt 0.687500 0.750000
vt 0.625000 0.875000
vt 0.625000 0.750000
vt 0.687500 0.750000
vt 0.625000 0.875000
vt 0.625000 0.750000
vt 0.625000 0.875000
vt 0.687500 0.750000
vt 0.625000 0.750000
vt 0.625000 0.875000
vt 0.687500 0.750000
vt 0.625000 0.750000
vt 0.625000 0.875000
vt 0.687500 0.750000
vt 0.625000 0.750000
vt 0.625000 0.750000
vt 0.687500 0.875000
vt 0.687500 0.750000
vt 0.375000 0.750000
vt 0.437500 0.625000
vt 0.375000 0.625000
vt 0.750000 1.000000
vt 0.812500 0.875000
vt 0.750000 0.875000
vt 0.375000 0.750000
vt 0.437500 0.625000
vt 0.375000 0.625000
vt 0.625000 0.875000
vt 0.687500 0.750000
vt 0.625000 0.750000
vt 0.625000 0.750000
vt 0.687500 0.875000
vt 0.625000 0.750000
vt 0.687500 0.875000
vt 0.687500 0.750000
vt 0.375000 0.750000
vt 0.437500 0.625000
vt 0.375000 0.625000
vt 0.375000 0.625000
vt 0.437500 0.750000
vt 0.437500 0.625000
vt 0.375000 0.750000
vt 0.437500 0.625000
vt 0.375000 0.625000
vt 0.625000 0.875000
vt 0.687500 0.750000
vt 0.625000 0.750000
vt 0.687500 0.750000
vt 0.625000 0.875000
vt 0.625000 0.750000
vt 0.687500 0.750000
vt 0.312500 0.750000
vt 0.375000 0.625000
vt 0.312500 0.625000
vt 0.187500 0.625000
vt 0.250000 0.750000
vt 0.250000 0.625000
vt 0.625000 0.875000
vt 0.625000 0.750000
vt 0.187500 0.625000
vt 0.250000 0.750000
vt 0.250000 0.625000
vt 0.625000 0.875000
vt 0.687500 0.750000
vt 0.625000 0.750000
vt 0.312500 0.625000
vt 0.375000 0.750000
vt 0.375000 0.625000
vt 0.375000 0.625000
vt 0.312500 0.625000
vt 0.375000 0.750000
vt 0.187500 0.750000
vt 0.250000 0.750000
vt 0.187500 0.625000
vt 0.312500 0.750000
vt 0.375000 0.625000
vt 0.312500 0.625000
vt 0.187500 0.625000
vt 0.250000 0.750000
vt 0.250000 0.625000
vt 0.187500 0.750000
vt 0.250000 0.750000
vt 0.312500 0.750000
vt 0.375000 0.625000
vt 0.312500 0.625000
vt 0.437500 0.750000
vt 0.375000 0.750000
vt 0.375000 0.750000
vt 0.437500 0.625000
vt 0.375000 0.625000
vt 0.687500 0.875000
vt 0.625000 0.750000
vt 0.625000 0.750000
vt 0.687500 0.875000
vt 0.687500 0.750000
vt 0.812500 0.750000
vt 0.875000 0.875000
vt 0.875000 0.750000
vt 0.687500 0.875000
vt 0.625000 0.750000
vt 0.625000 0.875000
vt 0.687500 0.750000
vt 0.625000 0.875000
vt 0.687500 0.750000
vt 0.625000 0.875000
vt 0.687500 0.750000
vt 0.625000 0.750000
vt 0.062500 0.625000
vt 0.125000 0.750000
vt 0.125000 0.625000
vt 0.375000 0.750000
vt 0.437500 0.625000
vt 0.375000 0.625000
vt 0.250000 0.625000
vt 0.312500 0.750000
vt 0.312500 0.625000
vt 0.375000 0.750000
vt 0.437500 0.625000
vt 0.375000 0.625000
vt 0.250000 0.625000
vt 0.312500 0.750000
vt 0.312500 0.625000
vt 0.375000 0.750000
vt 0.437500 0.625000
vt 0.375000 0.625000
vt 0.250000 0.750000
vt 0.312500 0.625000
vt 0.250000 0.625000
vt 0.250000 0.625000
vt 0.312500 0.750000
vt 0.312500 0.625000
vt 0.375000 0.750000
vt 0.437500 0.625000
vt 0.375000 0.625000
vt 0.687500 0.875000
vt 0.625000 0.875000
vt 0.687500 0.875000
vt 0.687500 0.750000
vt 0.687500 0.750000
vt 0.687500 0.875000
vt 0.687500 0.875000
vt 0.125000 0.750000
vt 0.125000 0.750000
vt 0.687500 0.875000
vt 0.437500 0.750000
vt 0.437500 0.750000
vt 0.437500 0.750000
vt 0.437500 0.750000
vt 0.437500 0.750000
vt 0.437500 0.750000
vt 0.437500 0.750000
vt 0.625000 0.875000
vt 0.625000 0.875000
vt 0.687500 0.875000
vt 0.687500 0.875000
vt 0.625000 0.875000
vt 0.437500 0.750000
vt 0.812500 1.000000
vt 0.437500 0.750000
vt 0.687500 0.875000
vt 0.625000 0.875000
vt 0.625000 0.875000
vt 0.437500 0.750000
vt 0.375000 0.750000
vt 0.437500 0.750000
vt 0.687500 0.875000
vt 0.687500 0.875000
vt 0.687500 0.875000
vt 0.375000 0.750000
vt 0.187500 0.750000
vt 0.687500 0.875000
vt 0.187500 0.750000
vt 0.687500 0.875000
vt 0.312500 0.750000
vt 0.187500 0.750000
vt 0.437500 0.750000
vt 0.625000 0.875000
vt 0.812500 0.875000
vt 0.062500 0.750000
vt 0.437500 0.750000
vt 0.250000 0.750000
vt 0.437500 0.750000
vt 0.250000 0.750000
vt 0.437500 0.750000
vt 0.312500 0.750000
vt 0.250000 0.750000
vt 0.437500 0.750000
vn 0.7049 -0.0011 0.7093
vn 0.0034 -0.0000 1.0000
vn 0.7040 0.0000 0.7102
vn 0.0062 0.1240 0.9923
vn -0.0232 0.0666 0.9975
vn 0.7071 0.0000 0.7071
vn -0.1576 0.4829 0.8614
vn 0.4704 -0.7466 0.4704
vn -0.8558 0.4807 0.1912
vn -0.7019 0.0024 -0.7123
vn -0.4674 -0.7477 -0.4716
vn -0.7031 0.0010 -0.7111
vn -0.9899 0.1417 0.0100
vn -0.9999 -0.0007 0.0157
vn -0.7040 0.0000 -0.7102
vn -0.5126 0.6945 -0.5049
vn -0.8463 0.2990 0.4409
vn 0.4893 0.7146 0.4999
vn -0.4267 0.3005 0.8530
vn -0.3924 0.7848 0.4798
vn -0.6619 0.2010 0.7221
vn -0.6765 0.0924 0.7306
vn -0.9967 0.0690 0.0417
vn -0.6813 0.0000 0.7320
vn 0.0000 1.0000 0.0000
vn -0.1112 0.9875 0.1121
vn -0.1090 0.9880 0.1096
vn -0.1379 0.9522 0.2724
vn -0.1237 0.9520 0.2800
vn -0.5422 0.6796 0.4942
vn -0.1352 0.9761 0.1704
vn -0.0989 0.9527 0.2872
vn -0.0797 0.9507 0.2996
vn -0.6939 -0.0044 0.7201
vn -0.7057 -0.0014 0.7085
vn -0.6777 -0.0081 0.7353
vn -0.6804 -0.0034 0.7328
vn -0.6805 -0.0053 0.7327
vn -0.0079 0.0000 1.0000
vn 0.4372 0.6360 0.6359
vn -0.0065 0.5765 0.8171
vn -0.2744 -0.4145 0.8677
vn -0.5579 0.6674 0.4933
vn -0.2744 0.4145 0.8677
vn -0.8699 -0.4140 0.2680
vn -0.8701 0.4213 0.2558
vn -0.8699 0.4140 0.2680
vn -0.2618 0.4232 0.8674
vn -0.4648 0.6352 0.6168
vn -0.6585 0.6544 0.3717
vn -0.1534 0.9760 0.1547
vn -0.5817 0.8014 0.1393
vn -0.7034 0.0000 -0.7108
vn 0.6325 0.4472 0.6325
vn -0.4966 0.7083 -0.5018
vn -0.8883 0.1679 0.4274
vn -0.3858 0.8389 0.3839
vn -0.1384 0.9839 0.1133
vn -0.9176 0.1773 0.3558
vn -0.7047 0.0009 -0.7095
vn -0.4980 0.7099 -0.4980
vn 0.7047 -0.0009 0.7095
vn 0.1562 0.3443 0.9258
vn 0.5011 0.7056 0.5011
vn -0.6859 0.1845 0.7039
vn -0.6984 0.0953 0.7093
vn -0.7027 -0.0021 0.7115
vn -0.9911 0.1332 0.0012
vn -0.9111 0.2300 0.3421
vn -0.7082 -0.0018 0.7060
vn -0.7841 0.6195 -0.0372
vn 0.2945 0.3463 0.8907
vn -0.0282 0.2763 0.9606
vn 0.2180 0.3235 0.9208
vn -0.9609 0.2764 0.0183
vn -0.1113 -0.3499 0.9302
vn -0.7037 -0.0021 0.7105
vn -0.7051 -0.0055 0.7090
vn -0.9335 -0.3432 0.1037
vn -1.0000 0.0000 -0.0035
vn -0.5460 0.6406 0.5400
vn 0.9340 0.2544 -0.2510
vn 0.9655 0.0000 0.2605
vn 0.9655 0.0000 -0.2602
vn 0.2462 0.2892 0.9251
vn -0.5620 0.6007 0.5686
vn -0.6794 0.2897 0.6741
vn 0.1848 0.6915 0.6984
vn -0.8072 0.5502 0.2137
vn 0.7696 0.6044 0.2060
vn 0.9232 0.2925 0.2494
vn 0.2180 0.3236 0.9207
vn 0.2042 0.5983 0.7748
vn 0.8103 0.5450 -0.2155
usemtl Material__25.068
s 1
f 1/1/1 2/2/2 3/3/3
f 1/4/1 4/5/4 5/6/5
f 6/7/6 7/8/7 4/9/4
f 8/10/8 9/11/9 7/12/7
f 10/13/10 9/14/9 11/15/11
f 12/16/12 13/17/13 10/18/10
f 14/19/14 12/20/12 15/21/15
f 16/22/16 14/23/14 15/24/15
f 17/25/17 18/26/18 19/27/19
f 2/2/2 18/26/18 3/3/3
f 20/28/20 13/29/13 21/30/21
f 22/31/22 13/32/13 23/33/23
f 24/34/24 22/35/22 23/36/23
f 14/37/14 24/38/24 23/36/23
f 25/39/25 26/40/26 27/41/27
f 28/42/28 20/43/20 29/44/29
f 26/45/26 30/46/30 7/47/7
f 27/48/27 7/49/7 9/50/9
f 31/51/31 9/52/9 20/53/20
f 32/54/32 29/55/29 33/56/33
f 34/57/25 27/58/27 31/59/31
f 35/60/34 19/61/19 36/62/35
f 37/63/36 17/64/17 35/65/34
f 38/66/37 17/25/17 39/67/38
f 40/68/39 41/69/40 42/70/41
f 43/71/42 44/72/43 45/73/44
f 46/74/45 47/75/46 43/76/42
f 48/77/47 49/78/48 46/79/45
f 48/80/47 44/81/43 50/82/49
f 51/83/50 41/84/40 52/85/51
f 43/86/42 48/87/47 46/88/45
f 52/89/51 50/90/49 53/91/52
f 47/92/46 54/93/53 44/94/43
f 41/95/40 49/96/48 50/82/49
f 47/97/46 55/98/54 56/99/55
f 57/100/56 42/101/41 51/102/50
f 26/103/26 58/104/57 59/105/58
f 58/106/57 52/107/51 59/108/58
f 60/109/59 61/110/60 62/111/61
f 63/112/62 64/113/63 65/114/64
f 64/113/63 62/115/61 65/114/64
f 7/116/7 66/117/65 4/118/4
f 5/119/5 66/120/65 67/121/66
f 68/122/67 5/6/5 67/123/66
f 67/124/66 69/125/68 70/126/69
f 71/127/70 67/128/66 70/129/69
f 66/130/65 72/131/71 69/132/68
f 73/133/72 74/134/73 50/135/49
f 74/136/73 73/137/72 75/138/74
f 53/139/52 74/140/73 76/141/75
f 70/142/69 74/143/73 75/144/74
f 69/145/68 76/146/75 70/142/69
f 72/147/71 76/148/75 69/149/68
f 72/150/71 30/46/30 53/151/52
f 59/152/58 53/153/52 30/154/30
f 64/113/63 77/155/6 78/156/76
f 36/157/35 79/158/77 80/159/78
f 81/160/79 64/161/63 78/162/76
f 60/109/59 81/163/79 82/164/80
f 2/165/2 79/166/77 19/27/19
f 80/167/78 60/168/59 82/164/80
f 79/169/77 71/170/70 60/171/59
f 73/172/72 44/173/43 83/174/81
f 84/175/82 85/176/83 86/177/84
f 87/178/85 88/179/86 89/180/87
f 87/181/85 58/182/57 90/183/88
f 89/184/87 91/185/89 57/186/56
f 89/187/87 51/188/50 58/189/57
f 92/190/90 87/191/85 93/192/91
f 84/193/82 92/194/90 93/195/91
f 93/196/91 90/197/88 85/198/83
f 1/1/1 5/199/5 2/2/2
f 1/4/1 6/200/6 4/5/4
f 6/7/6 8/10/8 7/8/7
f 8/10/8 11/201/11 9/11/9
f 10/13/10 13/202/13 9/14/9
f 12/16/12 23/203/23 13/17/13
f 14/19/14 23/204/23 12/20/12
f 16/22/16 17/25/17 14/23/14
f 17/25/17 16/205/16 18/26/18
f 2/2/2 19/61/19 18/26/18
f 20/28/20 9/206/9 13/29/13
f 22/31/22 21/207/21 13/32/13
f 14/37/14 38/208/37 24/38/24
f 25/39/25 90/209/88 26/40/26
f 28/42/28 31/210/31 20/43/20
f 26/45/26 59/211/58 30/46/30
f 27/48/27 26/212/26 7/49/7
f 31/51/31 27/213/27 9/52/9
f 32/54/32 28/214/28 29/55/29
f 34/57/25 25/215/25 27/58/27
f 35/60/34 17/216/17 19/61/19
f 37/63/36 39/217/38 17/64/17
f 38/66/37 14/23/14 17/25/17
f 40/68/39 55/98/54 41/69/40
f 43/71/42 47/218/46 44/72/43
f 46/74/45 49/96/48 47/75/46
f 48/77/47 50/219/49 49/78/48
f 48/80/47 45/220/44 44/81/43
f 51/83/50 42/221/41 41/84/40
f 43/86/42 45/222/44 48/87/47
f 52/89/51 41/223/40 50/90/49
f 47/92/46 56/224/55 54/93/53
f 41/95/40 55/225/54 49/96/48
f 47/97/46 49/226/48 55/98/54
f 57/100/56 40/227/39 42/101/41
f 26/103/26 90/228/88 58/104/57
f 58/106/57 51/229/50 52/107/51
f 60/109/59 70/230/69 61/110/60
f 63/112/62 75/231/92 64/113/63
f 64/113/63 60/232/59 62/115/61
f 7/116/7 30/233/30 66/117/65
f 5/119/5 4/234/4 66/120/65
f 68/122/67 2/235/2 5/6/5
f 67/124/66 66/236/65 69/125/68
f 71/127/70 68/237/67 67/128/66
f 66/130/65 30/238/30 72/131/71
f 53/139/52 50/135/49 74/140/73
f 70/142/69 76/239/75 74/143/73
f 72/147/71 53/151/52 76/148/75
f 59/152/58 52/240/51 53/153/52
f 36/157/35 19/241/19 79/158/77
f 81/160/79 60/242/59 64/161/63
f 2/165/2 68/237/67 79/166/77
f 80/167/78 79/158/77 60/168/59
f 79/169/77 68/237/67 71/170/70
f 73/172/72 50/243/49 44/173/43
f 84/175/82 93/244/91 85/176/83
f 87/178/85 94/245/93 88/179/86
f 87/181/85 89/246/87 58/182/57
f 89/184/87 88/247/86 91/185/89
f 89/187/87 57/248/56 51/188/50
f 92/190/90 94/249/93 87/191/85
f 84/193/82 95/250/94 92/194/90
f 93/196/91 87/251/85 90/197/88
l 85 96
l 44 98
l 91 97
l 97 95
