# Blender v2.79 (sub 0) OBJ File: ''
# www.blender.org
mtllib hurricos.030.mtl
o hurricos.030_hurricos.114_tex_72.029
v -0.029220 0.519121 -3.598801
v -0.325461 0.519121 -3.429851
v -0.029220 0.519121 -3.429851
v -0.029220 0.519121 -3.693691
v -0.325461 0.519121 -3.598801
v -0.325461 0.519121 -3.693691
v -0.045421 0.815363 -3.601116
v -0.311576 0.815363 -3.601116
v -0.061622 1.111605 -3.494654
v -0.295375 1.111605 -3.494654
v 0.267022 0.519121 -3.429851
v -0.045421 0.815363 -3.547885
v 0.169818 1.111605 -3.365048
v 0.218420 0.815363 -3.397449
vt 0.625000 0.875000
vt 0.687500 0.750000
vt 0.625000 0.750000
vt 0.625000 0.875000
vt 0.687500 0.750000
vt 0.625000 0.750000
vt 0.750000 1.000000
vt 0.812500 0.875000
vt 0.750000 0.875000
vt 0.750000 1.000000
vt 0.812500 0.875000
vt 0.750000 0.875000
vt 0.687500 0.875000
vt 0.625000 0.750000
vt 0.750000 1.000000
vt 0.812500 1.000000
vt 0.750000 0.875000
vt 0.812500 1.000000
vt 0.812500 0.875000
vt 0.437500 0.875000
vt 0.500000 0.750000
vt 0.437500 0.750000
vt 0.687500 0.750000
vt 0.625000 0.750000
vt 0.687500 0.875000
vt 0.687500 0.875000
vt 0.812500 1.000000
vt 0.812500 1.000000
vt 0.750000 1.000000
vt 0.500000 0.875000
vt 0.687500 0.875000
vn -0.5231 0.8063 0.2760
vn 0.0000 1.0000 0.0000
vn -0.5778 0.4784 0.6613
vn 0.0000 0.6080 0.7939
vn -0.6953 -0.2622 0.6692
vn 0.0000 -0.3177 0.9482
vn -0.2965 -0.2674 0.9168
vn 0.0000 -0.3382 0.9411
vn -0.4877 0.1756 0.8552
vn -0.8591 -0.1328 0.4942
vn -0.4842 -0.1770 0.8569
vn -0.4878 -0.1736 0.8555
usemtl Material__25.103
s 1
f 1/1/1 2/2/2 3/3/2
f 4/4/3 5/5/2 1/6/1
f 6/7/4 7/8/5 8/9/6
f 8/10/6 9/11/7 10/12/8
f 1/1/1 3/13/2 11/14/9
f 12/15/10 9/16/7 7/17/5
f 7/17/5 1/18/1 12/19/10
f 12/20/10 13/21/11 9/22/7
f 1/1/1 14/23/12 12/24/10
f 1/1/1 5/25/2 2/2/2
f 4/4/3 6/26/4 5/5/2
f 6/7/4 4/27/3 7/8/5
f 8/10/6 7/28/5 9/11/7
f 7/17/5 4/29/3 1/18/1
f 12/20/10 14/30/12 13/21/11
f 1/1/1 11/31/9 14/23/12
