# Blender v2.79 (sub 0) OBJ File: ''
# www.blender.org
mtllib hurricos.090.mtl
o hurricos.090_hurricos.114_tex_72.357
v 5.601689 0.370999 1.615518
v 5.726666 0.370999 1.580802
v 5.624833 0.370999 1.407223
v 5.911818 0.370999 1.330848
v 5.340163 0.370999 1.483597
v 4.537070 0.370999 0.780023
v 4.863399 0.370999 0.692076
v 4.537070 0.519120 0.780023
v 4.793967 0.815362 0.643474
v 4.506983 0.815362 0.719849
v 4.766194 0.519120 1.638662
v 4.689819 0.370999 1.351677
v 4.689819 0.519120 1.351677
v 4.712963 0.519120 1.650233
v 4.636589 0.519120 1.363249
v 4.712963 0.370999 1.650233
v 4.636589 0.370999 1.363249
v 4.613444 0.370999 1.064693
v 4.613444 0.519120 1.064693
v 4.560214 0.519120 1.078579
v 4.560214 0.370999 1.078579
v 5.842385 0.370999 1.071636
v 5.853957 0.667241 1.122553
v 5.856272 0.370999 1.122553
v 5.842385 0.667241 1.071636
v 5.853957 0.963482 1.122553
v 5.275360 0.963482 0.888800
v 5.198985 0.667241 0.601815
v 5.275360 0.667241 0.888800
v 5.317019 0.963482 0.877227
v 5.317019 0.667241 0.874913
v 5.400337 0.667241 1.191985
v 5.555401 0.963482 1.152640
v 5.555401 0.667241 1.152640
v 5.569287 0.963482 1.201242
v 5.569287 0.667241 1.201242
v 5.555401 0.370999 1.152640
v 5.569287 0.370999 1.201242
v 5.198985 0.370999 0.601815
v 5.275360 0.370999 0.888800
v 5.317019 0.370999 0.874913
v 5.400337 0.370999 1.191985
v 6.103911 0.685756 0.916572
v 5.842385 0.963482 1.071636
v 6.120112 0.370999 0.967489
v 5.023091 0.370999 1.252159
v 4.946717 0.370999 0.965174
v 5.053179 0.370999 1.559972
v 5.416538 0.370999 1.770582
v 4.844884 0.370999 1.923331
v 4.766194 0.370999 1.638662
v 5.198985 0.963482 0.601815
v 4.625017 -0.073364 1.370192
v 4.701391 -0.073364 1.654862
v 4.548642 -0.073364 1.083208
v 5.842385 1.000513 1.071636
v 5.472083 1.111603 0.835569
v 5.756753 1.111603 0.756879
v 5.615575 1.185664 0.796224
v 5.680378 1.111603 0.472209
v 5.395708 1.111603 0.548584
v 5.472083 0.963482 0.835569
v 5.756753 0.963482 0.756879
v 5.395708 0.963482 0.548584
v 5.242959 1.000513 0.590243
v 5.242959 0.963482 0.590243
v 5.317019 1.000513 0.877227
v 5.555401 1.000513 1.152640
v 5.400337 0.963482 1.191985
v 5.395708 1.301383 0.548584
v 5.536886 1.185664 0.509240
v 5.678063 1.208808 0.462952
v 5.858586 1.255096 0.969803
v 6.099282 0.981998 0.905000
v 6.099282 1.278240 0.905000
v 5.756753 1.259724 0.756879
v 5.094838 1.111603 0.585614
v 6.115483 1.292126 0.673561
v 5.960420 1.296755 0.486096
v 5.844700 1.301383 0.254657
v 6.164085 1.278240 0.215312
v 6.011336 1.315270 0.044047
v 4.863399 1.407845 0.692077
v 4.793967 1.111603 0.643474
v 4.537070 1.407845 0.780023
v 4.506983 1.111603 0.719849
v 4.861084 1.407845 0.432865
v 5.108724 1.375444 0.624959
v 4.668990 1.454133 0.493039
v 4.400521 1.528194 0.627274
v 4.458381 1.486534 0.678190
v 5.939590 1.343042 -0.138789
v 6.180286 1.278240 -0.164248
v 5.793783 1.324527 0.157452
v 5.342478 1.366186 0.467581
v 5.569287 1.343042 0.319460
v 5.194357 1.393959 0.284744
v 5.444310 1.393959 0.134309
v 5.719723 1.380073 -0.050843
v 4.344975 1.463391 0.025532
v 4.254714 1.449504 0.409721
v 4.641217 1.407845 0.159767
v 4.263972 1.528194 0.425922
v 4.942088 1.412474 -0.025384
v 4.490782 1.458762 -0.131846
v 4.803225 1.426360 -0.284596
v 5.428110 1.472648 -0.374857
v 5.293875 1.444876 -0.247566
v 5.988192 0.370999 1.615518
v 5.129554 0.370999 1.846957
v 4.108908 1.449504 0.229198
v 4.509297 1.444876 -0.411887
vt 0.500000 0.625000
vt 0.562500 0.625000
vt 0.500000 0.500000
vt 0.750000 0.875000
vt 0.812500 0.750000
vt 0.750000 0.750000
vt 0.937500 0.875000
vt 1.000000 1.000000
vt 1.000000 0.875000
vt 0.125000 0.500000
vt 0.062500 0.500000
vt 0.125000 0.625000
vt 0.125000 0.500000
vt 0.187500 0.625000
vt 0.125000 0.625000
vt 0.250000 0.875000
vt 0.312500 0.750000
vt 0.250000 0.750000
vt 0.312500 0.875000
vt 0.375000 0.750000
vt 0.312500 0.750000
vt 0.312500 0.875000
vt 0.375000 0.750000
vt 0.312500 0.750000
vt 0.187500 0.875000
vt 0.250000 0.750000
vt 0.187500 0.750000
vt 0.312500 0.875000
vt 0.375000 0.750000
vt 0.312500 0.750000
vt 0.312500 0.875000
vt 0.375000 0.750000
vt 0.312500 0.750000
vt 0.312500 0.875000
vt 0.375000 0.750000
vt 0.312500 0.750000
vt 0.312500 0.875000
vt 0.375000 0.750000
vt 0.312500 0.750000
vt 0.125000 0.875000
vt 0.187500 0.750000
vt 0.125000 0.750000
vt 0.312500 0.875000
vt 0.375000 0.750000
vt 0.312500 0.750000
vt 0.125000 0.625000
vt 0.187500 0.750000
vt 0.187500 0.625000
vt 0.125000 0.750000
vt 0.187500 0.625000
vt 0.125000 0.625000
vt 0.312500 0.875000
vt 0.375000 0.750000
vt 0.312500 0.750000
vt 0.125000 0.875000
vt 0.187500 0.750000
vt 0.125000 0.750000
vt 0.312500 0.875000
vt 0.375000 0.750000
vt 0.312500 0.750000
vt 0.062500 0.875000
vt 0.125000 0.750000
vt 0.062500 0.750000
vt 0.062500 0.875000
vt 0.125000 0.750000
vt 0.062500 0.750000
vt 0.312500 0.875000
vt 0.375000 0.750000
vt 0.312500 0.750000
vt 0.500000 1.000000
vt 0.562500 0.875000
vt 0.500000 0.875000
vt 0.500000 1.000000
vt 0.562500 0.875000
vt 0.500000 0.875000
vt 0.312500 0.500000
vt 0.375000 0.625000
vt 0.375000 0.500000
vt 0.187500 0.500000
vt 0.125000 0.625000
vt 0.125000 0.500000
vt 0.500000 0.625000
vt 0.562500 0.625000
vt 0.500000 0.500000
vt 0.500000 0.625000
vt 0.562500 0.625000
vt 0.500000 0.500000
vt 0.500000 0.625000
vt 0.562500 0.625000
vt 0.500000 0.500000
vt 0.812500 0.875000
vt 0.875000 1.000000
vt 0.875000 0.875000
vt 0.937500 0.875000
vt 1.000000 1.000000
vt 1.000000 0.875000
vt 0.750000 0.750000
vt 0.812500 0.875000
vt 0.812500 0.750000
vt 0.500000 0.625000
vt 0.562500 0.500000
vt 0.500000 0.500000
vt 0.875000 0.875000
vt 0.937500 1.000000
vt 0.937500 1.000000
vt 1.000000 0.875000
vt 0.625000 0.875000
vt 0.687500 0.750000
vt 0.625000 0.750000
vt 0.625000 0.750000
vt 0.687500 0.875000
vt 0.687500 0.750000
vt 0.500000 0.625000
vt 0.562500 0.500000
vt 0.500000 0.500000
vt 0.875000 1.000000
vt 0.187500 0.625000
vt 0.250000 0.500000
vt 0.187500 0.500000
vt 0.500000 0.500000
vt 0.500000 0.625000
vt 0.562500 0.500000
vt 0.812500 0.875000
vt 0.875000 0.750000
vt 0.812500 0.750000
vt 0.812500 0.875000
vt 0.875000 0.750000
vt 0.812500 0.750000
vt 0.312500 0.875000
vt 0.375000 0.875000
vt 0.312500 0.750000
vt 0.375000 0.750000
vt 0.437500 0.750000
vt 0.375000 0.625000
vt 0.375000 0.625000
vt 0.437500 0.750000
vt 0.437500 0.625000
vt 0.375000 0.750000
vt 0.437500 0.625000
vt 0.375000 0.625000
vt 0.062500 0.750000
vt 0.125000 0.625000
vt 0.062500 0.625000
vt 0.062500 0.750000
vt 0.125000 0.625000
vt 0.062500 0.625000
vt 0.625000 0.875000
vt 0.687500 0.750000
vt 0.625000 0.750000
vt 0.312500 0.875000
vt 0.375000 0.750000
vt 0.312500 0.750000
vt 0.312500 0.750000
vt 0.375000 0.875000
vt 0.375000 0.750000
vt 0.312500 0.875000
vt 0.375000 0.875000
vt 0.312500 0.750000
vt 0.375000 0.875000
vt 0.312500 0.750000
vt 0.625000 0.875000
vt 0.687500 0.750000
vt 0.625000 0.750000
vt 0.375000 0.750000
vt 0.437500 0.625000
vt 0.375000 0.625000
vt 0.375000 0.750000
vt 0.437500 0.625000
vt 0.375000 0.625000
vt 0.375000 0.625000
vt 0.437500 0.750000
vt 0.437500 0.625000
vt 0.500000 0.625000
vt 0.562500 0.625000
vt 0.500000 0.500000
vt 0.500000 0.625000
vt 0.562500 0.625000
vt 0.562500 0.625000
vt 0.500000 0.500000
vt 0.687500 0.875000
vt 0.625000 0.750000
vt 0.437500 0.625000
vt 0.500000 0.500000
vt 0.437500 0.500000
vt 0.500000 0.625000
vt 0.562500 0.625000
vt 0.500000 0.500000
vt 0.437500 0.500000
vt 0.500000 0.625000
vt 0.500000 0.500000
vt 0.250000 0.500000
vt 0.312500 0.625000
vt 0.312500 0.500000
vt 0.437500 0.625000
vt 0.500000 0.500000
vt 0.437500 0.500000
vt 0.500000 0.500000
vt 0.562500 0.500000
vt 0.500000 0.500000
vt 0.562500 0.625000
vt 0.562500 0.500000
vt 0.500000 0.625000
vt 0.562500 0.500000
vt 0.500000 0.500000
vt 0.500000 0.625000
vt 0.500000 0.500000
vt 0.437500 0.625000
vt 0.500000 0.500000
vt 0.437500 0.500000
vt 0.437500 0.500000
vt 0.500000 0.625000
vt 0.500000 0.500000
vt 0.375000 0.625000
vt 0.437500 0.500000
vt 0.375000 0.500000
vt 0.437500 0.625000
vt 0.500000 0.625000
vt 0.562500 0.625000
vt 0.500000 0.500000
vt 0.500000 0.625000
vt 0.562500 0.500000
vt 0.500000 0.500000
vt 0.500000 0.625000
vt 0.562500 0.500000
vt 0.500000 0.500000
vt 0.500000 0.625000
vt 0.562500 0.625000
vt 0.500000 0.500000
vt 0.500000 0.625000
vt 0.562500 0.625000
vt 0.500000 0.500000
vt 0.500000 0.625000
vt 0.562500 0.625000
vt 0.437500 0.625000
vt 0.500000 0.625000
vt 0.437500 0.500000
vt 0.500000 0.625000
vt 0.562500 0.500000
vt 0.437500 0.625000
vt 0.437500 0.500000
vt 0.500000 0.625000
vt 0.562500 0.500000
vt 0.500000 0.500000
vt 0.500000 0.500000
vt 0.562500 0.625000
vt 0.562500 0.500000
vt 0.562500 0.625000
vt 0.562500 0.500000
vt 0.437500 0.500000
vt 0.437500 0.625000
vt 0.500000 0.500000
vt 0.437500 0.500000
vt 0.500000 0.625000
vt 0.562500 0.625000
vt 0.500000 0.500000
vt 0.562500 0.625000
vt 0.562500 0.500000
vt 0.500000 0.625000
vt 0.562500 0.625000
vt 0.500000 0.500000
vt 0.562500 0.625000
vt 0.562500 0.500000
vt 0.500000 0.625000
vt 0.562500 0.625000
vt 0.500000 0.500000
vt 0.500000 0.500000
vt 0.562500 0.500000
vt 0.500000 0.625000
vt 0.562500 0.500000
vt 0.500000 0.500000
vt 0.500000 0.625000
vt 0.562500 0.625000
vt 0.812500 0.875000
vt 0.187500 0.500000
vt 0.312500 0.875000
vt 0.375000 0.875000
vt 0.375000 0.875000
vt 0.250000 0.875000
vt 0.375000 0.875000
vt 0.375000 0.875000
vt 0.375000 0.875000
vt 0.375000 0.875000
vt 0.187500 0.875000
vt 0.125000 0.750000
vt 0.187500 0.750000
vt 0.187500 0.875000
vt 0.375000 0.875000
vt 0.125000 0.875000
vt 0.125000 0.875000
vt 0.375000 0.875000
vt 0.562500 1.000000
vt 0.562500 1.000000
vt 0.312500 0.625000
vt 0.187500 0.625000
vt 0.812500 1.000000
vt 0.937500 1.000000
vt 0.750000 0.875000
vt 0.562500 0.625000
vt 0.875000 1.000000
vt 1.000000 1.000000
vt 0.687500 0.875000
vt 0.625000 0.875000
vt 0.562500 0.625000
vt 0.250000 0.625000
vt 0.875000 0.875000
vt 0.875000 0.875000
vt 0.375000 0.750000
vt 0.437500 0.750000
vt 0.125000 0.750000
vt 0.125000 0.750000
vt 0.687500 0.875000
vt 0.375000 0.875000
vt 0.687500 0.875000
vt 0.437500 0.750000
vt 0.437500 0.750000
vt 0.375000 0.750000
vt 0.500000 0.625000
vt 0.437500 0.625000
vt 0.250000 0.625000
vt 0.500000 0.625000
vt 0.500000 0.625000
vt 0.562500 0.625000
vt 0.437500 0.625000
vt 0.437500 0.625000
vt 0.437500 0.625000
vt 0.500000 0.625000
vt 0.562500 0.625000
vt 0.562500 0.625000
vt 0.500000 0.625000
vt 0.437500 0.625000
vt 0.500000 0.625000
vt 0.500000 0.625000
vn -0.0000 1.0000 -0.0000
vn 0.1839 0.7074 0.6825
vn 0.1666 0.7391 0.6527
vn 0.2827 0.1136 0.9525
vn 0.2079 0.0824 0.9747
vn 0.2557 0.1076 0.9608
vn 0.6934 0.6965 -0.1845
vn 0.6833 0.7071 -0.1819
vn -0.6734 0.7172 0.1792
vn -0.6829 0.7073 0.1825
vn -0.9662 0.0144 0.2575
vn -0.9661 0.0144 0.2579
vn 0.4319 0.8945 -0.1150
vn 0.6823 0.7082 -0.1816
vn -0.6845 0.7055 0.1836
vn -0.9657 0.0139 0.2591
vn 0.7218 0.5840 0.3714
vn 0.8583 0.0007 0.5131
vn 0.5297 0.7930 0.3010
vn 0.9091 0.0282 0.4155
vn 0.7691 0.3591 0.5287
vn -0.5209 0.3270 0.7885
vn -0.5434 0.0299 0.8389
vn -0.4756 -0.0025 0.8797
vn 0.1898 0.7049 0.6834
vn -0.4752 -0.0034 0.8799
vn -0.5076 -0.0003 0.8616
vn -0.6873 0.6994 0.1962
vn -0.4986 0.0000 0.8668
vn -0.4051 0.3553 0.8424
vn -0.4894 0.0000 0.8721
vn -0.4066 0.5789 0.7068
vn -0.2100 0.9034 0.3738
vn -0.4086 0.5772 0.7070
vn -0.1950 0.9117 0.3617
vn -0.3897 0.5740 0.7202
vn -0.2176 0.9035 0.3691
vn 0.5127 0.0888 0.8540
vn 0.8058 0.5673 0.1699
vn 0.4205 0.1898 0.8872
vn 0.4332 0.8939 -0.1153
vn -0.3995 0.3119 0.8621
vn -0.9658 0.0288 0.2577
vn -0.9655 0.0278 0.2590
vn -0.9658 0.0287 0.2578
vn 0.4394 0.7362 -0.5147
vn -0.4943 0.4189 0.7617
vn -0.6663 0.3244 0.6714
vn 0.1658 0.7843 0.5978
vn -0.2870 0.7282 0.6224
vn -0.2681 0.2970 0.9165
vn -0.2109 0.9057 0.3679
vn -0.4042 0.5771 0.7096
vn -0.4074 0.5770 0.7079
vn 0.2675 0.3263 0.9066
vn 0.7057 0.5781 0.4097
vn 0.4776 0.7595 0.4417
vn -0.6346 0.7429 -0.2130
vn -0.4138 0.5779 0.7034
vn 0.3342 0.4639 0.8204
vn 0.2351 0.5886 0.7735
vn -0.1724 0.7497 0.6390
vn -0.3577 0.5217 0.7745
vn 0.4741 0.0965 0.8752
vn 0.2600 0.0000 0.9656
vn -0.7126 0.6581 0.2432
vn 0.1522 -0.0084 0.9883
vn -0.0727 0.9946 0.0740
vn -0.1422 0.9889 0.0424
vn 0.0619 0.9822 0.1773
vn 0.0803 0.9945 0.0668
vn 0.1648 0.9794 0.1169
vn 0.2679 0.6117 0.7443
vn 0.2243 -0.1050 0.9688
vn 0.3412 0.5417 0.7682
vn 0.2557 -0.1076 0.9608
vn 0.1218 0.9925 -0.0130
vn 0.2551 0.6139 0.7470
vn 0.2045 0.9788 -0.0053
vn 0.2804 0.9594 0.0316
vn 0.4011 0.8638 0.3051
vn 0.2253 0.9725 0.0593
vn 0.2639 0.9636 0.0428
vn 0.1600 0.9722 0.1711
vn 0.2305 0.9342 0.2724
vn 0.2577 0.9175 0.3028
vn 0.0550 0.9967 0.0599
vn 0.0940 0.9875 0.1264
vn 0.1733 0.9703 0.1690
vn 0.1116 0.9910 0.0743
vn -0.3002 0.8060 -0.5101
vn 0.0913 0.9958 -0.0053
vn -0.1513 0.8063 -0.5718
vn 0.0385 0.9976 0.0567
vn 0.1087 0.9903 0.0866
vn 0.1024 0.9947 -0.0016
vn -0.0578 0.9863 0.1543
vn -0.0366 0.9886 0.1462
vn -0.0346 0.9990 0.0280
usemtl Material__25.043
s 1
f 1/1/1 2/2/1 3/3/1
f 2/4/1 4/5/1 3/6/1
f 5/7/1 1/8/1 3/9/1
f 6/10/2 7/11/3 8/12/4
f 8/13/4 9/14/5 10/15/6
f 11/16/7 12/17/8 13/18/8
f 14/19/9 13/20/8 15/21/10
f 16/22/11 15/23/10 17/24/12
f 13/25/8 18/26/13 19/27/14
f 15/28/10 19/29/14 20/30/15
f 17/31/12 20/32/15 21/33/16
f 22/34/17 23/35/18 24/36/19
f 25/37/20 26/38/21 23/39/18
f 27/40/22 28/41/23 29/42/24
f 30/43/25 29/44/24 31/45/26
f 32/46/27 30/47/25 31/48/26
f 33/49/28 32/50/27 34/51/29
f 35/52/30 34/53/29 36/54/31
f 26/55/21 36/56/31 23/57/18
f 36/58/31 37/59/32 38/60/33
f 29/61/24 39/62/34 40/63/35
f 23/64/18 38/65/33 24/66/19
f 31/67/26 40/68/35 41/69/36
f 32/70/27 41/71/36 42/72/37
f 34/73/29 42/74/37 37/75/32
f 43/76/38 44/77/39 25/78/20
f 25/79/20 45/80/40 43/81/38
f 41/82/36 40/83/35 42/84/37
f 37/85/32 42/86/37 38/87/33
f 22/88/17 24/89/19 45/90/40
f 46/91/1 18/92/13 12/93/8
f 46/94/1 40/95/35 47/96/1
f 47/97/1 39/98/34 7/99/3
f 18/100/13 7/101/3 6/102/2
f 48/103/1 49/104/1 5/7/1
f 3/105/1 42/106/37 5/7/1
f 12/107/8 48/108/1 46/109/1
f 50/110/1 48/111/1 51/112/41
f 38/113/33 4/114/1 24/115/19
f 5/116/1 46/94/1 48/103/1
f 28/117/23 7/118/3 39/119/34
f 28/120/23 52/121/42 9/122/5
f 16/123/11 53/124/43 54/125/44
f 17/126/12 55/127/45 53/128/43
f 56/129/46 26/130/21 44/131/39
f 57/132/47 58/133/48 59/134/49
f 60/135/50 59/136/49 58/137/48
f 59/138/49 61/139/51 57/140/47
f 58/141/48 62/142/52 63/143/53
f 57/144/47 64/145/54 62/146/52
f 65/147/55 30/148/25 66/149/56
f 67/150/57 52/151/42 27/152/22
f 26/153/21 68/154/58 35/155/30
f 68/156/58 33/157/28 35/158/30
f 67/150/57 27/159/22 30/160/25
f 68/161/58 44/162/39 33/163/28
f 66/164/56 62/165/52 64/166/54
f 62/167/52 44/168/39 63/169/53
f 62/170/52 69/171/59 33/172/28
f 70/173/60 71/174/61 72/175/62
f 71/176/61 60/177/50 72/175/62
f 70/173/60 61/178/51 71/179/61
f 65/147/55 66/180/56 64/181/54
f 73/182/63 74/183/64 75/184/65
f 73/185/63 76/186/66 58/187/48
f 72/188/62 58/189/48 76/190/66
f 44/191/39 58/192/48 63/193/53
f 65/194/55 61/195/51 77/196/67
f 78/197/68 76/186/66 73/198/63
f 79/199/69 72/200/62 76/201/66
f 80/202/70 81/203/71 82/204/72
f 77/196/67 83/205/73 84/206/74
f 70/207/60 77/208/67 61/209/51
f 84/210/74 85/211/75 86/212/76
f 77/213/67 9/214/5 52/215/42
f 86/212/76 9/216/5 84/210/74
f 65/217/55 77/218/67 52/219/42
f 87/220/77 83/221/73 88/222/78
f 89/223/79 85/224/75 83/225/73
f 90/226/80 91/227/81 89/228/79
f 92/229/82 82/230/72 93/231/83
f 94/232/84 80/233/70 82/204/72
f 95/234/85 88/235/78 70/236/60
f 96/237/86 70/238/60 72/175/62
f 97/239/87 88/222/78 95/240/85
f 98/241/88 95/242/85 96/243/86
f 94/244/84 98/245/88 96/246/86
f 82/204/72 99/247/89 94/248/84
f 80/249/70 96/237/86 72/175/62
f 100/250/90 101/251/91 102/252/92
f 102/253/92 89/254/79 87/255/77
f 89/228/79 103/256/93 90/257/80
f 103/258/93 102/259/92 101/251/91
f 98/260/88 104/261/94 97/262/87
f 105/263/95 100/264/90 102/265/92
f 105/266/95 104/261/94 106/267/96
f 104/268/94 87/269/77 97/270/87
f 107/271/97 108/272/98 98/260/88
f 2/4/1 109/273/1 4/5/1
f 5/7/1 49/104/1 1/8/1
f 8/13/4 7/274/3 9/14/5
f 11/16/7 51/275/41 12/17/8
f 14/19/9 11/276/7 13/20/8
f 16/22/11 14/277/9 15/23/10
f 13/25/8 12/278/8 18/26/13
f 15/28/10 13/279/8 19/29/14
f 17/31/12 15/280/10 20/32/15
f 22/34/17 25/281/20 23/35/18
f 25/37/20 44/282/39 26/38/21
f 27/40/22 52/283/42 28/41/23
f 30/43/25 27/159/22 29/44/24
f 32/46/27 69/284/59 30/47/25
f 33/49/28 69/285/59 32/50/27
f 35/52/30 33/157/28 34/53/29
f 26/55/21 35/286/30 36/56/31
f 36/58/31 34/287/29 37/59/32
f 29/61/24 28/288/23 39/62/34
f 23/64/18 36/289/31 38/65/33
f 31/67/26 29/290/24 40/68/35
f 32/70/27 31/291/26 41/71/36
f 34/73/29 32/292/27 42/74/37
f 43/76/38 74/293/64 44/77/39
f 25/79/20 22/294/17 45/80/40
f 46/91/1 47/295/1 18/92/13
f 46/94/1 42/296/37 40/95/35
f 47/97/1 40/297/35 39/98/34
f 18/100/13 47/298/1 7/101/3
f 48/103/1 110/299/1 49/104/1
f 3/105/1 38/300/33 42/106/37
f 12/107/8 51/301/41 48/108/1
f 50/110/1 110/302/1 48/111/1
f 38/113/33 3/303/1 4/114/1
f 5/116/1 42/296/37 46/94/1
f 28/117/23 9/304/5 7/118/3
f 16/123/11 17/305/12 53/124/43
f 17/126/12 21/306/16 55/127/45
f 60/135/50 71/307/61 59/136/49
f 59/138/49 71/308/61 61/139/51
f 58/141/48 57/309/47 62/142/52
f 57/144/47 61/310/51 64/145/54
f 65/147/55 67/311/57 30/148/25
f 67/150/57 65/312/55 52/151/42
f 26/153/21 56/129/46 68/154/58
f 68/161/58 56/313/46 44/162/39
f 66/164/56 30/314/25 62/165/52
f 62/167/52 33/315/28 44/168/39
f 62/170/52 30/316/25 69/171/59
f 73/182/63 44/317/39 74/183/64
f 72/188/62 60/318/50 58/189/48
f 44/191/39 73/319/63 58/192/48
f 65/194/55 64/320/54 61/195/51
f 78/197/68 79/321/69 76/186/66
f 79/199/69 80/202/70 72/200/62
f 80/202/70 79/322/69 81/203/71
f 77/196/67 88/323/78 83/205/73
f 70/207/60 88/235/78 77/208/67
f 84/210/74 83/324/73 85/211/75
f 77/213/67 84/325/74 9/214/5
f 86/212/76 10/326/6 9/216/5
f 87/220/77 89/254/79 83/221/73
f 89/223/79 91/227/81 85/224/75
f 96/237/86 95/327/85 70/238/60
f 97/239/87 87/220/77 88/222/78
f 98/241/88 97/328/87 95/242/85
f 94/244/84 99/329/89 98/245/88
f 82/204/72 92/229/82 99/247/89
f 80/249/70 94/330/84 96/237/86
f 100/250/90 111/331/99 101/251/91
f 89/228/79 102/253/92 103/256/93
f 98/260/88 108/332/98 104/261/94
f 105/266/95 102/253/92 104/261/94
f 104/268/94 102/259/92 87/269/77
l 105 112
