# Blender v2.79 (sub 0) OBJ File: ''
# www.blender.org
mtllib hurricos.070.mtl
o hurricos.070_hurricos.114_tex_72.337
v -0.739738 1.139377 -0.703500
v -0.533757 1.102346 -0.657212
v -0.533757 1.185664 -0.657212
v -0.566158 1.264353 -0.664156
v -0.624018 1.319899 -0.678042
v -0.700393 1.352300 -0.696557
v -0.783710 1.352300 -0.715072
v -0.857771 1.319899 -0.731273
v -0.915631 1.259725 -0.745159
v -0.945718 1.181035 -0.752102
v -0.695765 0.931081 -0.694243
v -0.593931 0.898680 -0.687300
v -0.621704 0.963483 -0.678042
v -0.563844 1.023657 -0.664156
v -0.468954 1.074573 -0.659527
v -0.499041 1.287497 -0.666470
v -0.598559 1.384702 -0.689614
v -0.806855 1.412474 -0.735902
v -1.003578 1.208808 -0.782189
v -0.945718 1.097717 -0.752102
v -0.971176 0.995884 -0.775246
v -0.913317 1.019028 -0.745159
v -0.855457 0.958854 -0.731273
v -0.802226 0.866279 -0.735902
v -0.779082 0.931081 -0.712758
v -0.758252 0.931081 -0.796076
v -0.545329 1.023657 -0.747474
v -0.515242 1.185664 -0.740530
v -0.670306 1.417103 -0.705815
v -0.681878 1.352300 -0.779875
v -0.762881 1.352300 -0.798390
v -0.792969 1.412474 -0.805333
v -0.878601 1.384702 -0.752102
v -0.839256 1.319899 -0.814591
v -0.975805 1.282869 -0.775246
v -0.897116 1.259725 -0.828477
v -0.959604 1.282869 -0.842364
v -0.927203 1.181035 -0.835420
v -1.001264 1.069945 -0.782189
v -0.924889 1.097717 -0.835420
v -0.987377 1.069945 -0.849307
v -0.957290 0.995884 -0.842364
v -0.894801 1.019028 -0.828477
v -0.873972 0.894051 -0.752102
v -0.834627 0.958854 -0.814591
v -0.857771 0.894051 -0.819220
v -0.663363 0.866279 -0.703500
v -0.677249 0.931081 -0.777561
v -0.649476 0.866279 -0.770618
v -0.577730 0.898680 -0.754417
v -0.603189 0.963483 -0.761360
v -0.496727 1.000513 -0.664156
v -0.480526 1.000513 -0.733587
v -0.512927 1.102346 -0.740530
v -0.468954 1.213437 -0.659527
v -0.455068 1.213437 -0.726644
v -0.547644 1.264353 -0.747474
v -0.605503 1.319899 -0.761360
v -0.654105 1.417103 -0.772932
v -0.862400 1.384702 -0.821534
v -0.987377 1.208808 -0.849307
v -0.786025 0.866279 -0.803019
v -0.452753 1.074573 -0.726644
v -0.485155 1.287497 -0.733587
v -0.582359 1.384702 -0.756731
vt 0.250000 0.750000
vt 0.187500 0.625000
vt 0.250000 0.625000
vt 0.187500 0.625000
vt 0.250000 0.625000
vt 0.187500 0.625000
vt 0.250000 0.625000
vt 0.187500 0.625000
vt 0.250000 0.625000
vt 0.187500 0.625000
vt 0.250000 0.625000
vt 0.187500 0.625000
vt 0.250000 0.625000
vt 0.187500 0.625000
vt 0.250000 0.625000
vt 0.187500 0.625000
vt 0.625000 0.750000
vt 0.687500 0.875000
vt 0.687500 0.750000
vt 0.625000 0.750000
vt 0.687500 0.875000
vt 0.687500 0.750000
vt 0.625000 0.750000
vt 0.687500 0.875000
vt 0.687500 0.750000
vt 0.625000 0.875000
vt 0.687500 0.750000
vt 0.625000 0.750000
vt 0.625000 0.875000
vt 0.687500 0.750000
vt 0.625000 0.750000
vt 0.625000 0.750000
vt 0.687500 0.875000
vt 0.687500 0.750000
vt 0.625000 0.750000
vt 0.687500 0.875000
vt 0.687500 0.750000
vt 0.625000 0.750000
vt 0.687500 0.875000
vt 0.687500 0.750000
vt 0.625000 0.875000
vt 0.687500 0.750000
vt 0.625000 0.750000
vt 0.625000 0.750000
vt 0.687500 0.875000
vt 0.687500 0.750000
vt 0.625000 0.750000
vt 0.687500 0.875000
vt 0.687500 0.750000
vt 0.625000 0.750000
vt 0.687500 0.875000
vt 0.625000 0.750000
vt 0.687500 0.875000
vt 0.687500 0.750000
vt 0.625000 0.750000
vt 0.687500 0.750000
vt 0.625000 0.875000
vt 0.687500 0.750000
vt 0.250000 0.625000
vt 0.187500 0.625000
vt 0.625000 0.750000
vt 0.687500 0.875000
vt 0.625000 0.750000
vt 0.687500 0.875000
vt 0.625000 0.750000
vt 0.687500 0.875000
vt 0.687500 0.750000
vt 0.625000 0.875000
vt 0.687500 0.750000
vt 0.250000 0.625000
vt 0.187500 0.750000
vt 0.625000 0.750000
vt 0.687500 0.875000
vt 0.625000 0.875000
vt 0.687500 0.750000
vt 0.625000 0.750000
vt 0.625000 0.750000
vt 0.687500 0.875000
vt 0.687500 0.750000
vt 0.687500 0.875000
vt 0.687500 0.750000
vt 0.625000 0.750000
vt 0.687500 0.875000
vt 0.187500 0.625000
vt 0.250000 0.625000
vt 0.625000 0.750000
vt 0.687500 0.875000
vt 0.625000 0.750000
vt 0.687500 0.875000
vt 0.687500 0.750000
vt 0.187500 0.625000
vt 0.250000 0.625000
vt 0.625000 0.875000
vt 0.687500 0.750000
vt 0.625000 0.750000
vt 0.687500 0.875000
vt 0.625000 0.750000
vt 0.687500 0.875000
vt 0.687500 0.750000
vt 0.687500 0.875000
vt 0.687500 0.750000
vt 0.187500 0.625000
vt 0.250000 0.625000
vt 0.625000 0.750000
vt 0.687500 0.875000
vt 0.625000 0.750000
vt 0.687500 0.750000
vt 0.625000 0.875000
vt 0.687500 0.750000
vt 0.187500 0.625000
vt 0.250000 0.625000
vt 0.625000 0.750000
vt 0.687500 0.875000
vt 0.625000 0.750000
vt 0.687500 0.750000
vt 0.625000 0.875000
vt 0.687500 0.750000
vt 0.187500 0.625000
vt 0.250000 0.625000
vt 0.625000 0.875000
vt 0.687500 0.750000
vt 0.625000 0.750000
vt 0.625000 0.750000
vt 0.687500 0.875000
vt 0.625000 0.875000
vt 0.687500 0.750000
vt 0.625000 0.750000
vt 0.687500 0.875000
vt 0.687500 0.750000
vt 0.187500 0.625000
vt 0.250000 0.625000
vt 0.625000 0.875000
vt 0.625000 0.875000
vt 0.625000 0.875000
vt 0.687500 0.875000
vt 0.687500 0.875000
vt 0.625000 0.875000
vt 0.625000 0.875000
vt 0.625000 0.875000
vt 0.625000 0.875000
vt 0.625000 0.875000
vt 0.625000 0.875000
vt 0.625000 0.875000
vt 0.625000 0.875000
vt 0.687500 0.875000
vt 0.625000 0.875000
vt 0.625000 0.875000
vt 0.625000 0.875000
vt 0.687500 0.875000
vt 0.625000 0.875000
vt 0.625000 0.875000
vt 0.625000 0.875000
vt 0.625000 0.875000
vt 0.625000 0.875000
vt 0.625000 0.875000
vt 0.687500 0.875000
vt 0.625000 0.875000
vt 0.625000 0.875000
vt 0.625000 0.875000
vt 0.625000 0.875000
vt 0.625000 0.875000
vt 0.687500 0.875000
vt 0.625000 0.875000
vt 0.625000 0.875000
vt 0.687500 0.875000
vt 0.687500 0.875000
vt 0.625000 0.875000
vt 0.687500 0.875000
vt 0.625000 0.875000
vn -0.2244 0.0005 0.9745
vn 0.2849 0.2149 0.9342
vn 0.2908 -0.2164 0.9320
vn 0.0005 0.5082 0.8612
vn 0.2872 0.2179 0.9327
vn -0.4034 0.4851 0.7759
vn 0.0280 0.4854 0.8738
vn -0.6718 0.1873 0.7166
vn -0.3874 0.4968 0.7766
vn -0.6635 -0.2154 0.7165
vn -0.3957 -0.4870 0.7786
vn 0.6521 -0.3507 0.6722
vn 0.3050 -0.1858 0.9341
vn 0.0029 -0.4997 0.8662
vn 0.6765 0.3051 0.6702
vn 0.2663 0.7789 0.5679
vn 0.6457 0.3740 0.6657
vn 0.1803 0.8088 0.5598
vn -0.9039 -0.3019 0.3030
vn -0.6719 0.2083 0.7107
vn -0.4727 -0.7819 0.4065
vn -0.3855 -0.4991 0.7761
vn -0.6825 -0.2021 0.7024
vn 0.1838 -0.8097 0.5573
vn 0.0192 -0.4787 0.8777
vn 0.5282 -0.8392 0.1298
vn 0.2205 -0.9742 0.0479
vn 0.8226 -0.5362 0.1892
vn -0.3978 0.8118 0.4274
vn -0.5323 0.8375 -0.1233
vn 0.5130 0.8507 0.1149
vn 0.3399 0.9383 0.0642
vn -0.8684 0.3787 0.3201
vn -0.9548 0.2051 -0.2153
vn -0.4932 0.7708 0.4032
vn -0.2146 0.9756 -0.0458
vn -0.3991 0.9118 -0.0963
vn -0.8126 -0.5506 -0.1910
vn -0.9057 0.2920 0.3073
vn -0.8234 0.5307 -0.2008
vn -0.9088 0.3726 -0.1880
vn -0.4005 -0.9126 -0.0829
vn -0.2067 -0.9770 -0.0531
vn -0.8663 -0.3904 0.3115
vn -0.9458 -0.2253 -0.2341
vn -0.8834 -0.4173 -0.2132
vn -0.3797 -0.8184 0.4313
vn -0.5282 -0.8415 -0.1134
vn -0.3638 -0.9284 -0.0753
vn 0.9059 -0.3653 0.2144
vn 0.9552 -0.2007 0.2174
vn 0.2634 -0.7638 0.5892
vn 0.4127 -0.9055 0.0986
vn 0.8047 0.5589 0.2002
vn 0.6908 -0.2897 0.6625
vn 0.9093 -0.3712 0.1881
vn 0.1991 0.9789 0.0457
vn 0.9481 0.2333 0.2160
vn -0.3485 0.9335 -0.0841
vn -0.8858 0.4154 -0.2067
vn -0.8979 -0.3832 -0.2167
vn 0.3786 -0.9210 0.0914
vn 0.9006 0.3765 0.2174
vn 0.3882 0.9181 0.0803
vn 0.8941 0.3925 0.2158
usemtl Material__25.065
s 1
f 1/1/1 2/2/2 3/3/3
f 1/1/1 3/4/3 4/5/4
f 1/1/1 4/6/4 5/7/5
f 1/1/1 5/8/5 6/9/6
f 1/1/1 6/10/6 7/11/7
f 7/11/7 8/12/8 1/1/1
f 8/13/8 9/14/9 1/1/1
f 9/15/9 10/16/10 1/1/1
f 11/17/11 12/18/12 13/19/13
f 14/20/14 15/21/15 2/22/2
f 3/23/3 16/24/16 4/25/4
f 17/26/17 6/27/6 5/28/5
f 18/29/18 8/30/8 7/31/7
f 9/32/9 19/33/19 10/34/10
f 20/35/20 21/36/21 22/37/22
f 23/38/23 24/39/24 25/40/25
f 26/41/26 11/42/11 25/43/25
f 13/44/13 27/45/27 14/46/14
f 2/47/2 28/48/28 3/49/3
f 29/50/29 30/51/30 6/27/6
f 6/52/6 31/53/31 7/54/7
f 18/55/18 31/53/31 32/56/32
f 32/57/32 33/58/33 18/55/18
f 10/59/10 20/60/20 1/1/1
f 33/61/33 34/62/34 8/30/8
f 34/63/34 9/64/9 8/30/8
f 35/65/35 36/66/36 37/67/37
f 37/68/37 19/69/19 35/65/35
f 22/70/22 1/71/1 20/60/20
f 19/72/19 38/73/38 10/34/10
f 38/74/38 20/75/20 10/76/10
f 39/77/39 40/78/40 41/79/41
f 39/77/39 42/80/42 21/81/21
f 43/82/43 23/83/23 22/37/22
f 1/1/1 22/84/22 23/85/23
f 21/86/21 43/87/43 22/37/22
f 44/88/44 45/89/45 46/90/46
f 1/1/1 23/91/23 25/92/25
f 46/93/46 24/94/24 44/88/44
f 24/95/24 26/96/26 25/40/25
f 47/97/47 48/98/48 49/99/49
f 47/97/47 50/100/50 12/101/12
f 1/1/1 25/102/25 11/103/11
f 12/104/12 51/105/51 13/19/13
f 52/106/52 27/45/27 53/107/53
f 53/108/53 15/109/15 52/106/52
f 1/1/1 11/110/11 13/111/13
f 15/112/15 54/113/54 2/22/2
f 55/114/55 28/48/28 56/115/56
f 56/116/56 16/117/16 55/114/55
f 1/1/1 13/118/13 14/119/14
f 57/120/57 5/121/5 4/122/4
f 16/123/16 57/124/57 4/25/4
f 58/125/58 17/126/17 5/28/5
f 17/127/17 59/128/59 29/129/29
f 1/1/1 14/130/14 2/131/2
f 11/17/11 47/132/47 12/18/12
f 14/20/14 52/133/52 15/21/15
f 3/23/3 55/134/55 16/24/16
f 17/26/17 29/135/29 6/27/6
f 18/29/18 33/136/33 8/30/8
f 9/32/9 35/137/35 19/33/19
f 20/35/20 39/138/39 21/36/21
f 23/38/23 44/139/44 24/39/24
f 26/41/26 48/98/48 11/42/11
f 13/44/13 51/140/51 27/45/27
f 2/47/2 54/141/54 28/48/28
f 29/50/29 59/142/59 30/51/30
f 6/52/6 30/143/30 31/53/31
f 18/55/18 7/144/7 31/53/31
f 32/57/32 60/145/60 33/58/33
f 33/61/33 60/146/60 34/62/34
f 34/63/34 36/147/36 9/64/9
f 35/65/35 9/148/9 36/66/36
f 37/68/37 61/149/61 19/69/19
f 19/72/19 61/150/61 38/73/38
f 38/74/38 40/78/40 20/75/20
f 39/77/39 20/151/20 40/78/40
f 39/77/39 41/152/41 42/80/42
f 43/82/43 45/153/45 23/83/23
f 21/86/21 42/154/42 43/87/43
f 44/88/44 23/155/23 45/89/45
f 46/93/46 62/156/62 24/94/24
f 24/95/24 62/157/62 26/96/26
f 47/97/47 11/158/11 48/98/48
f 47/97/47 49/159/49 50/100/50
f 12/104/12 50/160/50 51/105/51
f 52/106/52 14/161/14 27/45/27
f 53/108/53 63/162/63 15/109/15
f 15/112/15 63/163/63 54/113/54
f 55/114/55 3/164/3 28/48/28
f 56/116/56 64/165/64 16/117/16
f 57/120/57 58/166/58 5/121/5
f 16/123/16 64/167/64 57/124/57
f 58/125/58 65/168/65 17/126/17
f 17/127/17 65/169/65 59/128/59
