# Blender v2.79 (sub 0) OBJ File: ''
# www.blender.org
mtllib hurricos.005.mtl
o hurricos.005_hurricos.114_tex_72.004
v 7.015781 0.690386 -5.795156
v 7.235647 0.764447 -5.922448
v 6.999580 0.764447 -5.820614
v 7.203247 0.764447 -5.964107
v 7.251848 0.690386 -5.901618
v 7.490231 0.741303 -6.001137
v 7.457829 0.741303 -6.042796
v 7.221762 0.667242 -5.589176
v 7.177788 -0.073362 -6.010395
v 7.446257 0.296940 -6.100656
v 7.437000 -0.073362 -6.135372
v 7.189360 0.296940 -5.989565
v 6.950977 0.296940 -5.876160
v 6.934776 -0.073362 -5.915505
v 6.967178 0.764447 -5.857645
v 6.698709 -0.073362 -5.769699
v 7.506432 0.667242 -5.980308
v 6.721853 0.296940 -5.739611
vt 0.312500 0.750000
vt 0.250000 0.875000
vt 0.250000 0.750000
vt 0.375000 0.750000
vt 0.312500 0.875000
vt 0.312500 0.750000
vt 0.250000 0.750000
vt 0.187500 0.875000
vt 0.187500 0.750000
vt 0.375000 0.750000
vt 0.312500 0.875000
vt 0.312500 0.750000
vt 0.500000 0.625000
vt 0.562500 0.625000
vt 0.500000 0.500000
vt 0.000000 0.625000
vt 0.062500 0.750000
vt 0.062500 0.625000
vt 0.312500 0.875000
vt 0.312500 0.750000
vt 0.000000 0.750000
vt 0.062500 0.625000
vt 0.000000 0.625000
vt 0.312500 0.750000
vt 0.375000 0.875000
vt 0.000000 0.625000
vt 0.062500 0.750000
vt 0.062500 0.625000
vt 0.312500 0.875000
vt 0.250000 0.875000
vt 0.375000 0.875000
vt 0.000000 0.750000
vt 0.062500 0.750000
vt 0.312500 0.875000
vt 0.000000 0.750000
vn 0.2671 0.7440 0.6125
vn 0.2356 0.8331 0.5004
vn 0.1969 0.8677 0.4565
vn -0.2222 0.7200 -0.6574
vn 0.3043 0.5522 0.7762
vn 0.2609 0.7325 0.6287
vn -0.1497 0.7660 -0.6252
vn 0.0348 0.9964 0.0772
vn -0.4028 0.0884 -0.9110
vn -0.4028 0.1025 -0.9095
vn -0.4323 0.0949 -0.8967
vn -0.4019 0.0720 -0.9128
vn -0.4499 0.0804 -0.8894
vn -0.4431 0.1139 -0.8892
vn -0.3157 0.6537 -0.6878
vn -0.5171 0.1082 -0.8491
vn 0.3062 0.3192 0.8968
vn -0.5093 0.1013 -0.8546
usemtl Material__25.128
s 1
f 1/1/1 2/2/2 3/3/3
f 4/4/4 3/5/3 2/6/2
f 5/7/5 6/8/6 2/9/2
f 7/10/7 2/11/2 6/12/6
f 8/13/8 5/14/5 1/15/1
f 9/16/9 10/17/10 11/18/11
f 12/19/12 7/10/7 10/20/10
f 13/21/13 9/22/9 14/23/14
f 12/24/12 15/25/15 4/4/4
f 16/26/16 13/27/13 14/28/14
f 1/1/1 5/29/5 2/2/2
f 4/4/4 15/25/15 3/5/3
f 5/7/5 17/30/17 6/8/6
f 7/10/7 4/31/4 2/11/2
f 9/16/9 12/32/12 10/17/10
f 12/19/12 4/31/4 7/10/7
f 13/21/13 12/33/12 9/22/9
f 12/24/12 13/34/13 15/25/15
f 16/26/16 18/35/18 13/27/13
