# Blender v2.79 (sub 0) OBJ File: ''
# www.blender.org
mtllib hurricos.097.mtl
o hurricos.097_hurricos.114_tex_72.364
v 8.124372 0.968111 0.048676
v 8.186861 0.991255 0.023218
v 8.166033 1.014399 0.011646
v 8.166033 0.986627 -0.006869
vt 0.312500 0.875000
vt 0.375000 0.875000
vt 0.312500 0.750000
vt 0.375000 0.875000
vt 0.312500 0.750000
vt 0.375000 0.875000
vt 0.312500 0.750000
vn -0.7048 -0.4232 0.5694
vn 0.4677 -0.3904 0.7930
vn -0.5864 0.7574 0.2871
vn -0.5263 -0.6058 -0.5967
usemtl Material__25.036
s 1
f 1/1/1 2/2/2 3/3/3
f 1/1/1 4/4/4 2/5/2
f 1/1/1 3/6/3 4/7/4
