# Blender v2.79 (sub 0) OBJ File: ''
# www.blender.org
mtllib hurricos.003.mtl
o hurricos.003_hurricos.114_tex_72.002
v -1.228074 0.963484 -5.961792
v -1.489600 0.963484 -6.230261
v -1.489600 0.963484 -5.961792
v -1.871474 0.519122 -6.607507
v -1.489600 0.371001 -6.605193
v -1.876102 0.371001 -6.605193
v -1.283619 0.371001 -6.605193
v -1.489600 0.519122 -6.607507
v -1.281304 0.519122 -6.605193
v -0.568473 0.519122 -5.887732
v -0.568473 0.667242 -5.903933
v -0.862400 0.519122 -5.887732
v -0.897116 0.741303 -5.633149
v -0.862400 0.519122 -5.596119
v -1.832129 0.741303 -6.570477
v -1.489600 0.741303 -6.570477
v -1.253531 0.741303 -6.568162
v -0.897116 0.741303 -5.924762
v -0.568473 0.741303 -5.924762
v -1.795099 0.963484 -6.533446
v -0.931831 0.963484 -5.670179
v -0.568473 0.963484 -5.961792
v -1.489600 0.963484 -6.533446
v -1.228074 0.963484 -6.230261
v -0.931831 0.963484 -5.961792
v -0.915631 0.963484 -6.232576
v -1.228074 0.963484 -6.533446
v -0.915631 0.963484 -6.533446
v -1.214188 0.963484 -5.670179
v -1.489600 0.963484 -5.670179
v -1.795099 0.963484 -6.230261
v -1.795099 0.963484 -5.947906
v -0.260659 0.667242 -6.232576
v -0.262974 0.667242 -5.901618
v -0.142625 0.667242 -6.082140
v -0.140310 0.667242 -6.399212
v -0.262974 0.667242 -6.542704
v -0.617075 0.519122 -6.980124
v -0.320833 0.519122 -7.167589
v -0.624018 0.542266 -7.167589
v -0.621704 0.222880 -7.199990
v -0.316204 0.222880 -7.202305
v -0.614760 -0.073362 -7.271737
v -0.311576 -0.073362 -7.267108
v -0.915631 0.519122 -6.980124
v -0.915631 0.371001 -7.153703
v -0.915631 0.371001 -6.903749
v -1.267418 0.389516 -7.116673
v -1.283619 0.371001 -6.901434
v -1.501172 0.371001 -6.910692
v -1.515058 0.384887 -7.151388
v -1.799728 0.371001 -6.936150
v -0.887858 0.519122 -7.156017
v -0.906374 -0.073362 -7.213877
v -1.802042 0.371001 -7.234706
v -1.519687 -0.073362 -7.186105
v -1.795099 -0.073362 -7.276366
v -1.262790 -0.073362 -7.144445
v -0.262974 0.667242 -5.607691
v -0.165769 0.667242 -5.765069
v -0.612446 0.519122 -5.744240
v -0.462010 0.667242 -5.853016
v -0.545329 0.616326 -5.792842
v -1.281304 0.519122 -6.906063
v -0.915631 0.519122 -6.906063
v -0.237515 0.519122 -6.906063
v -0.237515 0.519122 -6.542704
v -0.617075 1.000515 -6.832003
v -0.915631 0.963484 -6.832003
v -0.617075 0.963484 -6.832003
v -0.915631 1.000515 -6.832003
v -0.617075 0.963484 -6.906063
v -0.915631 0.963484 -6.906063
v -0.915631 0.741303 -6.943093
v -0.915631 0.741303 -6.869033
v -0.617075 0.741303 -6.943093
v -0.617075 0.519122 -6.906063
v -0.617075 0.741303 -6.869033
v -1.253531 0.741303 -6.866718
v -0.274546 0.741303 -6.869033
v -0.274546 0.741303 -6.542704
v -0.274546 0.741303 -6.232576
v -0.274546 0.741303 -5.924762
v -1.228074 0.963484 -6.829688
v -0.311576 0.963484 -5.961792
v -0.311576 0.963484 -6.832003
v -0.311576 0.963484 -6.542704
v -0.617075 0.963484 -6.533446
v -0.311576 0.963484 -6.232576
v -0.617075 0.963484 -6.232576
v -0.885544 1.037545 -6.503359
v -0.885544 1.037545 -6.262663
v -0.647161 1.037545 -6.503359
v -0.677249 1.111605 -6.383011
v -0.855457 1.111605 -6.383011
v -0.647161 1.037545 -6.262663
v -1.795099 0.963484 -5.670179
vt 0.437500 0.625000
vt 0.375000 0.750000
vt 0.375000 0.625000
vt 0.000000 0.750000
vt 0.062500 0.875000
vt 0.000000 0.875000
vt 0.812500 1.000000
vt 0.875000 0.875000
vt 0.812500 0.875000
vt 0.312500 1.000000
vt 0.375000 1.000000
vt 0.312500 0.875000
vt 0.375000 1.000000
vt 0.375000 0.875000
vt 0.625000 0.875000
vt 0.687500 0.750000
vt 0.625000 0.750000
vt 0.625000 0.875000
vt 0.687500 0.750000
vt 0.625000 0.750000
vt 0.625000 0.750000
vt 0.687500 0.875000
vt 0.687500 0.750000
vt 0.187500 0.750000
vt 0.250000 0.625000
vt 0.187500 0.625000
vt 0.187500 0.625000
vt 0.250000 0.750000
vt 0.250000 0.625000
vt 0.187500 0.750000
vt 0.250000 0.625000
vt 0.187500 0.625000
vt 0.187500 0.750000
vt 0.250000 0.625000
vt 0.187500 0.625000
vt 0.375000 0.625000
vt 0.437500 0.750000
vt 0.375000 0.750000
vt 0.375000 0.625000
vt 0.437500 0.750000
vt 0.375000 0.750000
vt 0.437500 0.625000
vt 0.375000 0.750000
vt 0.375000 0.625000
vt 0.437500 0.625000
vt 0.375000 0.750000
vt 0.437500 0.625000
vt 0.375000 0.750000
vt 0.375000 0.625000
vt 0.437500 0.625000
vt 0.375000 0.750000
vt 0.375000 0.625000
vt 0.375000 0.625000
vt 0.437500 0.750000
vt 0.375000 0.625000
vt 0.437500 0.750000
vt 0.375000 0.750000
vt 0.500000 0.625000
vt 0.562500 0.625000
vt 0.500000 0.500000
vt 0.562500 0.625000
vt 0.500000 0.500000
vt 0.500000 0.625000
vt 0.562500 0.500000
vt 0.500000 0.500000
vt 0.375000 0.500000
vt 0.312500 0.625000
vt 0.312500 0.500000
vt 0.000000 0.625000
vt 0.062500 0.750000
vt 0.062500 0.625000
vt 0.312500 0.625000
vt 0.375000 0.500000
vt 0.312500 0.500000
vt 0.437500 0.625000
vt 0.500000 0.500000
vt 0.437500 0.500000
vt 0.437500 0.500000
vt 0.500000 0.625000
vt 0.500000 0.500000
vt 0.437500 0.500000
vt 0.500000 0.625000
vt 0.500000 0.500000
vt 0.500000 0.500000
vt 0.562500 0.625000
vt 0.562500 0.500000
vt 0.437500 0.500000
vt 0.500000 0.625000
vt 0.437500 0.500000
vt 0.750000 0.750000
vt 0.812500 0.875000
vt 0.750000 0.875000
vt 0.500000 0.625000
vt 0.562500 0.500000
vt 0.937500 0.750000
vt 0.875000 0.875000
vt 0.875000 0.750000
vt 0.937500 0.875000
vt 1.000000 0.750000
vt 0.937500 0.750000
vt 0.937500 0.875000
vt 1.000000 0.750000
vt 0.937500 0.750000
vt 0.937500 0.750000
vt 1.000000 0.875000
vt 1.000000 0.750000
vt 0.500000 0.500000
vt 0.562500 0.625000
vt 0.562500 0.500000
vt 0.500000 0.500000
vt 0.562500 0.625000
vt 0.562500 0.500000
vt 0.500000 0.625000
vt 0.562500 0.625000
vt 0.500000 0.500000
vt 0.500000 0.625000
vt 0.562500 0.625000
vt 0.937500 0.875000
vt 0.875000 1.000000
vt 0.875000 0.875000
vt 0.000000 0.750000
vt 0.062500 0.875000
vt 0.000000 0.875000
vt 0.375000 0.500000
vt 0.375000 0.625000
vt 0.437500 0.500000
vt 0.312500 0.875000
vt 0.375000 1.000000
vt 0.375000 0.875000
vt 0.312500 0.875000
vt 0.375000 0.750000
vt 0.312500 0.750000
vt 0.312500 0.875000
vt 0.375000 0.750000
vt 0.312500 0.750000
vt 0.375000 0.875000
vt 0.312500 0.750000
vt 0.375000 0.875000
vt 0.312500 0.750000
vt 0.312500 0.750000
vt 0.375000 0.875000
vt 0.375000 0.750000
vt 0.312500 0.750000
vt 0.375000 0.750000
vt 0.062500 0.875000
vt 0.125000 0.750000
vt 0.062500 0.750000
vt 0.125000 0.875000
vt 0.187500 0.750000
vt 0.125000 0.750000
vt 0.312500 0.875000
vt 0.375000 0.750000
vt 0.312500 0.750000
vt 0.312500 0.875000
vt 0.375000 0.750000
vt 0.312500 0.750000
vt 0.625000 0.750000
vt 0.687500 0.875000
vt 0.687500 0.750000
vt 0.500000 1.000000
vt 0.562500 0.875000
vt 0.500000 0.875000
vt 0.500000 0.875000
vt 0.562500 1.000000
vt 0.562500 0.875000
vt 0.625000 0.875000
vt 0.687500 0.875000
vt 0.625000 0.750000
vt 0.312500 0.875000
vt 0.375000 1.000000
vt 0.375000 0.875000
vt 0.312500 0.875000
vt 0.375000 1.000000
vt 0.375000 0.875000
vt 0.312500 1.000000
vt 0.375000 0.875000
vt 0.312500 0.875000
vt 0.125000 0.625000
vt 0.187500 0.750000
vt 0.187500 0.625000
vt 0.125000 0.750000
vt 0.187500 0.625000
vt 0.125000 0.625000
vt 0.187500 0.750000
vt 0.250000 0.625000
vt 0.187500 0.625000
vt 0.187500 0.750000
vt 0.250000 0.625000
vt 0.187500 0.625000
vt 0.187500 0.625000
vt 0.250000 0.750000
vt 0.250000 0.625000
vt 0.187500 0.750000
vt 0.250000 0.625000
vt 0.187500 0.625000
vt 0.125000 0.625000
vt 0.500000 0.625000
vt 0.562500 0.625000
vt 0.500000 0.500000
vt 0.500000 0.625000
vt 0.562500 0.750000
vt 0.500000 0.750000
vt 0.437500 0.625000
vt 0.375000 0.750000
vt 0.375000 0.625000
vt 0.375000 0.625000
vt 0.437500 0.750000
vt 0.375000 0.750000
vt 0.437500 0.625000
vt 0.375000 0.750000
vt 0.375000 0.625000
vt 0.437500 0.625000
vt 0.375000 0.750000
vt 0.375000 0.625000
vt 0.375000 0.625000
vt 0.437500 0.750000
vt 0.375000 0.625000
vt 0.437500 0.750000
vt 0.375000 0.750000
vt 0.062500 0.625000
vt 0.125000 0.750000
vt 0.125000 0.625000
vt 0.062500 0.625000
vt 0.125000 0.750000
vt 0.125000 0.625000
vt 0.062500 0.750000
vt 0.125000 0.625000
vt 0.062500 0.625000
vt 0.062500 0.750000
vt 0.125000 0.625000
vt 0.062500 0.625000
vt 0.375000 0.625000
vt 0.437500 0.750000
vt 0.437500 0.625000
vt 0.437500 0.625000
vt 0.375000 0.625000
vt 0.437500 0.750000
vt 0.375000 0.750000
vt 0.437500 0.625000
vt 0.375000 0.625000
vt 0.437500 0.750000
vt 0.375000 0.625000
vt 0.437500 0.750000
vt 0.062500 0.750000
vt 0.875000 1.000000
vt 0.312500 1.000000
vt 0.687500 0.875000
vt 0.687500 0.875000
vt 0.625000 0.875000
vt 0.250000 0.750000
vt 0.187500 0.750000
vt 0.250000 0.750000
vt 0.250000 0.750000
vt 0.437500 0.625000
vt 0.437500 0.750000
vt 0.437500 0.750000
vt 0.437500 0.750000
vt 0.437500 0.625000
vt 0.437500 0.625000
vt 0.375000 0.625000
vt 0.000000 0.750000
vt 0.375000 0.625000
vt 0.500000 0.625000
vt 0.437500 0.625000
vt 0.437500 0.625000
vt 0.500000 0.625000
vt 0.437500 0.625000
vt 0.437500 0.625000
vt 0.937500 0.875000
vt 1.000000 0.875000
vt 1.000000 0.875000
vt 0.937500 0.875000
vt 0.500000 0.625000
vt 0.937500 1.000000
vt 0.062500 0.750000
vt 0.312500 1.000000
vt 0.375000 0.875000
vt 0.375000 0.875000
vt 0.312500 0.875000
vt 0.312500 0.875000
vt 0.125000 0.875000
vt 0.187500 0.875000
vt 0.375000 0.875000
vt 0.625000 0.875000
vt 0.562500 1.000000
vt 0.500000 1.000000
vt 0.312500 1.000000
vt 0.312500 1.000000
vt 0.375000 1.000000
vt 0.125000 0.750000
vt 0.187500 0.750000
vt 0.250000 0.750000
vt 0.250000 0.750000
vt 0.187500 0.750000
vt 0.250000 0.750000
vt 0.125000 0.750000
vt 0.562500 0.625000
vt 0.437500 0.750000
vt 0.437500 0.625000
vt 0.437500 0.750000
vt 0.437500 0.750000
vt 0.437500 0.625000
vt 0.437500 0.625000
vt 0.062500 0.750000
vt 0.062500 0.750000
vt 0.125000 0.750000
vt 0.125000 0.750000
vt 0.375000 0.750000
vn 0.0000 1.0000 0.0000
vn 0.0000 0.0685 -0.9976
vn 0.0000 0.7016 -0.7126
vn 0.0000 0.6509 -0.7591
vn -0.5710 0.5803 -0.5807
vn 0.0039 0.0762 -0.9971
vn -0.7059 0.1121 -0.6994
vn -0.5643 0.6435 0.5173
vn -0.2121 0.3992 0.8920
vn 0.5286 0.6578 0.5365
vn 0.9880 0.1544 0.0000
vn 0.7429 0.6694 0.0000
vn 0.0000 0.1644 -0.9864
vn 0.0050 0.1642 -0.9864
vn -0.6931 0.1963 -0.6936
vn 0.6859 0.2280 0.6910
vn 0.0000 0.2179 0.9760
vn 0.0000 0.7354 -0.6777
vn 0.6817 0.7316 0.0000
vn 0.0000 0.7630 0.6464
vn 0.0016 0.7622 -0.6473
vn 0.2516 0.9342 0.2531
vn -0.1920 0.9624 0.1920
vn -0.2568 0.9301 -0.2628
vn -0.1920 0.9624 -0.1920
vn 0.8544 0.5196 -0.0027
vn 0.3221 0.8785 0.3528
vn 0.9542 0.2991 -0.0001
vn 0.2645 0.9327 -0.2452
vn 0.0168 0.7923 -0.6099
vn -0.0310 0.7860 -0.6175
vn -0.0626 0.1586 -0.9854
vn -0.0018 0.1713 -0.9852
vn -0.0906 0.2268 -0.9697
vn 0.0149 0.2139 -0.9767
vn -0.8801 0.3492 -0.3217
vn -0.3607 0.3678 -0.8571
vn -0.5695 0.5854 -0.5770
vn 0.0154 0.7836 -0.6211
vn -0.3164 0.9144 -0.2524
vn -0.0054 0.9995 0.0321
vn 0.1221 0.7649 -0.6325
vn -0.0144 0.9998 0.0127
vn -0.4930 0.6201 -0.6103
vn -0.1647 0.1554 -0.9740
vn 0.1902 0.6589 -0.7277
vn 0.2301 0.0791 -0.9699
vn 0.3101 0.0935 -0.9461
vn -0.0010 0.0850 -0.9964
vn -0.2897 0.9530 -0.0888
vn -0.0520 0.9927 0.1087
vn -0.8453 0.5155 0.1407
vn -0.6944 0.0962 -0.7131
vn -0.7287 0.0524 -0.6828
vn 0.5312 0.6607 -0.5304
vn 0.9855 0.1694 0.0000
vn 0.5568 0.7066 0.4367
vn -0.6609 0.7504 0.0045
vn 0.6587 0.7524 0.0047
vn -0.5568 0.7066 0.4367
vn 0.6178 0.4672 -0.6325
vn -0.6178 0.4672 -0.6325
vn -0.7071 0.1162 -0.6975
vn -0.7096 0.1159 -0.6950
vn 0.7071 0.1162 -0.6975
vn 0.5865 0.6180 -0.5235
vn -0.6967 0.2010 -0.6887
vn 0.6888 0.2289 -0.6879
vn 0.9872 0.1594 0.0000
vn 0.9849 0.1732 -0.0016
vn 0.6993 0.2747 0.6600
vn -0.5493 0.6499 -0.5252
vn 0.5295 0.6628 0.5295
vn 0.5295 0.6628 -0.5295
vn 0.6464 0.7630 0.0000
vn 0.1920 0.9624 -0.1920
vn 0.1920 0.9624 0.1920
vn -0.5251 0.6379 -0.5634
vn -0.5251 0.6379 0.5634
vn 0.5251 0.6379 -0.5634
vn 0.4352 0.9003 0.0000
vn -0.4352 0.9003 0.0000
vn 0.5251 0.6379 0.5634
usemtl Material__25.130
s 1
f 1/1/1 2/2/1 3/3/1
f 4/4/2 5/5/3 6/6/4
f 7/7/5 8/8/6 9/9/7
f 10/10/8 11/11/9 12/12/10
f 12/12/10 13/13/11 14/14/12
f 8/15/6 15/16/13 16/17/14
f 9/18/7 16/19/14 17/20/15
f 18/21/16 11/22/9 19/23/17
f 20/24/18 16/25/14 15/26/13
f 18/27/16 21/28/19 13/29/11
f 22/30/20 18/31/16 19/32/17
f 23/33/21 17/34/15 16/35/14
f 24/36/1 25/37/22 26/38/23
f 27/39/24 26/40/23 28/41/25
f 29/42/1 25/43/22 1/44/1
f 30/45/1 1/46/1 3/3/1
f 2/47/1 27/48/24 23/49/21
f 31/50/1 23/51/21 20/52/18
f 31/53/1 3/54/1 2/2/1
f 32/55/1 30/56/1 3/57/1
f 33/58/26 34/59/27 35/60/1
f 33/58/26 36/61/1 37/62/28
f 38/63/29 39/64/30 40/65/31
f 41/66/32 39/67/30 42/68/33
f 43/69/34 42/70/33 44/71/35
f 45/72/36 46/73/37 47/74/38
f 47/75/38 48/76/39 49/77/40
f 50/78/41 48/79/39 51/80/42
f 5/81/3 49/82/40 50/83/41
f 5/84/3 52/85/43 6/86/4
f 51/87/42 52/88/43 50/83/41
f 53/89/44 38/63/29 40/65/31
f 40/90/31 46/91/37 53/92/44
f 40/65/31 41/93/32 46/94/37
f 54/95/45 41/96/32 43/97/34
f 55/98/46 56/99/47 57/100/48
f 51/101/42 58/102/49 56/103/47
f 58/104/49 46/105/37 54/106/45
f 34/107/27 59/108/1 60/109/1
f 61/110/50 12/111/10 14/112/12
f 34/113/27 11/114/9 62/115/51
f 11/116/9 63/117/52 62/115/51
f 49/118/40 9/119/7 64/120/53
f 64/121/53 47/122/38 49/123/40
f 47/124/38 65/125/54 45/126/36
f 66/127/55 37/128/28 67/129/56
f 68/130/57 69/131/58 70/132/59
f 71/133/60 72/134/61 73/135/62
f 71/133/60 73/136/62 69/137/58
f 68/130/57 70/138/59 72/139/61
f 65/140/54 74/141/63 45/142/36
f 75/143/64 73/136/62 74/144/63
f 74/145/63 38/146/29 45/147/36
f 73/148/62 76/149/65 74/150/63
f 76/151/65 77/152/66 38/153/29
f 72/154/61 78/155/65 76/156/65
f 79/157/67 9/158/7 17/159/15
f 65/160/54 79/161/67 75/162/64
f 80/163/68 77/164/66 78/165/65
f 80/166/68 81/167/69 37/168/28
f 37/169/28 82/170/70 33/171/26
f 33/172/26 83/173/71 34/174/27
f 83/175/71 11/176/9 34/177/27
f 17/178/15 84/179/72 79/180/67
f 84/181/72 75/182/64 79/183/67
f 85/184/73 19/185/17 83/186/71
f 86/187/74 81/188/69 80/189/68
f 82/190/70 85/191/73 83/192/71
f 87/193/75 82/194/70 81/195/69
f 78/196/65 86/187/74 80/189/68
f 77/197/66 66/198/55 38/199/29
f 10/200/8 63/201/52 11/202/9
f 28/203/25 70/204/59 69/205/58
f 88/206/76 89/207/75 87/208/75
f 22/209/20 89/210/75 90/211/77
f 25/212/22 90/213/77 26/214/23
f 84/215/72 28/216/25 69/131/58
f 70/217/59 87/218/75 86/219/74
f 26/220/23 91/221/78 28/222/25
f 90/223/77 92/224/79 26/225/23
f 93/226/80 90/227/77 88/228/76
f 91/229/78 88/230/76 28/231/25
f 91/232/78 94/233/81 93/234/80
f 91/235/78 92/236/79 95/237/82
f 94/238/81 92/239/79 96/240/83
f 94/238/81 96/241/83 93/242/80
f 1/1/1 24/243/1 2/2/1
f 4/4/2 8/244/6 5/5/3
f 7/7/5 5/245/3 8/8/6
f 12/12/10 18/246/16 13/13/11
f 8/15/6 4/247/2 15/16/13
f 9/18/7 8/248/6 16/19/14
f 18/21/16 12/249/10 11/22/9
f 20/24/18 23/250/21 16/25/14
f 18/27/16 25/251/22 21/28/19
f 22/30/20 25/252/22 18/31/16
f 23/33/21 27/253/24 17/34/15
f 24/36/1 1/1/1 25/37/22
f 27/39/24 24/254/1 26/40/23
f 29/42/1 21/255/19 25/43/22
f 30/45/1 29/256/1 1/46/1
f 2/47/1 24/243/1 27/48/24
f 31/50/1 2/257/1 23/51/21
f 31/53/1 32/258/1 3/54/1
f 32/55/1 97/259/1 30/56/1
f 38/63/29 66/198/55 39/64/30
f 41/66/32 40/260/31 39/67/30
f 43/69/34 41/261/32 42/70/33
f 45/72/36 53/262/44 46/73/37
f 47/75/38 46/263/37 48/76/39
f 50/78/41 49/264/40 48/79/39
f 5/81/3 7/265/5 49/82/40
f 5/84/3 50/266/41 52/85/43
f 51/87/42 55/267/46 52/88/43
f 53/89/44 45/268/36 38/63/29
f 54/95/45 46/269/37 41/96/32
f 55/98/46 51/270/42 56/99/47
f 51/101/42 48/271/39 58/102/49
f 58/104/49 48/272/39 46/105/37
f 34/107/27 62/273/51 59/108/1
f 61/110/50 10/200/8 12/111/10
f 49/118/40 7/274/5 9/119/7
f 64/121/53 65/275/54 47/122/38
f 66/127/55 80/276/68 37/128/28
f 68/130/57 71/277/60 69/131/58
f 71/133/60 68/278/57 72/134/61
f 65/140/54 75/279/64 74/141/63
f 75/143/64 69/280/58 73/136/62
f 74/145/63 76/281/65 38/146/29
f 73/148/62 72/282/61 76/149/65
f 76/151/65 78/283/65 77/152/66
f 72/154/61 70/138/59 78/155/65
f 79/157/67 64/284/53 9/158/7
f 65/160/54 64/285/53 79/161/67
f 80/163/68 66/286/55 77/164/66
f 37/169/28 81/287/69 82/170/70
f 33/172/26 82/288/70 83/173/71
f 83/175/71 19/289/17 11/176/9
f 17/178/15 27/290/24 84/179/72
f 84/181/72 69/291/58 75/182/64
f 85/184/73 22/292/20 19/185/17
f 86/187/74 87/293/75 81/188/69
f 82/190/70 89/294/75 85/191/73
f 87/193/75 89/295/75 82/194/70
f 78/196/65 70/296/59 86/187/74
f 10/200/8 61/297/50 63/201/52
f 28/203/25 88/298/76 70/204/59
f 88/206/76 90/299/77 89/207/75
f 22/209/20 85/300/73 89/210/75
f 25/212/22 22/301/20 90/213/77
f 84/215/72 27/302/24 28/216/25
f 70/217/59 88/303/76 87/218/75
f 26/220/23 92/304/79 91/221/78
f 90/223/77 96/305/83 92/224/79
f 93/226/80 96/306/83 90/227/77
f 91/229/78 93/307/80 88/230/76
f 91/232/78 95/308/82 94/233/81
f 94/238/81 95/237/82 92/239/79
