# Blender v2.79 (sub 0) OBJ File: ''
# www.blender.org
mtllib hurricos.049.mtl
o hurricos.049_hurricos.114_tex_72.048
v -0.198171 1.477277 -2.543440
v -0.464325 1.130119 -2.517982
v -0.202799 1.130119 -2.575841
v -0.647161 1.477277 -2.504095
v -0.651791 1.130119 -2.536497
v -0.853143 1.157892 -1.867638
v -1.015150 1.111604 -2.133793
v -1.184100 1.157892 -1.953270
v -0.434238 1.139377 -2.057418
v -0.786025 1.120861 -2.080562
v -0.892488 1.111604 -2.325887
v -0.718908 1.116233 -2.293486
v -0.806855 1.130119 -2.522610
v -0.450438 1.139377 -2.286542
v -0.151882 1.148634 -2.346717
v -0.783710 0.815362 -2.624443
v -0.860085 0.815362 -2.376804
v -0.996634 0.815362 -2.149994
v -1.181786 0.815362 -1.960214
v -1.677065 0.519121 -3.145181
v -1.899247 0.519121 -3.383563
v -1.832129 0.486720 -3.156753
v -1.487285 0.537635 -2.552697
v -1.494228 0.519120 -2.927629
v -1.702523 0.519120 -2.721648
v -1.873788 0.482090 -2.936886
v -1.783527 0.533007 -2.436978
v -1.589118 0.528378 -2.420777
v -1.869159 0.537635 -2.580470
v -1.288248 0.667241 -2.272656
v -1.181786 0.657983 -1.960214
v -0.996634 0.685756 -2.149994
v -1.262790 0.644097 -2.675360
v -1.105411 0.662612 -2.448550
v -1.040608 0.634840 -2.605928
v -1.505800 0.685756 -2.161566
v -1.390080 0.644097 -1.800521
v -0.860085 0.676499 -2.376804
v -1.468770 0.648726 -2.524925
v -1.584489 0.681127 -2.399948
v -1.688637 0.653355 -1.758862
v -1.734925 0.685756 -2.106020
v -1.915447 0.667241 -2.029645
v -1.933962 0.667241 -1.846809
v -0.783710 0.667241 -2.624443
v -1.285933 0.537635 -2.710076
v -0.876287 0.519121 -3.133609
v -1.035979 0.519120 -2.969287
v -0.876287 0.519120 -2.837367
v -0.876287 0.519121 -3.429851
v -1.082267 0.519121 -3.452995
v -1.265104 0.519121 -3.163696
v -1.029037 0.528378 -2.629072
v -0.783710 0.519120 -2.624444
v -0.876287 0.519120 -2.689246
v -0.769825 0.519120 -2.689246
v -0.769825 0.815362 -2.689246
v -0.876287 0.815362 -2.689246
v -0.473582 1.500422 -2.911427
v -0.459697 1.509679 -2.506409
v -0.267602 1.588369 -2.904485
v -0.473582 1.500422 -3.140552
v -0.769825 1.468021 -3.402078
v -0.769825 1.468020 -3.133609
v -0.769825 1.468020 -2.865140
v -0.802226 1.449504 -2.487894
v -0.272231 1.542081 -3.253957
v -0.269917 1.565225 -3.078064
v -0.473582 1.514309 -3.429851
v -0.272231 1.861467 -3.328018
v -0.272231 1.662429 -3.353476
v -0.272231 1.685573 -3.290987
v -0.267602 1.713346 -2.957715
v -0.269917 1.616141 -3.105836
v -0.269917 1.810550 -3.059548
v -0.269917 1.662428 -3.156753
v -0.239829 1.755005 -2.853568
v -0.242144 1.921641 -3.022518
v -0.269917 1.866095 -3.189154
v -0.249087 1.912384 -3.496968
v -0.274546 1.805922 -3.455309
v -0.272231 1.690202 -3.221556
v -0.274546 1.611513 -3.402078
v -0.274546 1.560596 -3.429851
v -0.517556 0.639470 -3.508540
v -0.508299 0.556152 -3.487711
v -0.529128 0.556152 -3.517798
v -0.621704 0.519121 -3.429851
v -0.496727 0.639470 -3.478453
v -0.575416 0.815363 -3.397449
v -0.769825 1.259726 -3.462252
v -0.876287 1.259726 -3.462252
v -0.876287 1.259725 -2.807280
v -0.769825 1.259725 -2.807280
v -0.769825 0.519121 -3.147496
v -0.769825 0.519121 -3.429851
v -0.769825 0.519120 -2.837367
v -0.876287 1.111604 -3.133609
v -0.769825 1.111604 -2.927629
v -0.876287 1.111604 -2.927629
v -0.769825 1.111604 -3.133609
v -0.876287 1.111605 -3.341904
v -0.769825 1.111605 -3.341904
v -0.876287 0.815363 -3.429851
v -0.769825 0.815363 -3.429851
v -0.621704 1.111604 -2.927629
v -0.526814 1.111604 -3.131295
v -0.526814 1.111604 -2.899856
v -0.621704 1.111605 -3.341904
v -0.526814 1.111605 -3.365048
v -0.621704 1.111604 -3.133609
v -0.621704 0.815363 -3.429851
v -0.325461 0.519121 -3.429851
v -0.621704 0.519121 -3.147496
v -0.325461 0.519121 -3.147496
v -0.621704 0.519120 -2.837367
v -0.325461 0.519120 -2.837367
v -0.325461 0.519120 -2.668417
v -0.295375 1.222695 -3.288673
v -0.295375 1.111605 -3.494654
v -0.295375 1.222695 -2.987803
v -0.295375 1.111604 -2.765621
v -0.876287 1.259725 -3.133609
v -0.876287 0.815362 -2.837367
v -0.769825 0.815362 -2.837367
v -0.575416 0.815362 -2.867454
v -0.621704 0.815362 -2.837367
v -0.311576 0.815362 -2.714705
v -0.311576 0.815362 -2.656845
v -0.839256 1.468020 -1.923183
v -1.390080 1.407846 -1.800521
v -1.167899 1.495792 -2.025017
v -1.167899 1.495792 -1.846809
v -0.420352 1.157892 -1.768119
v -1.804357 0.695014 -2.404576
v -1.475713 0.519121 -3.369677
v -0.237515 1.634656 -2.802651
v -0.244458 1.967929 -3.140552
v -0.246773 1.963300 -3.376620
v -0.325461 0.519120 -2.552697
v -0.422667 0.639470 -3.520112
v -0.436552 0.556152 -3.529370
v -1.915447 0.741303 -3.397449
v -1.931648 0.963484 -3.411336
vt 0.500000 0.750000
vt 0.562500 0.625000
vt 0.500000 0.625000
vt 0.500000 0.625000
vt 0.562500 0.750000
vt 0.562500 0.625000
vt 0.750000 0.750000
vt 0.812500 0.875000
vt 0.812500 0.750000
vt 0.500000 0.500000
vt 0.562500 0.625000
vt 0.562500 0.500000
vt 0.500000 0.625000
vt 0.562500 0.500000
vt 0.500000 0.500000
vt 0.500000 0.625000
vt 0.562500 0.500000
vt 0.500000 0.500000
vt 0.500000 0.625000
vt 0.562500 0.500000
vt 0.500000 0.500000
vt 0.437500 0.500000
vt 0.500000 0.625000
vt 0.500000 0.500000
vt 0.500000 0.625000
vt 0.562500 0.500000
vt 0.500000 0.500000
vt 0.437500 0.500000
vt 0.375000 0.500000
vt 0.437500 0.625000
vt 0.375000 0.625000
vt 0.312500 0.500000
vt 0.312500 0.625000
vt 0.250000 0.500000
vt 0.250000 0.625000
vt 0.500000 0.500000
vt 0.562500 0.625000
vt 0.500000 0.625000
vt 0.500000 0.500000
vt 0.562500 0.625000
vt 0.562500 0.500000
vt 0.437500 0.625000
vt 0.500000 0.500000
vt 0.437500 0.500000
vt 0.500000 0.625000
vt 0.562500 0.625000
vt 0.500000 0.500000
vt 0.562500 0.625000
vt 0.500000 0.625000
vt 0.437500 0.500000
vt 0.500000 0.625000
vt 0.500000 0.500000
vt 0.500000 0.625000
vt 0.562500 0.625000
vt 0.500000 0.500000
vt 0.500000 0.625000
vt 0.562500 0.625000
vt 0.500000 0.500000
vt 0.500000 0.625000
vt 0.562500 0.500000
vt 0.500000 0.500000
vt 0.562500 0.500000
vt 0.437500 0.500000
vt 0.500000 0.625000
vt 0.500000 0.500000
vt 0.750000 0.750000
vt 0.812500 0.875000
vt 0.812500 0.750000
vt 0.437500 0.500000
vt 0.500000 0.625000
vt 0.500000 0.500000
vt 0.437500 0.625000
vt 0.500000 0.500000
vt 0.437500 0.500000
vt 0.437500 0.625000
vt 0.500000 0.500000
vt 0.437500 0.500000
vt 0.500000 0.625000
vt 0.562500 0.500000
vt 0.500000 0.500000
vt 0.875000 0.625000
vt 0.937500 0.750000
vt 0.875000 0.750000
vt 0.812500 0.625000
vt 0.875000 0.750000
vt 0.875000 0.625000
vt 0.125000 0.500000
vt 0.187500 0.625000
vt 0.187500 0.500000
vt 0.500000 0.625000
vt 0.562500 0.750000
vt 0.562500 0.625000
vt 0.500000 0.625000
vt 0.562500 0.750000
vt 0.562500 0.625000
vt 0.500000 0.750000
vt 0.500000 0.625000
vt 0.500000 0.625000
vt 0.562500 0.625000
vt 0.500000 0.500000
vt 0.500000 0.625000
vt 0.562500 0.625000
vt 0.500000 0.500000
vt 0.562500 0.500000
vt 0.500000 0.500000
vt 0.500000 0.625000
vt 0.562500 0.500000
vt 0.500000 0.625000
vt 0.562500 0.500000
vt 0.500000 0.500000
vt 0.500000 0.625000
vt 0.562500 0.625000
vt 0.375000 0.625000
vt 0.437500 0.500000
vt 0.375000 0.500000
vt 0.625000 0.875000
vt 0.687500 0.750000
vt 0.625000 0.750000
vt 0.437500 0.875000
vt 0.500000 0.750000
vt 0.437500 0.750000
vt 0.500000 0.500000
vt 0.562500 0.625000
vt 0.562500 0.500000
vt 0.437500 0.625000
vt 0.437500 0.500000
vt 0.562500 0.750000
vt 0.500000 0.750000
vt 0.562500 0.750000
vt 0.562500 0.625000
vt 0.500000 0.625000
vt 0.562500 0.500000
vt 0.500000 0.500000
vt 0.437500 0.625000
vt 0.500000 0.500000
vt 0.437500 0.500000
vt 0.437500 0.625000
vt 0.500000 0.500000
vt 0.437500 0.500000
vt 0.437500 0.625000
vt 0.500000 0.500000
vt 0.437500 0.500000
vt 0.500000 0.625000
vt 0.562500 0.625000
vt 0.500000 0.500000
vt 0.500000 0.625000
vt 0.562500 0.500000
vt 0.437500 0.500000
vt 0.500000 0.625000
vt 0.500000 0.500000
vt 0.625000 0.875000
vt 0.687500 0.750000
vt 0.625000 0.750000
vt 0.625000 0.750000
vt 0.687500 0.875000
vt 0.687500 0.750000
vt 0.625000 0.750000
vt 0.687500 0.875000
vt 0.687500 0.750000
vt 0.625000 0.750000
vt 0.687500 0.875000
vt 0.687500 0.750000
vt 0.625000 0.875000
vt 0.687500 0.750000
vt 0.625000 0.750000
vt 0.625000 0.750000
vt 0.687500 0.875000
vt 0.687500 0.750000
vt 0.625000 0.875000
vt 0.687500 0.750000
vt 0.625000 0.750000
vt 0.312500 0.875000
vt 0.375000 0.875000
vt 0.312500 0.750000
vt 0.312500 0.875000
vt 0.312500 0.750000
vt 0.312500 0.875000
vt 0.312500 0.750000
vt 0.312500 0.875000
vt 0.312500 0.750000
vt 0.312500 0.875000
vt 0.312500 0.750000
vt 0.312500 0.875000
vt 0.312500 0.750000
vt 0.312500 0.875000
vt 0.312500 0.750000
vt 0.625000 0.750000
vt 0.687500 0.875000
vt 0.687500 0.750000
vt 0.625000 0.875000
vt 0.687500 0.750000
vt 0.625000 0.750000
vt 0.625000 0.750000
vt 0.687500 0.875000
vt 0.625000 0.875000
vt 0.562500 0.500000
vt 0.500000 0.500000
vt 0.562500 0.625000
vt 0.562500 0.500000
vt 0.500000 0.500000
vt 0.562500 0.625000
vt 0.000000 0.875000
vt 0.062500 0.750000
vt 0.000000 0.750000
vt 0.812500 1.000000
vt 0.875000 0.875000
vt 0.812500 0.875000
vt 0.500000 0.625000
vt 0.500000 0.500000
vt 0.437500 1.000000
vt 0.500000 0.875000
vt 0.437500 0.875000
vt 0.437500 1.000000
vt 0.500000 0.875000
vt 0.437500 0.875000
vt 0.437500 1.000000
vt 0.500000 0.875000
vt 0.437500 0.875000
vt 0.437500 1.000000
vt 0.500000 0.875000
vt 0.437500 0.875000
vt 0.625000 0.875000
vt 0.687500 0.750000
vt 0.625000 0.750000
vt 0.312500 0.500000
vt 0.375000 0.625000
vt 0.375000 0.500000
vt 0.625000 0.875000
vt 0.687500 0.750000
vt 0.625000 0.750000
vt 0.625000 0.750000
vt 0.687500 0.875000
vt 0.687500 0.750000
vt 0.625000 0.875000
vt 0.687500 0.750000
vt 0.625000 0.750000
vt 0.625000 0.875000
vt 0.687500 0.750000
vt 0.625000 0.750000
vt 0.625000 0.875000
vt 0.687500 0.875000
vt 0.625000 0.750000
vt 0.687500 0.750000
vt 0.687500 0.750000
vt 0.625000 0.875000
vt 0.687500 0.750000
vt 0.625000 0.750000
vt 0.625000 0.875000
vt 0.687500 0.750000
vt 0.625000 0.750000
vt 0.625000 0.875000
vt 0.687500 0.750000
vt 0.625000 0.750000
vt 0.625000 0.875000
vt 0.687500 0.750000
vt 0.625000 0.750000
vt 0.625000 0.875000
vt 0.625000 0.750000
vt 0.687500 0.875000
vt 0.625000 0.750000
vt 0.687500 0.875000
vt 0.625000 0.875000
vt 0.625000 0.750000
vt 0.687500 0.875000
vt 0.625000 0.875000
vt 0.687500 0.875000
vt 0.625000 0.875000
vt 0.687500 0.875000
vt 0.625000 0.875000
vt 0.625000 0.875000
vt 0.437500 0.625000
vt 0.500000 0.500000
vt 0.375000 0.625000
vt 0.437500 0.500000
vt 0.375000 0.500000
vt 0.812500 0.875000
vt 0.812500 0.750000
vt 0.750000 0.875000
vt 0.562500 0.625000
vt 0.500000 0.625000
vt 0.437500 1.000000
vt 0.500000 0.875000
vt 0.437500 0.875000
vt 0.437500 1.000000
vt 0.500000 0.875000
vt 0.437500 0.875000
vt 0.625000 0.750000
vt 0.687500 0.875000
vt 0.687500 0.750000
vt 0.625000 0.875000
vt 0.687500 0.750000
vt 0.625000 0.750000
vt 0.625000 0.750000
vt 0.687500 0.875000
vt 0.687500 0.750000
vt 0.687500 0.750000
vt 0.625000 0.750000
vt 0.625000 0.875000
vt 0.687500 0.875000
vt 0.625000 0.875000
vt 0.687500 0.750000
vt 0.625000 0.750000
vt 0.750000 1.000000
vt 0.812500 1.000000
vt 0.750000 0.875000
vt 0.812500 1.000000
vt 0.812500 0.875000
vt 0.437500 0.875000
vt 0.500000 0.750000
vt 0.437500 0.750000
vt 0.625000 0.875000
vt 0.625000 0.750000
vt 0.437500 0.500000
vt 0.375000 0.625000
vt 0.375000 0.500000
vt 0.500000 0.625000
vt 0.500000 0.500000
vt 0.437500 0.625000
vt 0.500000 0.625000
vt 0.562500 0.625000
vt 0.500000 0.500000
vt 0.437500 0.625000
vt 0.500000 0.625000
vt 0.437500 0.500000
vt 0.562500 0.750000
vt 0.500000 0.750000
vt 0.750000 0.875000
vt 0.500000 0.625000
vt 0.562500 0.625000
vt 0.562500 0.625000
vt 0.437500 0.625000
vt 0.562500 0.625000
vt 0.500000 0.625000
vt 0.437500 0.625000
vt 0.562500 0.625000
vt 0.500000 0.625000
vt 0.437500 0.625000
vt 0.750000 0.875000
vt 0.437500 0.625000
vt 0.500000 0.625000
vt 0.500000 0.625000
vt 0.562500 0.625000
vt 0.937500 0.625000
vt 0.812500 0.750000
vt 0.125000 0.625000
vt 0.500000 0.750000
vt 0.500000 0.750000
vt 0.562500 0.625000
vt 0.562500 0.625000
vt 0.437500 0.625000
vt 0.687500 0.875000
vt 0.500000 0.875000
vt 0.500000 0.625000
vt 0.562500 0.625000
vt 0.500000 0.625000
vt 0.437500 0.625000
vt 0.687500 0.875000
vt 0.625000 0.875000
vt 0.625000 0.875000
vt 0.625000 0.875000
vt 0.687500 0.875000
vt 0.625000 0.875000
vt 0.687500 0.875000
vt 0.625000 0.875000
vt 0.062500 0.875000
vt 0.875000 1.000000
vt 0.437500 0.625000
vt 0.500000 1.000000
vt 0.500000 1.000000
vt 0.500000 1.000000
vt 0.500000 1.000000
vt 0.687500 0.875000
vt 0.312500 0.625000
vt 0.687500 0.875000
vt 0.625000 0.875000
vt 0.687500 0.875000
vt 0.687500 0.875000
vt 0.687500 0.875000
vt 0.687500 0.875000
vt 0.500000 0.625000
vt 0.437500 0.625000
vt 0.562500 0.500000
vt 0.500000 1.000000
vt 0.500000 1.000000
vt 0.625000 0.875000
vt 0.687500 0.875000
vt 0.625000 0.875000
vt 0.687500 0.875000
vt 0.687500 0.875000
vt 0.750000 1.000000
vt 0.500000 0.875000
vt 0.437500 0.625000
vn 0.1670 -0.0559 0.9844
vn 0.0328 0.7378 0.6742
vn 0.1534 0.7040 0.6935
vn -0.0843 0.6831 0.7255
vn -0.0171 0.6413 0.7671
vn 0.1170 0.8080 -0.5774
vn -0.5313 0.6711 -0.5170
vn -0.3297 0.1777 -0.9272
vn -0.0331 0.9977 -0.0600
vn -0.0297 0.9937 -0.1083
vn -0.6403 0.6989 -0.3188
vn -0.0479 0.9988 0.0123
vn -0.9154 0.3804 0.1314
vn -0.0592 0.9982 -0.0087
vn -0.0267 0.9979 -0.0591
vn -0.9688 0.0038 -0.2480
vn -0.9111 0.0001 -0.4121
vn -0.7916 -0.0049 -0.6110
vn -0.7187 0.0001 -0.6953
vn -0.1019 0.9933 0.0542
vn -0.2147 0.9560 0.2001
vn -0.2106 0.9727 0.0980
vn -0.4130 0.8099 -0.4164
vn -0.0475 0.9986 -0.0240
vn -0.0426 0.9971 -0.0628
vn -0.1241 0.9922 -0.0106
vn 0.0456 0.8231 -0.5661
vn -0.2727 0.7058 -0.6538
vn 0.0915 0.9955 -0.0225
vn 0.0134 0.9993 -0.0351
vn -0.3255 0.9114 -0.2518
vn -0.6128 0.6462 -0.4548
vn -0.0791 0.7173 -0.6923
vn -0.0071 0.9949 -0.1007
vn 0.0618 0.7606 -0.6463
vn 0.0378 0.9990 0.0237
vn 0.0320 0.9940 0.1044
vn -0.6803 0.6470 -0.3443
vn -0.4203 0.7395 -0.5259
vn -0.1111 0.8460 -0.5215
vn 0.0198 0.9966 0.0795
vn -0.0000 0.9981 0.0613
vn -0.0156 0.9978 0.0642
vn 0.0545 0.9985 0.0055
vn -0.8486 0.2294 -0.4767
vn -0.0908 0.8888 -0.4493
vn -0.0000 1.0000 0.0000
vn 0.0167 0.9997 -0.0167
vn -0.2875 0.9060 -0.3107
vn -0.0000 0.9005 0.4348
vn -0.0003 0.9999 -0.0136
vn 0.0996 0.7332 -0.6727
vn -0.4975 0.5909 -0.6351
vn -0.2681 0.9205 0.2842
vn -0.6405 0.5671 0.5178
vn -0.8051 0.0894 0.5863
vn -0.6791 0.0950 0.7279
vn -0.2418 0.9702 -0.0144
vn -0.0721 0.5627 0.8235
vn -0.8325 0.5523 0.0434
vn -0.1864 0.9825 -0.0011
vn -0.5718 0.8109 -0.1245
vn -0.5676 0.8233 0.0000
vn -0.6157 0.7850 0.0688
vn -0.6099 0.4709 0.6374
vn -0.7581 0.6521 0.0108
vn -0.8094 0.5856 -0.0443
vn -0.1754 0.9826 0.0609
vn -0.9969 0.0768 -0.0169
vn -0.9999 0.0064 0.0114
vn -1.0000 0.0000 0.0000
vn -0.9953 0.0347 0.0903
vn -0.9999 0.0050 0.0103
vn -0.9964 0.0750 0.0401
vn -0.9998 -0.0039 0.0169
vn -0.9684 0.0904 0.2325
vn -0.9740 0.2062 0.0936
vn -0.9958 0.0817 0.0411
vn -0.9756 0.2075 -0.0711
vn -0.9937 0.1080 -0.0291
vn -0.9999 -0.0020 0.0143
vn -0.9998 0.0053 0.0181
vn -0.7104 0.6989 0.0829
vn 0.8211 -0.0509 -0.5685
vn 0.9510 -0.1614 0.2636
vn 0.1198 0.7247 0.6786
vn 0.8560 -0.1773 0.4856
vn -0.3640 -0.1488 0.9194
vn 0.0000 0.2775 -0.9607
vn -0.8266 0.3644 -0.4289
vn -0.7204 0.3122 0.6194
vn -0.7469 0.1869 0.6382
vn 0.0000 0.7071 0.7071
vn 0.0000 0.7071 -0.7071
vn -0.7071 -0.7071 -0.0000
vn 0.0000 -0.8036 -0.5952
vn -0.8682 -0.3988 -0.2954
vn 0.0000 -1.0000 -0.0000
vn -0.6669 -0.5972 0.4457
vn 0.0000 -0.8014 0.5981
vn 0.0000 -0.1438 0.9896
vn 0.0562 -0.8129 -0.5797
vn 0.2219 -0.9751 -0.0000
vn 0.3761 -0.7040 -0.6024
vn 0.0438 -0.8062 0.5900
vn 0.2769 -0.8527 0.4430
vn -0.2910 -0.1347 0.9472
vn 0.1364 0.7445 -0.6535
vn 0.8554 0.2506 -0.4533
vn 0.3781 -0.9088 0.1762
vn 0.2569 -0.8506 0.4588
vn 0.3768 -0.9122 -0.1608
vn 0.4901 -0.4871 -0.7229
vn -0.9722 0.2341 0.0000
vn -0.7418 -0.0988 -0.6633
vn 0.0000 -0.1473 -0.9891
vn 0.0112 -0.1740 -0.9847
vn -0.2751 -0.1387 -0.9514
vn 0.8621 -0.1246 -0.4911
vn 0.9988 -0.0499 0.0000
vn 0.2879 0.1199 -0.9501
vn -0.7334 0.3142 -0.6028
vn -0.2010 0.5722 -0.7951
vn -0.1770 0.9842 0.0000
vn 0.0148 0.9978 -0.0646
vn 0.0618 0.7648 -0.6413
vn -0.9654 0.0856 0.2463
vn -0.9755 0.1977 0.0967
vn -0.9751 0.2103 -0.0702
vn 0.9989 -0.0468 0.0000
usemtl Material__25.085
s 1
f 1/1/1 2/2/2 3/3/3
f 2/4/2 4/5/4 5/6/5
f 6/7/6 7/8/7 8/9/8
f 6/10/6 9/11/9 10/12/10
f 10/13/10 11/14/11 7/15/7
f 9/16/9 12/17/12 10/18/10
f 12/19/12 13/20/13 11/21/11
f 14/22/14 5/23/5 12/24/12
f 15/25/15 2/26/2 14/27/14
f 16/28/16 17/29/17 13/30/13
f 11/31/11 13/30/13 17/29/17
f 17/29/17 18/32/18 11/31/11
f 7/33/7 11/31/11 18/32/18
f 18/32/18 19/34/19 7/33/7
f 8/35/8 7/33/7 19/34/19
f 20/36/20 21/37/21 22/38/22
f 23/39/23 24/40/24 25/41/25
f 24/42/24 26/43/26 25/44/25
f 23/45/23 27/46/27 28/47/28
f 20/36/20 22/48/22 26/49/26
f 27/50/27 25/51/25 29/52/29
f 30/53/30 31/54/31 32/55/32
f 33/56/33 34/57/34 35/58/35
f 31/59/31 36/60/36 37/61/37
f 32/55/32 34/57/34 30/62/30
f 38/63/38 35/64/35 34/65/34
f 39/66/39 34/67/34 33/68/33
f 30/69/30 40/70/40 36/71/36
f 36/72/36 41/73/41 37/74/37
f 40/75/40 42/76/42 36/77/36
f 41/78/41 43/79/43 44/80/44
f 32/81/32 19/82/19 18/83/18
f 32/84/32 17/85/17 38/86/38
f 38/87/38 16/88/16 45/89/45
f 27/90/27 40/91/40 28/92/28
f 28/93/28 39/94/39 23/95/23
f 23/95/23 33/96/33 46/97/46
f 47/98/47 48/99/48 49/100/49
f 50/101/50 51/102/47 47/103/47
f 47/98/47 52/104/51 48/105/48
f 53/106/52 49/107/49 48/105/48
f 54/108/53 55/109/54 53/110/52
f 48/111/48 46/112/46 53/110/52
f 45/113/45 56/114/55 54/115/53
f 57/116/56 55/117/54 56/118/55
f 58/119/57 49/120/49 55/121/54
f 46/122/46 52/123/51 24/124/24
f 52/125/51 20/36/20 24/126/24
f 53/106/52 33/127/33 35/128/35
f 53/106/52 45/129/45 54/130/53
f 59/131/58 60/132/59 61/133/60
f 62/134/61 63/135/62 64/136/63
f 59/137/58 64/138/63 65/139/64
f 4/140/4 65/141/64 66/142/65
f 67/143/66 62/144/61 68/145/67
f 68/146/67 59/147/58 61/133/60
f 67/148/66 69/149/68 62/150/61
f 70/151/69 71/152/70 72/153/71
f 68/154/67 73/155/72 74/156/73
f 74/157/73 75/158/74 76/159/75
f 61/160/60 77/161/76 73/162/72
f 78/163/77 79/164/78 75/165/74
f 70/166/69 80/167/79 81/168/80
f 75/169/74 82/170/81 76/171/75
f 74/172/73 67/173/66 68/174/67
f 71/175/70 67/173/66 72/176/71
f 82/177/81 67/173/66 76/178/75
f 72/179/71 67/173/66 82/180/81
f 83/181/82 67/173/66 71/182/70
f 84/183/83 67/173/66 83/184/82
f 76/185/75 67/173/66 74/186/73
f 82/187/81 70/188/69 72/189/71
f 85/190/84 86/191/85 87/192/84
f 88/193/86 89/194/87 90/195/88
f 91/196/89 92/197/90 63/198/62
f 93/199/91 94/200/92 65/201/64
f 50/202/50 95/203/47 96/204/93
f 47/205/47 97/206/94 95/207/47
f 66/142/65 94/208/92 13/209/13
f 98/210/95 99/211/96 100/212/97
f 101/213/98 102/214/99 103/215/100
f 103/216/100 104/217/101 105/218/101
f 105/219/101 50/220/50 96/221/93
f 94/222/92 58/223/57 57/224/56
f 5/225/5 66/226/65 13/227/13
f 106/228/102 107/229/103 108/230/104
f 107/231/103 109/232/105 110/233/106
f 99/234/96 111/235/98 106/236/102
f 101/237/98 109/238/105 111/239/98
f 112/240/107 88/241/86 90/242/88
f 90/242/88 109/232/105 112/243/107
f 112/240/107 96/244/93 88/193/86
f 109/245/105 105/246/101 112/247/107
f 113/248/47 114/249/47 115/250/47
f 115/251/47 116/252/108 117/253/47
f 116/254/108 95/255/47 97/256/94
f 114/257/47 96/244/93 95/258/47
f 116/254/108 118/259/109 117/253/47
f 119/260/110 110/261/106 120/262/111
f 121/263/112 107/264/103 119/265/110
f 121/263/112 108/266/104 107/267/103
f 121/263/112 122/268/113 108/269/104
f 119/260/110 107/264/103 110/270/106
f 63/271/62 123/272/114 64/136/63
f 65/273/64 123/274/114 93/275/91
f 16/276/16 57/277/56 45/278/45
f 13/209/13 57/279/56 16/280/16
f 124/281/115 97/282/94 49/283/49
f 100/284/97 125/285/116 124/286/115
f 58/287/57 100/288/97 124/289/115
f 123/290/114 100/291/97 93/292/91
f 123/293/114 102/294/99 98/295/95
f 106/228/102 126/296/117 127/297/118
f 126/298/117 116/299/108 127/297/118
f 125/300/116 116/252/108 97/256/94
f 99/234/96 127/301/118 125/302/116
f 128/303/119 122/304/113 129/305/120
f 129/305/120 118/306/109 128/307/119
f 128/308/119 108/309/104 122/310/113
f 118/311/109 126/296/117 128/312/119
f 8/313/8 130/314/121 6/315/6
f 131/316/122 132/317/123 8/318/8
f 130/319/121 132/320/123 133/321/124
f 133/322/124 132/323/123 131/324/122
f 1/1/1 60/325/59 2/2/2
f 2/4/2 60/326/59 4/5/4
f 6/7/6 10/327/10 7/8/7
f 6/10/6 134/328/125 9/11/9
f 10/13/10 12/329/12 11/14/11
f 9/16/9 14/330/14 12/17/12
f 12/19/12 5/6/5 13/20/13
f 14/22/14 2/331/2 5/23/5
f 15/25/15 3/332/3 2/26/2
f 23/39/23 46/97/46 24/40/24
f 24/42/24 20/333/20 26/43/26
f 27/50/27 23/334/23 25/51/25
f 31/59/31 30/335/30 36/60/36
f 32/55/32 38/336/38 34/57/34
f 38/63/38 45/337/45 35/64/35
f 39/66/39 30/338/30 34/67/34
f 30/69/30 39/339/39 40/70/40
f 36/72/36 42/340/42 41/73/41
f 40/75/40 135/341/126 42/76/42
f 41/78/41 42/342/42 43/79/43
f 32/81/32 31/343/31 19/82/19
f 32/84/32 18/344/18 17/85/17
f 38/87/38 17/345/17 16/88/16
f 27/90/27 135/346/126 40/91/40
f 28/93/28 40/347/40 39/94/39
f 23/95/23 39/94/39 33/96/33
f 47/98/47 51/102/47 52/104/51
f 53/106/52 55/348/54 49/107/49
f 54/108/53 56/349/55 55/109/54
f 45/113/45 57/350/56 56/114/55
f 57/116/56 58/351/57 55/117/54
f 58/119/57 124/352/115 49/120/49
f 46/122/46 48/111/48 52/123/51
f 52/125/51 136/353/47 20/36/20
f 53/106/52 46/112/46 33/127/33
f 53/106/52 35/128/35 45/129/45
f 59/131/58 4/354/4 60/132/59
f 62/134/61 69/149/68 63/135/62
f 59/137/58 62/355/61 64/138/63
f 4/140/4 59/131/58 65/141/64
f 68/146/67 62/144/61 59/147/58
f 67/148/66 84/356/83 69/149/68
f 70/151/69 81/357/80 71/152/70
f 68/154/67 61/358/60 73/155/72
f 74/157/73 73/359/72 75/158/74
f 61/160/60 137/360/127 77/161/76
f 78/163/77 138/361/128 79/164/78
f 70/166/69 139/362/129 80/167/79
f 75/169/74 79/363/78 82/170/81
f 82/187/81 79/364/78 70/188/69
f 85/190/84 89/194/87 86/191/85
f 88/193/86 86/191/85 89/194/87
f 50/202/50 47/365/47 95/203/47
f 47/205/47 49/366/49 97/206/94
f 66/142/65 65/367/64 94/208/92
f 98/210/95 101/368/98 99/211/96
f 101/213/98 98/369/95 102/214/99
f 103/216/100 102/370/99 104/217/101
f 105/219/101 104/371/101 50/220/50
f 94/222/92 93/372/91 58/223/57
f 5/225/5 4/373/4 66/226/65
f 106/228/102 111/374/98 107/229/103
f 107/231/103 111/375/98 109/232/105
f 99/234/96 101/376/98 111/235/98
f 101/237/98 103/377/100 109/238/105
f 90/242/88 110/270/106 109/232/105
f 112/240/107 105/378/101 96/244/93
f 109/245/105 103/377/100 105/246/101
f 113/248/47 88/241/86 114/249/47
f 115/251/47 114/379/47 116/252/108
f 116/254/108 114/379/47 95/255/47
f 114/257/47 88/241/86 96/244/93
f 63/271/62 92/380/90 123/272/114
f 65/273/64 64/381/63 123/274/114
f 13/209/13 94/382/92 57/279/56
f 124/281/115 125/383/116 97/282/94
f 100/284/97 99/384/96 125/285/116
f 58/287/57 93/385/91 100/288/97
f 123/290/114 98/386/95 100/291/97
f 123/293/114 92/387/90 102/294/99
f 106/228/102 108/266/104 126/296/117
f 125/300/116 127/388/118 116/252/108
f 99/234/96 106/389/102 127/301/118
f 129/305/120 140/390/130 118/306/109
f 128/308/119 126/391/117 108/309/104
f 118/311/109 116/299/108 126/296/117
f 8/313/8 132/392/123 130/314/121
l 21 143
l 143 144
l 142 141
l 142 86
l 141 89
