# Blender v2.79 (sub 0) OBJ File: ''
# www.blender.org
mtllib hurricos.008.mtl
o hurricos.008_hurricos.114_tex_72.007
v -5.426375 0.815363 -5.105469
v -5.243539 0.519122 -5.341537
v -5.451834 0.519122 -5.128613
v -5.130134 0.519122 -5.461884
v -5.266683 0.222880 -5.362366
v -5.474977 0.222880 -5.149442
v -5.567554 0.519122 -5.010579
v -5.590697 0.222880 -5.031408
v -5.127820 0.815363 -5.413282
v -5.218081 0.815363 -5.320707
v -5.609212 -0.073362 -5.110097
v -5.518951 -0.073362 -5.193416
v -5.310656 -0.073362 -5.408654
v -5.127820 0.222880 -5.508173
v -5.134763 -0.073362 -5.589176
v -5.912397 1.111605 -4.846257
v -5.715674 0.815363 -4.795341
v -5.912397 0.815363 -4.846257
v -6.278071 1.407847 -4.714336
v -6.127635 1.111605 -4.836999
v -6.322044 1.111605 -4.793026
v -6.092920 1.407847 -4.755996
v -5.889254 1.407847 -4.765253
v -5.715674 1.111605 -4.795341
v -5.715674 0.667242 -4.795341
v -5.912397 0.667242 -4.846257
v -6.127635 0.815363 -4.836999
v -6.322044 0.815363 -4.793026
v -6.127635 0.667242 -4.836999
v -6.322044 0.667242 -4.793026
v -6.187810 0.667242 -5.059181
v -6.477108 0.667242 -4.948090
v -5.891568 0.667242 -5.075382
v -5.555982 0.667242 -4.999007
v -5.896196 0.667242 -5.121669
v -6.192439 0.667242 -5.103154
v -5.896196 0.519122 -5.133241
v -5.893882 0.222880 -5.100840
v -5.898511 0.222880 -5.144813
v -5.891568 0.519122 -5.086954
v -6.194753 0.519122 -5.117041
v -6.194753 0.222880 -5.128613
v -6.190124 0.222880 -5.082325
v -6.190124 0.519122 -5.070753
v -6.465536 0.519122 -4.959662
v -6.440078 0.222880 -4.987435
v -6.440078 -0.073362 -5.061495
v -6.224840 -0.073362 -5.149442
v -6.229469 -0.073362 -5.195730
v -5.882310 -0.073362 -5.211931
v -5.877682 -0.073362 -5.167957
v -5.465720 0.815363 -4.626390
v -5.215766 0.815363 -4.894859
v -7.301031 0.519122 -4.677307
v -7.097364 0.519122 -4.892545
v -7.192255 0.667242 -4.793026
v -6.988588 0.667242 -4.999007
v -6.893699 0.519122 -5.107783
v -6.708548 0.667242 -4.922632
v -6.708548 0.519122 -4.922632
v -6.490994 0.519122 -4.725909
v -6.632173 0.667242 -4.649534
v -6.988588 0.815363 -4.999007
v -7.194569 0.815363 -4.793026
v -6.706233 0.815363 -4.920318
v -6.632173 0.815363 -4.649534
v -6.893699 0.222880 -5.107783
v -7.097364 0.222880 -4.892545
v -6.703918 0.222880 -4.924946
v -6.490994 0.222880 -4.725909
v -7.301031 0.222880 -4.677307
v -6.907585 0.222880 -4.709708
v -7.111251 0.222880 -4.494470
v -6.694661 0.222880 -4.510671
v -6.488680 0.815363 -4.934204
v -7.266315 0.815363 -4.894859
v -7.129766 0.815363 -5.167957
v -7.331118 0.815363 -4.957348
v -7.393606 0.222880 -5.015207
v -7.157539 0.519122 -5.195730
v -7.189940 0.222880 -5.228131
v -7.361205 0.519122 -4.982806
v -7.125137 0.222880 -5.165643
v -7.092736 0.519122 -5.133241
v -7.326489 0.222880 -4.952719
v -7.294087 0.519122 -4.920318
v -6.891384 0.519122 -5.336907
v -6.884441 0.815363 -5.283677
v -6.699290 0.519122 -5.165643
v -7.525527 0.519122 -4.668049
v -6.671517 0.222880 -5.193416
v -6.720119 0.815363 -5.140184
v -7.474610 0.815363 -4.663420
v -7.317232 0.815363 -4.512985
v -7.062649 0.815363 -5.107783
v -6.625229 0.815363 -4.651848
v -7.581072 0.222880 -4.670363
v -7.407493 -0.073362 -4.961977
v -7.662076 -0.073362 -4.679621
v -7.472296 -0.073362 -5.024465
v -7.196883 -0.073362 -5.306820
v -7.129766 -0.073362 -5.246646
v -6.896013 0.222880 -5.397082
v -6.902956 -0.073362 -5.475771
v -6.634487 -0.073362 -5.228131
v -6.736320 0.852394 -4.904117
v -6.706233 0.815363 -4.934204
v -6.775664 0.889424 -4.688879
v -6.815009 0.889424 -4.823113
v -6.993217 0.815363 -5.005950
v -6.981645 0.852394 -4.966605
v -6.951558 0.889424 -4.857829
v -7.159853 0.852394 -4.783769
v -7.199198 0.815363 -4.793026
v -7.048762 0.889424 -4.755996
v -6.870554 0.889424 -4.589360
v -7.009418 0.889424 -4.621761
v -6.842782 0.792220 -4.793026
v -7.009418 0.792220 -4.746738
v -6.939986 0.792220 -4.818484
v -6.713176 0.815363 -4.672678
v -6.771036 0.815363 -4.869401
v -6.970073 0.815363 -4.920318
v -7.111251 0.815363 -4.772197
v -5.704103 1.407847 -4.716651
v -7.113565 0.815363 -4.515299
v -6.666888 0.852394 -4.661106
v -6.981645 0.792220 -4.649534
v -6.815009 0.792220 -4.698136
vt 0.625000 0.750000
vt 0.687500 0.875000
vt 0.687500 0.750000
vt 0.625000 0.750000
vt 0.687500 0.875000
vt 0.687500 0.750000
vt 0.625000 0.750000
vt 0.687500 0.750000
vt 0.625000 0.750000
vt 0.687500 0.875000
vt 0.687500 0.750000
vt 0.625000 0.750000
vt 0.687500 0.750000
vt 0.625000 0.750000
vt 0.687500 0.750000
vt 0.625000 0.750000
vt 0.687500 0.750000
vt 0.625000 0.750000
vt 0.687500 0.875000
vt 0.687500 0.750000
vt 0.125000 0.750000
vt 0.187500 0.625000
vt 0.125000 0.625000
vt 0.062500 0.750000
vt 0.125000 0.625000
vt 0.062500 0.625000
vt 0.312500 0.750000
vt 0.375000 0.625000
vt 0.312500 0.625000
vt 0.062500 0.750000
vt 0.125000 0.625000
vt 0.062500 0.625000
vt 0.625000 0.875000
vt 0.687500 0.750000
vt 0.625000 0.750000
vt 0.125000 0.750000
vt 0.187500 0.625000
vt 0.125000 0.625000
vt 0.187500 0.750000
vt 0.250000 0.625000
vt 0.625000 0.875000
vt 0.687500 0.750000
vt 0.625000 0.750000
vt 0.625000 0.875000
vt 0.687500 0.750000
vt 0.625000 0.750000
vt 0.687500 0.875000
vt 0.625000 1.000000
vt 0.625000 0.875000
vt 0.687500 0.875000
vt 0.625000 1.000000
vt 0.625000 0.875000
vt 0.625000 0.875000
vt 0.687500 1.000000
vt 0.625000 1.000000
vt 0.375000 0.750000
vt 0.437500 0.625000
vt 0.375000 0.625000
vt 0.375000 0.750000
vt 0.437500 0.625000
vt 0.375000 0.625000
vt 0.312500 0.750000
vt 0.375000 0.625000
vt 0.312500 0.625000
vt 0.250000 0.750000
vt 0.312500 0.625000
vt 0.250000 0.625000
vt 0.312500 0.750000
vt 0.375000 0.625000
vt 0.312500 0.625000
vt 0.375000 0.625000
vt 0.437500 0.750000
vt 0.437500 0.625000
vt 0.312500 0.625000
vt 0.375000 0.750000
vt 0.375000 0.625000
vt 0.312500 0.625000
vt 0.375000 0.625000
vt 0.312500 0.750000
vt 0.375000 0.625000
vt 0.312500 0.625000
vt 0.125000 0.625000
vt 0.187500 0.750000
vt 0.187500 0.625000
vt 0.125000 0.750000
vt 0.187500 0.625000
vt 0.125000 0.625000
vt 0.625000 0.750000
vt 0.687500 0.875000
vt 0.687500 0.750000
vt 0.375000 0.625000
vt 0.437500 0.750000
vt 0.437500 0.625000
vt 0.375000 0.750000
vt 0.437500 0.625000
vt 0.375000 0.625000
vt 0.375000 0.750000
vt 0.437500 0.625000
vt 0.375000 0.625000
vt 0.625000 0.875000
vt 0.687500 0.750000
vt 0.625000 0.750000
vt 0.625000 0.750000
vt 0.687500 0.875000
vt 0.687500 0.750000
vt 0.625000 0.875000
vt 0.687500 0.750000
vt 0.625000 0.750000
vt 0.687500 0.875000
vt 0.625000 1.000000
vt 0.625000 0.875000
vt 0.375000 0.625000
vt 0.312500 0.625000
vt 0.375000 0.750000
vt 0.312500 0.750000
vt 0.375000 0.625000
vt 0.312500 0.625000
vt 0.375000 0.750000
vt 0.125000 0.750000
vt 0.125000 0.625000
vt 0.062500 0.750000
vt 0.125000 0.750000
vt 0.062500 0.625000
vt 0.125000 0.625000
vt 0.375000 0.625000
vt 0.312500 0.625000
vt 0.375000 0.750000
vt 0.375000 0.625000
vt 0.312500 0.750000
vt 0.125000 0.750000
vt 0.187500 0.625000
vt 0.125000 0.625000
vt 0.187500 0.625000
vt 0.125000 0.750000
vt 0.125000 0.625000
vt 0.250000 0.625000
vt 0.187500 0.750000
vt 0.312500 0.875000
vt 0.250000 1.000000
vt 0.250000 0.875000
vt 0.562500 1.000000
vt 0.625000 0.875000
vt 0.562500 0.875000
vt 0.187500 0.750000
vt 0.250000 0.625000
vt 0.187500 0.625000
vt 0.187500 1.000000
vt 0.187500 0.875000
vt 0.687500 0.875000
vt 0.625000 1.000000
vt 0.625000 0.875000
vt 0.687500 0.875000
vt 0.625000 1.000000
vt 0.625000 0.875000
vt 0.625000 0.875000
vt 0.687500 1.000000
vt 0.625000 1.000000
vt 0.625000 0.875000
vt 0.687500 0.750000
vt 0.625000 0.750000
vt 0.375000 0.750000
vt 0.437500 0.625000
vt 0.375000 0.625000
vt 0.375000 0.625000
vt 0.437500 0.750000
vt 0.437500 0.625000
vt 0.250000 0.750000
vt 0.312500 0.625000
vt 0.250000 0.625000
vt 0.375000 0.750000
vt 0.437500 0.625000
vt 0.375000 0.625000
vt 0.312500 0.750000
vt 0.375000 0.625000
vt 0.375000 0.625000
vt 0.437500 0.750000
vt 0.437500 0.625000
vt 0.312500 0.625000
vt 0.375000 0.750000
vt 0.375000 0.625000
vt 0.625000 0.750000
vt 0.687500 0.875000
vt 0.687500 0.750000
vt 0.625000 0.875000
vt 0.687500 0.750000
vt 0.625000 0.875000
vt 0.687500 0.750000
vt 0.625000 0.750000
vt 0.625000 0.875000
vt 0.687500 0.750000
vt 0.625000 0.750000
vt 0.625000 0.875000
vt 0.687500 0.875000
vt 0.625000 0.750000
vt 0.687500 0.875000
vt 0.625000 0.750000
vt 0.687500 0.875000
vt 0.625000 0.875000
vt 0.687500 0.750000
vt 0.625000 0.750000
vt 0.687500 0.875000
vt 0.687500 0.750000
vt 0.625000 0.750000
vt 0.687500 0.875000
vt 0.625000 0.875000
vt 0.625000 0.750000
vt 0.687500 0.875000
vt 0.625000 0.875000
vt 0.625000 0.750000
vt 0.687500 0.875000
vt 0.625000 0.750000
vt 0.625000 0.875000
vt 0.687500 0.750000
vt 0.687500 0.750000
vt 0.625000 0.875000
vt 0.687500 0.750000
vt 0.625000 0.750000
vt 0.625000 0.875000
vt 0.687500 0.750000
vt 0.625000 0.750000
vt 0.375000 0.625000
vt 0.437500 0.750000
vt 0.437500 0.625000
vt 0.375000 0.625000
vt 0.437500 0.750000
vt 0.437500 0.625000
vt 0.375000 0.750000
vt 0.437500 0.625000
vt 0.375000 0.625000
vt 0.625000 0.750000
vt 0.687500 0.875000
vt 0.687500 0.750000
vt 0.625000 0.875000
vt 0.687500 0.750000
vt 0.625000 0.750000
vt 0.687500 0.750000
vt 0.625000 0.750000
vt 0.312500 0.750000
vt 0.375000 0.875000
vt 0.375000 0.750000
vt 0.312500 0.875000
vt 0.375000 0.750000
vt 0.312500 0.750000
vt 0.312500 0.875000
vt 0.375000 0.750000
vt 0.312500 0.750000
vt 0.312500 0.875000
vt 0.375000 0.750000
vt 0.312500 0.750000
vt 0.312500 0.750000
vt 0.375000 0.875000
vt 0.375000 0.750000
vt 0.312500 0.875000
vt 0.375000 0.750000
vt 0.312500 0.750000
vt 0.312500 0.875000
vt 0.375000 0.750000
vt 0.312500 0.750000
vt 0.375000 0.875000
vt 0.375000 0.750000
vt 0.312500 0.750000
vt 0.375000 0.875000
vt 0.375000 0.750000
vt 0.312500 0.875000
vt 0.375000 0.750000
vt 0.312500 0.750000
vt 0.312500 0.875000
vt 0.375000 0.750000
vt 0.312500 0.750000
vt 0.312500 0.875000
vt 0.312500 0.750000
vt 0.312500 0.750000
vt 0.375000 0.875000
vt 0.375000 0.750000
vt 0.312500 0.750000
vt 0.375000 0.875000
vt 0.375000 0.750000
vt 0.312500 0.750000
vt 0.375000 0.875000
vt 0.375000 0.750000
vt 0.625000 0.875000
vt 0.625000 0.875000
vt 0.625000 0.875000
vt 0.625000 0.875000
vt 0.625000 0.875000
vt 0.625000 0.875000
vt 0.625000 0.875000
vt 0.625000 0.875000
vt 0.187500 0.750000
vt 0.125000 0.750000
vt 0.375000 0.750000
vt 0.125000 0.750000
vt 0.687500 0.875000
vt 0.250000 0.750000
vt 0.687500 0.875000
vt 0.687500 0.875000
vt 0.687500 1.000000
vt 0.687500 1.000000
vt 0.687500 0.875000
vt 0.437500 0.750000
vt 0.437500 0.750000
vt 0.375000 0.750000
vt 0.312500 0.750000
vt 0.375000 0.750000
vt 0.375000 0.750000
vt 0.312500 0.750000
vt 0.312500 0.750000
vt 0.375000 0.750000
vt 0.125000 0.750000
vt 0.187500 0.750000
vt 0.625000 0.875000
vt 0.375000 0.750000
vt 0.437500 0.750000
vt 0.437500 0.750000
vt 0.687500 0.875000
vt 0.625000 0.875000
vt 0.687500 1.000000
vt 0.187500 0.750000
vt 0.250000 0.750000
vt 0.312500 1.000000
vt 0.625000 1.000000
vt 0.250000 0.750000
vt 0.687500 1.000000
vt 0.687500 1.000000
vt 0.687500 0.875000
vt 0.687500 0.875000
vt 0.437500 0.750000
vt 0.375000 0.750000
vt 0.437500 0.750000
vt 0.375000 0.750000
vt 0.375000 0.750000
vt 0.312500 0.750000
vt 0.687500 0.875000
vt 0.687500 0.875000
vt 0.625000 0.875000
vt 0.687500 0.750000
vt 0.687500 0.875000
vt 0.687500 0.875000
vt 0.687500 0.875000
vt 0.375000 0.750000
vt 0.375000 0.750000
vt 0.437500 0.750000
vt 0.625000 0.875000
vt 0.687500 0.875000
vt 0.312500 0.875000
vt 0.375000 0.875000
vt 0.375000 0.875000
vt 0.375000 0.875000
vt 0.312500 0.875000
vt 0.375000 0.875000
vt 0.375000 0.875000
vt 0.312500 0.875000
vt 0.375000 0.875000
vt 0.375000 0.875000
vt 0.375000 0.875000
vt 0.312500 0.875000
vt 0.312500 0.875000
vt 0.312500 0.875000
vn -0.6121 0.5237 -0.5925
vn -0.7167 0.1093 -0.6887
vn -0.7097 0.1092 -0.6960
vn -0.7227 0.1099 -0.6824
vn -0.7114 0.1565 -0.6852
vn -0.7033 0.1588 -0.6929
vn -0.2776 0.0941 -0.9561
vn -0.2654 0.1706 -0.9489
vn -0.7152 0.1123 -0.6899
vn -0.7129 0.1100 -0.6925
vn -0.2629 0.2497 -0.9320
vn -0.6827 0.2067 -0.7009
vn -0.7031 0.2082 -0.6799
vn -0.7130 0.1595 -0.6827
vn -0.7013 0.2033 -0.6833
vn 0.0994 0.1278 -0.9868
vn -0.0971 0.3445 -0.9338
vn 0.1049 0.0000 -0.9945
vn -0.2111 0.2805 -0.9364
vn -0.1330 0.1380 -0.9815
vn -0.2185 0.1377 -0.9661
vn -0.1232 0.2746 -0.9536
vn 0.1111 0.2548 -0.9606
vn 0.2492 0.1240 -0.9605
vn -0.2559 0.6021 -0.7563
vn 0.0704 0.7419 -0.6668
vn -0.1323 0.0000 -0.9912
vn 0.0729 0.2574 -0.9636
vn -0.0907 0.7278 -0.6797
vn 0.1984 0.6205 -0.7587
vn -0.3988 0.8814 -0.2532
vn 0.4582 0.3061 -0.8345
vn 0.3576 0.8745 -0.3276
vn -0.5266 0.3012 -0.7950
vn 0.5316 0.6009 -0.5969
vn -0.6238 0.6008 -0.4999
vn 0.6463 0.0439 -0.7618
vn 0.7346 0.1078 -0.6699
vn 0.6595 0.1166 -0.7426
vn 0.7537 0.0391 -0.6560
vn -0.7546 0.0492 -0.6543
vn -0.7650 0.1310 -0.6306
vn -0.8388 0.1123 -0.5328
vn -0.8568 0.0395 -0.5141
vn 0.1707 0.1018 -0.9801
vn 0.1578 0.1658 -0.9734
vn 0.1803 0.2397 -0.9540
vn -0.8656 0.2049 -0.4568
vn -0.7121 0.2335 -0.6621
vn 0.6055 0.2099 -0.7676
vn 0.7658 0.1816 -0.6169
vn 0.0000 1.0000 0.0000
vn 0.7264 0.0011 0.6873
vn 0.7226 -0.0085 0.6912
vn 0.7161 0.0010 0.6980
vn 0.3788 -0.1603 0.9115
vn 0.0039 -0.1986 0.9801
vn -0.6846 -0.1679 0.7094
vn -0.6876 -0.0060 0.7261
vn -0.7422 -0.2725 0.6122
vn -0.8946 -0.3719 0.2478
vn 0.1399 0.8400 0.5243
vn 0.2447 0.9382 0.2447
vn -0.3925 0.8345 0.3868
vn -0.9646 0.0000 0.2638
vn 0.0154 0.5751 0.8179
vn 0.5136 0.7071 0.4860
vn -0.4864 0.7045 0.5168
vn -0.4838 0.7057 0.5176
vn 0.5121 0.7091 0.4846
vn 0.4512 0.7436 -0.4934
vn -0.4049 0.9143 -0.0007
vn 0.0057 0.6110 -0.7916
vn -0.7895 0.6117 0.0505
vn -0.9814 0.1915 0.0168
vn -0.0116 0.1023 -0.9947
vn -0.0352 0.1984 -0.9795
vn -0.9941 0.1006 0.0392
vn 0.0142 0.1784 -0.9839
vn -0.0087 0.1031 -0.9946
vn -0.9828 0.1733 0.0636
vn -0.9941 0.1007 0.0393
vn -0.0302 0.1879 -0.9817
vn -0.0173 0.6452 -0.7638
vn 0.6576 0.1218 -0.7435
vn -0.7312 0.1419 -0.6672
vn 0.6579 0.1522 -0.7376
vn 0.4405 0.7446 -0.5015
vn -0.4982 0.7393 -0.4530
vn -0.0266 0.9114 -0.4108
vn 0.5462 0.8230 -0.1561
vn -0.7300 0.1842 -0.6582
vn -0.9643 0.2588 0.0559
vn -0.7247 0.2186 -0.6534
vn -0.9674 0.2534 0.0040
vn -0.0375 0.2574 -0.9656
vn -0.0212 0.2583 -0.9658
vn -0.0219 0.2297 -0.9730
vn -0.0281 0.2572 -0.9659
vn 0.6532 0.1702 -0.7378
vn 0.3738 0.8414 -0.3904
vn 0.6691 -0.2801 -0.6883
vn 0.1731 0.9837 -0.0497
vn 0.1438 0.9782 -0.1496
vn -0.2620 -0.2871 -0.9214
vn -0.1470 0.8355 -0.5294
vn -0.0572 0.9781 -0.2000
vn -0.4384 0.7925 -0.4240
vn -0.6955 -0.2523 -0.6728
vn -0.1271 0.9844 -0.1213
vn 0.1211 -0.9851 -0.1224
vn -0.0889 -0.9924 -0.0851
vn -0.0377 -0.9898 -0.1371
vn 0.0803 -0.9965 -0.0236
vn 0.0506 -0.9973 -0.0527
vn -0.0197 -0.9975 -0.0685
vn -0.0604 -0.9965 -0.0576
vn 0.2465 0.2398 -0.9390
vn 0.5683 0.8066 -0.1624
vn 0.0000 -1.0000 0.0000
vn 0.2376 -0.9689 -0.0695
usemtl Material__25.125
s 1
f 1/1/1 2/2/2 3/3/3
f 4/4/4 5/5/5 2/6/2
f 3/7/3 5/5/5 6/8/6
f 7/9/7 6/10/6 8/11/8
f 9/12/9 2/2/2 10/13/10
f 11/14/11 6/10/6 12/15/12
f 12/16/12 5/5/5 13/17/13
f 13/18/13 14/19/14 15/20/15
f 16/21/16 17/22/17 18/23/18
f 19/24/19 20/25/20 21/26/21
f 22/27/22 16/28/16 20/29/20
f 23/30/23 24/31/24 16/32/16
f 18/33/18 25/34/25 26/35/26
f 21/36/21 27/37/27 28/38/28
f 20/39/20 18/40/18 27/37/27
f 28/41/28 29/42/29 30/43/30
f 27/44/27 26/45/26 29/46/29
f 30/47/30 31/48/31 32/49/32
f 29/50/29 33/51/33 31/52/31
f 33/53/33 25/54/25 34/55/34
f 31/56/31 35/57/35 36/58/36
f 37/59/37 38/60/38 39/61/39
f 35/62/35 40/63/40 37/64/37
f 41/65/41 39/66/39 42/67/42
f 36/68/36 37/69/37 41/70/41
f 43/71/43 41/72/41 42/73/42
f 44/74/44 36/75/36 41/76/41
f 45/77/45 31/56/31 44/78/44
f 33/79/33 7/80/7 40/81/40
f 46/82/46 44/83/44 43/84/43
f 40/85/40 8/86/8 38/87/38
f 47/88/47 43/89/43 48/90/48
f 48/91/48 42/92/42 49/93/49
f 42/94/42 50/95/50 49/96/49
f 39/97/39 51/98/51 50/99/50
f 38/100/38 11/101/11 51/102/51
f 34/103/34 3/104/3 7/105/7
f 17/106/17 34/107/34 25/108/25
f 1/109/1 52/110/52 53/111/52
f 54/112/53 55/113/54 56/114/55
f 57/115/56 56/114/55 55/113/54
f 55/116/54 58/117/57 57/118/56
f 57/119/56 58/120/57 59/121/58
f 59/122/58 58/123/57 60/124/59
f 60/125/59 61/126/60 59/127/58
f 59/127/58 61/128/60 62/129/61
f 56/130/55 63/131/62 64/132/63
f 65/133/64 62/134/61 66/135/65
f 63/136/62 59/137/58 65/133/64
f 67/138/66 55/139/54 68/140/67
f 60/141/59 67/142/66 69/143/68
f 61/144/60 69/145/68 70/146/69
f 68/140/67 54/147/53 71/148/70
f 72/149/52 71/150/70 73/151/52
f 69/152/68 68/153/67 72/154/52
f 74/155/52 69/156/68 72/157/52
f 75/158/71 30/159/30 32/160/32
f 76/161/72 77/162/73 78/163/74
f 79/164/75 80/165/76 81/166/77
f 78/167/74 80/168/76 82/169/78
f 80/170/76 83/171/79 81/172/77
f 77/173/73 84/174/80 80/168/76
f 85/175/81 82/176/78 79/177/75
f 86/178/82 78/179/74 82/180/78
f 87/181/83 83/182/79 84/183/80
f 88/184/84 89/185/85 87/181/83
f 85/186/81 90/187/86 86/188/82
f 91/189/87 87/190/83 89/191/85
f 92/192/88 75/193/71 32/160/32
f 84/194/80 88/195/84 87/190/83
f 45/196/45 91/197/87 89/185/85
f 93/198/89 86/199/82 90/200/86
f 32/160/32 89/201/85 92/202/88
f 93/203/89 94/204/52 76/205/72
f 76/206/72 63/207/62 95/208/90
f 95/209/90 92/210/88 88/184/84
f 75/211/71 92/210/88 65/212/64
f 63/213/62 92/192/88 95/209/90
f 94/214/52 64/215/63 76/206/72
f 96/216/91 75/158/71 65/217/64
f 97/218/92 98/219/93 99/220/94
f 98/221/93 79/222/75 100/223/95
f 100/224/95 81/225/77 101/226/96
f 81/227/77 102/228/97 101/229/96
f 102/230/97 103/231/98 104/232/99
f 103/233/98 105/234/100 104/235/99
f 91/189/87 47/236/47 105/237/100
f 106/238/101 96/239/91 107/240/102
f 108/241/103 106/242/101 109/243/104
f 106/244/101 110/245/105 111/246/106
f 109/247/104 111/248/106 112/249/107
f 113/250/108 110/251/105 114/252/109
f 112/253/107 113/254/108 115/255/110
f 116/256/52 109/257/104 117/258/52
f 109/243/104 115/259/110 117/260/52
f 118/261/111 119/262/112 120/263/113
f 121/264/114 118/265/111 122/266/115
f 123/267/116 119/268/112 124/269/117
f 122/270/115 120/263/113 123/271/116
f 110/272/105 122/273/115 123/274/116
f 107/275/102 121/276/114 122/277/115
f 114/278/109 123/279/116 124/280/117
f 1/1/1 10/281/10 2/2/2
f 4/4/4 14/282/14 5/5/5
f 3/7/3 2/283/2 5/5/5
f 7/9/7 3/284/3 6/10/6
f 9/12/9 4/285/4 2/2/2
f 11/14/11 8/286/8 6/10/6
f 12/16/12 6/287/6 5/5/5
f 13/18/13 5/288/5 14/19/14
f 16/21/16 24/289/24 17/22/17
f 19/24/19 22/290/22 20/25/20
f 22/27/22 23/291/23 16/28/16
f 23/30/23 125/292/118 24/31/24
f 18/33/18 17/293/17 25/34/25
f 21/36/21 20/39/20 27/37/27
f 20/39/20 16/294/16 18/40/18
f 28/41/28 27/295/27 29/42/29
f 27/44/27 18/296/18 26/45/26
f 30/47/30 29/297/29 31/48/31
f 29/50/29 26/298/26 33/51/33
f 33/53/33 26/299/26 25/54/25
f 31/56/31 33/300/33 35/57/35
f 37/59/37 40/301/40 38/60/38
f 35/62/35 33/302/33 40/63/40
f 41/65/41 37/303/37 39/66/39
f 36/68/36 35/304/35 37/69/37
f 43/71/43 44/305/44 41/72/41
f 44/74/44 31/306/31 36/75/36
f 45/77/45 32/307/32 31/56/31
f 33/79/33 34/308/34 7/80/7
f 46/82/46 45/309/45 44/83/44
f 40/85/40 7/310/7 8/86/8
f 47/88/47 46/311/46 43/89/43
f 48/91/48 43/312/43 42/92/42
f 42/94/42 39/313/39 50/95/50
f 39/97/39 38/314/38 51/98/51
f 38/100/38 8/315/8 11/101/11
f 34/103/34 1/316/1 3/104/3
f 17/106/17 1/109/1 34/107/34
f 1/109/1 17/317/17 52/110/52
f 56/130/55 57/318/56 63/131/62
f 65/133/64 59/137/58 62/134/61
f 63/136/62 57/319/56 59/137/58
f 67/138/66 58/320/57 55/139/54
f 60/141/59 58/321/57 67/142/66
f 61/144/60 60/322/59 69/145/68
f 68/140/67 55/139/54 54/147/53
f 72/149/52 68/323/67 71/150/70
f 69/152/68 67/324/66 68/153/67
f 74/155/52 70/325/69 69/156/68
f 75/158/71 28/326/28 30/159/30
f 76/161/72 95/327/90 77/162/73
f 79/164/75 82/328/78 80/165/76
f 78/167/74 77/173/73 80/168/76
f 80/170/76 84/329/80 83/171/79
f 77/173/73 95/330/90 84/174/80
f 85/175/81 86/331/82 82/176/78
f 86/178/82 76/332/72 78/179/74
f 87/181/83 103/233/98 83/182/79
f 88/184/84 92/210/88 89/185/85
f 85/186/81 97/333/92 90/187/86
f 91/189/87 103/231/98 87/190/83
f 84/194/80 95/208/90 88/195/84
f 45/196/45 46/311/46 91/197/87
f 93/198/89 76/334/72 86/199/82
f 32/160/32 45/335/45 89/201/85
f 76/206/72 64/336/63 63/207/62
f 63/213/62 65/337/64 92/192/88
f 94/214/52 126/338/52 64/215/63
f 96/216/91 28/326/28 75/158/71
f 97/218/92 85/339/81 98/219/93
f 98/221/93 85/340/81 79/222/75
f 100/224/95 79/341/75 81/225/77
f 81/227/77 83/342/79 102/228/97
f 102/230/97 83/343/79 103/231/98
f 103/233/98 91/197/87 105/234/100
f 91/189/87 46/344/46 47/236/47
f 106/238/101 127/345/119 96/239/91
f 108/241/103 127/346/119 106/242/101
f 106/244/101 107/347/102 110/245/105
f 109/247/104 106/348/101 111/248/106
f 113/250/108 111/349/106 110/251/105
f 112/253/107 111/350/106 113/254/108
f 116/256/52 108/351/103 109/257/104
f 109/243/104 112/253/107 115/259/110
f 118/261/111 128/352/120 119/262/112
f 121/264/114 129/353/121 118/265/111
f 123/267/116 120/354/113 119/268/112
f 122/270/115 118/355/111 120/263/113
f 110/272/105 107/356/102 122/273/115
f 107/275/102 96/357/91 121/276/114
f 114/278/109 110/358/105 123/279/116
