# Blender v2.79 (sub 0) OBJ File: ''
# www.blender.org
mtllib hurricos.127.mtl
o hurricos.127_hurricos.114_tex_72.394
v -5.602269 0.519119 3.119871
v -5.842966 0.519119 3.112928
v -5.602269 0.370999 3.200875
v -5.882310 0.222877 3.182360
v -5.646243 0.222877 3.267992
v -5.912397 -0.073365 3.261048
v -6.111435 0.222878 3.062011
v -6.187810 -0.073365 3.112927
v -5.683273 -0.073365 3.337423
v -5.037558 0.384884 3.846589
v -5.384717 0.370998 3.733184
v -5.273626 0.370998 4.015540
v -5.495808 0.370998 3.455458
v -5.123191 0.384884 3.617465
v -5.225024 0.384884 3.339738
v -5.368516 0.384885 3.092098
v -5.567554 0.222877 3.499431
v -5.616156 -0.073365 3.543404
v -5.463406 0.222877 3.765585
v -5.542095 -0.073365 3.811873
v -5.368516 0.222877 4.052570
v -5.222709 0.370998 4.307153
v -5.296770 0.222877 4.332611
v -5.458777 -0.073365 4.082656
vt 0.437500 0.625000
vt 0.437500 0.500000
vt 0.375000 0.625000
vt 0.187500 0.625000
vt 0.250000 0.500000
vt 0.187500 0.500000
vt 0.062500 0.625000
vt 0.000000 0.750000
vt 0.000000 0.625000
vt 0.062500 0.625000
vt 0.000000 0.750000
vt 0.000000 0.625000
vt 0.437500 0.625000
vt 0.500000 0.500000
vt 0.437500 0.500000
vt 0.437500 0.500000
vt 0.500000 0.625000
vt 0.500000 0.500000
vt 0.500000 0.500000
vt 0.562500 0.625000
vt 0.562500 0.500000
vt 0.000000 0.625000
vt 0.062500 0.750000
vt 0.000000 0.750000
vt 0.000000 0.625000
vt 0.062500 0.750000
vt 0.000000 0.750000
vt 0.000000 0.625000
vt 0.062500 0.750000
vt 0.000000 0.750000
vt 0.187500 0.625000
vt 0.250000 0.500000
vt 0.187500 0.500000
vt 0.250000 0.625000
vt 0.312500 0.500000
vt 0.187500 0.625000
vt 0.250000 0.500000
vt 0.187500 0.500000
vt 0.187500 0.625000
vt 0.250000 0.500000
vt 0.187500 0.500000
vt 0.250000 0.625000
vt 0.062500 0.750000
vt 0.062500 0.750000
vt 0.437500 0.625000
vt 0.500000 0.625000
vt 0.062500 0.625000
vt 0.062500 0.625000
vt 0.062500 0.625000
vt 0.312500 0.625000
vt 0.250000 0.625000
vt 0.250000 0.625000
vn -0.0253 0.4797 0.8771
vn -0.1357 0.3334 0.9330
vn -0.3494 0.6839 0.6405
vn -0.3369 0.2888 0.8962
vn -0.6561 0.3815 0.6512
vn -0.3791 0.2712 0.8847
vn -0.4522 0.2678 0.8508
vn -0.4569 0.2638 0.8495
vn -0.7046 0.2533 0.6628
vn -0.0457 0.9988 0.0175
vn -0.4858 0.8529 0.1913
vn -0.6310 0.7571 0.1692
vn -0.4969 0.8463 0.1921
vn -0.0451 0.9988 0.0171
vn -0.0427 0.9989 0.0199
vn -0.0452 0.9987 0.0223
vn -0.8811 0.3466 0.3219
vn -0.9261 0.2238 0.3038
vn -0.8667 0.3917 0.3089
vn -0.9166 0.2916 0.2734
vn -0.8498 0.4691 0.2404
vn -0.8445 0.4995 0.1931
vn -0.8570 0.4662 0.2196
vn -0.9100 0.3057 0.2800
usemtl Material__25.009
s 1
f 1/1/1 2/2/2 3/3/3
f 3/4/3 4/5/4 5/6/5
f 6/7/6 7/8/7 8/9/8
f 9/10/9 4/11/4 6/12/6
f 10/13/10 11/14/11 12/15/12
f 13/16/13 14/17/14 15/18/15
f 16/19/16 13/20/13 15/21/15
f 9/22/9 17/23/17 5/24/5
f 18/25/18 19/26/19 17/27/17
f 20/28/20 21/29/21 19/30/19
f 22/31/22 21/32/21 23/33/23
f 12/34/12 19/35/19 21/32/21
f 11/36/11 17/37/17 19/38/19
f 13/39/13 5/40/5 17/41/17
f 3/4/3 2/42/2 4/5/4
f 6/7/6 4/43/4 7/8/7
f 9/10/9 5/44/5 4/11/4
f 10/13/10 14/17/14 11/14/11
f 13/16/13 11/45/11 14/17/14
f 16/19/16 3/46/3 13/20/13
f 9/22/9 18/47/18 17/23/17
f 18/25/18 20/48/20 19/26/19
f 20/28/20 24/49/24 21/29/21
f 22/31/22 12/34/12 21/32/21
f 12/34/12 11/50/11 19/35/19
f 11/36/11 13/51/13 17/37/17
f 13/39/13 3/52/3 5/40/5
