# Blender v2.79 (sub 0) OBJ File: ''
# www.blender.org
mtllib hurricos.109.mtl
o hurricos.109_hurricos.114_tex_72.376
v 8.506247 1.176407 -0.263766
v 8.473846 1.144005 -0.210535
v 8.453016 1.134747 -0.240623
v 8.450703 1.167149 -0.222107
vt 0.312500 0.875000
vt 0.375000 0.875000
vt 0.312500 0.750000
vt 0.375000 0.875000
vt 0.312500 0.750000
vt 0.375000 0.875000
vt 0.312500 0.750000
vn 0.6986 0.4114 -0.5854
vn 0.8800 -0.1292 0.4570
vn -0.0264 -0.4594 -0.8878
vn -0.2216 0.9719 -0.0795
usemtl Material__25.024
s 1
f 1/1/1 2/2/2 3/3/3
f 1/1/1 4/4/4 2/5/2
f 1/1/1 3/6/3 4/7/4
