# Blender v2.79 (sub 0) OBJ File: ''
# www.blender.org
mtllib hurricos.018.mtl
o hurricos.018_hurricos.114_tex_72.017
v 7.346739 0.704273 -5.151756
v 7.342110 0.722788 -5.181843
v 7.339796 0.732045 -5.163328
v 7.328224 0.745932 -5.186472
v 7.330538 0.741303 -5.191101
v 7.325909 0.722788 -5.172586
v 7.316652 0.704273 -5.172586
v 7.346739 0.704273 -5.188787
v 7.323595 0.741303 -5.188787
v 7.318966 0.745932 -5.207302
vt 0.625000 0.875000
vt 0.687500 0.750000
vt 0.625000 0.750000
vt 0.625000 0.750000
vt 0.687500 0.875000
vt 0.687500 0.750000
vt 0.625000 0.875000
vt 0.687500 0.750000
vt 0.625000 0.750000
vt 0.687500 0.875000
vt 0.687500 0.750000
vt 0.625000 0.875000
vt 0.625000 0.750000
vt 0.625000 0.750000
vt 0.687500 0.750000
vt 0.625000 0.875000
vt 0.687500 0.875000
vt 0.625000 0.750000
vt 0.687500 0.875000
vt 0.687500 0.875000
vt 0.625000 0.750000
vt 0.687500 0.875000
vt 0.625000 0.875000
vt 0.687500 0.875000
vt 0.625000 0.875000
vn 0.4074 0.4694 0.7834
vn 0.5920 0.2510 -0.7658
vn 0.2942 0.6698 0.6817
vn 0.0726 0.9543 0.2899
vn 0.6940 -0.0932 -0.7139
vn -0.9755 0.2119 0.0591
vn -0.8937 0.4468 -0.0410
vn 0.4683 0.4204 -0.7771
vn -0.9746 -0.2211 0.0344
vn -0.4093 0.1571 -0.8988
usemtl Material__25.116
s 1
f 1/1/1 2/2/2 3/3/3
f 4/4/4 2/5/2 5/6/5
f 4/7/4 6/8/6 3/3/3
f 1/9/1 6/10/6 7/11/7
f 8/12/8 6/8/6 2/13/2
f 5/14/5 6/10/6 9/15/9
f 5/16/5 9/17/9 10/18/10
f 4/7/4 5/19/5 10/18/10
f 4/7/4 10/20/10 9/21/9
f 1/1/1 8/22/8 2/2/2
f 4/4/4 3/23/3 2/5/2
f 4/7/4 9/17/9 6/8/6
f 1/9/1 3/23/3 6/10/6
f 8/12/8 7/24/7 6/8/6
f 5/14/5 2/25/2 6/10/6
