# Blender v2.79 (sub 0) OBJ File: ''
# www.blender.org
mtllib hurricos.119.mtl
o hurricos.119_hurricos.114_tex_72.386
v 3.544197 1.111603 1.701150
v 3.303500 1.430989 1.842328
v 3.291928 1.111603 1.749752
v 3.291928 0.741301 1.749752
v 3.544197 0.741301 1.701150
v 3.303500 0.370999 1.842328
v 3.597428 0.370999 1.789097
v 3.011888 1.144005 1.768267
v 3.011888 0.741301 1.768267
v 3.007258 0.370999 1.860843
v 2.722589 1.486534 1.821499
v 2.738790 1.111603 1.742809
v 2.738790 0.773703 1.742809
v 2.722589 0.370999 1.821498
v 3.002630 -0.073364 1.886301
v 2.715646 -0.073364 1.865472
v 3.861268 -0.073364 1.664120
v 3.627515 -0.073364 1.844642
v 3.303500 -0.073364 1.895559
v 3.597428 1.407845 1.789097
v 3.007258 1.505049 1.860843
v 3.838124 0.370999 1.638662
v 3.838124 1.440246 1.638662
vt 0.312500 0.500000
vt 0.375000 0.625000
vt 0.375000 0.500000
vt 0.000000 1.000000
vt 0.062500 0.875000
vt 0.000000 0.875000
vt 0.750000 0.750000
vt 0.812500 0.625000
vt 0.750000 0.625000
vt 0.437500 0.500000
vt 0.125000 0.625000
vt 0.187500 0.500000
vt 0.125000 0.500000
vt 0.750000 0.750000
vt 0.750000 0.625000
vt 0.500000 0.625000
vt 0.500000 0.500000
vt 0.250000 0.625000
vt 0.312500 0.500000
vt 0.250000 0.500000
vt 0.687500 0.625000
vt 0.687500 0.750000
vt 0.000000 0.625000
vt 0.062500 0.750000
vt 0.062500 0.625000
vt 0.000000 0.625000
vt 0.062500 0.750000
vt 0.062500 0.625000
vt 0.000000 0.750000
vt 0.062500 0.625000
vt 0.000000 0.625000
vt 0.000000 0.625000
vt 0.062500 0.750000
vt 0.062500 0.625000
vt 0.312500 0.625000
vt 0.062500 1.000000
vt 0.812500 0.750000
vt 0.437500 0.625000
vt 0.187500 0.625000
vt 0.312500 0.625000
vt 0.000000 0.750000
vt 0.000000 0.750000
vt 0.062500 0.750000
vt 0.000000 0.750000
vn 0.1788 -0.1527 0.9720
vn 0.0802 -0.2771 0.9575
vn 0.1190 -0.1373 0.9834
vn 0.1269 0.1237 0.9842
vn 0.1853 0.1280 0.9743
vn 0.1201 0.1819 0.9760
vn 0.3079 0.1591 0.9380
vn -0.0254 -0.1333 0.9907
vn -0.0143 0.1197 0.9927
vn -0.0458 0.1598 0.9861
vn -0.0964 -0.2319 0.9679
vn -0.0809 -0.0975 0.9919
vn -0.0817 0.0909 0.9925
vn -0.1105 0.1482 0.9828
vn -0.0634 0.0710 0.9955
vn -0.0720 0.0993 0.9924
vn 0.5786 0.1165 0.8072
vn 0.3935 0.1402 0.9086
vn 0.0832 0.1040 0.9911
vn 0.1463 -0.3056 0.9408
vn -0.0630 -0.2486 0.9665
vn 0.5285 0.0760 0.8455
usemtl Material__25.017
s 1
f 1/1/1 2/2/2 3/3/3
f 4/4/4 1/5/1 3/6/3
f 5/7/5 6/8/6 7/9/7
f 2/2/2 8/10/8 3/3/3
f 3/11/3 9/12/9 4/13/4
f 6/8/6 9/14/9 10/15/10
f 8/10/8 11/16/11 12/17/12
f 8/18/8 13/19/13 9/20/9
f 14/21/14 9/14/9 13/22/13
f 15/23/15 14/24/14 16/25/16
f 17/26/17 7/27/7 18/28/18
f 7/29/7 19/30/19 18/31/18
f 19/32/19 10/33/10 15/34/15
f 1/1/1 20/35/20 2/2/2
f 4/4/4 5/36/5 1/5/1
f 5/7/5 4/37/4 6/8/6
f 2/2/2 21/38/21 8/10/8
f 3/11/3 8/39/8 9/12/9
f 6/8/6 4/37/4 9/14/9
f 8/10/8 21/38/21 11/16/11
f 8/18/8 12/40/12 13/19/13
f 14/21/14 10/15/10 9/14/9
f 15/23/15 10/41/10 14/24/14
f 17/26/17 22/42/22 7/27/7
f 7/29/7 6/43/6 19/30/19
f 19/32/19 6/44/6 10/33/10
l 23 20
