# Blender v2.79 (sub 0) OBJ File: ''
# www.blender.org
mtllib hurricos.096.mtl
o hurricos.096_hurricos.114_tex_72.363
v 8.159088 0.972740 -0.298482
v 8.216949 0.991255 -0.261452
v 8.189177 0.986627 -0.235994
v 8.191490 1.014399 -0.254509
vt 0.312500 0.875000
vt 0.375000 0.875000
vt 0.312500 0.750000
vt 0.375000 0.875000
vt 0.312500 0.750000
vt 0.375000 0.875000
vt 0.312500 0.750000
vn -0.5964 -0.3701 -0.7123
vn 0.5797 -0.4400 -0.6858
vn -0.6062 -0.6631 0.4392
vn -0.5111 0.7796 -0.3619
usemtl Material__25.037
s 1
f 1/1/1 2/2/2 3/3/3
f 1/1/1 4/4/4 2/5/2
f 1/1/1 3/6/3 4/7/4
