# Blender v2.79 (sub 0) OBJ File: ''
# www.blender.org
mtllib hurricos.073.mtl
o hurricos.073_hurricos.114_tex_72.340
v 2.748047 0.519120 -1.096946
v 2.451805 0.519120 -0.763674
v 2.748047 0.519120 -0.647955
v 2.155563 0.519120 -1.059916
v 2.451805 0.519120 -1.059916
v 1.859322 0.519120 -0.763674
v 1.859322 0.519120 -1.059916
v 1.574652 0.519120 -1.041401
v 1.563080 0.519120 -0.782190
v 1.405702 0.519120 -0.997428
v 1.294611 0.519120 -0.840049
v 1.581594 0.519120 -1.293670
v 1.197406 0.519120 -1.386245
v 1.301554 0.519120 -1.219609
v 2.451805 0.519120 -1.356158
v 2.748047 0.519120 -1.356158
v 2.155563 0.519120 -1.356158
v 1.859322 0.519120 -1.335329
v 2.748047 0.519120 -1.652400
v 2.451805 0.519120 -1.652400
v 2.155563 0.519120 -1.652400
v 1.859322 0.519120 -1.652400
v 1.563080 0.519120 -1.636199
v 1.361728 0.519120 -1.613055
v 2.451805 0.519120 -1.948642
v 2.155563 0.519120 -1.948642
v 1.859322 0.519120 -1.948642
v 1.563080 0.542264 -1.948642
v 1.301554 0.519120 -1.948642
v 2.875339 0.519120 -1.127034
v 2.877653 0.519120 -0.560008
v 2.451805 0.519120 -0.467433
v 2.748047 0.519120 -0.467433
v 2.155563 0.519120 -0.467433
v 2.155563 0.542264 -0.763674
v 1.563080 0.519120 -0.458175
v 1.859322 0.519120 -0.467433
v 2.748047 0.519120 -1.948642
v 1.222864 0.519120 -0.395687
v 2.884596 0.741301 -0.564637
v 2.882281 0.741301 -1.117776
vt 0.437500 0.625000
vt 0.500000 0.500000
vt 0.437500 0.500000
vt 0.500000 0.625000
vt 0.562500 0.500000
vt 0.500000 0.500000
vt 0.500000 0.625000
vt 0.562500 0.500000
vt 0.500000 0.500000
vt 0.500000 0.625000
vt 0.562500 0.500000
vt 0.500000 0.500000
vt 0.562500 0.625000
vt 0.562500 0.500000
vt 0.937500 1.000000
vt 1.000000 0.875000
vt 0.937500 0.875000
vt 0.500000 0.625000
vt 0.562500 0.500000
vt 0.500000 0.500000
vt 0.500000 0.625000
vt 0.562500 0.500000
vt 0.500000 0.500000
vt 0.500000 0.625000
vt 0.500000 0.500000
vt 0.500000 0.625000
vt 0.562500 0.500000
vt 0.500000 0.500000
vt 1.000000 1.000000
vt 1.000000 0.875000
vt 0.562500 0.500000
vt 0.500000 0.500000
vt 0.500000 0.625000
vt 0.562500 0.500000
vt 0.500000 0.625000
vt 0.562500 0.500000
vt 0.500000 0.500000
vt 0.500000 0.625000
vt 0.562500 0.500000
vt 0.500000 0.500000
vt 0.562500 0.625000
vt 0.500000 0.500000
vt 0.500000 0.625000
vt 0.562500 0.500000
vt 0.562500 0.500000
vt 0.500000 0.625000
vt 0.500000 0.500000
vt 0.500000 0.500000
vt 0.500000 0.625000
vt 0.562500 0.500000
vt 0.500000 0.625000
vt 0.562500 0.500000
vt 0.500000 0.500000
vt 0.500000 0.500000
vt 0.562500 0.625000
vt 0.562500 0.500000
vt 0.500000 0.500000
vt 0.562500 0.625000
vt 0.562500 0.500000
vt 0.562500 0.625000
vt 0.562500 0.500000
vt 0.562500 0.500000
vt 0.500000 0.500000
vt 0.500000 0.500000
vt 0.562500 0.625000
vt 0.562500 0.500000
vt 0.437500 0.500000
vt 0.500000 0.625000
vt 0.500000 0.625000
vt 0.562500 0.625000
vt 0.562500 0.625000
vt 1.000000 1.000000
vt 0.562500 0.625000
vt 0.562500 0.625000
vt 0.562500 0.625000
vt 0.562500 0.625000
vt 0.937500 1.000000
vt 0.562500 0.625000
vt 0.562500 0.625000
vt 0.562500 0.625000
vt 0.562500 0.625000
vt 0.562500 0.625000
vt 0.562500 0.625000
vt 0.500000 0.625000
vt 0.500000 0.625000
vt 0.500000 0.625000
vt 0.562500 0.625000
vt 0.500000 0.625000
vt 0.437500 0.625000
vn 0.0000 1.0000 0.0000
vn 0.0195 0.9998 0.0000
vn -0.0000 0.9998 -0.0195
vn -0.0195 0.9998 0.0000
vn 0.0103 0.9999 0.0099
vn 0.0033 0.9993 0.0377
vn -0.0141 0.9997 0.0201
vn 0.0390 0.9992 0.0000
vn -0.0070 0.9993 0.0365
vn -0.0881 0.9960 0.0158
vn -0.0000 0.9992 0.0390
usemtl Material__25.062
s 1
f 1/1/1 2/2/2 3/3/1
f 4/4/3 2/5/2 5/6/1
f 6/7/4 4/8/3 7/9/1
f 8/10/1 6/11/4 7/9/1
f 9/12/1 10/13/1 11/14/1
f 12/15/1 13/16/1 14/17/1
f 15/18/1 1/19/1 16/20/1
f 17/21/1 5/22/1 15/23/1
f 18/24/1 4/8/3 17/25/1
f 12/26/1 7/27/1 18/28/1
f 14/17/1 8/29/1 12/30/1
f 15/18/1 19/31/1 20/32/1
f 21/33/1 15/34/1 20/32/1
f 22/35/5 17/36/1 21/37/1
f 23/38/6 18/39/1 22/40/5
f 12/26/1 23/41/6 24/42/7
f 19/43/1 25/44/1 20/32/1
f 26/45/1 20/46/1 25/47/1
f 22/35/5 26/45/1 27/48/8
f 28/49/9 22/50/5 27/48/8
f 24/51/7 28/52/9 29/53/10
f 30/54/1 3/55/1 31/56/1
f 3/57/1 32/58/1 33/59/1
f 2/2/2 34/60/11 32/61/1
f 6/7/4 34/62/11 35/63/1
f 6/64/4 36/65/1 37/66/1
f 11/67/1 36/68/1 9/12/1
f 1/1/1 5/69/1 2/2/2
f 4/4/3 35/70/1 2/5/2
f 6/7/4 35/70/1 4/8/3
f 8/10/1 9/71/1 6/11/4
f 9/12/1 8/10/1 10/13/1
f 12/15/1 24/72/7 13/16/1
f 15/18/1 5/73/1 1/19/1
f 17/21/1 4/74/3 5/22/1
f 18/24/1 7/75/1 4/8/3
f 12/26/1 8/76/1 7/27/1
f 14/17/1 10/77/1 8/29/1
f 15/18/1 16/78/1 19/31/1
f 21/33/1 17/79/1 15/34/1
f 22/35/5 18/80/1 17/36/1
f 23/38/6 12/81/1 18/39/1
f 19/43/1 38/82/1 25/44/1
f 26/45/1 21/83/1 20/46/1
f 22/35/5 21/83/1 26/45/1
f 28/49/9 23/41/6 22/50/5
f 24/51/7 23/41/6 28/52/9
f 30/54/1 1/84/1 3/55/1
f 3/57/1 2/85/2 32/58/1
f 2/2/2 35/86/1 34/60/11
f 6/7/4 37/87/1 34/62/11
f 6/64/4 9/88/1 36/65/1
f 11/67/1 39/89/1 36/68/1
l 30 41
l 31 40
