# Blender v2.79 (sub 0) OBJ File: ''
# www.blender.org
mtllib hurricos.104.mtl
o hurricos.104_hurricos.114_tex_72.371
v 8.381271 1.319898 -0.027699
v 8.383585 1.250467 -0.048528
v 8.355812 1.264353 -0.067043
v 8.353498 1.255096 -0.032328
vt 0.312500 0.875000
vt 0.375000 0.875000
vt 0.312500 0.750000
vt 0.375000 0.875000
vt 0.312500 0.750000
vt 0.375000 0.875000
vt 0.312500 0.750000
vn 0.2475 0.9176 0.3111
vn 0.9961 0.0068 0.0879
vn -0.2702 0.6359 -0.7229
vn -0.4643 0.1365 0.8751
usemtl Material__25.029
s 1
f 1/1/1 2/2/2 3/3/3
f 1/1/1 4/4/4 2/5/2
f 1/1/1 3/6/3 4/7/4
