# Blender v2.79 (sub 0) OBJ File: ''
# www.blender.org
mtllib hurricos.132.mtl
o hurricos.132_hurricos.114_tex_72.399
v -4.053943 0.370998 4.233092
v -4.012284 0.477459 4.517762
v -3.949795 0.370998 4.513134
v -3.998397 0.454315 4.723743
v -3.949795 0.370998 4.767716
v -3.975254 0.417285 4.957496
v -3.931280 0.370998 5.031557
v -4.176606 0.370998 4.867235
v -4.183548 0.440429 4.793174
v -4.347870 0.370998 4.744572
v -4.618654 0.445058 4.695970
v -4.623282 0.370998 4.753830
v -4.803805 0.449687 4.753830
v -4.847778 0.370998 4.825576
v -4.887123 0.370998 4.531649
v -4.820006 0.472831 4.515448
v -4.907952 0.370998 4.233092
v -4.155776 0.509861 4.587194
v -4.639483 0.509861 4.496933
v -4.116431 0.486717 4.256236
v -4.882494 0.477459 4.047941
v -4.850093 0.472831 4.207634
v -4.648741 0.546891 4.156717
v -4.377957 0.495974 4.520076
v -4.350184 0.435800 4.693655
v -4.384901 0.523747 4.179861
v -4.919524 0.370998 5.119503
v -5.021358 0.370998 4.841776
v -4.225208 0.384884 5.179677
v -4.607082 0.370998 5.006098
v -5.125505 0.370998 4.564050
v -4.815377 0.384883 5.397230
v -4.935725 0.370997 5.721244
v -4.681142 0.370997 5.640241
v -4.502934 0.384884 5.283825
v -3.901193 0.370998 5.302340
v -3.641982 0.370998 5.156534
v -3.685955 0.384884 4.938981
v -4.329355 0.370998 4.901951
v -4.296954 0.370997 5.686529
v -4.118746 0.370997 5.501378
v -4.366385 0.370997 5.573123
v -5.197251 0.370998 5.195878
v -4.604767 0.370997 5.721244
v -5.106990 0.370997 5.478234
v -3.570236 0.384884 4.297895
v -3.778531 0.384884 4.684398
v -3.477660 0.384884 4.536277
v -3.614209 0.222877 5.209764
v -3.873421 0.222877 5.355571
v -4.088659 0.222876 5.575438
v -4.266867 0.222876 5.760589
v -4.604767 0.222876 5.774476
v -4.935725 0.222876 5.772161
v -5.273626 -0.073365 5.568494
v -5.181050 0.222876 5.515264
v -4.572366 -0.073365 5.885566
v -4.972755 -0.073365 5.873994
v -4.197435 -0.073365 5.848536
v -3.829447 -0.073365 5.443517
v -3.986825 -0.073365 5.654127
v -3.581808 -0.073365 5.293082
v -5.222709 0.370998 4.307153
v -5.255111 0.370998 4.906579
vt 0.375000 0.500000
vt 0.312500 0.625000
vt 0.312500 0.500000
vt 0.500000 0.625000
vt 0.562500 0.750000
vt 0.562500 0.625000
vt 0.500000 0.625000
vt 0.562500 0.750000
vt 0.562500 0.625000
vt 0.500000 0.750000
vt 0.562500 0.625000
vt 0.500000 0.625000
vt 0.500000 0.750000
vt 0.562500 0.625000
vt 0.500000 0.625000
vt 0.500000 0.625000
vt 0.562500 0.750000
vt 0.562500 0.625000
vt 0.500000 0.625000
vt 0.562500 0.750000
vt 0.562500 0.625000
vt 0.500000 0.750000
vt 0.562500 0.625000
vt 0.500000 0.625000
vt 0.312500 0.625000
vt 0.375000 0.500000
vt 0.312500 0.500000
vt 0.500000 0.625000
vt 0.562500 0.625000
vt 0.500000 0.500000
vt 0.500000 0.625000
vt 0.562500 0.625000
vt 0.500000 0.500000
vt 0.500000 0.625000
vt 0.562500 0.625000
vt 0.500000 0.500000
vt 0.500000 0.625000
vt 0.562500 0.625000
vt 0.500000 0.500000
vt 0.437500 0.625000
vt 0.500000 0.500000
vt 0.437500 0.500000
vt 0.562500 0.625000
vt 0.500000 0.625000
vt 0.562500 0.625000
vt 0.562500 0.500000
vt 0.500000 0.500000
vt 0.437500 0.500000
vt 0.500000 0.625000
vt 0.500000 0.500000
vt 0.562500 0.625000
vt 0.500000 0.500000
vt 0.500000 0.625000
vt 0.562500 0.500000
vt 0.500000 0.500000
vt 0.437500 0.625000
vt 0.437500 0.500000
vt 0.437500 0.625000
vt 0.437500 0.500000
vt 0.500000 0.500000
vt 0.562500 0.625000
vt 0.562500 0.500000
vt 0.437500 0.500000
vt 0.500000 0.625000
vt 0.500000 0.500000
vt 0.500000 0.625000
vt 0.500000 0.500000
vt 0.500000 0.500000
vt 0.562500 0.625000
vt 0.562500 0.500000
vt 0.500000 0.500000
vt 0.562500 0.625000
vt 0.562500 0.500000
vt 0.500000 0.625000
vt 0.562500 0.500000
vt 0.500000 0.500000
vt 0.500000 0.500000
vt 0.562500 0.625000
vt 0.562500 0.500000
vt 0.562500 0.500000
vt 0.500000 0.500000
vt 0.437500 0.500000
vt 0.500000 0.500000
vt 0.500000 0.625000
vt 0.562500 0.625000
vt 0.500000 0.500000
vt 0.500000 0.500000
vt 0.562500 0.625000
vt 0.562500 0.500000
vt 0.562500 0.625000
vt 0.562500 0.625000
vt 0.562500 0.500000
vt 0.500000 0.625000
vt 0.500000 0.500000
vt 0.437500 0.625000
vt 0.500000 0.500000
vt 0.437500 0.500000
vt 0.500000 0.500000
vt 0.562500 0.625000
vt 0.562500 0.500000
vt 0.562500 0.500000
vt 0.500000 0.500000
vt 0.437500 0.625000
vt 0.500000 0.500000
vt 0.437500 0.500000
vt 0.500000 0.500000
vt 0.562500 0.625000
vt 0.562500 0.500000
vt 0.562500 0.500000
vt 0.500000 0.500000
vt 0.187500 0.500000
vt 0.250000 0.625000
vt 0.250000 0.500000
vt 0.187500 0.500000
vt 0.250000 0.625000
vt 0.250000 0.500000
vt 0.187500 0.500000
vt 0.250000 0.625000
vt 0.250000 0.500000
vt 0.187500 0.625000
vt 0.250000 0.500000
vt 0.187500 0.500000
vt 0.187500 0.625000
vt 0.250000 0.500000
vt 0.187500 0.500000
vt 0.000000 0.625000
vt 0.062500 0.750000
vt 0.000000 0.750000
vt 0.187500 0.625000
vt 0.250000 0.500000
vt 0.187500 0.500000
vt 0.062500 0.625000
vt 0.000000 0.750000
vt 0.000000 0.625000
vt 0.000000 0.625000
vt 0.062500 0.750000
vt 0.000000 0.750000
vt 0.000000 0.625000
vt 0.062500 0.750000
vt 0.000000 0.750000
vt 0.062500 0.625000
vt 0.000000 0.750000
vt 0.000000 0.625000
vt 0.062500 0.625000
vt 0.000000 0.750000
vt 0.000000 0.625000
vt 0.375000 0.625000
vt 0.500000 0.750000
vt 0.500000 0.750000
vt 0.562500 0.750000
vt 0.562500 0.750000
vt 0.500000 0.750000
vt 0.500000 0.750000
vt 0.562500 0.750000
vt 0.375000 0.625000
vt 0.500000 0.625000
vt 0.562500 0.625000
vt 0.437500 0.625000
vt 0.562500 0.625000
vt 0.500000 0.625000
vt 0.500000 0.625000
vt 0.437500 0.625000
vt 0.500000 0.625000
vt 0.500000 0.625000
vt 0.500000 0.625000
vt 0.562500 0.625000
vt 0.437500 0.625000
vt 0.500000 0.625000
vt 0.500000 0.625000
vt 0.500000 0.625000
vt 0.500000 0.625000
vt 0.500000 0.625000
vt 0.187500 0.625000
vt 0.187500 0.625000
vt 0.187500 0.625000
vt 0.250000 0.625000
vt 0.250000 0.625000
vt 0.062500 0.625000
vt 0.250000 0.625000
vt 0.062500 0.750000
vt 0.062500 0.625000
vt 0.062500 0.625000
vt 0.062500 0.750000
vt 0.062500 0.750000
vn 0.8123 0.4972 -0.3048
vn 0.6040 0.7919 -0.0897
vn 0.5486 0.8288 -0.1098
vn 0.5271 0.8421 0.1145
vn 0.4703 0.8825 0.0003
vn 0.2030 0.9031 0.3784
vn 0.0346 0.9974 0.0638
vn -0.2397 0.9115 0.3342
vn -0.2564 0.8449 0.4695
vn -0.1562 0.8590 0.4875
vn 0.0621 0.8478 0.5267
vn 0.0904 0.8788 0.4685
vn -0.2812 0.8478 0.4497
vn -0.0904 0.9855 0.1439
vn -0.4603 0.8865 0.0475
vn -0.5184 0.8476 0.1137
vn -0.5400 0.8402 0.0494
vn 0.0299 0.9906 0.1338
vn -0.0841 0.9787 0.1874
vn 0.4306 0.8922 -0.1364
vn -0.3230 0.9419 0.0928
vn -0.4969 0.8630 0.0913
vn -0.1551 0.9820 0.1075
vn -0.0029 0.9849 0.1732
vn -0.1388 0.8288 0.5421
vn 0.0859 0.9924 0.0881
vn -0.0114 0.9998 -0.0148
vn 0.0000 1.0000 0.0000
vn 0.0126 0.9999 -0.0070
vn -0.0081 0.9997 -0.0220
vn -0.0171 0.9998 0.0036
vn -0.3014 0.7308 0.6124
vn 0.0074 0.9997 0.0242
vn -0.0010 1.0000 -0.0002
vn 0.3229 0.8411 0.4340
vn 0.2356 0.8560 0.4602
vn -0.0463 0.9981 0.0395
vn -0.0065 0.9997 -0.0215
vn 0.2517 0.8048 0.5375
vn 0.3796 0.8414 0.3845
vn 0.0056 0.9998 0.0203
vn 0.0320 0.8077 0.5888
vn -0.3227 0.9222 0.2132
vn -0.0207 0.9997 -0.0112
vn -0.0583 0.9983 0.0001
vn 0.4625 0.3320 0.8221
vn 0.5666 0.3455 0.7481
vn 0.6621 0.4012 0.6329
vn 0.3707 0.4120 0.8324
vn 0.0265 0.3544 0.9347
vn -0.3650 0.3316 0.8699
vn -0.6798 0.3227 0.6585
vn -0.7008 0.3679 0.6112
vn 0.0264 0.3351 0.9418
vn -0.3714 0.3430 0.8628
vn 0.4056 0.3595 0.8404
vn 0.6149 0.3378 0.7126
vn 0.6826 0.3975 0.6132
vn 0.4818 0.3007 0.8231
usemtl Material__25.004
s 1
f 1/1/1 2/2/2 3/3/3
f 3/4/3 4/5/4 5/6/5
f 5/7/5 6/8/6 7/9/7
f 6/10/6 8/11/8 7/12/7
f 9/13/9 10/14/10 8/15/8
f 10/16/10 11/17/11 12/18/12
f 12/19/12 13/20/13 14/21/14
f 13/22/13 15/23/15 14/24/14
f 16/25/16 17/26/17 15/27/15
f 18/28/18 9/29/9 4/30/4
f 16/31/16 11/32/11 19/33/19
f 20/34/20 18/35/18 2/36/2
f 21/37/21 22/38/22 23/39/23
f 20/40/20 24/41/24 18/42/18
f 18/28/18 4/43/4 2/36/2
f 9/44/9 6/45/6 4/30/4
f 18/28/18 25/46/25 9/47/9
f 19/48/19 22/49/22 16/50/16
f 16/31/16 13/51/13 11/52/11
f 24/53/24 11/54/11 25/55/25
f 26/56/26 19/33/19 24/57/24
f 27/58/27 14/24/14 28/59/28
f 8/60/8 29/61/29 7/62/7
f 14/63/14 30/64/30 12/65/12
f 28/59/28 15/66/15 31/67/28
f 32/68/31 33/69/32 34/70/33
f 30/71/30 32/72/31 35/73/34
f 29/74/29 36/75/35 7/76/7
f 17/77/17 31/78/28 15/79/15
f 7/12/7 37/80/36 38/81/37
f 30/82/30 29/74/29 39/83/38
f 40/84/39 41/85/40 42/86/41
f 28/87/28 43/88/28 27/89/27
f 10/16/10 39/90/38 8/60/8
f 42/86/41 44/91/42 40/92/39
f 33/93/32 44/91/42 34/94/33
f 45/95/43 27/96/27 43/97/28
f 46/98/44 47/99/45 48/100/28
f 39/83/38 12/18/12 30/101/30
f 5/7/5 47/99/45 3/102/3
f 34/103/33 35/104/34 32/105/31
f 29/106/29 42/107/41 41/108/40
f 5/7/5 38/109/37 47/110/45
f 49/111/46 36/112/35 50/113/47
f 50/114/47 41/115/40 51/116/48
f 51/117/48 40/118/39 52/119/49
f 40/120/39 53/121/50 52/122/49
f 44/123/42 54/124/51 53/125/50
f 55/126/52 54/127/51 56/128/53
f 33/129/32 56/130/53 54/131/51
f 57/132/54 54/133/51 58/134/55
f 57/135/54 52/136/49 53/137/50
f 59/138/56 51/139/48 52/140/49
f 60/141/57 51/142/48 61/143/58
f 62/144/59 50/145/47 60/146/57
f 1/1/1 20/147/20 2/2/2
f 3/4/3 2/148/2 4/5/4
f 5/7/5 4/149/4 6/8/6
f 6/10/6 9/150/9 8/11/8
f 9/13/9 25/151/25 10/14/10
f 10/16/10 25/152/25 11/17/11
f 12/19/12 11/153/11 13/20/13
f 13/22/13 16/154/16 15/23/15
f 16/25/16 22/155/22 17/26/17
f 20/40/20 26/156/26 24/41/24
f 18/28/18 24/157/24 25/46/25
f 19/48/19 23/158/23 22/49/22
f 24/53/24 19/159/19 11/54/11
f 26/56/26 23/160/23 19/33/19
f 8/60/8 39/161/38 29/61/29
f 14/63/14 27/58/27 30/64/30
f 28/59/28 14/162/14 15/66/15
f 32/68/31 45/163/43 33/69/32
f 30/71/30 27/164/27 32/72/31
f 29/74/29 41/85/40 36/75/35
f 17/77/17 63/165/28 31/78/28
f 7/12/7 36/166/35 37/80/36
f 30/82/30 35/167/34 29/74/29
f 28/87/28 64/168/28 43/88/28
f 42/86/41 34/169/33 44/91/42
f 45/95/43 32/170/31 27/96/27
f 46/98/44 3/4/3 47/99/45
f 39/83/38 10/16/10 12/18/12
f 34/103/33 42/171/41 35/104/34
f 29/106/29 35/172/34 42/107/41
f 5/7/5 7/9/7 38/109/37
f 49/111/46 37/173/36 36/112/35
f 50/114/47 36/174/35 41/115/40
f 51/117/48 41/175/40 40/118/39
f 40/120/39 44/176/42 53/121/50
f 44/123/42 33/177/32 54/124/51
f 55/126/52 58/178/55 54/127/51
f 33/129/32 45/179/43 56/130/53
f 57/132/54 53/180/50 54/133/51
f 57/135/54 59/181/56 52/136/49
f 59/138/56 61/182/58 51/139/48
f 60/141/57 50/183/47 51/142/48
f 62/144/59 49/184/46 50/145/47
