# Blender v2.79 (sub 0) OBJ File: ''
# www.blender.org
mtllib hurricos.012.mtl
o hurricos.012_hurricos.114_tex_72.011
v -1.281304 0.519122 -5.596119
v -1.445626 0.519122 -5.677123
v -1.445626 0.519122 -5.596119
v -1.281304 0.519122 -5.677123
v -1.281304 0.676500 -5.614634
v -1.281304 0.676500 -5.697952
v -1.438683 0.676500 -5.697952
v -1.438683 0.676500 -5.614634
v -1.214188 0.519122 -5.596119
v -1.501172 0.741303 -5.633149
v -1.512743 0.519122 -5.596119
v -1.214188 0.741303 -5.633149
v -1.489600 0.963484 -5.670179
v -0.897116 0.741303 -5.633149
v -1.795099 0.963484 -5.670179
v -1.832129 0.741303 -5.633149
v -0.931831 0.963484 -5.670179
v -1.225760 0.519122 -5.383195
v -1.512743 0.519122 -5.383195
v -1.184100 0.519122 -4.753682
v -1.503486 0.519122 -4.640276
v -1.297505 0.519121 -4.522243
v -1.871474 0.519121 -4.575473
v -1.649292 0.519121 -4.397265
v -1.274362 0.519122 -5.156385
v -1.399339 0.519122 -4.883287
v -1.644664 0.519122 -5.033722
v -1.748811 0.519122 -4.806912
v -0.628647 0.519122 -5.075382
v -0.952662 0.519122 -5.383195
v -0.989692 0.519122 -5.114726
v -1.545145 0.519122 -5.248961
v -2.031167 0.472834 -5.010579
v -1.887674 0.491349 -5.188787
v -0.390265 0.519122 -5.517430
v -0.612446 0.519122 -5.371624
v -0.390265 0.519122 -5.320707
v -0.862400 0.519122 -5.596119
v -1.822872 0.495978 -5.383195
v -0.911002 0.519122 -4.878658
v -0.654105 0.519122 -4.823113
v -0.390265 0.519122 -4.700450
v -0.707336 0.519121 -4.575473
v -0.429609 0.519121 -4.431982
v -0.304632 0.519122 -4.994378
v -0.230572 0.519122 -5.186472
v -0.954976 0.519122 -4.656477
v -0.230572 0.667242 -5.167957
v -0.230572 0.667242 -5.318392
v -0.337034 0.625584 -5.320707
v -0.462010 0.667242 -5.853016
v -0.323148 0.639470 -5.566032
v -0.262974 0.667242 -5.607691
v -0.390265 0.944969 -4.700450
v -0.288431 0.695015 -4.994378
v -0.374064 0.681129 -4.700450
v -0.304632 0.944969 -4.994378
v -0.545329 0.616326 -5.792842
v -0.612446 0.519122 -5.744240
v -1.214188 0.963484 -5.670179
v -1.876102 0.519122 -5.598433
v -0.230572 0.977371 -5.186472
v -0.165769 0.667242 -5.765069
vt 0.562500 0.500000
vt 0.500000 0.625000
vt 0.500000 0.500000
vt 0.312500 0.875000
vt 0.375000 1.000000
vt 0.312500 1.000000
vt 0.375000 0.875000
vt 0.312500 1.000000
vt 0.312500 0.875000
vt 0.375000 1.000000
vt 0.375000 0.875000
vt 0.625000 0.875000
vt 0.687500 0.750000
vt 0.625000 0.750000
vt 0.375000 0.875000
vt 0.312500 1.000000
vt 0.312500 0.875000
vt 0.625000 0.875000
vt 0.312500 0.875000
vt 0.312500 1.000000
vt 0.250000 0.625000
vt 0.187500 0.750000
vt 0.187500 0.625000
vt 0.437500 0.875000
vt 0.500000 0.750000
vt 0.437500 0.750000
vt 0.125000 0.625000
vt 0.187500 0.750000
vt 0.187500 0.625000
vt 0.437500 0.750000
vt 0.500000 0.875000
vt 0.500000 0.750000
vt 0.125000 0.750000
vt 0.187500 0.625000
vt 0.125000 0.625000
vt 0.500000 0.500000
vt 0.562500 0.625000
vt 0.500000 0.625000
vt 0.562500 0.500000
vt 0.500000 0.625000
vt 0.500000 0.500000
vt 0.562500 0.625000
vt 0.500000 0.625000
vt 0.437500 0.625000
vt 0.500000 0.500000
vt 0.437500 0.500000
vt 0.500000 0.625000
vt 0.562500 0.500000
vt 0.500000 0.500000
vt 0.500000 0.500000
vt 0.562500 0.625000
vt 0.562500 0.500000
vt 0.500000 0.625000
vt 0.562500 0.500000
vt 0.500000 0.500000
vt 0.500000 0.625000
vt 0.562500 0.500000
vt 0.500000 0.500000
vt 0.562500 0.625000
vt 0.562500 0.500000
vt 0.500000 0.500000
vt 0.562500 0.625000
vt 0.562500 0.500000
vt 0.500000 0.500000
vt 0.562500 0.625000
vt 0.562500 0.500000
vt 0.437500 0.625000
vt 0.500000 0.500000
vt 0.437500 0.500000
vt 0.437500 0.625000
vt 0.500000 0.500000
vt 0.437500 0.500000
vt 0.500000 0.625000
vt 0.562500 0.500000
vt 0.500000 0.500000
vt 0.437500 0.500000
vt 0.500000 0.625000
vt 0.500000 0.500000
vt 0.562500 0.500000
vt 0.437500 0.625000
vt 0.500000 0.500000
vt 0.437500 0.500000
vt 0.500000 0.625000
vt 0.562500 0.500000
vt 0.500000 0.500000
vt 0.500000 0.625000
vt 0.562500 0.500000
vt 0.500000 0.500000
vt 0.500000 0.625000
vt 0.562500 0.625000
vt 0.500000 0.500000
vt 0.562500 0.625000
vt 0.562500 0.625000
vt 0.500000 0.625000
vt 0.562500 0.625000
vt 0.500000 0.500000
vt 0.500000 0.625000
vt 0.562500 0.500000
vt 0.500000 0.500000
vt 0.437500 0.625000
vt 0.500000 0.625000
vt 0.437500 0.500000
vt 0.437500 0.500000
vt 0.500000 0.625000
vt 0.500000 0.500000
vt 0.437500 0.625000
vt 0.500000 0.500000
vt 0.812500 0.625000
vt 0.875000 0.750000
vt 0.875000 0.625000
vt 0.250000 0.625000
vt 0.312500 0.500000
vt 0.250000 0.500000
vt 0.187500 0.625000
vt 0.250000 0.500000
vt 0.187500 0.500000
vt 0.875000 0.750000
vt 0.937500 0.625000
vt 0.875000 0.625000
vt 0.562500 0.625000
vt 0.500000 0.750000
vt 0.500000 0.625000
vt 0.562500 0.750000
vt 0.500000 0.750000
vt 0.562500 0.625000
vt 0.500000 0.750000
vt 0.562500 0.625000
vt 0.375000 0.875000
vt 0.375000 1.000000
vt 0.687500 0.875000
vt 0.375000 1.000000
vt 0.687500 0.875000
vt 0.250000 0.750000
vt 0.500000 0.875000
vt 0.125000 0.750000
vt 0.437500 0.875000
vt 0.187500 0.750000
vt 0.562500 0.625000
vt 0.562500 0.625000
vt 0.500000 0.625000
vt 0.562500 0.625000
vt 0.562500 0.625000
vt 0.500000 0.625000
vt 0.500000 0.625000
vt 0.500000 0.625000
vt 0.500000 0.625000
vt 0.500000 0.625000
vt 0.562500 0.625000
vt 0.437500 0.625000
vt 0.562500 0.625000
vt 0.562500 0.625000
vt 0.562500 0.625000
vt 0.500000 0.625000
vt 0.437500 0.625000
vt 0.500000 0.625000
vt 0.812500 0.750000
vt 0.312500 0.625000
vt 0.250000 0.625000
vt 0.937500 0.750000
vt 0.562500 0.750000
vt 0.562500 0.750000
vn -0.2722 0.9168 0.2921
vn 0.5990 0.5974 0.5332
vn 0.2741 0.9128 0.3026
vn -0.5846 0.6102 0.5347
vn -0.3038 -0.1156 0.9457
vn -0.5707 -0.5412 0.6175
vn 0.5575 -0.5515 0.6205
vn 0.3048 -0.1319 0.9432
vn 0.0096 0.7572 0.6531
vn -0.0147 0.1797 0.9836
vn -0.0252 0.7506 0.6603
vn 0.0142 0.1783 0.9839
vn 0.0000 0.1644 0.9864
vn -0.0023 0.1612 0.9869
vn 0.0000 1.0000 0.0000
vn -0.0344 0.9994 -0.0038
vn -0.0530 0.9984 -0.0182
vn -0.0368 0.9992 -0.0169
vn -0.0377 0.9992 -0.0105
vn -0.1201 0.9925 -0.0210
vn -0.1007 0.9949 -0.0059
vn -0.5269 0.8325 0.1713
vn -0.3846 0.9093 0.1590
vn 0.0000 0.9416 0.3368
vn -0.0532 0.9981 0.0315
vn -0.3927 0.9125 -0.1144
vn -0.6355 0.7439 -0.2066
vn -0.7742 0.6112 0.1643
vn -0.9879 0.1267 -0.0897
vn -0.3672 0.9300 0.0163
vn -0.7187 0.6379 0.2767
vn -0.3470 0.9025 0.2552
vn -0.5335 0.8206 0.2049
vn -0.3279 0.9330 0.1483
vn -0.9579 -0.0602 -0.2806
vn -0.9545 0.0086 -0.2981
vn -0.9597 0.0196 -0.2802
vn -0.9485 -0.0482 -0.3130
vn -0.4847 0.7650 0.4241
vn -0.2700 0.9258 0.2645
vn -0.0045 0.7133 0.7009
vn -0.9316 -0.0217 -0.3628
usemtl Material__25.121
s 1
f 1/1/1 2/2/2 3/3/3
f 4/4/4 5/5/5 6/6/6
f 4/7/4 7/8/7 2/9/2
f 2/9/2 8/10/8 3/11/3
f 7/12/7 5/13/5 8/14/8
f 9/15/9 5/16/5 1/17/1
f 5/13/5 10/18/10 8/14/8
f 11/19/11 8/10/8 10/20/10
f 12/21/12 13/22/13 10/23/10
f 9/24/9 14/25/13 12/26/12
f 10/27/10 15/28/13 16/29/14
f 16/30/14 11/31/11 10/32/10
f 17/33/13 12/34/12 14/35/13
f 18/36/15 9/37/9 1/38/1
f 18/39/15 3/40/3 19/41/16
f 19/41/16 3/42/3 11/43/11
f 20/44/15 21/45/15 22/46/15
f 21/47/15 23/48/15 24/49/15
f 20/50/15 25/51/15 26/52/15
f 25/53/15 27/54/17 26/55/15
f 26/56/15 28/57/18 21/45/15
f 29/58/15 30/59/15 31/60/15
f 31/61/15 18/62/15 25/63/15
f 25/64/15 19/65/16 32/66/19
f 27/67/17 33/68/20 28/69/18
f 32/70/19 34/71/21 27/72/17
f 35/73/22 36/74/15 37/75/23
f 36/76/15 38/77/24 30/78/15
f 30/78/15 9/37/9 18/39/15
f 11/43/11 39/79/25 19/41/16
f 29/80/15 40/81/15 41/82/15
f 42/83/26 43/84/15 44/85/15
f 45/86/27 41/87/15 42/88/26
f 19/89/16 39/90/25 32/91/19
f 29/58/15 37/92/23 36/74/15
f 20/50/15 40/93/15 31/60/15
f 37/94/23 45/95/27 46/96/28
f 41/97/15 47/98/15 43/99/15
f 48/100/29 49/101/30 50/102/31
f 51/103/32 52/104/33 53/105/34
f 49/106/30 52/107/33 50/102/31
f 45/108/27 48/109/29 46/110/28
f 54/111/35 55/112/36 56/113/37
f 57/114/38 48/115/29 55/116/36
f 56/117/37 45/118/27 42/119/26
f 35/120/22 58/121/39 59/122/40
f 35/73/22 50/123/31 52/124/33
f 46/125/28 50/126/31 37/94/23
f 1/1/1 4/127/4 2/2/2
f 4/4/4 1/128/1 5/5/5
f 4/7/4 6/129/6 7/8/7
f 2/9/2 7/8/7 8/10/8
f 7/12/7 6/130/6 5/13/5
f 9/15/9 12/131/12 5/16/5
f 5/13/5 12/132/12 10/18/10
f 11/19/11 3/11/3 8/10/8
f 12/21/12 60/133/13 13/22/13
f 9/24/9 38/134/24 14/25/13
f 10/27/10 13/135/13 15/28/13
f 16/30/14 61/136/41 11/31/11
f 17/33/13 60/137/13 12/34/12
f 18/39/15 1/138/1 3/40/3
f 20/44/15 26/56/15 21/45/15
f 21/47/15 28/139/18 23/48/15
f 20/50/15 31/140/15 25/51/15
f 25/53/15 32/141/19 27/54/17
f 26/56/15 27/142/17 28/57/18
f 29/58/15 36/143/15 30/59/15
f 31/61/15 30/144/15 18/62/15
f 25/64/15 18/145/15 19/65/16
f 27/67/17 34/146/21 33/68/20
f 32/70/19 39/147/25 34/71/21
f 35/73/22 59/148/40 36/74/15
f 36/76/15 59/149/40 38/77/24
f 30/78/15 38/77/24 9/37/9
f 11/43/11 61/150/41 39/79/25
f 29/80/15 31/140/15 40/81/15
f 42/83/26 41/151/15 43/84/15
f 45/86/27 29/152/15 41/87/15
f 29/58/15 45/86/27 37/92/23
f 20/50/15 47/153/15 40/93/15
f 41/97/15 40/93/15 47/98/15
f 51/103/32 58/154/39 52/104/33
f 49/106/30 53/155/34 52/107/33
f 45/108/27 55/156/36 48/109/29
f 54/111/35 57/157/38 55/112/36
f 57/114/38 62/158/42 48/115/29
f 56/117/37 55/159/36 45/118/27
f 35/120/22 52/160/33 58/121/39
f 35/73/22 37/92/23 50/123/31
f 46/125/28 48/161/29 50/126/31
l 63 53
