# Blender v2.79 (sub 0) OBJ File: ''
# www.blender.org
mtllib hurricos.007.mtl
o hurricos.007_hurricos.114_tex_72.006
v -5.150963 0.519122 -5.218874
v -5.340743 0.222880 -5.017522
v -5.150963 0.222880 -5.218874
v -5.125505 0.667242 -4.813856
v -5.528209 0.519122 -4.813856
v -5.340743 0.519122 -5.017522
v -5.324543 0.667242 -4.600932
v -5.711045 0.519122 -4.621761
v -5.711045 0.222880 -4.621761
v -5.528209 0.222880 -4.813856
v -5.125505 0.222880 -4.813856
v -5.324543 0.222880 -4.600932
v -5.495808 0.222880 -4.418095
v -5.495808 0.667242 -4.418095
vt 0.562500 1.000000
vt 0.625000 0.875000
vt 0.562500 0.875000
vt 0.312500 0.750000
vt 0.375000 0.625000
vt 0.312500 0.625000
vt 0.062500 0.750000
vt 0.125000 0.625000
vt 0.062500 0.625000
vt 0.562500 1.000000
vt 0.625000 0.875000
vt 0.562500 0.875000
vt 0.187500 0.750000
vt 0.250000 0.625000
vt 0.187500 0.625000
vt 0.687500 0.875000
vt 0.625000 1.000000
vt 0.625000 0.875000
vt 0.687500 0.875000
vt 0.625000 1.000000
vt 0.625000 0.875000
vt 0.625000 1.000000
vt 0.375000 0.750000
vt 0.125000 0.750000
vt 0.625000 1.000000
vt 0.250000 0.750000
vt 0.687500 1.000000
vt 0.687500 1.000000
vn 0.7277 0.0000 0.6859
vn 0.6556 0.4441 0.6107
vn 0.3287 -0.8937 0.3052
vn 0.6206 -0.5262 0.5814
vn 0.6885 -0.3414 0.6399
vn 0.3272 -0.8936 0.3073
vn 0.6172 -0.5247 0.5863
vn 0.5127 0.7064 0.4880
vn 0.5149 0.7090 0.4819
vn 0.0000 1.0000 -0.0000
vn 0.3263 -0.8945 0.3057
usemtl Material__25.126
s 1
f 1/1/1 2/2/2 3/3/1
f 4/4/3 5/5/4 6/6/5
f 7/7/6 8/8/7 5/9/4
f 5/10/4 9/11/8 10/12/9
f 6/13/5 10/14/9 2/15/2
f 11/16/10 10/17/9 12/18/10
f 12/19/10 9/20/8 13/21/10
f 1/1/1 6/22/5 2/2/2
f 4/4/3 7/23/6 5/5/4
f 7/7/6 14/24/11 8/8/7
f 5/10/4 8/25/7 9/11/8
f 6/13/5 5/26/4 10/14/9
f 11/16/10 2/27/2 10/17/9
f 12/19/10 10/28/9 9/20/8
