# Blender v2.79 (sub 0) OBJ File: ''
# www.blender.org
mtllib hurricos.036.mtl
o hurricos.036_hurricos.114_tex_72.035
v 8.360441 0.704272 -4.522243
v 8.365070 0.722788 -4.494470
v 8.367384 0.732045 -4.510671
v 8.376642 0.741303 -4.485212
v 8.378956 0.745932 -4.489841
v 8.383585 0.722788 -4.501413
v 8.390528 0.704272 -4.503727
v 8.360441 0.704272 -4.487527
v 8.383585 0.741303 -4.487527
v 8.390528 0.745932 -4.469012
vt 0.625000 0.875000
vt 0.687500 0.750000
vt 0.625000 0.750000
vt 0.625000 0.875000
vt 0.687500 0.750000
vt 0.625000 0.750000
vt 0.625000 0.875000
vt 0.687500 0.750000
vt 0.625000 0.750000
vt 0.687500 0.875000
vt 0.687500 0.750000
vt 0.625000 0.875000
vt 0.625000 0.750000
vt 0.625000 0.750000
vt 0.687500 0.750000
vt 0.625000 0.875000
vt 0.687500 0.875000
vt 0.625000 0.750000
vt 0.687500 0.875000
vt 0.687500 0.875000
vt 0.625000 0.750000
vt 0.687500 0.875000
vt 0.687500 0.875000
vt 0.687500 0.875000
vt 0.625000 0.875000
vn -0.4267 0.4648 -0.7758
vn -0.6496 0.2618 0.7138
vn -0.3346 0.6582 -0.6744
vn -0.6464 -0.0223 0.7627
vn -0.0716 0.9563 -0.2835
vn 0.9798 0.1999 0.0074
vn 0.9351 0.3536 -0.0240
vn -0.5057 0.3578 0.7851
vn 0.9762 -0.2109 -0.0511
vn 0.4957 0.1495 0.8556
usemtl Material__25.097
s 1
f 1/1/1 2/2/2 3/3/3
f 3/4/3 4/5/4 5/6/5
f 5/7/5 6/8/6 3/3/3
f 1/9/1 6/10/6 7/11/7
f 8/12/8 6/8/6 2/13/2
f 4/14/4 6/10/6 9/15/9
f 4/16/4 9/17/9 10/18/10
f 5/7/5 4/19/4 10/18/10
f 5/7/5 10/20/10 9/21/9
f 1/1/1 8/22/8 2/2/2
f 3/4/3 2/23/2 4/5/4
f 5/7/5 9/17/9 6/8/6
f 1/9/1 3/4/3 6/10/6
f 8/12/8 7/24/7 6/8/6
f 4/14/4 2/25/2 6/10/6
