# Blender v2.79 (sub 0) OBJ File: ''
# www.blender.org
mtllib hurricos.100.mtl
o hurricos.100_hurricos.114_tex_72.367
v 8.471531 0.972740 0.083392
v 8.448387 1.005142 0.025532
v 8.422930 1.009770 0.048676
v 8.425243 0.977369 0.030161
vt 0.312500 0.875000
vt 0.375000 0.875000
vt 0.312500 0.750000
vt 0.375000 0.875000
vt 0.312500 0.750000
vt 0.375000 0.875000
vt 0.312500 0.750000
vn 0.5852 -0.3675 0.7229
vn 0.9395 0.2468 -0.2376
vn -0.2676 0.4484 0.8528
vn -0.1253 -0.9919 0.0227
usemtl Material__25.033
s 1
f 1/1/1 2/2/2 3/3/3
f 1/1/1 4/4/4 2/5/2
f 1/1/1 3/6/3 4/7/4
