# Blender v2.79 (sub 0) OBJ File: ''
# www.blender.org
mtllib hurricos.072.mtl
o hurricos.072_hurricos.114_tex_72.339
v 0.179075 1.454133 -0.321626
v -0.054678 1.130119 -0.509092
v 0.199904 1.111603 -0.340141
v -0.297689 1.491164 -0.691928
v -0.297689 1.134748 -0.691928
v 0.454488 1.565224 -0.509092
v 0.533176 1.449504 -0.328569
v 0.829418 1.486534 -0.513720
v 0.188333 1.588368 -0.807648
v 0.479945 1.592997 -1.015943
v 0.732214 1.574482 -0.696557
v -0.054678 1.500421 -0.509092
v 0.336453 1.592997 -1.291355
v 0.021696 1.639284 -1.351529
v -0.168083 1.630027 -1.307556
v -0.188912 1.592997 -0.999742
v 0.776188 1.514307 -1.168692
v 0.716013 1.514307 -1.367730
v -0.100966 1.551338 -1.626942
v 0.183703 1.551338 -1.694059
v -0.450438 1.542080 -1.613055
v 0.991426 1.111603 -0.509092
v 1.347841 1.060687 -0.416516
v 1.167319 1.037543 -0.256823
v 1.345528 1.111603 -0.416516
v 1.148804 1.111603 -0.249880
v -0.033849 1.523565 -1.946327
v 0.331824 1.157892 -1.883839
v -0.047735 1.157892 -1.888468
v 1.162690 0.815362 -0.360971
v 1.035399 0.810733 -0.583152
v 1.088630 0.815362 -1.314499
v 1.192778 0.815362 -1.383931
v 1.192778 1.111604 -1.383931
v 1.294611 1.111604 -1.233495
v 1.294611 0.815362 -1.233495
v 1.190463 0.815362 -1.164064
v 1.088630 0.519120 -1.314499
v 1.301554 0.519120 -1.219609
v 1.190463 0.519120 -1.164064
v 0.857191 1.111603 -0.423459
v 0.993740 1.407846 -0.689614
v 0.970596 1.111604 -1.652400
v 0.769244 0.815362 -1.939384
v 0.716013 1.157892 -2.001873
v 0.803960 0.519120 -1.872267
v 0.970596 0.815362 -1.652400
v 0.970596 0.519120 -1.652400
v 1.040028 1.111603 -0.606296
v 1.197406 0.519120 -1.386245
v 1.294611 1.111604 -0.840049
v 1.250637 1.407846 -0.884023
v 1.190463 1.407846 -1.164064
v 0.970596 1.417103 -1.652400
v 1.405702 1.407846 -0.997428
v 1.405702 1.111604 -0.997428
v 1.405702 0.815362 -0.997428
v 1.405702 0.519120 -0.997428
v 1.294611 0.815362 -0.840049
v 1.294611 0.519120 -0.840049
v 1.063171 0.519120 -0.645641
v 1.361728 0.519120 -1.613055
v 1.301554 0.519120 -1.948642
v 0.975224 0.519120 -1.939384
v 1.222864 0.519120 -0.395687
v 0.968282 1.111603 -0.238308
v 1.007627 1.495792 -0.881708
v 0.533176 1.505050 -1.682487
v 1.088630 1.407846 -1.314499
v 0.604922 1.111603 -0.266081
v -0.054678 0.769074 -0.509092
v 0.199904 0.741301 -0.340141
v -0.054678 0.389514 -0.509092
v 0.179075 0.370999 -0.321626
v -0.297689 0.769074 -0.691928
v -0.297689 0.366370 -0.691928
v -0.054678 -0.073364 -0.509092
v 0.162874 -0.077992 -0.314683
v -0.297689 -0.068735 -0.691928
v -0.406466 1.500421 -1.837551
v -0.420352 1.157892 -1.768119
v -0.496727 1.648542 -1.328385
v 0.345711 1.546709 -1.974100
vt 0.437500 0.500000
vt 0.500000 0.625000
vt 0.500000 0.500000
vt 0.375000 0.500000
vt 0.312500 0.625000
vt 0.312500 0.500000
vt 0.437500 0.625000
vt 0.500000 0.625000
vt 0.437500 0.500000
vt 0.437500 0.500000
vt 0.500000 0.625000
vt 0.500000 0.500000
vt 0.437500 0.625000
vt 0.500000 0.500000
vt 0.437500 0.500000
vt 0.500000 0.500000
vt 0.562500 0.625000
vt 0.562500 0.500000
vt 0.437500 0.500000
vt 0.500000 0.625000
vt 0.500000 0.500000
vt 0.500000 0.625000
vt 0.562500 0.625000
vt 0.500000 0.500000
vt 0.500000 0.500000
vt 0.562500 0.625000
vt 0.562500 0.500000
vt 0.500000 0.625000
vt 0.562500 0.625000
vt 0.500000 0.500000
vt 0.500000 0.625000
vt 0.562500 0.625000
vt 0.500000 0.500000
vt 0.562500 0.625000
vt 0.562500 0.500000
vt 0.500000 0.500000
vt 0.562500 0.500000
vt 0.625000 0.750000
vt 0.687500 0.875000
vt 0.625000 0.875000
vt 0.625000 0.750000
vt 0.687500 0.875000
vt 0.625000 0.875000
vt 0.625000 0.875000
vt 0.687500 0.875000
vt 0.500000 0.750000
vt 0.562500 0.625000
vt 0.500000 0.625000
vt 0.687500 0.750000
vt 0.625000 0.750000
vt 0.687500 0.875000
vt 0.625000 0.875000
vt 0.000000 0.875000
vt 0.062500 1.000000
vt 0.000000 1.000000
vt 0.000000 1.000000
vt 0.062500 1.000000
vt 0.000000 0.875000
vt 0.937500 0.625000
vt 1.000000 0.750000
vt 0.937500 0.750000
vt 0.937500 0.750000
vt 1.000000 0.625000
vt 0.937500 0.625000
vt 0.062500 1.000000
vt 0.062500 0.875000
vt 0.875000 0.750000
vt 0.875000 0.625000
vt 0.500000 0.500000
vt 0.500000 0.625000
vt 0.562500 0.500000
vt 0.437500 0.625000
vt 0.375000 0.625000
vt 0.000000 0.875000
vt 0.062500 1.000000
vt 0.062500 0.875000
vt 0.062500 0.500000
vt 0.000000 0.625000
vt 0.000000 0.500000
vt 0.500000 0.625000
vt 0.562500 0.625000
vt 0.500000 0.500000
vt 0.500000 0.500000
vt 0.500000 0.625000
vt 0.562500 0.500000
vt 1.000000 0.625000
vt 0.937500 0.750000
vt 0.937500 0.625000
vt 0.750000 0.875000
vt 0.812500 0.750000
vt 0.750000 0.750000
vt 0.187500 0.500000
vt 0.250000 0.625000
vt 0.250000 0.500000
vt 0.000000 1.000000
vt 0.062500 0.875000
vt 0.000000 0.875000
vt 0.187500 0.625000
vt 0.250000 0.500000
vt 0.187500 0.500000
vt 0.187500 0.500000
vt 0.250000 0.625000
vt 0.250000 0.500000
vt 0.000000 1.000000
vt 0.000000 0.875000
vt 0.875000 0.625000
vt 0.937500 0.750000
vt 0.937500 0.625000
vt 0.312500 0.500000
vt 0.375000 0.625000
vt 0.375000 0.500000
vt 0.000000 1.000000
vt 0.062500 0.875000
vt 0.000000 0.875000
vt 1.000000 0.625000
vt 0.125000 0.500000
vt 0.187500 0.625000
vt 0.187500 0.500000
vt 0.875000 0.750000
vt 0.937500 0.625000
vt 0.875000 0.625000
vt 0.500000 0.625000
vt 0.562500 0.625000
vt 0.500000 0.500000
vt 0.437500 0.500000
vt 0.500000 0.625000
vt 0.500000 0.500000
vt 0.562500 0.625000
vt 0.500000 0.500000
vt 0.000000 0.750000
vt 0.062500 0.875000
vt 0.000000 0.875000
vt 0.437500 0.625000
vt 0.437500 0.500000
vt 0.375000 0.625000
vt 0.437500 0.875000
vt 0.500000 0.750000
vt 0.437500 0.750000
vt 0.687500 0.750000
vt 0.625000 0.750000
vt 0.437500 0.500000
vt 0.500000 0.625000
vt 0.500000 0.500000
vt 0.500000 0.500000
vt 0.562500 0.625000
vt 0.562500 0.500000
vt 0.437500 0.500000
vt 0.500000 0.500000
vt 0.500000 0.625000
vt 0.562500 0.500000
vt 0.500000 0.500000
vt 0.437500 0.625000
vt 0.500000 0.500000
vt 0.437500 0.500000
vt 0.500000 0.625000
vt 0.562500 0.625000
vt 0.500000 0.500000
vt 0.437500 0.625000
vt 0.437500 0.500000
vt 0.500000 0.625000
vt 0.562500 0.500000
vt 0.500000 0.500000
vt 0.437500 0.625000
vt 0.500000 0.500000
vt 0.437500 0.500000
vt 0.437500 0.500000
vt 0.375000 0.625000
vt 0.375000 0.500000
vt 0.125000 0.500000
vt 0.187500 0.625000
vt 0.125000 0.625000
vt 0.625000 0.750000
vt 0.687500 0.625000
vt 0.625000 0.625000
vt 0.000000 1.000000
vt 0.062500 0.875000
vt 0.000000 0.875000
vt 0.750000 0.750000
vt 0.750000 0.625000
vt 0.000000 0.750000
vt 0.062500 0.625000
vt 0.000000 0.625000
vt 0.000000 0.625000
vt 0.062500 0.750000
vt 0.062500 0.625000
vt 0.500000 0.750000
vt 0.562500 0.625000
vt 0.500000 0.625000
vt 0.500000 0.500000
vt 0.562500 0.625000
vt 0.562500 0.500000
vt 0.437500 0.625000
vt 0.375000 0.625000
vt 0.437500 0.625000
vt 0.500000 0.625000
vt 0.500000 0.625000
vt 0.437500 0.625000
vt 0.500000 0.625000
vt 0.500000 0.625000
vt 0.500000 0.625000
vt 0.562500 0.750000
vt 1.000000 0.625000
vt 1.000000 0.750000
vt 0.000000 1.000000
vt 0.000000 1.000000
vt 0.062500 0.625000
vt 1.000000 0.750000
vt 0.812500 0.875000
vt 0.187500 0.625000
vt 0.250000 0.625000
vt 0.187500 0.625000
vt 0.875000 0.750000
vt 0.312500 0.625000
vt 0.062500 1.000000
vt 1.000000 0.750000
vt 0.125000 0.625000
vt 0.937500 0.750000
vt 0.437500 0.625000
vt 0.062500 0.750000
vt 0.500000 0.875000
vt 0.687500 0.875000
vt 0.437500 0.625000
vt 0.500000 0.625000
vt 0.437500 0.625000
vt 0.562500 0.625000
vt 0.500000 0.625000
vt 0.500000 0.625000
vt 0.562500 0.625000
vt 0.500000 0.625000
vt 0.437500 0.625000
vt 0.187500 0.500000
vt 0.687500 0.750000
vt 0.062500 1.000000
vt 0.062500 0.750000
vt 0.000000 0.750000
vt 0.562500 0.750000
vt 0.500000 0.625000
vn -0.3643 0.6593 0.6577
vn -0.5865 -0.0111 0.8098
vn -0.5545 -0.0375 0.8314
vn -0.4460 0.6520 0.6132
vn -0.6012 0.0000 0.7991
vn 0.0134 0.9494 0.3137
vn 0.2797 0.6789 0.6789
vn 0.5195 0.6558 0.5478
vn -0.0463 0.9892 0.1393
vn 0.0953 0.9950 -0.0290
vn 0.2428 0.9614 0.1294
vn -0.4362 0.6461 0.6263
vn 0.1401 0.9874 -0.0735
vn 0.0196 0.9955 -0.0926
vn -0.0294 0.9918 -0.1245
vn -0.0749 0.9812 0.1780
vn 0.2378 0.9662 -0.0993
vn 0.2313 0.9684 -0.0931
vn -0.0570 0.9792 -0.1949
vn 0.0265 0.9896 -0.1415
vn -0.0035 0.9687 -0.2483
vn 0.8153 0.5184 0.2580
vn 0.1462 -0.5139 -0.8453
vn 0.5885 -0.5764 -0.5670
vn 0.2164 0.5177 -0.8277
vn 0.0000 1.0000 0.0000
vn -0.1482 0.5849 -0.7974
vn -0.0233 -0.1910 -0.9813
vn -0.1436 -0.1591 -0.9768
vn 0.8446 0.2190 -0.4885
vn 0.9844 0.1290 0.1201
vn 0.9784 -0.1486 0.1439
vn 0.9893 0.0037 0.1459
vn 0.8622 0.0555 -0.5036
vn 0.8036 0.0470 -0.5933
vn 0.2602 -0.0195 -0.9653
vn 0.2443 -0.1610 -0.9562
vn 0.8011 0.5771 0.1588
vn 0.2743 0.5528 -0.7869
vn 0.2055 0.5846 -0.7849
vn 0.4172 0.6126 0.6713
vn 0.6229 0.5813 0.5236
vn 0.7861 0.0031 -0.6181
vn 0.8154 -0.0079 -0.5789
vn 0.8093 0.0187 -0.5871
vn 0.6644 0.5704 -0.4828
vn 0.7925 -0.0045 -0.6099
vn 0.5568 0.7021 -0.4440
vn 0.7942 0.1553 0.5874
vn 0.5738 0.8152 0.0787
vn 0.7379 0.1142 0.6651
vn 0.5259 0.6853 0.5038
vn 0.4853 0.7829 -0.3892
vn 0.7195 0.5857 -0.3733
vn 0.7863 0.6097 0.1001
vn 0.9926 0.0391 0.1152
vn 0.9962 0.0002 0.0875
vn 0.9961 -0.0000 0.0880
vn 0.7532 -0.0053 0.6577
vn 0.7177 0.2228 0.6598
vn 0.7731 0.6098 0.1745
vn 0.7021 0.5682 -0.4292
vn 0.3224 0.9404 0.1083
vn 0.1542 0.9777 -0.1423
vn 0.5860 0.7577 -0.2872
vn 0.5111 0.2600 0.8193
vn -0.5773 -0.0000 0.8165
vn -0.5687 0.0166 0.8224
vn -0.6048 0.0108 0.7963
vn -0.6309 0.0424 0.7747
vn -0.6267 0.0113 0.7792
vn -0.6655 0.0355 0.7456
vn -0.2304 0.6472 -0.7266
vn -0.3025 -0.1776 -0.9365
vn 0.0743 0.9380 -0.3387
vn -0.0911 0.3995 -0.9122
usemtl Material__25.063
s 1
f 1/1/1 2/2/2 3/3/3
f 2/4/2 4/5/4 5/6/5
f 6/7/6 1/8/1 7/9/7
f 8/10/8 6/11/6 7/12/7
f 9/13/9 1/14/1 6/15/6
f 10/16/10 6/17/6 11/18/11
f 9/19/9 4/20/4 12/21/12
f 10/22/10 13/23/13 9/24/9
f 14/25/14 9/26/9 13/27/13
f 14/28/14 15/29/15 16/30/16
f 17/31/17 18/32/18 10/16/10
f 19/33/19 14/34/14 20/35/20
f 21/36/21 15/29/15 19/37/19
f 22/38/22 23/39/23 24/40/24
f 23/41/23 22/42/22 25/43/25
f 26/44/26 25/45/25 22/38/22
f 27/46/27 28/47/28 29/48/29
f 30/49/30 31/50/31 24/51/24
f 22/52/22 24/51/24 31/50/31
f 32/53/32 33/54/33 34/55/34
f 35/56/35 36/57/36 37/58/37
f 38/59/38 33/60/33 32/61/32
f 37/62/37 39/63/39 40/64/40
f 37/58/37 34/65/34 35/66/35
f 32/67/32 40/64/40 38/68/38
f 22/69/22 8/70/8 41/71/41
f 42/72/42 8/10/8 22/73/22
f 43/74/43 44/75/44 45/76/45
f 46/77/46 47/78/47 48/79/48
f 49/80/49 22/81/22 31/82/31
f 49/83/49 42/84/42 22/85/22
f 48/86/48 33/87/33 50/88/50
f 42/89/42 51/90/51 52/91/52
f 34/92/34 53/93/53 35/94/35
f 43/95/43 33/96/33 47/97/47
f 54/98/54 34/99/34 43/100/43
f 35/101/35 55/102/55 56/103/56
f 57/104/57 35/66/35 56/105/56
f 39/106/39 57/107/57 58/108/58
f 56/109/56 52/110/52 51/111/51
f 59/112/59 56/113/56 51/114/51
f 57/107/57 60/115/60 58/108/58
f 59/116/59 49/117/49 31/118/31
f 59/119/59 61/120/61 60/121/60
f 50/122/50 62/123/26 48/124/48
f 63/125/26 48/126/48 62/127/26
f 48/126/48 64/128/26 46/129/46
f 40/130/40 50/131/50 38/132/38
f 60/133/60 61/134/61 65/135/62
f 31/136/31 65/137/62 61/138/61
f 66/139/26 22/52/22 41/140/41
f 42/141/42 11/142/11 8/143/8
f 52/144/52 67/145/63 42/146/42
f 17/147/17 11/142/11 67/148/63
f 13/149/13 18/150/18 68/151/64
f 13/152/13 20/153/20 14/154/14
f 52/155/52 55/156/55 53/157/53
f 17/158/17 53/157/53 69/159/65
f 18/160/18 69/161/65 54/162/54
f 20/163/20 27/164/27 19/165/19
f 41/166/41 7/167/7 70/168/66
f 71/169/67 3/170/3 2/171/2
f 72/172/68 73/173/69 74/174/70
f 75/175/5 2/176/2 5/177/5
f 73/173/69 75/178/5 76/179/5
f 74/180/70 77/181/71 78/182/72
f 77/183/71 76/184/5 79/185/5
f 80/186/73 29/187/29 81/188/74
f 80/189/73 19/190/19 27/191/27
f 1/1/1 12/192/12 2/2/2
f 2/4/2 12/193/12 4/5/4
f 8/10/8 11/194/11 6/11/6
f 9/13/9 12/195/12 1/14/1
f 10/16/10 9/196/9 6/17/6
f 9/19/9 16/197/16 4/20/4
f 14/25/14 16/198/16 9/26/9
f 19/33/19 15/199/15 14/34/14
f 21/36/21 82/200/75 15/29/15
f 27/46/27 83/201/76 28/47/28
f 38/59/38 50/202/50 33/60/33
f 37/62/37 36/203/36 39/63/39
f 37/58/37 32/204/32 34/65/34
f 32/67/32 37/62/37 40/64/40
f 43/74/43 47/205/47 44/75/44
f 46/77/46 44/206/44 47/78/47
f 48/86/48 47/207/47 33/87/33
f 42/89/42 49/208/49 51/90/51
f 34/92/34 69/209/65 53/93/53
f 43/95/43 34/65/34 33/96/33
f 54/98/54 69/210/65 34/99/34
f 35/101/35 53/211/53 55/102/55
f 57/104/57 36/57/36 35/66/35
f 39/106/39 36/212/36 57/107/57
f 56/109/56 55/213/55 52/110/52
f 59/112/59 57/214/57 56/113/56
f 57/107/57 59/215/59 60/115/60
f 59/116/59 51/216/51 49/117/49
f 59/119/59 31/217/31 61/120/61
f 63/125/26 64/218/26 48/126/48
f 40/130/40 39/219/39 50/131/50
f 31/136/31 30/220/30 65/137/62
f 66/139/26 26/221/26 22/52/22
f 42/141/42 67/222/63 11/142/11
f 52/144/52 53/223/53 67/145/63
f 17/147/17 10/224/10 11/142/11
f 13/149/13 10/225/10 18/150/18
f 13/152/13 68/226/64 20/153/20
f 17/158/17 67/227/63 53/157/53
f 18/160/18 17/228/17 69/161/65
f 20/163/20 83/229/76 27/164/27
f 41/166/41 8/230/8 7/167/7
f 71/169/67 72/231/68 3/170/3
f 72/172/68 71/232/67 73/173/69
f 75/175/5 71/233/67 2/176/2
f 73/173/69 71/232/67 75/178/5
f 74/180/70 73/234/69 77/181/71
f 77/183/71 73/235/69 76/184/5
f 80/186/73 27/236/27 29/187/29
f 80/189/73 21/237/21 19/190/19
l 45 28
