# Blender v2.79 (sub 0) OBJ File: ''
# www.blender.org
mtllib hurricos.099.mtl
o hurricos.099_hurricos.114_tex_72.366
v 8.344240 1.074573 -0.379486
v 8.355812 1.074573 -0.300797
v 8.325726 1.056058 -0.303111
v 8.325726 1.088460 -0.303111
vt 0.312500 0.875000
vt 0.375000 0.875000
vt 0.312500 0.750000
vt 0.375000 0.875000
vt 0.312500 0.750000
vt 0.375000 0.875000
vt 0.312500 0.750000
vn 0.1084 0.0192 -0.9939
vn 0.9880 0.0519 -0.1453
vn -0.4559 -0.8334 -0.3125
vn -0.5197 0.8095 -0.2732
usemtl Material__25.034
s 1
f 1/1/1 2/2/2 3/3/3
f 1/1/1 4/4/4 2/5/2
f 1/1/1 3/6/3 4/7/4
