# Blender v2.79 (sub 0) OBJ File: ''
# www.blender.org
mtllib hurricos.133.mtl
o hurricos.133_hurricos.114_tex_72.400
v -3.021725 0.222877 5.033871
v -2.973123 0.222877 4.851034
v -3.049498 0.370998 4.987583
v -3.030983 0.370998 4.790860
v -2.929150 0.222877 4.682084
v -3.026354 0.370998 4.580251
v -2.123742 0.495974 4.989898
v -1.850644 0.519118 4.867235
v -2.142257 0.495974 4.580251
v -2.450071 0.468202 4.698285
v -2.334352 0.468202 5.082473
v -2.880548 0.690383 4.272437
v -2.801858 0.690383 4.577936
v -2.605135 0.690383 4.374270
v -2.362124 0.690383 4.506190
v -2.591249 0.676497 4.577936
v -2.457014 0.616323 4.737629
v -2.130685 0.657982 4.624224
v -1.857587 0.699641 4.508504
v -2.017281 0.722785 4.427501
v -2.253348 0.732042 4.302524
v -2.762514 0.722785 4.029426
v -2.489416 0.732042 4.163661
v -3.230021 0.667239 4.418243
v -3.026354 0.676497 4.580251
v -1.841387 0.736671 4.133574
v -2.457014 0.361740 4.737629
v -2.128371 0.370998 4.978325
v -2.341295 0.370998 5.070901
v -1.859902 0.370998 4.860291
v -1.894618 0.519118 4.476103
v -1.873788 0.519118 4.117373
v -2.591249 0.370998 4.577936
v -2.586620 0.519118 4.552478
v -2.801858 0.380255 4.577936
v -3.012468 0.519118 4.554792
v -2.806487 0.533005 4.552478
v -3.195304 0.519118 4.406672
v -3.135130 0.657982 4.193748
v -3.123559 0.514489 4.189119
v -3.230021 0.370998 4.418243
v -3.174475 0.370998 4.198376
v -1.841387 0.222877 4.895008
v -2.114485 0.222877 5.019985
v -2.341295 0.222877 5.110246
v -2.466272 0.222877 4.781602
v -2.086712 -0.073365 5.100988
v -1.790470 -0.073365 4.976011
v -2.378325 -0.073365 5.205135
v -2.512559 -0.073365 4.846405
v -2.593563 0.222877 4.619595
v -2.607450 -0.073365 4.682083
v -2.787972 0.222877 4.598766
v -2.757885 -0.073365 4.649682
v -2.871290 -0.073365 4.700598
v -2.915263 -0.073365 4.871863
v -2.970809 -0.073365 5.105617
v -3.477660 0.384884 4.536277
v -3.361940 0.384884 4.825576
v -3.294823 0.370998 4.205319
v -3.778531 0.384884 4.684398
v -3.570236 0.384884 4.297895
v -3.685955 0.384884 4.938981
v -3.343425 0.370998 5.075530
v -3.334168 0.222877 5.128761
v -3.614209 0.222877 5.209764
v -3.581808 -0.073365 5.293082
v -3.301766 -0.073365 5.200506
v -3.641982 0.370998 5.156534
v -1.718724 -0.073365 4.038683
v -1.778898 0.222877 4.078028
v -1.829815 0.370998 4.110430
vt 0.250000 0.500000
vt 0.187500 0.500000
vt 0.250000 0.625000
vt 0.187500 0.625000
vt 0.125000 0.500000
vt 0.125000 0.625000
vt 0.437500 0.625000
vt 0.500000 0.625000
vt 0.437500 0.500000
vt 0.437500 0.500000
vt 0.500000 0.625000
vt 0.500000 0.500000
vt 0.500000 0.625000
vt 0.562500 0.500000
vt 0.500000 0.500000
vt 0.500000 0.500000
vt 0.562500 0.625000
vt 0.562500 0.500000
vt 0.500000 0.625000
vt 0.562500 0.625000
vt 0.500000 0.625000
vt 0.562500 0.625000
vt 0.500000 0.500000
vt 0.500000 0.625000
vt 0.562500 0.500000
vt 0.437500 0.500000
vt 0.500000 0.625000
vt 0.500000 0.625000
vt 0.562500 0.500000
vt 0.500000 0.500000
vt 0.500000 0.625000
vt 0.437500 0.500000
vt 0.500000 0.625000
vt 0.500000 0.500000
vt 0.500000 0.625000
vt 0.500000 0.500000
vt 0.125000 0.500000
vt 0.187500 0.625000
vt 0.125000 0.625000
vt 0.187500 0.500000
vt 0.250000 0.625000
vt 0.250000 0.500000
vt 0.187500 0.500000
vt 0.250000 0.625000
vt 0.250000 0.500000
vt 0.500000 0.750000
vt 0.562500 0.625000
vt 0.500000 0.625000
vt 0.500000 0.625000
vt 0.562500 0.750000
vt 0.562500 0.625000
vt 0.500000 0.625000
vt 0.562500 0.750000
vt 0.562500 0.625000
vt 0.000000 1.000000
vt 0.062500 0.875000
vt 0.000000 0.875000
vt 0.000000 1.000000
vt 0.062500 0.875000
vt 0.000000 0.875000
vt 0.000000 0.875000
vt 0.062500 1.000000
vt 0.062500 0.875000
vt 0.187500 0.625000
vt 0.250000 0.500000
vt 0.187500 0.500000
vt 0.187500 0.625000
vt 0.250000 0.500000
vt 0.187500 0.500000
vt 0.187500 0.500000
vt 0.250000 0.625000
vt 0.250000 0.500000
vt 0.187500 0.625000
vt 0.250000 0.500000
vt 0.187500 0.500000
vt 0.187500 0.500000
vt 0.250000 0.625000
vt 0.250000 0.500000
vt 0.875000 0.625000
vt 0.812500 0.750000
vt 0.812500 0.625000
vt 0.875000 0.750000
vt 0.937500 0.625000
vt 0.875000 0.625000
vt 0.000000 0.875000
vt 0.062500 1.000000
vt 0.062500 0.875000
vt 0.000000 0.875000
vt 0.062500 1.000000
vt 0.062500 0.875000
vt 0.000000 1.000000
vt 0.062500 0.875000
vt 0.000000 0.875000
vt 0.000000 0.750000
vt 0.062500 0.625000
vt 0.000000 0.625000
vt 0.000000 0.625000
vt 0.062500 0.750000
vt 0.062500 0.625000
vt 0.000000 0.750000
vt 0.062500 0.625000
vt 0.000000 0.625000
vt 0.000000 1.000000
vt 0.062500 0.875000
vt 0.000000 0.875000
vt 0.000000 0.750000
vt 0.062500 0.625000
vt 0.000000 0.625000
vt 0.000000 1.000000
vt 0.062500 0.875000
vt 0.000000 0.875000
vt 0.000000 0.750000
vt 0.062500 0.625000
vt 0.000000 0.625000
vt 0.000000 1.000000
vt 0.062500 0.875000
vt 0.000000 0.875000
vt 0.000000 0.750000
vt 0.062500 0.625000
vt 0.000000 0.625000
vt 0.062500 0.625000
vt 0.000000 0.750000
vt 0.000000 0.625000
vt 0.000000 0.750000
vt 0.000000 0.625000
vt 0.500000 0.625000
vt 0.562500 0.625000
vt 0.500000 0.500000
vt 0.437500 0.500000
vt 0.500000 0.625000
vt 0.500000 0.500000
vt 0.500000 0.625000
vt 0.562500 0.625000
vt 0.500000 0.500000
vt 0.562500 0.625000
vt 0.562500 0.500000
vt 0.500000 0.625000
vt 0.562500 0.500000
vt 0.500000 0.500000
vt 0.500000 0.625000
vt 0.500000 0.500000
vt 0.500000 0.625000
vt 0.562500 0.500000
vt 0.187500 0.625000
vt 0.250000 0.500000
vt 0.187500 0.500000
vt 0.187500 0.625000
vt 0.250000 0.500000
vt 0.187500 0.500000
vt 0.000000 0.625000
vt 0.062500 0.750000
vt 0.000000 0.750000
vt 0.000000 0.625000
vt 0.062500 0.750000
vt 0.000000 0.750000
vt 0.437500 0.625000
vt 0.562500 0.625000
vt 0.562500 0.625000
vt 0.437500 0.625000
vt 0.562500 0.625000
vt 0.437500 0.625000
vt 0.187500 0.500000
vt 0.187500 0.625000
vt 0.187500 0.625000
vt 0.562500 0.750000
vt 0.500000 0.750000
vt 0.500000 0.750000
vt 0.062500 1.000000
vt 0.062500 1.000000
vt 0.000000 1.000000
vt 0.250000 0.625000
vt 0.250000 0.625000
vt 0.187500 0.625000
vt 0.250000 0.625000
vt 0.187500 0.625000
vt 0.875000 0.750000
vt 0.937500 0.750000
vt 0.000000 1.000000
vt 0.000000 1.000000
vt 0.062500 1.000000
vt 0.062500 0.750000
vt 0.000000 0.750000
vt 0.062500 0.750000
vt 0.062500 1.000000
vt 0.062500 0.750000
vt 0.062500 1.000000
vt 0.062500 0.750000
vt 0.062500 1.000000
vt 0.062500 0.750000
vt 0.062500 0.750000
vt 0.437500 0.625000
vt 0.500000 0.625000
vt 0.562500 0.625000
vt 0.562500 0.625000
vt 0.250000 0.625000
vt 0.250000 0.625000
vt 0.062500 0.625000
vt 0.062500 0.625000
vn 0.6870 0.2983 0.6626
vn 0.9316 0.2904 0.2185
vn 0.5268 0.7282 0.4384
vn 0.5417 0.8382 0.0638
vn 0.7217 0.3819 0.5773
vn -0.0018 0.7507 0.6606
vn 0.2327 0.6833 0.6921
vn 0.2810 0.6103 0.7407
vn 0.3123 0.3651 0.8770
vn -0.5989 0.2980 0.7433
vn -0.3272 0.5063 0.7979
vn -0.0477 0.9984 0.0288
vn -0.0038 0.6581 0.7529
vn -0.0391 0.9950 0.0923
vn -0.0173 0.9760 0.2169
vn -0.2108 0.7371 0.6420
vn -0.2078 0.3426 0.9162
vn 0.2506 0.4913 0.8341
vn 0.7084 0.4601 0.5352
vn -0.0089 0.9743 0.2250
vn -0.0592 0.9793 0.1936
vn -0.0682 0.9899 0.1241
vn -0.0941 0.9852 0.1432
vn -0.8504 0.4809 0.2136
vn -0.2977 0.5524 0.7786
vn 0.9859 0.1482 0.0772
vn -0.8599 0.2032 0.4683
vn 0.4042 0.0892 0.9103
vn -0.4499 0.1002 0.8874
vn 0.4054 0.0902 0.9097
vn 0.8041 -0.2550 0.5370
vn 0.9868 -0.1512 0.0573
vn -0.3999 0.2055 0.8932
vn -0.4017 -0.0108 0.9157
vn 0.0666 0.2208 0.9730
vn -0.3218 0.0092 0.9468
vn 0.0054 -0.0041 1.0000
vn -0.9592 0.0299 0.2813
vn -0.7286 0.6184 -0.2946
vn -0.9427 0.1150 -0.3133
vn -0.3930 0.9106 0.1276
vn -0.6623 0.7216 -0.2019
vn 0.3885 0.2777 0.8786
vn 0.3822 0.2759 0.8819
vn -0.3797 0.2939 0.8772
vn -0.8660 0.1974 0.4594
vn 0.3616 0.2765 0.8904
vn 0.3703 0.3037 0.8778
vn -0.3920 0.3247 0.8608
vn -0.8824 0.2293 0.4108
vn -0.4805 0.2217 0.8485
vn -0.5679 0.2277 0.7909
vn 0.2200 0.1742 0.9598
vn 0.1066 0.2021 0.9735
vn 0.7454 0.2098 0.6328
vn 0.9486 0.2075 0.2391
vn 0.6838 0.2806 0.6735
vn 0.0319 0.9994 -0.0126
vn 0.0214 0.9996 0.0157
vn 0.0245 0.9997 -0.0075
vn 0.0000 1.0000 0.0000
vn 0.0466 0.9988 -0.0164
vn 0.0091 0.9995 0.0300
vn 0.1682 0.8009 0.5746
vn 0.2745 0.3019 0.9130
vn 0.2573 0.3253 0.9099
vn 0.2855 0.2712 0.9192
vn 0.2882 0.2589 0.9219
vn 0.1532 0.8110 0.5647
usemtl Material__25.003
s 1
f 1/1/1 2/2/2 3/3/3
f 4/4/4 3/3/3 2/2/2
f 2/2/2 5/5/5 4/4/4
f 6/6/6 4/4/4 5/5/5
f 7/7/7 8/8/8 9/9/9
f 7/10/7 10/11/10 11/12/11
f 12/13/12 13/14/13 14/15/14
f 15/16/15 16/17/16 17/18/17
f 17/19/17 18/20/18 15/16/15
f 18/21/18 19/22/19 20/23/20
f 21/24/21 18/25/18 20/23/20
f 21/26/21 14/27/14 15/16/15
f 22/28/22 14/29/14 23/30/23
f 13/31/13 16/17/16 14/15/14
f 12/32/12 24/33/24 25/34/25
f 20/35/20 19/22/19 26/36/26
f 27/37/27 11/38/11 10/39/10
f 28/40/28 11/41/11 29/42/29
f 30/43/30 7/44/7 28/45/28
f 26/46/26 31/47/31 32/48/32
f 31/49/31 18/50/18 9/51/9
f 9/52/9 17/53/17 10/54/10
f 10/55/10 33/56/33 27/57/27
f 34/58/34 35/59/35 33/60/33
f 35/61/35 36/62/36 6/63/6
f 17/64/17 34/65/34 10/66/10
f 16/67/16 37/68/37 34/69/34
f 37/70/37 25/71/25 36/72/36
f 25/73/25 38/74/38 36/75/36
f 38/76/38 39/77/39 40/78/40
f 6/79/6 38/80/38 41/81/41
f 38/82/38 42/83/42 41/84/41
f 43/85/43 28/86/28 44/87/44
f 44/88/44 29/89/29 45/90/45
f 29/91/29 46/92/46 45/93/45
f 43/94/43 47/95/47 48/96/48
f 47/97/47 45/98/45 49/99/49
f 45/100/45 50/101/50 49/102/49
f 27/103/27 51/104/51 46/105/46
f 46/106/46 52/107/52 50/108/50
f 33/109/33 53/110/53 51/111/51
f 51/112/51 54/113/54 52/114/52
f 35/115/35 5/116/5 53/117/53
f 53/118/53 55/119/55 54/120/54
f 56/121/56 1/122/1 57/123/57
f 55/119/55 2/124/2 56/125/56
f 41/126/41 58/127/58 59/128/59
f 59/129/59 3/130/3 4/131/4
f 42/132/42 60/133/60 41/134/41
f 59/128/59 6/135/6 41/136/41
f 61/137/61 59/138/59 58/139/58
f 62/140/62 41/136/41 60/141/60
f 63/142/63 64/143/64 59/128/59
f 3/144/3 65/145/65 1/146/1
f 64/147/64 66/148/66 65/149/65
f 67/150/67 65/151/65 66/152/66
f 68/153/68 1/154/1 65/155/65
f 7/10/7 9/156/9 10/11/10
f 12/13/12 25/157/25 13/14/13
f 15/16/15 14/27/14 16/17/16
f 21/24/21 15/158/15 18/25/18
f 21/26/21 23/159/23 14/27/14
f 22/28/22 12/160/12 14/29/14
f 12/32/12 39/161/39 24/33/24
f 27/37/27 29/162/29 11/38/11
f 28/40/28 7/163/7 11/41/11
f 30/43/30 8/164/8 7/44/7
f 26/46/26 19/165/19 31/47/31
f 31/49/31 19/166/19 18/50/18
f 9/52/9 18/167/18 17/53/17
f 10/55/10 34/168/34 33/56/33
f 34/58/34 37/169/37 35/59/35
f 35/61/35 37/170/37 36/62/36
f 17/64/17 16/171/16 34/65/34
f 16/67/16 13/172/13 37/68/37
f 37/70/37 13/173/13 25/71/25
f 25/73/25 24/174/24 38/74/38
f 38/76/38 24/175/24 39/77/39
f 6/79/6 36/176/36 38/80/38
f 38/82/38 40/177/40 42/83/42
f 43/85/43 30/178/30 28/86/28
f 44/88/44 28/179/28 29/89/29
f 29/91/29 27/180/27 46/92/46
f 43/94/43 44/181/44 47/95/47
f 47/97/47 44/182/44 45/98/45
f 45/100/45 46/183/46 50/101/50
f 27/103/27 33/184/33 51/104/51
f 46/106/46 51/185/51 52/107/52
f 33/109/33 35/186/35 53/110/53
f 51/112/51 53/187/53 54/113/54
f 35/115/35 6/188/6 5/116/5
f 53/118/53 5/189/5 55/119/55
f 56/121/56 2/190/2 1/122/1
f 55/119/55 5/189/5 2/124/2
f 59/129/59 64/191/64 3/130/3
f 59/128/59 4/192/4 6/135/6
f 61/137/61 63/193/63 59/138/59
f 62/140/62 58/127/58 41/136/41
f 63/142/63 69/194/69 64/143/64
f 3/144/3 64/195/64 65/145/65
f 64/147/64 69/196/69 66/148/66
f 67/150/67 68/197/68 65/151/65
f 68/153/68 57/198/57 1/154/1
l 72 71
l 70 71
l 32 72
