# Blender v2.79 (sub 0) OBJ File: ''
# www.blender.org
mtllib hurricos.056.mtl
o hurricos.056_hurricos.114_tex_72.055
v 8.443758 0.704271 -2.913742
v 8.446074 0.722787 -2.883655
v 8.448387 0.732044 -2.902170
v 8.459959 0.745932 -2.879026
v 8.457645 0.741302 -2.874397
v 8.464588 0.722787 -2.890598
v 8.473846 0.704271 -2.892912
v 8.441444 0.704271 -2.876712
v 8.464588 0.741302 -2.876712
v 8.471531 0.745932 -2.858197
vt 0.625000 0.875000
vt 0.687500 0.750000
vt 0.625000 0.750000
vt 0.625000 0.750000
vt 0.687500 0.875000
vt 0.687500 0.750000
vt 0.625000 0.875000
vt 0.687500 0.750000
vt 0.625000 0.750000
vt 0.687500 0.875000
vt 0.687500 0.750000
vt 0.625000 0.875000
vt 0.625000 0.750000
vt 0.625000 0.750000
vt 0.687500 0.750000
vt 0.625000 0.875000
vt 0.687500 0.875000
vt 0.625000 0.750000
vt 0.687500 0.875000
vt 0.687500 0.875000
vt 0.625000 0.750000
vt 0.687500 0.875000
vt 0.625000 0.875000
vt 0.687500 0.875000
vt 0.625000 0.875000
vn -0.3621 0.4724 -0.8036
vn -0.6677 0.2556 0.6991
vn -0.3163 0.6561 -0.6852
vn -0.0829 0.9561 -0.2809
vn -0.6651 -0.0277 0.7462
vn 0.9695 0.2368 0.0636
vn 0.8949 0.4460 0.0117
vn -0.5286 0.3682 0.7648
vn 0.9761 -0.2110 -0.0511
vn 0.4957 0.1495 0.8555
usemtl Material__25.077
s 1
f 1/1/1 2/2/2 3/3/3
f 4/4/4 2/5/2 5/6/5
f 4/7/4 6/8/6 3/3/3
f 1/9/1 6/10/6 7/11/7
f 8/12/8 6/8/6 2/13/2
f 5/14/5 6/10/6 9/15/9
f 5/16/5 9/17/9 10/18/10
f 4/7/4 5/19/5 10/18/10
f 4/7/4 10/20/10 9/21/9
f 1/1/1 8/22/8 2/2/2
f 4/4/4 3/23/3 2/5/2
f 4/7/4 9/17/9 6/8/6
f 1/9/1 3/23/3 6/10/6
f 8/12/8 7/24/7 6/8/6
f 5/14/5 2/25/2 6/10/6
