# Blender v2.79 (sub 0) OBJ File: ''
# www.blender.org
mtllib hurricos.111.mtl
o hurricos.111_hurricos.114_tex_72.378
v -5.977201 0.222878 1.872415
v -5.715674 0.218249 1.777525
v -5.974886 0.222878 1.613203
v -6.310472 0.222878 1.640976
v -6.261870 0.222878 1.923331
v -6.215582 0.222878 2.129312
v -6.588199 0.222878 1.696521
v -6.523396 0.222878 1.999706
v -5.898511 0.222878 2.282062
v -5.812879 0.222878 2.078395
v -5.468035 0.519120 2.974064
v -5.590697 0.519120 2.809743
v -5.602269 0.519119 3.119871
v -5.898511 0.519120 2.282062
v -5.569868 0.519120 2.184857
v -5.812879 0.509862 2.078395
v -5.241224 0.477461 2.724111
v -5.021358 0.472832 2.490357
v -5.268997 0.519120 2.522758
v -5.590697 0.519120 2.513501
v -5.854538 0.519120 2.809743
v -5.879996 0.519120 2.513501
v -6.037374 0.519120 2.791228
v -5.285198 0.519120 2.217259
v -5.960999 0.519120 2.501929
v -5.310656 0.519120 1.921017
v -5.512008 0.519120 1.886301
v -5.715674 0.495976 1.777525
v -5.842966 0.519119 3.112928
v -5.356944 0.505233 1.624775
v -5.685587 0.519120 1.594688
v -6.051261 0.519120 3.022666
v -5.636985 0.394143 1.606260
v -5.664758 0.394143 1.784468
v -5.759647 0.394143 2.071452
v -5.842966 0.394143 2.268176
v -5.685587 0.227507 1.594688
v -5.028301 0.370999 2.610705
v -5.238910 0.370999 2.809743
v -5.437947 0.370999 3.029610
v -5.602269 0.370999 3.200875
v -6.039689 0.222878 2.508872
v -6.109120 0.222878 2.791228
v -6.648373 -0.073364 1.708093
v -6.252613 -0.073364 2.173285
v -6.578941 -0.073364 2.036736
v -6.051261 -0.073364 2.316778
v -6.116064 -0.073364 2.501929
v -5.882310 0.222877 3.182360
v -6.111435 0.222878 3.062011
v -6.190124 -0.073364 2.786599
v -5.368516 0.384885 3.092098
v -5.076903 0.384885 2.964807
v -6.187810 -0.073365 3.112927
v -5.044501 0.519120 1.636347
vt 0.500000 0.500000
vt 0.562500 0.625000
vt 0.562500 0.500000
vt 0.562500 0.625000
vt 0.562500 0.500000
vt 0.437500 0.500000
vt 0.500000 0.625000
vt 0.500000 0.500000
vt 0.562500 0.625000
vt 0.562500 0.500000
vt 0.437500 0.625000
vt 0.500000 0.625000
vt 0.437500 0.500000
vt 0.437500 0.625000
vt 0.500000 0.625000
vt 0.437500 0.500000
vt 0.437500 0.625000
vt 0.500000 0.625000
vt 0.437500 0.500000
vt 0.500000 0.625000
vt 0.562500 0.625000
vt 0.500000 0.500000
vt 0.500000 0.625000
vt 0.562500 0.625000
vt 0.500000 0.500000
vt 0.437500 0.500000
vt 0.500000 0.625000
vt 0.500000 0.500000
vt 0.437500 0.500000
vt 0.500000 0.625000
vt 0.500000 0.500000
vt 0.500000 0.500000
vt 0.562500 0.625000
vt 0.562500 0.500000
vt 0.562500 0.500000
vt 0.500000 0.500000
vt 0.500000 0.625000
vt 0.562500 0.625000
vt 0.500000 0.500000
vt 0.500000 0.625000
vt 0.562500 0.625000
vt 0.500000 0.500000
vt 0.562500 0.500000
vt 0.437500 0.625000
vt 0.500000 0.500000
vt 0.437500 0.500000
vt 0.437500 0.625000
vt 0.437500 0.500000
vt 0.500000 0.625000
vt 0.562500 0.625000
vt 0.500000 0.500000
vt 0.750000 0.875000
vt 0.812500 0.750000
vt 0.750000 0.750000
vt 0.562500 0.625000
vt 0.562500 0.500000
vt 0.187500 0.625000
vt 0.250000 0.500000
vt 0.187500 0.500000
vt 0.187500 0.500000
vt 0.250000 0.625000
vt 0.250000 0.500000
vt 0.375000 0.500000
vt 0.312500 0.625000
vt 0.312500 0.500000
vt 0.000000 1.000000
vt 0.062500 0.875000
vt 0.000000 0.875000
vt 0.812500 0.625000
vt 0.875000 0.750000
vt 0.812500 0.750000
vt 0.875000 0.750000
vt 0.937500 0.625000
vt 0.875000 0.625000
vt 0.500000 0.625000
vt 0.562500 0.750000
vt 0.562500 0.625000
vt 0.312500 0.500000
vt 0.375000 0.625000
vt 0.375000 0.500000
vt 0.437500 0.625000
vt 0.437500 0.500000
vt 0.187500 0.625000
vt 0.250000 0.500000
vt 0.187500 0.500000
vt 0.187500 0.500000
vt 0.125000 0.625000
vt 0.125000 0.500000
vt 0.375000 0.500000
vt 0.375000 0.625000
vt 0.437500 0.500000
vt 0.937500 0.750000
vt 1.000000 0.875000
vt 0.937500 0.875000
vt 1.000000 0.750000
vt 0.937500 0.875000
vt 0.937500 0.750000
vt 0.937500 0.750000
vt 1.000000 0.875000
vt 0.000000 0.625000
vt 0.062500 0.750000
vt 0.000000 0.750000
vt 0.000000 0.625000
vt 0.062500 0.750000
vt 0.000000 0.750000
vt 0.187500 0.500000
vt 0.250000 0.625000
vt 0.250000 0.500000
vt 0.000000 0.625000
vt 0.062500 0.750000
vt 0.000000 0.750000
vt 0.312500 0.500000
vt 0.500000 0.500000
vt 0.562500 0.625000
vt 0.562500 0.500000
vt 0.500000 0.625000
vt 0.500000 0.500000
vt 0.500000 0.625000
vt 0.500000 0.625000
vt 0.437500 0.625000
vt 0.500000 0.625000
vt 0.437500 0.625000
vt 0.437500 0.625000
vt 0.437500 0.625000
vt 0.500000 0.625000
vt 0.500000 0.625000
vt 0.812500 0.875000
vt 0.250000 0.625000
vt 0.187500 0.625000
vt 0.375000 0.625000
vt 0.062500 1.000000
vt 0.875000 0.625000
vt 0.937500 0.750000
vt 0.500000 0.750000
vt 0.312500 0.625000
vt 0.250000 0.625000
vt 0.187500 0.625000
vt 1.000000 0.750000
vt 0.937500 0.875000
vt 0.062500 0.625000
vt 0.062500 0.625000
vt 0.187500 0.625000
vt 0.062500 0.625000
vt 0.312500 0.625000
vt 0.500000 0.625000
vn 0.0062 1.0000 -0.0021
vn -0.7190 0.6721 -0.1771
vn 0.0072 1.0000 0.0001
vn -0.0000 1.0000 0.0000
vn -0.2748 0.7874 0.5517
vn -0.6209 0.7726 0.1327
vn -0.5489 0.6972 0.4612
vn -0.7894 0.5824 -0.1941
vn -0.5755 0.7874 -0.2209
vn 0.4312 0.8346 0.3429
vn 0.0438 0.9989 -0.0139
vn 0.3755 0.8562 0.3548
vn -0.7858 0.5547 -0.2735
vn -0.0092 0.9999 -0.0072
vn -0.7754 0.5498 -0.3105
vn 0.4121 0.8278 0.3806
vn 0.4488 0.7959 0.4063
vn 0.0636 0.9894 0.1305
vn 0.0190 0.9997 0.0169
vn -0.6329 0.7677 -0.1003
vn -0.6077 0.7553 -0.2455
vn 0.0034 0.9998 -0.0195
vn -0.0224 0.9996 -0.0180
vn -0.8685 0.4659 -0.1692
vn -0.1696 0.9045 0.3914
vn 0.0308 0.9989 -0.0348
vn -0.7709 0.6229 -0.1331
vn -0.6144 0.6966 0.3705
vn -0.9832 -0.0610 -0.1723
vn -0.9689 -0.0887 -0.2312
vn -0.9376 -0.0634 -0.3419
vn -0.9098 -0.0216 -0.4144
vn -0.9480 0.2834 -0.1448
vn 0.5894 0.5814 0.5609
vn 0.4999 0.7470 0.4383
vn 0.3640 0.8690 0.3351
vn 0.5802 0.5946 0.5566
vn -0.8974 0.2581 -0.3578
vn -0.9620 0.2417 -0.1272
vn -0.9577 0.2037 0.2035
vn -0.4758 0.1876 0.8593
vn -0.7555 0.2188 0.6175
vn -0.8843 0.3587 0.2989
vn -0.9278 0.2491 -0.2778
vn -0.4263 0.2286 0.8752
vn -0.9181 0.2529 0.3053
vn -0.9580 0.2600 -0.1212
vn -0.0890 0.9918 -0.0913
vn -0.0268 0.9978 -0.0614
vn -0.9680 0.2507 0.0069
usemtl Material__25.022
s 1
f 1/1/1 2/2/2 3/3/3
f 1/1/1 4/4/4 5/5/4
f 6/6/5 1/7/1 5/8/4
f 5/8/4 7/9/6 8/10/7
f 8/11/7 6/12/5 5/13/4
f 6/14/5 9/15/8 10/16/9
f 11/17/10 12/18/11 13/19/12
f 14/20/13 15/21/14 16/22/15
f 17/23/16 18/24/17 19/25/18
f 20/26/19 17/23/16 19/25/18
f 20/26/19 21/27/4 12/28/11
f 22/29/4 23/30/20 21/31/4
f 24/32/4 20/33/19 19/34/18
f 14/20/13 20/35/19 15/36/14
f 25/37/21 22/38/4 14/39/13
f 11/40/10 17/41/16 12/28/11
f 26/42/22 15/21/14 24/43/4
f 16/44/15 27/45/23 28/46/24
f 29/47/25 12/28/11 21/48/4
f 27/49/23 26/50/22 30/51/26
f 27/52/23 31/53/27 28/54/24
f 21/31/4 32/55/28 29/56/25
f 28/57/24 33/58/29 34/59/30
f 35/60/31 28/61/24 34/62/30
f 36/63/32 16/64/15 35/65/31
f 36/66/32 10/67/9 9/68/8
f 2/69/2 35/70/31 34/71/30
f 34/72/30 37/73/33 2/74/2
f 38/75/34 17/76/16 39/77/35
f 39/78/35 11/79/10 40/80/36
f 40/80/36 13/81/12 41/82/37
f 23/83/20 42/84/38 43/85/39
f 42/86/38 36/87/32 9/88/8
f 14/89/13 36/90/32 25/91/21
f 44/92/40 8/93/7 7/94/6
f 45/95/41 8/96/7 46/97/42
f 47/98/43 6/99/5 45/95/41
f 47/100/43 42/101/38 9/102/8
f 48/103/44 43/104/39 42/105/38
f 49/106/45 32/107/28 50/108/46
f 51/109/47 50/110/46 43/111/39
f 32/107/28 43/112/39 50/108/46
f 39/113/35 52/114/48 53/115/49
f 41/116/37 52/114/48 40/117/36
f 1/1/1 10/118/9 2/2/2
f 1/1/1 3/119/3 4/4/4
f 6/6/5 10/120/9 1/7/1
f 5/8/4 4/121/4 7/9/6
f 20/26/19 12/122/11 17/23/16
f 20/26/19 22/123/4 21/27/4
f 22/29/4 25/124/21 23/30/20
f 24/32/4 15/125/14 20/33/19
f 14/20/13 22/38/4 20/35/19
f 26/42/22 27/49/23 15/21/14
f 16/44/15 15/125/14 27/45/23
f 29/47/25 13/126/12 12/28/11
f 27/52/23 30/127/26 31/53/27
f 21/31/4 23/30/20 32/55/28
f 28/57/24 31/128/27 33/58/29
f 35/60/31 16/129/15 28/61/24
f 36/63/32 14/130/13 16/64/15
f 36/66/32 35/131/31 10/67/9
f 2/69/2 10/132/9 35/70/31
f 34/72/30 33/133/29 37/73/33
f 38/75/34 18/134/17 17/76/16
f 39/78/35 17/135/16 11/79/10
f 40/80/36 11/79/10 13/81/12
f 23/83/20 25/136/21 42/84/38
f 42/86/38 25/137/21 36/87/32
f 44/92/40 46/138/42 8/93/7
f 45/95/41 6/99/5 8/96/7
f 47/98/43 9/139/8 6/99/5
f 47/100/43 48/140/44 42/101/38
f 48/103/44 51/141/47 43/104/39
f 49/106/45 29/142/25 32/107/28
f 51/109/47 54/143/50 50/110/46
f 32/107/28 23/144/20 43/112/39
f 39/113/35 40/145/36 52/114/48
l 55 30
