# Blender v2.79 (sub 0) OBJ File: ''
# www.blender.org
mtllib hurricos.050.mtl
o hurricos.050_hurricos.114_tex_72.049
v 0.514662 1.148634 -2.559640
v 0.591036 0.815362 -2.346717
v 0.415143 0.815362 -2.689246
v 0.614181 1.148634 -2.279599
v 0.769244 0.815362 -1.939384
v 0.665096 0.815362 -2.147679
v 0.716013 1.157892 -2.001873
v 0.523919 0.634840 -2.721648
v 0.486889 0.634840 -2.804966
v 0.523919 0.634840 -2.804966
v 0.486889 0.551522 -2.804966
v 0.523919 0.551522 -2.804966
v 0.523919 0.551522 -2.721648
v 0.486889 0.551522 -2.721648
v 0.486889 0.634840 -2.721648
v 0.523919 0.519120 -2.837367
v 0.523919 0.815362 -2.837367
v 0.523919 0.519120 -2.689246
v 0.523919 0.815362 -2.689246
v 0.415143 1.417104 -2.839682
v 0.523919 1.259725 -3.133609
v 0.415143 1.417104 -3.133609
v 0.415143 1.417104 -3.427536
v 0.523919 1.259726 -3.462252
v 0.415143 0.519120 -2.689246
v 0.591036 0.519120 -2.346717
v 0.674355 0.519121 -3.145181
v 0.523919 0.519121 -3.429851
v 0.523919 0.519121 -3.133609
v 0.674355 0.519120 -2.837367
v 0.111958 1.148634 -2.629072
v 0.091128 1.486535 -2.612871
v 0.415143 1.148634 -2.772564
v 0.415143 1.255097 -3.459938
v 0.523919 1.259725 -2.807280
v 0.523919 1.111604 -2.927629
v 0.523919 1.111605 -3.341904
v 0.523919 1.111604 -3.133609
v 0.345711 1.546709 -1.974100
v 0.331824 1.157892 -1.883839
v -0.047735 1.157892 -1.888468
v -0.434238 1.139377 -2.057418
v -0.420352 1.157892 -1.768119
v 0.250821 1.148634 -2.191653
v -0.098652 1.148634 -2.117592
v -0.450438 1.139377 -2.286542
v 0.167503 1.148634 -2.436978
v -0.151882 1.148634 -2.346717
v -0.202799 1.130119 -2.575841
v -0.198171 1.477277 -2.543440
v 0.665096 0.519120 -2.147679
v 0.803960 0.519120 -1.872267
v 0.970596 0.514491 -2.214797
v 0.970596 0.514491 -2.541125
v 0.709070 0.519120 -2.578156
v 1.266838 0.519120 -2.244884
v 0.975224 0.519120 -1.939384
v 1.301554 0.519120 -1.948642
v 1.266838 0.519120 -2.541125
v 0.970596 0.519120 -2.837367
v 0.970596 0.519121 -3.133609
v 1.266838 0.519120 -2.837367
v 1.266838 0.519121 -3.133609
v 1.266838 0.519121 -3.429851
v 0.970596 0.542265 -3.429851
v 0.970596 1.417103 -1.652400
v 0.970596 1.111604 -1.652400
v 0.533176 1.505050 -1.682487
v 0.729899 1.505050 -2.071304
v 0.183703 1.551338 -1.694059
v -0.087080 1.588369 -2.906799
v -0.267602 1.588369 -2.904485
v 0.118901 1.454135 -3.360419
v 0.118901 1.468020 -3.059549
v -0.094023 1.542081 -3.256272
v -0.091708 1.565225 -3.080378
v -0.094023 1.662429 -3.358105
v -0.094023 1.861467 -3.330332
v -0.094023 1.685574 -3.293302
v -0.091708 1.690202 -3.223870
v -0.089395 1.810550 -3.061863
v -0.091708 1.662428 -3.159067
v -0.091708 1.616141 -3.108151
v -0.089395 1.713346 -2.962344
v -0.094023 1.611513 -3.406707
v -0.096337 1.560596 -3.432165
v -0.269917 1.810550 -3.059548
v -0.267602 1.713346 -2.957715
v -0.124110 1.912384 -3.496968
v -0.274546 1.805922 -3.455309
v -0.249087 1.912384 -3.496968
v -0.237515 1.634656 -2.802651
v -0.112538 1.634656 -2.802651
v -0.114852 1.755005 -2.853568
v -0.239829 1.755005 -2.853568
v -0.117167 1.921641 -3.022518
v -0.242144 1.921641 -3.022518
v -0.117167 1.967929 -3.142867
v -0.244458 1.967929 -3.140552
v -0.269917 1.866095 -3.189154
v -0.272231 1.861467 -3.328018
v -0.121796 1.963300 -3.378934
v -0.246773 1.963300 -3.376620
v -0.029220 0.519120 -2.837367
v -0.325461 0.519120 -2.668417
v -0.029220 0.519120 -2.668417
v -0.029220 0.519121 -3.147496
v -0.325461 0.519120 -2.837367
v -0.029220 0.519121 -3.429851
v -0.325461 0.519121 -3.147496
v -0.325461 0.519120 -2.552697
v -0.061622 1.222695 -2.987803
v -0.295375 1.111604 -2.765621
v -0.295375 1.222695 -2.987803
v 0.415143 0.519121 -3.147496
v 0.415143 0.519121 -3.429851
v 0.415143 0.519120 -2.837367
v 0.415143 1.111604 -3.133609
v 0.415143 1.111604 -2.927629
v 0.415143 1.111605 -3.341904
v 0.415143 0.815363 -3.429851
v 0.523919 0.815363 -3.429851
v 0.415143 0.815362 -2.837367
v 0.267022 1.111604 -3.133609
v 0.267022 1.111605 -3.341904
v 0.267022 1.111604 -2.927629
v 0.169818 1.111604 -3.131295
v 0.169818 1.111604 -2.899856
v 0.169818 1.111605 -3.365048
v 0.218420 0.815363 -3.397449
v 0.267022 0.519121 -3.429851
v 0.267022 0.815363 -3.429851
v 0.267022 0.815362 -2.837367
v 0.267022 0.519120 -2.837367
v 0.218420 0.815362 -2.867454
v 0.267022 0.519121 -3.147496
v -0.061622 1.222695 -3.288673
v -0.061622 1.111604 -2.765621
v -0.295375 1.222695 -3.288673
v -0.061622 1.111605 -3.494654
v -0.295375 1.111605 -3.494654
v -0.045421 0.815362 -2.714705
v -0.045421 0.815362 -2.656845
v -0.311576 0.815362 -2.656845
v 0.674355 0.519121 -3.429851
v 0.716013 1.514307 -1.367730
v -0.459697 1.509679 -2.506409
v -0.096337 1.805922 -3.457623
v -0.091708 1.866095 -3.191469
v -0.325461 0.519121 -3.429851
v -0.029220 0.519120 -2.552697
vt 0.375000 0.625000
vt 0.312500 0.500000
vt 0.375000 0.500000
vt 0.312500 0.625000
vt 0.187500 0.625000
vt 0.125000 0.500000
vt 0.187500 0.500000
vt 0.125000 0.625000
vt 0.625000 0.875000
vt 0.687500 0.750000
vt 0.625000 0.750000
vt 0.625000 0.875000
vt 0.687500 0.750000
vt 0.625000 0.750000
vt 0.562500 0.875000
vt 0.500000 1.000000
vt 0.500000 0.875000
vt 0.625000 0.875000
vt 0.625000 0.750000
vt 0.687500 0.875000
vt 0.625000 0.875000
vt 0.375000 0.875000
vt 0.312500 1.000000
vt 0.312500 0.875000
vt 0.625000 0.750000
vt 0.687500 0.875000
vt 0.625000 0.875000
vt 0.625000 0.750000
vt 0.687500 0.875000
vt 0.500000 0.625000
vt 0.562500 0.500000
vt 0.500000 0.500000
vt 0.437500 0.500000
vt 0.500000 0.625000
vt 0.500000 0.500000
vt 0.500000 0.625000
vt 0.562500 0.625000
vt 0.500000 0.500000
vt 0.812500 1.000000
vt 0.875000 0.875000
vt 0.812500 0.875000
vt 0.937500 0.875000
vt 1.000000 1.000000
vt 1.000000 0.875000
vt 0.312500 0.500000
vt 0.375000 0.625000
vt 0.312500 0.625000
vt 0.500000 0.625000
vt 0.562500 0.625000
vt 0.500000 0.500000
vt 0.500000 0.625000
vt 0.562500 0.625000
vt 0.500000 0.500000
vt 0.500000 0.625000
vt 0.562500 0.500000
vt 0.500000 0.500000
vt 0.562500 0.625000
vt 0.500000 0.500000
vt 0.625000 0.875000
vt 0.687500 0.750000
vt 0.625000 0.750000
vt 0.000000 0.750000
vt 0.062500 0.875000
vt 0.062500 0.750000
vt 0.500000 0.625000
vt 0.562500 0.500000
vt 0.500000 0.500000
vt 0.437500 0.750000
vt 0.500000 0.875000
vt 0.500000 0.750000
vt 0.875000 0.875000
vt 0.937500 1.000000
vt 0.875000 1.000000
vt 0.000000 0.750000
vt 0.062500 0.875000
vt 0.062500 0.750000
vt 0.500000 0.750000
vt 0.562500 0.625000
vt 0.500000 0.625000
vt 0.500000 0.625000
vt 0.562500 0.500000
vt 0.500000 0.500000
vt 0.437500 0.625000
vt 0.500000 0.500000
vt 0.437500 0.500000
vt 0.437500 0.625000
vt 0.500000 0.500000
vt 0.437500 0.500000
vt 0.500000 0.625000
vt 0.562500 0.500000
vt 0.500000 0.500000
vt 0.500000 0.500000
vt 0.562500 0.625000
vt 0.562500 0.500000
vt 0.437500 0.500000
vt 0.500000 0.625000
vt 0.500000 0.500000
vt 0.437500 0.500000
vt 0.500000 0.500000
vt 0.562500 0.750000
vt 0.562500 0.625000
vt 0.875000 0.750000
vt 0.937500 0.625000
vt 0.875000 0.625000
vt 0.000000 0.500000
vt 0.062500 0.625000
vt 0.062500 0.500000
vt 0.875000 0.750000
vt 0.937500 0.625000
vt 0.875000 0.625000
vt 0.312500 0.500000
vt 0.250000 0.500000
vt 0.500000 0.625000
vt 0.562500 0.625000
vt 0.500000 0.500000
vt 0.437500 0.500000
vt 0.500000 0.625000
vt 0.500000 0.500000
vt 0.500000 0.625000
vt 0.562500 0.500000
vt 0.500000 0.500000
vt 0.500000 0.625000
vt 0.562500 0.500000
vt 0.500000 0.500000
vt 0.437500 0.500000
vt 0.500000 0.625000
vt 0.500000 0.500000
vt 0.562500 0.625000
vt 0.562500 0.625000
vt 0.562500 0.500000
vt 0.500000 0.500000
vt 0.562500 0.500000
vt 0.500000 0.625000
vt 0.500000 0.500000
vt 0.500000 0.500000
vt 0.562500 0.625000
vt 0.562500 0.500000
vt 0.500000 0.625000
vt 0.500000 0.625000
vt 0.562500 0.500000
vt 0.187500 0.500000
vt 0.250000 0.625000
vt 0.250000 0.500000
vt 0.437500 0.625000
vt 0.500000 0.500000
vt 0.437500 0.500000
vt 0.500000 0.500000
vt 0.437500 0.500000
vt 0.437500 0.500000
vt 0.500000 0.625000
vt 0.500000 0.500000
vt 0.500000 0.625000
vt 0.562500 0.500000
vt 0.500000 0.500000
vt 0.437500 0.625000
vt 0.437500 0.500000
vt 0.500000 0.625000
vt 0.500000 0.500000
vt 0.500000 0.625000
vt 0.562500 0.500000
vt 0.500000 0.500000
vt 0.500000 0.625000
vt 0.562500 0.625000
vt 0.500000 0.500000
vt 0.625000 0.750000
vt 0.687500 0.875000
vt 0.687500 0.750000
vt 0.625000 0.875000
vt 0.687500 0.750000
vt 0.625000 0.750000
vt 0.625000 0.750000
vt 0.687500 0.875000
vt 0.687500 0.750000
vt 0.625000 0.875000
vt 0.687500 0.750000
vt 0.625000 0.750000
vt 0.625000 0.875000
vt 0.687500 0.750000
vt 0.625000 0.750000
vt 0.312500 0.875000
vt 0.375000 0.875000
vt 0.312500 0.750000
vt 0.687500 0.750000
vt 0.625000 0.750000
vt 0.625000 0.875000
vt 0.687500 0.750000
vt 0.625000 0.750000
vt 0.312500 0.875000
vt 0.312500 0.750000
vt 0.312500 0.875000
vt 0.312500 0.750000
vt 0.312500 0.875000
vt 0.312500 0.750000
vt 0.312500 0.875000
vt 0.312500 0.750000
vt 0.312500 0.875000
vt 0.312500 0.750000
vt 0.312500 0.875000
vt 0.312500 0.750000
vt 0.625000 0.750000
vt 0.687500 0.875000
vt 0.687500 0.750000
vt 0.687500 0.875000
vt 0.687500 0.750000
vt 0.625000 0.875000
vt 0.687500 0.750000
vt 0.625000 0.750000
vt 0.625000 0.750000
vt 0.687500 0.875000
vt 0.687500 0.750000
vt 0.625000 0.875000
vt 0.687500 0.750000
vt 0.625000 0.750000
vt 0.687500 0.875000
vt 0.687500 0.750000
vt 0.687500 0.750000
vt 0.625000 0.750000
vt 0.625000 0.750000
vt 0.687500 0.750000
vt 0.625000 0.875000
vt 0.687500 0.750000
vt 0.625000 0.750000
vt 0.625000 0.750000
vt 0.687500 0.875000
vt 0.687500 0.750000
vt 0.625000 0.750000
vt 0.687500 0.875000
vt 0.687500 0.750000
vt 0.687500 0.750000
vt 0.625000 0.750000
vt 0.625000 0.875000
vt 0.687500 0.750000
vt 0.625000 0.750000
vt 0.625000 0.875000
vt 0.687500 0.750000
vt 0.625000 0.750000
vt 0.625000 0.875000
vt 0.687500 0.750000
vt 0.625000 0.750000
vt 0.625000 0.875000
vt 0.687500 0.750000
vt 0.625000 0.750000
vt 0.687500 0.750000
vt 0.625000 0.875000
vt 0.625000 0.750000
vt 0.687500 0.750000
vt 0.625000 0.750000
vt 0.625000 0.875000
vt 0.687500 0.750000
vt 0.625000 0.750000
vt 0.875000 1.000000
vt 0.875000 0.875000
vt 0.437500 1.000000
vt 0.500000 0.875000
vt 0.437500 0.875000
vt 0.437500 1.000000
vt 0.500000 0.875000
vt 0.437500 0.875000
vt 0.437500 1.000000
vt 0.500000 0.875000
vt 0.437500 0.875000
vt 0.437500 1.000000
vt 0.500000 0.875000
vt 0.437500 0.875000
vt 0.437500 1.000000
vt 0.500000 0.875000
vt 0.437500 0.875000
vt 0.437500 1.000000
vt 0.500000 0.875000
vt 0.437500 0.875000
vt 0.625000 0.875000
vt 0.687500 0.750000
vt 0.625000 0.750000
vt 0.625000 0.875000
vt 0.687500 0.750000
vt 0.625000 0.750000
vt 0.625000 0.750000
vt 0.687500 0.875000
vt 0.687500 0.750000
vt 0.625000 0.875000
vt 0.687500 0.750000
vt 0.625000 0.750000
vt 0.625000 0.875000
vt 0.687500 0.875000
vt 0.625000 0.750000
vt 0.625000 0.875000
vt 0.687500 0.875000
vt 0.625000 0.750000
vt 0.687500 0.750000
vt 0.687500 0.750000
vt 0.625000 0.875000
vt 0.687500 0.750000
vt 0.687500 0.750000
vt 0.625000 0.750000
vt 0.625000 0.875000
vt 0.687500 0.750000
vt 0.625000 0.750000
vt 0.687500 0.750000
vt 0.625000 0.750000
vt 0.625000 0.875000
vt 0.687500 0.750000
vt 0.625000 0.750000
vt 0.625000 0.875000
vt 0.687500 0.750000
vt 0.625000 0.750000
vt 0.625000 0.875000
vt 0.687500 0.750000
vt 0.687500 0.875000
vt 0.687500 0.875000
vt 0.625000 0.875000
vt 0.625000 0.750000
vt 0.687500 0.875000
vt 0.625000 0.875000
vt 0.687500 0.875000
vt 0.625000 0.875000
vt 0.812500 0.875000
vt 0.750000 1.000000
vt 0.750000 0.875000
vt 0.687500 0.750000
vt 0.625000 0.875000
vt 0.625000 0.750000
vt 0.625000 0.750000
vt 0.625000 0.750000
vt 0.687500 0.875000
vt 0.437500 0.750000
vt 0.500000 0.875000
vt 0.500000 0.750000
vt 0.687500 0.750000
vt 0.750000 1.000000
vt 0.812500 1.000000
vt 0.750000 0.875000
vt 0.750000 1.000000
vt 0.812500 0.875000
vt 0.812500 0.875000
vt 0.750000 0.875000
vt 0.750000 0.875000
vt 0.812500 1.000000
vt 0.812500 0.875000
vt 0.687500 0.875000
vt 0.687500 0.875000
vt 0.562500 1.000000
vt 0.687500 0.750000
vt 0.375000 1.000000
vt 0.687500 0.750000
vt 0.687500 0.750000
vt 0.562500 0.625000
vt 0.437500 0.625000
vt 0.875000 1.000000
vt 0.937500 1.000000
vt 0.375000 0.500000
vt 0.687500 0.875000
vt 0.000000 0.875000
vt 0.437500 0.875000
vt 0.937500 0.875000
vt 0.000000 0.875000
vt 0.562500 0.750000
vt 0.562500 0.625000
vt 0.562500 0.625000
vt 0.437500 0.625000
vt 0.500000 0.750000
vt 0.937500 0.750000
vt 0.000000 0.625000
vt 0.937500 0.750000
vt 0.437500 0.625000
vt 0.562500 0.625000
vt 0.562500 0.625000
vt 0.437500 0.625000
vt 0.500000 0.625000
vt 0.500000 0.625000
vt 0.562500 0.625000
vt 0.562500 0.625000
vt 0.187500 0.625000
vt 0.500000 0.625000
vt 0.500000 0.625000
vt 0.437500 0.625000
vt 0.562500 0.625000
vt 0.562500 0.625000
vt 0.625000 0.875000
vt 0.687500 0.875000
vt 0.625000 0.875000
vt 0.687500 0.875000
vt 0.625000 0.875000
vt 0.625000 0.875000
vt 0.625000 0.875000
vt 0.625000 0.875000
vt 0.625000 0.875000
vt 0.687500 0.875000
vt 0.687500 0.875000
vt 0.687500 0.875000
vt 0.687500 0.875000
vt 0.687500 0.875000
vt 0.500000 1.000000
vt 0.500000 1.000000
vt 0.500000 1.000000
vt 0.500000 1.000000
vt 0.500000 1.000000
vt 0.500000 1.000000
vt 0.687500 0.875000
vt 0.687500 0.875000
vt 0.625000 0.875000
vt 0.687500 0.875000
vt 0.625000 0.875000
vt 0.687500 0.875000
vt 0.687500 0.875000
vt 0.687500 0.875000
vt 0.687500 0.875000
vt 0.687500 0.875000
vt 0.687500 0.875000
vt 0.687500 0.875000
vt 0.687500 0.875000
vt 0.812500 1.000000
vt 0.437500 0.875000
vt 0.812500 1.000000
vt 0.812500 1.000000
vt 0.750000 1.000000
vn 0.6760 0.6724 -0.3016
vn 0.9201 -0.0123 -0.3914
vn 0.8818 0.0626 0.4674
vn 0.6540 0.7099 -0.2615
vn 0.9033 0.0076 -0.4289
vn 0.9143 -0.0117 -0.4048
vn 0.6186 0.2711 -0.7375
vn 0.9045 -0.3015 -0.3015
vn 0.5774 -0.5774 0.5774
vn 0.9045 -0.3015 0.3015
vn 0.5774 0.5774 0.5774
vn 0.9045 0.3015 0.3015
vn 0.9045 0.3015 -0.3015
vn 0.5774 0.5774 -0.5774
vn 0.5774 -0.5774 -0.5774
vn 0.3015 0.9045 -0.3015
vn 0.7418 -0.0988 -0.6633
vn 0.3015 0.9045 0.3015
vn 0.6806 0.0906 0.7270
vn 0.5593 0.7239 0.4039
vn 0.9546 0.2978 0.0000
vn 0.5310 0.8473 -0.0070
vn 0.5337 0.8228 -0.1954
vn 0.8191 0.4047 -0.4065
vn 0.7091 0.5564 0.4330
vn 0.6381 0.7180 -0.2781
vn -0.0104 0.9999 0.0100
vn -0.0000 0.8944 0.4472
vn -0.0000 1.0000 0.0000
vn 0.2416 0.7440 0.6230
vn 0.3914 0.6072 0.6914
vn 0.3998 0.5022 0.7668
vn -0.0292 0.1960 -0.9802
vn 0.7401 0.3368 0.5820
vn 0.8682 -0.3988 -0.2954
vn 0.6669 -0.5972 0.4457
vn 0.7071 -0.7071 -0.0000
vn -0.0550 0.8341 -0.5489
vn -0.1472 0.8564 -0.4948
vn -0.0156 0.9991 -0.0402
vn -0.0260 0.9993 -0.0273
vn -0.0203 0.9978 -0.0629
vn -0.0024 0.9999 -0.0155
vn -0.0175 0.9997 -0.0169
vn -0.0281 0.9996 0.0038
vn -0.0243 0.9996 -0.0110
vn 0.0790 0.6994 0.7104
vn 0.1623 0.7446 0.6475
vn 0.6624 0.6906 -0.2905
vn 0.5544 0.7839 -0.2795
vn -0.0017 1.0000 -0.0080
vn 0.0005 1.0000 0.0075
vn 0.0063 1.0000 0.0032
vn -0.0118 0.9999 -0.0036
vn -0.0007 1.0000 -0.0084
vn -0.0117 0.9999 0.0039
vn -0.0000 1.0000 0.0039
vn 0.0090 0.9995 0.0288
vn 0.0390 0.9985 0.0390
vn 0.0191 0.9981 0.0589
vn 0.6751 0.6325 -0.3798
vn 0.8083 0.0000 -0.5888
vn 0.1637 0.9863 0.0211
vn 0.3597 0.5290 -0.7686
vn 0.1292 0.9899 0.0584
vn 0.7670 0.5922 0.2469
vn 0.0819 0.5483 0.8322
vn 0.2287 0.9730 -0.0312
vn 0.3024 0.9520 -0.0476
vn 0.8952 0.4434 -0.0463
vn 0.8452 0.5278 -0.0845
vn 1.0000 0.0004 -0.0032
vn 0.8495 0.4939 0.1856
vn 0.9999 -0.0037 -0.0162
vn 0.9998 -0.0074 -0.0185
vn 0.8518 0.1954 0.4861
vn 0.9999 -0.0117 -0.0076
vn 0.9999 -0.0083 -0.0108
vn 0.8472 0.5028 0.1715
vn 0.9997 -0.0208 -0.0096
vn 0.9992 -0.0369 -0.0170
vn 0.0123 0.2818 0.9594
vn 0.0062 0.9715 0.2370
vn 0.4910 0.3678 -0.7897
vn -0.0058 -0.3572 -0.9340
vn 0.0000 0.3240 -0.9461
vn 0.0026 -0.4294 0.9031
vn 0.5108 -0.2862 0.8107
vn 0.5012 0.7857 0.3626
vn -0.0046 0.9482 0.3177
vn 0.5033 0.3919 0.7701
vn 0.0021 0.3701 0.9290
vn 0.5014 0.8130 -0.2959
vn -0.0076 0.9075 -0.4201
vn -0.0079 0.8610 -0.5085
vn 0.0076 0.8794 0.4759
vn 0.5058 0.8208 0.2653
vn 0.0100 0.9097 0.4151
vn -0.5207 0.8076 -0.2767
vn 0.0000 0.5944 -0.8042
vn -0.1870 -0.9618 -0.2000
vn 0.0000 -0.6618 -0.7497
vn 0.0000 -0.9732 -0.2298
vn 0.0000 0.7071 0.7071
vn -0.0000 0.7071 -0.7071
vn 0.0000 -1.0000 -0.0000
vn 0.0000 -0.8036 -0.5952
vn 0.0000 -0.8014 0.5981
vn 0.0000 -0.1438 0.9896
vn 0.0000 -0.1473 -0.9891
vn -0.0421 -0.8056 0.5909
vn -0.0543 -0.8122 -0.5808
vn -0.2219 -0.9751 -0.0000
vn -0.3743 -0.7048 -0.6026
vn -0.2748 -0.8533 0.4430
vn 0.4845 -0.1330 0.8646
vn 0.0301 0.8752 0.4827
vn 0.2807 -0.1351 0.9502
vn 0.2650 -0.1392 -0.9541
vn -0.1358 0.7440 -0.6542
vn -0.0232 -0.1748 -0.9843
vn -0.1873 -0.9583 0.2156
vn -0.2349 -0.6015 -0.7635
vn 0.0000 -0.9696 0.2448
vn -0.1082 -0.8750 0.4719
vn 0.0000 -0.8802 0.4747
vn -0.8621 -0.1276 -0.4904
vn -0.6981 -0.2755 -0.6609
vn 0.0000 -0.3380 -0.9412
vn -0.0390 0.9992 0.0000
vn 0.2047 0.9677 -0.1474
vn 0.1552 0.9522 0.2631
vn 0.8900 -0.0440 -0.4539
vn 0.8359 0.4938 -0.2398
vn -0.5760 0.4676 -0.6705
usemtl Material__25.083
s 1
f 1/1/1 2/2/2 3/3/3
f 2/2/2 1/1/1 4/4/4
f 4/5/4 5/6/5 6/7/6
f 5/6/5 4/5/4 7/8/7
f 8/9/8 9/10/9 10/11/10
f 10/12/10 11/13/11 12/14/12
f 13/15/13 11/16/11 14/17/14
f 11/13/11 15/18/15 14/19/14
f 10/11/10 16/20/16 17/21/17
f 16/22/16 13/23/13 18/24/18
f 18/25/18 8/26/8 19/27/19
f 8/28/8 17/29/17 19/27/19
f 20/30/20 21/31/21 22/32/22
f 23/33/23 21/34/21 24/35/24
f 25/36/25 26/37/26 18/38/18
f 27/39/27 28/40/28 29/41/29
f 29/42/29 30/43/29 27/44/27
f 31/45/30 20/46/20 32/47/31
f 33/48/32 1/49/1 3/50/3
f 24/51/24 34/52/33 23/53/23
f 31/54/30 1/55/1 33/56/32
f 20/30/20 33/57/32 35/58/34
f 3/59/3 18/60/18 19/61/19
f 19/62/19 33/63/32 3/64/3
f 18/65/18 30/66/29 16/67/16
f 36/68/35 19/69/19 17/70/17
f 37/71/36 21/72/21 38/73/37
f 36/74/35 21/75/21 35/76/34
f 39/77/38 7/78/7 40/79/39
f 41/80/40 42/81/41 43/82/42
f 41/83/40 44/84/43 45/85/44
f 4/86/4 40/87/39 7/88/7
f 45/89/44 46/90/45 42/91/41
f 45/92/44 47/93/29 48/94/46
f 1/95/1 44/96/43 4/97/4
f 48/98/46 31/54/30 49/99/47
f 31/54/30 50/100/48 49/101/47
f 3/102/3 26/103/26 25/104/25
f 51/105/49 5/106/5 52/107/50
f 2/108/2 51/109/49 26/110/26
f 6/111/6 2/112/2 4/4/4
f 53/113/51 54/114/52 55/115/53
f 56/116/54 57/117/55 58/118/29
f 51/119/49 57/120/55 53/121/51
f 54/122/52 56/123/54 59/124/56
f 53/125/51 26/126/26 51/127/49
f 26/126/26 55/128/53 18/38/18
f 59/124/56 60/129/57 54/130/52
f 60/131/57 55/128/53 54/130/52
f 61/132/58 62/133/29 63/134/29
f 61/135/58 30/136/29 60/137/57
f 64/138/59 61/132/58 63/134/29
f 65/139/60 27/140/27 61/135/58
f 7/141/7 66/142/61 67/143/62
f 68/144/63 66/145/61 69/146/64
f 68/144/63 39/147/38 70/148/65
f 32/149/31 71/150/66 50/151/48
f 72/152/67 50/153/48 71/154/66
f 73/155/68 22/32/22 23/33/23
f 20/156/20 74/157/69 32/158/31
f 75/159/70 74/160/69 73/161/68
f 76/162/71 71/163/66 74/164/69
f 77/165/72 78/166/73 79/167/74
f 78/168/73 80/169/75 79/170/74
f 80/171/75 81/172/76 82/173/77
f 81/174/76 83/175/78 82/176/77
f 84/177/79 76/178/71 83/179/78
f 85/180/80 75/181/70 86/182/81
f 84/177/79 87/183/82 88/184/83
f 89/185/84 90/186/85 91/187/86
f 80/188/75 75/181/70 79/189/74
f 82/190/77 75/181/70 80/191/75
f 83/192/78 75/181/70 82/193/77
f 76/194/71 75/181/70 83/195/78
f 77/196/72 75/181/70 85/197/80
f 79/198/74 75/181/70 77/199/72
f 92/200/87 71/201/66 93/202/88
f 92/200/87 94/203/89 95/204/90
f 71/205/66 94/206/89 93/207/88
f 95/208/90 84/209/79 88/210/83
f 87/211/82 96/212/91 97/213/92
f 97/213/92 98/214/93 99/215/94
f 81/174/76 98/216/93 96/217/91
f 100/218/95 78/166/73 101/219/96
f 98/220/93 100/221/95 99/222/94
f 101/223/96 102/224/97 103/225/98
f 103/226/98 89/227/84 91/228/86
f 78/168/73 89/229/84 102/230/97
f 104/231/29 105/232/29 106/233/99
f 107/234/29 108/235/29 104/236/29
f 109/237/29 110/238/29 107/239/29
f 111/240/100 106/241/99 105/242/29
f 112/243/101 113/244/102 114/245/103
f 14/246/14 8/9/8 13/247/13
f 115/248/29 28/249/28 116/250/104
f 117/251/105 29/42/29 115/252/29
f 118/253/106 36/254/35 119/255/107
f 38/256/37 120/257/108 37/258/36
f 37/259/36 121/260/109 122/261/109
f 122/262/109 116/263/104 28/264/28
f 123/265/110 16/266/16 117/267/105
f 119/268/107 17/269/17 123/270/110
f 120/271/108 124/272/106 125/273/111
f 118/274/106 126/275/112 124/276/106
f 127/277/113 126/278/112 128/279/114
f 125/280/111 127/281/113 129/282/115
f 130/283/116 131/284/117 132/285/118
f 133/286/119 134/287/120 135/288/121
f 135/288/121 126/278/112 133/289/119
f 125/280/111 130/290/116 132/285/118
f 121/291/109 131/292/117 116/250/104
f 120/271/108 132/293/118 121/294/109
f 134/295/120 123/296/110 117/297/105
f 133/286/119 119/298/107 123/299/110
f 131/300/117 107/301/29 136/302/29
f 117/303/105 136/304/29 134/305/120
f 115/248/29 131/292/117 136/302/29
f 136/306/29 104/307/29 134/305/120
f 104/231/29 106/308/99 134/305/120
f 127/277/113 137/309/122 129/310/115
f 128/311/114 138/312/123 112/313/101
f 128/311/114 112/314/101 127/315/113
f 137/316/122 114/317/103 139/318/124
f 140/319/125 139/320/124 141/321/126
f 112/322/101 137/309/122 127/315/113
f 137/323/122 140/324/125 129/310/115
f 128/325/114 142/326/127 138/327/123
f 135/288/121 106/308/99 142/328/127
f 143/329/128 138/330/123 142/331/127
f 106/332/99 143/333/128 142/331/127
f 143/329/128 113/334/102 138/335/123
f 143/336/128 111/337/100 144/338/129
f 8/9/8 15/339/15 9/10/9
f 10/12/10 9/340/9 11/13/11
f 13/15/13 12/341/12 11/16/11
f 11/13/11 9/340/9 15/18/15
f 10/11/10 12/342/12 16/20/16
f 16/22/16 12/343/12 13/23/13
f 18/25/18 13/344/13 8/26/8
f 8/28/8 10/345/10 17/29/17
f 20/30/20 35/346/34 21/31/21
f 23/33/23 22/347/22 21/34/21
f 27/39/27 145/348/130 28/40/28
f 29/42/29 16/349/16 30/43/29
f 31/45/30 33/350/32 20/46/20
f 31/54/30 47/93/29 1/55/1
f 3/59/3 25/351/25 18/60/18
f 19/62/19 35/352/34 33/63/32
f 18/65/18 55/128/53 30/66/29
f 36/68/35 35/353/34 19/69/19
f 37/71/36 24/354/24 21/72/21
f 36/74/35 38/355/37 21/75/21
f 39/77/38 69/356/64 7/78/7
f 41/80/40 45/357/44 42/81/41
f 41/83/40 40/79/39 44/84/43
f 4/86/4 44/96/43 40/87/39
f 45/89/44 48/358/46 46/90/45
f 45/92/44 44/96/43 47/93/29
f 1/95/1 47/359/29 44/96/43
f 48/98/46 47/359/29 31/54/30
f 31/54/30 32/360/31 50/100/48
f 3/102/3 2/361/2 26/103/26
f 51/105/49 6/362/6 5/106/5
f 2/108/2 6/363/6 51/109/49
f 56/116/54 53/364/51 57/117/55
f 51/119/49 52/365/50 57/120/55
f 54/122/52 53/366/51 56/123/54
f 53/125/51 55/367/53 26/126/26
f 59/124/56 62/133/29 60/129/57
f 60/131/57 30/368/29 55/128/53
f 61/132/58 60/129/57 62/133/29
f 61/135/58 27/369/27 30/136/29
f 64/138/59 65/370/60 61/132/58
f 65/139/60 145/371/130 27/140/27
f 7/141/7 69/372/64 66/142/61
f 68/144/63 146/373/131 66/145/61
f 68/144/63 69/374/64 39/147/38
f 32/149/31 74/375/69 71/150/66
f 72/152/67 147/376/132 50/153/48
f 73/155/68 74/157/69 22/32/22
f 20/156/20 22/347/22 74/157/69
f 75/159/70 76/377/71 74/160/69
f 77/165/72 148/378/133 78/166/73
f 78/168/73 149/379/134 80/169/75
f 80/171/75 149/380/134 81/172/76
f 81/174/76 84/209/79 83/175/78
f 84/177/79 71/201/66 76/178/71
f 84/177/79 81/172/76 87/183/82
f 89/185/84 148/381/133 90/186/85
f 92/200/87 72/382/67 71/201/66
f 92/200/87 93/383/88 94/203/89
f 71/205/66 84/209/79 94/206/89
f 95/208/90 94/384/89 84/209/79
f 87/211/82 81/172/76 96/212/91
f 97/213/92 96/385/91 98/214/93
f 81/174/76 149/379/134 98/216/93
f 100/218/95 149/380/134 78/166/73
f 98/220/93 149/379/134 100/221/95
f 101/223/96 78/168/73 102/224/97
f 103/226/98 102/386/97 89/227/84
f 78/168/73 148/381/133 89/229/84
f 104/231/29 108/387/29 105/232/29
f 107/234/29 110/388/29 108/235/29
f 109/237/29 150/389/29 110/238/29
f 111/240/100 151/390/135 106/241/99
f 112/243/101 138/312/123 113/244/102
f 14/246/14 15/339/15 8/9/8
f 115/248/29 29/391/29 28/249/28
f 117/251/105 16/349/16 29/42/29
f 118/253/106 38/392/37 36/254/35
f 38/256/37 118/393/106 120/257/108
f 37/259/36 120/394/108 121/260/109
f 122/262/109 121/395/109 116/263/104
f 123/265/110 17/396/17 16/266/16
f 119/268/107 36/397/35 17/269/17
f 120/271/108 118/398/106 124/272/106
f 118/274/106 119/399/107 126/275/112
f 127/277/113 124/400/106 126/278/112
f 125/280/111 124/401/106 127/281/113
f 135/288/121 128/402/114 126/278/112
f 125/280/111 129/403/115 130/290/116
f 121/291/109 132/404/118 131/292/117
f 120/271/108 125/405/111 132/293/118
f 134/295/120 133/406/119 123/296/110
f 133/286/119 126/278/112 119/298/107
f 131/300/117 109/407/29 107/301/29
f 117/303/105 115/408/29 136/304/29
f 115/248/29 116/409/104 131/292/117
f 136/306/29 107/410/29 104/307/29
f 137/316/122 112/411/101 114/317/103
f 140/319/125 137/309/122 139/320/124
f 128/325/114 135/412/121 142/326/127
f 135/288/121 134/295/120 106/308/99
f 106/332/99 151/413/135 143/333/128
f 143/329/128 144/414/129 113/334/102
f 143/336/128 151/415/135 111/337/100
