# Blender v2.79 (sub 0) OBJ File: ''
# www.blender.org
mtllib hurricos.034.mtl
o hurricos.034_hurricos.114_tex_72.033
v 6.647793 1.264355 -4.524557
v 6.673252 1.097719 -4.700450
v 6.427926 1.125491 -4.563901
v 6.800543 1.134749 -4.640276
v 6.238146 1.407847 -4.385694
v 7.150015 1.343044 -3.633517
v 6.809799 1.366188 -3.332646
v 7.207874 1.319900 -3.351161
v 7.094469 1.333786 -3.876528
v 6.668623 1.370817 -3.642775
v 6.629278 1.380074 -3.781638
v 7.011152 1.306014 -4.031592
v 6.446441 1.389332 -4.156569
v 6.846830 1.343044 -4.346349
v 6.515873 1.407847 -3.413650
v 6.335350 1.407847 -3.656661
v 6.224259 1.435620 -3.969103
v 6.048367 1.430991 -4.209800
v 5.904874 1.375445 -4.533814
v 5.807670 1.389332 -4.381064
v 6.136312 1.139378 -4.621761
v 6.988008 1.088461 -4.415781
v 7.150015 1.088461 -4.158884
v 7.284250 1.134749 -3.906615
v 7.337481 1.148635 -3.612688
v 7.332851 1.134749 -3.307188
v 7.187046 0.667242 -4.179713
v 7.552719 0.644098 -4.094080
v 7.448572 0.667242 -4.311633
v 7.367567 0.667242 -3.621945
v 7.439314 0.667242 -3.649718
v 7.307394 0.667242 -3.913558
v 6.427926 0.667242 -4.612504
v 6.261290 0.667242 -4.725909
v 6.147884 0.667242 -4.679621
v 6.923204 0.667242 -4.716651
v 6.821373 0.667242 -4.651848
v 7.031982 0.667242 -4.448182
v 7.318966 0.667242 -4.577788
v 6.677879 0.667242 -4.746738
v 7.395340 0.667242 -3.330332
v 6.335350 0.519121 -3.656661
v 6.194173 0.519121 -3.429851
v 6.515873 0.519121 -3.413650
v 5.948848 0.519121 -3.619631
v 6.129370 0.519121 -3.645089
v 6.224259 0.519121 -3.969104
v 6.048367 0.519121 -4.209800
v 5.965048 0.519121 -3.920502
v 6.515873 0.815363 -3.413650
v 6.374695 1.111605 -3.679805
v 6.374695 0.815363 -3.679805
v 6.242775 0.815363 -3.982990
v 6.242775 1.111605 -3.982990
v 6.087710 0.815363 -4.258402
v 6.087710 1.111605 -4.258402
v 6.515873 1.111605 -3.413650
v 5.930332 0.519121 -3.385878
v 5.789154 0.519121 -4.084823
v 5.932647 0.667242 -4.793026
vt 0.562500 0.625000
vt 0.562500 0.500000
vt 0.500000 0.625000
vt 0.437500 0.625000
vt 0.500000 0.625000
vt 0.437500 0.500000
vt 0.437500 0.500000
vt 0.437500 0.500000
vt 0.500000 0.625000
vt 0.500000 0.500000
vt 0.500000 0.500000
vt 0.562500 0.625000
vt 0.562500 0.500000
vt 0.500000 0.625000
vt 0.562500 0.625000
vt 0.500000 0.500000
vt 0.500000 0.625000
vt 0.562500 0.500000
vt 0.500000 0.500000
vt 0.437500 0.625000
vt 0.500000 0.625000
vt 0.500000 0.625000
vt 0.562500 0.500000
vt 0.500000 0.500000
vt 0.437500 0.625000
vt 0.500000 0.625000
vt 0.437500 0.500000
vt 0.437500 0.500000
vt 0.500000 0.625000
vt 0.437500 0.500000
vt 0.500000 0.625000
vt 0.500000 0.500000
vt 0.562500 0.500000
vt 0.500000 0.500000
vt 0.750000 0.875000
vt 0.812500 0.750000
vt 0.750000 0.750000
vt 0.562500 0.625000
vt 0.500000 0.500000
vt 0.437500 0.500000
vt 0.500000 0.625000
vt 0.500000 0.500000
vt 0.312500 0.500000
vt 0.375000 0.625000
vt 0.312500 0.625000
vt 0.187500 0.625000
vt 0.250000 0.500000
vt 0.187500 0.500000
vt 0.187500 0.500000
vt 0.250000 0.625000
vt 0.250000 0.500000
vt 0.187500 0.500000
vt 0.250000 0.625000
vt 0.250000 0.500000
vt 0.812500 1.000000
vt 0.875000 0.875000
vt 0.812500 0.875000
vt 0.500000 0.625000
vt 0.562500 0.625000
vt 0.500000 0.500000
vt 0.500000 0.625000
vt 0.562500 0.625000
vt 0.500000 0.500000
vt 0.500000 0.625000
vt 0.562500 0.625000
vt 0.500000 0.500000
vt 0.937500 1.000000
vt 1.000000 0.875000
vt 0.937500 0.875000
vt 0.562500 0.750000
vt 0.562500 0.625000
vt 0.500000 0.750000
vt 0.500000 0.625000
vt 0.187500 0.500000
vt 0.125000 0.625000
vt 0.125000 0.500000
vt 0.812500 0.625000
vt 0.875000 0.750000
vt 0.812500 0.750000
vt 0.875000 0.750000
vt 0.937500 0.625000
vt 0.875000 0.625000
vt 0.937500 0.750000
vt 1.000000 0.625000
vt 0.875000 0.750000
vt 0.937500 0.625000
vt 0.875000 0.625000
vt 0.562500 0.625000
vt 0.500000 0.750000
vt 0.500000 0.500000
vt 0.562500 0.625000
vt 0.500000 0.625000
vt 0.562500 0.500000
vt 0.500000 0.625000
vt 0.500000 0.500000
vt 0.500000 0.500000
vt 0.562500 0.625000
vt 0.500000 0.625000
vt 0.750000 0.750000
vt 0.812500 0.875000
vt 0.750000 0.875000
vt 0.187500 0.500000
vt 0.125000 0.625000
vt 0.125000 0.500000
vt 0.937500 0.625000
vt 1.000000 0.750000
vt 1.000000 0.625000
vt 0.000000 1.000000
vt 0.062500 0.875000
vt 0.000000 0.875000
vt 0.937500 0.750000
vt 1.000000 0.625000
vt 0.937500 0.625000
vt 0.000000 1.000000
vt 0.062500 0.875000
vt 0.000000 0.875000
vt 0.000000 0.500000
vt 0.062500 0.625000
vt 0.000000 0.625000
vt 0.812500 0.750000
vt 0.750000 0.875000
vt 0.750000 0.750000
vt 0.312500 0.500000
vt 0.375000 0.625000
vt 0.312500 0.625000
vt 0.187500 0.500000
vt 0.250000 0.625000
vt 0.250000 0.500000
vt 0.437500 0.625000
vt 0.562500 0.625000
vt 0.562500 0.625000
vt 0.437500 0.625000
vt 0.437500 0.625000
vt 0.562500 0.625000
vt 0.812500 0.875000
vt 0.375000 0.500000
vt 0.250000 0.625000
vt 0.187500 0.625000
vt 0.187500 0.625000
vt 0.875000 1.000000
vt 1.000000 1.000000
vt 0.562500 0.750000
vt 0.187500 0.625000
vt 0.875000 0.625000
vt 1.000000 0.750000
vt 0.937500 0.750000
vt 0.562500 0.750000
vt 0.562500 0.500000
vt 0.562500 0.625000
vt 0.562500 0.500000
vt 0.812500 0.750000
vt 0.187500 0.625000
vt 0.937500 0.750000
vt 0.062500 1.000000
vt 1.000000 0.750000
vt 0.062500 1.000000
vt 0.062500 0.500000
vt 0.812500 0.875000
vt 0.375000 0.500000
vt 0.187500 0.625000
vn 0.0258 0.7517 -0.6590
vn -0.0354 0.3607 -0.9320
vn -0.1014 0.3806 -0.9192
vn 0.4981 0.4297 -0.7531
vn 0.1072 0.9051 -0.4114
vn 0.4222 0.9033 -0.0767
vn 0.1026 0.9947 -0.0089
vn 0.5436 0.8392 0.0132
vn 0.4029 0.8835 -0.2392
vn 0.1035 0.9945 -0.0143
vn 0.1227 0.9924 -0.0073
vn 0.4202 0.8688 -0.2621
vn 0.1298 0.9909 -0.0348
vn 0.4104 0.8539 -0.3200
vn -0.3812 0.8888 0.2543
vn -0.6459 0.6465 0.4061
vn -0.5487 0.7789 0.3039
vn -0.3579 0.9219 0.1482
vn 0.0876 0.9000 -0.4270
vn -0.0737 0.9879 -0.1367
vn 0.2259 0.4170 -0.8804
vn 0.7784 0.3038 -0.5493
vn 0.8107 0.3502 -0.4692
vn 0.8577 0.3876 -0.3377
vn 0.9143 0.3919 -0.1021
vn 0.9394 0.3415 0.0298
vn 0.5952 0.7476 -0.2947
vn 0.0567 0.9980 0.0277
vn 0.0213 0.9989 0.0422
vn 0.8815 0.4542 -0.1293
vn 0.0000 1.0000 0.0000
vn 0.8218 0.4950 -0.2822
vn -0.1295 0.2195 -0.9670
vn 0.1969 0.4552 -0.8684
vn 0.5600 0.4639 -0.6864
vn 0.6311 0.5993 -0.4925
vn 0.0472 0.1073 -0.9931
vn 0.9947 0.0883 -0.0534
vn -0.5404 0.7903 0.2888
vn -0.7131 0.5379 0.4497
vn -0.6167 0.7100 0.3400
vn -0.5316 0.7754 0.3408
vn -0.8834 0.0000 0.4686
vn -0.8910 -0.0576 0.4503
vn -0.8956 0.0485 0.4422
vn -0.8873 0.0533 0.4581
vn -0.8917 -0.0592 0.4487
vn -0.8675 0.0943 0.4884
vn -0.8680 -0.0878 0.4887
usemtl Material__25.099
s 1
f 1/1/1 2/2/2 3/3/3
f 1/4/1 4/5/4 2/6/2
f 1/4/1 3/3/3 5/7/5
f 6/8/6 7/9/7 8/10/8
f 9/11/9 10/12/10 6/13/6
f 11/14/11 9/15/9 12/16/12
f 13/17/13 12/18/12 14/19/14
f 14/20/14 1/21/1 5/7/5
f 15/22/15 10/23/10 16/24/16
f 11/25/11 16/26/16 10/27/10
f 11/28/11 17/29/17 16/24/16
f 13/30/13 18/31/18 17/32/17
f 18/31/18 19/33/19 20/34/20
f 21/35/21 5/36/5 3/37/3
f 13/17/13 14/38/14 5/39/5
f 4/40/4 14/41/14 22/42/22
f 23/43/23 14/44/14 12/45/12
f 12/46/12 24/47/24 23/48/23
f 24/49/24 6/50/6 25/51/25
f 25/52/25 8/53/8 26/54/26
f 27/55/27 28/56/28 29/57/29
f 30/58/30 31/59/31 32/60/32
f 33/61/33 34/62/31 35/63/34
f 36/64/31 37/65/35 38/66/36
f 39/67/31 27/68/27 29/69/29
f 33/61/33 2/70/2 40/71/37
f 2/72/2 37/65/35 40/73/37
f 37/74/35 22/75/22 38/76/36
f 27/77/27 22/78/22 23/79/23
f 23/80/23 32/81/32 27/82/27
f 24/83/24 30/84/30 32/81/32
f 25/85/25 41/86/38 30/87/30
f 35/88/34 3/89/3 33/61/33
f 42/90/39 43/91/31 44/92/40
f 45/93/31 43/94/31 46/95/31
f 47/96/41 46/97/31 42/98/39
f 48/99/42 49/100/31 47/101/41
f 50/102/43 51/103/44 52/104/45
f 44/105/40 52/106/45 42/107/39
f 53/108/46 51/109/44 54/110/47
f 52/111/45 47/112/41 42/113/39
f 55/114/48 54/115/47 56/116/49
f 48/117/42 53/118/46 55/119/48
f 15/120/15 51/121/44 57/122/43
f 54/123/47 16/124/16 17/125/17
f 54/126/47 18/127/18 56/128/49
f 6/8/6 10/129/10 7/9/7
f 9/11/9 11/14/11 10/12/10
f 13/17/13 11/130/11 12/18/12
f 15/22/15 7/131/7 10/23/10
f 11/28/11 13/132/13 17/29/17
f 13/30/13 5/133/5 18/31/18
f 18/31/18 5/134/5 19/33/19
f 21/35/21 19/135/19 5/36/5
f 4/40/4 1/4/1 14/41/14
f 23/43/23 22/136/22 14/44/14
f 12/46/12 9/137/9 24/47/24
f 24/49/24 9/138/9 6/50/6
f 25/52/25 6/139/6 8/53/8
f 27/55/27 32/140/32 28/56/28
f 39/67/31 38/141/36 27/68/27
f 33/61/33 3/89/3 2/70/2
f 2/72/2 4/142/4 37/65/35
f 37/74/35 4/143/4 22/75/22
f 27/77/27 38/144/36 22/78/22
f 23/80/23 24/83/24 32/81/32
f 24/83/24 25/145/25 30/84/30
f 25/85/25 26/146/26 41/86/38
f 35/88/34 21/147/21 3/89/3
f 42/90/39 46/148/31 43/91/31
f 45/93/31 58/149/31 43/94/31
f 47/96/41 49/150/31 46/97/31
f 48/99/42 59/151/31 49/100/31
f 50/102/43 57/152/43 51/103/44
f 44/105/40 50/153/43 52/106/45
f 53/108/46 52/154/45 51/109/44
f 52/111/45 53/155/46 47/112/41
f 55/114/48 53/156/46 54/115/47
f 48/117/42 47/157/41 53/118/46
f 15/120/15 16/158/16 51/121/44
f 54/123/47 51/159/44 16/124/16
f 54/126/47 17/160/17 18/127/18
l 60 35
