# Blender v2.79 (sub 0) OBJ File: ''
# www.blender.org
mtllib hurricos.128.mtl
o hurricos.128_hurricos.114_tex_72.395
v -3.616523 0.370998 3.323537
v -3.500804 0.370998 3.207818
v -3.623466 0.495975 3.298079
v -3.475346 0.519119 3.221704
v -3.776216 0.500605 3.080526
v -3.857220 0.472831 3.267992
v -3.517004 0.495975 3.062011
v -3.875735 0.370998 3.298079
v -3.970625 0.468203 3.068954
v -4.049314 0.370999 3.064326
v -4.692714 0.491346 3.462400
v -4.465904 0.370998 3.517946
v -4.715858 0.370998 3.381397
v -4.273810 0.509861 3.723927
v -4.225208 0.370998 3.670696
v -4.137261 0.370998 3.948422
v -4.053943 0.370998 4.233092
v -4.192806 0.477459 3.959994
v -4.116431 0.486717 4.256236
v -4.907952 0.370998 4.233092
v -4.882494 0.477459 4.047941
v -4.961184 0.370998 4.013225
v -4.778347 0.472831 3.710040
v -4.829263 0.370998 3.675324
v -4.333984 0.533005 3.890563
v -4.486733 0.519118 3.573491
v -4.384901 0.523747 4.179861
v -4.581624 0.537633 3.795673
v -4.648741 0.546891 4.156717
v -4.861665 0.384884 3.480916
v -4.947297 0.384884 3.235590
v -4.560794 0.384884 3.353624
v -4.669570 0.384885 3.133757
v -3.674383 0.384884 4.020168
v -3.787788 0.384884 3.742442
v -3.482289 0.370998 3.638294
v -3.908136 0.384884 3.480916
v -5.273626 0.370998 4.015540
v -5.037558 0.384884 3.846589
v -5.222709 0.370998 4.307153
v -4.338613 0.384884 3.279564
v -5.123191 0.384884 3.617465
v -3.570236 0.384884 4.297895
v -5.225024 0.384884 3.339738
v -4.850093 0.472831 4.207634
v -3.949795 0.370998 4.513134
v -3.475346 0.296937 3.221704
v -5.368516 0.384885 3.092098
vt 0.562500 0.625000
vt 0.500000 0.625000
vt 0.562500 0.750000
vt 0.500000 0.750000
vt 0.500000 0.625000
vt 0.562500 0.500000
vt 0.500000 0.500000
vt 0.500000 0.500000
vt 0.562500 0.625000
vt 0.562500 0.500000
vt 0.500000 0.625000
vt 0.562500 0.750000
vt 0.562500 0.625000
vt 0.500000 0.625000
vt 0.562500 0.750000
vt 0.562500 0.625000
vt 0.500000 0.750000
vt 0.562500 0.625000
vt 0.500000 0.625000
vt 0.312500 0.500000
vt 0.375000 0.625000
vt 0.375000 0.500000
vt 0.437500 0.500000
vt 0.375000 0.500000
vt 0.437500 0.625000
vt 0.375000 0.625000
vt 0.375000 0.500000
vt 0.437500 0.625000
vt 0.437500 0.500000
vt 0.562500 0.625000
vt 0.500000 0.750000
vt 0.500000 0.625000
vt 0.562500 0.750000
vt 0.562500 0.625000
vt 0.500000 0.625000
vt 0.562500 0.625000
vt 0.500000 0.500000
vt 0.500000 0.625000
vt 0.562500 0.625000
vt 0.500000 0.500000
vt 0.500000 0.625000
vt 0.562500 0.625000
vt 0.562500 0.625000
vt 0.500000 0.500000
vt 0.500000 0.625000
vt 0.562500 0.500000
vt 0.500000 0.500000
vt 0.437500 0.625000
vt 0.437500 0.500000
vt 0.562500 0.500000
vt 0.500000 0.500000
vt 0.437500 0.625000
vt 0.437500 0.500000
vt 0.500000 0.625000
vt 0.562500 0.625000
vt 0.500000 0.500000
vt 0.437500 0.625000
vt 0.500000 0.625000
vt 0.437500 0.500000
vt 0.562500 0.625000
vt 0.500000 0.500000
vt 0.500000 0.625000
vt 0.562500 0.625000
vt 0.437500 0.625000
vt 0.500000 0.500000
vt 0.437500 0.500000
vt 0.500000 0.500000
vt 0.562500 0.625000
vt 0.562500 0.500000
vt 0.500000 0.625000
vt 0.562500 0.500000
vt 0.500000 0.500000
vt 0.500000 0.625000
vt 0.562500 0.500000
vt 0.500000 0.500000
vt 0.500000 0.625000
vt 0.500000 0.625000
vt 0.562500 0.625000
vt 0.500000 0.500000
vt 0.500000 0.625000
vt 0.500000 0.500000
vt 0.500000 0.625000
vt 0.562500 0.500000
vt 0.500000 0.500000
vt 0.500000 0.625000
vt 0.562500 0.500000
vt 0.500000 0.500000
vt 0.437500 0.500000
vt 0.500000 0.625000
vt 0.500000 0.500000
vt 0.500000 0.625000
vt 0.562500 0.500000
vt 0.500000 0.500000
vt 0.500000 0.625000
vt 0.562500 0.500000
vt 0.562500 0.625000
vt 0.500000 0.750000
vt 0.500000 0.750000
vt 0.562500 0.750000
vt 0.312500 0.625000
vt 0.375000 0.625000
vt 0.562500 0.750000
vt 0.562500 0.625000
vt 0.500000 0.625000
vt 0.562500 0.625000
vt 0.562500 0.625000
vt 0.562500 0.625000
vt 0.562500 0.625000
vt 0.437500 0.625000
vt 0.562500 0.625000
vn 0.2404 0.7212 0.6496
vn 0.5795 -0.0197 0.8147
vn 0.1539 0.6893 0.7079
vn 0.1506 0.8265 0.5425
vn -0.0915 0.9939 0.0609
vn -0.4177 0.6893 0.5919
vn -0.0669 0.9973 -0.0302
vn -0.2030 0.9198 0.3359
vn -0.5824 0.7133 0.3900
vn -0.3133 0.9241 0.2189
vn -0.2589 0.7805 -0.5690
vn 0.2700 0.8584 -0.4361
vn -0.0675 0.9810 -0.1819
vn 0.5258 0.7692 -0.3632
vn 0.3194 0.9142 -0.2494
vn 0.4829 0.8646 -0.1388
vn 0.3078 0.9477 -0.0850
vn 0.6737 0.7166 -0.1806
vn 0.6321 0.7604 -0.1495
vn -0.4597 0.8818 0.1057
vn -0.6558 0.7545 -0.0249
vn -0.3646 0.9311 -0.0080
vn -0.5690 0.7979 -0.1991
vn -0.4497 0.8800 -0.1529
vn 0.1814 0.9828 -0.0339
vn 0.2500 0.8185 -0.5173
vn 0.1026 0.9935 0.0498
vn -0.1121 0.9893 -0.0937
vn -0.0909 0.9955 -0.0262
vn 0.0637 0.9977 0.0233
vn 0.0229 0.9997 0.0118
vn -0.0440 0.9955 0.0838
vn -0.0179 0.9985 0.0526
vn -0.0311 0.9995 0.0114
vn -0.0078 1.0000 0.0026
vn 0.0396 0.9991 -0.0169
vn 0.0090 0.9998 -0.0151
vn 0.0002 0.9997 0.0252
vn 0.0546 0.9979 0.0360
vn 0.0000 1.0000 -0.0000
vn 0.0001 0.9997 0.0230
vn 0.0239 0.9997 0.0080
vn -0.0302 0.9995 0.0113
vn -0.8341 0.5200 0.1843
vn -0.0302 0.9995 0.0112
usemtl Material__25.008
s 1
f 1/1/1 2/2/2 3/3/3
f 4/4/4 3/3/3 2/2/2
f 5/5/5 6/6/6 3/7/3
f 7/8/7 3/9/3 4/10/4
f 1/11/1 6/12/6 8/13/8
f 8/14/8 9/15/9 10/16/10
f 11/17/11 12/18/12 13/19/13
f 12/20/12 14/21/14 15/22/15
f 14/21/14 16/23/16 15/22/15
f 17/24/17 18/25/18 19/26/19
f 20/27/20 21/28/21 22/29/22
f 22/30/22 23/31/23 24/32/24
f 24/32/24 11/33/11 13/34/13
f 25/35/25 19/36/19 18/37/18
f 11/38/11 23/39/23 26/40/26
f 14/41/14 25/42/25 18/37/18
f 25/35/25 27/43/27 19/44/19
f 28/45/28 21/46/21 29/47/29
f 25/48/25 29/47/29 27/49/27
f 14/41/14 28/50/28 25/51/25
f 23/52/23 28/45/28 26/53/26
f 30/54/30 24/55/24 13/56/13
f 13/57/13 31/58/31 30/59/30
f 13/19/13 32/60/32 33/61/33
f 33/62/33 31/63/31 13/56/13
f 16/64/16 34/65/34 35/66/35
f 1/67/1 35/68/35 36/69/36
f 15/70/15 35/71/35 37/72/37
f 38/73/38 22/74/22 39/75/39
f 22/76/22 24/55/24 39/75/39
f 40/77/40 20/78/20 22/79/22
f 37/80/37 1/1/1 8/81/8
f 41/82/41 37/83/37 10/84/10
f 42/85/42 24/86/24 30/87/30
f 17/88/17 43/89/43 34/65/34
f 13/19/13 12/18/12 32/90/32
f 44/91/40 30/92/30 31/93/31
f 12/94/12 41/95/41 32/90/32
f 37/80/37 8/13/8 10/84/10
f 5/5/5 9/96/9 6/6/6
f 7/8/7 5/5/5 3/9/3
f 1/11/1 3/97/3 6/12/6
f 8/14/8 6/98/6 9/15/9
f 11/17/11 26/99/26 12/18/12
f 12/20/12 26/100/26 14/21/14
f 14/21/14 18/25/18 16/23/16
f 17/24/17 16/23/16 18/25/18
f 20/27/20 45/101/44 21/28/21
f 22/30/22 21/102/21 23/31/23
f 24/32/24 23/31/23 11/33/11
f 28/45/28 23/39/23 21/46/21
f 25/48/25 28/45/28 29/47/29
f 14/41/14 26/103/26 28/50/28
f 16/64/16 17/104/17 34/65/34
f 1/67/1 37/80/37 35/68/35
f 15/70/15 16/105/16 35/71/35
f 38/73/38 40/106/40 22/74/22
f 41/82/41 15/107/15 37/83/37
f 42/85/42 39/108/39 24/86/24
f 17/88/17 46/109/45 43/89/43
f 44/91/40 42/110/42 30/92/30
f 12/94/12 15/107/15 41/95/41
l 2 47
l 44 48
