# Blender v2.79 (sub 0) OBJ File: ''
# www.blender.org
mtllib hurricos.103.mtl
o hurricos.103_hurricos.114_tex_72.370
v 8.249350 1.319898 -0.187392
v 8.286381 1.264353 -0.166562
v 8.258608 1.250467 -0.185077
v 8.256294 1.259724 -0.150361
vt 0.312500 0.875000
vt 0.375000 0.875000
vt 0.312500 0.750000
vt 0.375000 0.875000
vt 0.312500 0.750000
vt 0.375000 0.875000
vt 0.312500 0.750000
vn -0.2646 0.9175 -0.2968
vn 0.8372 0.5458 -0.0329
vn -0.4767 -0.0927 -0.8742
vn -0.6063 0.3649 0.7066
usemtl Material__25.030
s 1
f 1/1/1 2/2/2 3/3/3
f 1/1/1 4/4/4 2/5/2
f 1/1/1 3/6/3 4/7/4
