# Blender v2.79 (sub 0) OBJ File: ''
# www.blender.org
mtllib hurricos.001.mtl
o hurricos.001_hurricos.114_tex_72.000
v -4.523764 0.222880 -4.647220
v -4.729744 0.222880 -4.418095
v -4.583938 0.667242 -4.580102
v -4.523764 0.519122 -4.647220
v -4.468218 0.255281 -4.755996
v -4.526078 0.338599 -4.695822
v -4.526078 0.255281 -4.695822
v -4.468218 0.338599 -4.755996
v -4.440446 0.255281 -4.730537
v -4.440446 0.338599 -4.730537
v -4.500620 0.338599 -4.670363
v -4.500620 0.255281 -4.670363
v -4.417302 0.222880 -4.751367
v -4.417302 0.519122 -4.751367
v -4.806119 0.815363 -4.494470
v -4.523764 0.815363 -4.640276
v -4.595510 0.815363 -4.721280
v -4.595510 0.222880 -4.721280
v -4.521450 0.222880 -4.647220
v -4.657999 0.667242 -4.654163
v -4.595510 0.519122 -4.721280
v -4.806119 0.222880 -4.494470
v -4.729744 0.815363 -4.420409
v -4.729744 0.667242 -4.420409
v -4.803805 0.667242 -4.496784
v -4.780661 0.667242 -4.746738
v -4.954240 0.815363 -4.184342
v -5.037558 0.815363 -4.253773
v -5.046816 1.111605 -4.232944
v -4.803805 0.815363 -4.061679
v -4.938039 0.667242 -4.195914
v -4.843150 1.111605 -4.022335
v -5.072274 1.407847 -4.184341
v -5.319914 1.555968 -3.800153
v -4.880180 1.407847 -3.985304
v -3.945167 0.241395 -4.057050
v -3.748444 0.324713 -4.214429
v -3.792417 0.222880 -4.226001
v -3.776216 0.236766 -4.582417
v -4.211321 0.371000 -3.487711
v -4.051629 0.241395 -3.739979
v -4.211321 0.222880 -3.487711
v -3.933595 0.343228 -4.010763
v -4.093287 0.222880 -4.656477
v -3.952110 0.222880 -4.425038
v -3.922023 0.222880 -4.626390
v -3.859534 0.222880 -4.290803
v -4.648741 0.222880 -4.339406
v -4.711229 0.222880 -3.966789
v -4.445075 0.222880 -4.124167
v -4.077087 0.222880 -4.191285
v -4.262238 0.222880 -4.378750
v -4.438131 0.222880 -4.561587
v -4.259923 0.222880 -3.948274
v -4.387215 0.222880 -3.640460
v -4.479791 0.222880 -3.733036
v -4.938039 0.222880 -4.193599
v -3.697527 0.329341 -4.596303
v -3.567921 0.371000 -4.397265
v -4.019227 0.366372 -3.721464
v -3.836390 0.371000 -3.615002
v -3.551721 0.371000 -3.388192
v -3.938223 0.371000 -3.214613
v -3.792417 0.371000 -3.066492
v -3.535520 0.371000 -3.906615
v -5.157907 1.555968 -3.631203
v -5.090789 1.555968 -3.360419
v -4.998214 1.555968 -3.464567
v -4.938039 0.519121 -4.195914
v -5.012100 0.222880 -4.269974
v -5.012100 0.519121 -4.269974
v -5.012100 0.667242 -4.269974
v -4.921839 0.667242 -4.596303
v -5.123191 0.667242 -4.378750
v -5.123191 0.519121 -4.378750
v -5.123191 0.222880 -4.378750
v -5.002842 0.815363 -4.688879
v -4.482105 0.222880 -3.545570
v -4.713544 0.222880 -3.966789
v -4.919524 0.519121 -3.760808
v -4.921839 0.222880 -3.758494
v -4.720487 0.815363 -3.959846
v -4.711229 0.519121 -3.969104
v -4.685771 0.519121 -3.522427
v -4.486733 0.815363 -3.721464
v -4.475162 0.519121 -3.730721
v -4.477476 0.222880 -3.728407
v -4.685771 0.222880 -3.522427
v -4.803805 0.519121 -4.061679
v -4.847778 0.222880 -4.103338
v -4.634854 1.111605 -3.811725
v -4.463590 1.407847 -3.564085
v -4.424245 1.111605 -3.601116
v -4.387215 0.815363 -3.640460
v -4.482105 0.519121 -3.545570
v -4.387215 0.519121 -3.640460
v -4.482105 0.815363 -3.545570
v -4.521450 1.111605 -3.508540
v -4.671885 1.407847 -3.774695
v -4.558480 1.407847 -3.469195
v -5.414804 1.555968 -3.446052
v -4.910267 0.222880 -4.610189
v -5.243539 0.815363 -4.427352
v -4.928782 0.815363 -3.751551
v -4.695029 0.815363 -3.513169
v -4.782976 1.555967 -3.247014
v -5.324543 0.222880 -4.600932
v -5.465720 0.815363 -4.626390
v -5.324543 0.667242 -4.600932
vt 0.687500 0.750000
vt 0.625000 0.875000
vt 0.625000 0.750000
vt 0.625000 0.875000
vt 0.687500 0.750000
vt 0.625000 0.750000
vt 0.625000 0.750000
vt 0.687500 0.875000
vt 0.687500 0.750000
vt 0.687500 0.750000
vt 0.625000 0.875000
vt 0.625000 0.750000
vt 0.625000 0.750000
vt 0.687500 0.875000
vt 0.625000 0.875000
vt 0.375000 0.875000
vt 0.312500 1.000000
vt 0.312500 0.875000
vt 0.687500 0.875000
vt 0.625000 0.875000
vt 0.625000 0.750000
vt 0.625000 1.000000
vt 0.687500 0.875000
vt 0.625000 0.875000
vt 0.437500 1.000000
vt 0.500000 0.875000
vt 0.437500 0.875000
vt 0.437500 0.875000
vt 0.437500 1.000000
vt 0.500000 1.000000
vt 0.500000 0.875000
vt 0.625000 0.875000
vt 0.687500 1.000000
vt 0.687500 0.875000
vt 0.687500 0.875000
vt 0.687500 0.750000
vt 0.625000 0.875000
vt 0.687500 0.750000
vt 0.625000 0.750000
vt 0.437500 0.875000
vt 0.437500 1.000000
vt 0.500000 1.000000
vt 0.500000 0.875000
vt 0.375000 0.750000
vt 0.437500 0.625000
vt 0.375000 0.625000
vt 0.250000 0.625000
vt 0.187500 0.625000
vt 0.250000 0.750000
vt 0.625000 0.875000
vt 0.687500 0.875000
vt 0.625000 0.750000
vt 0.187500 0.625000
vt 0.250000 0.750000
vt 0.250000 0.625000
vt 0.062500 0.750000
vt 0.125000 0.625000
vt 0.062500 0.625000
vt 0.375000 0.750000
vt 0.437500 0.625000
vt 0.375000 0.625000
vt 0.500000 0.625000
vt 0.562500 0.750000
vt 0.562500 0.625000
vt 0.500000 0.750000
vt 0.562500 0.625000
vt 0.500000 0.625000
vt 0.500000 0.750000
vt 0.562500 0.625000
vt 0.500000 0.625000
vt 0.500000 0.625000
vt 0.562500 0.750000
vt 0.562500 0.625000
vt 0.500000 0.875000
vt 0.562500 1.000000
vt 0.500000 1.000000
vt 0.500000 0.625000
vt 0.562500 0.625000
vt 0.500000 0.500000
vt 0.500000 0.625000
vt 0.562500 0.500000
vt 0.500000 0.500000
vt 0.562500 0.625000
vt 0.500000 0.500000
vt 0.500000 0.625000
vt 0.812500 0.875000
vt 0.875000 1.000000
vt 0.875000 0.875000
vt 0.937500 0.875000
vt 1.000000 1.000000
vt 1.000000 0.875000
vt 0.812500 1.000000
vt 0.875000 0.875000
vt 0.812500 0.875000
vt 0.625000 0.875000
vt 0.687500 0.750000
vt 0.625000 0.750000
vt 0.687500 0.875000
vt 0.750000 0.750000
vt 0.687500 0.750000
vt 0.875000 1.000000
vt 0.937500 1.000000
vt 1.000000 0.875000
vt 0.437500 0.500000
vt 0.500000 0.625000
vt 0.500000 0.500000
vt 0.937500 1.000000
vt 1.000000 0.875000
vt 0.937500 0.875000
vt 0.875000 1.000000
vt 0.812500 1.000000
vt 0.000000 0.875000
vt 0.062500 0.750000
vt 0.000000 0.750000
vt 0.500000 0.625000
vt 0.562500 0.625000
vt 0.500000 0.500000
vt 0.437500 0.625000
vt 0.500000 0.625000
vt 0.437500 0.500000
vt 0.500000 0.625000
vt 0.562500 0.500000
vt 0.500000 0.500000
vt 0.437500 0.500000
vt 0.500000 0.625000
vt 0.500000 0.500000
vt 0.437500 0.500000
vt 0.500000 0.625000
vt 0.500000 0.500000
vt 0.375000 0.625000
vt 0.437500 0.750000
vt 0.437500 0.625000
vt 0.625000 0.875000
vt 0.687500 1.000000
vt 0.687500 0.875000
vt 0.625000 0.875000
vt 0.687500 1.000000
vt 0.687500 0.875000
vt 0.437500 0.875000
vt 0.500000 1.000000
vt 0.500000 0.875000
vt 0.437500 0.875000
vt 0.437500 1.000000
vt 0.500000 1.000000
vt 0.500000 0.875000
vt 0.625000 0.750000
vt 0.687500 0.750000
vt 0.437500 0.875000
vt 0.437500 1.000000
vt 0.500000 1.000000
vt 0.500000 0.875000
vt 0.375000 0.625000
vt 0.437500 0.750000
vt 0.437500 0.625000
vt 0.375000 0.750000
vt 0.437500 0.625000
vt 0.375000 0.625000
vt 0.687500 0.750000
vt 0.625000 0.750000
vt 0.187500 0.750000
vt 0.250000 0.625000
vt 0.187500 0.625000
vt 0.687500 0.875000
vt 0.625000 1.000000
vt 0.437500 0.500000
vt 0.500000 0.625000
vt 0.437500 0.625000
vt 0.625000 0.750000
vt 0.687500 0.875000
vt 0.687500 0.750000
vt 0.625000 0.875000
vt 0.687500 0.750000
vt 0.625000 0.750000
vt 0.687500 0.750000
vt 0.625000 0.875000
vt 0.625000 0.750000
vt 0.625000 0.750000
vt 0.687500 0.875000
vt 0.625000 0.875000
vt 0.687500 0.750000
vt 0.625000 0.875000
vt 0.625000 0.750000
vt 0.687500 0.875000
vt 0.687500 0.750000
vt 0.000000 0.875000
vt 0.062500 0.750000
vt 0.000000 0.750000
vt 0.312500 0.750000
vt 0.375000 0.625000
vt 0.312500 0.625000
vt 0.250000 0.625000
vt 0.187500 0.625000
vt 0.250000 0.750000
vt 0.625000 0.875000
vt 0.687500 0.750000
vt 0.625000 0.750000
vt 0.062500 0.625000
vt 0.125000 0.750000
vt 0.125000 0.625000
vt 0.187500 0.625000
vt 0.250000 0.750000
vt 0.250000 0.625000
vt 0.625000 0.750000
vt 0.687500 0.875000
vt 0.687500 0.750000
vt 0.187500 0.750000
vt 0.250000 0.625000
vt 0.187500 0.625000
vt 0.312500 1.000000
vt 0.375000 0.875000
vt 0.312500 0.875000
vt 0.312500 1.000000
vt 0.375000 0.875000
vt 0.312500 0.875000
vt 0.875000 1.000000
vt 0.937500 0.875000
vt 0.875000 0.875000
vt 0.625000 0.875000
vt 0.687500 0.750000
vt 0.625000 0.750000
vt 0.187500 0.750000
vt 0.250000 0.625000
vt 0.187500 0.625000
vt 0.312500 0.750000
vt 0.375000 0.625000
vt 0.312500 0.625000
vt 0.437500 0.750000
vt 0.437500 0.625000
vt 0.375000 0.750000
vt 0.375000 0.750000
vt 0.375000 0.625000
vt 0.375000 0.750000
vt 0.437500 0.625000
vt 0.375000 0.625000
vt 0.687500 0.875000
vt 0.687500 0.875000
vt 0.687500 0.750000
vt 0.375000 1.000000
vt 0.687500 1.000000
vt 0.500000 1.000000
vt 0.625000 1.000000
vt 0.625000 0.875000
vt 0.687500 0.875000
vt 0.437500 0.750000
vt 0.187500 0.750000
vt 0.125000 0.750000
vt 0.437500 0.750000
vt 0.500000 0.750000
vt 0.562500 0.750000
vt 0.562500 0.750000
vt 0.500000 0.750000
vt 0.562500 0.875000
vt 0.562500 0.625000
vt 0.812500 1.000000
vt 0.937500 1.000000
vt 0.875000 1.000000
vt 0.687500 0.875000
vt 0.750000 0.875000
vt 1.000000 1.000000
vt 0.437500 0.625000
vt 1.000000 1.000000
vt 0.062500 0.875000
vt 0.562500 0.625000
vt 0.437500 0.625000
vt 0.375000 0.750000
vt 0.625000 1.000000
vt 0.437500 1.000000
vt 0.625000 0.875000
vt 0.437500 0.750000
vt 0.687500 0.875000
vt 0.250000 0.750000
vt 0.687500 1.000000
vt 0.687500 0.875000
vt 0.687500 0.875000
vt 0.687500 0.750000
vt 0.687500 0.875000
vt 0.062500 0.875000
vt 0.375000 0.750000
vt 0.062500 0.750000
vt 0.187500 0.750000
vt 0.625000 0.875000
vt 0.375000 1.000000
vt 0.375000 1.000000
vt 0.937500 1.000000
vt 0.687500 0.875000
vt 0.250000 0.750000
vt 0.437500 0.750000
vt 0.437500 0.750000
vn 0.0257 0.5786 0.8152
vn 0.8157 -0.5784 -0.0080
vn 0.8157 0.5784 -0.0080
vn 0.0257 -0.5786 0.8152
vn 0.4088 0.3089 0.8587
vn 0.4064 -0.2907 0.8662
vn 0.8516 -0.3035 0.4275
vn 0.8490 0.3083 0.4291
vn 0.7032 0.0055 0.7110
vn 0.0335 -0.9424 0.3328
vn 0.6873 0.0191 0.7262
vn 0.7016 -0.0116 0.7125
vn 0.0000 1.0000 -0.0000
vn 0.5641 0.6244 0.5403
vn -0.5087 0.6970 0.5053
vn -0.3171 0.8938 0.3171
vn -0.3084 -0.8952 0.3218
vn -0.2372 -0.9427 0.2347
vn -0.6914 -0.2710 0.6698
vn 0.5188 0.7063 0.4816
vn -0.1399 -0.9647 -0.2231
vn 0.0000 -1.0000 -0.0000
vn 0.7688 0.4247 -0.4782
vn 0.2749 0.9031 -0.3299
vn 0.7036 0.1367 -0.6973
vn 0.7077 0.1138 -0.6973
vn 0.8934 -0.4364 0.1072
vn 0.7026 0.1601 -0.6933
vn 0.5697 0.6105 -0.5502
vn 0.2276 0.9489 -0.2187
vn 0.5408 0.6547 -0.5281
vn -0.4642 0.8227 -0.3281
vn -0.6030 0.7483 -0.2765
vn -0.5490 0.7956 -0.2562
vn -0.4688 0.8823 -0.0407
vn -0.5435 0.7514 -0.3742
vn -0.5957 0.7448 -0.3007
vn -0.5434 0.7834 -0.3016
vn -0.5709 0.7470 -0.3408
vn -0.0232 0.9997 0.0076
vn -0.0429 0.9991 -0.0064
vn -0.0138 0.9999 -0.0057
vn -0.0264 0.9991 -0.0320
vn 0.3293 0.8948 0.3015
vn -0.0311 0.9994 -0.0145
vn 0.4109 0.9117 0.0034
vn 0.5064 0.7034 -0.4987
vn -0.6186 0.7823 -0.0730
vn -0.2716 0.9621 -0.0245
vn -0.4639 0.8354 -0.2949
vn -0.0105 0.9995 -0.0294
vn -0.0475 0.9953 -0.0840
vn 0.1482 0.9786 -0.1429
vn 0.1776 0.9735 -0.1439
vn 0.4988 0.7093 -0.4981
vn 0.3242 -0.0045 -0.9460
vn 0.7034 0.0000 -0.7108
vn 0.4965 -0.7083 -0.5018
vn 0.4903 -0.7134 -0.5007
vn 0.6996 0.0000 -0.7145
vn 0.4898 0.7140 -0.5003
vn 0.5972 0.5355 0.5972
vn 0.8213 0.5704 0.0055
vn 0.7071 -0.0000 0.7071
vn 0.4982 0.7096 0.4982
vn 0.9158 0.1121 -0.3857
vn 1.0000 0.0002 -0.0021
vn -0.7042 -0.0014 -0.7100
vn 0.3882 0.1104 -0.9149
vn 0.0105 0.0017 -0.9999
vn -0.0059 0.5680 -0.8230
vn -0.4963 0.7084 -0.5019
vn 0.7077 -0.0039 -0.7065
vn 0.5034 0.7049 -0.4997
vn 0.7014 0.1583 -0.6950
vn 0.7825 0.6206 0.0512
vn 0.9930 0.1176 0.0126
vn 0.9944 0.0799 -0.0688
vn 1.0000 0.0000 0.0065
vn 0.7048 -0.0020 0.7094
vn 0.6921 0.0001 0.7218
vn 0.5495 0.6698 -0.4993
vn 0.4665 0.8656 0.1821
vn -0.7071 0.0000 -0.7071
vn 0.3018 0.9054 -0.2986
usemtl Material__25.108
s 1
f 5/1/1 6/2/2 7/3/3
f 8/4/4 9/5/5 10/6/6
f 11/7/7 8/8/4 10/9/6
f 7/10/3 11/11/7 12/12/8
f 1/13/9 11/14/7 4/15/10
f 13/16/11 12/17/8 1/18/9
f 10/6/6 13/19/11 14/20/12
f 14/21/12 11/14/7 10/9/6
f 15/22/13 16/23/14 17/24/13
f 4/25/10 18/26/15 19/27/16
f 4/28/10 3/29/17 20/30/18
f 4/28/10 20/30/18 21/31/19
f 22/32/13 19/33/16 18/34/15
f 14/21/12 3/35/17 4/36/10
f 23/37/20 3/38/17 16/39/14
f 3/40/17 24/41/21 25/42/22
f 3/40/17 25/42/22 20/43/18
f 25/44/22 26/45/22 20/46/18
f 27/47/23 28/48/24 29/49/25
f 30/50/26 31/51/27 27/52/23
f 27/53/23 32/54/28 30/55/26
f 33/56/29 32/57/28 29/58/25
f 34/59/30 35/60/31 33/61/29
f 36/62/32 37/63/33 38/64/34
f 37/65/33 39/66/35 38/67/34
f 40/68/36 41/69/37 42/70/38
f 41/71/37 43/72/39 36/73/32
f 12/74/8 5/75/1 7/76/3
f 44/77/13 45/78/40 46/79/41
f 39/80/35 45/81/40 47/82/42
f 39/80/35 47/83/42 38/84/34
f 47/85/42 36/73/32 38/84/34
f 48/86/13 49/87/13 50/88/13
f 51/89/43 47/90/42 45/91/40
f 45/92/40 52/93/13 51/94/43
f 53/95/13 2/96/44 48/97/13
f 52/98/13 48/99/13 50/100/13
f 50/101/13 51/89/43 52/93/13
f 54/102/45 36/103/32 51/89/43
f 41/104/37 55/105/46 42/106/38
f 56/107/13 54/108/45 50/109/13
f 56/110/13 50/88/13 49/111/13
f 57/112/47 48/113/13 2/114/44
f 58/115/48 37/116/33 59/117/49
f 60/118/50 61/119/51 43/120/39
f 62/121/13 63/122/13 64/123/13
f 61/124/51 40/125/36 63/126/13
f 65/127/52 43/128/39 61/129/51
f 66/130/53 67/131/13 68/132/54
f 70/133/55 2/134/44 22/135/13
f 15/136/13 27/137/23 23/138/20
f 70/139/55 69/140/56 57/141/47
f 71/142/57 72/143/58 31/144/27
f 71/142/57 31/144/27 69/145/56
f 23/146/20 31/51/27 24/147/21
f 72/148/58 25/149/22 24/150/21
f 72/148/58 24/150/21 31/151/27
f 73/152/22 72/153/58 74/154/59
f 72/155/58 75/156/60 74/157/59
f 22/32/13 76/158/61 70/159/55
f 75/160/60 70/161/55 76/162/61
f 77/163/13 28/164/24 15/136/13
f 55/165/46 78/166/62 42/167/38
f 79/168/63 80/169/64 81/170/65
f 82/171/66 80/172/64 83/173/67
f 84/174/68 85/175/69 86/176/70
f 87/177/71 84/178/68 86/179/70
f 79/180/63 88/181/72 87/177/71
f 31/182/27 89/183/73 69/184/56
f 90/185/74 69/186/56 89/187/73
f 35/188/31 91/189/75 32/190/28
f 85/191/69 82/192/66 91/193/75
f 83/194/67 30/195/26 82/196/66
f 91/197/75 92/198/76 93/199/77
f 85/200/69 93/201/77 94/202/78
f 94/203/78 86/204/70 85/205/69
f 32/206/28 82/207/66 30/208/26
f 89/209/73 79/210/63 90/211/74
f 86/212/70 55/213/46 87/214/71
f 95/215/64 55/216/46 96/217/79
f 94/218/78 95/219/64 96/220/79
f 93/221/77 97/222/80 94/223/78
f 92/224/76 98/225/81 93/226/77
f 92/227/76 99/228/82 100/229/83
f 66/230/53 99/228/82 35/231/31
f 68/232/54 100/233/83 99/234/82
f 5/1/1 8/8/4 6/2/2
f 8/4/4 5/235/1 9/5/5
f 11/7/7 6/2/2 8/8/4
f 7/10/3 6/236/2 11/11/7
f 1/13/9 12/237/8 11/14/7
f 13/16/11 9/238/5 12/17/8
f 10/6/6 9/5/5 13/19/11
f 14/21/12 4/15/10 11/14/7
f 15/22/13 23/239/20 16/23/14
f 4/25/10 21/240/19 18/26/15
f 22/32/13 2/241/44 19/33/16
f 14/21/12 16/242/14 3/35/17
f 23/37/20 24/243/21 3/38/17
f 25/44/22 73/244/22 26/45/22
f 27/53/23 29/245/25 32/54/28
f 33/56/29 35/246/31 32/57/28
f 34/59/30 66/247/53 35/60/31
f 36/62/32 43/248/39 37/63/33
f 37/65/33 58/249/48 39/66/35
f 40/68/36 60/250/50 41/69/37
f 41/71/37 60/251/50 43/72/39
f 12/74/8 9/252/5 5/75/1
f 39/80/35 46/253/41 45/81/40
f 48/86/13 90/254/74 49/87/13
f 51/89/43 36/255/32 47/90/42
f 45/92/40 44/256/13 52/93/13
f 53/95/13 19/257/16 2/96/44
f 52/98/13 53/258/13 48/99/13
f 50/101/13 54/102/45 51/89/43
f 54/102/45 41/259/37 36/103/32
f 41/104/37 54/260/45 55/105/46
f 56/107/13 55/261/46 54/108/45
f 57/112/47 90/262/74 48/113/13
f 62/121/13 61/263/51 63/122/13
f 61/124/51 60/118/50 40/125/36
f 65/127/52 37/264/33 43/128/39
f 66/130/53 101/265/13 67/131/13
f 70/133/55 57/266/47 2/134/44
f 15/136/13 28/164/24 27/137/23
f 70/139/55 71/267/57 69/140/56
f 23/146/20 27/268/23 31/51/27
f 73/152/22 25/44/22 72/153/58
f 72/155/58 71/269/57 75/156/60
f 22/32/13 102/270/13 76/158/61
f 75/160/60 71/271/57 70/161/55
f 77/163/13 103/272/13 28/164/24
f 79/168/63 83/194/67 80/169/64
f 82/171/66 104/273/64 80/172/64
f 84/174/68 105/274/84 85/175/69
f 87/177/71 88/275/72 84/178/68
f 79/180/63 81/276/65 88/181/72
f 31/182/27 30/50/26 89/183/73
f 90/185/74 57/277/47 69/186/56
f 35/188/31 99/278/82 91/189/75
f 83/194/67 89/183/73 30/195/26
f 91/197/75 99/279/82 92/198/76
f 85/200/69 91/280/75 93/201/77
f 94/203/78 96/281/79 86/204/70
f 32/206/28 91/193/75 82/207/66
f 89/209/73 83/282/67 79/210/63
f 86/212/70 96/283/79 55/213/46
f 95/215/64 78/284/62 55/216/46
f 94/218/78 97/285/80 95/219/64
f 93/221/77 98/286/81 97/222/80
f 92/224/76 100/229/83 98/225/81
f 66/230/53 68/287/54 99/228/82
f 68/232/54 106/288/85 100/233/83
l 109 74
l 108 103
l 76 107
l 13 19
