# Blender v2.79 (sub 0) OBJ File: ''
# www.blender.org
mtllib hurricos.095.mtl
o hurricos.095_hurricos.114_tex_72.362
v 8.506247 0.972740 -0.263766
v 8.473846 1.005142 -0.210535
v 8.450703 0.977369 -0.222107
v 8.453016 1.009770 -0.240623
vt 0.312500 0.875000
vt 0.375000 0.875000
vt 0.312500 0.750000
vt 0.375000 0.875000
vt 0.312500 0.750000
vt 0.375000 0.875000
vt 0.312500 0.750000
vn 0.7128 -0.3736 -0.5936
vn 0.8862 0.1974 0.4192
vn -0.1287 -0.9898 -0.0616
vn -0.0693 0.4552 -0.8877
usemtl Material__25.038
s 1
f 1/1/1 2/2/2 3/3/3
f 1/1/1 4/4/4 2/5/2
f 1/1/1 3/6/3 4/7/4
