# Blender v2.79 (sub 0) OBJ File: ''
# www.blender.org
mtllib hurricos.043.mtl
o hurricos.043_hurricos.114_tex_72.042
v -3.780845 1.389331 -3.047976
v -3.556349 1.111604 -3.270158
v -3.780845 1.111604 -3.047976
v -3.556349 0.815363 -3.270158
v -3.780845 0.815362 -3.047976
v -3.780845 0.537636 -3.047977
v -3.556349 0.537636 -3.270158
v -3.556349 1.389331 -3.270158
v -3.598008 1.389331 -2.865140
v -3.598008 1.111604 -2.865140
v -3.598008 0.815362 -2.865140
v -3.598008 0.537636 -2.865140
vt 0.375000 1.000000
vt 0.437500 0.875000
vt 0.375000 0.875000
vt 0.375000 1.000000
vt 0.437500 0.875000
vt 0.375000 0.875000
vt 0.375000 0.875000
vt 0.437500 1.000000
vt 0.437500 0.875000
vt 0.437500 1.000000
vt 0.437500 1.000000
vt 0.375000 1.000000
vn -0.7034 0.0000 -0.7108
usemtl Material__25.091
s 1
f 1/1/1 2/2/1 3/3/1
f 3/4/1 4/5/1 5/6/1
f 6/7/1 4/8/1 7/9/1
f 1/1/1 8/10/1 2/2/1
f 3/4/1 2/11/1 4/5/1
f 6/7/1 5/12/1 4/8/1
l 11 12
l 10 11
l 12 6
l 9 1
l 9 10
