# Blender v2.79 (sub 0) OBJ File: ''
# www.blender.org
mtllib hurricos.102.mtl
o hurricos.102_hurricos.114_tex_72.369
v 8.235464 1.319898 -0.043899
v 8.277122 1.264353 -0.055471
v 8.249350 1.259724 -0.078615
v 8.244722 1.250467 -0.043899
vt 0.312500 0.875000
vt 0.375000 0.875000
vt 0.312500 0.750000
vt 0.375000 0.875000
vt 0.312500 0.750000
vt 0.375000 0.875000
vt 0.312500 0.750000
vn -0.3215 0.9189 0.2285
vn 0.8013 0.5536 0.2269
vn -0.4498 0.3662 -0.8146
vn -0.6510 -0.0868 0.7541
usemtl Material__25.031
s 1
f 1/1/1 2/2/2 3/3/3
f 1/1/1 4/4/4 2/5/2
f 1/1/1 3/6/3 4/7/4
