# Blender v2.79 (sub 0) OBJ File: ''
# www.blender.org
mtllib hurricos.019.mtl
o hurricos.019_hurricos.114_tex_72.018
v 7.270363 0.704273 -5.299877
v 7.274992 0.722788 -5.269790
v 7.277308 0.732045 -5.288305
v 7.288879 0.745932 -5.267476
v 7.284250 0.741303 -5.260533
v 7.291193 0.722788 -5.279048
v 7.300451 0.704273 -5.279048
v 7.270363 0.704273 -5.262847
v 7.293507 0.741303 -5.265162
v 7.298136 0.745932 -5.246646
vt 0.625000 0.875000
vt 0.687500 0.750000
vt 0.625000 0.750000
vt 0.625000 0.750000
vt 0.687500 0.875000
vt 0.687500 0.750000
vt 0.625000 0.875000
vt 0.687500 0.750000
vt 0.625000 0.750000
vt 0.687500 0.875000
vt 0.687500 0.750000
vt 0.625000 0.875000
vt 0.625000 0.750000
vt 0.625000 0.875000
vt 0.687500 0.750000
vt 0.625000 0.750000
vt 0.625000 0.875000
vt 0.687500 0.875000
vt 0.625000 0.750000
vt 0.687500 0.875000
vt 0.687500 0.875000
vt 0.625000 0.750000
vt 0.687500 0.875000
vt 0.625000 0.875000
vt 0.687500 0.875000
vn -0.4074 0.4694 -0.7834
vn -0.5884 0.2567 0.7668
vn -0.3043 0.6592 -0.6877
vn -0.0182 0.9221 -0.3866
vn -0.7133 0.0597 0.6984
vn 0.9790 0.1953 -0.0582
vn 0.8937 0.4469 0.0409
vn -0.4684 0.4204 0.7771
vn 0.9875 -0.1470 -0.0562
vn 0.4584 0.1608 0.8741
usemtl Material__25.115
s 1
f 1/1/1 2/2/2 3/3/3
f 4/4/4 2/5/2 5/6/5
f 4/7/4 6/8/6 3/3/3
f 1/9/1 6/10/6 7/11/7
f 8/12/8 6/8/6 2/13/2
f 2/14/2 9/15/9 5/16/5
f 5/17/5 9/18/9 10/19/10
f 4/7/4 5/20/5 10/19/10
f 4/7/4 10/21/10 9/22/9
f 1/1/1 8/23/8 2/2/2
f 4/4/4 3/24/3 2/5/2
f 4/7/4 9/18/9 6/8/6
f 1/9/1 3/24/3 6/10/6
f 8/12/8 7/25/7 6/8/6
f 2/14/2 6/10/6 9/15/9
