# Blender v2.79 (sub 0) OBJ File: ''
# www.blender.org
mtllib hurricos.035.mtl
o hurricos.035_hurricos.114_tex_72.034
v 8.439131 0.704272 -4.376436
v 8.434502 0.722788 -4.406523
v 8.432186 0.732045 -4.388008
v 8.420614 0.745932 -4.411152
v 8.422930 0.741303 -4.415781
v 8.415987 0.741303 -4.411152
v 8.418301 0.722788 -4.397265
v 8.409042 0.704272 -4.397265
v 8.439131 0.704272 -4.413466
v 8.411358 0.745932 -4.429667
vt 0.625000 0.875000
vt 0.687500 0.750000
vt 0.625000 0.750000
vt 0.625000 0.750000
vt 0.687500 0.875000
vt 0.687500 0.750000
vt 0.687500 0.875000
vt 0.687500 0.750000
vt 0.625000 0.750000
vt 0.687500 0.875000
vt 0.687500 0.750000
vt 0.625000 0.875000
vt 0.625000 0.750000
vt 0.625000 0.875000
vt 0.687500 0.750000
vt 0.625000 0.750000
vt 0.625000 0.875000
vt 0.625000 0.750000
vt 0.625000 0.875000
vt 0.687500 0.875000
vt 0.687500 0.875000
vt 0.625000 0.750000
vt 0.687500 0.875000
vt 0.625000 0.875000
vt 0.687500 0.875000
vn 0.4075 0.4693 0.7834
vn 0.5879 0.2553 -0.7676
vn 0.3024 0.6600 0.6877
vn 0.1428 0.9601 0.2404
vn 0.6484 -0.1208 -0.7516
vn -0.9934 -0.0565 0.0998
vn -0.9787 0.1970 0.0579
vn -0.8937 0.4468 -0.0409
vn 0.4684 0.4203 -0.7771
vn -0.4448 0.1653 -0.8802
usemtl Material__25.098
s 1
f 1/1/1 2/2/2 3/3/3
f 4/4/4 2/5/2 5/6/5
f 3/3/3 6/7/6 7/8/7
f 1/9/1 7/10/7 8/11/8
f 9/12/9 7/8/7 2/13/2
f 2/14/2 6/15/6 5/16/5
f 5/17/5 6/7/6 10/18/10
f 4/19/4 5/20/5 10/18/10
f 4/19/4 10/21/10 6/22/6
f 1/1/1 9/23/9 2/2/2
f 4/4/4 3/24/3 2/5/2
f 3/3/3 4/19/4 6/7/6
f 1/9/1 3/24/3 7/10/7
f 9/12/9 8/25/8 7/8/7
f 2/14/2 7/10/7 6/15/6
