# Blender v2.79 (sub 0) OBJ File: ''
# www.blender.org
mtllib hurricos.089.mtl
o hurricos.089_hurricos.114_tex_72.356
v 5.911818 0.533006 -0.291539
v 6.184915 0.745930 -0.208221
v 6.180286 0.519120 -0.164248
v 5.928018 0.759816 -0.330884
v 5.661863 0.551521 -0.460490
v 5.944219 0.981998 -0.370228
vt 0.812500 0.875000
vt 0.875000 1.000000
vt 0.812500 1.000000
vt 0.875000 0.875000
vn 0.4146 -0.1830 -0.8914
vn 0.4144 -0.1826 -0.8916
vn 0.4136 -0.1814 -0.8922
vn 0.4154 -0.1842 -0.8908
usemtl Material__25.044
s 1
f 1/1/1 2/2/2 3/3/3
f 1/1/1 4/4/4 2/2/2
l 4 6
l 5 1
