# Blender v2.79 (sub 0) OBJ File: ''
# www.blender.org
mtllib hurricos.045.mtl
o hurricos.045_hurricos.114_tex_72.044
v -5.005157 1.704088 -3.034090
v -5.271312 1.852208 -2.904484
v -5.243539 1.704088 -2.798022
v -5.090789 1.704089 -3.360419
v -5.005157 1.555967 -3.034090
v -5.090789 1.555968 -3.360419
v -5.111619 1.852208 -3.064177
v -3.581808 1.407846 -2.853568
v -3.769273 1.407846 -2.668417
v -3.621152 1.407846 -2.524925
v -3.843333 1.555966 -2.300429
v -3.734557 1.555966 -2.001873
v -3.660497 1.555966 -2.117592
v -3.991454 1.704087 -2.443921
v -4.215950 1.555966 -2.221740
v -3.991454 1.555966 -2.443921
v -4.870922 1.704087 -1.985672
v -4.648741 1.555966 -2.210168
v -4.870922 1.555966 -1.985672
v -4.648741 1.704087 -2.210168
v -4.424245 1.555966 -2.432349
v -4.424245 1.704087 -2.432349
v -4.202064 1.555967 -2.654531
v -5.081532 1.704087 -2.196281
v -4.857036 1.555966 -2.420777
v -4.857036 1.704087 -2.420777
v -4.632540 1.555967 -2.642958
v -4.632540 1.704088 -2.642958
v -4.410359 1.555967 -2.865140
v -4.410359 1.704088 -2.865140
v -4.843150 1.704088 -2.853568
v -4.618654 1.555967 -3.075749
v -4.843150 1.555967 -2.853568
v -5.303713 1.407846 -1.974100
v -5.095418 1.407846 -1.763491
v -4.782976 1.555967 -3.247014
v -4.058572 1.555966 -2.087505
v -5.289827 1.704087 -2.406891
v -4.618654 1.704088 -3.075749
v -4.440446 1.704087 -1.999558
v -4.662627 1.704087 -1.777377
v -4.202064 1.704088 -2.654530
v -4.215950 1.704087 -2.221740
v -5.065331 1.704088 -2.629072
v -4.296954 1.704087 -1.851437
v -5.081532 1.555966 -2.196281
v -4.998214 1.555968 -3.464567
v -3.790102 1.407846 -3.064178
v -3.790102 1.111604 -3.064178
v -3.977568 1.407846 -2.879026
v -3.935909 0.815363 -3.209984
v -3.790102 0.815362 -3.064178
v -3.581808 1.111604 -2.561955
v -3.896564 1.389331 -2.566584
v -3.595694 1.111604 -2.867454
v -3.898879 1.111604 -2.566584
v -3.778531 0.815362 -3.052605
v -4.079401 1.111604 -2.749420
v -4.081716 0.815362 -2.751735
v -3.776216 1.389331 -3.050291
v -4.079401 1.389331 -2.749420
v -3.595694 0.815362 -2.867454
v -3.898879 0.815362 -2.566584
v -3.593379 1.389331 -2.867454
v -4.081716 0.537636 -2.751735
v -3.898879 0.537635 -2.566584
v -3.595694 0.537636 -2.867455
v -3.776216 1.111604 -3.052605
v -3.778531 0.537636 -3.052606
v -3.790102 0.519120 -3.064178
v -3.581808 0.519120 -2.855882
v -3.581808 0.815362 -2.853568
v -3.581808 1.111604 -2.853568
v -4.051629 0.371000 -3.096579
v -3.792417 0.371000 -3.066492
v -3.938223 0.371000 -3.214613
v -3.697527 0.370999 -2.735534
v -3.452202 0.370999 -2.682303
v -3.584122 0.370999 -2.858197
v -3.581808 0.370999 -2.855882
v -3.790102 0.371000 -3.064178
v -3.542463 0.519120 -2.598985
v -3.542463 0.815362 -2.598985
v -4.007655 1.454134 -2.784136
v -3.861848 1.657800 -2.638330
v -3.861848 1.454134 -2.638330
v -4.007655 1.657800 -2.784136
v -3.769273 1.704088 -2.668417
v -3.977568 1.704088 -2.879026
v -4.171977 0.889423 -3.004003
v -3.947481 0.815363 -3.223870
v -4.171977 0.815362 -3.004003
v -4.192806 0.815363 -3.471510
v -4.417302 0.889424 -3.249329
v -4.417302 0.815363 -3.249329
v -4.195121 0.537636 -3.471510
v -4.417302 0.537636 -3.251643
v -4.192806 0.889424 -3.471510
v -3.947481 0.889424 -3.223870
v -3.949795 0.537636 -3.223870
v -4.171977 0.537636 -3.004004
v -4.206693 1.111605 -3.483082
v -3.935909 1.111604 -3.209984
v -4.206693 0.815363 -3.485396
v -4.206693 0.519121 -3.485396
v -3.935909 0.519121 -3.212298
v -4.185863 1.407846 -3.087321
v -3.935909 0.371000 -3.212298
v -4.211321 0.371000 -3.487711
v -4.285382 1.657800 -3.052605
v -4.394158 1.704089 -3.297931
v -4.185863 1.704088 -3.087321
v -4.431188 1.657800 -3.200726
v -4.394158 1.407847 -3.297931
v -4.285382 1.454134 -3.052605
v -4.431188 1.454134 -3.200726
v -4.558480 1.407847 -3.469195
v -4.482105 0.222880 -3.545570
v -4.211321 0.222880 -3.487711
v -4.482105 0.519121 -3.545570
v -4.521450 1.111605 -3.508540
v -4.482105 0.815363 -3.545570
v -3.523948 1.407846 -2.617500
v -3.486917 1.111604 -2.654531
v -4.030799 1.852208 -1.981043
v -4.058572 1.704087 -2.087505
v -3.813246 1.852208 -1.923183
v -3.734557 1.704087 -2.001873
v -5.169478 1.852208 -3.281730
v -3.908136 0.370999 -2.948458
v -3.549406 0.370999 -2.589728
v -4.482105 0.371000 -3.545570
v -4.188178 1.852208 -1.821350
v -3.551721 0.371000 -3.388192
v -5.414804 1.555968 -3.446052
vt 0.312500 0.625000
vt 0.250000 0.750000
vt 0.250000 0.625000
vt 0.375000 0.750000
vt 0.437500 0.625000
vt 0.375000 0.625000
vt 0.250000 0.625000
vt 0.312500 0.750000
vt 0.625000 0.875000
vt 0.687500 0.875000
vt 0.625000 0.750000
vt 0.375000 0.625000
vt 0.437500 0.750000
vt 0.437500 0.625000
vt 0.687500 0.750000
vt 0.625000 0.875000
vt 0.625000 0.750000
vt 0.687500 0.750000
vt 0.625000 0.875000
vt 0.625000 0.750000
vt 0.687500 0.750000
vt 0.625000 0.875000
vt 0.625000 0.750000
vt 0.687500 0.750000
vt 0.625000 0.875000
vt 0.625000 0.750000
vt 0.687500 0.750000
vt 0.625000 0.875000
vt 0.625000 0.750000
vt 0.687500 0.750000
vt 0.625000 0.875000
vt 0.625000 0.750000
vt 0.687500 0.750000
vt 0.625000 0.875000
vt 0.625000 0.750000
vt 0.687500 0.750000
vt 0.625000 0.875000
vt 0.625000 0.750000
vt 0.375000 0.750000
vt 0.437500 0.625000
vt 0.375000 0.625000
vt 0.375000 0.750000
vt 0.437500 0.625000
vt 0.375000 0.625000
vt 0.375000 0.625000
vt 0.437500 0.750000
vt 0.437500 0.625000
vt 0.625000 0.875000
vt 0.687500 0.750000
vt 0.625000 0.750000
vt 0.625000 0.875000
vt 0.687500 0.750000
vt 0.625000 0.750000
vt 0.625000 0.875000
vt 0.625000 0.750000
vt 0.625000 0.875000
vt 0.625000 0.750000
vt 0.625000 0.875000
vt 0.625000 0.750000
vt 0.375000 0.750000
vt 0.437500 0.625000
vt 0.375000 0.625000
vt 0.375000 0.625000
vt 0.437500 0.750000
vt 0.437500 0.625000
vt 0.375000 0.750000
vt 0.437500 0.625000
vt 0.375000 0.625000
vt 0.375000 0.750000
vt 0.437500 0.625000
vt 0.375000 0.625000
vt 0.625000 0.875000
vt 0.687500 0.750000
vt 0.375000 0.750000
vt 0.437500 0.625000
vt 0.375000 0.625000
vt 0.375000 0.750000
vt 0.437500 0.625000
vt 0.375000 0.625000
vt 0.375000 0.750000
vt 0.437500 0.625000
vt 0.375000 0.625000
vt 0.625000 0.750000
vt 0.625000 0.875000
vt 0.687500 0.750000
vt 0.625000 0.875000
vt 0.687500 0.750000
vt 0.625000 0.750000
vt 0.625000 0.875000
vt 0.687500 0.750000
vt 0.625000 0.750000
vt 0.625000 0.750000
vt 0.687500 0.875000
vt 0.687500 0.750000
vt 0.625000 0.875000
vt 0.687500 0.750000
vt 0.625000 0.750000
vt 0.687500 0.750000
vt 0.625000 0.875000
vt 0.625000 0.750000
vt 0.625000 0.750000
vt 0.687500 0.875000
vt 0.625000 0.875000
vt 0.625000 0.875000
vt 0.687500 0.750000
vt 0.625000 0.750000
vt 0.687500 0.750000
vt 0.625000 0.750000
vt 0.625000 0.750000
vt 0.687500 0.875000
vt 0.625000 0.875000
vt 0.625000 0.750000
vt 0.687500 0.875000
vt 0.687500 0.750000
vt 0.625000 0.750000
vt 0.687500 0.875000
vt 0.625000 0.875000
vt 0.625000 0.750000
vt 0.625000 0.875000
vt 0.625000 0.875000
vt 0.687500 0.750000
vt 0.625000 0.875000
vt 0.625000 0.750000
vt 0.687500 0.750000
vt 0.625000 0.875000
vt 0.625000 0.750000
vt 0.625000 0.875000
vt 0.625000 0.875000
vt 0.625000 0.750000
vt 0.625000 0.750000
vt 0.687500 0.875000
vt 0.500000 0.625000
vt 0.562500 0.500000
vt 0.500000 0.500000
vt 0.500000 0.625000
vt 0.562500 0.500000
vt 0.500000 0.500000
vt 0.312500 1.000000
vt 0.375000 0.875000
vt 0.312500 0.875000
vt 0.750000 1.000000
vt 0.812500 0.875000
vt 0.750000 0.875000
vt 0.625000 0.875000
vt 0.687500 0.750000
vt 0.812500 0.875000
vt 0.875000 1.000000
vt 0.875000 0.875000
vt 0.625000 0.750000
vt 0.625000 0.875000
vt 0.625000 0.750000
vt 0.625000 0.875000
vt 0.687500 0.750000
vt 0.625000 0.750000
vt 0.625000 0.875000
vt 0.687500 0.750000
vt 0.625000 0.750000
vt 0.375000 0.625000
vt 0.437500 0.750000
vt 0.437500 0.625000
vt 0.750000 1.000000
vt 0.812500 0.875000
vt 0.750000 0.875000
vt 0.625000 0.750000
vt 0.687500 0.875000
vt 0.625000 0.875000
vt 0.687500 0.750000
vt 0.625000 0.750000
vt 0.625000 0.750000
vt 0.687500 0.875000
vt 0.625000 0.875000
vt 0.687500 0.750000
vt 0.625000 0.750000
vt 0.687500 0.750000
vt 0.625000 0.875000
vt 0.625000 0.750000
vt 0.687500 0.750000
vt 0.625000 0.875000
vt 0.625000 0.750000
vt 0.687500 0.750000
vt 0.625000 0.750000
vt 0.625000 0.875000
vt 0.687500 0.750000
vt 0.625000 0.750000
vt 0.625000 0.875000
vt 0.625000 0.750000
vt 0.687500 0.875000
vt 0.625000 0.875000
vt 0.625000 0.750000
vt 0.687500 0.875000
vt 0.625000 0.875000
vt 0.687500 0.750000
vt 0.625000 0.875000
vt 0.625000 0.750000
vt 0.625000 0.750000
vt 0.687500 0.875000
vt 0.625000 0.875000
vt 0.625000 0.750000
vt 0.687500 0.875000
vt 0.625000 0.750000
vt 0.687500 0.875000
vt 0.687500 0.750000
vt 0.812500 1.000000
vt 0.875000 0.875000
vt 0.812500 0.875000
vt 0.000000 0.750000
vt 0.062500 0.875000
vt 0.000000 0.875000
vt 0.187500 0.625000
vt 0.250000 0.750000
vt 0.250000 0.625000
vt 0.750000 1.000000
vt 0.812500 0.875000
vt 0.750000 0.875000
vt 0.625000 0.750000
vt 0.687500 0.875000
vt 0.687500 0.750000
vt 0.625000 0.750000
vt 0.687500 0.875000
vt 0.687500 0.750000
vt 0.625000 0.875000
vt 0.687500 0.750000
vt 0.625000 0.750000
vt 0.625000 0.750000
vt 0.687500 0.875000
vt 0.687500 0.750000
vt 0.375000 0.750000
vt 0.437500 0.625000
vt 0.375000 0.625000
vt 0.750000 1.000000
vt 0.812500 0.875000
vt 0.750000 0.875000
vt 0.375000 0.750000
vt 0.437500 0.625000
vt 0.375000 0.625000
vt 0.625000 0.875000
vt 0.687500 0.750000
vt 0.625000 0.750000
vt 0.625000 0.750000
vt 0.625000 0.750000
vt 0.687500 0.875000
vt 0.687500 0.750000
vt 0.625000 0.875000
vt 0.625000 0.750000
vt 0.625000 0.750000
vt 0.687500 0.875000
vt 0.625000 0.875000
vt 0.250000 0.750000
vt 0.187500 0.625000
vt 0.250000 0.625000
vt 0.687500 0.750000
vt 0.625000 0.875000
vt 0.187500 0.625000
vt 0.187500 0.750000
vt 0.750000 1.000000
vt 0.812500 0.875000
vt 0.750000 0.875000
vt 0.312500 0.625000
vt 0.375000 0.750000
vt 0.375000 0.625000
vt 0.312500 0.625000
vt 0.250000 0.750000
vt 0.250000 0.625000
vt 0.312500 0.750000
vt 0.312500 0.625000
vt 0.375000 0.750000
vt 0.437500 0.625000
vt 0.375000 0.625000
vt 0.437500 0.750000
vt 0.250000 0.750000
vt 0.375000 0.750000
vt 0.687500 0.875000
vt 0.687500 0.875000
vt 0.687500 0.875000
vt 0.687500 0.875000
vt 0.687500 0.875000
vt 0.687500 0.875000
vt 0.437500 0.750000
vt 0.437500 0.750000
vt 0.375000 0.750000
vt 0.687500 0.875000
vt 0.687500 0.875000
vt 0.437500 0.750000
vt 0.437500 0.750000
vt 0.687500 0.875000
vt 0.437500 0.750000
vt 0.437500 0.750000
vt 0.437500 0.750000
vt 0.687500 0.875000
vt 0.687500 0.875000
vt 0.687500 0.875000
vt 0.687500 0.750000
vt 0.687500 0.875000
vt 0.687500 0.875000
vt 0.687500 0.750000
vt 0.625000 0.875000
vt 0.687500 0.875000
vt 0.687500 0.750000
vt 0.687500 0.875000
vt 0.562500 0.625000
vt 0.562500 0.625000
vt 0.375000 1.000000
vt 0.812500 1.000000
vt 0.687500 0.875000
vt 0.812500 1.000000
vt 0.625000 0.875000
vt 0.687500 0.875000
vt 0.375000 0.750000
vt 0.812500 1.000000
vt 0.625000 0.875000
vt 0.687500 0.875000
vt 0.625000 0.875000
vt 0.687500 0.875000
vt 0.687500 0.875000
vt 0.687500 0.875000
vt 0.687500 0.875000
vt 0.687500 0.750000
vt 0.687500 0.750000
vt 0.625000 0.875000
vt 0.875000 1.000000
vt 0.062500 0.750000
vt 0.187500 0.750000
vt 0.812500 1.000000
vt 0.625000 0.875000
vt 0.625000 0.875000
vt 0.625000 0.875000
vt 0.437500 0.750000
vt 0.812500 1.000000
vt 0.437500 0.750000
vt 0.687500 0.875000
vt 0.625000 0.875000
vt 0.625000 0.875000
vt 0.687500 0.875000
vt 0.687500 0.750000
vt 0.687500 0.875000
vt 0.812500 1.000000
vt 0.312500 0.750000
vt 0.312500 0.750000
vt 0.437500 0.750000
vn 0.8258 0.5353 -0.1776
vn 0.5921 0.5423 0.5961
vn 0.3041 0.9018 0.3071
vn 0.9358 0.2524 -0.2463
vn 0.6631 0.6578 -0.3571
vn 0.5692 0.8085 -0.1494
vn 0.7736 0.5990 0.2066
vn 0.7253 0.6388 -0.2567
vn 0.2240 0.9548 -0.1953
vn 0.3084 0.8420 -0.4427
vn 0.1014 0.9893 -0.1046
vn 0.1637 0.7677 -0.6196
vn 0.0000 1.0000 0.0000
vn 0.5008 0.7059 0.5008
vn 0.8190 0.5730 -0.0303
vn 0.6353 0.6376 0.4357
vn -0.5018 0.7083 -0.4966
vn -0.6316 0.4497 -0.6316
vn -0.4621 0.8674 -0.1846
vn -0.5008 0.7059 -0.5008
vn -0.6313 0.4460 -0.6345
vn -0.4983 0.7077 -0.5009
vn -0.4372 0.6359 -0.6360
vn 0.5009 0.7059 0.5009
vn 0.6313 0.4460 0.6345
vn 0.4983 0.7077 0.5009
vn 0.6304 0.4485 0.6336
vn 0.4991 0.7065 0.5017
vn 0.6360 0.6344 0.4394
vn 0.0123 0.9102 -0.4140
vn -0.4337 0.6365 -0.6378
vn 0.0242 0.5748 -0.8179
vn -0.3017 0.9050 0.2999
vn -0.3019 0.9054 0.2986
vn 0.1053 0.9893 -0.1011
vn 0.3483 0.6604 -0.6653
vn -0.4974 0.7071 -0.5026
vn -0.5000 0.7071 -0.5000
vn 0.4049 0.9142 -0.0150
vn -0.3011 0.9052 -0.2999
vn 0.1850 0.8685 0.4599
vn 0.0036 0.5779 -0.8161
vn 0.5698 0.1724 -0.8035
vn 0.2318 0.8554 -0.4633
vn 0.7377 -0.0009 -0.6752
vn 0.7071 0.0000 -0.7071
vn 0.8485 0.1330 -0.5121
vn -0.4999 -0.7046 -0.5037
vn 0.0000 0.0000 -1.0000
vn -0.7044 0.0029 -0.7098
vn 1.0000 -0.0028 0.0005
vn 0.7054 -0.0055 0.7088
vn 0.7044 -0.0055 0.7098
vn 0.8545 -0.2999 -0.4241
vn 0.4987 -0.7062 0.5025
vn 0.0019 0.0000 -1.0000
vn -0.7044 0.0000 -0.7098
vn 0.4659 -0.2663 -0.8438
vn 0.4977 0.7077 0.5015
vn -0.4985 0.7066 -0.5023
vn 0.3894 0.3354 -0.8578
vn 0.9989 -0.0037 -0.0472
vn 0.8549 0.2989 -0.4241
vn 0.7099 0.0011 -0.7043
vn 0.8870 0.0129 -0.4615
vn 0.8918 0.0002 -0.4523
vn 0.9172 0.0180 -0.3980
vn 0.8944 -0.0094 -0.4472
vn 0.7099 0.0000 -0.7043
vn 0.9898 -0.0184 -0.1411
vn 0.9929 0.0337 -0.1143
vn 0.8671 0.4166 -0.2732
vn 0.2712 -0.4140 -0.8689
vn 0.2712 0.4140 -0.8689
vn 0.8671 -0.4166 -0.2732
vn 0.8669 0.4238 -0.2624
vn 0.0000 0.0000 0.0000
vn -0.4931 -0.7094 -0.5035
vn 0.0525 -0.0002 -0.9986
vn -0.7007 0.0013 -0.7135
vn 1.0000 -0.0042 0.0026
vn 0.4982 -0.7059 0.5034
vn 0.7034 -0.0029 0.7108
vn 0.8618 0.3306 -0.3846
vn 0.4999 0.7036 0.5051
vn 0.8498 -0.2979 -0.4349
vn 0.4728 -0.3028 -0.8275
vn 0.3905 0.3387 -0.8560
vn -0.4973 0.7072 -0.5025
vn 0.4275 0.3412 -0.8372
vn 0.6626 0.3574 -0.6582
vn 0.4794 0.0008 -0.8776
vn 0.4927 0.0111 -0.8701
vn 0.7036 0.0138 -0.7105
vn 0.4791 0.7501 -0.4559
vn 0.7110 -0.0013 -0.7032
vn 0.3864 -0.0016 -0.9223
vn 0.2608 -0.4283 -0.8652
vn 0.2768 0.4116 -0.8683
vn 0.8685 0.4174 -0.2675
vn 0.8712 -0.4271 -0.2421
vn 0.4458 0.6977 -0.5607
vn 0.2608 0.4283 -0.8652
vn 0.8712 0.4271 -0.2421
vn 0.5734 0.6071 -0.5501
vn 0.2090 0.0000 -0.9779
vn 0.2119 0.0013 -0.9773
vn 0.2150 0.3152 -0.9244
vn 0.1782 0.0380 -0.9833
vn -0.6918 -0.0003 -0.7220
vn -0.6983 0.0022 -0.7158
vn -0.2087 0.5987 -0.7733
vn 0.1743 0.5284 -0.8309
vn 0.2148 0.5441 -0.8111
vn 0.2472 0.2531 -0.9353
vn 0.8103 0.5450 -0.2155
vn 0.6999 0.7092 -0.0852
vn 0.6998 0.7092 -0.0852
vn -0.5929 0.5541 -0.5843
usemtl Material__25.089
s 1
f 1/1/1 2/2/2 3/3/3
f 4/4/4 5/5/5 6/6/6
f 4/7/4 7/8/7 1/1/1
f 8/9/8 9/10/9 10/11/10
f 11/12/11 12/13/12 13/14/13
f 14/15/14 15/16/15 16/17/16
f 17/18/17 18/19/18 19/20/19
f 20/21/20 21/22/21 18/23/18
f 22/24/22 23/25/23 21/26/21
f 24/27/24 25/28/25 26/29/26
f 26/30/26 27/31/27 28/32/28
f 28/33/28 29/34/29 30/35/26
f 31/36/30 32/37/31 33/38/32
f 19/39/19 34/40/33 35/41/34
f 5/42/5 32/43/31 36/44/35
f 16/45/16 37/46/36 11/47/11
f 26/48/26 38/49/13 24/50/24
f 31/51/30 30/52/26 39/53/37
f 40/54/13 17/18/17 41/55/13
f 22/56/22 14/15/14 42/57/38
f 43/58/39 20/21/20 40/59/13
f 31/60/30 3/61/3 44/62/13
f 45/63/40 43/64/39 40/65/13
f 1/66/1 33/67/32 5/68/5
f 18/69/18 46/70/41 19/71/19
f 28/72/28 44/73/13 26/29/26
f 27/74/27 23/75/23 29/76/29
f 43/77/39 37/78/36 15/79/15
f 6/80/6 36/81/35 47/82/13
f 48/83/42 49/84/43 50/85/44
f 48/86/42 9/87/9 8/88/8
f 51/89/45 49/90/43 52/91/46
f 53/92/47 8/93/8 10/94/10
f 54/95/48 55/96/49 56/97/50
f 57/98/51 58/99/52 59/100/53
f 58/101/52 60/102/54 61/103/55
f 56/104/50 62/105/56 63/106/57
f 54/95/48 60/107/54 64/108/58
f 65/109/59 57/110/51 59/111/53
f 66/112/60 62/113/56 67/114/61
f 67/115/61 65/116/59 66/117/60
f 60/107/54 8/9/8 64/108/58
f 49/118/43 60/102/54 68/119/62
f 49/90/43 57/120/51 52/91/46
f 52/121/46 69/122/63 70/123/64
f 70/124/64 67/125/61 71/126/65
f 67/114/61 72/127/66 71/126/65
f 62/105/56 73/128/67 72/129/66
f 73/130/67 64/131/58 8/9/8
f 74/132/13 75/133/13 76/134/13
f 77/135/13 78/136/13 79/137/13
f 70/138/64 80/139/68 81/140/69
f 82/141/70 72/142/66 83/143/71
f 83/144/71 73/145/67 53/92/47
f 82/146/70 80/147/68 71/148/65
f 84/149/72 9/10/9 50/85/44
f 85/150/73 9/87/9 86/151/74
f 87/152/75 88/153/76 85/154/73
f 84/155/72 89/156/77 87/157/75
f 9/158/9 11/159/11 10/160/10
f 87/161/75 86/162/74 84/163/72
f 23/164/23 89/165/77 50/85/44
f 88/166/76 16/167/16 9/168/9
f 88/169/76 42/170/38 14/15/14
f 90/171/78 91/172/79 92/173/80
f 93/174/81 94/175/82 95/176/83
f 96/177/84 95/178/83 97/179/85
f 90/171/78 98/180/86 99/181/87
f 92/182/80 100/183/88 101/184/89
f 96/177/84 101/185/89 100/186/88
f 99/181/87 102/187/90 103/188/91
f 104/189/92 98/190/86 93/191/81
f 104/192/92 96/193/84 105/194/93
f 106/195/94 96/196/84 100/197/88
f 100/183/88 51/89/45 106/195/94
f 51/198/45 99/199/87 103/188/91
f 102/200/90 107/201/95 103/202/91
f 81/203/69 106/204/94 70/205/64
f 105/206/93 108/207/96 109/208/97
f 103/209/91 50/210/44 49/211/43
f 70/212/64 51/213/45 52/214/46
f 110/215/98 111/216/99 112/217/100
f 113/218/101 114/219/102 111/220/99
f 115/221/103 114/222/102 116/223/104
f 115/224/103 112/225/100 107/226/95
f 29/227/29 50/228/44 107/229/95
f 113/230/101 115/231/103 116/232/104
f 36/233/35 114/234/102 117/235/105
f 112/236/100 29/237/29 107/238/95
f 32/239/31 111/216/99 114/222/102
f 112/240/100 39/241/37 30/52/26
f 118/242/106 109/243/97 119/244/106
f 109/245/97 120/246/107 105/247/93
f 114/248/102 102/249/90 121/250/108
f 122/251/109 102/252/90 104/189/92
f 121/253/108 117/254/105 114/248/102
f 105/255/93 122/256/109 104/257/92
f 53/258/47 123/259/110 124/260/111
f 45/261/40 125/262/112 126/263/113
f 126/263/113 127/264/114 128/265/115
f 126/266/113 12/267/12 37/268/36
f 1/1/1 7/8/7 2/2/2
f 4/4/4 1/269/1 5/5/5
f 4/7/4 129/270/116 7/8/7
f 11/12/11 37/271/36 12/13/12
f 14/15/14 43/272/39 15/16/15
f 17/18/17 20/273/20 18/19/18
f 20/21/20 22/274/22 21/22/21
f 22/24/22 42/170/38 23/25/23
f 24/27/24 46/275/41 25/28/25
f 26/30/26 25/276/25 27/31/27
f 28/33/28 27/277/27 29/34/29
f 31/36/30 39/241/37 32/37/31
f 19/39/19 46/278/41 34/40/33
f 5/42/5 33/279/32 32/43/31
f 16/45/16 15/280/15 37/46/36
f 26/48/26 44/281/13 38/49/13
f 31/51/30 28/282/28 30/52/26
f 40/54/13 20/273/20 17/18/17
f 22/56/22 43/272/39 14/15/14
f 43/58/39 22/274/22 20/21/20
f 31/60/30 1/269/1 3/61/3
f 45/63/40 126/266/113 43/64/39
f 1/66/1 31/283/30 33/67/32
f 18/69/18 25/284/25 46/70/41
f 28/72/28 31/285/30 44/73/13
f 27/74/27 21/286/21 23/75/23
f 43/77/39 126/287/113 37/78/36
f 6/80/6 5/288/5 36/81/35
f 48/86/42 50/289/44 9/87/9
f 51/89/45 103/290/91 49/90/43
f 53/92/47 73/128/67 8/93/8
f 54/95/48 64/131/58 55/96/49
f 57/98/51 68/291/62 58/99/52
f 58/101/52 68/292/62 60/102/54
f 56/104/50 55/293/49 62/105/56
f 54/95/48 61/294/55 60/107/54
f 65/109/59 69/295/63 57/110/51
f 66/112/60 63/296/57 62/113/56
f 67/115/61 69/295/63 65/116/59
f 60/107/54 48/297/42 8/9/8
f 49/118/43 48/298/42 60/102/54
f 49/90/43 68/291/62 57/120/51
f 52/121/46 57/110/51 69/122/63
f 70/124/64 69/299/63 67/125/61
f 67/114/61 62/113/56 72/127/66
f 62/105/56 55/293/49 73/128/67
f 73/130/67 55/96/49 64/131/58
f 74/132/13 130/300/13 75/133/13
f 77/135/13 131/301/117 78/136/13
f 70/138/64 71/302/65 80/139/68
f 82/141/70 71/303/65 72/142/66
f 83/144/71 72/304/66 73/145/67
f 82/146/70 131/305/118 80/147/68
f 84/149/72 86/306/74 9/10/9
f 85/150/73 88/307/76 9/87/9
f 87/152/75 89/165/77 88/153/76
f 84/155/72 50/289/44 89/156/77
f 9/158/9 16/308/16 11/159/11
f 87/161/75 85/309/73 86/162/74
f 23/164/23 42/310/38 89/165/77
f 88/166/76 14/311/14 16/167/16
f 88/169/76 89/312/77 42/170/38
f 90/171/78 99/199/87 91/172/79
f 93/174/81 98/190/86 94/175/82
f 96/177/84 93/313/81 95/178/83
f 90/171/78 94/314/82 98/180/86
f 92/182/80 91/315/79 100/183/88
f 96/177/84 97/316/85 101/185/89
f 99/181/87 98/180/86 102/187/90
f 104/189/92 102/317/90 98/190/86
f 104/192/92 93/313/81 96/193/84
f 106/195/94 105/318/93 96/196/84
f 100/183/88 91/315/79 51/89/45
f 51/198/45 91/172/79 99/199/87
f 102/200/90 114/319/102 107/201/95
f 81/203/69 108/320/96 106/204/94
f 105/206/93 106/321/94 108/207/96
f 103/209/91 107/322/95 50/210/44
f 70/212/64 106/323/94 51/213/45
f 110/215/98 113/324/101 111/216/99
f 113/218/101 116/325/104 114/219/102
f 115/221/103 107/201/95 114/222/102
f 115/224/103 110/326/98 112/225/100
f 29/227/29 23/327/23 50/228/44
f 113/230/101 110/328/98 115/231/103
f 36/233/35 32/329/31 114/234/102
f 112/236/100 30/330/26 29/237/29
f 32/239/31 39/331/37 111/216/99
f 112/240/100 111/332/99 39/241/37
f 118/242/106 132/333/106 109/243/97
f 109/245/97 132/334/106 120/246/107
f 122/251/109 121/335/108 102/252/90
f 105/255/93 120/336/107 122/256/109
f 53/258/47 10/337/10 123/259/110
f 45/261/40 133/338/119 125/262/112
f 126/263/113 125/262/112 127/264/114
f 126/266/113 128/339/115 12/267/12
l 109 76
l 135 6
l 79 75
l 118 120
l 134 75
