# Blender v2.79 (sub 0) OBJ File: ''
# www.blender.org
mtllib hurricos.134.mtl
o hurricos.134_hurricos.114_tex_72.401
v -1.582175 0.519118 4.344183
v -1.894618 0.519118 4.476103
v -1.584489 0.519118 4.714485
v -1.850644 0.519118 4.867235
v -1.859902 0.370998 4.860291
v -1.565974 0.370998 4.716800
v -1.561346 0.370998 4.344183
v -1.829815 0.370998 4.110430
v -1.718724 -0.073365 4.038683
v -1.538202 0.222877 4.344183
v -1.454884 -0.073365 4.330296
v -1.545145 0.222877 4.721428
v -1.443312 -0.073365 4.763087
v -1.790470 -0.073365 4.976011
v -1.778898 0.222877 4.078028
v -1.841387 0.222877 4.895008
v -1.873788 0.519118 4.117373
v -2.142257 0.495974 4.580251
vt 0.500000 0.500000
vt 0.562500 0.625000
vt 0.562500 0.500000
vt 0.500000 0.625000
vt 0.562500 0.500000
vt 0.500000 0.500000
vt 0.187500 0.625000
vt 0.250000 0.500000
vt 0.187500 0.500000
vt 0.250000 0.500000
vt 0.312500 0.625000
vt 0.312500 0.500000
vt 0.125000 0.500000
vt 0.187500 0.625000
vt 0.187500 0.500000
vt 0.000000 0.625000
vt 0.062500 0.750000
vt 0.062500 0.625000
vt 0.000000 0.625000
vt 0.062500 0.750000
vt 0.062500 0.625000
vt 0.000000 0.750000
vt 0.062500 0.625000
vt 0.000000 0.625000
vt 0.000000 0.875000
vt 0.062500 1.000000
vt 0.062500 0.875000
vt 0.000000 0.875000
vt 0.062500 1.000000
vt 0.062500 0.875000
vt 0.000000 1.000000
vt 0.062500 0.875000
vt 0.000000 0.875000
vt 0.500000 0.625000
vt 0.562500 0.625000
vt 0.250000 0.625000
vt 0.250000 0.625000
vt 0.125000 0.625000
vt 0.000000 0.750000
vt 0.000000 0.750000
vt 0.062500 0.750000
vt 0.000000 1.000000
vt 0.000000 1.000000
vt 0.062500 1.000000
vn 0.6679 0.6718 -0.3203
vn -0.0269 0.9996 0.0030
vn 0.6408 0.6467 0.4137
vn 0.3142 0.7392 0.5957
vn 0.4571 0.1152 0.8820
vn 0.8438 0.1395 0.5181
vn 0.9104 0.1548 -0.3838
vn 0.6153 0.2680 -0.7413
vn 0.7212 0.2332 -0.6523
vn 0.9149 0.2095 -0.3451
vn 0.8989 0.2818 -0.3355
vn 0.8405 0.2467 0.4824
vn 0.8291 0.3467 0.4386
vn 0.4904 0.2978 0.8191
vn 0.6843 0.2703 -0.6773
vn 0.4647 0.2610 0.8461
vn 0.4471 0.6853 -0.5748
vn -0.0889 0.9960 0.0100
usemtl Material__25.002
s 1
f 1/1/1 2/2/2 3/3/3
f 2/4/2 4/5/4 3/6/3
f 3/7/3 5/8/5 6/9/6
f 7/10/7 3/11/3 6/12/6
f 8/13/8 1/14/1 7/15/7
f 9/16/9 10/17/10 11/18/11
f 11/19/11 12/20/12 13/21/13
f 12/22/12 14/23/14 13/24/13
f 15/25/15 7/26/7 10/27/10
f 10/28/10 6/29/6 12/30/12
f 6/31/6 16/32/16 12/33/12
f 1/1/1 17/34/17 2/2/2
f 2/4/2 18/35/18 4/5/4
f 3/7/3 4/36/4 5/8/5
f 7/10/7 1/37/1 3/11/3
f 8/13/8 17/38/17 1/14/1
f 9/16/9 15/39/15 10/17/10
f 11/19/11 10/40/10 12/20/12
f 12/22/12 16/41/16 14/23/14
f 15/25/15 8/42/8 7/26/7
f 10/28/10 7/43/7 6/29/6
f 6/31/6 5/44/5 16/32/16
