# Blender v2.79 (sub 0) OBJ File: ''
# www.blender.org
mtllib hurricos.094.mtl
o hurricos.094_hurricos.114_tex_72.361
v 8.291010 1.074573 0.164396
v 8.316467 1.074573 0.090335
v 8.286381 1.088460 0.085706
v 8.286381 1.056058 0.085706
vt 0.312500 0.875000
vt 0.375000 0.875000
vt 0.312500 0.750000
vt 0.375000 0.875000
vt 0.312500 0.750000
vt 0.375000 0.875000
vt 0.312500 0.750000
vn -0.0725 0.0191 0.9972
vn 0.9444 0.0532 0.3246
vn -0.5840 0.7928 0.1743
vn -0.5317 -0.8169 0.2235
usemtl Material__25.039
s 1
f 1/1/1 2/2/2 3/3/3
f 1/1/1 4/4/4 2/5/2
f 1/1/1 3/6/3 4/7/4
