# Blender v2.79 (sub 0) OBJ File: 'crab.blend'
# www.blender.org
o Cube
v 0.770526 -1.000000 -1.984329
v 0.770526 -1.000000 1.949508
v -1.177610 -1.000000 1.949507
v -1.177610 -1.000000 -1.984329
v 0.488026 0.732776 -1.172877
v 1.521180 1.990819 2.169147
v 1.428423 1.580922 2.595685
v -0.884206 0.732776 -1.172878
v 2.352639 -0.627987 -0.806907
v 2.352639 -0.627987 0.891206
v 1.602438 0.369358 -0.527294
v 1.602438 0.369358 0.595226
v -2.685952 -0.660293 0.941589
v -2.685951 -0.660293 -0.812198
v -1.946656 0.373112 0.628531
v -1.946656 0.373112 -0.530791
v -1.114876 0.539733 0.994150
v -0.884207 0.604343 0.452008
v -0.621930 0.585941 1.095544
v -0.943914 0.263204 1.269324
v 0.488026 0.605614 0.432371
v 0.738902 0.537184 0.982913
v 0.545204 0.264946 1.268387
v 0.258624 0.585941 1.095545
v 1.435104 0.746118 2.590771
v -1.132649 0.744862 1.970587
v 1.566785 0.976448 1.716618
v -0.922456 0.921438 1.330784
v -1.657972 0.990676 1.686792
v -1.194485 1.001537 1.156725
v 1.957175 0.958209 2.238980
v 1.191710 0.939815 1.992503
v -1.085172 1.562105 1.980784
v -1.200399 1.979888 1.570234
v 1.673765 1.763766 1.901750
v -0.922907 1.689397 1.481416
v -1.506786 1.744361 1.764027
v -1.382258 1.765864 1.334711
v 1.845224 1.735650 2.322320
v 1.237570 1.721047 2.126657
v -1.547097 -0.916785 1.702605
v 0.216437 -1.016492 1.930268
v -0.488895 -1.002820 1.944301
v -0.802997 -0.413822 1.633875
v -0.165978 -0.395720 1.620918
v 0.355534 -0.423317 1.588602
v -2.264790 -0.776542 1.135361
v -1.945454 -0.352649 1.261126
v 0.285738 -1.017435 1.201030
v -0.220574 -1.013594 1.201030
v -0.781287 -1.000000 1.201030
v 1.787093 -0.738115 1.202963
v 1.175386 -0.904802 1.678690
v 1.247172 -0.036325 1.378262
v -2.599992 -0.867527 3.059984
v -2.346105 -0.272570 2.437921
v -1.802952 -0.918019 2.615870
v 2.277277 -0.715856 2.895443
v 1.582489 -0.879387 2.421991
v 1.863731 -0.441635 2.381832
v -1.649500 -0.562596 4.980545
v -2.244420 -0.135491 3.154416
v -1.414278 -0.642341 4.691779
v 1.823900 -0.778903 5.077414
v 0.385358 -0.841778 4.384582
v 1.799484 -0.108058 3.217461
v 1.431420 -0.833604 4.008580
v -2.007269 -0.782958 3.688381
v -1.122055 -0.987166 1.366371
v 0.677752 -0.983486 1.385547
v -1.177610 -1.385811 -0.076504
v 0.770526 -1.385811 -0.097209
v -1.594745 -0.906053 -1.660174
v -2.254330 -0.757502 -1.147610
v -1.530751 -1.252193 -0.860529
v -2.685951 -0.660293 0.383994
v -2.685951 -0.660293 -0.350114
v -2.117169 -1.120121 -0.000801
v 1.243803 -0.888715 -1.632112
v 1.927221 -0.728018 -1.123507
v 1.178683 -1.235754 -0.890585
v 2.352639 -0.627987 -0.382465
v 2.352639 -0.627987 0.415494
v 1.710361 -1.110737 0.005436
v -1.507979 -0.932096 1.277843
v -1.856141 -1.210754 0.679845
v 1.023924 -0.934720 1.312709
v 1.357003 -1.199132 0.652885
v 2.482614 -2.365561 1.821169
v -3.380260 -1.407471 1.778664
v -3.240048 -1.407471 -2.027386
v -4.079300 -2.525132 0.056170
v 2.584888 -2.365561 -2.014941
v 4.130831 -1.704822 0.059202
vt 0.117664 0.953107
vt 0.103280 0.969687
vt 0.103280 0.953060
vt 0.118762 0.884628
vt 0.122113 0.878259
vt 0.136213 0.884822
vt 0.125003 0.939494
vt 0.123312 0.948073
vt 0.129301 0.893794
vt 0.127078 0.892055
vt 0.129301 0.891132
vt 0.049982 0.964244
vt 0.044572 0.963124
vt 0.049982 0.955546
vt 0.138481 0.906022
vt 0.118603 0.900917
vt 0.136289 0.900917
vt 0.149913 0.883348
vt 0.156598 0.885464
vt 0.156598 0.892491
vt 0.149913 0.894228
vt 0.051963 0.957714
vt 0.057816 0.968581
vt 0.049345 0.967060
vt 0.151606 0.898927
vt 0.143774 0.903161
vt 0.105840 0.883023
vt 0.099858 0.892197
vt 0.099858 0.885752
vt 0.117233 0.906022
vt 0.105840 0.894264
vt 0.131213 0.972815
vt 0.127996 0.972485
vt 0.128481 0.969675
vt 0.115926 0.879311
vt 0.107539 0.877728
vt 0.042639 0.909570
vt 0.034822 0.921598
vt 0.034594 0.909563
vt 0.052451 0.961550
vt 0.047978 0.966445
vt 0.048289 0.954844
vt 0.054453 0.962555
vt 0.050713 0.959623
vt 0.054453 0.951727
vt 0.049313 0.964854
vt 0.043393 0.958823
vt 0.049313 0.953531
vt 0.051920 0.970029
vt 0.046448 0.957946
vt 0.122679 0.950635
vt 0.120267 0.944644
vt 0.125530 0.948968
vt 0.065638 0.949077
vt 0.065638 0.958368
vt 0.062374 0.953293
vt 0.053855 0.958809
vt 0.049371 0.970393
vt 0.046496 0.964220
vt 0.119155 0.960657
vt 0.115057 0.970733
vt 0.117739 0.971695
vt 0.111168 0.961369
vt 0.115447 0.971028
vt 0.118145 0.960284
vt 0.042508 0.921172
vt 0.034698 0.909696
vt 0.042449 0.909540
vt 0.108783 0.959838
vt 0.113528 0.959719
vt 0.031828 0.908998
vt 0.035313 0.919571
vt 0.032483 0.920020
vt 0.121328 0.970447
vt 0.121490 0.959595
vt 0.115401 0.941904
vt 0.112440 0.952568
vt 0.111796 0.940875
vt 0.117517 0.974734
vt 0.113076 0.972123
vt 0.112574 0.977238
vt 0.111597 0.972939
vt 0.117069 0.974224
vt 0.112406 0.974651
vt 0.117859 0.972787
vt 0.116847 0.977262
vt 0.120657 0.972975
vt 0.109437 0.970860
vt 0.113244 0.974709
vt 0.108767 0.973388
vt 0.065716 0.970603
vt 0.059272 0.955857
vt 0.063539 0.947817
vt 0.125459 0.960592
vt 0.117010 0.956716
vt 0.125448 0.953076
vt 0.127245 0.892318
vt 0.129515 0.890650
vt 0.129515 0.893290
vt 0.127803 0.892022
vt 0.129004 0.894430
vt 0.126927 0.894430
vt 0.107870 0.887632
vt 0.130917 0.891787
vt 0.106081 0.901350
vt 0.043509 0.955530
vt 0.052916 0.969425
vt 0.042546 0.966341
vt 0.128105 0.891380
vt 0.127109 0.889449
vt 0.129538 0.891112
vt 0.128120 0.893416
vt 0.127094 0.891676
vt 0.129572 0.893210
vt 0.128167 0.896164
vt 0.127117 0.894513
vt 0.129497 0.895772
vt 0.136419 0.888543
vt 0.130169 0.900671
vt 0.100111 0.889369
vt 0.050199 0.965910
vt 0.058170 0.947359
vt 0.058170 0.973112
vt 0.053256 0.952517
vt 0.062382 0.972155
vt 0.055359 0.963548
vt 0.042401 0.951062
vt 0.048670 0.976373
vt 0.040888 0.967427
vt 0.045547 0.954903
vt 0.045547 0.968939
vt 0.038817 0.960434
vt 0.112809 0.888421
vt 0.144799 0.887693
vt 0.133395 0.896558
vt 0.154015 0.891033
vt 0.129978 0.898836
vt 0.117697 0.891859
vt 0.110221 0.877381
vt 0.122601 0.890478
vt 0.108145 0.892005
vt 0.121983 0.886905
vt 0.132090 0.902356
vt 0.119112 0.894909
vt 0.128853 0.903598
vt 0.120084 0.888898
vt 0.149494 0.888229
vt 0.119569 0.884761
vt 0.123598 0.897407
vt 0.111617 0.896483
vt 0.126319 0.895804
vt 0.111822 0.887310
vt 0.142237 0.886618
vt 0.114627 0.880369
vt 0.147252 0.879627
vt 0.131494 0.888638
vt 0.127262 0.896212
vt 0.127268 0.895111
vt 0.129439 0.896211
vt 0.127269 0.892364
vt 0.129420 0.893442
vt 0.127270 0.890329
vt 0.129371 0.890606
vt 0.127294 0.888378
vt 0.129439 0.888377
vt 0.117821 0.969734
vt 0.128497 0.961509
vt 0.133290 0.878259
vt 0.131029 0.949578
vt 0.133101 0.953045
vt 0.128550 0.953048
vt 0.128261 0.950876
vt 0.111619 0.949606
vt 0.112130 0.939501
vt 0.104458 0.960266
vt 0.109762 0.959585
vt 0.109762 0.964889
vt 0.118386 0.945047
vt 0.054983 0.971993
vt 0.051351 0.969272
vt 0.054983 0.963714
vt 0.156598 0.896228
vt 0.139342 0.879425
vt 0.057816 0.957571
vt 0.099858 0.896254
vt 0.112533 0.903380
vt 0.104939 0.899111
vt 0.111850 0.972732
vt 0.123519 0.975498
vt 0.133101 0.969673
vt 0.125392 0.982502
vt 0.121165 0.982504
vt 0.118341 0.977716
vt 0.126884 0.978923
vt 0.113269 0.968500
vt 0.111807 0.965360
vt 0.118636 0.971882
vt 0.122684 0.963345
vt 0.125530 0.964792
vt 0.099858 0.880856
vt 0.102654 0.878345
vt 0.042727 0.921492
vt 0.052451 0.974555
vt 0.055885 0.951912
vt 0.059698 0.951767
vt 0.059698 0.963341
vt 0.055001 0.963714
vt 0.051351 0.955206
vt 0.055001 0.950773
vt 0.147125 0.878789
vt 0.111782 0.948732
vt 0.152351 0.878881
vt 0.156598 0.881275
vt 0.113400 0.945260
vt 0.044303 0.952757
vt 0.049796 0.961857
vt 0.044134 0.961857
vt 0.053855 0.970298
vt 0.034774 0.921804
vt 0.096403 0.941713
vt 0.099977 0.940360
vt 0.099888 0.952285
vt 0.113519 0.946347
vt 0.113357 0.957199
vt 0.110558 0.957011
vt 0.053902 0.970603
vt 0.116939 0.952262
vt 0.116851 0.962153
vt 0.144482 0.904101
vt 0.143893 0.878192
vt 0.052916 0.954844
vt 0.144603 0.896571
vt 0.050925 0.953719
vt 0.062382 0.948558
vt 0.048670 0.951714
vt 0.050708 0.974657
vt 0.044473 0.974657
vt 0.045105 0.968054
vt 0.142271 0.905928
vt 0.139654 0.876711
vt 0.159286 0.886056
vt 0.115066 0.899641
vt 0.153182 0.883996
vt 0.128494 0.967339
vt 0.128498 0.957188
vt 0.064904 0.968975
vt 0.054370 0.964849
vt 0.064904 0.954234
vt 0.052788 0.945842
vt 0.059633 0.949634
vt 0.059633 0.967848
vt 0.061727 0.969592
vt 0.051891 0.965535
vt 0.061727 0.943127
vt 0.050446 0.950776
vt 0.059983 0.948384
vt 0.059983 0.974012
vt 0.051351 0.973563
vt 0.044489 0.965937
vt 0.051351 0.950773
vt 0.055137 0.953765
vt 0.062374 0.949077
vt 0.062374 0.972033
vt 0.127389 0.944335
vt 0.045214 0.950076
vt 0.051046 0.947606
vt 0.051046 0.974933
vt 0.051895 0.955862
vt 0.062543 0.950039
vt 0.062543 0.979321
vt 0.054210 0.964237
vt 0.044901 0.959434
vt 0.054210 0.946276
vt 0.049345 0.952696
vt 0.060493 0.951570
vt 0.060493 0.972938
vt 0.048889 0.951480
vt 0.058934 0.946089
vt 0.058934 0.971552
vt 0.044080 0.953590
vt 0.052610 0.948805
vt 0.052610 0.971679
vt 0.060856 0.970707
vt 0.054042 0.963422
vt 0.060856 0.947053
vt 0.059720 0.973738
vt 0.049877 0.967674
vt 0.059720 0.949087
vt 0.054643 0.970260
vt 0.044661 0.970022
vt 0.054643 0.947112
vt 0.058733 0.966326
vt 0.048686 0.966326
vt 0.056597 0.945499
vt 0.050285 0.955271
vt 0.056379 0.969455
vt 0.050882 0.960486
vt 0.056379 0.949545
vt 0.106975 0.964748
vt 0.114946 0.971950
vt 0.107626 0.970309
vt 0.109750 0.943147
vt 0.105927 0.949004
vt 0.121397 0.939496
vt 0.115348 0.939499
vt 0.112097 0.982509
vt 0.105718 0.973233
vt 0.109574 0.978840
vt 0.115600 0.982507
vn 0.0000 -0.9797 -0.2003
vn -0.0005 0.9996 0.0288
vn 0.5234 -0.8275 -0.2032
vn 0.8434 -0.2985 0.4466
vn 0.9531 -0.0588 0.2969
vn 0.0000 0.4241 -0.9056
vn 0.7992 0.6011 0.0000
vn 0.2074 0.9783 0.0000
vn 0.4083 -0.9111 0.0567
vn 0.4247 0.5260 -0.7368
vn -0.8133 0.5818 -0.0000
vn -0.5692 0.4258 -0.7034
vn -0.1462 -0.9890 0.0222
vn -0.4202 0.5958 0.6844
vn 0.5589 -0.0004 0.8292
vn -0.2127 0.9771 0.0000
vn -0.9191 -0.0199 -0.3934
vn 0.7158 -0.4304 -0.5500
vn -0.4917 -0.8539 0.1704
vn -0.1868 0.9745 -0.1245
vn 0.1658 0.6551 0.7372
vn -0.6463 -0.1773 0.7422
vn 0.6348 0.7352 -0.2377
vn 0.9163 0.1708 -0.3622
vn -0.7521 -0.0315 -0.6583
vn -0.4570 0.0005 0.8894
vn -0.5885 0.2600 -0.7656
vn -0.9272 -0.0099 0.3744
vn 0.5649 0.1591 -0.8097
vn 0.9531 -0.0591 0.2968
vn -0.6619 0.7333 -0.1553
vn 0.2063 0.6827 0.7010
vn 0.3356 0.5536 -0.7622
vn -0.0731 0.6887 0.7214
vn 0.7238 0.5747 0.3817
vn -0.4230 0.5572 -0.7145
vn -0.6505 0.6133 0.4479
vn 0.6661 0.7114 -0.2240
vn 0.7108 0.6698 -0.2147
vn -0.0000 0.4719 0.8817
vn 0.8953 -0.3017 0.3276
vn 0.9799 -0.1760 0.0934
vn 0.1983 -0.9790 0.0471
vn 0.7210 0.6626 0.2029
vn -0.8098 -0.2508 0.5304
vn -0.8280 -0.2633 0.4951
vn -0.8907 -0.2909 0.3493
vn 0.8179 0.5446 0.1857
vn -0.1373 -0.9880 -0.0706
vn 0.3173 -0.9377 -0.1417
vn -0.9435 0.0623 -0.3255
vn -0.7705 0.2644 0.5801
vn -0.8628 0.0937 0.4968
vn 0.9521 0.1151 -0.2833
vn 0.0076 -0.9920 0.1264
vn -0.8222 0.5040 -0.2644
vn 0.7750 0.5911 -0.2236
vn -0.9009 0.4317 0.0453
vn -0.7365 0.6332 0.2380
vn 0.2520 0.6520 0.7152
vn -0.0506 -0.9984 -0.0268
vn -0.0242 -0.9997 0.0057
vn -0.0076 -1.0000 0.0006
vn 0.1081 -0.9930 -0.0469
vn -0.0021 -0.9802 -0.1982
vn 0.0030 -0.9607 0.2777
vn -0.0000 0.9969 0.0790
vn 0.0002 0.9969 0.0788
vn -0.0000 0.9996 0.0297
vn 0.1903 -0.9799 -0.0600
vn 0.2175 -0.8632 0.4557
vn 0.4550 -0.8880 0.0661
vn 0.2463 -0.9689 -0.0227
vn 0.2317 -0.9149 0.3306
vn 0.5452 -0.0955 0.8328
vn 0.2690 0.9601 0.0761
vn 0.2032 0.9787 0.0290
vn 0.5843 -0.7474 -0.3162
vn 0.5535 0.4255 -0.7159
vn -0.4485 0.5190 -0.7276
vn 0.0690 -0.9778 -0.1977
vn 0.0462 -0.9633 0.2644
vn -0.1940 -0.9802 -0.0401
vn -0.6287 -0.7777 0.0000
vn -0.4123 -0.8151 0.4071
vn -0.4811 0.3038 0.8223
vn -0.3429 0.5475 0.7633
vn -0.5134 0.5634 0.6473
vn -0.3107 0.4946 0.8117
vn -0.4091 0.0377 0.9117
vn 0.5510 -0.0101 0.8344
vn -0.2081 0.9777 0.0280
vn -0.2784 0.9575 0.0757
vn -0.7500 0.1008 -0.6537
vn 0.6754 -0.6284 -0.3859
vn -0.8820 -0.4642 0.0815
vn -0.2918 0.9537 -0.0727
vn 0.3924 0.7318 0.5572
vn 0.0705 0.4826 0.8730
vn 0.4584 0.1332 0.8787
vn 0.4982 0.2464 0.8313
vn 0.5687 0.5960 0.5668
vn -0.8354 0.3233 0.4445
vn 0.4357 0.8525 -0.2887
vn 0.8011 0.0317 -0.5976
vn -0.9407 0.2155 -0.2621
vn -0.4693 0.0163 0.8829
vn -0.4647 0.1763 -0.8677
vn -0.9273 -0.0096 0.3741
vn 0.3347 0.2909 -0.8963
vn 0.9537 -0.0574 0.2953
vn 0.7498 0.6285 -0.2068
vn -0.1423 0.4495 0.8819
vn -0.0022 0.4726 0.8813
vn 0.0020 0.4726 0.8813
vn 0.0047 0.4682 0.8836
vn -0.0000 0.4741 0.8805
vn 0.0778 0.4028 0.9120
vn 0.0796 0.4835 0.8717
vn 0.0044 0.4748 0.8801
vn 0.0188 -0.9994 0.0306
vn 0.1379 -0.9904 0.0000
vn 0.7199 0.6647 0.1999
vn 0.7100 0.6711 -0.2133
vn -0.0757 -0.9969 -0.0226
vn 0.2245 -0.9731 -0.0522
vn -0.7788 0.6182 -0.1064
vn -0.7556 0.5218 0.3960
vn -0.0530 -0.9818 0.1821
vn 0.0180 -0.9916 0.1283
vn -0.6657 0.6182 -0.4179
vn 0.7753 0.5909 -0.2231
vn -0.8552 0.3683 0.3647
vn 0.0909 -0.9608 0.2620
vn -0.0385 -0.9650 0.2594
vn -0.0073 -0.9627 0.2704
vn -0.0232 -0.9550 0.2956
vn -0.1110 -0.5285 -0.8416
vn -0.6887 -0.7227 -0.0580
vn 0.2932 -0.3737 0.8800
vn 0.5180 0.8554 0.0000
vn 0.7543 0.0746 -0.6523
vn -0.8011 0.5985 -0.0000
vn 0.3824 -0.8332 0.3993
vn 0.2440 -0.3770 -0.8935
vn -0.1463 -0.5201 0.8415
vn -0.1626 0.8719 -0.4619
vn 0.4073 0.5574 -0.7234
vn 0.3474 -0.8501 -0.3958
vn -0.5870 0.2540 -0.7687
vn -0.7387 -0.5832 -0.3378
vn -0.5201 -0.2958 0.8013
vn 0.3011 -0.9194 0.2531
vn 0.4528 -0.2791 0.8468
vn 0.0384 0.3692 0.9286
vn 0.0111 0.7042 0.7099
vn -0.2043 -0.9788 0.0165
vn -0.0257 -0.9652 0.2603
vn -0.0291 -0.9793 -0.2002
vn 0.4507 -0.8230 -0.3456
vn 0.1439 -0.9894 0.0213
vn 0.2980 -0.9054 -0.3024
vn 0.6008 -0.7994 0.0000
vn -0.4536 -0.8896 0.0527
vn -0.4418 -0.8356 -0.3264
vn -0.2364 -0.8207 0.5201
vn -0.2359 -0.9219 0.3074
vn -0.2817 -0.9060 -0.3160
vn -0.5919 -0.7189 -0.3646
s off
f 72/1/1 4/2/1 1/3/1
f 18/4/2 19/5/2 21/6/2
f 10/7/3 88/8/3 72/1/3
f 44/9/4 3/10/4 51/11/4
f 20/12/5 28/13/5 26/14/5
f 1/15/6 8/16/6 5/17/6
f 12/18/7 83/19/7 82/20/7
f 21/6/8 12/18/8 11/21/8
f 23/22/9 31/23/9 25/24/9
f 11/21/10 80/25/10 79/26/10
f 15/27/11 77/28/11 76/29/11
f 4/30/12 16/31/12 8/16/12
f 41/32/13 85/33/13 69/34/13
f 17/35/14 15/27/14 48/36/14
f 31/37/15 7/38/15 25/39/15
f 18/4/16 16/31/16 15/27/16
f 17/40/17 30/41/17 18/42/17
f 22/43/18 27/44/18 31/45/18
f 17/46/19 26/47/19 29/48/19
f 21/49/20 32/50/20 27/44/20
f 23/51/21 54/52/21 22/53/21
f 23/54/22 32/55/22 24/56/22
f 18/57/23 28/58/23 19/59/23
f 31/60/24 35/61/24 39/62/24
f 29/63/25 38/64/25 30/65/25
f 29/66/26 33/67/26 37/68/26
f 32/69/27 35/61/27 27/70/27
f 32/71/28 7/72/28 40/73/28
f 30/65/29 36/74/29 28/75/29
f 28/76/30 33/77/30 26/78/30
f 34/79/31 38/64/31 37/80/31
f 6/81/32 7/82/32 39/83/32
f 36/74/33 38/64/33 34/79/33
f 37/84/34 33/85/34 34/86/34
f 33/85/35 36/87/35 34/86/35
f 35/61/36 40/88/36 6/89/36
f 40/90/37 7/82/37 6/81/37
f 39/62/38 35/61/38 6/89/38
f 52/91/39 60/92/39 58/93/39
f 19/94/40 45/95/40 24/96/40
f 45/97/41 43/98/41 50/99/41
f 46/100/42 42/101/42 49/102/42
f 58/103/43 67/104/43 59/105/43
f 41/106/44 56/107/44 57/108/44
f 49/109/45 2/110/45 46/111/45
f 50/112/46 42/113/46 45/114/46
f 51/115/47 43/116/47 44/117/47
f 58/118/48 66/119/48 64/120/48
f 41/121/49 55/122/49 47/123/49
f 53/124/50 58/125/50 59/126/50
f 48/127/51 55/128/51 56/129/51
f 53/130/52 60/131/52 54/132/52
f 63/133/53 62/134/53 68/135/53
f 61/136/54 68/137/54 62/138/54
f 57/139/55 68/140/55 55/141/55
f 59/142/56 66/143/56 60/144/56
f 57/145/57 62/146/57 63/147/57
f 55/148/58 62/149/58 56/150/58
f 67/151/59 64/152/59 66/153/59
f 66/154/60 65/155/60 67/156/60
f 69/157/61 51/158/61 3/159/61
f 51/158/62 50/160/62 43/161/62
f 50/160/63 49/162/63 42/163/63
f 49/162/64 70/164/64 2/165/64
f 72/1/65 71/166/65 4/2/65
f 72/1/66 50/167/66 71/166/66
f 21/6/67 5/17/67 8/16/67
f 8/16/68 18/4/68 21/6/68
f 19/5/69 24/168/69 21/6/69
f 53/169/70 2/170/70 70/171/70
f 70/171/71 88/8/71 87/172/71
f 81/173/72 9/174/72 72/1/72
f 53/175/73 87/176/73 52/177/73
f 84/178/74 10/7/74 72/1/74
f 20/179/75 19/180/75 28/181/75
f 1/15/6 4/30/6 8/16/6
f 9/182/7 11/21/7 12/18/7
f 11/21/76 5/17/76 21/6/76
f 21/6/77 22/183/77 12/18/77
f 23/22/78 22/184/78 31/23/78
f 1/15/79 5/17/79 11/21/79
f 15/27/11 16/31/11 14/185/11
f 73/186/80 74/187/80 16/31/80
f 75/188/81 4/2/81 71/166/81
f 69/34/82 86/189/82 71/166/82
f 3/190/83 41/32/83 69/34/83
f 13/191/84 76/192/84 78/193/84
f 13/191/85 86/189/85 47/194/85
f 41/195/86 3/196/86 48/197/86
f 20/198/87 17/199/87 48/197/87
f 15/27/88 13/200/88 48/36/88
f 48/197/89 3/196/89 20/198/89
f 13/200/90 47/201/90 48/36/90
f 31/37/91 39/202/91 7/38/91
f 15/27/92 17/35/92 18/4/92
f 18/4/93 8/16/93 16/31/93
f 17/40/94 29/203/94 30/41/94
f 22/43/95 21/49/95 27/44/95
f 17/204/96 20/205/96 26/206/96
f 21/207/97 24/208/97 32/209/97
f 12/18/98 22/183/98 54/210/98
f 23/51/99 2/211/99 54/52/99
f 54/210/100 52/212/100 10/213/100
f 2/211/101 53/214/101 54/52/101
f 10/213/102 12/18/102 54/210/102
f 23/215/103 25/216/103 32/217/103
f 18/57/104 30/218/104 28/58/104
f 31/60/105 27/70/105 35/61/105
f 29/63/106 37/80/106 38/64/106
f 29/66/107 26/219/107 33/67/107
f 32/69/108 40/88/108 35/61/108
f 32/220/109 25/221/109 7/222/109
f 30/65/110 38/64/110 36/74/110
f 28/223/111 36/224/111 33/225/111
f 52/91/112 54/226/112 60/92/112
f 46/227/113 2/211/113 23/51/113
f 23/51/114 24/96/114 45/95/114
f 19/94/115 20/198/115 45/95/115
f 44/117/116 43/116/116 45/114/116
f 20/198/117 3/196/117 44/228/117
f 46/227/118 23/51/118 45/95/118
f 45/114/119 42/113/119 46/111/119
f 20/198/120 44/228/120 45/95/120
f 65/229/121 59/105/121 67/104/121
f 58/103/122 64/230/122 67/104/122
f 41/106/123 48/231/123 56/107/123
f 58/118/124 60/232/124 66/119/124
f 41/121/125 57/233/125 55/122/125
f 53/124/126 52/234/126 58/125/126
f 48/127/127 47/235/127 55/128/127
f 53/236/128 59/237/128 60/238/128
f 61/239/129 55/141/129 68/140/129
f 57/139/130 63/240/130 68/140/130
f 59/142/131 65/241/131 66/143/131
f 57/145/132 56/242/132 62/146/132
f 55/148/133 61/243/133 62/149/133
f 69/34/134 71/166/134 51/244/134
f 72/1/135 70/171/135 49/245/135
f 49/245/136 50/167/136 72/1/136
f 51/244/137 71/166/137 50/167/137
f 84/246/138 82/247/138 94/248/138
f 87/249/139 88/250/139 89/251/139
f 78/252/140 76/253/140 92/254/140
f 82/255/141 83/256/141 94/257/141
f 88/258/142 52/259/142 89/260/142
f 15/27/11 14/185/11 77/28/11
f 76/261/143 77/262/143 92/263/143
f 11/21/10 9/182/10 80/25/10
f 12/18/7 10/213/7 83/19/7
f 82/20/7 9/182/7 12/18/7
f 79/26/10 1/15/10 11/21/10
f 10/7/144 52/264/144 88/8/144
f 77/265/145 78/266/145 92/267/145
f 83/268/146 84/269/146 94/270/146
f 74/271/147 73/272/147 91/273/147
f 79/274/148 80/275/148 93/276/148
f 73/277/149 75/278/149 91/279/149
f 47/280/150 86/281/150 90/282/150
f 81/283/151 79/284/151 93/285/151
f 75/286/152 74/287/152 91/288/152
f 86/289/153 85/290/153 90/291/153
f 80/292/154 81/293/154 93/294/154
f 52/295/155 87/249/155 89/251/155
f 85/296/156 47/297/156 90/298/156
f 76/29/11 13/200/11 15/27/11
f 41/299/157 47/300/157 85/301/157
f 70/171/158 72/1/158 88/8/158
f 72/1/159 1/3/159 81/173/159
f 81/173/160 80/302/160 9/174/160
f 1/3/160 79/303/160 81/173/160
f 53/169/161 70/171/161 87/172/161
f 72/1/162 9/174/162 84/178/162
f 84/178/163 83/304/163 10/7/163
f 9/174/163 82/305/163 84/178/163
f 16/31/80 4/30/80 73/186/80
f 74/187/80 14/185/80 16/31/80
f 71/166/164 14/306/164 75/188/164
f 75/188/165 73/307/165 4/2/165
f 14/306/165 74/308/165 75/188/165
f 69/34/166 85/33/166 86/189/166
f 77/309/84 14/306/84 78/193/84
f 71/166/167 13/191/167 78/193/167
f 78/193/168 14/306/168 71/166/168
f 13/191/169 71/166/169 86/189/169
