# Blender v2.79 (sub 0) OBJ File: ''
# www.blender.org
mtllib hurricos.114.mtl
o hurricos.114_tex_72.331
v -4.729744 0.222880 -4.418095
v -4.523764 0.222880 -4.647220
v -4.523764 0.519122 -4.647220
v -4.729744 0.519121 -4.420409
v -4.583938 0.667242 -4.580102
v -4.729744 0.667242 -4.420409
v -4.526078 0.255281 -4.695822
v -4.468218 0.255281 -4.755996
v -4.468218 0.338599 -4.755996
v -4.526078 0.338599 -4.695822
v -4.440446 0.338599 -4.730537
v -4.440446 0.255281 -4.730537
v -4.500620 0.338599 -4.670363
v -4.500620 0.255281 -4.670363
v -4.417302 0.222880 -4.751367
v -4.417302 0.519122 -4.751367
v -4.595510 0.815363 -4.721280
v -4.806119 0.815363 -4.494470
v -4.729744 0.815363 -4.420409
v -4.523764 0.815363 -4.640276
v -4.521450 0.222880 -4.647220
v -4.595510 0.519122 -4.721280
v -4.595510 0.222880 -4.721280
v -4.657999 0.667242 -4.654163
v -4.806119 0.222880 -4.494470
v -4.803805 0.667242 -4.496784
v -4.921839 0.667242 -4.596303
v -4.780661 0.667242 -4.746738
v -4.910267 0.222880 -4.610189
v -5.002842 0.815363 -4.688879
v -5.414804 1.555968 -3.446052
v -5.090789 1.555968 -3.360419
v -4.954240 0.815363 -4.184342
v -5.037558 0.815363 -4.253773
v -5.046816 1.111605 -4.232944
v -4.803805 0.815363 -4.061679
v -4.938039 0.667242 -4.195914
v -4.843150 1.111605 -4.022335
v -5.465720 0.815363 -4.626390
v -5.243539 0.815363 -4.427352
v -5.072274 1.407847 -4.184341
v -4.880180 1.407847 -3.985304
v -5.319914 1.555968 -3.800153
v -5.157907 1.555968 -3.631203
v -3.945167 0.241395 -4.057050
v -3.933595 0.343228 -4.010763
v -3.748444 0.324713 -4.214429
v -3.792417 0.222880 -4.226001
v -3.697527 0.329341 -4.596303
v -3.776216 0.236766 -4.582417
v -4.211321 0.222880 -3.487711
v -4.211321 0.371000 -3.487711
v -4.019227 0.366372 -3.721464
v -4.051629 0.241395 -3.739979
v -4.093287 0.222880 -4.656477
v -3.922023 0.222880 -4.626390
v -4.438131 0.222880 -4.561587
v -3.952110 0.222880 -4.425038
v -3.859534 0.222880 -4.290803
v -4.648741 0.222880 -4.339406
v -4.847778 0.222880 -4.103338
v -4.711229 0.222880 -3.966789
v -4.445075 0.222880 -4.124167
v -4.077087 0.222880 -4.191285
v -4.262238 0.222880 -4.378750
v -4.259923 0.222880 -3.948274
v -4.387215 0.222880 -3.640460
v -4.479791 0.222880 -3.733036
v -4.938039 0.222880 -4.193599
v -3.567921 0.371000 -4.397265
v -3.836390 0.371000 -3.615002
v -3.551721 0.371000 -3.388192
v -3.535520 0.371000 -3.906615
v -3.792417 0.371000 -3.066492
v -3.938223 0.371000 -3.214613
v -4.782976 1.555967 -3.247014
v -4.998214 1.555968 -3.464567
v -4.938039 0.222880 -4.195914
v -4.938039 0.519121 -4.195914
v -5.012100 0.222880 -4.269974
v -5.012100 0.519121 -4.269974
v -5.012100 0.667242 -4.269974
v -5.324543 0.667242 -4.600932
v -5.123191 0.667242 -4.378750
v -5.123191 0.519121 -4.378750
v -5.123191 0.222880 -4.378750
v -5.324543 0.222880 -4.600932
v -4.558480 1.407847 -3.469195
v -4.482105 0.222880 -3.545570
v -4.482105 0.519121 -3.545570
v -4.521450 1.111605 -3.508540
v -4.482105 0.815363 -3.545570
v -4.713544 0.222880 -3.966789
v -4.711229 0.519121 -3.969104
v -4.919524 0.519121 -3.760808
v -4.921839 0.222880 -3.758494
v -4.720487 0.815363 -3.959846
v -4.928782 0.815363 -3.751551
v -4.475162 0.519121 -3.730721
v -4.685771 0.519121 -3.522427
v -4.695029 0.815363 -3.513169
v -4.486733 0.815363 -3.721464
v -4.477476 0.222880 -3.728407
v -4.685771 0.222880 -3.522427
v -4.803805 0.519121 -4.061679
v -4.671885 1.407847 -3.774695
v -4.634854 1.111605 -3.811725
v -4.463590 1.407847 -3.564085
v -4.424245 1.111605 -3.601116
v -4.387215 0.815363 -3.640460
v -4.387215 0.519121 -3.640460
vt 0.750000 0.875000
vt 0.687500 1.000000
vt 0.687500 0.875000
vt 0.750000 0.875000
vt 0.687500 0.875000
vt 0.687500 0.750000
vt 0.625000 0.875000
vt 0.625000 0.750000
vt 0.625000 0.875000
vt 0.687500 0.750000
vt 0.625000 0.750000
vt 0.625000 0.750000
vt 0.687500 0.875000
vt 0.687500 0.750000
vt 0.687500 0.750000
vt 0.625000 0.875000
vt 0.625000 0.750000
vt 0.625000 0.750000
vt 0.687500 0.875000
vt 0.625000 0.875000
vt 0.375000 0.875000
vt 0.312500 1.000000
vt 0.312500 0.875000
vt 0.687500 0.875000
vt 0.625000 0.875000
vt 0.625000 0.750000
vt 0.625000 1.000000
vt 0.687500 0.875000
vt 0.625000 0.875000
vt 0.437500 1.000000
vt 0.500000 0.875000
vt 0.437500 0.875000
vt 0.437500 0.875000
vt 0.437500 1.000000
vt 0.500000 1.000000
vt 0.500000 0.875000
vt 0.625000 0.875000
vt 0.687500 1.000000
vt 0.687500 0.875000
vt 0.687500 0.875000
vt 0.687500 0.750000
vt 0.625000 0.875000
vt 0.687500 0.750000
vt 0.625000 0.750000
vt 0.437500 0.875000
vt 0.437500 1.000000
vt 0.500000 1.000000
vt 0.500000 0.875000
vt 0.375000 0.750000
vt 0.437500 0.625000
vt 0.375000 0.625000
vt 0.250000 0.625000
vt 0.187500 0.625000
vt 0.250000 0.750000
vt 0.625000 0.875000
vt 0.687500 0.875000
vt 0.625000 0.750000
vt 0.187500 0.625000
vt 0.250000 0.750000
vt 0.250000 0.625000
vt 0.062500 0.750000
vt 0.125000 0.625000
vt 0.062500 0.625000
vt 0.375000 0.750000
vt 0.437500 0.625000
vt 0.375000 0.625000
vt 0.500000 0.625000
vt 0.562500 0.750000
vt 0.562500 0.625000
vt 0.500000 0.750000
vt 0.562500 0.625000
vt 0.500000 0.625000
vt 0.500000 0.750000
vt 0.562500 0.625000
vt 0.500000 0.625000
vt 0.500000 0.625000
vt 0.562500 0.750000
vt 0.562500 0.625000
vt 0.500000 0.875000
vt 0.562500 1.000000
vt 0.500000 1.000000
vt 0.500000 0.625000
vt 0.562500 0.625000
vt 0.500000 0.500000
vt 0.500000 0.625000
vt 0.562500 0.500000
vt 0.500000 0.500000
vt 0.562500 0.625000
vt 0.500000 0.500000
vt 0.500000 0.625000
vt 0.812500 0.875000
vt 0.875000 1.000000
vt 0.875000 0.875000
vt 0.937500 0.875000
vt 1.000000 1.000000
vt 1.000000 0.875000
vt 0.812500 1.000000
vt 0.875000 0.875000
vt 0.812500 0.875000
vt 0.625000 0.875000
vt 0.687500 0.750000
vt 0.625000 0.750000
vt 0.687500 0.875000
vt 0.750000 0.750000
vt 0.687500 0.750000
vt 0.875000 1.000000
vt 0.937500 1.000000
vt 1.000000 0.875000
vt 0.437500 0.500000
vt 0.500000 0.625000
vt 0.500000 0.500000
vt 0.937500 1.000000
vt 1.000000 0.875000
vt 0.937500 0.875000
vt 0.875000 1.000000
vt 0.812500 1.000000
vt 0.000000 0.875000
vt 0.062500 0.750000
vt 0.000000 0.750000
vt 0.500000 0.625000
vt 0.562500 0.625000
vt 0.500000 0.500000
vt 0.437500 0.625000
vt 0.500000 0.625000
vt 0.437500 0.500000
vt 0.500000 0.625000
vt 0.562500 0.500000
vt 0.500000 0.500000
vt 0.437500 0.500000
vt 0.500000 0.625000
vt 0.500000 0.500000
vt 0.437500 0.500000
vt 0.500000 0.625000
vt 0.500000 0.500000
vt 0.375000 0.625000
vt 0.437500 0.750000
vt 0.437500 0.625000
vt 0.750000 0.875000
vt 0.687500 1.000000
vt 0.687500 0.875000
vt 0.687500 1.000000
vt 0.750000 0.875000
vt 0.687500 0.875000
vt 0.625000 0.875000
vt 0.687500 1.000000
vt 0.687500 0.875000
vt 0.625000 0.875000
vt 0.687500 1.000000
vt 0.687500 0.875000
vt 0.437500 0.875000
vt 0.500000 1.000000
vt 0.500000 0.875000
vt 0.437500 0.875000
vt 0.437500 1.000000
vt 0.500000 1.000000
vt 0.500000 0.875000
vt 0.625000 0.750000
vt 0.687500 0.750000
vt 0.437500 0.875000
vt 0.437500 1.000000
vt 0.500000 1.000000
vt 0.500000 0.875000
vt 0.375000 0.625000
vt 0.437500 0.750000
vt 0.437500 0.625000
vt 0.375000 0.750000
vt 0.437500 0.625000
vt 0.375000 0.625000
vt 0.687500 0.750000
vt 0.625000 0.750000
vt 0.187500 0.750000
vt 0.250000 0.625000
vt 0.187500 0.625000
vt 0.687500 0.875000
vt 0.625000 1.000000
vt 0.437500 0.500000
vt 0.500000 0.625000
vt 0.437500 0.625000
vt 0.625000 0.750000
vt 0.687500 0.875000
vt 0.687500 0.750000
vt 0.625000 0.875000
vt 0.687500 0.750000
vt 0.625000 0.750000
vt 0.687500 0.750000
vt 0.625000 0.875000
vt 0.625000 0.750000
vt 0.625000 0.750000
vt 0.687500 0.875000
vt 0.625000 0.875000
vt 0.687500 0.750000
vt 0.625000 0.875000
vt 0.625000 0.750000
vt 0.687500 0.875000
vt 0.687500 0.750000
vt 0.000000 0.875000
vt 0.062500 0.750000
vt 0.000000 0.750000
vt 0.312500 0.750000
vt 0.375000 0.625000
vt 0.312500 0.625000
vt 0.250000 0.625000
vt 0.187500 0.625000
vt 0.250000 0.750000
vt 0.625000 0.875000
vt 0.687500 0.750000
vt 0.625000 0.750000
vt 0.062500 0.625000
vt 0.125000 0.750000
vt 0.125000 0.625000
vt 0.187500 0.625000
vt 0.250000 0.750000
vt 0.250000 0.625000
vt 0.625000 0.750000
vt 0.687500 0.875000
vt 0.687500 0.750000
vt 0.187500 0.750000
vt 0.250000 0.625000
vt 0.187500 0.625000
vt 0.312500 1.000000
vt 0.375000 0.875000
vt 0.312500 0.875000
vt 0.312500 1.000000
vt 0.375000 0.875000
vt 0.312500 0.875000
vt 0.875000 1.000000
vt 0.937500 0.875000
vt 0.875000 0.875000
vt 0.625000 0.875000
vt 0.687500 0.750000
vt 0.625000 0.750000
vt 0.187500 0.750000
vt 0.250000 0.625000
vt 0.187500 0.625000
vt 0.312500 0.750000
vt 0.375000 0.625000
vt 0.312500 0.625000
vt 0.437500 0.750000
vt 0.437500 0.625000
vt 0.375000 0.750000
vt 0.375000 0.750000
vt 0.375000 0.625000
vt 0.375000 0.750000
vt 0.437500 0.625000
vt 0.375000 0.625000
vt 0.750000 1.000000
vt 0.750000 1.000000
vt 0.687500 0.875000
vt 0.687500 0.875000
vt 0.687500 0.750000
vt 0.375000 1.000000
vt 0.687500 1.000000
vt 0.500000 1.000000
vt 0.625000 1.000000
vt 0.625000 0.875000
vt 0.687500 0.875000
vt 0.437500 0.750000
vt 0.187500 0.750000
vt 0.125000 0.750000
vt 0.437500 0.750000
vt 0.500000 0.750000
vt 0.562500 0.750000
vt 0.562500 0.750000
vt 0.500000 0.750000
vt 0.562500 0.875000
vt 0.562500 0.625000
vt 0.812500 1.000000
vt 0.937500 1.000000
vt 0.875000 1.000000
vt 0.687500 0.875000
vt 0.750000 0.875000
vt 1.000000 1.000000
vt 0.437500 0.625000
vt 1.000000 1.000000
vt 0.062500 0.875000
vt 0.562500 0.625000
vt 0.437500 0.625000
vt 0.375000 0.750000
vt 0.750000 1.000000
vt 0.750000 1.000000
vt 0.625000 1.000000
vt 0.437500 1.000000
vt 0.625000 0.875000
vt 0.437500 0.750000
vt 0.687500 0.875000
vt 0.250000 0.750000
vt 0.687500 1.000000
vt 0.687500 0.875000
vt 0.687500 0.875000
vt 0.687500 0.750000
vt 0.687500 0.875000
vt 0.062500 0.875000
vt 0.375000 0.750000
vt 0.062500 0.750000
vt 0.187500 0.750000
vt 0.625000 0.875000
vt 0.375000 1.000000
vt 0.375000 1.000000
vt 0.937500 1.000000
vt 0.687500 0.875000
vt 0.250000 0.750000
vt 0.437500 0.750000
vt 0.437500 0.750000
vn 0.7229 0.0040 0.6910
vn 0.7368 0.0016 0.6760
vn 0.3293 0.8948 0.3015
vn 0.5318 -0.3622 0.7655
vn 0.3453 -0.1348 0.9287
vn 0.0257 0.5786 0.8152
vn 0.8157 -0.5784 -0.0080
vn 0.8157 0.5784 -0.0080
vn 0.0257 -0.5786 0.8152
vn 0.4088 0.3089 0.8587
vn 0.4064 -0.2907 0.8662
vn 0.8516 -0.3035 0.4275
vn 0.8490 0.3083 0.4291
vn 0.6872 0.0190 0.7262
vn 0.7016 -0.0116 0.7125
vn 0.0000 1.0000 0.0000
vn 0.5641 0.6244 0.5402
vn -0.5087 0.6970 0.5053
vn -0.3171 0.8938 0.3171
vn -0.2372 -0.9427 0.2347
vn -0.6914 -0.2710 0.6698
vn 0.5188 0.7063 0.4816
vn 0.6584 -0.4463 0.6060
vn 0.0000 -1.0000 0.0000
vn 0.7688 0.4247 -0.4781
vn 0.2749 0.9031 -0.3299
vn 0.7036 0.1367 -0.6973
vn 0.7076 0.1138 -0.6973
vn 0.9525 -0.2322 -0.1972
vn 0.7026 0.1600 -0.6933
vn 0.5697 0.6105 -0.5502
vn 0.2275 0.9489 -0.2186
vn 0.5408 0.6547 -0.5281
vn -0.4642 0.8227 -0.3281
vn -0.6030 0.7483 -0.2764
vn -0.5490 0.7956 -0.2562
vn -0.4688 0.8823 -0.0407
vn -0.5434 0.7514 -0.3742
vn -0.5957 0.7448 -0.3007
vn -0.5434 0.7834 -0.3016
vn -0.5708 0.7469 -0.3408
vn -0.0232 0.9997 0.0076
vn -0.0428 0.9991 -0.0064
vn -0.0138 0.9999 -0.0057
vn -0.0264 0.9991 -0.0319
vn -0.0311 0.9994 -0.0145
vn 0.4109 0.9116 0.0034
vn 0.5064 0.7034 -0.4987
vn -0.6186 0.7823 -0.0730
vn -0.2715 0.9621 -0.0245
vn -0.4639 0.8354 -0.2949
vn -0.0104 0.9995 -0.0294
vn -0.0475 0.9953 -0.0840
vn 0.1482 0.9785 -0.1429
vn 0.1776 0.9735 -0.1439
vn 0.9465 -0.0009 -0.3226
vn 0.7295 0.0000 0.6839
vn 0.4988 0.7093 -0.4981
vn 0.7034 0.0000 -0.7108
vn 0.4965 -0.7083 -0.5018
vn 0.4903 -0.7133 -0.5007
vn 0.6996 0.0000 -0.7145
vn 0.4898 0.7140 -0.5002
vn 0.5972 0.5354 0.5972
vn 0.8213 0.5704 0.0055
vn 0.7071 0.0000 0.7071
vn 0.4982 0.7096 0.4982
vn 0.9158 0.1121 -0.3857
vn 1.0000 0.0002 -0.0021
vn -0.7042 -0.0013 -0.7100
vn 0.3882 0.1104 -0.9149
vn 0.0105 0.0017 -0.9999
vn -0.0059 0.5680 -0.8230
vn -0.4963 0.7083 -0.5019
vn 0.7077 -0.0039 -0.7065
vn 0.5034 0.7049 -0.4997
vn 0.7014 0.1583 -0.6950
vn 0.7824 0.6206 0.0512
vn 0.9930 0.1176 0.0126
vn 0.9944 0.0799 -0.0688
vn 1.0000 0.0000 0.0065
vn 0.7048 -0.0020 0.7094
vn 0.6921 0.0001 0.7217
vn 0.5495 0.6698 -0.4993
vn 0.4665 0.8655 0.1821
vn -0.7071 0.0000 -0.7071
vn 0.3018 0.9054 -0.2986
usemtl Material__25
s 1
f 2/1/1 4/2/2 1/3/3
f 5/4/4 4/2/2 3/5/5
f 8/6/6 10/7/7 7/8/8
f 9/9/9 12/10/10 11/11/11
f 13/12/12 9/13/9 11/14/11
f 7/15/8 13/16/12 14/17/13
f 2/18/1 13/19/12 3/20/5
f 15/21/14 14/22/13 2/23/1
f 11/11/11 15/24/14 16/25/15
f 16/26/15 13/19/12 11/14/11
f 18/27/16 20/28/17 17/29/16
f 3/30/5 23/31/18 21/32/19
f 3/33/5 5/34/4 24/35/20
f 3/33/5 24/35/20 22/36/21
f 25/37/16 21/38/19 23/39/18
f 16/26/15 5/40/4 3/41/5
f 19/42/22 5/43/4 20/44/17
f 5/45/4 6/46/23 26/47/24
f 5/45/4 26/47/24 24/48/20
f 26/49/24 28/50/24 24/51/20
f 33/52/25 34/53/26 35/54/27
f 36/55/28 37/56/29 33/57/25
f 33/58/25 38/59/30 36/60/28
f 41/61/31 38/62/30 35/63/27
f 43/64/32 42/65/33 41/66/31
f 45/67/34 47/68/35 48/69/36
f 47/70/35 50/71/37 48/72/36
f 52/73/38 54/74/39 51/75/40
f 54/76/39 46/77/41 45/78/34
f 14/79/13 8/80/6 7/81/8
f 55/82/16 58/83/42 56/84/43
f 50/85/37 58/86/42 59/87/44
f 50/85/37 59/88/44 48/89/36
f 59/90/44 45/78/34 48/89/36
f 60/91/16 62/92/16 63/93/16
f 64/94/45 59/95/44 58/96/42
f 58/97/42 65/98/16 64/99/45
f 57/100/16 1/101/3 60/102/16
f 65/103/16 60/104/16 63/105/16
f 63/106/16 64/94/45 65/98/16
f 66/107/46 45/108/34 64/94/45
f 54/109/39 67/110/47 51/111/40
f 68/112/16 66/113/46 63/114/16
f 68/115/16 63/93/16 62/116/16
f 69/117/48 60/118/16 1/119/3
f 49/120/49 47/121/35 70/122/50
f 53/123/51 71/124/52 46/125/41
f 72/126/16 75/127/16 74/128/16
f 71/129/52 52/130/38 75/131/16
f 73/132/53 46/133/41 71/134/52
f 44/135/54 32/136/16 77/137/55
f 1/138/3 79/139/56 78/140/57
f 6/141/23 79/142/56 4/143/2
f 80/144/58 1/145/3 25/146/16
f 18/147/16 33/148/25 19/149/22
f 80/150/58 79/151/56 69/152/48
f 81/153/59 82/154/60 37/155/29
f 81/153/59 37/155/29 79/156/56
f 19/157/22 37/56/29 6/158/23
f 82/159/60 26/160/24 6/161/23
f 82/159/60 6/161/23 37/162/29
f 27/163/24 82/164/60 84/165/61
f 82/166/60 85/167/62 84/168/61
f 25/37/16 86/169/63 80/170/58
f 85/171/62 80/172/58 86/173/63
f 30/174/16 34/175/26 18/147/16
f 67/176/47 89/177/64 51/178/40
f 93/179/65 95/180/66 96/181/67
f 97/182/68 95/183/66 94/184/69
f 100/185/70 102/186/71 99/187/72
f 103/188/73 100/189/70 99/190/72
f 93/191/65 104/192/74 103/188/73
f 37/193/29 105/194/75 79/195/56
f 61/196/76 79/197/56 105/198/75
f 42/199/33 107/200/77 38/201/30
f 102/202/71 97/203/68 107/204/77
f 94/205/69 36/206/28 97/207/68
f 107/208/77 108/209/78 109/210/79
f 102/211/71 109/212/79 110/213/80
f 110/214/80 99/215/72 102/216/71
f 38/217/30 97/218/68 36/219/28
f 105/220/75 93/221/65 61/222/76
f 99/223/72 67/224/47 103/225/73
f 90/226/66 67/227/47 111/228/81
f 110/229/80 90/230/66 111/231/81
f 109/232/79 92/233/82 110/234/80
f 108/235/78 91/236/83 109/237/79
f 108/238/78 106/239/84 88/240/85
f 44/241/54 106/239/84 42/242/33
f 77/243/55 88/244/85 106/245/84
f 2/1/1 3/246/5 4/2/2
f 5/4/4 6/247/23 4/2/2
f 8/6/6 9/13/9 10/7/7
f 9/9/9 8/248/6 12/10/10
f 13/12/12 10/7/7 9/13/9
f 7/15/8 10/249/7 13/16/12
f 2/18/1 14/250/13 13/19/12
f 15/21/14 12/251/10 14/22/13
f 11/11/11 12/10/10 15/24/14
f 16/26/15 3/20/5 13/19/12
f 18/27/16 19/252/22 20/28/17
f 3/30/5 22/253/21 23/31/18
f 25/37/16 1/254/3 21/38/19
f 16/26/15 20/255/17 5/40/4
f 19/42/22 6/256/23 5/43/4
f 26/49/24 27/257/24 28/50/24
f 33/58/25 35/258/27 38/59/30
f 41/61/31 42/259/33 38/62/30
f 43/64/32 44/260/54 42/65/33
f 45/67/34 46/261/41 47/68/35
f 47/70/35 49/262/49 50/71/37
f 52/73/38 53/263/51 54/74/39
f 54/76/39 53/264/51 46/77/41
f 14/79/13 12/265/10 8/80/6
f 50/85/37 56/266/43 58/86/42
f 60/91/16 61/267/76 62/92/16
f 64/94/45 45/268/34 59/95/44
f 58/97/42 55/269/16 65/98/16
f 57/100/16 21/270/19 1/101/3
f 65/103/16 57/271/16 60/104/16
f 63/106/16 66/107/46 64/94/45
f 66/107/46 54/272/39 45/108/34
f 54/109/39 66/273/46 67/110/47
f 68/112/16 67/274/47 66/113/46
f 69/117/48 61/275/76 60/118/16
f 72/126/16 71/276/52 75/127/16
f 71/129/52 53/123/51 52/130/38
f 73/132/53 47/277/35 46/133/41
f 44/135/54 31/278/16 32/136/16
f 1/138/3 4/279/2 79/139/56
f 6/141/23 37/280/29 79/142/56
f 80/144/58 69/281/48 1/145/3
f 18/147/16 34/175/26 33/148/25
f 80/150/58 81/282/59 79/151/56
f 19/157/22 33/283/25 37/56/29
f 27/163/24 26/49/24 82/164/60
f 82/166/60 81/284/59 85/167/62
f 25/37/16 29/285/16 86/169/63
f 85/171/62 81/286/59 80/172/58
f 30/174/16 40/287/16 34/175/26
f 93/179/65 94/205/69 95/180/66
f 97/182/68 98/288/66 95/183/66
f 100/185/70 101/289/86 102/186/71
f 103/188/73 104/290/74 100/189/70
f 93/191/65 96/291/67 104/192/74
f 37/193/29 36/55/28 105/194/75
f 61/196/76 69/292/48 79/197/56
f 42/199/33 106/293/84 107/200/77
f 94/205/69 105/194/75 36/206/28
f 107/208/77 106/294/84 108/209/78
f 102/211/71 107/295/77 109/212/79
f 110/214/80 111/296/81 99/215/72
f 38/217/30 107/204/77 97/218/68
f 105/220/75 94/297/69 93/221/65
f 99/223/72 111/298/81 67/224/47
f 90/226/66 89/299/64 67/227/47
f 110/229/80 92/300/82 90/230/66
f 109/232/79 91/301/83 92/233/82
f 108/235/78 88/240/85 91/236/83
f 44/241/54 77/302/55 106/239/84
f 77/243/55 76/303/87 88/244/85
l 86 87
l 39 40
l 83 84
l 15 21
