# Blender v2.79 (sub 0) OBJ File: ''
# www.blender.org
mtllib hurricos.000.mtl
o hurricos.000_tex_72
v -3.602637 0.371001 -6.757942
v -3.593379 0.222880 -6.746370
v -3.963682 0.222880 -6.327466
v -3.965996 0.371001 -6.322837
v -3.785474 0.371001 -5.822929
v -3.783159 0.222880 -5.834501
v -3.637353 0.241395 -6.903749
v -3.574864 0.315456 -6.908378
v -3.815561 0.357114 -7.121301
v -3.875735 0.218251 -7.091214
v -3.910451 0.227509 -6.880605
v -4.118746 0.208994 -6.922264
v -4.007655 0.222880 -6.665367
v -4.322412 0.222880 -6.709340
v -4.144204 0.222880 -6.355238
v -4.373329 0.222880 -6.424670
v -4.227522 0.222880 -6.091398
v -4.067829 0.222880 -6.133057
v -4.463590 0.222880 -6.153887
v -4.479791 0.222880 -6.457072
v -4.623282 0.181221 -6.197860
v -4.296954 0.222880 -5.815986
v -4.107174 0.222880 -5.769698
v -4.544593 0.222880 -5.876160
v -4.739002 0.181221 -5.924762
v -4.616339 0.222880 -5.593805
v -4.820006 0.222880 -5.637778
v -3.972939 0.222880 -5.876160
v -3.565607 0.371001 -7.237021
v -3.938223 -0.073362 -7.183790
v -3.614209 -0.073362 -7.336540
v -4.896380 -0.073362 -5.658608
v -4.769089 -0.073362 -5.934020
v -4.711229 -0.073362 -6.274235
v -4.565423 -0.073362 -6.512618
v -4.343242 -0.073362 -6.725541
v -4.169662 -0.073362 -6.973181
v -3.618838 0.741303 -6.017338
v -3.702156 0.523750 -5.920133
v -3.780845 0.593182 -5.832187
v -3.956738 0.593182 -6.320523
v -3.600323 0.593182 -6.746370
v -3.713727 0.741303 -6.281178
v -3.521633 0.741303 -6.512617
v -3.570236 0.889424 -6.258034
v -3.523948 0.889424 -6.128428
v -3.841019 0.523750 -6.302008
v -3.560978 0.523751 -6.635280
v -3.475346 0.889424 -6.371439
vt 0.812500 0.875000
vt 0.875000 1.000000
vt 0.875000 0.875000
vt 0.375000 0.500000
vt 0.312500 0.625000
vt 0.312500 0.500000
vt 0.500000 0.625000
vt 0.562500 0.750000
vt 0.562500 0.625000
vt 0.500000 0.625000
vt 0.562500 0.625000
vt 0.500000 0.500000
vt 0.437500 0.625000
vt 0.500000 0.625000
vt 0.437500 0.500000
vt 0.500000 0.500000
vt 0.562500 0.500000
vt 0.500000 0.500000
vt 0.562500 0.625000
vt 0.562500 0.500000
vt 0.500000 0.500000
vt 0.562500 0.625000
vt 0.562500 0.500000
vt 0.500000 0.500000
vt 0.562500 0.625000
vt 0.562500 0.500000
vt 0.500000 0.625000
vt 0.500000 0.500000
vt 0.437500 0.500000
vt 0.500000 0.625000
vt 0.500000 0.500000
vt 0.562500 0.625000
vt 0.562500 0.500000
vt 0.500000 0.625000
vt 0.500000 0.500000
vt 0.500000 0.625000
vt 0.562500 0.625000
vt 0.500000 0.500000
vt 0.500000 0.500000
vt 0.562500 0.625000
vt 0.562500 0.500000
vt 0.500000 0.500000
vt 0.562500 0.625000
vt 0.562500 0.500000
vt 0.437500 0.500000
vt 0.500000 0.625000
vt 0.500000 0.500000
vt 0.562500 0.500000
vt 0.500000 0.500000
vt 0.562500 0.625000
vt 0.562500 0.500000
vt 0.437500 0.625000
vt 0.500000 0.625000
vt 0.437500 0.500000
vt 0.500000 0.500000
vt 0.562500 0.625000
vt 0.500000 0.625000
vt 0.937500 0.875000
vt 1.000000 0.750000
vt 0.937500 0.750000
vt 1.000000 0.750000
vt 0.937500 0.875000
vt 0.937500 0.750000
vt 1.000000 0.750000
vt 0.937500 0.875000
vt 0.937500 0.750000
vt 0.937500 0.750000
vt 1.000000 0.875000
vt 0.937500 0.875000
vt 0.937500 0.750000
vt 1.000000 0.875000
vt 0.937500 0.875000
vt 0.875000 0.875000
vt 0.875000 0.750000
vt 0.062500 0.750000
vt 0.000000 0.875000
vt 0.000000 0.750000
vt 0.750000 1.000000
vt 0.812500 1.000000
vt 0.750000 0.875000
vt 0.437500 0.875000
vt 0.500000 0.750000
vt 0.437500 0.750000
vt 0.625000 0.875000
vt 0.687500 0.750000
vt 0.625000 0.750000
vt 0.750000 1.000000
vt 0.812500 1.000000
vt 0.750000 0.875000
vt 0.750000 1.000000
vt 0.812500 1.000000
vt 0.750000 0.875000
vt 0.750000 1.000000
vt 0.812500 1.000000
vt 0.750000 0.875000
vt 0.312500 0.750000
vt 0.375000 0.625000
vt 0.312500 0.625000
vt 0.125000 0.625000
vt 0.187500 0.750000
vt 0.187500 0.625000
vt 0.312500 0.625000
vt 0.375000 0.750000
vt 0.375000 0.625000
vt 0.750000 1.000000
vt 0.812500 1.000000
vt 0.750000 0.875000
vt 0.062500 0.625000
vt 0.125000 0.750000
vt 0.125000 0.625000
vt 0.750000 1.000000
vt 0.812500 1.000000
vt 0.750000 0.875000
vt 0.812500 1.000000
vt 0.375000 0.625000
vt 0.500000 0.750000
vt 0.500000 0.625000
vt 0.500000 0.625000
vt 0.500000 0.625000
vt 0.562500 0.625000
vt 0.437500 0.625000
vt 0.500000 0.625000
vt 0.437500 0.625000
vt 0.562500 0.625000
vt 1.000000 0.875000
vt 1.000000 0.875000
vt 1.000000 0.875000
vt 1.000000 0.750000
vt 1.000000 0.750000
vt 0.062500 0.875000
vt 0.500000 0.875000
vt 0.687500 0.875000
vt 0.375000 0.750000
vt 0.125000 0.750000
vt 0.312500 0.750000
vt 0.062500 0.750000
vn -0.9120 0.1185 -0.3927
vn -0.5384 0.8366 -0.1010
vn -0.9591 0.1494 -0.2405
vn -0.7276 0.6351 -0.2591
vn -0.6911 0.6309 0.3524
vn -0.4359 0.8145 0.3829
vn -0.6854 0.6959 -0.2146
vn -0.5550 0.6616 -0.5042
vn -0.0507 0.9986 -0.0127
vn -0.4728 0.7422 -0.4749
vn -0.0093 0.9999 -0.0080
vn -0.5428 0.7180 -0.4356
vn 0.0000 1.0000 0.0000
vn -0.1100 0.9938 -0.0143
vn -0.5243 0.7894 -0.3192
vn -0.6551 0.7201 -0.2285
vn -0.1364 0.9897 -0.0430
vn -0.6757 0.6784 -0.2883
vn -0.0569 0.9930 -0.1039
vn -0.5446 0.7944 -0.2690
vn -0.8153 0.4981 0.2951
vn -0.3782 0.7182 -0.5840
vn -0.4580 0.2947 -0.8386
vn -0.5022 0.3311 -0.7988
vn -0.9148 0.1970 -0.3525
vn -0.9188 0.1817 -0.3504
vn -0.8544 0.3960 -0.3364
vn -0.7458 0.3464 -0.5689
vn -0.7593 0.1882 -0.6229
vn -0.7266 0.2467 -0.6412
vn -0.8507 -0.0008 0.5256
vn -0.5081 0.7941 0.3335
vn -0.2023 0.4127 0.8881
vn 0.7493 0.0105 0.6621
vn -0.7209 0.4099 -0.5589
vn -0.3061 0.3251 -0.8948
vn -0.9360 0.3199 -0.1465
vn -0.9445 -0.0102 0.3281
vn -0.7144 0.6511 0.2562
vn -0.6646 0.7052 -0.2470
vn -0.5864 0.6463 -0.4882
vn -0.7457 0.4890 -0.4526
vn -0.7020 0.7003 -0.1295
usemtl Material__25
s 1
f 1/1/1 3/2/2 4/3/3
f 2/4/4 8/5/5 7/6/6
f 7/7/6 9/8/7 10/9/8
f 10/10/8 11/11/9 7/12/6
f 10/13/8 12/14/10 11/15/9
f 2/16/4 11/11/9 13/17/11
f 13/18/11 12/19/10 14/20/12
f 15/21/13 14/22/12 16/23/13
f 3/24/2 13/25/11 15/26/13
f 18/27/13 15/26/13 17/28/13
f 17/29/13 16/30/13 19/31/14
f 19/31/14 20/32/15 21/33/16
f 14/34/12 20/32/15 16/35/13
f 17/36/13 22/37/13 23/38/13
f 22/39/13 19/40/14 24/41/17
f 24/42/17 21/43/16 25/44/18
f 26/45/19 25/46/18 27/47/20
f 18/27/13 6/48/21 3/24/2
f 28/49/13 17/50/13 23/51/13
f 29/52/22 9/53/7 8/54/5
f 10/55/8 9/56/7 29/57/22
f 10/58/8 31/59/23 30/60/24
f 32/61/25 25/62/18 33/63/26
f 33/64/26 21/65/16 34/66/27
f 35/67/28 21/68/16 20/69/15
f 36/70/29 20/71/15 14/72/12
f 36/70/29 12/73/10 37/74/30
f 12/73/10 30/60/24 37/74/30
f 4/75/3 6/76/21 5/77/31
f 38/78/32 40/79/33 39/80/34
f 40/81/33 4/82/3 5/83/31
f 38/84/32 41/85/35 40/86/33
f 5/87/31 39/88/34 40/89/33
f 4/90/3 41/91/35 47/92/36
f 1/93/1 48/94/37 42/95/38
f 46/96/39 43/97/40 38/98/32
f 4/99/3 48/100/37 1/101/1
f 43/102/40 49/103/41 44/104/42
f 43/105/40 47/106/36 41/107/35
f 47/108/36 44/109/42 48/110/37
f 44/111/42 42/112/38 48/113/37
f 1/1/1 2/114/4 3/2/2
f 2/4/4 1/115/1 8/5/5
f 7/7/6 8/116/5 9/8/7
f 2/16/4 7/7/6 11/11/9
f 13/18/11 11/117/9 12/19/10
f 15/21/13 13/118/11 14/22/12
f 3/24/2 2/119/4 13/25/11
f 18/27/13 3/120/2 15/26/13
f 17/29/13 15/121/13 16/30/13
f 19/31/14 16/30/13 20/32/15
f 22/39/13 17/36/13 19/40/14
f 24/42/17 19/122/14 21/43/16
f 26/45/19 24/123/17 25/46/18
f 18/27/13 28/124/13 6/48/21
f 28/49/13 18/27/13 17/50/13
f 10/58/8 29/125/22 31/59/23
f 32/61/25 27/126/20 25/62/18
f 33/64/26 25/127/18 21/65/16
f 35/67/28 34/128/27 21/68/16
f 36/70/29 35/129/28 20/71/15
f 36/70/29 14/72/12 12/73/10
f 12/73/10 10/58/8 30/60/24
f 4/75/3 3/130/2 6/76/21
f 40/81/33 41/131/35 4/82/3
f 38/84/32 43/132/40 41/85/35
f 46/96/39 45/133/43 43/97/40
f 4/99/3 47/134/36 48/100/37
f 43/102/40 45/135/43 49/103/41
f 47/108/36 43/136/40 44/109/42
