# Blender v2.79 (sub 0) OBJ File: ''
# www.blender.org
mtllib hurricos.069.mtl
o hurricos.069_tex_72.286
v -2.109856 1.111604 -0.814591
v -2.109856 1.407846 -0.814591
v -2.533389 1.407846 -0.884023
v -2.452385 1.111604 -0.826163
v -2.373696 0.815362 -0.770618
v -2.109856 0.741301 -0.814591
v -1.811300 1.491164 -0.775246
v -1.820557 1.111604 -0.800705
v -2.517189 1.407846 -1.145549
v -2.392211 1.495792 -1.117776
v -2.014966 1.583739 -1.078431
v -2.264920 1.583739 -1.092318
v -1.765012 1.583739 -1.066859
v -3.510061 1.407845 -0.254509
v -3.574864 1.555966 -0.754417
v -3.440629 1.555966 -0.976598
v -3.551721 1.555966 -1.092318
v -3.741500 1.555966 -0.858564
v -3.456831 1.555966 -0.710443
v -1.873788 0.815362 -1.846809
v -1.762698 1.111604 -1.860695
v -1.933962 0.667241 -1.846809
v -2.357496 1.111604 -1.883839
v -2.804173 1.111604 -1.930127
v -2.679196 1.111604 -1.744975
v -2.107542 1.111604 -1.883839
v -2.829631 1.407846 -1.911611
v -2.679196 1.407846 -1.744975
v -2.461643 0.815362 -0.576209
v -2.538018 1.111604 -0.636383
v -2.713912 1.111603 -0.411887
v -2.646794 0.815362 -0.340141
v -2.781029 1.407845 -0.483633
v -3.003210 1.407845 -0.328569
v -2.945351 1.111603 -0.247566
v -2.616707 1.407846 -0.696557
v -3.241592 1.407845 -0.259138
v -2.940722 1.555966 -1.326071
v -3.028668 1.555966 -1.464934
v -3.209191 1.555966 -1.261268
v -2.910635 1.555966 -1.166378
v -3.144388 1.555966 -1.592226
v -3.327225 1.555966 -1.372359
v -2.947665 1.555966 -1.013628
v -3.336482 1.555966 -0.705815
v -2.993953 1.555966 -0.907166
v -3.206876 1.555966 -0.733587
v -3.079585 1.555966 -0.807648
v -3.440629 1.555966 -1.893096
v -3.646610 1.555966 -1.675544
v -3.477660 1.555966 -1.520480
v -3.283251 1.555966 -1.733403
v -3.734557 1.555966 -2.001873
v -2.572734 1.407846 -1.444105
v -2.373696 0.370999 -0.770618
v -2.373696 0.519120 -0.770618
v -2.461643 0.519120 -0.576209
v -2.461643 0.370999 -0.576209
v -2.130685 0.370999 -0.819220
v -2.646794 0.370999 -0.340141
v -2.646794 0.519120 -0.340141
v -1.820557 0.741301 -0.800705
v -1.811300 0.370999 -0.775246
v -2.255662 0.357113 -0.476690
v -2.086712 0.370999 -0.421145
v -2.359810 0.352484 -0.240623
v -2.114485 0.370999 -0.173505
v -1.940906 -0.073364 -0.499834
v -2.047368 0.222878 -0.467433
v -2.072826 0.222878 -0.196649
v -1.984879 -0.073364 -0.217479
v -2.003394 -0.073364 -0.754417
v -1.804357 -0.073364 -0.694243
v -1.765012 1.833693 -1.066859
v -1.765012 2.083647 -1.066859
v -1.862216 1.815178 -1.071488
v -1.957106 2.046617 -1.076117
v -1.943220 1.759633 -1.076117
v -2.119113 1.940155 -1.085374
v -1.996451 1.680943 -1.078431
v -2.227890 1.778148 -1.090003
v -1.984879 1.680943 -1.328385
v -2.003394 1.583739 -1.328385
v -2.253348 1.583739 -1.342272
v -2.214004 1.778148 -1.339957
v -1.929334 1.759633 -1.326071
v -2.107542 1.940155 -1.333014
v -1.848330 1.815178 -1.321442
v -1.943220 2.046617 -1.326071
v -1.753440 1.833693 -1.316813
v -1.753440 2.083647 -1.316813
v -1.753440 1.583739 -1.316813
v -2.200117 2.074389 -1.127033
v -2.190859 2.074389 -1.300613
v -2.373696 1.801292 -1.309870
v -2.382954 1.801292 -1.136291
v -2.417670 1.620769 -1.136291
v -2.408412 1.620769 -1.312185
v -1.725667 2.241026 -1.101575
v -2.049682 2.176223 -1.117776
v -1.716410 2.241026 -1.277469
v -2.040424 2.176223 -1.293669
v -1.933962 1.407846 -1.846809
v -2.357496 1.407846 -1.883839
v -2.107542 1.407846 -1.883839
v -2.389897 1.500421 -1.407075
v -2.211689 1.468020 -1.640828
v -2.445442 1.435618 -1.691744
v -1.977936 1.495792 -1.587597
v -1.718724 1.495792 -1.513536
vt 0.250000 0.625000
vt 0.312500 0.500000
vt 0.250000 0.500000
vt 0.000000 0.875000
vt 0.062500 1.000000
vt 0.000000 1.000000
vt 0.375000 0.500000
vt 0.312500 0.625000
vt 0.312500 0.500000
vt 0.500000 0.625000
vt 0.562500 0.625000
vt 0.500000 0.500000
vt 0.437500 0.625000
vt 0.500000 0.625000
vt 0.437500 0.500000
vt 0.437500 0.625000
vt 0.500000 0.500000
vt 0.437500 0.625000
vt 0.500000 0.500000
vt 0.437500 0.500000
vt 0.375000 0.750000
vt 0.437500 0.625000
vt 0.375000 0.625000
vt 0.437500 0.750000
vt 0.437500 0.625000
vt 0.062500 0.625000
vt 0.125000 0.750000
vt 0.125000 0.625000
vt 0.125000 0.625000
vt 0.187500 0.750000
vt 0.187500 0.625000
vt 0.312500 0.750000
vt 0.375000 0.625000
vt 0.312500 0.625000
vt 0.062500 0.625000
vt 0.125000 0.750000
vt 0.125000 0.625000
vt 0.312500 0.625000
vt 0.375000 0.750000
vt 0.375000 0.625000
vt 0.187500 0.625000
vt 0.250000 0.750000
vt 0.250000 0.625000
vt 0.437500 0.750000
vt 0.437500 0.625000
vt 0.375000 0.750000
vt 0.437500 0.750000
vt 0.437500 0.625000
vt 0.375000 0.750000
vt 0.375000 0.625000
vt 0.437500 0.750000
vt 0.437500 0.625000
vt 0.437500 0.750000
vt 0.437500 0.625000
vt 0.437500 0.750000
vt 0.437500 0.625000
vt 0.437500 0.750000
vt 0.437500 0.625000
vt 0.375000 0.750000
vt 0.437500 0.625000
vt 0.375000 0.625000
vt 0.437500 0.750000
vt 0.437500 0.625000
vt 0.375000 0.625000
vt 0.437500 0.625000
vt 0.375000 0.750000
vt 0.437500 0.625000
vt 0.375000 0.625000
vt 0.375000 0.625000
vt 0.437500 0.625000
vt 0.375000 0.750000
vt 0.437500 0.625000
vt 0.375000 0.625000
vt 0.375000 0.750000
vt 0.437500 0.625000
vt 0.375000 0.625000
vt 0.375000 0.625000
vt 0.437500 0.750000
vt 0.437500 0.625000
vt 0.375000 0.750000
vt 0.437500 0.625000
vt 0.375000 0.625000
vt 0.375000 0.750000
vt 0.437500 0.625000
vt 0.375000 0.625000
vt 0.375000 0.750000
vt 0.437500 0.625000
vt 0.375000 0.625000
vt 0.375000 0.750000
vt 0.437500 0.625000
vt 0.375000 0.625000
vt 0.375000 0.625000
vt 0.437500 0.750000
vt 0.312500 1.000000
vt 0.375000 0.875000
vt 0.312500 0.875000
vt 0.125000 0.500000
vt 0.062500 0.500000
vt 0.125000 0.625000
vt 0.562500 0.750000
vt 0.625000 0.625000
vt 0.562500 0.625000
vt 0.312500 1.000000
vt 0.312500 0.875000
vt 0.062500 0.875000
vt 0.000000 1.000000
vt 0.000000 0.875000
vt 0.687500 0.625000
vt 0.625000 0.750000
vt 0.625000 0.625000
vt 0.625000 0.875000
vt 0.687500 0.750000
vt 0.625000 0.750000
vt 0.625000 0.875000
vt 0.687500 0.750000
vt 0.625000 0.750000
vt 0.500000 0.625000
vt 0.562500 0.625000
vt 0.500000 0.500000
vt 0.500000 0.625000
vt 0.562500 0.500000
vt 0.500000 0.500000
vt 0.500000 0.500000
vt 0.562500 0.625000
vt 0.562500 0.500000
vt 0.500000 0.500000
vt 0.562500 0.625000
vt 0.562500 0.500000
vt 0.000000 0.750000
vt 0.062500 0.625000
vt 0.000000 0.625000
vt 0.000000 0.625000
vt 0.062500 0.750000
vt 0.062500 0.625000
vt 0.250000 0.500000
vt 0.312500 0.625000
vt 0.250000 0.625000
vt 0.062500 0.750000
vt 0.000000 0.750000
vt 0.625000 0.750000
vt 0.687500 0.875000
vt 0.687500 0.750000
vt 0.625000 0.875000
vt 0.687500 0.750000
vt 0.625000 0.750000
vt 0.625000 0.875000
vt 0.687500 0.750000
vt 0.625000 0.750000
vt 0.625000 0.875000
vt 0.687500 0.750000
vt 0.625000 0.750000
vt 0.625000 0.750000
vt 0.687500 0.875000
vt 0.687500 0.750000
vt 0.625000 0.875000
vt 0.687500 0.750000
vt 0.625000 0.750000
vt 0.625000 0.750000
vt 0.687500 0.875000
vt 0.687500 0.750000
vt 0.625000 0.875000
vt 0.687500 0.750000
vt 0.625000 0.750000
vt 0.312500 0.875000
vt 0.375000 0.875000
vt 0.312500 0.750000
vt 0.625000 0.875000
vt 0.625000 0.750000
vt 0.625000 0.750000
vt 0.625000 0.750000
vt 0.687500 0.875000
vt 0.625000 0.875000
vt 0.687500 0.750000
vt 0.625000 0.750000
vt 0.625000 0.875000
vt 0.687500 0.750000
vt 0.625000 0.750000
vt 0.625000 0.750000
vt 0.687500 0.875000
vt 0.312500 0.875000
vt 0.312500 0.750000
vt 0.687500 0.875000
vt 0.687500 0.750000
vt 0.312500 0.875000
vt 0.375000 0.875000
vt 0.312500 0.750000
vt 0.312500 0.875000
vt 0.312500 0.750000
vt 0.312500 0.875000
vt 0.312500 0.750000
vt 0.625000 0.875000
vt 0.687500 0.750000
vt 0.312500 0.875000
vt 0.312500 0.750000
vt 0.312500 0.875000
vt 0.312500 0.750000
vt 0.312500 0.875000
vt 0.312500 0.750000
vt 0.625000 0.875000
vt 0.625000 0.750000
vt 0.625000 0.750000
vt 0.687500 0.875000
vt 0.625000 0.875000
vt 0.687500 0.750000
vt 0.625000 0.750000
vt 0.625000 0.750000
vt 0.687500 0.875000
vt 0.687500 0.750000
vt 0.625000 0.875000
vt 0.625000 0.750000
vt 0.500000 0.750000
vt 0.562500 0.625000
vt 0.500000 0.625000
vt 0.500000 0.750000
vt 0.562500 0.625000
vt 0.500000 0.625000
vt 0.312500 0.500000
vt 0.375000 0.625000
vt 0.375000 0.500000
vt 0.500000 0.625000
vt 0.562500 0.625000
vt 0.500000 0.500000
vt 0.562500 0.500000
vt 0.437500 0.625000
vt 0.500000 0.625000
vt 0.437500 0.500000
vt 0.500000 0.500000
vt 0.562500 0.500000
vt 0.437500 0.500000
vt 0.500000 0.625000
vt 0.562500 0.625000
vt 0.500000 0.500000
vt 0.500000 0.625000
vt 0.437500 0.500000
vt 0.500000 0.625000
vt 0.500000 0.625000
vt 0.562500 0.500000
vt 0.437500 0.500000
vt 0.500000 0.625000
vt 0.500000 0.500000
vt 0.312500 0.625000
vt 0.062500 0.875000
vt 0.375000 0.625000
vt 0.500000 0.625000
vt 0.500000 0.625000
vt 0.437500 0.750000
vt 0.062500 0.750000
vt 0.125000 0.750000
vt 0.375000 0.750000
vt 0.062500 0.750000
vt 0.312500 0.750000
vt 0.187500 0.750000
vt 0.437500 0.750000
vt 0.437500 0.750000
vt 0.375000 0.750000
vt 0.375000 0.750000
vt 0.437500 0.750000
vt 0.375000 0.750000
vt 0.437500 0.750000
vt 0.375000 1.000000
vt 0.625000 0.750000
vt 0.062500 1.000000
vt 0.687500 0.750000
vt 0.687500 0.875000
vt 0.687500 0.875000
vt 0.500000 0.625000
vt 0.062500 0.750000
vt 0.062500 0.625000
vt 0.625000 0.875000
vt 0.687500 0.875000
vt 0.687500 0.875000
vt 0.625000 0.875000
vt 0.687500 0.875000
vt 0.625000 0.875000
vt 0.687500 0.875000
vt 0.687500 0.875000
vt 0.625000 0.875000
vt 0.687500 0.875000
vt 0.625000 0.875000
vt 0.687500 0.875000
vt 0.687500 0.875000
vt 0.625000 0.875000
vt 0.625000 0.875000
vt 0.562500 0.750000
vt 0.562500 0.750000
vt 0.312500 0.625000
vt 0.500000 0.625000
vt 0.562500 0.625000
vt 0.437500 0.625000
vt 0.562500 0.625000
vt 0.437500 0.625000
vn -0.1663 0.4618 0.8712
vn 0.4786 0.2634 0.8376
vn -0.0177 0.0239 0.9995
vn 0.5662 0.1176 0.8158
vn -0.0644 -0.0161 0.9978
vn -0.1508 0.9886 -0.0029
vn 0.2792 0.8613 0.4245
vn -0.4876 0.8578 0.1627
vn -0.0895 0.5228 0.8477
vn -0.4634 0.3351 0.8204
vn -0.1817 0.5883 0.7879
vn -0.0399 0.5714 0.8197
vn 0.0000 1.0000 0.0000
vn -0.0044 0.9934 0.1146
vn 0.7944 0.0435 -0.6059
vn 0.2168 0.8079 -0.5480
vn 0.2809 0.0000 -0.9597
vn 0.8441 0.1550 0.5132
vn 0.6888 0.3143 0.6532
vn 0.7773 0.1552 0.6096
vn 0.5019 0.6853 0.5276
vn 0.5466 0.3151 0.7758
vn 0.8133 0.3118 0.4911
vn 0.6242 0.6877 0.3706
vn 0.1886 0.9791 -0.0762
vn 0.1458 0.9843 -0.0995
vn 0.2019 0.9794 0.0045
vn 0.0807 0.9940 -0.0734
vn 0.1709 0.9839 0.0516
vn 0.0145 0.9858 0.1669
vn 0.1512 0.9840 0.0937
vn 0.0620 0.9853 0.1592
vn 0.1135 0.9845 0.1336
vn -0.0389 0.9979 -0.0523
vn 0.0025 0.9498 0.3127
vn 0.0462 0.9502 0.3081
vn 0.5822 0.6200 -0.5258
vn 0.3098 0.8028 0.5094
vn 0.6167 -0.0050 0.7872
vn 0.5999 0.7121 0.3647
vn 0.4948 0.6037 0.6250
vn 0.2558 0.4051 0.8777
vn 0.0487 0.0060 0.9988
vn 0.7868 0.0000 0.6171
vn 0.6295 0.5999 0.4938
vn -0.0479 0.0340 0.9983
vn -0.1393 0.0754 0.9874
vn 0.8551 0.0000 0.5184
vn -0.0216 0.9996 0.0169
vn 0.2948 0.9546 -0.0427
vn -0.0080 0.9998 0.0166
vn -0.0730 0.9973 -0.0082
vn 0.9544 0.2943 -0.0501
vn 0.9459 0.3012 0.1206
vn 0.9381 0.3426 -0.0502
vn 0.5831 0.3854 0.7151
vn -0.0514 -0.0014 0.9987
vn -0.5939 0.6594 0.4609
vn 0.0757 0.5207 0.8503
vn -0.5683 0.0923 0.8176
vn -0.0518 0.0004 0.9987
vn -0.3312 0.4522 0.8282
vn -0.0494 0.0051 0.9987
vn 0.0485 -0.0034 -0.9988
vn -0.3796 0.5413 -0.7503
vn -0.2466 0.4506 -0.8579
vn -0.4880 0.0935 -0.8678
vn 0.0479 0.0028 -0.9988
vn 0.0497 0.0021 -0.9987
vn 0.1571 0.5235 -0.8374
vn -0.5449 0.6619 -0.5147
vn 0.0487 0.0000 -0.9988
vn 0.0401 0.5635 -0.8251
vn 0.0546 0.5705 -0.8195
vn -0.8649 0.2118 0.4550
vn -0.4992 0.6883 -0.5263
vn -0.5516 0.6897 0.4691
vn -0.7172 -0.4418 -0.5389
vn -0.7666 -0.4416 0.4661
vn 0.0914 0.8551 0.5103
vn -0.0475 0.0000 0.9988
vn -0.9705 0.2366 -0.0472
vn 0.1432 0.8559 -0.4970
vn -0.8109 0.2139 -0.5446
vn -0.2023 0.0000 -0.9793
vn -0.1700 0.5912 -0.7884
vn 0.0580 0.0281 -0.9979
vn 0.1285 0.5303 -0.8380
vn 0.0667 0.0851 -0.9941
vn -0.4123 0.9033 -0.1188
vn -0.0783 0.9584 -0.2744
vn -0.1362 0.9818 -0.1323
vn 0.0208 0.9488 -0.3152
vn 0.0722 0.5856 -0.8074
vn 0.0561 0.9325 -0.3567
vn 0.9565 0.2776 0.0899
vn -0.2853 0.1675 0.9437
vn -0.9715 0.2316 -0.0511
usemtl Material__25
s 1
f 2/1/1 4/2/2 1/3/3
f 5/4/4 1/5/3 4/6/2
f 8/7/5 2/8/1 1/9/3
f 9/10/6 3/11/7 10/12/8
f 2/13/1 11/14/9 12/15/10
f 10/16/8 2/17/1 12/15/10
f 11/18/9 7/19/11 13/20/12
f 16/21/13 18/22/13 15/23/13
f 15/24/13 19/25/14 16/21/13
f 24/26/15 28/27/16 25/28/17
f 29/29/18 31/30/19 32/31/20
f 33/32/21 35/33/22 31/34/19
f 30/35/23 33/36/21 31/37/19
f 4/38/2 36/39/24 30/40/23
f 5/41/4 30/42/23 29/43/18
f 38/44/25 39/45/26 40/46/13
f 41/47/27 38/48/25 40/46/13
f 43/49/13 39/45/26 42/50/28
f 44/51/29 41/52/27 40/46/13
f 19/53/14 45/54/30 16/21/13
f 46/55/31 44/56/29 40/46/13
f 47/57/32 48/58/33 16/21/13
f 50/59/13 52/60/13 49/61/13
f 45/62/30 47/63/32 16/21/13
f 9/64/6 44/51/29 3/65/7
f 39/66/26 54/67/34 28/68/16
f 54/69/34 41/47/27 9/70/6
f 45/71/30 14/72/35 37/73/36
f 46/74/31 33/75/21 36/76/24
f 27/77/37 39/78/26 28/79/16
f 47/80/32 37/81/36 34/82/38
f 48/83/33 34/84/38 33/85/21
f 44/86/29 36/87/24 3/88/7
f 51/89/13 42/90/28 52/91/13
f 46/92/31 16/93/13 48/58/33
f 56/94/39 58/95/40 55/96/41
f 55/97/41 59/98/42 56/99/39
f 6/100/43 56/101/39 59/102/42
f 58/95/40 61/103/44 60/104/45
f 62/105/46 1/106/3 6/107/43
f 63/108/47 6/109/43 59/110/42
f 5/111/4 57/112/48 56/113/39
f 61/114/44 29/115/18 32/116/20
f 59/117/42 64/118/49 65/119/50
f 65/120/50 66/121/51 67/122/52
f 66/123/51 58/124/40 60/125/45
f 64/126/49 55/127/41 58/128/40
f 69/129/53 71/130/54 68/131/55
f 72/132/56 69/133/53 68/134/55
f 69/135/53 59/136/42 65/137/50
f 72/132/56 63/138/47 59/139/42
f 76/140/57 75/141/58 77/142/59
f 76/143/57 79/144/60 78/145/61
f 78/146/61 81/147/62 80/148/63
f 80/149/63 12/150/10 11/151/9
f 82/152/64 84/153/65 85/154/66
f 82/155/64 87/156/67 86/157/68
f 88/158/69 87/159/67 89/160/70
f 88/161/69 91/162/71 90/163/72
f 82/164/64 92/165/73 83/166/74
f 93/167/75 87/156/67 79/168/60
f 81/169/62 87/159/67 85/154/66
f 95/170/76 81/171/62 85/154/66
f 96/172/77 98/173/78 97/174/79
f 95/175/76 84/176/65 98/177/78
f 12/178/10 98/179/78 84/176/65
f 90/180/72 92/165/73 88/181/69
f 79/168/60 100/182/80 93/183/75
f 78/184/61 13/185/12 76/186/57
f 76/187/57 13/185/12 74/188/81
f 80/189/63 13/185/12 78/190/61
f 81/191/62 97/192/79 12/178/10
f 11/193/9 13/185/12 80/194/63
f 86/195/68 92/165/73 82/196/64
f 88/197/69 92/165/73 86/198/68
f 75/199/58 89/160/70 77/200/59
f 75/201/58 101/202/82 91/162/71
f 77/203/59 102/204/83 100/205/80
f 93/206/75 102/207/83 94/208/84
f 102/209/83 87/156/67 94/210/84
f 28/211/16 23/212/85 25/213/17
f 104/214/86 26/215/87 23/216/85
f 26/217/87 103/218/88 21/219/89
f 106/220/90 84/221/65 107/222/91
f 10/12/8 84/221/65 106/223/90
f 104/224/86 28/225/16 108/226/92
f 109/227/93 84/221/65 83/228/74
f 106/229/90 9/10/6 10/12/8
f 54/230/34 108/231/92 28/232/16
f 108/233/92 106/223/90 107/222/91
f 109/234/93 105/235/94 107/222/91
f 83/236/74 110/237/95 109/227/93
f 104/238/86 107/239/91 105/240/94
f 2/1/1 3/241/7 4/2/2
f 5/4/4 6/242/43 1/5/3
f 8/7/5 7/243/11 2/8/1
f 10/16/8 3/244/7 2/17/1
f 11/18/9 2/245/1 7/19/11
f 16/21/13 17/246/13 18/22/13
f 24/26/15 27/247/37 28/27/16
f 29/29/18 30/248/23 31/30/19
f 33/32/21 34/249/38 35/33/22
f 30/35/23 36/250/24 33/36/21
f 4/38/2 3/251/7 36/39/24
f 5/41/4 4/252/2 30/42/23
f 43/49/13 40/253/13 39/45/26
f 50/59/13 51/254/13 52/60/13
f 9/64/6 41/255/27 44/51/29
f 39/66/26 38/44/25 54/67/34
f 54/69/34 38/256/25 41/47/27
f 45/71/30 19/53/14 14/72/35
f 46/74/31 48/257/33 33/75/21
f 27/77/37 42/258/28 39/78/26
f 47/80/32 45/62/30 37/81/36
f 48/83/33 47/57/32 34/84/38
f 44/86/29 46/55/31 36/87/24
f 51/89/13 43/259/13 42/90/28
f 46/92/31 40/46/13 16/93/13
f 56/94/39 57/260/48 58/95/40
f 6/100/43 5/261/4 56/101/39
f 58/95/40 57/260/48 61/103/44
f 62/105/46 8/262/5 1/106/3
f 63/108/47 62/263/46 6/109/43
f 5/111/4 29/264/18 57/112/48
f 61/114/44 57/265/48 29/115/18
f 65/120/50 64/118/49 66/121/51
f 66/123/51 64/266/49 58/124/40
f 64/126/49 59/117/42 55/127/41
f 69/129/53 70/267/96 71/130/54
f 72/132/56 59/139/42 69/133/53
f 72/132/56 73/268/97 63/138/47
f 76/140/57 74/269/81 75/141/58
f 76/143/57 77/270/59 79/144/60
f 78/146/61 79/271/60 81/147/62
f 80/149/63 81/171/62 12/150/10
f 82/152/64 83/272/74 84/153/65
f 82/155/64 85/273/66 87/156/67
f 88/158/69 86/274/68 87/159/67
f 88/161/69 89/275/70 91/162/71
f 93/167/75 94/276/84 87/156/67
f 81/169/62 79/277/60 87/159/67
f 95/170/76 96/172/77 81/171/62
f 96/172/77 95/278/76 98/173/78
f 95/175/76 85/273/66 84/176/65
f 12/178/10 97/279/79 98/179/78
f 79/168/60 77/203/59 100/182/80
f 81/191/62 96/280/77 97/192/79
f 75/199/58 91/281/71 89/160/70
f 75/201/58 99/282/98 101/202/82
f 77/203/59 89/275/70 102/204/83
f 93/206/75 100/283/80 102/207/83
f 102/209/83 89/275/70 87/156/67
f 28/211/16 104/284/86 23/212/85
f 104/214/86 105/285/94 26/215/87
f 26/217/87 105/286/94 103/218/88
f 10/12/8 12/287/10 84/221/65
f 109/227/93 107/239/91 84/221/65
f 106/229/90 54/67/34 9/10/6
f 108/233/92 54/288/34 106/223/90
f 109/234/93 103/289/88 105/235/94
f 83/236/74 92/290/73 110/237/95
f 104/238/86 108/291/92 107/239/91
l 50 53
l 20 21
l 20 22
