# Blender v2.79 (sub 0) OBJ File: ''
# www.blender.org
mtllib hurricos.113.mtl
o hurricos.113_tex_72.330
v -3.748444 0.324713 -4.214429
v -3.697527 0.329341 -4.596303
v -3.341111 0.371000 -4.550015
v -1.848330 0.519121 -4.168141
v -1.820557 0.519121 -3.878842
v -2.033481 0.519121 -4.084823
v -2.070511 0.519121 -4.364864
v -2.234833 0.519121 -4.179713
v -1.871474 0.519121 -4.575473
v -2.054311 0.486720 -4.735167
v -2.269549 0.519121 -4.550015
v -1.869159 0.519121 -3.832555
v -2.082083 0.519121 -4.036221
v -2.269549 0.371000 -4.550015
v -2.077455 0.394144 -4.755996
v -2.387583 0.371001 -4.749053
v -2.433870 0.371001 -4.700450
v -2.975438 0.371000 -4.205171
v -3.017097 0.371000 -4.158884
v -2.836574 0.371000 -4.073251
v -3.197619 0.371000 -4.415781
v -3.239278 0.371000 -4.371807
v -2.614393 0.371000 -3.527055
v -2.806487 0.371000 -3.698320
v -2.656052 0.371000 -3.480767
v -3.301766 0.371000 -4.126482
v -3.567921 0.371000 -4.397265
v -3.315653 0.371000 -3.203041
v -3.836390 0.371000 -3.615002
v -2.845832 0.371000 -3.281730
v -3.063384 0.371000 -3.464567
v -3.278623 0.371000 -3.642775
v -3.551721 0.371000 -3.388192
v -3.535520 0.371000 -3.906615
v -3.010153 0.371000 -3.888100
v -2.107542 1.000514 -4.010763
v -2.061254 0.963484 -4.057050
v -2.107542 0.963484 -4.010763
v -1.894618 1.000514 -3.804782
v -1.894618 0.963484 -3.804782
v -1.848330 0.963484 -3.853384
v -2.345923 1.000514 -3.325703
v -2.387583 0.963484 -3.281730
v -2.586620 1.000514 -3.552514
v -2.586620 0.963484 -3.552514
v -2.628279 0.963484 -3.508540
v -1.834444 0.741303 -3.867270
v -1.883046 0.741303 -3.818668
v -2.047368 0.741303 -4.070937
v -2.095970 0.741303 -4.022335
v -2.642166 0.741303 -3.494654
v -2.614393 0.519121 -3.527055
v -2.600506 0.741303 -3.538627
v -2.792601 0.741303 -3.712206
v -2.806487 0.519121 -3.698320
v -2.984695 0.741303 -3.890414
v -3.010153 0.519121 -3.888100
v -2.811116 0.741303 -4.073251
v -2.836574 0.519121 -4.073251
v -2.264920 0.741303 -4.179713
v -2.781029 0.963484 -3.723778
v -2.959237 0.963484 -3.890414
v -2.292693 0.963484 -4.179713
v -2.163087 0.963484 -3.163696
v -1.707152 0.963484 -3.631203
v -2.785657 0.963484 -4.073251
v -1.931648 0.963484 -3.411336
v -2.473215 1.120863 -3.719150
v -2.431556 1.338415 -3.719150
v -2.343609 1.412476 -3.804782
v -2.371382 1.218067 -3.830240
v -2.255662 1.120863 -3.515483
v -2.255662 1.338415 -3.557142
v -2.049682 1.116234 -3.737665
v -2.091341 1.338415 -3.735350
v -2.179287 1.412476 -3.652032
v -2.151515 1.218067 -3.626574
v -2.269549 1.116234 -3.941331
v -2.267234 1.338415 -3.897357
v -2.521817 1.222696 -3.962160
v -2.077455 1.222696 -3.566400
v -2.461643 1.000514 -4.672678
v -2.461643 0.963484 -4.672678
v -2.413041 0.963484 -4.721280
v -2.947665 1.000514 -4.230629
v -2.991638 0.963484 -4.186656
v -2.947665 0.963484 -4.230629
v -3.172161 1.000514 -4.443553
v -3.172161 0.963484 -4.443553
v -3.213820 0.963484 -4.397265
v -2.387583 0.519122 -4.749053
v -2.399155 0.741303 -4.735167
v -2.433870 0.519122 -4.700450
v -2.447757 0.741303 -4.686564
v -2.975438 0.519121 -4.205171
v -3.017097 0.519121 -4.158884
v -2.961551 0.741303 -4.216743
v -3.003210 0.741303 -4.172770
v -3.239278 0.519121 -4.371807
v -3.227706 0.741303 -4.383379
v -3.197619 0.519121 -4.415781
v -3.186047 0.741303 -4.429667
v -2.283435 0.741303 -4.536129
v -2.095970 0.741303 -4.364864
v -3.315653 0.741303 -4.552330
v -3.341111 0.519121 -4.550015
v -2.295007 0.963484 -4.524557
v -2.121428 0.963484 -4.364864
v -3.287880 0.963484 -4.552330
v -2.757885 1.120863 -4.325520
v -2.945351 1.120863 -4.510671
v -2.915263 1.222696 -4.665734
v -2.662995 1.218067 -4.422724
v -2.526446 1.222696 -4.297747
v -2.568105 1.120863 -4.517614
v -2.755570 1.120863 -4.702765
v -2.850461 1.218067 -4.605560
v -2.607450 1.338415 -4.517613
v -2.686139 1.412476 -4.445868
v -2.906006 1.338415 -4.510670
v -2.827317 1.412476 -4.582417
v -2.755570 1.338415 -4.663420
v -2.757885 1.338415 -4.362549
vt 0.500000 0.500000
vt 0.562500 0.625000
vt 0.562500 0.500000
vt 0.500000 0.500000
vt 0.562500 0.625000
vt 0.562500 0.500000
vt 0.500000 0.625000
vt 0.562500 0.625000
vt 0.500000 0.500000
vt 0.500000 0.625000
vt 0.562500 0.750000
vt 0.562500 0.625000
vt 0.562500 0.625000
vt 0.500000 0.500000
vt 0.500000 0.625000
vt 0.562500 0.625000
vt 0.500000 0.500000
vt 0.500000 0.625000
vt 0.562500 0.625000
vt 0.500000 0.500000
vt 0.500000 0.625000
vt 0.562500 0.625000
vt 0.500000 0.500000
vt 0.500000 0.625000
vt 0.562500 0.625000
vt 0.500000 0.500000
vt 0.500000 0.500000
vt 0.562500 0.625000
vt 0.562500 0.500000
vt 0.437500 0.625000
vt 0.500000 0.500000
vt 0.437500 0.500000
vt 0.500000 0.500000
vt 0.562500 0.500000
vt 0.500000 0.625000
vt 0.562500 0.500000
vt 0.500000 0.500000
vt 0.562500 0.625000
vt 0.562500 0.500000
vt 0.437500 0.500000
vt 0.500000 0.625000
vt 0.500000 0.500000
vt 0.437500 0.500000
vt 0.500000 0.625000
vt 0.500000 0.500000
vt 0.562500 0.500000
vt 0.500000 0.500000
vt 0.312500 0.875000
vt 0.375000 0.875000
vt 0.312500 0.750000
vt 0.312500 0.875000
vt 0.375000 0.875000
vt 0.312500 0.750000
vt 0.312500 0.875000
vt 0.375000 0.875000
vt 0.312500 0.750000
vt 0.312500 0.750000
vt 0.375000 0.875000
vt 0.375000 0.750000
vt 0.312500 0.750000
vt 0.375000 0.875000
vt 0.375000 0.750000
vt 0.312500 0.875000
vt 0.375000 0.750000
vt 0.312500 0.750000
vt 0.062500 0.750000
vt 0.125000 0.875000
vt 0.125000 0.750000
vt 0.312500 0.750000
vt 0.375000 0.875000
vt 0.375000 0.750000
vt 0.312500 0.750000
vt 0.375000 0.750000
vt 0.125000 0.750000
vt 0.187500 0.875000
vt 0.187500 0.750000
vt 0.312500 0.875000
vt 0.375000 0.750000
vt 0.312500 0.750000
vt 0.312500 0.875000
vt 0.375000 0.750000
vt 0.312500 0.750000
vt 0.125000 0.625000
vt 0.187500 0.750000
vt 0.187500 0.625000
vt 0.250000 0.750000
vt 0.250000 0.625000
vt 0.187500 0.750000
vt 0.250000 0.625000
vt 0.187500 0.625000
vt 0.125000 0.625000
vt 0.187500 0.750000
vt 0.187500 0.625000
vt 0.312500 0.625000
vt 0.375000 0.750000
vt 0.375000 0.625000
vt 0.312500 0.625000
vt 0.375000 0.750000
vt 0.375000 0.625000
vt 0.062500 0.750000
vt 0.125000 0.625000
vt 0.062500 0.625000
vt 0.312500 0.625000
vt 0.375000 0.750000
vt 0.375000 0.625000
vt 0.312500 1.000000
vt 0.375000 0.875000
vt 0.312500 0.875000
vt 0.312500 1.000000
vt 0.375000 0.875000
vt 0.312500 0.875000
vt 0.312500 1.000000
vt 0.375000 0.875000
vt 0.312500 0.875000
vt 0.312500 0.750000
vt 0.375000 0.625000
vt 0.312500 0.625000
vt 0.062500 0.625000
vt 0.125000 0.750000
vt 0.125000 0.625000
vt 0.312500 0.750000
vt 0.375000 0.625000
vt 0.312500 0.625000
vt 0.062500 0.750000
vt 0.125000 0.625000
vt 0.062500 0.625000
vt 0.375000 0.625000
vt 0.437500 0.750000
vt 0.437500 0.625000
vt 0.312500 0.625000
vt 0.375000 0.750000
vt 0.375000 0.625000
vt 0.375000 0.750000
vt 0.437500 0.625000
vt 0.375000 0.625000
vt 0.312500 0.625000
vt 0.375000 0.750000
vt 0.375000 0.625000
vt 0.375000 0.625000
vt 0.437500 0.750000
vt 0.437500 0.625000
vt 0.375000 0.750000
vt 0.437500 0.625000
vt 0.437500 0.750000
vt 0.375000 0.750000
vt 0.437500 0.625000
vt 0.375000 0.625000
vt 0.437500 0.625000
vt 0.375000 0.625000
vt 0.375000 0.750000
vt 0.437500 0.750000
vt 0.375000 0.750000
vt 0.437500 0.750000
vt 0.375000 0.625000
vt 0.437500 0.750000
vt 0.375000 0.625000
vt 0.437500 0.750000
vt 0.437500 0.625000
vt 0.375000 0.625000
vt 0.437500 0.750000
vt 0.437500 0.625000
vt 0.375000 0.625000
vt 0.375000 0.750000
vt 0.437500 0.750000
vt 0.375000 0.625000
vt 0.375000 0.750000
vt 0.437500 0.750000
vt 0.375000 0.625000
vt 0.375000 0.750000
vt 0.437500 0.750000
vt 0.375000 0.625000
vt 0.437500 0.625000
vt 0.375000 0.750000
vt 0.437500 0.625000
vt 0.375000 0.625000
vt 0.437500 0.625000
vt 0.375000 0.625000
vt 0.312500 0.875000
vt 0.375000 0.875000
vt 0.312500 0.750000
vt 0.312500 0.875000
vt 0.375000 0.875000
vt 0.312500 0.750000
vt 0.375000 0.875000
vt 0.375000 0.750000
vt 0.312500 0.875000
vt 0.312500 0.750000
vt 0.375000 0.750000
vt 0.312500 0.875000
vt 0.375000 0.750000
vt 0.312500 0.750000
vt 0.312500 0.875000
vt 0.375000 0.750000
vt 0.312500 0.750000
vt 0.312500 0.875000
vt 0.375000 0.750000
vt 0.312500 0.750000
vt 0.312500 0.875000
vt 0.375000 0.750000
vt 0.312500 0.750000
vt 0.312500 0.750000
vt 0.375000 0.875000
vt 0.375000 0.750000
vt 0.312500 0.750000
vt 0.375000 0.750000
vt 0.062500 0.875000
vt 0.125000 0.750000
vt 0.062500 0.750000
vt 0.062500 0.750000
vt 0.125000 0.875000
vt 0.125000 0.750000
vt 0.125000 0.875000
vt 0.187500 0.750000
vt 0.125000 0.750000
vt 0.312500 0.875000
vt 0.375000 0.750000
vt 0.312500 0.750000
vt 0.312500 0.875000
vt 0.375000 0.750000
vt 0.312500 0.750000
vt 0.375000 0.750000
vt 0.312500 0.750000
vt 0.125000 0.625000
vt 0.187500 0.750000
vt 0.187500 0.625000
vt 0.187500 0.625000
vt 0.250000 0.750000
vt 0.250000 0.625000
vt 0.250000 0.750000
vt 0.250000 0.625000
vt 0.187500 0.625000
vt 0.250000 0.750000
vt 0.250000 0.625000
vt 0.312500 0.625000
vt 0.375000 0.750000
vt 0.375000 0.625000
vt 0.125000 0.750000
vt 0.187500 0.625000
vt 0.125000 0.625000
vt 0.312500 0.625000
vt 0.375000 0.750000
vt 0.375000 0.625000
vt 0.312500 0.625000
vt 0.375000 0.750000
vt 0.375000 0.625000
vt 0.062500 0.750000
vt 0.125000 0.625000
vt 0.062500 0.625000
vt 0.312500 0.625000
vt 0.375000 0.750000
vt 0.375000 0.625000
vt 0.500000 1.000000
vt 0.562500 0.875000
vt 0.500000 0.875000
vt 0.500000 1.000000
vt 0.562500 0.875000
vt 0.500000 0.875000
vt 0.500000 0.875000
vt 0.562500 1.000000
vt 0.562500 0.875000
vt 0.375000 0.625000
vt 0.437500 0.750000
vt 0.437500 0.625000
vt 0.375000 0.625000
vt 0.437500 0.625000
vt 0.375000 0.625000
vt 0.437500 0.750000
vt 0.375000 0.750000
vt 0.437500 0.625000
vt 0.375000 0.625000
vt 0.437500 0.625000
vt 0.375000 0.625000
vt 0.375000 0.750000
vt 0.437500 0.750000
vt 0.375000 0.625000
vt 0.375000 0.750000
vt 0.437500 0.750000
vt 0.375000 0.625000
vt 0.375000 0.750000
vt 0.437500 0.750000
vt 0.375000 0.625000
vt 0.375000 0.750000
vt 0.437500 0.750000
vt 0.375000 0.625000
vt 0.437500 0.625000
vt 0.375000 0.625000
vt 0.437500 0.750000
vt 0.437500 0.625000
vt 0.375000 0.750000
vt 0.437500 0.625000
vt 0.437500 0.750000
vt 0.437500 0.625000
vt 0.312500 0.750000
vt 0.312500 0.625000
vt 0.312500 0.750000
vt 0.375000 0.625000
vt 0.312500 0.625000
vt 0.062500 0.625000
vt 0.125000 0.750000
vt 0.125000 0.625000
vt 0.312500 0.625000
vt 0.375000 0.750000
vt 0.375000 0.625000
vt 0.062500 0.625000
vt 0.125000 0.750000
vt 0.125000 0.625000
vt 0.312500 0.625000
vt 0.375000 0.750000
vt 0.375000 0.625000
vt 0.375000 0.625000
vt 0.437500 0.750000
vt 0.437500 0.625000
vt 0.375000 0.750000
vt 0.437500 0.625000
vt 0.375000 0.625000
vt 0.500000 0.625000
vt 0.500000 0.625000
vt 0.500000 0.750000
vt 0.500000 0.625000
vt 0.500000 0.625000
vt 0.500000 0.625000
vt 0.437500 0.625000
vt 0.437500 0.625000
vt 0.312500 0.875000
vt 0.375000 0.875000
vt 0.062500 0.875000
vt 0.312500 0.875000
vt 0.312500 0.875000
vt 0.125000 0.875000
vt 0.125000 0.750000
vt 0.250000 0.750000
vt 0.125000 0.750000
vt 0.312500 0.750000
vt 0.312500 0.750000
vt 0.125000 0.750000
vt 0.312500 0.750000
vt 0.375000 1.000000
vt 0.375000 1.000000
vt 0.375000 1.000000
vt 0.375000 0.750000
vt 0.062500 0.750000
vt 0.125000 0.750000
vt 0.312500 0.750000
vt 0.437500 0.750000
vt 0.312500 0.750000
vt 0.375000 0.750000
vt 0.437500 0.750000
vt 0.437500 0.750000
vt 0.375000 0.875000
vt 0.375000 0.875000
vt 0.375000 0.875000
vt 0.312500 0.875000
vt 0.312500 0.875000
vt 0.125000 0.875000
vt 0.062500 0.875000
vt 0.187500 0.875000
vt 0.375000 0.875000
vt 0.375000 0.875000
vt 0.375000 0.875000
vt 0.125000 0.750000
vt 0.187500 0.750000
vt 0.187500 0.750000
vt 0.312500 0.750000
vt 0.187500 0.750000
vt 0.312500 0.750000
vt 0.312500 0.750000
vt 0.125000 0.750000
vt 0.312500 0.750000
vt 0.562500 1.000000
vt 0.562500 1.000000
vt 0.500000 1.000000
vt 0.375000 0.750000
vt 0.375000 0.750000
vt 0.375000 0.750000
vt 0.062500 0.750000
vt 0.312500 0.750000
vt 0.062500 0.750000
vt 0.312500 0.750000
vt 0.437500 0.750000
vn 0.0087 0.8579 -0.5137
vn 0.5298 0.8461 -0.0586
vn 0.7783 0.6269 -0.0354
vn -0.4378 0.7674 -0.4683
vn 0.4243 0.3117 -0.8502
vn -0.0358 0.6010 -0.7984
vn 0.0257 0.1731 -0.9846
vn -0.7108 0.3188 -0.6270
vn 0.5585 0.6365 0.5319
vn 0.8167 0.5763 -0.0280
vn 0.0320 0.5759 0.8169
vn 0.0154 0.9082 0.4183
vn -0.8159 0.5777 0.0236
vn -0.8163 0.5770 0.0246
vn -0.4496 0.7529 0.4806
vn -0.4277 0.9038 0.0103
vn -0.4713 0.7060 0.5286
vn -0.4747 0.7096 0.5207
vn 0.0000 1.0000 0.0000
vn -0.0251 0.9997 -0.0017
vn -0.0266 0.9992 -0.0283
vn -0.4254 0.9049 0.0143
vn -0.1089 0.9936 0.0302
vn -0.0671 0.9955 0.0660
vn 0.3333 0.6712 -0.6621
vn 0.0239 0.4267 -0.9041
vn -0.0104 0.0276 -0.9995
vn 0.6368 0.6861 -0.3517
vn 0.9599 -0.0023 0.2801
vn 0.9017 0.4291 -0.0523
vn -0.6078 0.7075 0.3605
vn -0.9978 0.0328 0.0579
vn -0.7989 0.4956 -0.3407
vn -0.3577 0.8532 0.3796
vn 0.9980 0.0619 -0.0096
vn 0.6929 0.0044 0.7210
vn 0.9978 0.0634 -0.0190
vn -0.0130 0.0616 -0.9980
vn -0.0165 0.0569 -0.9982
vn 0.7087 -0.0005 0.7054
vn -0.9384 0.0733 0.3377
vn -0.7259 0.0024 -0.6877
vn -0.6662 0.0421 0.7445
vn -0.6728 0.0803 0.7354
vn -0.6728 0.0437 0.7385
vn -0.9928 0.1156 0.0297
vn -0.9978 0.0557 0.0350
vn -0.9979 0.0576 0.0285
vn -0.8830 0.4680 0.0358
vn 0.9912 0.1255 -0.0410
vn -0.9930 0.1155 0.0235
vn -0.6074 0.4749 0.6367
vn -0.8663 0.4860 0.1150
vn -0.5650 0.6285 -0.5345
vn -0.5844 0.7104 0.3922
vn -0.3286 0.7190 0.6124
vn 0.8683 0.4837 -0.1100
vn 0.5647 0.6353 0.5267
vn 0.6089 0.6782 -0.4113
vn 0.0458 0.4852 -0.8732
vn 0.3552 0.6710 -0.6508
vn 0.3937 0.8451 0.3616
vn -0.0372 0.4862 0.8730
vn -0.1336 0.9910 -0.0055
vn -0.3025 0.8624 0.4059
vn 0.0880 0.8404 0.5348
vn 0.2229 0.9613 0.1615
vn 0.5532 0.6342 0.5400
vn 0.6107 0.7918 -0.0018
vn -0.7795 0.6263 0.0028
vn 0.7959 0.6047 -0.0280
vn 0.8495 0.4498 -0.2758
vn 0.9986 0.0324 -0.0425
vn 0.7071 0.0000 0.7071
vn -0.3194 0.7042 0.6341
vn -0.0236 0.4167 0.9087
vn -0.0050 0.0298 0.9995
vn -0.6189 0.7343 0.2788
vn -0.9980 0.0327 0.0542
vn -0.9050 0.4193 0.0719
vn 0.7241 -0.0026 0.6896
vn 0.9994 0.0294 -0.0186
vn 0.9979 0.0611 -0.0219
vn 0.0533 0.0263 0.9982
vn 0.0346 0.0580 0.9977
vn 0.0244 0.0283 0.9993
vn 0.0261 0.0577 0.9980
vn -0.9975 0.0583 0.0392
vn -0.9990 0.0269 0.0350
vn -0.9994 0.0296 0.0162
vn -0.9975 0.0592 0.0387
vn 0.6730 0.0811 -0.7352
vn 0.9919 0.1180 -0.0460
vn -0.6839 0.0843 0.7247
vn -0.6825 0.0417 0.7296
vn 0.6141 0.4575 -0.6430
vn 0.8875 0.4584 -0.0466
vn -0.6664 0.3935 0.6332
vn -0.5829 0.7109 0.3934
vn -0.1306 0.9730 0.1900
vn 0.5683 0.6009 0.5620
vn 0.1566 0.9876 -0.0110
vn 0.6604 0.6328 -0.4042
vn -0.5604 0.6121 -0.5579
vn -0.3730 0.6957 0.6138
vn 0.3286 0.3294 -0.8852
vn 0.8848 0.4578 -0.0873
vn -0.8845 0.4585 0.0861
vn -0.0701 0.4597 0.8853
vn 0.0725 0.4593 -0.8853
vn 0.3879 0.8434 0.3717
vn -0.0962 0.9912 -0.0909
vn -0.3916 0.8433 -0.3680
vn -0.3878 0.8424 -0.3741
usemtl Material__25
s 1
f 6/1/1 7/2/2 8/3/3
f 7/4/2 10/5/4 11/6/5
f 13/7/6 6/8/1 8/9/3
f 14/10/7 10/11/4 15/12/8
f 14/10/7 16/13/9 17/14/10
f 18/15/11 19/16/12 20/17/13
f 21/18/14 3/19/15 22/20/16
f 23/21/17 24/22/18 25/23/19
f 22/24/16 26/25/20 19/26/12
f 28/27/19 32/28/19 33/29/19
f 34/30/21 33/31/19 32/32/19
f 32/33/19 26/25/20 34/34/21
f 19/35/12 35/36/22 20/17/13
f 31/37/19 35/38/22 32/39/19
f 25/40/19 31/41/19 30/42/19
f 26/43/20 1/44/23 34/45/21
f 22/24/16 27/46/24 26/47/20
f 36/48/25 37/49/26 38/50/27
f 39/51/28 40/52/29 41/53/30
f 44/54/31 45/55/32 46/56/33
f 37/57/26 39/58/28 41/59/30
f 43/60/34 44/61/31 46/62/33
f 47/63/35 12/64/36 5/65/37
f 6/66/1 47/67/35 5/68/37
f 13/69/6 49/70/38 6/71/1
f 50/72/39 37/49/26 49/73/38
f 49/74/38 41/75/30 47/76/35
f 41/77/30 48/78/40 47/79/35
f 46/80/33 53/81/41 51/82/42
f 52/83/43 54/84/44 55/85/45
f 55/85/45 56/86/46 57/87/47
f 56/88/46 59/89/48 57/90/47
f 8/91/3 50/92/39 13/93/6
f 54/94/44 62/95/49 56/96/46
f 60/97/50 38/98/27 50/99/39
f 62/100/49 58/101/51 56/102/46
f 53/103/41 61/104/52 54/105/44
f 52/106/43 24/107/18 23/108/17
f 55/109/45 35/110/22 24/111/18
f 57/112/47 20/113/13 35/114/22
f 69/115/53 71/116/54 68/117/55
f 72/118/56 69/119/53 68/120/55
f 75/121/57 77/122/58 74/123/59
f 79/124/60 74/125/59 78/126/61
f 79/127/60 76/128/62 75/129/57
f 71/130/54 79/131/60 78/132/61
f 76/133/62 69/134/53 73/135/63
f 77/136/58 73/137/63 72/138/56
f 36/139/25 74/140/59 39/141/28
f 80/142/64 71/143/54 78/144/61
f 72/145/56 44/146/31 42/147/65
f 72/145/56 64/148/66 81/149/67
f 74/150/59 77/151/58 81/149/67
f 81/152/67 67/153/68 65/154/69
f 81/152/67 64/155/66 67/156/68
f 80/142/64 68/157/55 71/116/54
f 62/158/49 61/159/52 80/160/64
f 66/161/70 62/162/49 80/160/64
f 44/163/31 61/164/52 45/165/32
f 39/166/28 65/167/69 40/168/29
f 36/169/25 38/170/27 63/171/71
f 63/171/71 78/144/61 36/172/25
f 68/173/55 61/174/52 44/175/31
f 74/150/59 65/176/69 39/177/28
f 81/152/67 77/151/58 72/138/56
f 82/178/72 83/179/73 84/180/74
f 85/181/75 86/182/76 87/183/77
f 88/184/78 89/185/79 90/186/80
f 86/187/76 88/184/78 90/188/80
f 91/189/81 17/190/10 16/191/9
f 92/192/40 93/193/82 91/194/81
f 84/195/74 94/196/83 92/197/40
f 95/198/84 19/199/12 18/200/11
f 95/201/84 98/202/85 96/203/86
f 97/204/87 86/182/76 98/205/85
f 96/206/86 22/207/16 19/208/12
f 96/209/86 100/210/88 99/211/89
f 86/212/76 100/213/88 98/214/85
f 99/215/89 21/216/14 22/217/16
f 100/218/88 101/219/90 99/220/89
f 90/186/80 102/221/91 100/222/88
f 93/223/82 103/224/92 11/225/5
f 59/226/48 97/227/87 95/228/84
f 11/225/5 104/229/93 7/230/2
f 101/231/90 105/232/94 106/233/95
f 58/234/51 87/235/77 97/236/87
f 104/237/93 8/238/3 7/239/2
f 94/240/83 107/241/96 103/242/92
f 103/243/92 108/244/97 104/245/93
f 108/246/97 60/247/50 104/248/93
f 102/249/91 109/250/98 105/251/94
f 59/252/48 18/253/11 20/254/13
f 101/255/90 3/256/15 21/257/14
f 17/258/10 11/259/5 14/260/7
f 85/261/75 111/262/99 88/263/78
f 109/264/98 111/262/99 112/265/100
f 113/266/101 114/267/102 115/268/103
f 108/269/97 107/270/96 114/267/102
f 63/271/71 108/272/97 114/267/102
f 63/171/71 114/267/102 80/142/64
f 114/267/102 66/161/70 80/142/64
f 111/273/99 117/274/104 112/275/100
f 113/276/101 110/277/105 114/278/102
f 88/279/78 109/280/98 89/281/79
f 85/282/75 87/283/77 66/284/70
f 83/285/73 82/286/72 107/287/96
f 66/284/70 110/277/105 85/288/75
f 112/289/100 117/290/104 116/291/106
f 115/268/103 107/292/96 82/286/72
f 118/293/107 113/266/101 115/294/103
f 120/295/108 117/296/104 111/297/99
f 116/298/106 118/299/107 115/300/103
f 113/301/101 123/302/109 110/303/105
f 110/304/105 120/305/108 111/306/99
f 117/307/104 122/308/110 116/309/106
f 122/310/110 119/311/111 118/312/107
f 119/313/111 120/314/108 123/315/109
f 6/1/1 4/316/19 7/2/2
f 7/4/2 9/317/112 10/5/4
f 14/10/7 11/318/5 10/11/4
f 28/27/19 31/41/19 32/28/19
f 34/30/21 29/319/19 33/31/19
f 32/33/19 35/320/22 26/25/20
f 19/35/12 26/25/20 35/36/22
f 31/37/19 24/321/18 35/38/22
f 25/40/19 24/322/18 31/41/19
f 26/43/20 27/323/24 1/44/23
f 22/24/16 3/19/15 27/46/24
f 37/57/26 36/48/25 39/58/28
f 43/60/34 42/324/65 44/61/31
f 47/63/35 48/325/40 12/64/36
f 6/66/1 49/326/38 47/67/35
f 13/69/6 50/327/39 49/70/38
f 50/72/39 38/328/27 37/49/26
f 49/74/38 37/329/26 41/75/30
f 41/77/30 40/52/29 48/78/40
f 46/80/33 45/55/32 53/81/41
f 52/83/43 53/330/41 54/84/44
f 55/85/45 54/84/44 56/86/46
f 56/88/46 58/331/51 59/89/48
f 8/91/3 60/332/50 50/92/39
f 54/94/44 61/333/52 62/95/49
f 60/97/50 63/334/71 38/98/27
f 62/100/49 66/335/70 58/101/51
f 53/103/41 45/336/32 61/104/52
f 52/106/43 55/337/45 24/107/18
f 55/109/45 57/338/47 35/110/22
f 57/112/47 59/339/48 20/113/13
f 69/115/53 70/340/113 71/116/54
f 72/118/56 73/341/63 69/119/53
f 75/121/57 76/133/62 77/122/58
f 79/124/60 75/342/57 74/125/59
f 79/127/60 70/340/113 76/128/62
f 71/130/54 70/343/113 79/131/60
f 76/133/62 70/344/113 69/134/53
f 77/136/58 76/345/62 73/137/63
f 36/139/25 78/346/61 74/140/59
f 72/145/56 68/157/55 44/146/31
f 72/145/56 42/347/65 64/148/66
f 63/171/71 80/142/64 78/144/61
f 68/173/55 80/160/64 61/174/52
f 74/150/59 81/348/67 65/176/69
f 86/187/76 85/181/75 88/184/78
f 91/189/81 93/349/82 17/190/10
f 92/192/40 94/350/83 93/193/82
f 84/195/74 83/179/73 94/196/83
f 95/198/84 96/351/86 19/199/12
f 95/201/84 97/352/87 98/202/85
f 97/204/87 87/353/77 86/182/76
f 96/206/86 99/354/89 22/207/16
f 96/209/86 98/355/85 100/210/88
f 86/212/76 90/356/80 100/213/88
f 99/215/89 101/357/90 21/216/14
f 100/218/88 102/358/91 101/219/90
f 90/186/80 89/359/79 102/221/91
f 93/223/82 94/360/83 103/224/92
f 59/226/48 58/361/51 97/227/87
f 11/225/5 103/224/92 104/229/93
f 101/231/90 102/362/91 105/232/94
f 58/234/51 66/363/70 87/235/77
f 104/237/93 60/364/50 8/238/3
f 94/240/83 83/365/73 107/241/96
f 103/243/92 107/366/96 108/244/97
f 108/246/97 63/367/71 60/247/50
f 102/249/91 89/368/79 109/250/98
f 59/252/48 95/369/84 18/253/11
f 101/255/90 106/370/95 3/256/15
f 17/258/10 93/371/82 11/259/5
f 85/261/75 110/372/105 111/262/99
f 109/264/98 88/279/78 111/262/99
f 66/284/70 114/373/102 110/277/105
f 115/268/103 114/267/102 107/292/96
f 118/293/107 119/313/111 113/266/101
f 120/295/108 121/374/114 117/296/104
f 116/298/106 122/375/110 118/299/107
f 113/301/101 119/376/111 123/302/109
f 110/304/105 123/377/109 120/305/108
f 117/307/104 121/378/114 122/308/110
f 122/310/110 121/374/114 119/311/111
f 119/313/111 121/379/114 120/314/108
l 2 27
