# Blender v2.79 (sub 0) OBJ File: ''
# www.blender.org
mtllib hurricos.108.mtl
o hurricos.108_tex_72.325
v 1.961155 0.519122 -4.668049
v 1.977355 0.815363 -4.649534
v 1.940325 1.106976 -4.631019
v 1.861636 1.435620 -4.591674
v 2.315256 1.444877 -4.721280
v 2.271283 1.454135 -4.795340
v 2.058359 1.426362 -4.691193
v 2.146306 1.407847 -4.543072
v 1.988928 1.407847 -4.376436
v 2.407832 1.444877 -4.688879
v 2.326828 1.407847 -4.480583
v 2.250453 1.407847 -4.288489
v 2.535123 1.449506 -4.688879
v 2.576782 1.430991 -4.480583
v 2.613812 1.435620 -4.288489
v 2.667044 1.444877 -4.712022
v 2.833679 1.458763 -4.526871
v 2.717960 1.454135 -4.779140
v 1.840806 -0.073362 -4.753682
v 1.863951 0.222880 -4.721280
v 1.898666 0.519121 -3.179897
v 2.178707 0.519121 -3.672862
v 1.859322 0.519121 -3.429851
v 1.563080 0.519121 -3.429851
v 1.266838 0.519121 -3.429851
v 1.859322 0.519121 -3.726093
v 1.563080 0.519121 -3.726093
v 1.266838 0.519121 -3.712206
v 1.266838 0.519121 -4.015391
v 1.563080 0.514492 -4.020020
v 2.711017 0.519121 -3.672862
v 2.720274 0.519121 -4.033906
v 2.516608 0.519121 -4.105652
v 2.516608 0.519121 -3.809411
v 1.278410 0.519121 -4.480584
v 2.368487 0.519121 -3.672862
v 2.368487 0.519121 -3.809411
v 1.470504 0.472834 -4.570845
v 1.266838 0.519121 -4.290803
v 1.563080 0.519121 -4.318576
v 2.368487 0.519121 -4.105652
v 2.153249 0.519121 -4.061679
v 1.859322 0.519121 -4.022335
v 2.368487 0.519121 -4.401894
v 2.118533 0.519121 -4.339406
v 1.859322 0.519121 -4.318576
v 1.296925 0.222880 -4.596303
v 2.516608 0.519121 -3.672862
v 2.442548 0.963484 -3.378934
v 2.301370 0.889424 -3.446052
v 2.368487 0.741303 -3.661290
v 2.183336 0.741303 -3.661290
v 2.516608 0.741303 -3.661290
v 2.701759 0.741303 -3.661290
v 2.734160 0.889424 -3.186840
v 2.866081 0.671871 -3.184525
v 2.583725 0.889424 -3.446052
v 2.646214 0.671871 -3.559457
v 2.153249 0.889424 -3.184525
v 2.025958 0.671871 -3.182211
v 2.241196 0.671871 -3.559457
v 2.368487 0.741303 -3.809411
v 2.368487 0.741303 -4.105652
v 2.368487 0.741303 -4.401894
v 2.516608 0.741303 -3.809411
v 2.516608 0.741303 -4.105652
v 2.516608 0.519121 -4.401894
v 2.516608 0.741303 -4.401894
v 2.294427 0.889424 -3.809411
v 2.590669 0.889424 -4.401894
v 2.590669 0.889424 -4.105652
v 2.590669 0.889424 -3.809411
v 2.442548 0.963484 -3.809411
v 2.294427 0.889424 -4.105652
v 2.442548 0.963484 -4.105652
v 2.294427 0.889424 -4.401894
v 2.442548 0.963484 -4.401894
v 2.667044 0.519121 -4.360235
v 2.081503 0.519121 -4.473640
v 1.676485 0.472834 -4.617133
v 2.081503 0.838507 -4.473640
v 2.896168 0.847765 -4.457439
v 2.597611 1.190294 -4.364864
v 2.280540 1.190294 -4.364864
v 2.051415 1.130120 -4.443553
v 1.435788 0.222880 -4.654163
v 1.419588 -0.073362 -4.684250
v 1.639455 0.222880 -4.695822
v 1.625568 -0.073362 -4.730537
vt 0.500000 0.625000
vt 0.562500 0.500000
vt 0.500000 0.500000
vt 0.500000 0.625000
vt 0.562500 0.500000
vt 0.500000 0.500000
vt 0.500000 0.500000
vt 0.562500 0.625000
vt 0.562500 0.500000
vt 0.500000 0.500000
vt 0.562500 0.625000
vt 0.562500 0.500000
vt 0.500000 0.500000
vt 0.562500 0.625000
vt 0.562500 0.500000
vt 0.500000 0.500000
vt 0.562500 0.625000
vt 0.562500 0.500000
vt 0.500000 0.625000
vt 0.562500 0.500000
vt 0.500000 0.500000
vt 0.500000 0.625000
vt 0.562500 0.625000
vt 0.500000 0.500000
vt 0.500000 0.625000
vt 0.500000 0.500000
vt 0.500000 0.625000
vt 0.562500 0.500000
vt 0.500000 0.500000
vt 0.500000 0.625000
vt 0.562500 0.500000
vt 0.437500 0.500000
vt 0.500000 0.625000
vt 0.500000 0.500000
vt 0.500000 0.500000
vt 0.562500 0.625000
vt 0.562500 0.500000
vt 0.500000 0.625000
vt 0.562500 0.625000
vt 0.500000 0.500000
vt 0.500000 0.625000
vt 0.562500 0.500000
vt 0.500000 0.500000
vt 0.500000 0.625000
vt 0.562500 0.500000
vt 0.500000 0.500000
vt 0.437500 0.500000
vt 0.500000 0.625000
vt 0.500000 0.625000
vt 0.500000 0.500000
vt 0.437500 0.625000
vt 0.500000 0.500000
vt 0.500000 0.625000
vt 0.562500 0.500000
vt 0.500000 0.625000
vt 0.562500 0.500000
vt 0.500000 0.500000
vt 0.500000 0.625000
vt 0.562500 0.500000
vt 0.500000 0.500000
vt 0.500000 0.625000
vt 0.562500 0.625000
vt 0.500000 0.500000
vt 0.625000 0.875000
vt 0.687500 0.875000
vt 0.625000 0.750000
vt 0.625000 0.750000
vt 0.687500 0.875000
vt 0.687500 0.750000
vt 0.750000 1.000000
vt 0.812500 1.000000
vt 0.750000 0.875000
vt 0.062500 0.625000
vt 0.125000 0.750000
vt 0.125000 0.625000
vt 0.625000 0.750000
vt 0.687500 0.875000
vt 0.687500 0.750000
vt 0.625000 0.875000
vt 0.625000 0.750000
vt 0.750000 1.000000
vt 0.812500 1.000000
vt 0.750000 0.875000
vt 0.750000 1.000000
vt 0.812500 1.000000
vt 0.750000 0.875000
vt 0.125000 0.625000
vt 0.187500 0.750000
vt 0.187500 0.625000
vt 0.062500 0.625000
vt 0.125000 0.750000
vt 0.125000 0.625000
vt 0.750000 1.000000
vt 0.812500 1.000000
vt 0.750000 0.875000
vt 0.187500 0.625000
vt 0.250000 0.750000
vt 0.250000 0.625000
vt 0.125000 0.750000
vt 0.187500 0.625000
vt 0.125000 0.625000
vt 0.187500 0.750000
vt 0.250000 0.625000
vt 0.312500 0.750000
vt 0.375000 0.625000
vt 0.312500 0.625000
vt 0.125000 0.750000
vt 0.187500 0.625000
vt 0.125000 0.625000
vt 0.187500 0.750000
vt 0.250000 0.625000
vt 0.187500 0.625000
vt 0.375000 0.625000
vt 0.437500 0.750000
vt 0.437500 0.625000
vt 0.375000 0.750000
vt 0.437500 0.625000
vt 0.375000 0.625000
vt 0.375000 0.750000
vt 0.437500 0.625000
vt 0.375000 0.625000
vt 0.375000 0.625000
vt 0.437500 0.750000
vt 0.437500 0.625000
vt 0.375000 0.750000
vt 0.437500 0.625000
vt 0.375000 0.625000
vt 0.375000 0.750000
vt 0.437500 0.625000
vt 0.375000 0.625000
vt 0.375000 0.750000
vt 0.437500 0.625000
vt 0.375000 0.625000
vt 0.375000 0.750000
vt 0.437500 0.625000
vt 0.375000 0.625000
vt 0.437500 0.625000
vt 0.375000 0.625000
vt 0.375000 0.750000
vt 0.437500 0.625000
vt 0.375000 0.625000
vt 0.375000 0.750000
vt 0.437500 0.625000
vt 0.375000 0.625000
vt 0.375000 0.750000
vt 0.437500 0.625000
vt 0.375000 0.625000
vt 0.500000 0.500000
vt 0.562500 0.625000
vt 0.562500 0.500000
vt 0.500000 0.625000
vt 0.562500 0.625000
vt 0.500000 0.500000
vt 0.562500 0.625000
vt 0.562500 0.500000
vt 0.437500 0.625000
vt 0.500000 0.500000
vt 0.437500 0.500000
vt 0.562500 0.625000
vt 0.062500 0.500000
vt 0.062500 0.625000
vt 0.125000 0.500000
vt 0.000000 1.000000
vt 0.062500 1.000000
vt 0.000000 0.875000
vt 0.000000 1.000000
vt 0.062500 1.000000
vt 0.000000 0.875000
vt 0.937500 0.625000
vt 1.000000 0.750000
vt 1.000000 0.625000
vt 0.875000 0.625000
vt 0.937500 0.750000
vt 0.937500 0.625000
vt 0.187500 0.500000
vt 0.250000 0.625000
vt 0.250000 0.500000
vt 0.000000 1.000000
vt 0.062500 1.000000
vt 0.000000 0.875000
vt 0.000000 1.000000
vt 0.062500 1.000000
vt 0.000000 0.875000
vt 0.062500 1.000000
vt 0.062500 0.875000
vt 0.000000 1.000000
vt 0.187500 0.500000
vt 0.250000 0.625000
vt 0.250000 0.500000
vt 0.000000 0.875000
vt 0.062500 1.000000
vt 0.062500 0.875000
vt 0.187500 0.500000
vt 0.250000 0.625000
vt 0.250000 0.500000
vt 0.000000 0.875000
vt 0.062500 0.875000
vt 0.187500 0.500000
vt 0.250000 0.625000
vt 0.250000 0.500000
vt 0.000000 0.750000
vt 0.062500 0.625000
vt 0.000000 0.625000
vt 0.187500 0.625000
vt 0.250000 0.500000
vt 0.187500 0.500000
vt 0.000000 0.750000
vt 0.062500 0.625000
vt 0.000000 0.625000
vt 0.187500 0.625000
vt 0.250000 0.500000
vt 0.187500 0.500000
vt 0.562500 0.625000
vt 0.562500 0.625000
vt 0.500000 0.625000
vt 0.500000 0.625000
vt 0.500000 0.625000
vt 0.500000 0.625000
vt 0.562500 0.625000
vt 0.562500 0.625000
vt 0.562500 0.625000
vt 0.437500 0.625000
vt 0.500000 0.625000
vt 0.562500 0.625000
vt 0.437500 0.625000
vt 0.562500 0.625000
vt 0.500000 0.625000
vt 0.562500 0.625000
vt 0.562500 0.625000
vt 0.562500 0.625000
vt 0.625000 0.875000
vt 0.062500 0.750000
vt 0.125000 0.750000
vt 0.062500 0.750000
vt 0.187500 0.750000
vt 0.250000 0.750000
vt 0.375000 0.750000
vt 0.187500 0.750000
vt 0.250000 0.750000
vt 0.375000 0.750000
vt 0.437500 0.750000
vt 0.437500 0.750000
vt 0.437500 0.750000
vt 0.437500 0.750000
vt 0.437500 0.750000
vt 0.437500 0.750000
vt 0.437500 0.750000
vt 0.437500 0.750000
vt 0.500000 0.625000
vt 0.500000 0.625000
vt 0.937500 0.750000
vt 0.875000 0.750000
vt 0.187500 0.625000
vt 0.187500 0.625000
vt 0.000000 1.000000
vt 0.187500 0.625000
vt 0.000000 1.000000
vt 0.187500 0.625000
vt 0.062500 0.750000
vt 0.250000 0.625000
vt 0.062500 0.750000
vt 0.250000 0.625000
vn 0.0187 0.9934 0.1130
vn -0.0534 0.9865 0.1545
vn -0.0529 0.9865 0.1548
vn -0.6215 0.6269 0.4697
vn 0.0041 0.9966 0.0828
vn -0.0564 0.9966 0.0592
vn -0.0607 0.9890 0.1350
vn -0.1633 0.5270 0.8340
vn -0.0721 0.9962 0.0477
vn 0.0034 0.9961 0.0878
vn -0.0516 0.5739 0.8173
vn -0.0306 0.9984 0.0479
vn -0.5081 0.8111 -0.2896
vn -0.2612 0.9125 -0.3148
vn 0.0000 1.0000 0.0000
vn -0.0020 1.0000 -0.0020
vn 0.0019 1.0000 -0.0059
vn 0.0116 0.9999 -0.0039
vn 0.7071 0.7071 0.0000
vn 0.2609 0.7825 -0.5654
vn -0.5801 0.5907 -0.5607
vn -0.7071 0.7071 0.0000
vn -0.0972 0.8862 -0.4530
vn 0.0088 0.9976 -0.0686
vn -0.1492 0.7262 -0.6711
vn -0.0058 1.0000 0.0020
vn -0.0226 0.9992 -0.0316
vn 0.0046 1.0000 0.0042
vn 0.5801 0.5907 -0.5607
vn -0.8542 0.0172 -0.5196
vn -0.7737 0.4111 -0.4820
vn -0.7464 0.6319 -0.2089
vn 0.7671 0.4189 -0.4858
vn 0.7423 0.6359 -0.2113
vn 0.9603 0.1638 0.2256
vn 0.7674 0.4580 -0.4486
vn 0.7660 0.4597 -0.4492
vn 0.8542 0.0172 -0.5196
vn -0.9474 0.3193 0.0211
vn -0.7372 0.5293 -0.4199
vn -0.9732 -0.2297 0.0000
vn -0.6374 0.5852 0.5012
vn 0.9732 -0.2297 0.0000
vn 0.7321 -0.1728 0.6589
vn 0.5054 0.5774 0.6412
vn -0.9484 0.3169 0.0062
vn 0.7155 0.2181 0.6637
vn 0.0000 1.0000 0.0035
vn 0.9484 0.3169 0.0062
vn 0.9487 0.3162 0.0000
vn -0.9487 0.3162 0.0000
vn -0.7321 -0.1728 0.6589
vn -0.0005 0.4925 0.8703
vn -0.5519 0.0439 0.8328
vn -0.1451 0.8392 0.5241
vn -0.3527 0.8038 0.4791
vn -0.1585 0.7472 -0.6454
vn -0.6080 -0.0817 0.7897
vn -0.8530 -0.0609 0.5183
vn -0.5998 0.7903 -0.1249
vn -0.0033 -0.2314 0.9728
vn -0.1342 -0.2435 0.9605
vn -0.5915 -0.2211 0.7754
vn -0.8328 -0.1959 0.5178
vn -0.5259 0.4871 0.6972
vn -0.3519 0.3334 -0.8746
vn -0.2553 0.2644 -0.9300
vn -0.1595 0.1181 -0.9801
vn -0.2179 0.1104 -0.9697
vn -0.1550 0.2218 -0.9627
vn -0.1085 0.1190 -0.9869
vn -0.1381 0.2056 -0.9688
vn -0.1040 0.9944 0.0191
vn -0.7770 0.4500 -0.4401
usemtl Material__25
s 1
f 7/1/1 5/2/2 6/3/3
f 4/4/4 8/5/5 7/6/1
f 5/7/2 11/8/6 10/9/7
f 8/10/5 12/11/8 11/12/6
f 10/13/7 14/14/9 13/15/10
f 11/16/6 15/17/11 14/18/9
f 14/19/9 16/20/12 13/21/10
f 21/22/13 22/23/14 23/24/15
f 23/25/15 22/23/14 26/26/16
f 24/27/15 26/28/16 27/29/17
f 28/30/15 24/31/15 27/29/17
f 29/32/18 27/33/17 30/34/15
f 32/35/15 34/36/19 31/37/20
f 36/38/21 37/39/22 22/40/14
f 35/41/23 40/42/24 38/43/25
f 42/44/15 37/45/22 41/46/22
f 42/47/15 26/48/16 22/40/14
f 30/49/15 26/28/16 43/50/26
f 41/51/22 45/52/15 42/47/15
f 46/53/27 42/54/15 45/52/15
f 40/55/24 43/56/26 46/57/27
f 39/58/28 30/59/15 40/60/24
f 48/61/29 31/62/20 34/63/19
f 51/64/30 52/65/31 50/66/32
f 48/67/29 54/68/33 31/69/20
f 57/70/34 58/71/35 54/72/33
f 58/73/35 55/74/36 56/75/37
f 52/76/31 36/77/21 22/78/14
f 57/79/34 54/68/33 53/80/38
f 22/81/14 61/82/39 52/83/31
f 31/84/20 54/85/33 58/86/35
f 21/87/13 61/88/39 22/89/14
f 60/90/40 50/91/32 61/92/39
f 50/93/32 52/94/31 61/95/39
f 36/96/21 62/97/41 37/98/22
f 62/99/41 41/100/22 37/101/22
f 63/102/41 44/103/42 41/100/22
f 65/104/43 48/105/29 34/106/19
f 66/107/43 34/108/19 33/109/19
f 68/110/44 33/111/19 67/112/45
f 51/113/30 69/114/46 62/115/41
f 70/116/47 66/117/43 68/118/44
f 73/119/48 57/120/34 72/121/49
f 73/122/48 50/123/32 49/124/15
f 69/125/46 63/126/41 62/127/41
f 71/128/50 65/129/43 66/130/43
f 75/131/15 72/132/49 71/133/50
f 74/134/51 73/135/48 75/136/15
f 74/134/51 64/137/52 63/138/41
f 72/139/49 53/140/38 65/141/43
f 77/142/53 71/143/50 70/144/47
f 76/145/54 75/146/15 77/147/53
f 78/148/55 33/149/19 32/150/15
f 45/151/15 44/152/42 79/153/56
f 79/153/56 46/154/27 45/155/15
f 46/156/27 80/157/57 40/158/24
f 40/55/24 80/159/57 38/43/25
f 78/160/55 70/161/47 67/162/45
f 70/163/47 68/164/44 67/165/45
f 76/166/54 44/167/42 64/168/52
f 44/169/42 81/170/58 79/171/56
f 79/172/56 2/173/59 1/174/60
f 83/175/61 12/176/8 84/177/62
f 77/178/53 70/179/47 83/180/61
f 84/181/62 76/182/54 77/183/53
f 84/184/62 77/185/53 83/186/61
f 85/187/63 4/188/4 3/189/64
f 3/190/64 81/191/58 85/192/63
f 84/193/62 9/194/65 85/195/63
f 85/196/63 76/182/54 84/197/62
f 47/198/66 38/199/25 86/200/67
f 86/201/67 89/202/68 87/203/69
f 38/204/25 88/205/70 86/206/67
f 88/207/70 19/208/71 89/209/68
f 80/210/57 20/211/72 88/212/70
f 7/1/1 8/213/5 5/2/2
f 4/4/4 9/214/65 8/5/5
f 5/7/2 8/215/5 11/8/6
f 8/10/5 9/216/65 12/11/8
f 10/13/7 11/217/6 14/14/9
f 11/16/6 12/218/8 15/17/11
f 14/19/9 17/219/73 16/20/12
f 24/27/15 23/220/15 26/28/16
f 28/30/15 25/221/15 24/31/15
f 29/32/18 28/222/15 27/33/17
f 32/35/15 33/223/19 34/36/19
f 35/41/23 39/224/28 40/42/24
f 42/44/15 22/23/14 37/45/22
f 42/47/15 43/225/26 26/48/16
f 30/49/15 27/226/17 26/28/16
f 41/51/22 44/227/42 45/52/15
f 46/53/27 43/228/26 42/54/15
f 40/55/24 30/229/15 43/56/26
f 39/58/28 29/230/18 30/59/15
f 48/67/29 53/231/38 54/68/33
f 58/73/35 57/232/34 55/74/36
f 52/76/31 51/64/30 36/77/21
f 21/87/13 60/233/40 61/88/39
f 60/90/40 59/234/74 50/91/32
f 36/96/21 51/235/30 62/97/41
f 62/99/41 63/102/41 41/100/22
f 63/102/41 64/236/52 44/103/42
f 65/104/43 53/237/38 48/105/29
f 66/107/43 65/238/43 34/108/19
f 68/110/44 66/239/43 33/111/19
f 51/113/30 50/240/32 69/114/46
f 70/116/47 71/241/50 66/117/43
f 73/119/48 49/242/15 57/120/34
f 73/122/48 69/125/46 50/123/32
f 69/125/46 74/243/51 63/126/41
f 71/128/50 72/244/49 65/129/43
f 75/131/15 73/245/48 72/132/49
f 74/134/51 69/114/46 73/135/48
f 74/134/51 76/246/54 64/137/52
f 72/139/49 57/247/34 53/140/38
f 77/142/53 75/248/15 71/143/50
f 76/145/54 74/243/51 75/146/15
f 78/148/55 67/249/45 33/149/19
f 79/153/56 1/250/60 46/154/27
f 46/156/27 1/250/60 80/157/57
f 44/169/42 76/251/54 81/170/58
f 79/172/56 81/252/58 2/173/59
f 83/175/61 15/253/11 12/176/8
f 85/187/63 9/254/65 4/188/4
f 3/190/64 2/255/59 81/191/58
f 84/193/62 12/256/8 9/194/65
f 85/196/63 81/257/58 76/182/54
f 47/198/66 35/258/23 38/199/25
f 86/201/67 88/259/70 89/202/68
f 38/204/25 80/260/57 88/205/70
f 88/207/70 20/261/72 19/208/71
f 80/210/57 1/262/60 20/211/72
l 16 18
l 70 82
