# Blender v2.79 (sub 0) OBJ File: ''
# www.blender.org
mtllib hurricos.091.mtl
o hurricos.091_tex_72.308
v -2.588934 0.838506 -2.395319
v -2.910635 0.815362 -2.133793
v -2.600506 1.088460 -2.337459
v -2.940722 1.111604 -2.106020
v -2.216318 0.806104 -2.427720
v -2.232519 1.111604 -2.441607
v -2.047368 0.829248 -2.379118
v -1.922390 1.088460 -2.404576
v -1.913133 0.815362 -2.268027
v -1.776584 1.111604 -2.279599
v -1.885360 0.815362 -2.059732
v -1.746497 1.088460 -2.045846
v -1.873788 0.815362 -1.846809
v -1.762698 1.111604 -1.860695
v -1.873788 0.482090 -2.936886
v -1.920076 0.509863 -2.747106
v -1.702523 0.519120 -2.721648
v -1.899247 0.519121 -3.383563
v -1.832129 0.486720 -3.156753
v -1.783527 0.533007 -2.436978
v -1.869159 0.537635 -2.580470
v -1.734925 0.685756 -2.106020
v -1.804357 0.695014 -2.404576
v -1.933962 0.667241 -1.846809
v -1.915447 0.667241 -2.029645
v -1.945534 0.667241 -2.263399
v -2.116799 1.111604 -2.168509
v -2.357496 1.111604 -1.883839
v -2.480158 1.111604 -2.138422
v -2.804173 1.111604 -1.930127
v -2.679196 1.111604 -1.744975
v -2.107542 1.111604 -1.883839
v -1.945534 0.519120 -2.263399
v -2.047368 0.528378 -2.362917
v -2.910635 0.519120 -2.133793
v -2.625965 0.542264 -2.379118
v -2.232519 0.509863 -2.413834
v -2.371382 0.371000 -3.300245
v -2.413041 0.371000 -3.253957
v -2.158458 0.371000 -3.110465
v -1.947849 0.370999 -2.749421
v -1.915447 0.370999 -2.936886
v -2.135314 0.370999 -2.707761
v -1.855273 0.371000 -3.159067
v -1.915447 0.371000 -3.367362
v -2.371382 0.370999 -2.895227
v -2.623651 0.371000 -3.115094
v -1.896932 0.370999 -2.557326
v -1.945534 0.370999 -2.263399
v -1.808985 0.370999 -2.427720
v -2.031167 0.380257 -2.388376
v -2.232519 0.352484 -2.441607
v -2.586620 0.370999 -2.682303
v -2.818059 0.370999 -2.888284
v -2.642166 0.347855 -2.406891
v -2.785657 0.370999 -2.508724
v -3.005525 0.370999 -2.703133
v -2.910635 0.370999 -2.133793
v -3.030983 0.370999 -2.272656
v -3.236963 0.370999 -2.480951
v -3.241592 0.519120 -2.480951
v -3.033297 0.519120 -2.270342
v -2.614393 0.371000 -3.527055
v -2.656052 0.371000 -3.480767
v -3.315653 0.371000 -3.203041
v -3.176789 0.370999 -2.916057
v -3.058755 0.371000 -3.041034
v -2.845832 0.371000 -3.281730
v -3.063384 0.371000 -3.464567
v -3.551721 0.371000 -3.388192
v -3.452202 0.370999 -2.682303
v -3.584122 0.370999 -2.858197
v -3.792417 0.371000 -3.066492
v -2.345923 1.000514 -3.325703
v -2.387583 0.963484 -3.281730
v -2.345923 0.963484 -3.325703
v -2.628279 0.963484 -3.508540
v -2.413041 0.519121 -3.253957
v -2.656052 0.519121 -3.480767
v -2.371382 0.519121 -3.300245
v -2.357496 0.741303 -3.314131
v -2.401469 0.741303 -3.267844
v -2.642166 0.741303 -3.494654
v -2.614393 0.519121 -3.527055
v -2.600506 0.741303 -3.538627
v -1.915447 0.741303 -3.397449
v -2.160772 0.741303 -3.138238
v -2.158458 0.519121 -3.110465
v -2.163087 0.963484 -3.163696
v -1.931648 0.963484 -3.411336
v -2.255662 1.120863 -3.515483
v -3.621152 1.407846 -2.524925
v -2.829631 1.407846 -1.911611
v -2.980066 1.407846 -2.068990
v -3.068013 1.111604 -2.235626
v -3.107358 1.407846 -2.198596
v -3.144388 1.555966 -1.592226
v -3.440629 1.555966 -1.893096
v -3.646610 1.555966 -1.675544
v -3.283251 1.555966 -1.733403
v -3.660497 1.555966 -2.117592
v -3.734557 1.555966 -2.001873
v -3.843333 1.555966 -2.300429
v -3.315653 1.407846 -2.406891
v -3.523948 1.407846 -2.617500
v -3.581808 1.111604 -2.561955
v -3.549406 0.370999 -2.589728
v -3.447573 0.519120 -2.693875
v -3.542463 0.815362 -2.598985
v -3.542463 0.519120 -2.598985
v -3.012468 0.667241 -2.710076
v -3.012468 0.815362 -2.710076
v -2.804173 0.815362 -2.499466
v -2.804173 0.667241 -2.499466
v -3.012468 0.963483 -2.707761
v -2.804173 0.963483 -2.499466
v -3.241592 0.815362 -2.480951
v -3.262422 0.963483 -2.462436
v -3.051812 0.963483 -2.251827
v -3.033297 0.815362 -2.270342
v -3.218448 0.667241 -2.920685
v -3.447573 0.815362 -2.693875
v -3.218448 0.815362 -2.920685
v -3.486917 1.111604 -2.654531
v -3.278623 1.111604 -2.446235
vt 0.375000 0.500000
vt 0.312500 0.500000
vt 0.375000 0.625000
vt 0.312500 0.625000
vt 0.812500 0.750000
vt 0.750000 0.750000
vt 0.812500 0.875000
vt 0.750000 0.875000
vt 0.562500 0.500000
vt 0.500000 0.500000
vt 0.562500 0.625000
vt 0.500000 0.625000
vt 0.437500 0.500000
vt 0.375000 0.500000
vt 0.437500 0.625000
vt 0.375000 0.625000
vt 0.375000 0.625000
vt 0.312500 0.500000
vt 0.375000 0.500000
vt 0.312500 0.625000
vt 0.250000 0.500000
vt 0.187500 0.500000
vt 0.250000 0.625000
vt 0.187500 0.625000
vt 0.500000 0.625000
vt 0.562500 0.625000
vt 0.500000 0.500000
vt 0.500000 0.625000
vt 0.562500 0.625000
vt 0.500000 0.625000
vt 0.562500 0.500000
vt 0.500000 0.500000
vt 0.500000 0.625000
vt 0.562500 0.625000
vt 0.500000 0.500000
vt 0.500000 0.625000
vt 0.562500 0.500000
vt 0.500000 0.500000
vt 0.500000 0.625000
vt 0.562500 0.500000
vt 0.500000 0.500000
vt 0.500000 0.625000
vt 0.562500 0.500000
vt 0.500000 0.500000
vt 0.750000 0.750000
vt 0.812500 0.875000
vt 0.812500 0.750000
vt 0.562500 0.500000
vt 0.500000 0.500000
vt 0.500000 0.625000
vt 0.562500 0.500000
vt 0.500000 0.500000
vt 0.000000 1.000000
vt 0.062500 1.000000
vt 0.000000 0.875000
vt 0.000000 1.000000
vt 0.062500 0.875000
vt 0.000000 0.875000
vt 0.125000 0.625000
vt 0.187500 0.500000
vt 0.125000 0.500000
vt 0.187500 0.625000
vt 0.250000 0.500000
vt 0.125000 0.500000
vt 0.187500 0.625000
vt 0.125000 0.625000
vt 0.000000 0.875000
vt 0.062500 1.000000
vt 0.062500 0.875000
vt 0.000000 0.875000
vt 0.062500 1.000000
vt 0.062500 0.875000
vt 0.187500 0.500000
vt 0.250000 0.625000
vt 0.250000 0.500000
vt 0.500000 0.625000
vt 0.562500 0.625000
vt 0.500000 0.500000
vt 0.500000 0.625000
vt 0.562500 0.500000
vt 0.500000 0.500000
vt 0.500000 0.625000
vt 0.562500 0.500000
vt 0.500000 0.500000
vt 0.500000 0.500000
vt 0.562500 0.500000
vt 0.500000 0.625000
vt 0.562500 0.625000
vt 0.500000 0.500000
vt 0.500000 0.625000
vt 0.562500 0.625000
vt 0.500000 0.625000
vt 0.562500 0.500000
vt 0.500000 0.500000
vt 0.500000 0.500000
vt 0.562500 0.625000
vt 0.562500 0.500000
vt 0.562500 0.500000
vt 0.500000 0.500000
vt 0.500000 0.500000
vt 0.562500 0.625000
vt 0.562500 0.500000
vt 0.500000 0.500000
vt 0.562500 0.625000
vt 0.562500 0.500000
vt 0.500000 0.500000
vt 0.562500 0.625000
vt 0.562500 0.500000
vt 0.500000 0.500000
vt 0.562500 0.625000
vt 0.562500 0.500000
vt 0.500000 0.500000
vt 0.562500 0.625000
vt 0.562500 0.500000
vt 0.937500 0.875000
vt 0.875000 1.000000
vt 0.875000 0.875000
vt 0.000000 0.875000
vt 0.062500 0.750000
vt 0.000000 0.750000
vt 0.875000 0.625000
vt 0.812500 0.750000
vt 0.812500 0.625000
vt 0.937500 0.625000
vt 0.875000 0.750000
vt 0.875000 0.625000
vt 0.937500 0.625000
vt 0.812500 0.625000
vt 0.875000 0.750000
vt 0.875000 0.625000
vt 0.062500 0.625000
vt 0.125000 0.500000
vt 0.062500 0.500000
vt 0.500000 0.750000
vt 0.500000 0.625000
vt 0.562500 0.750000
vt 0.562500 0.625000
vt 0.500000 0.625000
vt 0.562500 0.750000
vt 0.562500 0.625000
vt 0.500000 0.750000
vt 0.562500 0.625000
vt 0.500000 0.750000
vt 0.562500 0.625000
vt 0.500000 0.625000
vt 0.562500 0.625000
vt 0.500000 0.500000
vt 0.437500 0.625000
vt 0.437500 0.500000
vt 0.500000 0.500000
vt 0.562500 0.625000
vt 0.562500 0.500000
vt 0.500000 0.500000
vt 0.562500 0.500000
vt 0.500000 0.625000
vt 0.562500 0.500000
vt 0.500000 0.500000
vt 0.562500 0.500000
vt 0.500000 0.500000
vt 0.500000 0.625000
vt 0.562500 0.500000
vt 0.500000 0.500000
vt 0.312500 0.875000
vt 0.375000 0.875000
vt 0.312500 0.750000
vt 0.062500 0.875000
vt 0.125000 0.750000
vt 0.062500 0.750000
vt 0.312500 0.875000
vt 0.375000 0.750000
vt 0.312500 0.750000
vt 0.312500 0.750000
vt 0.375000 0.875000
vt 0.375000 0.750000
vt 0.062500 0.875000
vt 0.125000 0.750000
vt 0.062500 0.750000
vt 0.312500 0.750000
vt 0.375000 0.750000
vt 0.125000 0.750000
vt 0.187500 0.875000
vt 0.187500 0.750000
vt 0.312500 0.875000
vt 0.375000 0.750000
vt 0.312500 0.750000
vt 0.312500 0.875000
vt 0.375000 0.750000
vt 0.312500 0.750000
vt 0.187500 0.625000
vt 0.250000 0.750000
vt 0.250000 0.625000
vt 0.125000 0.750000
vt 0.187500 0.625000
vt 0.125000 0.625000
vt 0.312500 0.750000
vt 0.375000 0.625000
vt 0.312500 0.625000
vt 0.062500 0.625000
vt 0.125000 0.750000
vt 0.125000 0.625000
vt 0.312500 1.000000
vt 0.375000 0.875000
vt 0.312500 0.875000
vt 0.312500 0.875000
vt 0.375000 1.000000
vt 0.375000 0.875000
vt 0.375000 0.750000
vt 0.437500 0.750000
vt 0.375000 0.625000
vt 0.375000 0.750000
vt 0.375000 0.625000
vt 0.312500 0.625000
vt 0.375000 0.750000
vt 0.375000 0.625000
vt 0.375000 0.750000
vt 0.437500 0.625000
vt 0.375000 0.625000
vt 0.437500 0.750000
vt 0.437500 0.625000
vt 0.375000 0.750000
vt 0.375000 0.750000
vt 0.437500 0.625000
vt 0.375000 0.625000
vt 0.375000 0.750000
vt 0.437500 0.625000
vt 0.375000 0.625000
vt 0.375000 0.625000
vt 0.437500 0.750000
vt 0.437500 0.625000
vt 0.375000 0.625000
vt 0.437500 0.750000
vt 0.437500 0.625000
vt 0.000000 0.750000
vt 0.062500 0.875000
vt 0.062500 0.750000
vt 0.812500 1.000000
vt 0.875000 0.875000
vt 0.812500 0.875000
vt 0.312500 0.875000
vt 0.375000 0.750000
vt 0.312500 0.750000
vt 0.312500 0.875000
vt 0.375000 0.750000
vt 0.312500 0.750000
vt 0.375000 0.875000
vt 0.437500 1.000000
vt 0.437500 0.875000
vt 0.687500 0.875000
vt 0.625000 1.000000
vt 0.625000 0.875000
vt 0.312500 0.875000
vt 0.312500 0.750000
vt 0.375000 1.000000
vt 0.437500 0.875000
vt 0.375000 0.875000
vt 0.375000 0.875000
vt 0.437500 1.000000
vt 0.437500 0.875000
vt 0.375000 0.875000
vt 0.437500 1.000000
vt 0.375000 1.000000
vt 0.312500 0.875000
vt 0.375000 0.750000
vt 0.312500 0.750000
vt 0.375000 0.750000
vt 0.625000 0.875000
vt 0.687500 1.000000
vt 0.625000 1.000000
vt 0.187500 0.625000
vt 0.250000 0.750000
vt 0.187500 0.750000
vt 0.187500 0.625000
vt 0.250000 0.750000
vt 0.250000 0.625000
vt 0.625000 0.875000
vt 0.687500 0.750000
vt 0.625000 0.750000
vt 0.625000 0.875000
vt 0.687500 0.875000
vt 0.625000 0.750000
vt 0.312500 0.625000
vt 0.375000 0.750000
vt 0.375000 0.625000
vt 0.625000 0.875000
vt 0.687500 0.875000
vt 0.062500 0.750000
vt 0.125000 0.625000
vt 0.062500 0.625000
vt 0.250000 0.750000
vt 0.250000 0.625000
vt 0.625000 0.875000
vt 0.687500 0.750000
vt 0.625000 0.750000
vt 0.187500 0.625000
vt 0.250000 0.625000
vt 0.562500 0.625000
vt 0.562500 0.625000
vt 0.562500 0.625000
vt 0.562500 0.625000
vt 0.562500 0.625000
vt 0.062500 1.000000
vt 0.250000 0.625000
vt 0.187500 0.500000
vt 0.000000 1.000000
vt 0.000000 1.000000
vt 0.187500 0.625000
vt 0.562500 0.625000
vt 0.500000 0.625000
vt 0.500000 0.625000
vt 0.500000 0.625000
vt 0.500000 0.625000
vt 0.500000 0.625000
vt 0.937500 1.000000
vt 0.062500 0.875000
vt 0.875000 0.750000
vt 0.937500 0.750000
vt 0.937500 0.750000
vt 0.812500 0.750000
vt 0.125000 0.625000
vt 0.562500 0.750000
vt 0.500000 0.750000
vt 0.500000 0.750000
vt 0.562500 0.750000
vt 0.562500 0.750000
vt 0.500000 0.625000
vt 0.562500 0.625000
vt 0.562500 0.625000
vt 0.125000 0.875000
vt 0.375000 0.875000
vt 0.312500 0.875000
vt 0.125000 0.875000
vt 0.312500 0.875000
vt 0.125000 0.875000
vt 0.375000 0.875000
vt 0.375000 0.875000
vt 0.187500 0.750000
vt 0.187500 0.750000
vt 0.375000 0.750000
vt 0.062500 0.750000
vt 0.375000 1.000000
vt 0.312500 1.000000
vt 0.312500 0.750000
vt 0.312500 0.750000
vt 0.437500 0.750000
vt 0.437500 0.750000
vt 0.437500 0.750000
vt 0.375000 0.750000
vt 0.375000 0.750000
vt 0.000000 0.875000
vt 0.875000 1.000000
vt 0.375000 0.875000
vt 0.375000 0.875000
vt 0.375000 1.000000
vt 0.687500 1.000000
vt 0.375000 0.875000
vt 0.437500 1.000000
vt 0.375000 1.000000
vt 0.437500 0.875000
vt 0.375000 0.875000
vt 0.375000 0.875000
vt 0.687500 0.875000
vt 0.187500 0.750000
vt 0.687500 0.875000
vt 0.312500 0.750000
vt 0.125000 0.750000
vt 0.687500 0.875000
vt 0.187500 0.750000
vn -0.3496 0.0987 -0.9317
vn 0.0610 0.0795 -0.9950
vn -0.3147 0.6737 -0.6686
vn 0.4813 0.4030 -0.7784
vn 0.0578 -0.0454 -0.9973
vn -0.0546 0.6545 -0.7541
vn 0.4586 -0.1865 -0.8688
vn 0.4161 0.4721 -0.7772
vn 0.8225 -0.2968 -0.4851
vn 0.7706 0.5050 -0.3888
vn 0.9455 -0.3155 -0.0800
vn 0.8973 0.4412 -0.0138
vn 0.9444 -0.3287 -0.0107
vn 0.8290 0.5560 -0.0597
vn -0.8347 0.5017 -0.2269
vn -0.6997 0.7108 -0.0716
vn -0.0240 0.9878 -0.1540
vn -0.8047 0.5194 0.2873
vn -0.1115 0.9932 0.0324
vn 0.4978 0.3579 -0.7900
vn 0.9856 0.1620 -0.0490
vn 0.0250 0.9996 -0.0086
vn -0.0296 0.9990 -0.0342
vn 0.0000 1.0000 0.0000
vn 0.0245 0.9995 -0.0197
vn 0.3345 0.9006 -0.2776
vn -0.0015 0.0565 -0.9984
vn 0.5029 0.0762 -0.8610
vn -0.4049 0.0645 -0.9121
vn 0.0638 0.0000 -0.9980
vn 0.0823 0.0689 -0.9942
vn 0.9224 -0.3747 0.0934
vn -0.6633 0.5207 -0.5374
vn -0.9457 0.1295 -0.2980
vn 0.0449 0.5776 0.8151
vn 0.0183 0.9066 0.4215
vn 0.0185 0.9010 0.4333
vn -0.5481 0.8278 -0.1200
vn -0.0118 0.9998 0.0110
vn -0.5641 0.8256 0.0055
vn -0.6833 0.7296 0.0284
vn -0.5314 0.8156 0.2286
vn -0.7519 0.6551 -0.0735
vn 0.2969 0.8213 -0.4872
vn 0.0452 0.5815 -0.8123
vn -0.0037 0.8265 -0.5629
vn 0.0089 0.9994 0.0334
vn -0.1765 0.8741 -0.4524
vn 0.0451 0.9985 0.0303
vn 0.0528 0.5777 -0.8145
vn 0.5075 0.7222 -0.4699
vn 0.4846 0.7191 -0.4980
vn 0.8321 -0.2407 -0.4995
vn 0.5957 -0.5366 -0.5976
vn -0.9807 0.1856 0.0608
vn -0.1427 0.6031 0.7848
vn -0.0043 0.7773 -0.6290
vn -0.8163 0.5765 0.0356
vn -0.1125 0.0000 0.9936
vn 0.1958 0.0496 0.9794
vn 0.0322 0.0252 0.9991
vn 0.0317 0.0303 0.9990
vn 0.0689 0.0310 0.9971
vn 0.0291 0.0595 0.9978
vn -0.9980 0.0318 0.0553
vn 0.0406 0.0555 0.9976
vn -0.6831 0.0880 0.7249
vn -0.9435 0.0818 0.3211
vn -0.7433 0.0000 -0.6689
vn -0.7418 0.0028 -0.6706
vn 0.3322 0.1248 0.9349
vn 0.0411 0.1201 0.9919
vn 0.0430 0.0603 0.9972
vn -0.0011 0.1099 0.9939
vn 0.7244 0.0937 0.6829
vn 0.5668 0.6476 -0.5093
vn 0.7004 0.1661 -0.6941
vn 0.5419 0.6561 -0.5252
vn 0.1487 0.9779 -0.1465
vn 0.1595 0.9685 -0.1912
vn 0.5049 0.6706 -0.5434
vn 0.4523 0.7701 -0.4498
vn 0.1183 0.9714 -0.2059
vn 0.2231 0.9499 -0.2188
vn 0.5358 0.6565 -0.5310
vn -0.2802 -0.3223 -0.9042
vn -0.7029 -0.0121 -0.7111
vn 0.4319 0.3108 -0.8466
vn 0.9012 -0.4310 -0.0455
vn 0.6000 -0.5407 -0.5896
vn 0.0026 0.5823 -0.8130
vn 1.0000 0.0011 0.0018
vn -0.0436 0.6200 -0.7833
vn 0.8043 0.4241 -0.4162
vn 0.8165 0.5773 0.0000
vn 0.9966 0.0581 0.0573
vn 0.0551 -0.4304 -0.9009
vn -0.4082 0.3659 -0.8363
vn 0.0066 0.5770 -0.8167
vn 0.4350 0.4331 -0.7894
vn 0.2690 0.1510 -0.9512
vn 0.6978 0.1654 -0.6969
vn -0.7059 -0.0004 -0.7082
vn -0.7259 0.0096 -0.6877
vn 0.7273 0.0955 0.6797
vn 0.2236 0.9495 -0.2199
vn 0.3002 0.9054 -0.3002
vn -0.6896 -0.0129 -0.7241
vn -0.6983 -0.0033 -0.7158
usemtl Material__25
s 1
f 1/1/1 2/2/2 3/3/3
f 4/4/4 3/3/3 2/2/2
f 1/5/1 3/6/3 5/7/5
f 6/8/6 5/7/5 3/6/3
f 7/9/7 5/10/5 8/11/8
f 6/12/6 8/11/8 5/10/5
f 9/13/9 7/14/7 10/15/10
f 8/16/8 10/15/10 7/14/7
f 10/17/10 11/18/11 9/19/9
f 11/18/11 10/17/10 12/20/12
f 13/21/13 11/22/11 14/23/14
f 12/24/12 14/23/14 11/22/11
f 15/25/15 16/26/16 17/27/17
f 16/28/16 21/29/18 17/27/17
f 22/30/19 26/31/20 25/32/21
f 10/33/10 27/34/22 12/35/12
f 29/36/23 31/37/24 28/38/24
f 27/39/22 28/40/24 32/41/25
f 12/42/12 32/43/25 14/44/14
f 8/45/8 27/46/22 10/47/10
f 6/12/6 29/48/23 27/49/22
f 3/50/3 30/51/26 29/52/23
f 26/53/20 33/54/27 34/55/28
f 2/56/2 36/57/29 35/58/30
f 1/59/1 37/60/31 36/61/29
f 5/62/5 34/63/28 37/60/31
f 26/64/20 7/65/7 9/66/9
f 26/67/20 11/68/11 25/69/21
f 25/70/21 13/71/13 24/72/32
f 33/73/27 23/74/33 20/75/34
f 38/76/35 39/77/36 40/78/37
f 42/79/38 43/80/39 41/81/40
f 44/82/41 40/83/37 42/84/38
f 46/85/24 39/77/36 47/86/24
f 40/87/37 46/88/24 43/89/39
f 43/90/39 48/91/42 41/81/40
f 50/92/43 51/93/44 49/94/45
f 51/95/44 43/96/39 52/97/46
f 43/90/39 53/98/47 52/99/46
f 53/100/47 47/101/24 54/102/24
f 55/103/48 53/104/47 56/105/49
f 56/106/49 54/107/24 57/108/24
f 58/109/50 56/110/49 59/111/51
f 59/112/51 57/113/24 60/114/52
f 62/115/53 60/116/52 61/117/54
f 58/118/50 62/119/53 35/120/30
f 58/121/50 36/122/29 55/123/48
f 55/124/48 37/125/31 52/126/46
f 37/125/31 51/127/44 52/126/46
f 51/128/44 33/129/27 49/130/45
f 33/131/27 50/132/43 49/133/45
f 20/134/34 48/91/42 50/92/43
f 48/135/42 16/136/16 41/137/40
f 41/138/40 15/139/15 42/140/38
f 15/141/15 44/142/41 42/79/38
f 19/143/55 45/144/56 44/82/41
f 65/145/24 66/146/24 67/147/24
f 69/148/24 67/147/24 68/149/24
f 54/150/24 68/151/24 67/152/24
f 67/147/24 57/113/24 54/102/24
f 60/153/52 66/146/24 71/154/57
f 66/155/24 72/156/24 71/157/57
f 65/145/24 73/158/24 72/159/24
f 47/160/24 64/161/58 68/162/24
f 74/163/59 75/164/60 76/165/61
f 78/166/62 64/167/58 39/168/36
f 80/169/63 39/170/36 38/171/35
f 80/172/63 82/173/64 78/174/62
f 82/175/64 79/176/65 78/177/62
f 81/178/66 75/164/60 82/179/64
f 82/180/64 77/181/67 83/182/68
f 79/183/65 63/184/69 64/185/58
f 83/186/68 84/187/70 79/188/65
f 18/189/71 87/190/72 88/191/73
f 87/192/72 80/193/63 88/194/73
f 89/195/74 81/196/66 87/197/72
f 86/198/75 89/199/74 87/200/72
f 88/201/73 38/202/35 40/203/37
f 45/204/56 88/205/73 40/206/37
f 74/207/59 76/208/61 89/209/74
f 4/4/4 93/210/76 30/211/26
f 95/212/77 94/213/78 4/214/4
f 102/215/24 98/216/79 101/217/80
f 104/218/81 105/219/82 92/220/83
f 100/221/84 93/222/76 94/223/78
f 98/224/79 94/225/78 96/226/85
f 104/227/81 98/228/79 96/229/85
f 92/230/83 101/231/80 104/232/81
f 61/233/54 71/234/57 108/235/86
f 71/236/57 110/237/87 108/238/86
f 112/239/88 114/240/89 111/241/90
f 115/242/91 113/243/92 112/244/88
f 117/245/93 115/246/91 112/247/88
f 115/248/91 119/249/94 116/250/95
f 61/251/54 114/240/89 62/252/53
f 120/253/96 116/254/95 119/255/94
f 120/256/96 114/257/89 113/258/92
f 121/259/97 122/260/98 123/261/99
f 111/262/90 108/263/86 121/264/97
f 121/265/97 112/239/88 111/241/90
f 112/266/88 122/267/98 117/268/93
f 118/269/100 124/270/101 125/271/102
f 119/272/94 4/273/4 2/274/2
f 35/275/30 120/276/96 2/277/2
f 122/278/98 118/279/100 117/280/93
f 125/281/102 96/282/85 95/283/77
f 120/284/96 119/285/94 2/277/2
f 105/286/82 125/287/102 124/288/101
f 118/269/100 95/289/77 119/290/94
f 109/291/103 108/292/86 110/293/87
f 109/294/103 124/270/101 122/295/98
f 22/30/19 23/296/33 26/31/20
f 29/36/23 30/297/26 31/37/24
f 27/39/22 29/298/23 28/40/24
f 12/42/12 27/34/22 32/43/25
f 8/45/8 6/8/6 27/46/22
f 6/12/6 3/299/3 29/48/23
f 3/50/3 4/300/4 30/51/26
f 2/56/2 1/301/1 36/57/29
f 1/59/1 5/62/5 37/60/31
f 5/62/5 7/302/7 34/63/28
f 26/64/20 34/303/28 7/65/7
f 26/67/20 9/304/9 11/68/11
f 25/70/21 11/305/11 13/71/13
f 33/73/27 26/306/20 23/74/33
f 42/79/38 40/307/37 43/80/39
f 44/82/41 45/144/56 40/83/37
f 46/85/24 40/87/37 39/77/36
f 50/92/43 48/91/42 51/93/44
f 51/95/44 48/135/42 43/96/39
f 43/90/39 46/88/24 53/98/47
f 53/100/47 46/308/24 47/101/24
f 55/103/48 52/309/46 53/104/47
f 56/106/49 53/310/47 54/107/24
f 58/109/50 55/311/48 56/110/49
f 59/112/51 56/312/49 57/113/24
f 62/115/53 59/313/51 60/116/52
f 58/118/50 59/314/51 62/119/53
f 58/121/50 35/315/30 36/122/29
f 55/124/48 36/316/29 37/125/31
f 37/125/31 34/317/28 51/127/44
f 51/128/44 34/318/28 33/129/27
f 33/131/27 20/319/34 50/132/43
f 20/134/34 21/320/18 48/91/42
f 48/135/42 21/321/18 16/136/16
f 41/138/40 16/322/16 15/139/15
f 15/141/15 19/323/55 44/142/41
f 19/143/55 18/324/71 45/144/56
f 69/148/24 65/145/24 67/147/24
f 54/150/24 47/160/24 68/151/24
f 67/147/24 66/155/24 57/113/24
f 60/153/52 57/325/24 66/146/24
f 66/155/24 65/326/24 72/156/24
f 65/145/24 70/327/24 73/158/24
f 47/160/24 39/77/36 64/161/58
f 78/166/62 79/328/65 64/167/58
f 80/169/63 78/329/62 39/170/36
f 80/172/63 81/330/66 82/173/64
f 82/175/64 83/331/68 79/176/65
f 81/178/66 76/332/61 75/164/60
f 82/180/64 75/333/60 77/181/67
f 79/183/65 84/334/70 63/184/69
f 83/186/68 85/335/104 84/187/70
f 18/189/71 86/336/75 87/190/72
f 87/192/72 81/337/66 80/193/63
f 89/195/74 76/338/61 81/196/66
f 86/198/75 90/339/105 89/199/74
f 88/201/73 80/340/63 38/202/35
f 45/204/56 18/341/71 88/205/73
f 4/4/4 94/342/78 93/210/76
f 95/212/77 96/343/85 94/213/78
f 102/215/24 99/344/24 98/216/79
f 100/221/84 97/345/106 93/222/76
f 98/224/79 100/346/84 94/225/78
f 104/227/81 101/347/80 98/228/79
f 92/230/83 103/348/107 101/231/80
f 61/233/54 60/349/52 71/234/57
f 71/236/57 107/350/108 110/237/87
f 112/239/88 113/351/92 114/240/89
f 115/242/91 116/352/95 113/243/92
f 117/245/93 118/353/100 115/246/91
f 115/248/91 118/354/100 119/249/94
f 61/251/54 111/355/90 114/240/89
f 120/253/96 113/356/92 116/254/95
f 120/256/96 62/357/53 114/257/89
f 121/259/97 108/358/86 122/260/98
f 111/262/90 61/359/54 108/263/86
f 121/265/97 123/360/99 112/239/88
f 112/266/88 123/361/99 122/267/98
f 118/269/100 122/295/98 124/270/101
f 119/272/94 95/362/77 4/273/4
f 35/275/30 62/363/53 120/276/96
f 125/281/102 104/364/81 96/282/85
f 105/286/82 104/365/81 125/287/102
f 118/269/100 125/271/102 95/289/77
f 109/291/103 122/366/98 108/292/86
f 109/294/103 106/367/109 124/270/101
l 74 91
