# Blender v2.79 (sub 0) OBJ File: ''
# www.blender.org
mtllib hurricos.089.mtl
o hurricos.089_tex_72.306
v -0.202799 1.130119 -2.575841
v -0.198171 1.477277 -2.543440
v -0.459697 1.509679 -2.506409
v -0.464325 1.130119 -2.517982
v -0.647161 1.477277 -2.504095
v -0.651791 1.130119 -2.536497
v -0.853143 1.157892 -1.867638
v -0.786025 1.120861 -2.080562
v -1.015150 1.111604 -2.133793
v -1.184100 1.157892 -1.953270
v -0.420352 1.157892 -1.768119
v -0.434238 1.139377 -2.057418
v -0.718908 1.116233 -2.293486
v -0.892488 1.111604 -2.325887
v -0.450438 1.139377 -2.286542
v -0.151882 1.148634 -2.346717
v -0.806855 1.130119 -2.522610
v -0.783710 0.815362 -2.624443
v -0.860085 0.815362 -2.376804
v -0.996634 0.815362 -2.149994
v -1.181786 0.815362 -1.960214
v -1.873788 0.482090 -2.936886
v -1.702523 0.519120 -2.721648
v -1.677065 0.519121 -3.145181
v -1.899247 0.519121 -3.383563
v -1.832129 0.486720 -3.156753
v -1.487285 0.537635 -2.552697
v -1.285933 0.537635 -2.710076
v -1.494228 0.519120 -2.927629
v -1.783527 0.533007 -2.436978
v -1.589118 0.528378 -2.420777
v -1.869159 0.537635 -2.580470
v -1.288248 0.667241 -2.272656
v -1.181786 0.657983 -1.960214
v -0.996634 0.685756 -2.149994
v -1.262790 0.644097 -2.675360
v -1.105411 0.662612 -2.448550
v -1.040608 0.634840 -2.605928
v -1.390080 0.644097 -1.800521
v -1.505800 0.685756 -2.161566
v -0.860085 0.676499 -2.376804
v -0.783710 0.667241 -2.624443
v -1.468770 0.648726 -2.524925
v -1.584489 0.681127 -2.399948
v -1.734925 0.685756 -2.106020
v -1.688637 0.653355 -1.758862
v -1.804357 0.695014 -2.404576
v -1.933962 0.667241 -1.846809
v -1.915447 0.667241 -2.029645
v -0.876287 0.519121 -3.133609
v -1.035979 0.519120 -2.969287
v -0.876287 0.519120 -2.837367
v -0.876287 0.519121 -3.429851
v -1.082267 0.519121 -3.452995
v -1.265104 0.519121 -3.163696
v -1.029037 0.528378 -2.629072
v -0.876287 0.519120 -2.689246
v -0.783710 0.519120 -2.624444
v -0.769825 0.519120 -2.689246
v -0.769825 0.815362 -2.689246
v -0.876287 0.815362 -2.689246
v -0.876287 0.815362 -2.837367
v -0.876287 0.815363 -3.429851
v -1.475713 0.519121 -3.369677
v -0.267602 1.588369 -2.904485
v -0.473582 1.500422 -2.911427
v -0.769825 1.468021 -3.402078
v -0.473582 1.514309 -3.429851
v -0.769825 1.468020 -3.133609
v -0.473582 1.500422 -3.140552
v -0.769825 1.468020 -2.865140
v -0.802226 1.449504 -2.487894
v -0.274546 1.560596 -3.429851
v -0.272231 1.542081 -3.253957
v -0.269917 1.565225 -3.078064
v -0.272231 1.685573 -3.290987
v -0.272231 1.861467 -3.328018
v -0.274546 1.805922 -3.455309
v -0.272231 1.662429 -3.353476
v -0.274546 1.611513 -3.402078
v -0.267602 1.713346 -2.957715
v -0.269917 1.616141 -3.105836
v -0.269917 1.810550 -3.059548
v -0.269917 1.662428 -3.156753
v -0.249087 1.912384 -3.496968
v -0.237515 1.634656 -2.802651
v -0.239829 1.755005 -2.853568
v -0.242144 1.921641 -3.022518
v -0.244458 1.967929 -3.140552
v -0.269917 1.866095 -3.189154
v -0.246773 1.963300 -3.376620
v -0.272231 1.690202 -3.221556
v -0.529128 0.556152 -3.517798
v -0.517556 0.639470 -3.508540
v -0.436552 0.556152 -3.529370
v -0.422667 0.639470 -3.520112
v -0.508299 0.556152 -3.487711
v -0.496727 0.639470 -3.478453
v -0.575416 0.815363 -3.397449
v -0.621704 0.519121 -3.429851
v -0.769825 1.259726 -3.462252
v -0.876287 1.259726 -3.462252
v -0.876287 1.259725 -2.807280
v -0.769825 1.259725 -2.807280
v -0.769825 0.519121 -3.429851
v -0.769825 0.519121 -3.147496
v -0.769825 0.519120 -2.837367
v -0.876287 1.111604 -2.927629
v -0.876287 1.111604 -3.133609
v -0.769825 1.111604 -3.133609
v -0.769825 1.111604 -2.927629
v -0.769825 1.111605 -3.341904
v -0.876287 1.111605 -3.341904
v -0.769825 0.815363 -3.429851
v -0.526814 1.111604 -2.899856
v -0.621704 1.111604 -2.927629
v -0.621704 1.111604 -3.133609
v -0.526814 1.111604 -3.131295
v -0.621704 1.111605 -3.341904
v -0.526814 1.111605 -3.365048
v -0.621704 0.815363 -3.429851
v -0.325461 0.519120 -2.837367
v -0.325461 0.519120 -2.668417
v -0.325461 0.519121 -3.147496
v -0.325461 0.519121 -3.429851
v -0.621704 0.519121 -3.147496
v -0.621704 0.519120 -2.837367
v -0.325461 0.519120 -2.552697
v -0.295375 1.111605 -3.494654
v -0.295375 1.222695 -3.288673
v -0.295375 1.222695 -2.987803
v -0.295375 1.111604 -2.765621
v -1.915447 0.741303 -3.397449
v -1.931648 0.963484 -3.411336
v -0.876287 1.259725 -3.133609
v -0.769825 0.815362 -2.837367
v -0.621704 0.815362 -2.837367
v -0.575416 0.815362 -2.867454
v -0.311576 0.815362 -2.656845
v -0.311576 0.815362 -2.714705
v -1.167899 1.495792 -2.025017
v -0.839256 1.468020 -1.923183
v -1.390080 1.407846 -1.800521
v -1.167899 1.495792 -1.846809
vt 0.500000 0.750000
vt 0.562500 0.625000
vt 0.500000 0.625000
vt 0.500000 0.625000
vt 0.562500 0.750000
vt 0.562500 0.625000
vt 0.750000 0.750000
vt 0.812500 0.875000
vt 0.812500 0.750000
vt 0.500000 0.500000
vt 0.562500 0.625000
vt 0.562500 0.500000
vt 0.500000 0.625000
vt 0.562500 0.500000
vt 0.500000 0.500000
vt 0.500000 0.625000
vt 0.562500 0.500000
vt 0.500000 0.500000
vt 0.500000 0.625000
vt 0.562500 0.500000
vt 0.500000 0.500000
vt 0.437500 0.500000
vt 0.500000 0.625000
vt 0.500000 0.500000
vt 0.500000 0.625000
vt 0.562500 0.500000
vt 0.500000 0.500000
vt 0.437500 0.500000
vt 0.375000 0.500000
vt 0.437500 0.625000
vt 0.375000 0.625000
vt 0.312500 0.500000
vt 0.312500 0.625000
vt 0.250000 0.500000
vt 0.250000 0.625000
vt 0.500000 0.500000
vt 0.562500 0.625000
vt 0.500000 0.625000
vt 0.500000 0.500000
vt 0.562500 0.625000
vt 0.562500 0.500000
vt 0.437500 0.625000
vt 0.500000 0.500000
vt 0.437500 0.500000
vt 0.500000 0.625000
vt 0.562500 0.625000
vt 0.500000 0.500000
vt 0.562500 0.625000
vt 0.500000 0.625000
vt 0.437500 0.500000
vt 0.500000 0.625000
vt 0.500000 0.500000
vt 0.500000 0.625000
vt 0.562500 0.625000
vt 0.500000 0.500000
vt 0.500000 0.625000
vt 0.562500 0.625000
vt 0.500000 0.500000
vt 0.500000 0.625000
vt 0.562500 0.500000
vt 0.500000 0.500000
vt 0.562500 0.500000
vt 0.437500 0.500000
vt 0.500000 0.625000
vt 0.500000 0.500000
vt 0.750000 0.750000
vt 0.812500 0.875000
vt 0.812500 0.750000
vt 0.437500 0.500000
vt 0.500000 0.625000
vt 0.500000 0.500000
vt 0.437500 0.625000
vt 0.500000 0.500000
vt 0.437500 0.500000
vt 0.437500 0.625000
vt 0.500000 0.500000
vt 0.437500 0.500000
vt 0.500000 0.625000
vt 0.562500 0.500000
vt 0.500000 0.500000
vt 0.875000 0.625000
vt 0.937500 0.750000
vt 0.875000 0.750000
vt 0.812500 0.625000
vt 0.875000 0.750000
vt 0.875000 0.625000
vt 0.125000 0.500000
vt 0.187500 0.625000
vt 0.187500 0.500000
vt 0.500000 0.625000
vt 0.562500 0.750000
vt 0.562500 0.625000
vt 0.500000 0.625000
vt 0.562500 0.750000
vt 0.562500 0.625000
vt 0.500000 0.750000
vt 0.500000 0.625000
vt 0.500000 0.625000
vt 0.562500 0.625000
vt 0.500000 0.500000
vt 0.500000 0.625000
vt 0.562500 0.625000
vt 0.500000 0.500000
vt 0.562500 0.500000
vt 0.500000 0.500000
vt 0.500000 0.625000
vt 0.562500 0.500000
vt 0.500000 0.625000
vt 0.562500 0.500000
vt 0.500000 0.500000
vt 0.500000 0.625000
vt 0.562500 0.625000
vt 0.375000 0.625000
vt 0.437500 0.500000
vt 0.375000 0.500000
vt 0.625000 0.875000
vt 0.687500 0.750000
vt 0.625000 0.750000
vt 0.437500 0.875000
vt 0.500000 0.750000
vt 0.437500 0.750000
vt 0.500000 0.500000
vt 0.562500 0.625000
vt 0.562500 0.500000
vt 0.437500 0.625000
vt 0.437500 0.500000
vt 0.562500 0.750000
vt 0.500000 0.750000
vt 0.562500 0.750000
vt 0.562500 0.625000
vt 0.500000 0.625000
vt 0.562500 0.500000
vt 0.500000 0.500000
vt 0.437500 0.625000
vt 0.500000 0.500000
vt 0.437500 0.500000
vt 0.437500 0.625000
vt 0.500000 0.500000
vt 0.437500 0.500000
vt 0.437500 0.625000
vt 0.500000 0.500000
vt 0.437500 0.500000
vt 0.500000 0.625000
vt 0.562500 0.625000
vt 0.500000 0.500000
vt 0.500000 0.625000
vt 0.562500 0.500000
vt 0.437500 0.500000
vt 0.500000 0.625000
vt 0.500000 0.500000
vt 0.625000 0.875000
vt 0.687500 0.750000
vt 0.625000 0.750000
vt 0.625000 0.750000
vt 0.687500 0.875000
vt 0.687500 0.750000
vt 0.625000 0.750000
vt 0.687500 0.875000
vt 0.687500 0.750000
vt 0.625000 0.750000
vt 0.687500 0.875000
vt 0.687500 0.750000
vt 0.625000 0.875000
vt 0.687500 0.750000
vt 0.625000 0.750000
vt 0.625000 0.750000
vt 0.687500 0.875000
vt 0.687500 0.750000
vt 0.625000 0.875000
vt 0.687500 0.750000
vt 0.625000 0.750000
vt 0.312500 0.875000
vt 0.375000 0.875000
vt 0.312500 0.750000
vt 0.312500 0.875000
vt 0.312500 0.750000
vt 0.312500 0.875000
vt 0.312500 0.750000
vt 0.312500 0.875000
vt 0.312500 0.750000
vt 0.312500 0.875000
vt 0.312500 0.750000
vt 0.312500 0.875000
vt 0.312500 0.750000
vt 0.312500 0.875000
vt 0.312500 0.750000
vt 0.625000 0.750000
vt 0.687500 0.875000
vt 0.687500 0.750000
vt 0.625000 0.875000
vt 0.687500 0.750000
vt 0.625000 0.750000
vt 0.625000 0.750000
vt 0.687500 0.875000
vt 0.625000 0.875000
vt 0.562500 0.500000
vt 0.500000 0.500000
vt 0.562500 0.625000
vt 0.562500 0.500000
vt 0.500000 0.500000
vt 0.562500 0.625000
vt 0.000000 0.875000
vt 0.062500 0.750000
vt 0.000000 0.750000
vt 0.812500 1.000000
vt 0.875000 0.875000
vt 0.812500 0.875000
vt 0.500000 0.625000
vt 0.500000 0.500000
vt 0.437500 1.000000
vt 0.500000 0.875000
vt 0.437500 0.875000
vt 0.437500 1.000000
vt 0.500000 0.875000
vt 0.437500 0.875000
vt 0.437500 1.000000
vt 0.500000 0.875000
vt 0.437500 0.875000
vt 0.437500 1.000000
vt 0.500000 0.875000
vt 0.437500 0.875000
vt 0.625000 0.875000
vt 0.687500 0.750000
vt 0.625000 0.750000
vt 0.312500 0.500000
vt 0.375000 0.625000
vt 0.375000 0.500000
vt 0.625000 0.875000
vt 0.687500 0.750000
vt 0.625000 0.750000
vt 0.625000 0.750000
vt 0.687500 0.875000
vt 0.687500 0.750000
vt 0.625000 0.875000
vt 0.687500 0.750000
vt 0.625000 0.750000
vt 0.625000 0.875000
vt 0.687500 0.750000
vt 0.625000 0.750000
vt 0.625000 0.875000
vt 0.687500 0.875000
vt 0.625000 0.750000
vt 0.687500 0.750000
vt 0.687500 0.750000
vt 0.625000 0.875000
vt 0.687500 0.750000
vt 0.625000 0.750000
vt 0.625000 0.875000
vt 0.687500 0.750000
vt 0.625000 0.750000
vt 0.625000 0.875000
vt 0.687500 0.750000
vt 0.625000 0.750000
vt 0.625000 0.875000
vt 0.687500 0.750000
vt 0.625000 0.750000
vt 0.625000 0.875000
vt 0.625000 0.750000
vt 0.687500 0.875000
vt 0.625000 0.750000
vt 0.687500 0.875000
vt 0.625000 0.875000
vt 0.625000 0.750000
vt 0.687500 0.875000
vt 0.625000 0.875000
vt 0.687500 0.875000
vt 0.625000 0.875000
vt 0.687500 0.875000
vt 0.625000 0.875000
vt 0.625000 0.875000
vt 0.437500 0.625000
vt 0.500000 0.500000
vt 0.375000 0.625000
vt 0.437500 0.500000
vt 0.375000 0.500000
vt 0.812500 0.875000
vt 0.812500 0.750000
vt 0.750000 0.875000
vt 0.562500 0.625000
vt 0.500000 0.625000
vt 0.437500 1.000000
vt 0.500000 0.875000
vt 0.437500 0.875000
vt 0.437500 1.000000
vt 0.500000 0.875000
vt 0.437500 0.875000
vt 0.625000 0.750000
vt 0.687500 0.875000
vt 0.687500 0.750000
vt 0.625000 0.875000
vt 0.687500 0.750000
vt 0.625000 0.750000
vt 0.625000 0.750000
vt 0.687500 0.875000
vt 0.687500 0.750000
vt 0.687500 0.750000
vt 0.625000 0.750000
vt 0.625000 0.875000
vt 0.687500 0.875000
vt 0.625000 0.875000
vt 0.687500 0.750000
vt 0.625000 0.750000
vt 0.750000 1.000000
vt 0.812500 1.000000
vt 0.750000 0.875000
vt 0.812500 1.000000
vt 0.812500 0.875000
vt 0.437500 0.875000
vt 0.500000 0.750000
vt 0.437500 0.750000
vt 0.625000 0.875000
vt 0.625000 0.750000
vt 0.437500 0.500000
vt 0.375000 0.625000
vt 0.375000 0.500000
vt 0.500000 0.625000
vt 0.500000 0.500000
vt 0.437500 0.625000
vt 0.500000 0.625000
vt 0.562500 0.625000
vt 0.500000 0.500000
vt 0.437500 0.625000
vt 0.500000 0.625000
vt 0.437500 0.500000
vt 0.562500 0.750000
vt 0.500000 0.750000
vt 0.750000 0.875000
vt 0.500000 0.625000
vt 0.562500 0.625000
vt 0.562500 0.625000
vt 0.437500 0.625000
vt 0.562500 0.625000
vt 0.500000 0.625000
vt 0.437500 0.625000
vt 0.562500 0.625000
vt 0.500000 0.625000
vt 0.437500 0.625000
vt 0.750000 0.875000
vt 0.437500 0.625000
vt 0.500000 0.625000
vt 0.500000 0.625000
vt 0.562500 0.625000
vt 0.937500 0.625000
vt 0.812500 0.750000
vt 0.125000 0.625000
vt 0.500000 0.750000
vt 0.500000 0.750000
vt 0.562500 0.625000
vt 0.562500 0.625000
vt 0.437500 0.625000
vt 0.687500 0.875000
vt 0.500000 0.875000
vt 0.500000 0.625000
vt 0.562500 0.625000
vt 0.500000 0.625000
vt 0.437500 0.625000
vt 0.687500 0.875000
vt 0.625000 0.875000
vt 0.625000 0.875000
vt 0.625000 0.875000
vt 0.687500 0.875000
vt 0.625000 0.875000
vt 0.687500 0.875000
vt 0.625000 0.875000
vt 0.062500 0.875000
vt 0.875000 1.000000
vt 0.437500 0.625000
vt 0.500000 1.000000
vt 0.500000 1.000000
vt 0.500000 1.000000
vt 0.500000 1.000000
vt 0.687500 0.875000
vt 0.312500 0.625000
vt 0.687500 0.875000
vt 0.625000 0.875000
vt 0.687500 0.875000
vt 0.687500 0.875000
vt 0.687500 0.875000
vt 0.687500 0.875000
vt 0.500000 0.625000
vt 0.437500 0.625000
vt 0.562500 0.500000
vt 0.500000 1.000000
vt 0.500000 1.000000
vt 0.625000 0.875000
vt 0.687500 0.875000
vt 0.625000 0.875000
vt 0.687500 0.875000
vt 0.687500 0.875000
vt 0.750000 1.000000
vt 0.500000 0.875000
vt 0.437500 0.625000
vn 0.1670 -0.0558 0.9843
vn 0.0328 0.7378 0.6742
vn 0.1534 0.7039 0.6935
vn -0.0843 0.6830 0.7255
vn -0.0171 0.6413 0.7671
vn 0.1169 0.8080 -0.5774
vn -0.5313 0.6711 -0.5170
vn -0.3297 0.1776 -0.9272
vn -0.0331 0.9977 -0.0600
vn -0.0297 0.9937 -0.1083
vn -0.6402 0.6989 -0.3188
vn -0.0479 0.9987 0.0122
vn -0.9154 0.3804 0.1314
vn -0.0592 0.9982 -0.0087
vn -0.0267 0.9979 -0.0591
vn -0.9687 0.0038 -0.2480
vn -0.9111 0.0001 -0.4121
vn -0.7916 -0.0049 -0.6110
vn -0.7187 0.0001 -0.6953
vn -0.1019 0.9933 0.0541
vn -0.2147 0.9560 0.2001
vn -0.2105 0.9727 0.0980
vn -0.4130 0.8099 -0.4164
vn -0.0475 0.9986 -0.0240
vn -0.0426 0.9971 -0.0628
vn -0.1241 0.9922 -0.0106
vn 0.0456 0.8231 -0.5661
vn -0.2727 0.7058 -0.6538
vn 0.0915 0.9955 -0.0225
vn 0.0134 0.9993 -0.0350
vn -0.3255 0.9114 -0.2518
vn -0.6128 0.6462 -0.4548
vn -0.0791 0.7173 -0.6923
vn -0.0070 0.9949 -0.1007
vn 0.0618 0.7606 -0.6463
vn 0.0378 0.9990 0.0237
vn 0.0320 0.9940 0.1044
vn -0.6803 0.6470 -0.3442
vn -0.4202 0.7395 -0.5258
vn -0.1111 0.8459 -0.5215
vn 0.0198 0.9966 0.0795
vn 0.0000 0.9981 0.0613
vn -0.0156 0.9978 0.0642
vn 0.0545 0.9985 0.0055
vn -0.8486 0.2293 -0.4767
vn -0.0908 0.8888 -0.4492
vn 0.0000 1.0000 0.0000
vn 0.0167 0.9997 -0.0167
vn -0.2875 0.9059 -0.3107
vn 0.0000 0.9005 0.4348
vn -0.0003 0.9999 -0.0136
vn 0.0996 0.7331 -0.6727
vn -0.4975 0.5909 -0.6351
vn -0.2681 0.9205 0.2842
vn -0.6405 0.5670 0.5178
vn -0.8051 0.0894 0.5863
vn -0.6791 0.0950 0.7279
vn -0.2418 0.9702 -0.0143
vn -0.0721 0.5626 0.8235
vn -0.8325 0.5523 0.0434
vn -0.1864 0.9825 -0.0010
vn -0.5718 0.8108 -0.1245
vn -0.5676 0.8233 0.0000
vn -0.6157 0.7849 0.0688
vn -0.6099 0.4709 0.6374
vn -0.7580 0.6521 0.0108
vn -0.8094 0.5856 -0.0443
vn -0.1754 0.9826 0.0609
vn -0.9969 0.0768 -0.0169
vn -0.9999 0.0063 0.0114
vn -1.0000 0.0000 0.0000
vn -0.9953 0.0347 0.0903
vn -0.9999 0.0049 0.0103
vn -0.9964 0.0750 0.0401
vn -0.9998 -0.0039 0.0169
vn -0.9684 0.0904 0.2325
vn -0.9740 0.2062 0.0936
vn -0.9958 0.0817 0.0411
vn -0.9756 0.2075 -0.0711
vn -0.9937 0.1080 -0.0291
vn -0.9999 -0.0020 0.0143
vn -0.9998 0.0053 0.0181
vn -0.7104 0.6989 0.0829
vn 0.8211 -0.0509 -0.5684
vn 0.9510 -0.1614 0.2636
vn 0.8211 -0.0509 -0.5685
vn 0.1198 0.7247 0.6786
vn 0.8560 -0.1773 0.4855
vn -0.3640 -0.1488 0.9194
vn 0.0000 0.2775 -0.9607
vn -0.8265 0.3644 -0.4289
vn -0.7204 0.3121 0.6193
vn -0.7468 0.1868 0.6381
vn 0.0000 0.7071 0.7071
vn 0.0000 0.7071 -0.7071
vn -0.7071 -0.7071 0.0000
vn 0.0000 -0.8036 -0.5952
vn -0.8682 -0.3988 -0.2954
vn 0.0000 -1.0000 0.0000
vn -0.6668 -0.5972 0.4457
vn 0.0000 -0.8014 0.5981
vn 0.0000 -0.1438 0.9896
vn 0.0562 -0.8129 -0.5797
vn 0.2219 -0.9751 0.0000
vn 0.3761 -0.7040 -0.6024
vn 0.0438 -0.8062 0.5900
vn 0.2769 -0.8527 0.4429
vn -0.2910 -0.1346 0.9472
vn 0.1364 0.7445 -0.6535
vn 0.8554 0.2506 -0.4533
vn 0.3781 -0.9088 0.1762
vn 0.2569 -0.8506 0.4588
vn 0.3768 -0.9122 -0.1608
vn 0.4901 -0.4870 -0.7229
vn -0.9722 0.2340 0.0000
vn -0.7418 -0.0988 -0.6633
vn 0.0000 -0.1473 -0.9891
vn 0.0112 -0.1740 -0.9847
vn -0.2751 -0.1387 -0.9513
vn 0.8621 -0.1245 -0.4911
vn 0.9987 -0.0498 0.0000
vn 0.2879 0.1199 -0.9501
vn -0.7334 0.3142 -0.6028
vn -0.2009 0.5722 -0.7951
vn -0.1770 0.9842 0.0000
vn 0.0148 0.9978 -0.0645
vn 0.0618 0.7648 -0.6413
vn -0.9654 0.0856 0.2463
vn -0.9755 0.1977 0.0967
vn -0.9751 0.2102 -0.0702
vn 0.9989 -0.0468 0.0000
usemtl Material__25
s 1
f 2/1/1 4/2/2 1/3/3
f 4/4/2 5/5/4 6/6/5
f 7/7/6 9/8/7 10/9/8
f 7/10/6 12/11/9 8/12/10
f 8/13/10 14/14/11 9/15/7
f 12/16/9 13/17/12 8/18/10
f 13/19/12 17/20/13 14/21/11
f 15/22/14 6/23/5 13/24/12
f 16/25/15 4/26/2 15/27/14
f 18/28/16 19/29/17 17/30/13
f 14/31/11 17/30/13 19/29/17
f 19/29/17 20/32/18 14/31/11
f 9/33/7 14/31/11 20/32/18
f 20/32/18 21/34/19 9/33/7
f 10/35/8 9/33/7 21/34/19
f 24/36/20 25/37/21 26/38/22
f 27/39/23 29/40/24 23/41/25
f 29/42/24 22/43/26 23/44/25
f 27/45/23 30/46/27 31/47/28
f 24/36/20 26/48/22 22/49/26
f 30/50/27 23/51/25 32/52/29
f 33/53/30 34/54/31 35/55/32
f 36/56/33 37/57/34 38/58/35
f 34/59/31 40/60/36 39/61/37
f 35/55/32 37/57/34 33/62/30
f 41/63/38 38/64/35 37/65/34
f 43/66/39 37/67/34 36/68/33
f 33/69/30 44/70/40 40/71/36
f 40/72/36 46/73/41 39/74/37
f 44/75/40 45/76/42 40/77/36
f 46/78/41 49/79/43 48/80/44
f 35/81/32 21/82/19 20/83/18
f 35/84/32 19/85/17 41/86/38
f 41/87/38 18/88/16 42/89/45
f 30/90/27 44/91/40 31/92/28
f 31/93/28 43/94/39 27/95/23
f 27/95/23 36/96/33 28/97/46
f 50/98/47 51/99/48 52/100/49
f 53/101/50 54/102/47 50/103/47
f 50/98/47 55/104/51 51/105/48
f 56/106/52 52/107/49 51/105/48
f 58/108/53 57/109/54 56/110/52
f 51/111/48 28/112/46 56/110/52
f 42/113/45 59/114/55 58/115/53
f 60/116/56 57/117/54 59/118/55
f 61/119/57 52/120/49 57/121/54
f 28/122/46 55/123/51 29/124/24
f 55/125/51 24/36/20 29/126/24
f 56/106/52 36/127/33 38/128/35
f 56/106/52 42/129/45 58/130/53
f 66/131/58 3/132/59 65/133/60
f 70/134/61 67/135/62 69/136/63
f 66/137/58 69/138/63 71/139/64
f 5/140/4 71/141/64 72/142/65
f 74/143/66 70/144/61 75/145/67
f 75/146/67 66/147/58 65/133/60
f 74/148/66 68/149/68 70/150/61
f 77/151/69 79/152/70 76/153/71
f 75/154/67 81/155/72 82/156/73
f 82/157/73 83/158/74 84/159/75
f 65/160/60 87/161/76 81/162/72
f 88/163/77 90/164/78 83/165/74
f 77/166/69 85/167/79 78/168/80
f 83/169/74 92/170/81 84/171/75
f 82/172/73 74/173/66 75/174/67
f 79/175/70 74/173/66 76/176/71
f 92/177/81 74/173/66 84/178/75
f 76/179/71 74/173/66 92/180/81
f 80/181/82 74/173/66 79/182/70
f 73/183/83 74/173/66 80/184/82
f 84/185/75 74/173/66 82/186/73
f 92/187/81 77/188/69 76/189/71
f 94/190/84 97/191/85 93/192/86
f 100/193/87 98/194/88 99/195/89
f 101/196/90 102/197/91 67/198/62
f 103/199/92 104/200/93 71/201/64
f 53/202/50 106/203/47 105/204/94
f 50/205/47 107/206/95 106/207/47
f 72/142/65 104/208/93 17/209/13
f 109/210/96 111/211/97 108/212/98
f 110/213/99 113/214/100 112/215/101
f 112/216/101 63/217/102 114/218/102
f 114/219/102 53/220/50 105/221/94
f 104/222/93 61/223/57 60/224/56
f 6/225/5 72/226/65 17/227/13
f 116/228/103 118/229/104 115/230/105
f 118/231/104 119/232/106 120/233/107
f 111/234/97 117/235/99 116/236/103
f 110/237/99 119/238/106 117/239/99
f 121/240/108 100/241/87 99/242/89
f 99/242/89 119/232/106 121/243/108
f 121/240/108 105/244/94 100/193/87
f 119/245/106 114/246/102 121/247/108
f 125/248/47 126/249/47 124/250/47
f 124/251/47 127/252/109 122/253/47
f 127/254/109 106/255/47 107/256/95
f 126/257/47 105/244/94 106/258/47
f 127/254/109 123/259/110 122/253/47
f 130/260/111 120/261/107 129/262/112
f 131/263/113 118/264/104 130/265/111
f 131/263/113 115/266/105 118/267/104
f 131/263/113 132/268/114 115/269/105
f 130/260/111 118/264/104 120/270/107
f 67/271/62 135/272/115 69/136/63
f 71/273/64 135/274/115 103/275/92
f 18/276/16 60/277/56 42/278/45
f 17/209/13 60/279/56 18/280/16
f 62/281/116 107/282/95 52/283/49
f 108/284/98 136/285/117 62/286/116
f 61/287/57 108/288/98 62/289/116
f 135/290/115 108/291/98 103/292/92
f 135/293/115 113/294/100 109/295/96
f 116/228/103 138/296/118 137/297/119
f 138/298/118 127/299/109 137/297/119
f 136/300/117 127/252/109 107/256/95
f 111/234/97 137/301/119 136/302/117
f 140/303/120 132/304/114 139/305/121
f 139/305/121 123/306/110 140/307/120
f 140/308/120 115/309/105 132/310/114
f 123/311/110 138/296/118 140/312/120
f 10/313/8 142/314/122 7/315/6
f 143/316/123 141/317/124 10/318/8
f 142/319/122 141/320/124 144/321/125
f 144/322/125 141/323/124 143/324/123
f 2/1/1 3/325/59 4/2/2
f 4/4/2 3/326/59 5/5/4
f 7/7/6 8/327/10 9/8/7
f 7/10/6 11/328/126 12/11/9
f 8/13/10 13/329/12 14/14/11
f 12/16/9 15/330/14 13/17/12
f 13/19/12 6/6/5 17/20/13
f 15/22/14 4/331/2 6/23/5
f 16/25/15 1/332/3 4/26/2
f 27/39/23 28/97/46 29/40/24
f 29/42/24 24/333/20 22/43/26
f 30/50/27 27/334/23 23/51/25
f 34/59/31 33/335/30 40/60/36
f 35/55/32 41/336/38 37/57/34
f 41/63/38 42/337/45 38/64/35
f 43/66/39 33/338/30 37/67/34
f 33/69/30 43/339/39 44/70/40
f 40/72/36 45/340/42 46/73/41
f 44/75/40 47/341/127 45/76/42
f 46/78/41 45/342/42 49/79/43
f 35/81/32 34/343/31 21/82/19
f 35/84/32 20/344/18 19/85/17
f 41/87/38 19/345/17 18/88/16
f 30/90/27 47/346/127 44/91/40
f 31/93/28 44/347/40 43/94/39
f 27/95/23 43/94/39 36/96/33
f 50/98/47 54/102/47 55/104/51
f 56/106/52 57/348/54 52/107/49
f 58/108/53 59/349/55 57/109/54
f 42/113/45 60/350/56 59/114/55
f 60/116/56 61/351/57 57/117/54
f 61/119/57 62/352/116 52/120/49
f 28/122/46 51/111/48 55/123/51
f 55/125/51 64/353/47 24/36/20
f 56/106/52 28/112/46 36/127/33
f 56/106/52 38/128/35 42/129/45
f 66/131/58 5/354/4 3/132/59
f 70/134/61 68/149/68 67/135/62
f 66/137/58 70/355/61 69/138/63
f 5/140/4 66/131/58 71/141/64
f 75/146/67 70/144/61 66/147/58
f 74/148/66 73/356/83 68/149/68
f 77/151/69 78/357/80 79/152/70
f 75/154/67 65/358/60 81/155/72
f 82/157/73 81/359/72 83/158/74
f 65/160/60 86/360/128 87/161/76
f 88/163/77 89/361/129 90/164/78
f 77/166/69 91/362/130 85/167/79
f 83/169/74 90/363/78 92/170/81
f 92/187/81 90/364/78 77/188/69
f 94/190/84 98/194/88 97/191/85
f 100/193/87 97/191/85 98/194/88
f 53/202/50 50/365/47 106/203/47
f 50/205/47 52/366/49 107/206/95
f 72/142/65 71/367/64 104/208/93
f 109/210/96 110/368/99 111/211/97
f 110/213/99 109/369/96 113/214/100
f 112/216/101 113/370/100 63/217/102
f 114/219/102 63/371/102 53/220/50
f 104/222/93 103/372/92 61/223/57
f 6/225/5 5/373/4 72/226/65
f 116/228/103 117/374/99 118/229/104
f 118/231/104 117/375/99 119/232/106
f 111/234/97 110/376/99 117/235/99
f 110/237/99 112/377/101 119/238/106
f 99/242/89 120/270/107 119/232/106
f 121/240/108 114/378/102 105/244/94
f 119/245/106 112/377/101 114/246/102
f 125/248/47 100/241/87 126/249/47
f 124/251/47 126/379/47 127/252/109
f 127/254/109 126/379/47 106/255/47
f 126/257/47 100/241/87 105/244/94
f 67/271/62 102/380/91 135/272/115
f 71/273/64 69/381/63 135/274/115
f 17/209/13 104/382/93 60/279/56
f 62/281/116 136/383/117 107/282/95
f 108/284/98 111/384/97 136/285/117
f 61/287/57 103/385/92 108/288/98
f 135/290/115 109/386/96 108/291/98
f 135/293/115 102/387/91 113/294/100
f 116/228/103 115/266/105 138/296/118
f 136/300/117 137/388/119 127/252/109
f 111/234/97 116/389/103 137/301/119
f 139/305/121 128/390/131 123/306/110
f 140/308/120 138/391/118 115/309/105
f 123/311/110 127/299/109 138/296/118
f 10/313/8 141/392/124 142/314/122
l 96 98
l 95 97
l 95 96
l 133 134
l 25 133
