# Blender v2.79 (sub 0) OBJ File: ''
# www.blender.org
mtllib hurricos.055.mtl
o hurricos.055_tex_72.272
v -4.935725 1.111603 -0.381800
v -4.935725 1.259724 -0.381800
v -4.674199 1.111603 -0.117960
v -4.671885 1.259724 -0.117960
v -4.414988 1.111603 -0.372543
v -4.414988 1.407845 -0.372543
v -4.414988 0.815362 -0.372543
v -4.674199 0.815362 -0.117960
v -4.414988 0.519120 -0.372543
v -4.674199 0.519120 -0.117960
v -4.417302 0.227507 -0.372543
v -4.674199 0.375628 -0.117960
v -4.935725 0.519120 -0.381800
v -4.935725 0.370999 -0.381800
v -4.935725 0.815362 -0.381800
vt 0.312500 0.750000
vt 0.375000 0.875000
vt 0.375000 0.750000
vt 0.375000 0.875000
vt 0.437500 1.000000
vt 0.437500 0.875000
vt 0.375000 1.000000
vt 0.437500 0.875000
vt 0.375000 0.875000
vt 0.375000 1.000000
vt 0.437500 0.875000
vt 0.375000 0.875000
vt 0.375000 1.000000
vt 0.437500 0.875000
vt 0.375000 0.875000
vt 0.312500 0.750000
vt 0.375000 0.875000
vt 0.375000 0.750000
vt 0.312500 0.875000
vt 0.375000 0.750000
vt 0.312500 0.750000
vt 0.312500 0.875000
vt 0.375000 0.750000
vt 0.312500 0.750000
vt 0.312500 0.875000
vt 0.375000 1.000000
vt 0.437500 1.000000
vt 0.437500 1.000000
vt 0.437500 1.000000
vt 0.312500 0.875000
vt 0.375000 0.875000
vt 0.375000 0.875000
vn -0.0094 -0.0008 0.9999
vn -0.7094 0.0027 0.7047
vn -0.7102 0.0000 0.7040
vn 0.7019 -0.0013 0.7122
vn 0.1112 0.0016 0.9938
vn -0.0067 0.0000 1.0000
vn 0.7007 0.0000 0.7134
vn 0.7013 -0.0021 0.7129
vn 0.0990 -0.0017 0.9951
vn 0.7023 -0.0056 0.7119
vn 0.7039 0.0000 0.7103
usemtl Material__25
s 1
f 3/1/1 2/2/2 1/3/3
f 5/4/4 4/5/5 3/6/1
f 5/7/4 8/8/6 7/9/7
f 7/10/7 10/11/6 9/12/8
f 9/13/8 12/14/9 11/15/10
f 12/16/9 13/17/3 14/18/3
f 3/19/1 15/20/3 8/21/6
f 8/22/6 13/23/3 10/24/6
f 3/1/1 4/25/5 2/2/2
f 5/4/4 6/26/11 4/5/5
f 5/7/4 3/27/1 8/8/6
f 7/10/7 8/28/6 10/11/6
f 9/13/8 10/29/6 12/14/9
f 12/16/9 10/30/6 13/17/3
f 3/19/1 1/31/3 15/20/3
f 8/22/6 15/32/3 13/23/3
