# Blender v2.79 (sub 0) OBJ File: ''
# www.blender.org
mtllib hurricos.117.mtl
o hurricos.117_tex_72.334
v -5.393974 1.111605 -3.420593
v -5.398603 0.815363 -3.413650
v -5.458777 1.407847 -3.432165
v -5.398603 0.815363 -3.654347
v -5.396288 1.111605 -3.661290
v -5.461092 1.407847 -3.649718
v -5.185679 1.111605 -3.670547
v -5.185679 0.815363 -3.670547
v -5.185679 1.407847 -3.670547
v -5.340743 1.111605 -4.036221
v -5.340743 0.815363 -4.036221
v -5.340743 1.407847 -4.036221
v -5.491179 1.111605 -3.885786
v -5.491179 0.815363 -3.876528
v -5.546724 1.407847 -3.848755
v -5.660129 0.815363 -4.047793
v -5.664758 1.111605 -4.054736
v -5.701788 1.407847 -4.001505
v -5.521266 1.111605 -4.209800
v -5.521266 0.815363 -4.209800
v -5.521266 1.407847 -4.209800
v -5.882310 1.111605 -4.357921
v -5.882310 0.815363 -4.357921
v -5.882310 1.407847 -4.357921
v -5.889254 1.111605 -4.147312
v -5.882310 0.815363 -4.142683
v -5.903140 1.407847 -4.082509
v -6.125321 0.815363 -4.142683
v -6.132264 1.111605 -4.144997
v -6.118378 1.407847 -4.080194
v -6.141522 1.111605 -4.355607
v -6.141522 0.815363 -4.355607
v -6.141522 1.407847 -4.355606
v -6.502566 1.111605 -4.202857
v -6.502566 0.815363 -4.202857
v -6.502566 1.407847 -4.202857
v -6.356760 1.111605 -4.047793
v -6.347503 0.815363 -4.050107
v -6.319730 1.407847 -3.994562
v -6.518767 0.815363 -3.881157
v -6.525711 1.111605 -3.876528
v -6.470165 1.407847 -3.839498
v -6.611343 0.815363 -3.656661
v -6.615972 1.111605 -3.649718
v -6.553483 1.407847 -3.638146
v -6.613657 0.815363 -3.415965
v -6.609029 1.111605 -3.402078
v -6.518767 1.407847 -3.390506
v -5.863795 0.815363 -3.895043
v -6.160037 0.815363 -3.890414
v -5.650871 0.815363 -3.689063
v -5.646243 0.815363 -3.392821
v -6.361389 0.815363 -3.381249
v -6.366017 0.815363 -3.677491
v -6.004973 0.815363 -3.536313
v -6.129950 1.407847 -3.823297
v -5.889254 1.407847 -3.825611
v -5.717989 1.407847 -3.658975
v -5.713360 1.407847 -3.420593
v -6.291957 1.407847 -3.411336
v -6.296586 1.407847 -3.649718
v -6.004973 1.546710 -3.536313
vt 0.625000 0.750000
vt 0.687500 0.875000
vt 0.625000 0.875000
vt 0.562500 1.000000
vt 0.562500 0.875000
vt 0.687500 0.750000
vt 0.187500 0.625000
vt 0.250000 0.750000
vt 0.250000 0.625000
vt 0.125000 0.750000
vt 0.062500 0.875000
vt 0.062500 0.750000
vt 0.125000 0.875000
vt 0.187500 0.750000
vt 0.125000 0.750000
vt 0.625000 0.750000
vt 0.687500 0.875000
vt 0.687500 0.750000
vt 0.187500 0.750000
vt 0.250000 0.625000
vt 0.187500 0.625000
vt 0.625000 0.750000
vt 0.625000 0.875000
vt 0.562500 1.000000
vt 0.562500 0.875000
vt 0.687500 0.750000
vt 0.187500 0.625000
vt 0.250000 0.750000
vt 0.250000 0.625000
vt 0.125000 0.750000
vt 0.062500 0.875000
vt 0.062500 0.750000
vt 0.125000 0.875000
vt 0.187500 0.750000
vt 0.125000 0.750000
vt 0.625000 0.750000
vt 0.687500 0.875000
vt 0.687500 0.750000
vt 0.187500 0.750000
vt 0.250000 0.625000
vt 0.187500 0.625000
vt 0.625000 0.750000
vt 0.625000 0.875000
vt 0.562500 1.000000
vt 0.562500 0.875000
vt 0.812500 0.875000
vt 0.875000 0.750000
vt 0.812500 0.750000
vt 0.187500 0.625000
vt 0.250000 0.750000
vt 0.250000 0.625000
vt 0.125000 0.750000
vt 0.062500 0.875000
vt 0.062500 0.750000
vt 0.125000 0.875000
vt 0.187500 0.750000
vt 0.125000 0.750000
vt 0.625000 0.750000
vt 0.687500 0.875000
vt 0.687500 0.750000
vt 0.187500 0.750000
vt 0.250000 0.625000
vt 0.187500 0.625000
vt 0.625000 0.750000
vt 0.625000 0.875000
vt 0.562500 0.875000
vt 0.625000 1.000000
vt 0.562500 0.750000
vt 0.562500 0.875000
vt 0.187500 0.750000
vt 0.250000 0.625000
vt 0.187500 0.625000
vt 0.500000 0.750000
vt 0.500000 0.875000
vt 0.187500 0.750000
vt 0.250000 0.625000
vt 0.187500 0.625000
vt 0.062500 0.625000
vt 0.125000 0.750000
vt 0.125000 0.625000
vt 0.062500 0.750000
vt 0.125000 0.625000
vt 0.062500 0.625000
vt 0.062500 0.625000
vt 0.125000 0.750000
vt 0.125000 0.625000
vt 0.625000 0.875000
vt 0.687500 1.000000
vt 0.625000 1.000000
vt 0.625000 0.875000
vt 0.687500 1.000000
vt 0.625000 1.000000
vt 0.687500 0.875000
vt 0.625000 1.000000
vt 0.687500 0.875000
vt 0.625000 1.000000
vt 0.625000 0.875000
vt 0.625000 0.875000
vt 0.687500 1.000000
vt 0.625000 0.875000
vt 0.687500 1.000000
vt 0.625000 0.875000
vt 0.687500 1.000000
vt 0.687500 1.000000
vt 0.625000 1.000000
vt 0.625000 0.875000
vt 0.687500 1.000000
vt 0.125000 0.875000
vt 0.062500 0.750000
vt 0.125000 0.750000
vt 0.125000 0.875000
vt 0.125000 0.750000
vt 0.125000 0.875000
vt 0.125000 0.750000
vt 0.125000 0.875000
vt 0.125000 0.750000
vt 0.125000 0.875000
vt 0.125000 0.750000
vt 0.687500 0.875000
vt 0.625000 1.000000
vt 0.687500 0.875000
vt 0.625000 1.000000
vt 0.625000 0.875000
vt 0.687500 1.000000
vt 0.625000 1.000000
vt 0.187500 0.750000
vt 0.250000 0.625000
vt 0.187500 0.625000
vt 0.187500 0.750000
vt 0.250000 0.625000
vt 0.187500 0.625000
vt 0.187500 0.750000
vt 0.250000 0.625000
vt 0.187500 0.625000
vt 0.187500 0.750000
vt 0.250000 0.625000
vt 0.187500 0.625000
vt 0.250000 0.625000
vt 0.187500 0.625000
vt 0.250000 0.750000
vt 0.250000 0.750000
vt 0.187500 0.750000
vt 0.250000 0.750000
vt 0.250000 0.750000
vt 0.750000 0.875000
vt 0.812500 1.000000
vt 0.750000 1.000000
vt 0.812500 1.000000
vt 0.812500 0.875000
vt 0.750000 1.000000
vt 0.812500 0.875000
vt 0.750000 1.000000
vt 0.750000 0.875000
vt 0.750000 1.000000
vt 0.812500 1.000000
vt 0.812500 1.000000
vt 0.687500 0.750000
vt 0.625000 1.000000
vt 0.687500 0.875000
vt 0.125000 0.875000
vt 0.187500 0.875000
vt 0.625000 0.875000
vt 0.250000 0.750000
vt 0.625000 1.000000
vt 0.687500 0.875000
vt 0.125000 0.875000
vt 0.187500 0.875000
vt 0.625000 0.875000
vt 0.625000 1.000000
vt 0.875000 0.875000
vt 0.125000 0.875000
vt 0.187500 0.875000
vt 0.625000 0.875000
vt 0.562500 1.000000
vt 0.250000 0.750000
vt 0.250000 0.750000
vt 0.062500 0.750000
vt 0.125000 0.750000
vt 0.062500 0.750000
vt 0.687500 0.875000
vt 0.687500 0.875000
vt 0.687500 1.000000
vt 0.687500 1.000000
vt 0.687500 0.875000
vt 0.687500 1.000000
vt 0.687500 1.000000
vt 0.687500 0.875000
vt 0.250000 0.750000
vn -0.3315 0.8945 -0.3000
vn -0.9950 -0.0993 0.0074
vn -0.6957 -0.0667 -0.7152
vn -0.6280 -0.7781 0.0064
vn -0.7056 0.5588 -0.4357
vn -0.7055 -0.5588 -0.4358
vn -0.8457 0.0000 -0.5336
vn -0.1910 0.0000 0.9816
vn -0.1507 0.5619 0.8133
vn 0.0469 -0.0575 0.9972
vn 0.0046 0.9132 0.4074
vn -0.1703 -0.5567 0.8131
vn -0.4485 0.8935 0.0224
vn -0.9976 -0.0682 -0.0144
vn -0.0362 -0.9184 0.3941
vn -0.8079 0.5584 0.1883
vn -0.8080 -0.5587 0.1869
vn -0.9764 0.0000 0.2157
vn 0.5432 0.0000 0.8396
vn 0.4558 0.5631 0.6893
vn 0.7255 -0.0570 0.6858
vn 0.2960 0.9086 0.2945
vn 0.4416 -0.5582 0.7024
vn -0.3000 0.8945 0.3315
vn -0.7153 -0.0653 0.6957
vn 0.2533 -0.9155 0.3125
vn -0.4360 0.5588 0.7054
vn -0.4344 -0.5583 0.7067
vn -0.5340 0.0000 0.8455
vn 0.9785 0.0000 0.2065
vn 0.8102 0.5636 0.1612
vn 0.9979 -0.0584 -0.0277
vn 0.4129 0.9108 -0.0016
vn 0.8096 -0.5588 0.1796
vn 0.6160 0.6700 0.4142
vn 0.8326 -0.1050 0.5437
vn 0.5589 -0.7441 0.3661
vn 0.7259 0.6717 0.1477
vn 0.9786 -0.1043 0.1773
vn 0.6890 0.7248 -0.0048
vn 0.9899 -0.1316 -0.0519
vn 0.6682 -0.7371 0.1011
vn -0.3941 -0.9181 0.0428
vn 0.3990 -0.9162 0.0376
vn 0.0000 1.0000 0.0000
vn -0.2466 -0.9171 0.3133
vn -0.0586 -0.9875 0.1463
vn 0.0619 -0.9877 0.1432
vn -0.1446 -0.9875 0.0625
vn -0.3094 -0.9184 -0.2466
vn -0.1947 -0.9808 0.0038
vn 0.5684 -0.8189 -0.0797
vn 0.1461 -0.9876 0.0571
vn 0.1885 -0.9821 -0.0036
vn 0.0032 -0.9739 0.2268
vn -0.6777 0.7353 0.0000
usemtl Material__25
s 1
f 4/1/1 1/2/2 5/3/3
f 3/4/4 5/3/3 1/5/2
f 5/3/3 8/6/5 4/1/1
f 5/7/3 9/8/6 7/9/7
f 10/10/8 8/11/5 7/12/7
f 9/13/6 10/14/8 7/15/7
f 11/16/9 13/17/10 14/18/11
f 12/19/12 13/20/10 10/21/8
f 16/22/13 13/17/10 17/23/14
f 15/24/15 17/23/14 13/25/10
f 17/23/14 20/26/16 16/22/13
f 17/27/14 21/28/17 19/29/18
f 22/30/19 20/31/16 19/32/18
f 21/33/17 22/34/19 19/35/18
f 23/36/20 25/37/21 26/38/22
f 24/39/23 25/40/21 22/41/19
f 28/42/24 25/37/21 29/43/25
f 27/44/26 29/43/25 25/45/21
f 29/46/25 32/47/27 28/48/24
f 29/49/25 33/50/28 31/51/29
f 34/52/30 32/53/27 31/54/29
f 33/55/28 34/56/30 31/57/29
f 35/58/31 37/59/32 38/60/33
f 36/61/34 37/62/32 34/63/30
f 40/64/35 37/59/32 41/65/36
f 37/66/32 42/67/37 41/65/36
f 43/68/38 41/65/36 44/69/39
f 42/70/37 44/71/39 41/72/36
f 46/73/40 44/69/39 47/74/41
f 45/75/42 47/76/41 44/77/39
f 9/78/6 15/79/15 12/80/12
f 18/81/43 24/82/23 21/83/17
f 33/84/28 39/85/44 36/86/34
f 49/87/45 28/88/24 50/89/45
f 51/90/45 16/91/13 49/92/45
f 52/93/45 4/94/1 51/90/45
f 46/95/40 54/96/45 43/97/38
f 50/98/45 40/99/35 54/96/45
f 28/100/24 38/101/33 50/89/45
f 16/102/13 26/103/22 49/92/45
f 51/90/45 4/104/1 14/105/11
f 40/106/35 43/107/38 54/96/45
f 50/108/45 55/109/45 49/110/45
f 49/111/45 55/109/45 51/112/45
f 51/113/45 55/109/45 52/114/45
f 53/115/45 55/109/45 54/116/45
f 54/117/45 55/109/45 50/118/45
f 32/119/27 38/120/33 28/100/24
f 20/121/16 26/122/22 16/102/13
f 14/123/11 8/124/5 11/125/9
f 30/126/46 57/127/47 56/128/48
f 18/129/43 58/130/49 57/131/47
f 6/132/50 59/133/51 58/134/49
f 48/135/52 61/136/53 60/137/54
f 42/70/37 56/138/48 61/139/53
f 56/128/48 39/140/44 30/126/46
f 57/131/47 27/141/26 18/129/43
f 15/142/15 6/143/50 58/134/49
f 45/75/42 42/144/37 61/139/53
f 57/145/47 62/146/55 56/147/48
f 58/148/49 62/149/55 57/150/47
f 59/151/51 62/152/55 58/153/49
f 61/154/53 62/149/55 60/155/54
f 56/156/48 62/149/55 61/154/53
f 4/1/1 2/157/56 1/2/2
f 3/4/4 6/158/50 5/3/3
f 5/3/3 7/159/7 8/6/5
f 5/7/3 6/132/50 9/8/6
f 10/10/8 11/160/9 8/11/5
f 9/13/6 12/161/12 10/14/8
f 11/16/9 10/162/8 13/17/10
f 12/19/12 15/163/15 13/20/10
f 16/22/13 14/18/11 13/17/10
f 15/24/15 18/164/43 17/23/14
f 17/23/14 19/165/18 20/26/16
f 17/27/14 18/129/43 21/28/17
f 22/30/19 23/166/20 20/31/16
f 21/33/17 24/167/23 22/34/19
f 23/36/20 22/168/19 25/37/21
f 24/39/23 27/141/26 25/40/21
f 28/42/24 26/38/22 25/37/21
f 27/44/26 30/169/46 29/43/25
f 29/46/25 31/170/29 32/47/27
f 29/49/25 30/126/46 33/50/28
f 34/52/30 35/171/31 32/53/27
f 33/55/28 36/172/34 34/56/30
f 35/58/31 34/173/30 37/59/32
f 36/61/34 39/140/44 37/62/32
f 40/64/35 38/60/33 37/59/32
f 37/66/32 39/174/44 42/67/37
f 43/68/38 40/64/35 41/65/36
f 42/70/37 45/175/42 44/71/39
f 46/73/40 43/68/38 44/69/39
f 45/75/42 48/176/52 47/76/41
f 9/78/6 6/177/50 15/79/15
f 18/81/43 27/178/26 24/82/23
f 33/84/28 30/179/46 39/85/44
f 49/87/45 26/180/22 28/88/24
f 51/90/45 14/181/11 16/91/13
f 52/93/45 2/182/56 4/94/1
f 46/95/40 53/183/45 54/96/45
f 50/98/45 38/184/33 40/99/35
f 32/119/27 35/185/31 38/120/33
f 20/121/16 23/186/20 26/122/22
f 14/123/11 4/187/1 8/124/5
f 30/126/46 27/141/26 57/127/47
f 18/129/43 15/163/15 58/130/49
f 6/132/50 3/188/4 59/133/51
f 48/135/52 45/175/42 61/136/53
f 42/70/37 39/140/44 56/138/48
