# Blender v2.79 (sub 0) OBJ File: ''
# www.blender.org
mtllib hurricos.095.mtl
o hurricos.095_tex_72.312
v -3.799360 2.055874 -1.934755
v -3.766959 2.171594 -1.969471
v -3.762330 2.273427 -1.971785
v -3.803989 2.379889 -1.930126
v -4.035428 2.055874 -1.997244
v -4.046999 2.171594 -2.045846
v -4.046999 2.273427 -2.048160
v -4.033113 2.379889 -1.992615
v -4.206693 2.055874 -1.825979
v -4.252980 2.171594 -1.839865
v -4.257609 2.273427 -1.839865
v -4.202064 2.379889 -1.825979
vt 0.312500 0.875000
vt 0.375000 0.750000
vt 0.312500 0.750000
vt 0.312500 0.750000
vt 0.375000 0.875000
vt 0.375000 0.750000
vt 0.312500 0.875000
vt 0.375000 0.750000
vt 0.312500 0.750000
vt 0.312500 0.750000
vt 0.375000 0.875000
vt 0.375000 0.750000
vt 0.312500 0.875000
vt 0.375000 0.750000
vt 0.312500 0.750000
vt 0.312500 0.750000
vt 0.375000 0.875000
vt 0.375000 0.750000
vt 0.375000 0.875000
vt 0.312500 0.875000
vt 0.375000 0.875000
vt 0.312500 0.875000
vt 0.375000 0.875000
vt 0.312500 0.875000
vn 0.2550 -0.1789 -0.9502
vn -0.2403 -0.3941 -0.8871
vn -0.2512 -0.2013 -0.9467
vn -0.2479 0.2159 -0.9444
vn 0.2347 0.4305 -0.8715
vn -0.2250 0.4736 -0.8515
vn -0.6941 -0.1777 -0.6975
vn -0.6637 -0.3451 -0.6637
vn -0.6916 0.1806 -0.6993
vn -0.6385 0.4182 -0.6460
vn 0.2406 -0.3401 -0.9091
vn 0.2545 0.1878 -0.9486
usemtl Material__25
s 1
f 2/1/1 5/2/2 6/3/3
f 7/4/4 2/5/1 6/6/3
f 4/7/5 7/8/4 8/9/6
f 10/10/7 5/11/2 9/12/8
f 7/13/4 10/14/7 11/15/9
f 12/16/10 7/17/4 11/18/9
f 2/1/1 1/19/11 5/2/2
f 7/4/4 3/20/12 2/5/1
f 4/7/5 3/21/12 7/8/4
f 10/10/7 6/22/3 5/11/2
f 7/13/4 6/23/3 10/14/7
f 12/16/10 8/24/6 7/17/4
