# Blender v2.79 (sub 0) OBJ File: ''
# www.blender.org
mtllib hurricos.111.mtl
o hurricos.111_tex_72.328
v -0.529128 0.556152 -3.517798
v -0.457382 0.556152 -3.559457
v -0.443496 0.639470 -3.550199
v -0.517556 0.639470 -3.508540
v -0.436552 0.556152 -3.529370
v -0.422667 0.639470 -3.520112
v -0.508299 0.556152 -3.487711
v -0.496727 0.639470 -3.478453
v -0.325461 0.519121 -3.598801
v -0.311576 0.815363 -3.547885
v -0.575416 0.815363 -3.397449
v -0.621704 0.519121 -3.429851
v -0.526814 1.111605 -3.365048
v -0.325461 0.519121 -3.429851
v -0.325461 0.519121 -3.693691
v -0.311576 0.815363 -3.601116
v -0.295375 1.111605 -3.494654
vt 0.687500 0.750000
vt 0.625000 0.875000
vt 0.625000 0.750000
vt 0.687500 0.750000
vt 0.625000 0.875000
vt 0.625000 0.750000
vt 0.500000 0.875000
vt 0.562500 1.000000
vt 0.500000 1.000000
vt 0.625000 0.750000
vt 0.687500 0.875000
vt 0.687500 0.750000
vt 0.625000 0.750000
vt 0.687500 0.875000
vt 0.625000 0.875000
vt 0.625000 0.875000
vt 0.625000 0.875000
vt 0.625000 0.750000
vt 0.625000 0.875000
vt 0.687500 0.875000
vt 0.625000 0.750000
vt 0.437500 0.750000
vt 0.500000 0.875000
vt 0.500000 0.750000
vt 0.750000 1.000000
vt 0.812500 1.000000
vt 0.750000 0.875000
vt 0.750000 1.000000
vt 0.812500 0.875000
vt 0.687500 0.875000
vt 0.562500 0.875000
vt 0.687500 0.875000
vt 0.437500 0.875000
vt 0.812500 1.000000
vn -0.1223 0.5507 0.8257
vn 0.3356 -0.7364 0.5874
vn 0.3851 0.6418 0.6631
vn 0.1584 0.1758 0.9716
vn -0.2427 -0.6022 0.7605
vn 0.4659 0.3728 0.8024
vn 0.3499 -0.7005 0.6220
vn 0.2153 -0.4008 0.8905
vn 0.8562 0.2476 0.4534
vn 0.8589 -0.1304 0.4953
vn 0.4872 -0.1740 0.8557
vn 0.2557 0.8581 0.4453
vn 0.0000 1.0000 0.0000
vn 0.4842 -0.1770 0.8568
vn 0.5538 -0.1765 0.8137
vn 0.9987 -0.0499 0.0000
vn 0.9989 -0.0468 0.0000
usemtl Material__25
s 1
f 2/1/1 4/2/2 1/3/3
f 5/4/4 3/5/5 2/6/1
f 7/7/6 2/8/1 1/9/3
f 8/10/7 3/11/5 6/12/8
f 6/13/8 9/14/9 10/15/10
f 6/12/8 11/16/11 8/10/7
f 12/17/12 5/4/4 7/18/6
f 9/19/9 12/20/12 14/21/13
f 13/22/14 10/23/10 17/24/15
f 16/25/16 17/26/15 10/27/10
f 9/28/9 16/29/16 10/27/10
f 2/1/1 3/11/5 4/2/2
f 5/4/4 6/30/8 3/5/5
f 7/7/6 5/31/4 2/8/1
f 8/10/7 4/2/2 3/11/5
f 6/13/8 5/4/4 9/14/9
f 6/12/8 10/32/10 11/16/11
f 12/17/12 9/14/9 5/4/4
f 13/22/14 11/33/11 10/23/10
f 9/28/9 15/34/17 16/29/16
