# Blender v2.79 (sub 0) OBJ File: ''
# www.blender.org
mtllib hurricos.058.mtl
o hurricos.058_tex_72.275
v 7.800358 0.583923 -1.397817
v 7.800358 0.556150 -1.411703
v 7.784159 0.556150 -1.379302
v 7.791101 0.574665 -1.383931
v 7.800358 0.597809 -1.374673
v 7.795731 0.593181 -1.370044
v 7.804987 0.593181 -1.370044
v 7.809616 0.574665 -1.383931
v 7.818874 0.556150 -1.379302
v 7.800358 0.597809 -1.351529
vt 0.625000 0.875000
vt 0.687500 0.750000
vt 0.625000 0.750000
vt 0.625000 0.750000
vt 0.687500 0.875000
vt 0.687500 0.750000
vt 0.625000 0.875000
vt 0.687500 0.750000
vt 0.625000 0.750000
vt 0.687500 0.875000
vt 0.687500 0.750000
vt 0.625000 0.875000
vt 0.625000 0.750000
vt 0.625000 0.750000
vt 0.687500 0.750000
vt 0.625000 0.875000
vt 0.687500 0.875000
vt 0.625000 0.750000
vt 0.687500 0.875000
vt 0.687500 0.875000
vt 0.625000 0.750000
vt 0.687500 0.875000
vt 0.625000 0.875000
vt 0.687500 0.875000
vt 0.625000 0.875000
vn -0.0114 0.4708 -0.8821
vn -0.8967 0.2263 0.3803
vn -0.0000 0.6645 -0.7473
vn -0.0001 0.9359 -0.3524
vn -0.9258 -0.0709 0.3712
vn 0.8845 0.2620 0.3860
vn 0.7604 0.4875 0.4291
vn -0.7728 0.4107 0.4838
vn 0.9259 -0.0707 0.3711
vn 0.0002 0.1615 0.9868
usemtl Material__25
s 1
f 2/1/1 4/2/2 1/3/3
f 5/4/4 4/5/2 6/6/5
f 5/7/4 8/8/6 1/3/3
f 2/9/1 8/10/6 9/11/7
f 3/12/8 8/8/6 4/13/2
f 6/14/5 8/10/6 7/15/9
f 6/16/5 7/17/9 10/18/10
f 5/7/4 6/19/5 10/18/10
f 5/7/4 10/20/10 7/21/9
f 2/1/1 3/22/8 4/2/2
f 5/4/4 1/23/3 4/5/2
f 5/7/4 7/17/9 8/8/6
f 2/9/1 1/23/3 8/10/6
f 3/12/8 9/24/7 8/8/6
f 6/14/5 4/25/2 8/10/6
