# Blender v2.79 (sub 0) OBJ File: ''
# www.blender.org
mtllib hurricos.086.mtl
o hurricos.086_tex_72.303
v 2.748047 0.519120 -1.948642
v 2.748047 0.519120 -2.244884
v 2.748047 0.519120 -2.541125
v 2.729532 0.519120 -2.723962
v 2.451805 0.519120 -2.541125
v 2.162507 0.519120 -2.721648
v 2.451805 0.519120 -1.948642
v 2.451805 0.519120 -2.244884
v 2.155563 0.519120 -1.948642
v 2.155563 0.519120 -2.244884
v 1.859322 0.519120 -2.244884
v 1.859322 0.519120 -1.948642
v 1.563080 0.542264 -2.244884
v 1.563080 0.542264 -1.948642
v 1.266838 0.519120 -2.244884
v 1.301554 0.519120 -1.948642
v 2.155563 0.519120 -2.541125
v 1.859322 0.519120 -2.541125
v 1.563080 0.542264 -2.541125
v 1.266838 0.519120 -2.541125
v 1.859322 0.519120 -2.837367
v 1.563080 0.519120 -2.837367
v 1.266838 0.519120 -2.837367
v 1.898666 0.519121 -3.179897
v 1.563080 0.519121 -3.133609
v 1.266838 0.519121 -3.133609
v 1.859322 0.519121 -3.429851
v 1.563080 0.519121 -3.429851
v 1.266838 0.519121 -3.429851
v 2.511979 1.037544 -3.316446
v 2.442548 0.963484 -3.378934
v 2.373116 1.037544 -3.316446
v 2.301370 0.889424 -3.446052
v 2.734160 0.889424 -3.186840
v 2.866081 0.671871 -3.184525
v 2.583725 0.889424 -3.446052
v 2.592983 0.889423 -2.941515
v 2.662415 0.671870 -2.832738
v 2.722589 0.741302 -2.730905
v 2.294427 0.889423 -2.941515
v 2.227309 0.671870 -2.830424
v 2.167135 0.741302 -2.728591
v 1.907924 0.741303 -3.179897
v 2.153249 0.889424 -3.184525
v 2.299055 1.037544 -3.186840
v 2.368487 1.037544 -3.066492
v 2.516608 1.037544 -3.066492
v 2.025958 0.671871 -3.182211
v 2.586040 1.037544 -3.186840
vt 0.500000 0.625000
vt 0.562500 0.625000
vt 0.500000 0.500000
vt 0.562500 0.500000
vt 0.500000 0.625000
vt 0.500000 0.500000
vt 0.500000 0.625000
vt 0.562500 0.500000
vt 0.500000 0.500000
vt 0.500000 0.625000
vt 0.562500 0.500000
vt 0.500000 0.500000
vt 0.500000 0.625000
vt 0.562500 0.500000
vt 0.500000 0.500000
vt 0.500000 0.500000
vt 0.562500 0.625000
vt 0.562500 0.500000
vt 0.562500 0.500000
vt 0.500000 0.500000
vt 0.562500 0.500000
vt 0.500000 0.625000
vt 0.562500 0.500000
vt 0.500000 0.625000
vt 0.562500 0.500000
vt 0.500000 0.625000
vt 0.500000 0.500000
vt 0.562500 0.625000
vt 0.500000 0.500000
vt 0.562500 0.625000
vt 0.562500 0.625000
vt 0.437500 0.500000
vt 0.500000 0.500000
vt 0.500000 0.500000
vt 0.562500 0.625000
vt 0.562500 0.500000
vt 0.500000 0.625000
vt 0.562500 0.625000
vt 0.500000 0.500000
vt 0.500000 0.500000
vt 0.562500 0.625000
vt 0.562500 0.500000
vt 0.500000 0.625000
vt 0.562500 0.500000
vt 0.500000 0.500000
vt 0.562500 0.625000
vt 0.500000 0.625000
vt 0.562500 0.500000
vt 0.375000 0.750000
vt 0.437500 0.750000
vt 0.375000 0.625000
vt 0.375000 0.750000
vt 0.437500 0.750000
vt 0.750000 1.000000
vt 0.812500 1.000000
vt 0.750000 0.875000
vt 0.062500 0.750000
vt 0.125000 0.625000
vt 0.062500 0.625000
vt 0.750000 1.000000
vt 0.812500 1.000000
vt 0.750000 0.875000
vt 0.437500 0.750000
vt 0.500000 0.875000
vt 0.500000 0.750000
vt 0.625000 0.875000
vt 0.687500 0.750000
vt 0.625000 0.750000
vt 0.375000 0.750000
vt 0.437500 0.750000
vt 0.375000 0.625000
vt 0.750000 1.000000
vt 0.812500 1.000000
vt 0.750000 0.875000
vt 0.750000 1.000000
vt 0.812500 1.000000
vt 0.750000 0.875000
vt 0.750000 1.000000
vt 0.812500 1.000000
vt 0.750000 0.875000
vt 0.312500 0.750000
vt 0.375000 0.625000
vt 0.312500 0.625000
vt 0.375000 0.750000
vt 0.437500 0.750000
vt 0.375000 0.625000
vt 0.312500 0.750000
vt 0.375000 0.625000
vt 0.312500 0.625000
vt 0.375000 0.625000
vt 0.437500 0.750000
vt 0.437500 0.625000
vt 0.312500 0.625000
vt 0.375000 0.625000
vt 0.750000 1.000000
vt 0.812500 1.000000
vt 0.750000 0.875000
vt 0.437500 0.750000
vt 0.375000 0.625000
vt 0.312500 0.750000
vt 0.375000 0.625000
vt 0.312500 0.625000
vt 0.125000 0.750000
vt 0.187500 0.625000
vt 0.125000 0.625000
vt 0.375000 0.750000
vt 0.562500 0.625000
vt 0.562500 0.625000
vt 0.562500 0.625000
vt 0.562500 0.625000
vt 0.500000 0.625000
vt 0.562500 0.625000
vt 0.562500 0.625000
vt 0.437500 0.625000
vt 0.500000 0.625000
vt 0.562500 0.625000
vt 0.562500 0.625000
vt 0.125000 0.750000
vt 0.437500 0.875000
vt 0.687500 0.875000
vt 0.375000 0.750000
vt 0.312500 0.750000
vt 0.187500 0.750000
vn 0.0000 1.0000 0.0000
vn -0.2001 0.8538 0.4806
vn -0.1428 0.9105 0.3880
vn 0.0390 0.9992 0.0000
vn -0.0012 1.0000 0.0012
vn -0.0830 0.9965 0.0045
vn -0.0051 1.0000 0.0000
vn 0.0292 0.9995 -0.0097
vn -0.0584 0.9981 -0.0195
vn 0.0000 0.9992 -0.0389
vn 0.0000 0.9998 -0.0195
vn -0.3551 0.9343 0.0314
vn 0.2398 0.8763 -0.4178
vn 0.0000 0.6514 -0.7588
vn -0.2424 0.8757 -0.4176
vn -0.4662 0.6996 -0.5414
vn 0.0941 0.5875 0.8037
vn -0.4868 0.3164 0.8141
vn -0.8570 -0.0129 0.5152
vn 0.4924 0.3209 0.8090
vn -0.2362 0.7053 0.6684
vn -0.0360 0.4077 0.9124
vn -0.8086 0.4088 -0.4231
vn -0.4836 0.8753 -0.0012
vn -0.2402 0.8747 0.4209
vn 0.2381 0.8756 0.4202
vn -0.0192 0.0007 -0.9998
vn 0.4794 0.8776 0.0011
vn -0.6268 0.7789 0.0200
vn 0.4623 0.7001 -0.5442
vn 0.7079 0.7063 -0.0004
vn -0.0779 0.9969 0.0044
usemtl Material__25
s 1
f 5/1/1 4/2/2 6/3/3
f 1/4/1 8/5/1 7/6/1
f 7/7/1 10/8/1 9/9/1
f 11/10/4 9/11/1 10/12/1
f 13/13/5 12/14/4 11/15/4
f 13/16/5 16/17/6 14/18/7
f 8/5/1 3/19/1 5/20/1
f 8/5/1 17/21/1 10/12/1
f 17/22/1 11/23/4 10/12/1
f 18/24/8 13/25/5 11/15/4
f 20/26/9 13/25/5 19/27/10
f 5/1/1 3/28/1 4/29/2
f 17/22/1 5/30/1 6/3/3
f 6/3/3 18/31/8 17/21/1
f 22/32/11 18/24/8 21/33/1
f 22/34/11 20/35/9 19/36/10
f 21/37/1 6/38/3 24/39/12
f 25/40/1 21/41/1 24/42/12
f 23/43/1 25/44/1 26/45/1
f 25/40/1 27/46/1 28/47/1
f 28/47/1 26/48/1 25/40/1
f 30/49/13 31/50/14 32/51/15
f 31/52/14 33/53/16 32/51/15
f 37/54/17 38/55/18 39/56/19
f 37/57/17 41/58/20 38/59/18
f 40/60/21 42/61/22 41/62/20
f 6/63/3 43/64/23 24/65/12
f 40/66/21 43/67/23 42/68/22
f 45/69/24 46/70/25 47/71/26
f 4/72/2 39/73/19 38/74/18
f 6/75/3 41/76/20 42/77/22
f 24/78/12 43/79/23 48/80/27
f 47/81/26 40/82/21 37/83/17
f 32/84/15 49/85/28 30/86/13
f 46/87/25 44/88/29 40/89/21
f 49/90/28 45/91/24 47/92/26
f 44/93/29 32/84/15 33/94/16
f 44/95/29 48/96/27 43/97/23
f 30/49/13 36/98/30 31/99/14
f 30/100/13 34/101/31 36/102/30
f 38/103/18 6/104/3 4/105/2
f 37/83/17 49/106/28 47/81/26
f 1/4/1 2/107/1 8/5/1
f 7/7/1 8/108/1 10/8/1
f 11/10/4 12/109/4 9/11/1
f 13/13/5 14/110/7 12/14/4
f 13/16/5 15/111/32 16/17/6
f 8/5/1 2/107/1 3/19/1
f 8/5/1 5/30/1 17/21/1
f 17/22/1 18/31/8 11/23/4
f 18/24/8 19/112/10 13/25/5
f 20/26/9 15/113/32 13/25/5
f 6/3/3 21/37/1 18/31/8
f 22/32/11 19/114/10 18/24/8
f 22/34/11 23/43/1 20/35/9
f 25/40/1 22/115/11 21/41/1
f 23/43/1 22/116/11 25/44/1
f 25/40/1 24/42/12 27/46/1
f 28/47/1 29/117/1 26/48/1
f 37/57/17 40/118/21 41/58/20
f 6/63/3 42/119/22 43/64/23
f 40/66/21 44/120/29 43/67/23
f 47/81/26 46/121/25 40/82/21
f 46/87/25 45/69/24 44/88/29
f 49/90/28 32/84/15 45/91/24
f 44/93/29 45/122/24 32/84/15
f 30/100/13 49/106/28 34/101/31
f 38/103/18 41/123/20 6/104/3
f 37/83/17 34/101/31 49/106/28
l 34 35
