# Blender v2.79 (sub 0) OBJ File: ''
# www.blender.org
mtllib hurricos.044.mtl
o hurricos.044_tex_72.261
v 7.052811 0.435802 1.312333
v 7.041239 0.408029 1.314647
v 7.075954 0.408029 1.323905
v 7.071325 0.426544 1.316961
v 7.078270 0.449688 1.305390
v 7.082897 0.445059 1.310018
v 7.080584 0.445059 1.300761
v 7.066698 0.426544 1.298446
v 7.066698 0.408029 1.289189
v 7.099098 0.449688 1.298446
vt 0.625000 0.875000
vt 0.687500 0.750000
vt 0.625000 0.750000
vt 0.625000 0.750000
vt 0.687500 0.875000
vt 0.687500 0.750000
vt 0.625000 0.875000
vt 0.687500 0.750000
vt 0.625000 0.750000
vt 0.687500 0.875000
vt 0.687500 0.750000
vt 0.625000 0.875000
vt 0.625000 0.750000
vt 0.625000 0.875000
vt 0.687500 0.750000
vt 0.625000 0.750000
vt 0.625000 0.875000
vt 0.687500 0.875000
vt 0.625000 0.750000
vt 0.687500 0.875000
vt 0.687500 0.875000
vt 0.625000 0.750000
vt 0.687500 0.875000
vt 0.625000 0.875000
vt 0.687500 0.875000
vn -0.8521 0.4755 0.2184
vn 0.6327 0.1975 0.7487
vn -0.7299 0.6498 0.2122
vn -0.3362 0.9411 0.0357
vn 0.5547 0.0103 0.8319
vn 0.2047 0.2285 -0.9518
vn 0.1916 0.4389 -0.8778
vn 0.6239 0.4003 0.6712
vn 0.1020 -0.1201 -0.9875
vn 0.9253 0.1606 -0.3436
usemtl Material__25
s 1
f 2/1/1 4/2/2 1/3/3
f 5/4/4 4/5/2 6/6/5
f 5/7/4 8/8/6 1/3/3
f 2/9/1 8/10/6 9/11/7
f 3/12/8 8/8/6 4/13/2
f 4/14/2 7/15/9 6/16/5
f 6/17/5 7/18/9 10/19/10
f 5/7/4 6/20/5 10/19/10
f 5/7/4 10/21/10 7/22/9
f 2/1/1 3/23/8 4/2/2
f 5/4/4 1/24/3 4/5/2
f 5/7/4 7/18/9 8/8/6
f 2/9/1 1/24/3 8/10/6
f 3/12/8 9/25/7 8/8/6
f 4/14/2 8/10/6 7/15/9
