# Blender v2.79 (sub 0) OBJ File: ''
# www.blender.org
mtllib hurricos.092.mtl
o hurricos.092_tex_72.309
v -3.331853 0.815363 -3.494654
v -3.331853 1.111605 -3.494654
v -3.149017 1.111605 -3.309503
v -3.149017 0.815363 -3.309503
v -3.331853 0.667242 -3.494654
v -3.149017 0.667242 -3.309503
v -3.331853 1.259726 -3.494654
v -3.149017 1.259726 -3.309503
v -3.375827 1.389331 -3.085007
v -3.375827 1.111604 -3.085007
v -3.375827 0.815362 -3.085007
v -3.375827 0.537636 -3.087321
v -3.598008 1.389331 -2.865140
v -3.598008 1.111604 -2.865140
v -3.598008 0.815362 -2.865140
v -3.598008 0.537636 -2.865140
v -3.780845 1.389331 -3.047976
v -3.556349 1.389331 -3.270158
v -3.556349 1.111604 -3.270158
v -3.556349 0.815363 -3.270158
v -3.556349 0.537636 -3.270158
v -3.780845 0.537636 -3.047977
vt 0.312500 0.875000
vt 0.375000 0.750000
vt 0.312500 0.750000
vt 0.312500 0.875000
vt 0.375000 0.750000
vt 0.312500 0.750000
vt 0.312500 0.875000
vt 0.375000 0.750000
vt 0.312500 0.750000
vt 0.375000 1.000000
vt 0.437500 0.875000
vt 0.375000 0.875000
vt 0.375000 1.000000
vt 0.437500 0.875000
vt 0.375000 0.875000
vt 0.375000 0.875000
vt 0.437500 1.000000
vt 0.437500 0.875000
vt 0.375000 1.000000
vt 0.437500 0.875000
vt 0.375000 0.875000
vt 0.375000 1.000000
vt 0.437500 0.875000
vt 0.375000 0.875000
vt 0.375000 1.000000
vt 0.437500 0.875000
vt 0.375000 0.875000
vt 0.375000 0.875000
vt 0.437500 1.000000
vt 0.437500 0.875000
vt 0.375000 0.875000
vt 0.437500 1.000000
vt 0.437500 0.875000
vt 0.375000 0.875000
vt 0.437500 1.000000
vt 0.437500 0.875000
vt 0.375000 1.000000
vt 0.437500 0.875000
vt 0.375000 0.875000
vt 0.375000 1.000000
vt 0.437500 0.875000
vt 0.375000 0.875000
vt 0.000000 1.000000
vt 0.062500 0.875000
vt 0.000000 0.875000
vt 0.375000 1.000000
vt 0.437500 0.875000
vt 0.375000 0.875000
vt 0.375000 0.875000
vt 0.375000 0.875000
vt 0.375000 0.875000
vt 0.437500 1.000000
vt 0.437500 1.000000
vt 0.375000 1.000000
vt 0.437500 1.000000
vt 0.437500 1.000000
vt 0.437500 1.000000
vt 0.375000 1.000000
vt 0.375000 1.000000
vt 0.375000 1.000000
vt 0.437500 1.000000
vt 0.437500 1.000000
vt 0.062500 1.000000
vt 0.437500 1.000000
vn 0.0031 0.0000 -1.0000
vn 1.0000 0.0000 0.0057
vn 0.8940 -0.4464 -0.0388
vn 0.0473 -0.4459 -0.8938
vn 0.0473 0.4459 -0.8938
vn 0.7034 0.0000 0.7107
vn 0.8941 0.4462 -0.0394
vn 0.5702 0.7314 0.3740
vn 0.7036 -0.0019 0.7106
vn 0.7034 0.0000 0.7108
vn 0.4965 0.7083 0.5018
vn 0.4979 -0.7081 0.5007
vn 0.0000 1.0000 0.0000
vn -0.1243 0.9167 -0.3796
vn -0.7071 0.0000 -0.7071
vn -0.1249 -0.9166 -0.3798
vn 0.5691 -0.7345 0.3697
vn 0.0000 -1.0000 0.0000
usemtl Material__25
s 1
f 2/1/1 4/2/2 1/3/1
f 1/4/1 6/5/3 5/6/4
f 7/7/5 3/8/2 2/9/1
f 10/10/6 8/11/7 9/12/8
f 11/13/9 3/14/2 10/15/6
f 11/16/9 6/17/3 4/18/2
f 14/19/10 9/20/8 13/21/11
f 15/22/10 10/23/6 14/24/10
f 16/25/12 11/26/9 15/27/10
f 17/28/13 9/29/8 18/30/14
f 18/31/14 8/32/7 7/33/5
f 19/34/15 7/35/5 2/36/1
f 19/37/15 1/38/1 20/39/15
f 20/40/15 5/41/4 21/42/16
f 21/43/16 6/44/3 12/45/17
f 22/46/18 12/47/17 16/48/12
f 2/1/1 3/49/2 4/2/2
f 1/4/1 4/50/2 6/5/3
f 7/7/5 8/51/7 3/8/2
f 10/10/6 3/52/2 8/11/7
f 11/13/9 4/53/2 3/14/2
f 11/16/9 12/54/17 6/17/3
f 14/19/10 10/55/6 9/20/8
f 15/22/10 11/56/9 10/23/6
f 16/25/12 12/57/17 11/26/9
f 17/28/13 13/58/11 9/29/8
f 18/31/14 9/59/8 8/32/7
f 19/34/15 18/60/14 7/35/5
f 19/37/15 2/61/1 1/38/1
f 20/40/15 1/62/1 5/41/4
f 21/43/16 5/63/4 6/44/3
f 22/46/18 21/64/16 12/47/17
