# Blender v2.79 (sub 0) OBJ File: ''
# www.blender.org
mtllib hurricos.072.mtl
o hurricos.072_tex_72.289
v -3.799360 2.055874 -1.934755
v -3.736872 2.055874 -1.701002
v -3.850276 2.000329 -1.731089
v -3.882678 2.000329 -1.851437
v -3.766959 2.171594 -1.969471
v -3.690584 2.171594 -1.687116
v -3.762330 2.273427 -1.971785
v -3.685955 2.273427 -1.687116
v -3.910451 2.055874 -1.529737
v -3.940538 2.000329 -1.640828
v -3.803989 2.379889 -1.930126
v -3.743814 2.379889 -1.701002
v -3.882678 2.444692 -1.851437
v -3.850276 2.444692 -1.731089
v -4.035428 2.055874 -1.997244
v -4.005341 2.000329 -1.886153
v -3.896564 2.171594 -1.483449
v -4.033113 2.379889 -1.992615
v -4.005341 2.444692 -1.886153
v -4.206693 2.055874 -1.825979
v -4.093287 2.000329 -1.795892
v -4.252980 2.171594 -1.839865
v -4.257609 2.273427 -1.839865
v -3.896564 2.273427 -1.478821
v -4.202064 2.379889 -1.825979
v -4.093287 2.444692 -1.795892
v -4.144204 2.055874 -1.592226
v -4.060886 2.000329 -1.675544
v -4.178920 2.171594 -1.557510
v -4.181234 2.273427 -1.555195
v -3.940538 2.444692 -1.640828
v -3.910451 2.379889 -1.534366
v -4.139575 2.379889 -1.596854
v -4.060886 2.444692 -1.675544
v -4.088659 1.833693 -1.645457
v -3.928966 1.833693 -1.603798
v -4.132632 1.833693 -1.807464
v -4.014598 1.833693 -1.923183
v -3.854906 1.833693 -1.881524
v -3.810932 1.833693 -1.719517
vt 0.312500 0.875000
vt 0.375000 0.750000
vt 0.312500 0.750000
vt 0.312500 0.750000
vt 0.375000 0.875000
vt 0.375000 0.750000
vt 0.312500 0.750000
vt 0.375000 0.875000
vt 0.375000 0.750000
vt 0.312500 0.875000
vt 0.375000 0.750000
vt 0.312500 0.750000
vt 0.312500 0.750000
vt 0.375000 0.875000
vt 0.375000 0.750000
vt 0.312500 0.875000
vt 0.375000 0.750000
vt 0.312500 0.750000
vt 0.312500 0.875000
vt 0.375000 0.750000
vt 0.312500 0.750000
vt 0.312500 0.875000
vt 0.375000 0.750000
vt 0.312500 0.750000
vt 0.312500 0.750000
vt 0.375000 0.875000
vt 0.375000 0.750000
vt 0.312500 0.750000
vt 0.375000 0.875000
vt 0.375000 0.750000
vt 0.312500 0.875000
vt 0.375000 0.750000
vt 0.312500 0.750000
vt 0.312500 0.875000
vt 0.375000 0.750000
vt 0.312500 0.750000
vt 0.312500 0.875000
vt 0.375000 0.750000
vt 0.312500 0.750000
vt 0.312500 0.750000
vt 0.375000 0.875000
vt 0.375000 0.750000
vt 0.312500 0.875000
vt 0.375000 0.750000
vt 0.312500 0.750000
vt 0.312500 0.750000
vt 0.375000 0.875000
vt 0.375000 0.750000
vt 0.312500 0.750000
vt 0.375000 0.875000
vt 0.375000 0.750000
vt 0.312500 0.875000
vt 0.375000 0.750000
vt 0.312500 0.750000
vt 0.312500 0.875000
vt 0.375000 0.750000
vt 0.312500 0.750000
vt 0.312500 0.875000
vt 0.375000 0.750000
vt 0.312500 0.750000
vt 0.312500 0.750000
vt 0.375000 0.875000
vt 0.375000 0.750000
vt 0.312500 0.750000
vt 0.375000 0.875000
vt 0.375000 0.750000
vt 0.312500 0.875000
vt 0.375000 0.750000
vt 0.312500 0.750000
vt 0.312500 0.750000
vt 0.375000 0.875000
vt 0.375000 0.750000
vt 0.375000 0.875000
vt 0.437500 0.750000
vt 0.375000 0.875000
vt 0.437500 0.750000
vt 0.437500 0.875000
vt 0.437500 0.750000
vt 0.437500 0.875000
vt 0.437500 0.750000
vt 0.375000 0.875000
vt 0.437500 0.750000
vt 0.375000 0.875000
vt 0.437500 0.750000
vt 0.375000 0.875000
vt 0.312500 0.875000
vt 0.312500 0.875000
vt 0.375000 0.875000
vt 0.312500 0.875000
vt 0.375000 0.875000
vt 0.375000 0.875000
vt 0.375000 0.875000
vt 0.312500 0.875000
vt 0.312500 0.875000
vt 0.375000 0.875000
vt 0.375000 0.875000
vt 0.375000 0.875000
vt 0.312500 0.875000
vt 0.375000 0.875000
vt 0.312500 0.875000
vt 0.312500 0.875000
vt 0.375000 0.875000
vt 0.375000 0.875000
vt 0.375000 0.875000
vt 0.312500 0.875000
vt 0.312500 0.875000
vt 0.375000 0.875000
vt 0.312500 0.875000
vt 0.437500 0.875000
vt 0.437500 0.875000
vt 0.375000 0.875000
vt 0.375000 0.875000
vt 0.437500 0.875000
vt 0.437500 0.875000
vn 0.7450 -0.6368 0.1987
vn 0.6012 -0.5352 -0.5934
vn 0.6381 -0.7076 -0.3036
vn 0.9494 -0.1819 -0.2559
vn 0.9502 0.1777 -0.2559
vn 0.9435 -0.2072 0.2584
vn 0.1963 -0.6361 0.7462
vn 0.8161 -0.5343 0.2201
vn 0.6296 0.7089 -0.3180
vn 0.9439 0.2125 0.2525
vn 0.4879 0.8633 0.1288
vn 0.3591 0.8641 -0.3525
vn -0.2153 -0.5387 -0.8145
vn -0.1132 -0.9006 -0.4196
vn 0.2562 -0.2068 0.9442
vn -0.1286 0.8639 -0.4870
vn -0.1285 0.8616 -0.4910
vn -0.7018 -0.7103 0.0533
vn -0.8199 -0.5320 -0.2112
vn 0.2490 0.2086 0.9458
vn -0.7050 0.7080 0.0412
vn -0.4835 0.8669 -0.1213
vn -0.6066 -0.5318 0.5909
vn -0.5441 -0.6394 0.5432
vn -0.6922 -0.2041 0.6922
vn -0.9503 0.1807 0.2537
vn -0.6902 0.2172 0.6902
vn 0.1965 0.6528 0.7315
vn 0.7244 0.6593 0.2012
vn -0.5330 0.6578 0.5321
vn -0.3604 0.8641 0.3512
vn 0.2141 -0.5349 0.8173
vn 0.1245 0.8639 0.4880
vn -0.6859 0.2323 0.6896
vn -0.9391 0.2329 -0.2526
vn -0.2459 0.2282 -0.9420
vn 0.2547 0.2289 0.9395
vn 0.9367 0.2384 0.2561
vn -0.9512 -0.1813 0.2495
vn 0.6816 0.2385 -0.6917
usemtl Material__25
s 1
f 2/1/1 4/2/2 1/3/3
f 5/4/4 2/5/1 1/6/3
f 7/7/5 6/8/6 5/9/4
f 9/10/7 3/11/8 2/12/1
f 11/13/9 8/14/10 7/15/5
f 14/16/11 11/17/9 13/18/12
f 1/19/3 16/20/13 15/21/14
f 17/22/15 2/23/1 6/24/6
f 19/25/16 11/26/9 18/27/17
f 20/28/18 16/29/13 21/30/19
f 24/31/20 6/32/6 8/33/10
f 19/34/16 25/35/21 26/36/22
f 20/37/18 28/38/23 27/39/24
f 29/40/25 20/41/18 27/42/24
f 23/43/26 29/44/25 30/45/27
f 14/46/11 32/47/28 12/48/29
f 33/49/30 23/50/26 30/51/27
f 26/52/22 33/53/30 34/54/31
f 27/55/24 10/56/32 9/57/7
f 29/58/25 9/59/7 17/60/15
f 24/61/20 29/62/25 17/63/15
f 12/64/29 24/65/20 8/66/10
f 33/67/30 24/68/20 32/69/28
f 31/70/33 33/71/30 32/72/28
f 35/73/34 10/74/32 28/38/23
f 37/75/35 28/76/23 21/30/19
f 16/20/13 37/77/35 21/78/19
f 4/2/2 38/79/36 16/80/13
f 36/81/37 3/82/8 10/56/32
f 40/83/38 4/84/2 3/11/8
f 2/1/1 3/85/8 4/2/2
f 5/4/4 6/86/6 2/5/1
f 7/7/5 8/87/10 6/8/6
f 9/10/7 10/88/32 3/11/8
f 11/13/9 12/89/29 8/14/10
f 14/16/11 12/90/29 11/17/9
f 1/19/3 4/91/2 16/20/13
f 17/22/15 9/92/7 2/23/1
f 19/25/16 13/93/12 11/26/9
f 20/28/18 15/94/14 16/29/13
f 24/31/20 17/95/15 6/32/6
f 19/34/16 18/96/17 25/35/21
f 20/37/18 21/97/19 28/38/23
f 29/40/25 22/98/39 20/41/18
f 23/43/26 22/99/39 29/44/25
f 14/46/11 31/100/33 32/47/28
f 33/49/30 25/101/21 23/50/26
f 26/52/22 25/102/21 33/53/30
f 27/55/24 28/103/23 10/56/32
f 29/58/25 27/104/24 9/59/7
f 24/61/20 30/105/27 29/62/25
f 12/64/29 32/106/28 24/65/20
f 33/67/30 30/107/27 24/68/20
f 31/70/33 34/108/31 33/71/30
f 35/73/34 36/109/37 10/74/32
f 37/75/35 35/110/34 28/76/23
f 16/20/13 38/111/36 37/77/35
f 4/2/2 39/112/40 38/79/36
f 36/81/37 40/113/38 3/82/8
f 40/83/38 39/114/40 4/84/2
