# Blender v2.79 (sub 0) OBJ File: ''
# www.blender.org
mtllib hurricos.125.mtl
o hurricos.125_tex_72.342
v 2.692502 0.815363 -5.302192
v 2.731846 0.519122 -5.323021
v 2.930883 0.519122 -5.063809
v 2.896168 0.815363 -5.045294
v 3.035031 0.519122 -4.802284
v 2.984115 0.815363 -4.788397
v 3.018830 1.106976 -4.779140
v 3.092891 1.417105 -4.760624
v 3.125293 1.435620 -4.545386
v 3.009573 0.815363 -4.612504
v 2.926255 1.106976 -5.054552
v 2.986429 1.384703 -5.075381
v 2.708702 1.106976 -5.329964
v 2.738790 1.343044 -5.390138
v 2.717960 1.454135 -4.779140
v 2.928570 1.426362 -4.658791
v 2.706388 1.444877 -4.855515
v 2.907740 1.412476 -4.806912
v 2.833679 1.393961 -5.022151
v 2.662415 1.403218 -5.239703
v 2.787392 0.222880 -5.390139
v 2.870709 -0.073362 -5.461884
v 2.993372 0.222880 -5.110097
v 3.081319 -0.073362 -5.186472
v 3.099834 0.222880 -4.843943
v 3.192410 -0.073362 -4.911060
v 3.051232 0.519122 -4.621761
v 3.122978 0.222880 -4.642591
v 3.210925 -0.073362 -4.718966
vt 0.812500 0.625000
vt 0.750000 0.750000
vt 0.750000 0.625000
vt 0.687500 0.625000
vt 0.687500 0.750000
vt 0.187500 0.625000
vt 0.250000 0.500000
vt 0.187500 0.500000
vt 0.000000 1.000000
vt 0.062500 0.875000
vt 0.000000 0.875000
vt 0.187500 0.625000
vt 0.250000 0.500000
vt 0.187500 0.500000
vt 0.000000 0.875000
vt 0.062500 1.000000
vt 0.062500 0.875000
vt 0.500000 0.500000
vt 0.562500 0.625000
vt 0.562500 0.500000
vt 0.500000 0.500000
vt 0.562500 0.625000
vt 0.562500 0.500000
vt 0.500000 0.500000
vt 0.562500 0.625000
vt 0.562500 0.500000
vt 0.500000 0.625000
vt 0.562500 0.500000
vt 0.500000 0.500000
vt 0.000000 0.750000
vt 0.062500 0.625000
vt 0.000000 0.625000
vt 0.000000 1.000000
vt 0.062500 0.875000
vt 0.000000 0.875000
vt 0.000000 0.750000
vt 0.062500 0.625000
vt 0.000000 0.625000
vt 0.000000 1.000000
vt 0.062500 0.875000
vt 0.000000 0.875000
vt 0.625000 0.750000
vt 0.687500 0.625000
vt 0.625000 0.625000
vt 0.000000 0.750000
vt 0.062500 0.625000
vt 0.000000 0.625000
vt 0.000000 1.000000
vt 0.062500 0.875000
vt 0.000000 0.875000
vt 0.812500 0.750000
vt 0.250000 0.625000
vt 0.062500 1.000000
vt 0.250000 0.625000
vt 0.000000 1.000000
vt 0.500000 0.625000
vt 0.500000 0.625000
vt 0.500000 0.625000
vt 0.562500 0.625000
vt 0.062500 0.750000
vt 0.062500 1.000000
vt 0.062500 0.750000
vt 0.062500 1.000000
vt 0.687500 0.750000
vt 0.062500 0.750000
vt 0.062500 1.000000
vn 0.7775 0.2029 -0.5952
vn 0.8748 0.0217 -0.4839
vn 0.8536 0.1934 -0.4837
vn 0.9537 0.2044 -0.2207
vn 0.9634 0.0733 -0.2576
vn 0.7240 0.5508 -0.4151
vn 0.9371 -0.1616 -0.3094
vn 0.8680 -0.1675 -0.4674
vn 0.7060 0.3476 -0.6171
vn 0.7719 -0.1801 -0.6097
vn 0.7837 0.0200 -0.6207
vn 0.1930 0.9714 -0.1383
vn 0.0749 0.9913 -0.1080
vn 0.1916 0.9705 -0.1466
vn 0.0584 0.9934 -0.0987
vn 0.4150 0.8823 -0.2222
vn 0.0447 0.9980 -0.0453
vn 0.1663 0.9613 -0.2196
vn 0.7613 0.3166 -0.5658
vn 0.8116 0.3554 -0.4637
vn 0.7449 0.3474 -0.5696
vn 0.8304 0.3100 -0.4628
vn 0.9119 0.3372 -0.2338
vn 0.9298 0.2871 -0.2303
vn 0.9749 0.2007 -0.0968
vn 0.9447 0.3132 -0.0971
vn 0.9579 0.2671 -0.1056
vn 0.0027 0.9963 -0.0861
vn 0.9796 0.1422 -0.1418
usemtl Material__25
s 1
f 2/1/1 4/2/2 3/3/3
f 5/4/4 4/2/2 6/5/5
f 12/6/6 7/7/7 11/8/8
f 6/9/5 11/10/8 7/11/7
f 14/12/9 11/13/8 13/14/10
f 11/15/8 1/16/11 13/17/10
f 15/18/12 18/19/13 17/20/14
f 16/21/15 8/22/16 18/23/13
f 18/24/13 12/25/6 19/26/17
f 12/27/6 20/28/18 19/29/17
f 21/30/19 24/31/20 22/32/21
f 2/33/1 23/34/22 21/35/19
f 23/36/22 26/37/23 24/38/20
f 3/39/3 25/40/24 23/41/22
f 6/42/5 27/43/25 5/44/4
f 25/45/24 29/46/26 26/47/23
f 5/48/4 28/49/27 25/50/24
f 2/1/1 1/51/11 4/2/2
f 5/4/4 3/3/3 4/2/2
f 12/6/6 8/52/16 7/7/7
f 6/9/5 4/53/2 11/10/8
f 14/12/9 12/54/6 11/13/8
f 11/15/8 4/55/2 1/16/11
f 15/18/12 16/56/15 18/19/13
f 16/21/15 9/57/28 8/22/16
f 18/24/13 8/58/16 12/25/6
f 12/27/6 14/59/9 20/28/18
f 21/30/19 23/60/22 24/31/20
f 2/33/1 3/61/3 23/34/22
f 23/36/22 25/62/24 26/37/23
f 3/39/3 5/63/4 25/40/24
f 6/42/5 10/64/29 27/43/25
f 25/45/24 28/65/27 29/46/26
f 5/48/4 27/66/25 28/49/27
