# Blender v2.79 (sub 0) OBJ File: ''
# www.blender.org
mtllib hurricos.096.mtl
o hurricos.096_tex_72.313
v -3.598008 1.389331 -2.865140
v -3.598008 1.111604 -2.865140
v -3.598008 0.815362 -2.865140
v -3.598008 0.537636 -2.865140
v -3.780845 1.389331 -3.047976
v -3.556349 1.389331 -3.270158
v -3.556349 1.111604 -3.270158
v -3.780845 1.111604 -3.047976
v -3.556349 0.815363 -3.270158
v -3.780845 0.815362 -3.047976
v -3.556349 0.537636 -3.270158
v -3.780845 0.537636 -3.047977
vt 0.375000 1.000000
vt 0.437500 0.875000
vt 0.375000 0.875000
vt 0.375000 1.000000
vt 0.437500 0.875000
vt 0.375000 0.875000
vt 0.375000 0.875000
vt 0.437500 1.000000
vt 0.437500 0.875000
vt 0.437500 1.000000
vt 0.437500 1.000000
vt 0.375000 1.000000
vn -0.7034 0.0000 -0.7107
usemtl Material__25
s 1
f 5/1/1 7/2/1 8/3/1
f 8/4/1 9/5/1 10/6/1
f 12/7/1 9/8/1 11/9/1
f 5/1/1 6/10/1 7/2/1
f 8/4/1 7/11/1 9/5/1
f 12/7/1 10/12/1 9/8/1
l 1 2
l 1 5
l 2 3
l 3 4
l 4 12
