# Blender v2.79 (sub 0) OBJ File: ''
# www.blender.org
mtllib hurricos.129.mtl
o hurricos.129_tex_72.346
v -3.697527 0.329341 -4.596303
v -1.876102 0.371001 -5.598433
v -1.876102 0.519122 -5.598433
v -1.832129 0.741303 -5.633149
v -1.795099 0.963484 -5.670179
v -3.785474 0.371001 -5.822929
v -2.688453 0.371001 -5.864588
v -2.336666 0.371001 -5.647035
v -2.072826 0.371001 -5.670179
v -2.843517 0.371001 -5.556775
v -3.225391 0.371001 -5.728039
v -2.570419 0.371001 -5.357737
v -3.047184 0.371001 -5.309135
v -2.836574 0.371001 -5.082325
v -3.681326 0.371001 -5.105469
v -3.787788 0.371001 -5.637778
v -3.479974 0.371001 -5.366994
v -3.500804 0.371001 -4.834685
v -3.267051 0.371001 -5.082325
v -3.341111 0.371000 -4.550015
v -3.077271 0.371001 -4.827742
v -1.871474 0.519121 -4.575473
v -1.748811 0.519122 -4.806912
v -2.054311 0.486720 -4.735167
v -2.031167 0.472834 -5.010579
v -1.887674 0.491349 -5.188787
v -1.822872 0.495978 -5.383195
v -2.269549 0.371000 -4.550015
v -2.077455 0.394144 -4.755996
v -2.089026 0.394144 -5.052238
v -1.929334 0.380258 -5.216559
v -1.876102 0.380258 -5.383195
v -2.387583 0.371001 -4.749053
v -2.656052 0.371001 -4.911060
v -2.607450 0.371001 -4.959662
v -2.232519 0.371001 -4.897173
v -2.234833 0.371001 -5.323021
v -2.413041 0.371001 -5.149442
v -2.033481 0.371001 -5.383195
v -3.567921 0.371000 -4.397265
v -2.683825 1.000514 -4.883287
v -2.635222 0.963484 -4.931890
v -2.683825 0.963484 -4.883287
v -2.461643 1.000514 -4.672678
v -2.413041 0.963484 -4.721280
v -2.607450 0.519122 -4.959662
v -2.387583 0.519122 -4.749053
v -2.621336 0.741303 -4.945776
v -2.399155 0.741303 -4.735167
v -2.656052 0.519122 -4.911060
v -2.669938 0.741303 -4.897173
v -3.315653 0.741303 -4.552330
v -3.341111 0.519121 -4.550015
v -3.065699 0.741303 -4.813856
v -3.077271 0.519122 -4.827742
v -2.838889 0.741303 -5.054552
v -2.836574 0.519122 -5.082325
v -2.838889 0.963484 -5.029094
v -3.287880 0.963484 -4.552330
v -3.051812 0.963484 -4.802284
v -2.915263 1.222696 -4.665734
v -2.568105 1.120863 -4.517614
v -2.755570 1.120863 -4.702765
v -3.276308 0.523750 -5.846073
v -3.234649 0.593182 -5.734982
vt 0.437500 0.625000
vt 0.500000 0.500000
vt 0.437500 0.500000
vt 0.500000 0.625000
vt 0.562500 0.625000
vt 0.500000 0.500000
vt 0.500000 0.625000
vt 0.562500 0.500000
vt 0.500000 0.500000
vt 0.500000 0.625000
vt 0.562500 0.500000
vt 0.500000 0.500000
vt 0.500000 0.625000
vt 0.562500 0.500000
vt 0.500000 0.500000
vt 0.500000 0.625000
vt 0.562500 0.500000
vt 0.500000 0.500000
vt 0.500000 0.625000
vt 0.562500 0.500000
vt 0.500000 0.500000
vt 0.437500 0.500000
vt 0.500000 0.625000
vt 0.500000 0.500000
vt 0.437500 0.625000
vt 0.500000 0.500000
vt 0.437500 0.500000
vt 0.500000 0.625000
vt 0.562500 0.750000
vt 0.562500 0.625000
vt 0.500000 0.750000
vt 0.562500 0.625000
vt 0.500000 0.625000
vt 0.500000 0.750000
vt 0.562500 0.625000
vt 0.500000 0.625000
vt 0.500000 0.750000
vt 0.562500 0.625000
vt 0.500000 0.625000
vt 0.500000 0.625000
vt 0.562500 0.625000
vt 0.562500 0.500000
vt 0.500000 0.500000
vt 0.500000 0.625000
vt 0.562500 0.500000
vt 0.500000 0.500000
vt 0.500000 0.625000
vt 0.562500 0.500000
vt 0.500000 0.500000
vt 0.500000 0.500000
vt 0.562500 0.625000
vt 0.500000 0.500000
vt 0.500000 0.625000
vt 0.562500 0.500000
vt 0.500000 0.500000
vt 0.437500 0.500000
vt 0.500000 0.625000
vt 0.500000 0.500000
vt 0.500000 0.500000
vt 0.562500 0.625000
vt 0.562500 0.500000
vt 0.562500 0.625000
vt 0.500000 0.500000
vt 0.562500 0.500000
vt 0.500000 0.500000
vt 0.562500 0.625000
vt 0.500000 0.625000
vt 0.312500 0.875000
vt 0.375000 0.875000
vt 0.312500 0.750000
vt 0.312500 0.750000
vt 0.375000 0.875000
vt 0.375000 0.750000
vt 0.062500 0.875000
vt 0.125000 0.750000
vt 0.062500 0.750000
vt 0.062500 0.875000
vt 0.125000 0.750000
vt 0.062500 0.750000
vt 0.312500 0.875000
vt 0.375000 0.750000
vt 0.312500 0.750000
vt 0.312500 0.750000
vt 0.375000 0.875000
vt 0.375000 0.750000
vt 0.312500 0.750000
vt 0.375000 0.750000
vt 0.125000 0.750000
vt 0.187500 0.875000
vt 0.187500 0.750000
vt 0.125000 0.750000
vt 0.187500 0.625000
vt 0.125000 0.625000
vt 0.125000 0.625000
vt 0.187500 0.750000
vt 0.187500 0.625000
vt 0.312500 0.750000
vt 0.375000 0.625000
vt 0.312500 0.625000
vt 0.125000 0.750000
vt 0.187500 0.625000
vt 0.125000 0.625000
vt 0.062500 0.750000
vt 0.125000 0.625000
vt 0.062500 0.625000
vt 0.062500 0.625000
vt 0.125000 0.750000
vt 0.125000 0.625000
vt 0.312500 1.000000
vt 0.375000 0.875000
vt 0.312500 0.875000
vt 0.312500 1.000000
vt 0.375000 0.875000
vt 0.312500 0.875000
vt 0.500000 1.000000
vt 0.562500 0.875000
vt 0.500000 0.875000
vt 0.375000 0.750000
vt 0.437500 0.625000
vt 0.375000 0.625000
vt 0.437500 0.625000
vt 0.375000 0.625000
vt 0.437500 0.750000
vt 0.375000 0.625000
vt 0.375000 0.750000
vt 0.437500 0.750000
vt 0.437500 0.750000
vt 0.437500 0.625000
vt 0.750000 1.000000
vt 0.812500 1.000000
vt 0.750000 0.875000
vt 0.562500 0.625000
vt 0.562500 0.625000
vt 0.562500 0.625000
vt 0.562500 0.625000
vt 0.437500 0.625000
vt 0.500000 0.625000
vt 0.500000 0.750000
vt 0.562500 0.750000
vt 0.562500 0.750000
vt 0.562500 0.750000
vt 0.562500 0.625000
vt 0.562500 0.625000
vt 0.562500 0.625000
vt 0.437500 0.625000
vt 0.500000 0.625000
vt 0.125000 0.875000
vt 0.125000 0.875000
vt 0.375000 0.875000
vt 0.312500 0.875000
vt 0.312500 0.875000
vt 0.125000 0.875000
vt 0.187500 0.750000
vt 0.125000 0.750000
vt 0.375000 0.750000
vt 0.187500 0.750000
vt 0.125000 0.750000
vt 0.062500 0.750000
vt 0.375000 1.000000
vt 0.375000 1.000000
vt 0.562500 1.000000
vt 0.437500 0.750000
vt 0.375000 0.750000
vn 0.0000 1.0000 0.0000
vn -0.0116 0.9047 -0.4258
vn -0.2069 0.9749 0.0814
vn -0.0340 0.9992 0.0191
vn -0.5134 0.7068 -0.4866
vn -0.3908 0.8591 -0.3304
vn -0.1196 0.9909 -0.0618
vn -0.5175 0.8512 -0.0875
vn -0.1200 0.9907 -0.0636
vn -0.5504 0.8338 -0.0415
vn -0.6533 0.7215 -0.2294
vn -0.3278 0.9335 -0.1453
vn -0.5120 0.8074 -0.2932
vn -0.8117 0.4093 -0.4165
vn -0.5935 0.7967 -0.1137
vn -0.9370 0.3371 -0.0914
vn -0.5822 0.8089 0.0822
vn -0.0107 0.5787 -0.8154
vn -0.0046 0.9020 -0.4317
vn -0.0187 0.9998 -0.0027
vn -0.0776 0.9969 -0.0052
vn -0.0223 0.9995 -0.0231
vn -0.0127 0.9996 -0.0262
vn 0.2559 0.9162 -0.3083
vn -0.0734 0.9963 0.0435
vn -0.1124 0.9932 -0.0285
vn -0.0965 0.9850 -0.1433
vn 0.2859 0.7059 -0.6480
vn 0.0204 0.4333 -0.9010
vn -0.0021 0.0311 -0.9995
vn 0.3557 0.8580 -0.3705
vn 0.5763 0.5462 -0.6079
vn 0.0025 0.0313 -0.9995
vn -0.0144 0.0605 -0.9980
vn 0.6900 0.0420 -0.7226
vn -0.0291 0.0318 -0.9991
vn -0.0190 0.0604 -0.9980
vn 0.6855 0.0844 -0.7231
vn -0.7211 0.0833 -0.6877
vn -0.7251 0.0396 -0.6875
vn -0.7245 0.0368 -0.6883
vn -0.0336 0.1176 -0.9925
vn -0.0244 0.0603 -0.9979
vn -0.0303 0.4264 -0.9040
vn -0.7009 0.2561 -0.6657
vn -0.7238 0.0813 -0.6852
vn 0.3677 0.8182 -0.4420
vn -0.6812 0.3529 -0.6414
vn -0.2538 0.7610 -0.5970
vn -0.9302 -0.0273 0.3659
vn -0.9707 0.0000 0.2401
vn 0.3830 0.8384 -0.3878
usemtl Material__25
s 1
f 10/1/1 14/2/2 12/3/1
f 11/4/3 13/5/1 10/6/1
f 8/7/1 10/8/1 12/9/1
f 19/10/1 15/11/1 18/12/4
f 21/13/5 18/14/4 20/15/6
f 14/16/2 19/17/1 21/18/5
f 13/19/1 17/20/1 19/21/1
f 11/22/3 16/23/1 17/24/1
f 23/25/7 24/26/8 22/27/9
f 29/28/10 25/29/11 30/30/12
f 25/31/11 31/32/13 30/33/12
f 26/34/14 32/35/15 31/36/13
f 27/37/16 2/38/17 32/39/15
f 34/40/18 35/41/19 14/2/2
f 30/33/12 38/42/20 36/43/21
f 2/44/17 39/45/22 32/46/15
f 9/47/1 37/48/23 39/49/22
f 31/36/13 37/48/23 30/50/12
f 32/39/15 39/51/22 31/52/13
f 37/53/23 12/54/1 38/55/20
f 36/56/21 35/57/19 33/58/24
f 35/59/19 12/60/1 14/61/2
f 30/33/12 36/62/21 29/63/10
f 29/28/10 33/64/24 28/65/25
f 20/15/6 1/66/26 40/67/27
f 41/68/28 42/69/29 43/70/30
f 42/71/29 44/72/31 45/73/32
f 46/74/33 33/75/24 35/76/19
f 48/77/34 47/78/35 46/79/33
f 50/80/36 35/81/19 34/82/18
f 50/83/36 48/84/34 46/85/33
f 51/86/37 42/69/29 48/87/34
f 48/88/34 45/89/32 49/90/38
f 52/91/39 55/92/40 53/93/41
f 55/94/40 56/95/42 57/96/43
f 58/97/44 51/98/37 56/99/42
f 56/100/42 50/101/36 57/102/43
f 59/103/45 54/104/46 52/105/39
f 54/106/46 58/107/44 56/108/42
f 53/109/41 21/110/5 20/111/6
f 55/112/40 14/113/2 21/114/5
f 57/115/43 34/116/18 14/117/2
f 63/118/47 44/119/31 41/120/28
f 60/121/48 59/122/45 61/123/49
f 61/123/49 58/124/44 60/121/48
f 41/125/28 43/126/30 58/124/44
f 58/124/44 63/127/47 41/128/28
f 11/129/3 65/130/50 64/131/50
f 10/1/1 13/19/1 14/2/2
f 8/7/1 7/132/1 10/8/1
f 19/10/1 17/133/1 15/11/1
f 21/13/5 19/134/1 18/14/4
f 14/16/2 13/5/1 19/17/1
f 13/19/1 11/135/3 17/20/1
f 11/22/3 6/136/1 16/23/1
f 23/25/7 25/137/11 24/26/8
f 29/28/10 24/138/8 25/29/11
f 25/31/11 26/139/14 31/32/13
f 26/34/14 27/140/16 32/35/15
f 27/37/16 3/141/51 2/38/17
f 30/33/12 37/142/23 38/42/20
f 2/44/17 9/143/1 39/45/22
f 9/47/1 8/144/1 37/48/23
f 31/36/13 39/51/22 37/48/23
f 37/53/23 8/144/1 12/54/1
f 36/56/21 38/145/20 35/57/19
f 35/59/19 38/146/20 12/60/1
f 29/28/10 36/62/21 33/64/24
f 20/15/6 18/14/4 1/66/26
f 42/71/29 41/68/28 44/72/31
f 46/74/33 47/147/35 33/75/24
f 48/77/34 49/148/38 47/78/35
f 50/80/36 46/149/33 35/81/19
f 50/83/36 51/150/37 48/84/34
f 51/86/37 43/151/30 42/69/29
f 48/88/34 42/152/29 45/89/32
f 52/91/39 54/153/46 55/92/40
f 55/94/40 54/154/46 56/95/42
f 58/97/44 43/155/30 51/98/37
f 56/100/42 51/156/37 50/101/36
f 59/103/45 60/157/48 54/104/46
f 54/106/46 60/158/48 58/107/44
f 53/109/41 55/159/40 21/110/5
f 55/112/40 57/160/43 14/113/2
f 57/115/43 50/161/36 34/116/18
f 63/118/47 62/162/52 44/119/31
f 58/124/44 61/163/49 63/127/47
l 3 4
l 4 5
