# Blender v2.79 (sub 0) OBJ File: ''
# www.blender.org
mtllib hurricos.107.mtl
o hurricos.107_tex_72.324
v 2.984115 0.815363 -4.788397
v 3.018830 1.106976 -4.779140
v 3.092891 1.417105 -4.760624
v 3.125293 1.435620 -4.545386
v 3.046603 1.106976 -4.591674
v 3.009573 0.815363 -4.612504
v 2.576782 1.430991 -4.480583
v 2.613812 1.435620 -4.288489
v 2.667044 1.444877 -4.712022
v 2.833679 1.458763 -4.526871
v 2.986429 1.458763 -4.355606
v 2.717960 1.454135 -4.779140
v 2.928570 1.426362 -4.658791
v 2.995687 0.519121 -3.182211
v 4.530127 0.667242 -3.702949
v 4.479210 0.667242 -3.550199
v 4.613444 0.667242 -3.448366
v 4.592615 0.519121 -3.436794
v 4.456066 0.519121 -3.543256
v 4.511612 0.519121 -3.719150
v 4.226942 0.519121 -4.283861
v 4.534756 0.519121 -4.404209
v 4.416721 0.482091 -4.556958
v 4.011703 0.482091 -4.466697
v 3.933014 0.519121 -3.388192
v 4.229257 0.519121 -3.749237
v 3.933014 0.472834 -3.726093
v 4.115851 0.519121 -3.323389
v 3.636772 0.519121 -3.420593
v 3.340530 0.519121 -3.429851
v 3.044289 0.519121 -3.478453
v 2.711017 0.519121 -3.672862
v 3.636772 0.519121 -3.726093
v 3.340530 0.495977 -3.726093
v 3.044289 0.519121 -3.726093
v 4.446809 0.519121 -4.075565
v 4.229257 0.542265 -4.038535
v 3.933014 0.519121 -4.022335
v 3.636772 0.519121 -4.022335
v 3.340530 0.519121 -4.022335
v 3.044289 0.519121 -4.022335
v 2.720274 0.519121 -4.033906
v 3.963101 0.519121 -4.327834
v 3.657602 0.519121 -4.378750
v 3.659917 -0.073362 -4.545386
v 3.657602 0.222880 -4.434296
v 4.000132 0.222880 -4.501413
v 3.949215 -0.073362 -4.593988
v 4.382006 0.222880 -4.633333
v 4.347290 -0.073362 -4.698136
v 2.866081 0.671871 -3.184525
v 2.646214 0.671871 -3.559457
v 2.590669 0.889424 -4.401894
v 3.004944 0.519121 -4.311633
v 3.051232 0.519122 -4.621761
v 2.947084 0.519121 -4.408837
v 3.319701 0.509864 -4.332463
v 2.667044 0.519121 -4.360235
v 3.423849 0.463576 -4.469012
v 2.896168 0.847765 -4.457439
v 2.597611 1.190294 -4.364864
v 2.923941 1.144006 -4.425038
v 3.122978 0.222880 -4.642591
v 3.210925 -0.073362 -4.718966
v 3.435421 0.222880 -4.515299
v 3.435421 -0.073362 -4.614818
vt 0.187500 0.625000
vt 0.250000 0.500000
vt 0.187500 0.500000
vt 0.000000 1.000000
vt 0.062500 0.875000
vt 0.000000 0.875000
vt 0.500000 0.625000
vt 0.562500 0.500000
vt 0.500000 0.500000
vt 0.500000 0.500000
vt 0.562500 0.625000
vt 0.562500 0.500000
vt 0.500000 0.500000
vt 0.562500 0.625000
vt 0.562500 0.500000
vt 0.562500 0.625000
vt 0.500000 0.750000
vt 0.500000 0.625000
vt 0.500000 0.625000
vt 0.562500 0.750000
vt 0.500000 0.750000
vt 0.500000 0.500000
vt 0.562500 0.625000
vt 0.562500 0.500000
vt 0.500000 0.625000
vt 0.562500 0.625000
vt 0.500000 0.500000
vt 0.500000 0.625000
vt 0.562500 0.625000
vt 0.500000 0.500000
vt 0.562500 0.625000
vt 0.500000 0.500000
vt 0.500000 0.625000
vt 0.562500 0.500000
vt 0.500000 0.500000
vt 0.562500 0.625000
vt 0.562500 0.500000
vt 0.500000 0.500000
vt 0.562500 0.625000
vt 0.562500 0.500000
vt 0.500000 0.500000
vt 0.562500 0.500000
vt 0.500000 0.625000
vt 0.562500 0.625000
vt 0.500000 0.500000
vt 0.562500 0.500000
vt 0.500000 0.625000
vt 0.562500 0.500000
vt 0.500000 0.500000
vt 0.500000 0.500000
vt 0.562500 0.625000
vt 0.562500 0.500000
vt 0.500000 0.625000
vt 0.562500 0.500000
vt 0.500000 0.500000
vt 0.500000 0.500000
vt 0.562500 0.500000
vt 0.437500 0.625000
vt 0.500000 0.500000
vt 0.437500 0.500000
vt 0.500000 0.625000
vt 0.562500 0.625000
vt 0.437500 0.500000
vt 0.500000 0.500000
vt 0.562500 0.625000
vt 0.562500 0.500000
vt 0.500000 0.625000
vt 0.562500 0.625000
vt 0.500000 0.500000
vt 0.500000 0.625000
vt 0.562500 0.625000
vt 0.000000 0.750000
vt 0.062500 0.625000
vt 0.000000 0.625000
vt 0.187500 0.500000
vt 0.250000 0.625000
vt 0.250000 0.500000
vt 0.000000 0.750000
vt 0.062500 0.625000
vt 0.000000 0.625000
vt 0.187500 0.625000
vt 0.250000 0.500000
vt 0.187500 0.500000
vt 0.125000 0.625000
vt 0.187500 0.750000
vt 0.187500 0.625000
vt 0.500000 0.625000
vt 0.562500 0.625000
vt 0.500000 0.500000
vt 0.437500 0.625000
vt 0.437500 0.500000
vt 0.500000 0.500000
vt 0.562500 0.625000
vt 0.562500 0.500000
vt 0.437500 0.500000
vt 0.500000 0.625000
vt 0.500000 0.500000
vt 0.500000 0.625000
vt 0.562500 0.625000
vt 0.500000 0.500000
vt 0.437500 0.625000
vt 0.437500 0.500000
vt 0.500000 0.625000
vt 0.562500 0.625000
vt 0.875000 0.625000
vt 0.937500 0.750000
vt 0.875000 0.750000
vt 0.812500 0.750000
vt 0.875000 0.625000
vt 0.812500 0.625000
vt 0.187500 0.500000
vt 0.250000 0.625000
vt 0.250000 0.500000
vt 0.000000 1.000000
vt 0.062500 0.875000
vt 0.000000 0.875000
vt 0.187500 0.625000
vt 0.250000 0.500000
vt 0.187500 0.500000
vt 0.000000 1.000000
vt 0.062500 0.875000
vt 0.000000 0.875000
vt 0.000000 0.625000
vt 0.062500 0.750000
vt 0.062500 0.625000
vt 0.187500 0.500000
vt 0.250000 0.625000
vt 0.250000 0.500000
vt 0.000000 0.750000
vt 0.062500 0.625000
vt 0.000000 0.625000
vt 0.187500 0.625000
vt 0.250000 0.500000
vt 0.187500 0.500000
vt 0.250000 0.625000
vt 0.062500 1.000000
vt 0.562500 0.625000
vt 0.500000 0.625000
vt 0.500000 0.625000
vt 0.562500 0.750000
vt 0.562500 0.625000
vt 0.500000 0.625000
vt 0.562500 0.625000
vt 0.500000 0.625000
vt 0.500000 0.625000
vt 0.500000 0.625000
vt 0.562500 0.625000
vt 0.500000 0.625000
vt 0.562500 0.625000
vt 0.500000 0.625000
vt 0.500000 0.625000
vt 0.437500 0.625000
vt 0.062500 0.750000
vt 0.187500 0.625000
vt 0.062500 0.750000
vt 0.250000 0.625000
vt 0.125000 0.750000
vt 0.437500 0.625000
vt 0.937500 0.625000
vt 0.875000 0.750000
vt 0.187500 0.625000
vt 0.062500 1.000000
vt 0.250000 0.625000
vt 0.062500 1.000000
vt 0.000000 0.750000
vt 0.187500 0.625000
vt 0.062500 0.750000
vt 0.250000 0.625000
vn 0.9673 -0.2165 -0.1323
vn 0.9476 -0.1998 0.2492
vn 0.9756 -0.1656 -0.1439
vn 0.9401 -0.0163 0.3403
vn 0.0635 0.5792 0.8127
vn 0.0223 0.9970 -0.0743
vn -0.1080 0.9941 -0.0031
vn 0.0616 0.9971 0.0441
vn 0.0768 0.9860 -0.1478
vn 0.0365 0.9858 0.1636
vn 0.9387 0.2585 0.2278
vn -0.6033 0.1393 0.7852
vn -0.9409 0.1701 0.2926
vn -0.6172 0.7631 0.1914
vn -0.4380 0.8876 -0.1423
vn -0.9377 0.1514 -0.3126
vn -0.0137 0.9923 -0.1227
vn -0.1419 0.8025 -0.5796
vn -0.1384 0.6839 -0.7163
vn -0.0273 0.9958 -0.0866
vn -0.0385 0.9990 0.0208
vn -0.0168 0.9996 0.0229
vn 0.4984 0.8173 -0.2892
vn 0.0168 0.9998 -0.0142
vn 0.2479 0.9579 -0.1449
vn 0.0000 1.0000 0.0000
vn 0.0414 0.9984 -0.0385
vn 0.0386 0.9991 0.0194
vn -0.0143 0.9983 -0.0568
vn -0.0090 0.9999 0.0086
vn 0.0292 0.9995 0.0097
vn 0.0720 0.9973 -0.0092
vn -0.0177 0.9990 0.0399
vn 0.0141 0.9999 -0.0040
vn 0.0000 1.0000 0.0045
vn -0.0038 1.0000 -0.0039
vn 0.0040 1.0000 -0.0045
vn 0.0205 0.9922 -0.1230
vn 0.0070 0.8268 -0.5625
vn 0.0700 0.2599 -0.9631
vn -0.2024 0.3303 -0.9219
vn 0.0756 0.3405 -0.9372
vn -0.2442 0.2228 -0.9438
vn -0.2850 0.2756 -0.9180
vn -0.2829 0.2418 -0.9281
vn 0.6985 0.5892 -0.4061
vn 0.0134 0.9999 0.0000
vn 0.6826 0.7047 -0.1932
vn 0.2944 0.8658 0.4046
vn 0.0414 0.9947 -0.0938
vn 0.2460 0.6328 -0.7342
vn 0.1251 0.7329 0.6687
vn 0.5223 0.0250 0.8524
vn 0.4941 -0.2188 0.8414
vn 0.1463 -0.2217 0.9640
vn 0.1784 -0.0073 0.9839
vn 0.3783 0.3123 -0.8714
vn 0.3469 0.2564 -0.9022
vn 0.3470 0.2987 -0.8890
vn 0.3741 0.2427 -0.8950
vn 0.9834 -0.1125 -0.1423
vn 0.4603 0.5484 0.6981
vn -0.5979 0.1456 0.7882
vn -0.0714 0.9806 -0.1826
vn 0.6929 0.5956 -0.4063
usemtl Material__25
s 1
f 3/1/1 5/2/2 2/3/3
f 6/4/4 2/5/3 5/6/2
f 8/7/5 10/8/6 7/9/7
f 9/10/8 13/11/9 12/12/10
f 10/13/6 4/14/11 13/15/9
f 18/16/12 16/17/13 19/18/14
f 20/19/15 16/20/13 15/21/16
f 21/22/17 23/23/18 24/24/19
f 25/25/20 26/26/21 27/27/22
f 14/28/23 31/29/24 32/30/25
f 19/18/14 20/31/15 26/32/21
f 26/33/21 28/34/26 19/35/14
f 27/27/22 29/36/27 25/37/20
f 33/38/28 30/39/29 29/40/27
f 34/41/30 31/29/24 30/42/29
f 31/43/24 35/44/31 32/30/25
f 36/45/32 26/26/21 20/46/15
f 38/47/33 26/48/21 37/49/34
f 38/50/33 33/51/28 27/52/22
f 40/53/35 33/54/28 39/55/36
f 40/56/35 35/44/31 34/57/30
f 42/58/26 35/59/31 41/60/37
f 37/61/34 36/62/32 21/22/17
f 21/63/17 38/47/33 37/49/34
f 43/64/38 39/65/36 38/66/33
f 43/67/38 21/68/17 24/69/19
f 44/70/39 43/71/38 24/69/19
f 46/72/40 48/73/41 45/74/42
f 46/75/40 24/76/19 47/77/43
f 47/78/43 50/79/44 48/80/41
f 24/81/19 49/82/45 47/83/43
f 32/84/25 51/85/46 14/86/23
f 54/87/47 55/88/48 56/89/49
f 57/90/50 39/55/36 44/91/39
f 57/92/50 41/93/37 40/94/35
f 54/95/47 42/96/26 41/97/37
f 57/98/50 44/99/39 59/100/51
f 55/101/48 57/92/50 59/102/51
f 58/103/52 54/104/47 56/89/49
f 56/105/49 6/106/4 60/107/53
f 60/108/53 58/109/52 56/110/49
f 62/111/54 8/112/5 61/113/55
f 53/114/56 62/115/54 61/116/55
f 4/117/11 62/118/54 5/119/2
f 60/120/53 5/121/2 62/122/54
f 64/123/57 65/124/58 66/125/59
f 63/126/60 59/127/51 65/128/58
f 65/129/58 45/130/42 66/131/59
f 59/132/51 46/133/40 65/134/58
f 3/1/1 4/135/11 5/2/2
f 6/4/4 1/136/61 2/5/3
f 8/7/5 11/137/62 10/8/6
f 9/10/8 10/138/6 13/11/9
f 10/13/6 11/139/62 4/14/11
f 18/16/12 17/140/63 16/17/13
f 20/19/15 19/141/14 16/20/13
f 21/22/17 22/142/64 23/23/18
f 26/33/21 25/143/20 28/34/26
f 27/27/22 33/144/28 29/36/27
f 33/38/28 34/145/30 30/39/29
f 34/41/30 35/146/31 31/29/24
f 36/45/32 37/61/34 26/26/21
f 38/47/33 27/147/22 26/48/21
f 38/50/33 39/148/36 33/51/28
f 40/53/35 34/149/30 33/54/28
f 40/56/35 41/150/37 35/44/31
f 42/58/26 32/151/25 35/59/31
f 21/63/17 43/152/38 38/47/33
f 43/64/38 44/70/39 39/65/36
f 46/72/40 47/153/43 48/73/41
f 46/75/40 44/154/39 24/76/19
f 47/78/43 49/155/45 50/79/44
f 24/81/19 23/156/18 49/82/45
f 32/84/25 52/157/65 51/85/46
f 57/90/50 40/53/35 39/55/36
f 57/92/50 54/87/47 41/93/37
f 54/95/47 58/158/52 42/96/26
f 55/101/48 54/87/47 57/92/50
f 56/105/49 55/159/48 6/106/4
f 60/108/53 53/160/56 58/109/52
f 62/111/54 11/161/62 8/112/5
f 53/114/56 60/162/53 62/115/54
f 4/117/11 11/163/62 62/118/54
f 60/120/53 6/164/4 5/121/2
f 64/123/57 63/165/60 65/124/58
f 63/126/60 55/166/48 59/127/51
f 65/129/58 46/167/40 45/130/42
f 59/132/51 44/168/39 46/133/40
