# Blender v2.79 (sub 0) OBJ File: ''
# www.blender.org
mtllib hurricos.100.mtl
o hurricos.100_tex_72.317
v -5.206509 2.000329 -3.089635
v -5.238910 2.000329 -3.209984
v -5.157907 2.055876 -3.293302
v -5.095418 2.055876 -3.059548
v -5.123191 2.171594 -3.328018
v -5.049130 2.171594 -3.045662
v -5.120876 2.273427 -3.330332
v -5.044501 2.273427 -3.045661
v -5.296770 2.000329 -2.999374
v -5.266683 2.055876 -2.888284
v -5.160221 2.379889 -3.288672
v -5.100047 2.379889 -3.059547
v -5.238910 2.444692 -3.209984
v -5.206509 2.444692 -3.089634
v -5.361573 2.000329 -3.244699
v -5.391660 2.055876 -3.355790
v -5.403232 2.171594 -3.404392
v -5.405546 2.273427 -3.406707
v -5.255111 2.171594 -2.841996
v -5.389346 2.379889 -3.351161
v -5.361573 2.444692 -3.244699
v -5.451834 2.000329 -3.154438
v -5.562924 2.055876 -3.184525
v -5.609212 2.171594 -3.198412
v -5.613841 2.273427 -3.198411
v -5.252797 2.273427 -2.837367
v -5.558296 2.379889 -3.184525
v -5.451834 2.444692 -3.154438
v -5.419433 2.000329 -3.034090
v -5.500436 2.055876 -2.950772
v -5.535152 2.171594 -2.916056
v -5.537466 2.273427 -2.913742
v -5.268997 2.379889 -2.892911
v -5.296770 2.444692 -2.999373
v -5.498122 2.379889 -2.955400
v -5.419433 2.444692 -3.034090
v -5.447205 1.833694 -3.004003
v -5.285198 1.833694 -2.962344
v -5.488864 1.833694 -3.166010
v -5.370831 1.833694 -3.281730
v -5.169478 1.833694 -3.078063
v -5.211137 1.833694 -3.240071
vt 0.312500 0.875000
vt 0.375000 0.750000
vt 0.312500 0.750000
vt 0.312500 0.750000
vt 0.375000 0.875000
vt 0.375000 0.750000
vt 0.312500 0.875000
vt 0.375000 0.750000
vt 0.312500 0.750000
vt 0.312500 0.875000
vt 0.375000 0.750000
vt 0.312500 0.750000
vt 0.312500 0.750000
vt 0.375000 0.875000
vt 0.375000 0.750000
vt 0.312500 0.875000
vt 0.375000 0.750000
vt 0.312500 0.750000
vt 0.312500 0.875000
vt 0.375000 0.750000
vt 0.312500 0.750000
vt 0.312500 0.750000
vt 0.375000 0.875000
vt 0.375000 0.750000
vt 0.312500 0.875000
vt 0.375000 0.750000
vt 0.312500 0.750000
vt 0.312500 0.750000
vt 0.375000 0.875000
vt 0.375000 0.750000
vt 0.312500 0.750000
vt 0.375000 0.875000
vt 0.375000 0.750000
vt 0.312500 0.750000
vt 0.375000 0.875000
vt 0.375000 0.750000
vt 0.312500 0.750000
vt 0.375000 0.875000
vt 0.375000 0.750000
vt 0.312500 0.750000
vt 0.375000 0.875000
vt 0.375000 0.750000
vt 0.312500 0.875000
vt 0.375000 0.750000
vt 0.312500 0.750000
vt 0.312500 0.875000
vt 0.375000 0.750000
vt 0.312500 0.750000
vt 0.312500 0.750000
vt 0.375000 0.875000
vt 0.375000 0.750000
vt 0.312500 0.875000
vt 0.375000 0.750000
vt 0.312500 0.750000
vt 0.312500 0.875000
vt 0.375000 0.750000
vt 0.312500 0.750000
vt 0.312500 0.750000
vt 0.375000 0.875000
vt 0.375000 0.750000
vt 0.312500 0.875000
vt 0.375000 0.750000
vt 0.312500 0.750000
vt 0.312500 0.875000
vt 0.375000 0.750000
vt 0.312500 0.750000
vt 0.312500 0.750000
vt 0.375000 0.875000
vt 0.375000 0.750000
vt 0.312500 0.875000
vt 0.375000 0.750000
vt 0.312500 0.750000
vt 0.312500 0.875000
vt 0.375000 0.750000
vt 0.312500 0.750000
vt 0.312500 0.750000
vt 0.375000 0.875000
vt 0.375000 0.750000
vt 0.312500 0.875000
vt 0.375000 0.750000
vt 0.312500 0.750000
vt 0.312500 0.750000
vt 0.375000 0.875000
vt 0.375000 0.750000
vt 0.312500 0.750000
vt 0.375000 0.875000
vt 0.375000 0.750000
vt 0.312500 0.750000
vt 0.375000 0.875000
vt 0.375000 0.750000
vt 0.375000 0.875000
vt 0.437500 0.750000
vt 0.375000 0.750000
vt 0.375000 0.875000
vt 0.437500 0.750000
vt 0.375000 0.750000
vt 0.375000 0.750000
vt 0.437500 0.875000
vt 0.437500 0.750000
vt 0.375000 0.875000
vt 0.437500 0.750000
vt 0.375000 0.750000
vt 0.375000 0.750000
vt 0.437500 0.875000
vt 0.437500 0.750000
vt 0.375000 0.875000
vt 0.437500 0.750000
vt 0.375000 0.750000
vt 0.375000 0.875000
vt 0.312500 0.875000
vt 0.375000 0.875000
vt 0.375000 0.875000
vt 0.312500 0.875000
vt 0.375000 0.875000
vt 0.375000 0.875000
vt 0.312500 0.875000
vt 0.375000 0.875000
vt 0.312500 0.875000
vt 0.312500 0.875000
vt 0.312500 0.875000
vt 0.312500 0.875000
vt 0.312500 0.875000
vt 0.375000 0.875000
vt 0.375000 0.875000
vt 0.312500 0.875000
vt 0.375000 0.875000
vt 0.375000 0.875000
vt 0.312500 0.875000
vt 0.375000 0.875000
vt 0.375000 0.875000
vt 0.312500 0.875000
vt 0.375000 0.875000
vt 0.375000 0.875000
vt 0.312500 0.875000
vt 0.375000 0.875000
vt 0.312500 0.875000
vt 0.312500 0.875000
vt 0.312500 0.875000
vt 0.437500 0.875000
vt 0.437500 0.875000
vt 0.375000 0.875000
vt 0.437500 0.875000
vt 0.375000 0.875000
vt 0.437500 0.875000
vn 0.6047 -0.5338 -0.5911
vn 0.7459 -0.6356 0.1988
vn 0.8170 -0.5346 0.2160
vn 0.6942 -0.2039 -0.6903
vn 0.9433 -0.2070 0.2596
vn 0.9454 0.2066 0.2521
vn 0.2005 -0.6338 0.7470
vn 0.2157 -0.5340 0.8174
vn 0.5390 0.6537 -0.5311
vn 0.7299 0.6534 0.2009
vn 0.4879 0.8633 0.1288
vn -0.2127 -0.5375 -0.8159
vn 0.5451 -0.6385 -0.5433
vn -0.2488 -0.2041 -0.9468
vn 0.6909 0.2123 -0.6911
vn 0.2485 -0.2077 0.9461
vn -0.1896 0.6547 -0.7317
vn -0.1280 0.8629 -0.4888
vn 0.3591 0.8641 -0.3525
vn -0.7459 -0.6356 -0.1988
vn -0.2016 -0.6400 -0.7414
vn -0.9434 -0.2069 -0.2589
vn -0.2556 0.2151 -0.9425
vn 0.2540 0.2055 0.9451
vn -0.7299 0.6534 -0.2009
vn -0.6081 -0.5309 0.5901
vn -0.8170 -0.5346 -0.2160
vn -0.6916 -0.2038 0.6929
vn -0.9454 0.2066 -0.2521
vn 0.1280 0.8629 0.4888
vn 0.1896 0.6547 0.7317
vn -0.5390 0.6537 0.5311
vn -0.4879 0.8633 -0.1288
vn -0.5441 -0.6377 0.5452
vn -0.6899 0.2111 0.6924
vn -0.3591 0.8641 0.3525
vn -0.6888 0.2326 0.6866
vn -0.9386 0.2269 -0.2597
vn 0.2590 0.2266 0.9389
vn -0.2460 0.2282 -0.9420
vn 0.9388 0.2293 0.2569
vn 0.6859 0.2384 -0.6875
usemtl Material__25
s 1
f 2/1/1 4/2/2 1/3/3
f 4/4/2 5/5/4 6/6/5
f 5/7/4 8/8/6 6/9/5
f 1/10/3 10/11/7 9/12/8
f 8/13/6 11/14/9 12/15/10
f 11/16/9 14/17/11 12/18/10
f 15/19/12 3/20/13 2/21/1
f 3/22/13 17/23/14 5/24/4
f 17/25/14 7/26/15 5/27/4
f 10/28/7 6/29/5 19/30/16
f 7/31/15 20/32/17 11/33/9
f 11/34/9 21/35/18 13/36/19
f 15/37/12 23/38/20 16/39/21
f 16/40/21 24/41/22 17/42/14
f 24/43/22 18/44/23 17/45/14
f 6/46/5 26/47/24 19/48/16
f 18/49/23 27/50/25 20/51/17
f 27/52/25 21/53/18 20/54/17
f 29/55/26 23/56/20 22/57/27
f 23/58/20 31/59/28 24/60/22
f 31/61/28 25/62/29 24/63/22
f 12/64/10 34/65/30 33/66/31
f 25/67/29 35/68/32 27/69/25
f 35/70/32 28/71/33 27/72/25
f 9/73/8 30/74/34 29/75/26
f 30/76/34 19/77/16 31/78/28
f 19/79/16 32/80/35 31/81/28
f 26/82/24 12/83/10 33/84/31
f 32/85/35 33/86/31 35/87/32
f 35/88/32 34/89/30 36/90/36
f 37/91/37 9/92/8 29/93/26
f 39/94/38 29/95/26 22/96/27
f 15/97/12 39/98/38 22/99/27
f 38/100/39 1/101/3 9/102/8
f 2/103/1 40/104/40 15/105/12
f 41/106/41 2/107/1 1/108/3
f 2/1/1 3/109/13 4/2/2
f 4/4/2 3/110/13 5/5/4
f 5/7/4 7/111/15 8/8/6
f 1/10/3 4/112/2 10/11/7
f 8/13/6 7/113/15 11/14/9
f 11/16/9 13/114/19 14/17/11
f 15/19/12 16/115/21 3/20/13
f 3/22/13 16/116/21 17/23/14
f 17/25/14 18/117/23 7/26/15
f 10/28/7 4/118/2 6/29/5
f 7/31/15 18/119/23 20/32/17
f 11/34/9 20/120/17 21/35/18
f 15/37/12 22/121/27 23/38/20
f 16/40/21 23/122/20 24/41/22
f 24/43/22 25/123/29 18/44/23
f 6/46/5 8/124/6 26/47/24
f 18/49/23 25/125/29 27/50/25
f 27/52/25 28/126/33 21/53/18
f 29/55/26 30/127/34 23/56/20
f 23/58/20 30/128/34 31/59/28
f 31/61/28 32/129/35 25/62/29
f 12/64/10 14/130/11 34/65/30
f 25/67/29 32/131/35 35/68/32
f 35/70/32 36/132/36 28/71/33
f 9/73/8 10/133/7 30/74/34
f 30/76/34 10/134/7 19/77/16
f 19/79/16 26/135/24 32/80/35
f 26/82/24 8/136/6 12/83/10
f 32/85/35 26/137/24 33/86/31
f 35/88/32 33/138/31 34/89/30
f 37/91/37 38/139/39 9/92/8
f 39/94/38 37/140/37 29/95/26
f 15/97/12 40/141/40 39/98/38
f 38/100/39 41/142/41 1/101/3
f 2/103/1 42/143/42 40/104/40
f 41/106/41 42/144/42 2/107/1
