# Blender v2.79 (sub 0) OBJ File: ''
# www.blender.org
mtllib hurricos.119.mtl
o hurricos.119_tex_72.336
v 7.191675 0.644099 -4.846257
v 7.198618 0.667242 -5.080010
v 7.221762 0.667242 -5.589176
v 7.682325 0.667242 -4.887916
v 7.585121 0.667242 -4.714337
v 7.552719 0.667242 -5.026779
v 7.420799 0.667242 -5.068439
v 7.288879 0.667242 -5.542888
v 7.661495 0.667242 -4.978177
v 7.934593 0.667242 -5.017522
v 8.022539 0.667242 -5.329964
v 7.892935 0.667242 -5.200358
v 7.865162 0.667242 -5.082325
v 7.629093 0.667242 -5.716467
v 7.640665 0.667242 -5.804414
v 7.774900 0.667242 -4.663420
v 8.027168 0.667242 -4.793026
v 7.318966 0.667242 -4.577788
v 7.615208 0.667242 -5.073067
v 7.818874 0.667242 -5.177215
v 7.821188 1.000514 -4.684250
v 7.990139 1.000514 -4.769882
v 7.717041 1.000514 -4.904117
v 7.885992 1.000514 -4.989749
v 7.869791 0.815363 -5.040666
v 7.689268 0.815363 -4.945776
v 7.876734 1.111605 -4.992064
v 7.767958 1.111605 -5.221188
v 7.830446 1.111605 -4.681935
v 7.793415 0.889424 -5.198044
v 7.719355 1.111605 -4.911060
v 7.987823 1.111605 -4.762939
v 7.610579 1.111605 -5.140184
v 7.612894 0.889424 -5.105469
v 7.437000 0.889424 -5.100840
v 7.441628 1.111605 -5.195730
v 7.455515 1.074575 -5.130927
v 7.784159 0.667242 -5.598433
v 7.888306 0.667242 -5.394767
v 7.936907 0.667242 -5.334593
v 7.763329 0.667242 -5.672493
v 7.362940 0.667242 -5.563718
v 7.566605 0.667242 -5.667865
v 7.763329 0.889424 -5.575290
v 7.740185 1.111605 -5.547517
v 7.821188 1.111605 -5.390139
v 7.855904 0.889424 -5.392453
v 7.744814 0.889424 -5.640092
v 7.726297 1.074575 -5.610005
v 7.624466 0.889424 -5.679437
v 7.619837 1.074575 -5.644721
v 7.568920 0.889424 -5.637778
v 7.573549 1.111605 -5.600748
v 7.388397 0.889424 -5.542888
v 7.416170 1.111605 -5.519744
v 7.557348 0.889424 -5.063809
v 7.561977 1.074575 -5.096211
v 7.860533 0.889424 -5.218874
v 7.830446 1.074575 -5.235075
v 7.899878 0.889424 -5.336907
v 7.865162 1.074575 -5.341537
v 7.710098 1.111605 -5.269790
v 7.747128 1.111605 -5.383195
v 7.693897 1.111605 -5.489657
v 7.578176 1.111605 -5.526688
v 8.508562 0.667242 -4.600932
v 8.318783 0.690386 -5.848387
v 8.337297 0.764447 -5.862274
v 8.534019 0.695015 -5.621577
v 8.559479 0.769076 -5.635463
v 8.582623 0.769076 -5.663236
v 8.691399 0.667242 -5.383195
v 8.716856 0.741303 -5.401711
v 8.753887 0.741303 -5.417911
v 8.679827 0.676500 -5.059181
v 8.702971 0.750560 -5.061495
v 8.742315 0.750560 -5.066124
v 8.628910 0.667242 -4.728223
v 8.654367 0.741303 -4.732852
v 8.698341 0.741303 -4.735167
v 7.807302 0.667242 -5.751183
v 7.960052 0.667242 -5.876160
v 8.270180 0.667242 -5.371624
v 8.383585 0.644099 -5.117041
v 8.140574 0.667242 -5.623891
v 8.740002 -0.073362 -4.749053
v 8.712229 0.296940 -4.742109
v 8.809433 -0.073362 -5.075382
v 8.781660 0.296940 -5.073067
v 8.839520 -0.073362 -5.450313
v 8.809433 0.296940 -5.441055
v 8.645111 -0.073362 -5.730354
v 8.624281 0.296940 -5.709524
v 7.568920 1.208810 -5.376252
v 7.587435 1.430991 -5.371623
v 7.594378 1.208810 -5.387824
v 7.580492 1.208810 -5.353108
v 7.605949 1.208810 -5.364680
v 7.682325 1.185666 -5.292934
v 7.710098 1.185666 -5.380881
v 7.668438 1.185666 -5.461884
v 7.580492 1.185666 -5.489657
v 7.499489 1.185666 -5.447998
v 7.471716 1.185666 -5.362366
v 7.513374 1.185666 -5.281362
v 7.601322 1.185666 -5.253589
v 7.603636 1.111605 -5.214245
v 7.490231 1.111605 -5.251275
v 7.471716 1.111605 -5.473456
vt 0.812500 0.875000
vt 0.875000 1.000000
vt 0.875000 0.875000
vt 0.812500 1.000000
vt 0.875000 0.875000
vt 0.812500 0.875000
vt 0.625000 0.875000
vt 0.687500 0.875000
vt 0.625000 0.750000
vt 0.500000 0.500000
vt 0.562500 0.625000
vt 0.562500 0.500000
vt 0.875000 1.000000
vt 0.875000 0.875000
vt 0.500000 0.625000
vt 0.562500 0.500000
vt 0.500000 0.500000
vt 0.625000 0.875000
vt 0.687500 0.875000
vt 0.812500 1.000000
vt 0.812500 0.875000
vt 0.812500 1.000000
vt 0.875000 1.000000
vt 0.812500 0.875000
vt 0.687500 0.875000
vt 0.625000 0.750000
vt 0.500000 0.625000
vt 0.500000 0.500000
vt 0.750000 0.875000
vt 0.812500 1.000000
vt 0.812500 0.875000
vt 0.625000 0.875000
vt 0.687500 0.750000
vt 0.625000 0.750000
vt 0.625000 0.875000
vt 0.687500 0.750000
vt 0.625000 0.750000
vt 0.625000 0.875000
vt 0.687500 0.875000
vt 0.625000 0.750000
vt 0.625000 0.750000
vt 0.687500 0.875000
vt 0.687500 0.750000
vt 0.625000 0.750000
vt 0.687500 0.750000
vt 0.625000 0.875000
vt 0.687500 0.750000
vt 0.625000 0.750000
vt 0.625000 0.750000
vt 0.687500 0.750000
vt 0.312500 0.750000
vt 0.375000 0.875000
vt 0.375000 0.750000
vt 0.625000 0.875000
vt 0.687500 0.750000
vt 0.625000 0.750000
vt 0.312500 0.875000
vt 0.375000 0.750000
vt 0.312500 0.750000
vt 0.625000 0.875000
vt 0.687500 0.875000
vt 0.625000 0.875000
vt 0.625000 0.750000
vt 0.500000 0.500000
vt 0.562500 0.625000
vt 0.562500 0.500000
vt 0.500000 0.625000
vt 0.562500 0.500000
vt 0.500000 0.500000
vt 0.375000 0.875000
vt 0.437500 0.750000
vt 0.375000 0.750000
vt 0.375000 0.750000
vt 0.437500 0.875000
vt 0.437500 0.750000
vt 0.312500 0.875000
vt 0.375000 0.750000
vt 0.312500 0.750000
vt 0.312500 0.875000
vt 0.375000 0.750000
vt 0.312500 0.750000
vt 0.312500 0.750000
vt 0.375000 0.875000
vt 0.375000 0.750000
vt 0.312500 0.750000
vt 0.375000 0.875000
vt 0.375000 0.750000
vt 0.312500 0.750000
vt 0.375000 0.875000
vt 0.375000 0.750000
vt 0.312500 0.750000
vt 0.375000 0.875000
vt 0.375000 0.750000
vt 0.375000 0.875000
vt 0.437500 0.750000
vt 0.375000 0.750000
vt 0.375000 0.875000
vt 0.437500 0.750000
vt 0.375000 0.750000
vt 0.312500 0.750000
vt 0.375000 0.875000
vt 0.375000 0.750000
vt 0.312500 0.750000
vt 0.375000 0.875000
vt 0.375000 0.750000
vt 0.312500 0.750000
vt 0.375000 0.875000
vt 0.375000 0.750000
vt 0.312500 0.875000
vt 0.375000 0.750000
vt 0.312500 0.875000
vt 0.375000 0.750000
vt 0.312500 0.750000
vt 0.312500 0.875000
vt 0.375000 0.750000
vt 0.312500 0.750000
vt 0.312500 0.875000
vt 0.375000 0.750000
vt 0.312500 0.750000
vt 0.312500 0.750000
vt 0.375000 0.875000
vt 0.375000 0.750000
vt 0.312500 0.750000
vt 0.375000 0.875000
vt 0.375000 0.750000
vt 0.312500 0.875000
vt 0.312500 0.875000
vt 0.312500 0.875000
vt 0.375000 0.750000
vt 0.312500 0.750000
vt 0.375000 0.750000
vt 0.312500 0.750000
vt 0.312500 0.875000
vt 0.375000 0.750000
vt 0.312500 0.750000
vt 0.187500 0.750000
vt 0.250000 0.875000
vt 0.187500 0.875000
vt 0.312500 0.750000
vt 0.250000 0.875000
vt 0.250000 0.750000
vt 0.375000 0.750000
vt 0.312500 0.875000
vt 0.312500 0.750000
vt 0.250000 0.750000
vt 0.187500 0.875000
vt 0.187500 0.750000
vt 0.375000 0.750000
vt 0.312500 0.875000
vt 0.312500 0.750000
vt 0.312500 0.750000
vt 0.250000 0.875000
vt 0.250000 0.750000
vt 0.375000 0.750000
vt 0.312500 0.875000
vt 0.312500 0.750000
vt 0.500000 0.625000
vt 0.500000 0.500000
vt 0.500000 0.500000
vt 0.562500 0.625000
vt 0.562500 0.500000
vt 0.500000 0.500000
vt 0.500000 0.500000
vt 0.437500 0.500000
vt 0.500000 0.625000
vt 0.500000 0.625000
vt 0.500000 0.500000
vt 0.437500 0.625000
vt 0.437500 0.625000
vt 0.500000 0.500000
vt 0.437500 0.500000
vt 0.562500 0.625000
vt 0.500000 0.500000
vt 0.562500 0.625000
vt 0.562500 0.500000
vt 0.437500 0.625000
vt 0.437500 0.500000
vt 0.437500 0.625000
vt 0.500000 0.625000
vt 0.437500 0.500000
vt 0.437500 0.625000
vt 0.500000 0.500000
vt 0.437500 0.500000
vt 0.750000 0.750000
vt 0.812500 0.875000
vt 0.812500 0.750000
vt 0.000000 0.750000
vt 0.062500 0.625000
vt 0.000000 0.625000
vt 0.312500 0.750000
vt 0.375000 0.875000
vt 0.000000 0.750000
vt 0.062500 0.625000
vt 0.000000 0.625000
vt 0.312500 0.750000
vt 0.375000 0.875000
vt 0.000000 0.625000
vt 0.062500 0.750000
vt 0.062500 0.625000
vt 0.312500 0.875000
vt 0.312500 0.750000
vt 0.625000 0.875000
vt 0.687500 0.875000
vt 0.625000 0.750000
vt 0.312500 0.875000
vt 0.375000 0.875000
vt 0.312500 0.750000
vt 0.312500 0.875000
vt 0.375000 0.875000
vt 0.312500 0.750000
vt 0.312500 0.875000
vt 0.312500 0.875000
vt 0.375000 0.875000
vt 0.312500 0.750000
vt 0.312500 0.875000
vt 0.375000 0.875000
vt 0.312500 0.750000
vt 0.375000 0.875000
vt 0.312500 0.750000
vt 0.375000 0.875000
vt 0.312500 0.750000
vt 0.375000 0.750000
vt 0.312500 0.750000
vt 0.375000 0.750000
vt 0.312500 0.750000
vt 0.375000 0.750000
vt 0.312500 0.750000
vt 0.375000 0.750000
vt 0.312500 0.750000
vt 0.375000 0.750000
vt 0.375000 0.875000
vt 0.437500 0.750000
vt 0.375000 0.750000
vt 0.312500 0.875000
vt 0.312500 0.750000
vt 0.375000 0.750000
vt 0.437500 0.875000
vt 0.437500 0.750000
vt 0.312500 0.750000
vt 0.437500 0.875000
vt 0.437500 0.750000
vt 0.437500 0.875000
vt 0.437500 0.750000
vt 0.437500 0.875000
vt 0.437500 0.750000
vt 0.375000 0.750000
vt 0.437500 0.875000
vt 0.437500 0.750000
vt 0.312500 0.750000
vt 0.812500 1.000000
vt 0.875000 1.000000
vt 0.812500 1.000000
vt 0.875000 1.000000
vt 0.750000 1.000000
vt 0.687500 0.875000
vt 0.687500 0.875000
vt 0.625000 0.875000
vt 0.625000 0.875000
vt 0.625000 0.875000
vt 0.312500 0.875000
vt 0.687500 0.875000
vt 0.500000 0.625000
vt 0.562500 0.625000
vt 0.437500 0.875000
vt 0.375000 0.875000
vt 0.375000 0.875000
vt 0.375000 0.875000
vt 0.312500 0.875000
vt 0.312500 0.875000
vt 0.312500 0.875000
vt 0.312500 0.875000
vt 0.437500 0.875000
vt 0.437500 0.875000
vt 0.312500 0.875000
vt 0.312500 0.875000
vt 0.312500 0.875000
vt 0.375000 0.875000
vt 0.375000 0.875000
vt 0.375000 0.875000
vt 0.375000 0.875000
vt 0.312500 0.875000
vt 0.312500 0.875000
vt 0.375000 0.875000
vt 0.375000 0.875000
vt 0.375000 0.875000
vt 0.250000 0.750000
vt 0.312500 0.875000
vt 0.375000 0.875000
vt 0.250000 0.875000
vt 0.312500 0.875000
vt 0.500000 0.625000
vt 0.500000 0.625000
vt 0.500000 0.625000
vt 0.500000 0.625000
vt 0.750000 0.875000
vt 0.062500 0.750000
vt 0.312500 0.875000
vt 0.062500 0.750000
vt 0.312500 0.875000
vt 0.000000 0.750000
vt 0.375000 0.875000
vt 0.375000 0.875000
vt 0.375000 0.875000
vt 0.437500 0.875000
vt 0.375000 0.875000
vt 0.375000 0.875000
vt 0.375000 0.875000
vn -0.0105 0.9999 0.0029
vn -0.0394 0.9988 0.0280
vn -0.0297 0.9992 -0.0268
vn 0.0000 1.0000 0.0000
vn 0.1912 0.9470 0.2582
vn -0.1951 0.8880 0.4164
vn 0.0166 0.9998 0.0015
vn 0.3580 0.8636 0.3548
vn 0.4518 0.8873 0.0929
vn -0.0789 0.8665 -0.4928
vn 0.0200 0.9996 -0.0198
vn -0.0355 0.9969 -0.0691
vn -0.2004 0.6202 0.7584
vn 0.7208 0.6247 0.3002
vn 0.6576 -0.6859 -0.3115
vn -0.6601 -0.3608 0.6588
vn 0.9342 -0.3415 -0.1033
vn 0.9400 -0.1475 0.3077
vn -0.3151 -0.1592 0.9356
vn 0.6153 0.7309 -0.2951
vn 0.3926 0.9155 0.0883
vn 0.9080 0.1375 0.3957
vn -0.6238 0.7230 0.2967
vn -0.6725 -0.6653 0.3241
vn -0.6087 0.7364 0.2951
vn 0.6074 0.7396 -0.2896
vn -0.2332 0.1363 0.9628
vn -0.1603 0.9217 0.3532
vn 0.6375 0.7299 -0.2465
vn 0.4880 0.8688 -0.0838
vn 0.3553 0.8669 -0.3496
vn -0.3695 0.7302 -0.5746
vn -0.1957 0.9028 -0.3828
vn 0.5359 0.7728 -0.3399
vn 0.8343 0.1323 -0.5351
vn 0.9225 0.1341 -0.3620
vn 0.5718 0.7300 -0.3744
vn 0.5980 0.4635 -0.6538
vn 0.7113 0.1695 -0.6821
vn -0.1626 0.1665 -0.9725
vn -0.1124 0.4661 -0.8775
vn -0.5306 0.1316 -0.8373
vn -0.2381 0.7777 -0.5817
vn -0.3464 0.6602 -0.6664
vn -0.4582 0.1386 -0.8780
vn -0.2474 0.5931 0.7661
vn 0.3328 0.1558 0.9300
vn 0.1059 0.4623 0.8804
vn 0.6544 0.4618 0.5987
vn 0.6900 0.1671 0.7043
vn 0.8787 0.4651 -0.1073
vn 0.9708 0.1683 -0.1708
vn 0.5874 0.7725 -0.2413
vn 0.4184 0.9077 -0.0315
vn 0.3192 0.9073 0.2735
vn 0.2700 0.9099 -0.3147
vn -0.0321 0.9076 -0.4187
vn -0.6922 0.3054 0.6539
vn -0.4664 0.7795 0.4180
vn -0.4967 0.7266 0.4746
vn -0.4505 0.8761 0.1716
vn 0.7179 0.6723 -0.1806
vn -0.6080 0.7730 0.1813
vn -0.5726 0.8183 -0.0491
vn 0.6844 0.7261 0.0652
vn -0.6495 0.7579 -0.0605
vn -0.6420 0.7628 -0.0768
vn 0.6527 0.7498 0.1078
vn -0.0014 0.9988 0.0491
vn -0.0092 0.9998 0.0165
vn -0.0096 0.9990 -0.0425
vn -0.0282 0.9995 0.0164
vn -0.4472 0.8912 -0.0753
vn -0.4735 0.7666 0.4337
vn 0.9873 0.0832 0.1355
vn 0.9759 0.0707 0.2063
vn 0.9870 0.0743 0.1421
vn 0.9796 0.0648 0.1900
vn 0.9594 0.1073 -0.2608
vn 0.9619 0.0846 -0.2600
vn 0.8196 0.0795 -0.5673
vn 0.8194 0.1035 -0.5637
vn -0.4996 0.8491 -0.1712
vn 0.0000 1.0000 -0.0052
vn 0.1796 0.8414 -0.5097
vn -0.1864 0.8399 0.5096
vn 0.4895 0.8542 0.1750
vn 0.5103 0.7353 0.4461
vn 0.6689 0.7411 -0.0571
vn 0.4318 0.7418 -0.5130
vn -0.0567 0.7395 -0.6707
vn -0.3027 0.8278 -0.4723
vn -0.2290 0.9732 0.0208
vn -0.2232 0.8278 0.5146
vn 0.0561 0.7446 0.6651
vn -0.1346 0.8976 0.4196
vn 0.0326 0.9136 0.4053
vn -0.0863 0.9610 0.2626
vn -0.2003 0.8967 -0.3947
vn -0.0305 0.9966 0.0769
vn -0.2892 0.1816 0.9398
vn 0.6229 0.6966 -0.3559
usemtl Material__25
s 1
f 4/1/1 1/2/2 5/3/3
f 7/4/4 4/5/1 6/6/5
f 9/7/6 6/8/5 4/9/1
f 10/10/7 12/11/8 13/12/9
f 4/1/1 13/13/9 9/14/6
f 14/15/10 3/16/4 8/17/4
f 5/18/3 16/19/4 4/9/1
f 17/20/11 4/5/1 16/21/4
f 1/22/2 18/23/12 5/24/3
f 9/7/6 19/25/13 6/26/5
f 13/27/9 12/11/8 20/28/14
f 22/29/15 23/30/16 24/31/17
f 25/32/18 9/33/6 13/34/9
f 24/35/17 26/36/19 25/37/18
f 27/38/20 24/39/17 28/40/21
f 20/41/14 25/42/18 13/43/9
f 30/44/22 24/39/17 25/45/18
f 31/46/23 21/47/24 29/48/25
f 32/49/26 24/39/17 27/50/20
f 32/51/26 31/52/23 29/53/25
f 34/54/27 23/55/16 33/56/28
f 33/57/28 27/58/20 28/59/21
f 23/60/16 31/61/23 33/56/28
f 19/62/13 26/36/19 34/63/27
f 38/64/29 40/65/30 41/66/31
f 43/67/32 8/68/4 42/69/33
f 45/70/34 47/71/35 44/72/36
f 38/73/29 47/74/35 39/75/37
f 44/76/36 49/77/38 45/78/34
f 38/79/29 48/80/39 44/81/36
f 49/82/38 50/83/40 51/84/41
f 48/85/39 14/86/10 50/87/40
f 51/88/41 52/89/42 53/90/43
f 50/91/40 43/92/32 52/93/42
f 55/94/44 52/95/42 54/96/45
f 54/97/45 43/98/32 42/99/33
f 37/100/46 56/101/47 57/102/48
f 57/103/48 34/104/27 33/105/28
f 56/106/47 19/107/13 34/108/27
f 30/109/22 59/110/49 28/59/21
f 20/111/14 58/112/50 30/113/22
f 58/114/50 61/115/51 59/116/49
f 12/117/8 60/118/52 58/119/50
f 61/120/51 47/121/35 46/122/53
f 60/123/52 39/124/37 47/125/35
f 53/126/43 49/77/38 51/88/41
f 46/127/53 59/110/49 61/120/51
f 28/128/21 63/129/54 62/130/55
f 46/127/53 64/131/56 63/132/54
f 45/133/34 65/134/57 64/135/56
f 68/136/58 69/137/59 70/138/60
f 69/139/59 73/140/61 70/141/60
f 74/142/62 70/143/60 73/144/61
f 72/145/63 76/146/64 73/147/61
f 77/148/65 73/149/61 76/150/64
f 75/151/66 79/152/67 76/153/64
f 80/154/68 76/155/64 79/156/67
f 11/157/4 40/65/30 12/158/8
f 41/159/31 15/160/4 14/161/10
f 11/157/4 41/66/31 40/162/30
f 11/163/4 10/164/7 83/165/69
f 84/166/70 17/167/11 66/168/71
f 10/169/7 84/170/70 83/171/69
f 11/157/4 83/172/69 85/173/72
f 85/173/72 81/174/4 11/175/4
f 78/176/73 84/170/70 66/177/71
f 75/178/66 72/179/63 84/180/70
f 85/181/72 69/182/59 67/183/74
f 83/184/69 72/185/63 69/186/59
f 89/187/75 86/188/76 88/189/77
f 87/190/78 77/191/65 80/154/68
f 91/192/79 88/193/77 90/194/80
f 89/195/75 74/196/62 77/148/65
f 92/197/81 91/198/79 90/199/80
f 93/200/82 74/142/62 91/201/79
f 94/202/83 95/203/84 96/204/85
f 94/205/83 97/206/86 95/207/84
f 95/208/84 98/209/87 96/210/85
f 97/211/86 98/209/87 95/207/84
f 98/212/87 99/213/88 100/214/89
f 96/215/85 101/216/90 102/217/91
f 94/205/83 103/218/92 104/219/93
f 97/211/86 105/220/94 106/221/95
f 98/212/87 106/222/95 99/223/88
f 97/211/86 104/224/93 105/225/94
f 94/205/83 102/226/91 103/227/92
f 96/215/85 100/228/89 101/229/90
f 33/57/28 37/230/46 57/103/48
f 106/231/95 108/232/96 107/233/97
f 36/234/98 107/233/97 108/235/96
f 62/236/55 106/237/95 107/238/97
f 33/57/28 62/236/55 107/239/97
f 63/129/54 99/240/88 62/241/55
f 64/131/56 100/242/89 63/243/54
f 65/134/57 101/244/90 64/245/56
f 109/246/99 102/247/91 65/248/57
f 65/249/57 55/94/44 109/246/99
f 4/1/1 2/250/100 1/2/2
f 7/4/4 2/251/100 4/5/1
f 10/10/7 11/157/4 12/11/8
f 4/1/1 10/252/7 13/13/9
f 14/15/10 15/160/4 3/16/4
f 17/20/11 10/253/7 4/5/1
f 22/29/15 21/254/24 23/30/16
f 25/32/18 26/255/19 9/33/6
f 24/35/17 23/256/16 26/36/19
f 20/41/14 30/257/22 25/42/18
f 30/44/22 28/258/21 24/39/17
f 31/46/23 23/256/16 21/47/24
f 32/49/26 22/259/15 24/39/17
f 32/51/26 27/260/20 31/52/23
f 34/54/27 26/255/19 23/55/16
f 33/57/28 31/52/23 27/58/20
f 19/62/13 9/261/6 26/36/19
f 38/64/29 39/262/37 40/65/30
f 43/67/32 14/263/10 8/68/4
f 45/70/34 46/264/53 47/71/35
f 38/73/29 44/265/36 47/74/35
f 44/76/36 48/266/39 49/77/38
f 38/79/29 41/267/31 48/80/39
f 49/82/38 48/268/39 50/83/40
f 48/85/39 41/269/31 14/86/10
f 51/88/41 50/270/40 52/89/42
f 50/91/40 14/271/10 43/92/32
f 55/94/44 53/272/43 52/95/42
f 54/97/45 52/273/42 43/98/32
f 37/100/46 35/274/101 56/101/47
f 57/103/48 56/275/47 34/104/27
f 56/106/47 6/276/5 19/107/13
f 30/109/22 58/277/50 59/110/49
f 20/111/14 12/278/8 58/112/50
f 58/114/50 60/279/52 61/115/51
f 12/117/8 40/280/30 60/118/52
f 61/120/51 60/281/52 47/121/35
f 60/123/52 40/282/30 39/124/37
f 53/126/43 45/70/34 49/77/38
f 46/127/53 28/283/21 59/110/49
f 28/128/21 46/284/53 63/129/54
f 46/127/53 45/70/34 64/131/56
f 45/133/34 53/285/43 65/134/57
f 68/136/58 67/286/74 69/137/59
f 69/139/59 72/287/63 73/140/61
f 74/142/62 71/288/102 70/143/60
f 72/145/63 75/289/66 76/146/64
f 77/148/65 74/196/62 73/149/61
f 75/151/66 78/290/73 79/152/67
f 80/154/68 77/191/65 76/155/64
f 41/159/31 81/291/4 15/160/4
f 11/157/4 81/174/4 41/66/31
f 10/169/7 17/292/11 84/170/70
f 85/173/72 82/293/4 81/174/4
f 78/176/73 75/294/66 84/170/70
f 85/181/72 83/165/69 69/182/59
f 83/184/69 84/295/70 72/185/63
f 89/187/75 87/296/78 86/188/76
f 87/190/78 89/297/75 77/191/65
f 91/192/79 89/298/75 88/193/77
f 89/195/75 91/299/79 74/196/62
f 92/197/81 93/300/82 91/198/79
f 93/200/82 71/288/102 74/142/62
f 98/212/87 97/206/86 106/222/95
f 97/211/86 94/301/83 104/224/93
f 94/205/83 96/302/85 102/226/91
f 96/215/85 98/209/87 100/228/89
f 33/57/28 36/303/98 37/230/46
f 106/231/95 105/304/94 108/232/96
f 36/234/98 33/305/28 107/233/97
f 62/236/55 99/213/88 106/237/95
f 33/57/28 28/283/21 62/236/55
f 63/129/54 100/306/89 99/240/88
f 64/131/56 101/216/90 100/242/89
f 65/134/57 102/307/91 101/244/90
f 109/246/99 103/218/92 102/247/91
f 65/249/57 53/126/43 55/94/44
