# Blender v2.79 (sub 0) OBJ File: ''
# www.blender.org
mtllib hurricos.138.mtl
o hurricos.138_tex_72.355
v -1.876102 0.371001 -5.598433
v -1.876102 0.519122 -5.598433
v -1.869159 0.519122 -5.947906
v -1.876102 0.371001 -5.947906
v -1.876102 0.371001 -6.230261
v -1.869159 0.519122 -6.230261
v -1.871474 0.519122 -6.607507
v -1.876102 0.371001 -6.605193
v -1.869159 0.963484 -5.947906
v -1.795099 0.963484 -5.947906
v -1.795099 0.963484 -6.230261
v -1.869159 0.963484 -6.230261
v -1.943220 0.519122 -5.947906
v -1.977936 0.371001 -5.940963
v -1.943220 0.519122 -6.230261
v -1.980250 0.371001 -6.230261
v -1.832129 0.741303 -5.947906
v -1.906189 0.741303 -5.947906
v -1.906189 0.741303 -6.230261
v -1.832129 0.741303 -6.230261
v -1.832129 0.741303 -6.570477
v -1.832129 0.741303 -5.633149
v -1.795099 0.963484 -5.670179
v -1.795099 0.963484 -6.533446
v -3.602637 0.371001 -6.757942
v -3.785474 0.371001 -5.822929
v -3.574864 0.315456 -6.908378
v -2.082083 0.371001 -5.934020
v -2.084398 0.371001 -6.230261
v -2.079769 0.371001 -6.558905
v -2.688453 0.371001 -5.864588
v -2.336666 0.371001 -5.647035
v -2.366753 0.371001 -5.901618
v -2.072826 0.371001 -5.670179
v -2.378325 0.371001 -6.230261
v -2.686139 0.371001 -6.200174
v -2.892119 0.371001 -6.128428
v -2.843517 0.371001 -5.556775
v -3.225391 0.371001 -5.728039
v -3.079585 0.371001 -6.663052
v -2.683825 0.371001 -6.575105
v -2.376011 0.371001 -6.575105
v -1.799728 0.371001 -6.936150
v -2.086712 0.371001 -6.913006
v -2.378325 0.371001 -6.954665
v -2.676881 0.371001 -6.977809
v -3.003210 0.371001 -6.968552
v -3.211505 0.357114 -6.940779
v -3.273993 0.394145 -7.308767
v -3.565607 0.371001 -7.237021
v -2.975438 0.371001 -7.324967
v -2.679196 0.394145 -7.343482
v -2.380640 0.371001 -7.313396
v -2.089026 0.371001 -7.250907
v -1.802042 0.371001 -7.234706
v -3.614209 -0.073362 -7.336540
v -3.280937 -0.073362 -7.366627
v -2.963866 -0.073362 -7.366627
v -2.679196 -0.073362 -7.436059
v -2.389897 -0.073362 -7.431430
v -2.082083 -0.073362 -7.385142
v -1.795099 -0.073362 -7.276366
v -3.142074 0.741303 -6.179345
v -2.899063 0.593182 -6.133057
v -3.012468 0.523750 -6.156201
v -3.243906 0.741303 -6.461700
v -3.162903 0.523750 -6.563533
v -3.088842 0.593182 -6.653795
v -3.322596 0.741303 -5.966421
v -3.276308 0.523750 -5.846073
v -3.234649 0.593182 -5.734982
v -3.618838 0.741303 -6.017338
v -3.702156 0.523750 -5.920133
v -3.600323 0.593182 -6.746370
v -3.521633 0.741303 -6.512617
v -3.570236 0.889424 -6.258034
v -3.523948 0.889424 -6.128428
v -3.378141 0.889424 -6.102970
v -3.475346 0.889424 -6.371439
v -3.287880 0.889424 -6.209432
v -3.338797 0.889424 -6.348295
vt 0.312500 1.000000
vt 0.375000 0.875000
vt 0.312500 0.875000
vt 0.312500 1.000000
vt 0.375000 0.875000
vt 0.312500 0.875000
vt 0.312500 0.875000
vt 0.375000 0.750000
vt 0.312500 0.750000
vt 0.312500 0.750000
vt 0.375000 0.875000
vt 0.375000 0.750000
vt 0.062500 0.875000
vt 0.125000 0.750000
vt 0.062500 0.750000
vt 0.312500 0.750000
vt 0.375000 0.875000
vt 0.375000 0.750000
vt 0.312500 0.750000
vt 0.375000 0.875000
vt 0.375000 0.750000
vt 0.062500 0.875000
vt 0.125000 0.750000
vt 0.062500 0.750000
vt 0.125000 0.875000
vt 0.187500 0.750000
vt 0.125000 0.750000
vt 0.312500 0.875000
vt 0.375000 0.750000
vt 0.312500 0.750000
vt 0.312500 0.875000
vt 0.375000 0.750000
vt 0.312500 0.750000
vt 0.312500 0.875000
vt 0.375000 0.750000
vt 0.312500 0.750000
vt 0.500000 0.875000
vt 0.562500 1.000000
vt 0.562500 0.875000
vt 0.125000 0.750000
vt 0.187500 0.625000
vt 0.125000 0.625000
vt 0.125000 0.625000
vt 0.187500 0.750000
vt 0.187500 0.625000
vt 0.500000 1.000000
vt 0.562500 0.875000
vt 0.500000 0.875000
vt 0.500000 0.625000
vt 0.562500 0.625000
vt 0.500000 0.500000
vt 0.500000 0.625000
vt 0.562500 0.625000
vt 0.500000 0.500000
vt 0.500000 0.625000
vt 0.562500 0.500000
vt 0.500000 0.500000
vt 0.500000 0.500000
vt 0.562500 0.625000
vt 0.500000 0.625000
vt 0.562500 0.625000
vt 0.500000 0.500000
vt 0.500000 0.500000
vt 0.562500 0.625000
vt 0.562500 0.500000
vt 0.437500 0.625000
vt 0.437500 0.500000
vt 0.437500 0.625000
vt 0.437500 0.500000
vt 0.500000 0.625000
vt 0.562500 0.625000
vt 0.500000 0.500000
vt 0.562500 0.500000
vt 0.500000 0.500000
vt 0.437500 0.625000
vt 0.500000 0.500000
vt 0.437500 0.500000
vt 0.500000 0.500000
vt 0.562500 0.625000
vt 0.562500 0.500000
vt 0.500000 0.625000
vt 0.562500 0.500000
vt 0.500000 0.500000
vt 0.562500 0.625000
vt 0.562500 0.500000
vt 0.500000 0.625000
vt 0.562500 0.500000
vt 0.500000 0.500000
vt 0.437500 0.500000
vt 0.500000 0.625000
vt 0.500000 0.500000
vt 0.437500 0.500000
vt 0.500000 0.500000
vt 0.500000 0.625000
vt 0.562500 0.625000
vt 0.500000 0.500000
vt 0.437500 0.625000
vt 0.500000 0.500000
vt 0.437500 0.500000
vt 0.500000 0.625000
vt 0.562500 0.500000
vt 0.500000 0.500000
vt 0.500000 0.625000
vt 0.562500 0.625000
vt 0.562500 0.500000
vt 0.500000 0.625000
vt 0.562500 0.500000
vt 0.500000 0.500000
vt 0.500000 0.625000
vt 0.562500 0.500000
vt 0.500000 0.500000
vt 0.437500 0.500000
vt 0.500000 0.625000
vt 0.500000 0.500000
vt 0.937500 0.875000
vt 1.000000 0.750000
vt 0.937500 0.750000
vt 0.937500 0.750000
vt 1.000000 0.875000
vt 1.000000 0.750000
vt 0.937500 0.875000
vt 1.000000 0.750000
vt 0.937500 0.750000
vt 0.937500 0.750000
vt 1.000000 0.875000
vt 1.000000 0.750000
vt 0.875000 0.750000
vt 0.937500 0.875000
vt 0.875000 0.875000
vt 0.937500 0.750000
vt 0.437500 0.500000
vt 0.500000 0.625000
vt 0.500000 0.500000
vt 0.750000 1.000000
vt 0.812500 1.000000
vt 0.750000 0.875000
vt 0.750000 1.000000
vt 0.812500 1.000000
vt 0.750000 0.875000
vt 0.062500 0.750000
vt 0.125000 0.625000
vt 0.062500 0.625000
vt 0.750000 1.000000
vt 0.812500 1.000000
vt 0.750000 0.875000
vt 0.062500 0.750000
vt 0.125000 0.625000
vt 0.062500 0.625000
vt 0.437500 0.750000
vt 0.500000 0.875000
vt 0.500000 0.750000
vt 0.437500 0.875000
vt 0.500000 0.750000
vt 0.437500 0.750000
vt 0.625000 0.875000
vt 0.687500 0.750000
vt 0.625000 0.750000
vt 0.375000 0.750000
vt 0.437500 0.750000
vt 0.375000 0.625000
vt 0.750000 1.000000
vt 0.812500 1.000000
vt 0.750000 0.875000
vt 0.750000 1.000000
vt 0.812500 1.000000
vt 0.750000 0.875000
vt 0.312500 0.750000
vt 0.375000 0.625000
vt 0.312500 0.625000
vt 0.375000 0.750000
vt 0.437500 0.750000
vt 0.375000 0.625000
vt 0.437500 0.625000
vt 0.375000 0.625000
vt 0.312500 0.625000
vt 0.375000 0.750000
vt 0.375000 0.625000
vt 0.125000 0.625000
vt 0.187500 0.750000
vt 0.187500 0.625000
vt 0.312500 0.625000
vt 0.375000 0.750000
vt 0.375000 0.625000
vt 0.125000 0.750000
vt 0.187500 0.625000
vt 0.125000 0.625000
vt 0.625000 0.875000
vt 0.687500 0.750000
vt 0.625000 0.750000
vt 0.312500 0.750000
vt 0.375000 0.625000
vt 0.312500 0.625000
vt 0.375000 1.000000
vt 0.375000 1.000000
vt 0.375000 0.875000
vt 0.312500 0.875000
vt 0.125000 0.875000
vt 0.312500 0.875000
vt 0.125000 0.875000
vt 0.187500 0.875000
vt 0.375000 0.875000
vt 0.375000 0.875000
vt 0.500000 1.000000
vt 0.187500 0.750000
vt 0.125000 0.750000
vt 0.562500 1.000000
vt 0.562500 0.625000
vt 0.500000 0.625000
vt 0.500000 0.625000
vt 0.500000 0.625000
vt 0.562500 0.625000
vt 0.500000 0.625000
vt 0.500000 0.625000
vt 0.562500 0.625000
vt 0.562500 0.625000
vt 0.437500 0.625000
vt 0.437500 0.625000
vt 0.500000 0.625000
vt 0.562500 0.625000
vt 0.437500 0.625000
vt 0.500000 0.625000
vt 0.562500 0.625000
vt 0.562500 0.625000
vt 0.437500 0.625000
vt 1.000000 0.875000
vt 0.937500 0.875000
vt 1.000000 0.875000
vt 0.937500 0.875000
vt 0.937500 0.750000
vt 0.937500 0.875000
vt 0.437500 0.625000
vt 0.125000 0.750000
vt 0.125000 0.750000
vt 0.437500 0.875000
vt 0.500000 0.875000
vt 0.687500 0.875000
vt 0.375000 0.750000
vt 0.437500 0.750000
vt 0.312500 0.750000
vt 0.125000 0.750000
vt 0.312500 0.750000
vt 0.187500 0.750000
vt 0.687500 0.875000
vt 0.375000 0.750000
vn -0.9952 0.0973 -0.0119
vn -0.5522 0.5896 0.5894
vn -0.7895 0.6137 0.0000
vn -0.6901 0.0733 -0.7200
vn -0.4202 0.9074 0.0020
vn -0.5624 0.5894 -0.5799
vn -0.5576 0.6582 0.5058
vn -0.5235 0.6180 -0.5865
vn -0.5235 0.6180 0.5865
vn -0.6840 0.1456 0.7147
vn -0.2530 0.9361 0.2441
vn -0.2781 0.9297 -0.2413
vn -0.6939 0.0777 0.7159
vn -0.6975 0.1162 0.7071
vn -0.6832 0.1421 -0.7162
vn -0.6975 0.1162 -0.7071
vn -0.9858 0.1677 0.0022
vn -0.9864 0.1644 0.0000
vn -0.9847 0.1738 -0.0068
vn 0.0000 1.0000 0.0000
vn 0.4229 0.9061 0.0065
vn 0.3397 0.6789 0.6508
vn 0.3055 0.9116 -0.2748
vn -0.0123 0.9998 0.0154
vn -0.0000 0.9999 0.0144
vn -0.0512 0.9984 0.0216
vn 0.0588 0.6386 -0.7673
vn -0.1247 0.9830 -0.1344
vn -0.1767 0.8204 -0.5438
vn -0.1088 0.7672 -0.6320
vn -0.0453 0.7469 -0.6634
vn 0.0997 0.7776 -0.6208
vn 0.1138 0.7980 -0.5918
vn 0.0373 0.7498 -0.6606
vn -0.0825 0.1476 -0.9856
vn -0.0876 0.2268 -0.9700
vn -0.1216 0.0895 -0.9885
vn -0.0616 0.1820 -0.9814
vn 0.0781 0.2544 -0.9639
vn 0.2504 0.2713 -0.9293
vn 0.2440 0.2156 -0.9455
vn 0.7021 0.7120 -0.0016
vn 0.8701 0.4078 -0.2767
vn 0.6016 0.3204 -0.7317
vn 0.5471 0.7075 -0.4473
vn 0.9261 0.3297 0.1836
vn 0.8437 0.4152 -0.3400
vn 0.1166 0.7068 0.6977
vn -0.4666 0.4098 0.7838
vn 0.3160 0.4667 0.8260
vn -0.1447 0.5321 0.8342
vn 0.1136 0.7676 -0.6308
vn 0.1620 0.4158 -0.8949
vn -0.0695 0.9146 0.3982
vn 0.1583 0.8769 0.4539
vn -0.1438 0.5318 0.8346
vn 0.0652 0.9207 -0.3847
vn 0.4720 0.8779 0.0805
vn 0.3083 0.8776 -0.3670
vn -0.1382 0.5823 0.8011
vn -0.9951 0.0990 0.0061
vn -0.5576 0.6582 -0.5058
vn 0.0108 0.7883 -0.6152
usemtl Material__25
s 1
f 2/1/1 4/2/2 1/3/3
f 6/4/4 8/5/5 5/6/6
f 10/7/7 12/8/8 9/9/9
f 4/10/2 13/11/10 14/12/11
f 13/13/10 16/14/12 14/15/11
f 3/16/13 18/17/14 13/18/10
f 17/19/14 9/20/9 18/21/14
f 18/22/14 15/23/15 13/24/10
f 9/25/9 19/26/16 18/27/14
f 19/28/16 6/29/4 15/30/15
f 12/31/8 20/32/16 19/33/16
f 15/34/15 5/35/6 16/36/12
f 21/37/17 6/38/4 20/39/16
f 23/40/18 17/41/14 22/42/19
f 20/43/16 24/44/18 21/45/17
f 3/46/13 22/47/19 17/48/14
f 1/49/3 4/50/2 14/51/11
f 16/52/12 5/53/6 8/54/5
f 14/55/11 29/56/20 28/57/20
f 16/58/12 30/59/20 29/56/20
f 31/60/20 32/61/20 33/62/20
f 34/63/20 33/64/20 32/65/20
f 35/66/20 28/57/20 29/67/20
f 36/68/20 33/62/20 35/69/20
f 37/70/21 31/71/20 36/72/20
f 31/60/20 39/73/22 38/74/20
f 37/75/21 41/76/20 40/77/23
f 35/78/20 41/79/20 36/80/20
f 30/81/20 35/82/20 29/83/20
f 8/54/5 44/84/20 30/85/20
f 44/86/20 42/87/20 30/88/20
f 45/89/20 41/90/20 42/91/20
f 47/92/24 41/90/20 46/93/25
f 48/94/26 40/95/23 47/96/24
f 25/97/27 48/98/26 27/99/28
f 50/100/29 48/101/26 49/102/30
f 47/92/24 49/103/30 48/98/26
f 46/93/25 51/104/31 47/105/24
f 53/106/32 46/107/25 45/108/20
f 54/109/33 45/110/20 44/111/20
f 54/112/33 43/113/20 55/114/34
f 50/115/29 57/116/35 56/117/36
f 57/118/35 51/119/31 58/120/37
f 51/121/31 59/122/38 58/123/37
f 59/124/38 53/125/32 60/126/39
f 61/127/40 53/128/32 54/129/33
f 54/129/33 62/130/41 61/127/40
f 14/131/11 34/132/20 1/133/3
f 63/134/42 64/135/43 65/136/44
f 66/137/45 67/138/46 68/139/47
f 66/140/45 65/141/44 67/142/46
f 69/143/48 70/144/49 71/145/50
f 69/146/48 73/147/51 70/148/49
f 25/149/27 68/150/47 40/151/23
f 64/152/43 39/153/22 37/154/21
f 75/155/52 68/156/47 74/157/53
f 76/158/20 77/159/54 78/160/55
f 37/161/21 65/162/44 64/163/43
f 40/164/23 68/165/47 67/166/46
f 78/167/55 72/168/56 69/169/48
f 79/170/57 80/171/58 81/172/59
f 79/170/57 78/173/55 80/174/58
f 75/175/52 81/176/59 66/177/45
f 40/178/23 65/179/44 37/180/21
f 66/181/45 80/182/58 63/183/42
f 70/184/49 26/185/60 39/186/22
f 63/187/42 71/188/50 64/189/43
f 80/190/58 69/191/48 63/192/42
f 2/1/1 3/193/13 4/2/2
f 6/4/4 7/194/61 8/5/5
f 10/7/7 11/195/62 12/8/8
f 4/10/2 3/196/13 13/11/10
f 13/13/10 15/197/15 16/14/12
f 3/16/13 17/198/14 18/17/14
f 17/19/14 10/7/7 9/20/9
f 18/22/14 19/199/16 15/23/15
f 9/25/9 12/200/8 19/26/16
f 19/28/16 20/201/16 6/29/4
f 12/31/8 11/195/62 20/32/16
f 15/34/15 6/202/4 5/35/6
f 21/37/17 7/203/61 6/38/4
f 23/40/18 10/204/7 17/41/14
f 20/43/16 11/205/62 24/44/18
f 3/46/13 2/206/1 22/47/19
f 14/55/11 16/207/12 29/56/20
f 16/58/12 8/208/5 30/59/20
f 34/63/20 28/209/20 33/64/20
f 35/66/20 33/210/20 28/57/20
f 36/68/20 31/60/20 33/62/20
f 31/60/20 37/211/21 39/73/22
f 37/75/21 36/212/20 41/76/20
f 35/78/20 42/213/20 41/79/20
f 30/81/20 42/214/20 35/82/20
f 8/54/5 43/113/20 44/84/20
f 44/86/20 45/215/20 42/87/20
f 45/89/20 46/216/25 41/90/20
f 47/92/24 40/217/23 41/90/20
f 25/97/27 40/218/23 48/98/26
f 50/100/29 27/219/28 48/101/26
f 47/92/24 51/220/31 49/103/30
f 46/93/25 52/221/63 51/104/31
f 53/106/32 52/222/63 46/107/25
f 54/109/33 53/223/32 45/110/20
f 54/112/33 44/224/20 43/113/20
f 50/115/29 49/225/30 57/116/35
f 57/118/35 49/226/30 51/119/31
f 51/121/31 52/227/63 59/122/38
f 59/124/38 52/228/63 53/125/32
f 61/127/40 60/229/39 53/128/32
f 54/129/33 55/230/34 62/130/41
f 14/131/11 28/231/20 34/132/20
f 66/140/45 63/232/42 65/141/44
f 69/146/48 72/233/56 73/147/51
f 25/149/27 74/234/53 68/150/47
f 64/152/43 71/235/50 39/153/22
f 75/155/52 66/236/45 68/156/47
f 78/167/55 77/237/54 72/168/56
f 79/170/57 76/238/20 78/173/55
f 75/175/52 79/239/57 81/176/59
f 40/178/23 67/240/46 65/179/44
f 66/181/45 81/241/59 80/182/58
f 70/184/49 73/242/51 26/185/60
f 63/187/42 69/243/48 71/188/50
f 80/190/58 78/244/55 69/191/48
