# Blender v2.79 (sub 0) OBJ File: ''
# www.blender.org
mtllib hurricos.053.mtl
o hurricos.053_tex_72.270
v -1.989508 0.384885 1.807612
v -2.031167 0.384885 1.509056
v -2.031167 0.495976 1.789097
v -2.070511 0.454317 1.488226
v -2.058939 0.370999 1.219757
v -2.058939 0.458946 1.219757
v -2.232519 0.370999 1.094780
v -2.232519 0.440431 1.094780
v -2.297321 0.384885 0.893428
v -2.297321 0.477461 0.893428
v -2.556533 0.370999 0.854084
v -2.563476 0.500605 0.867970
v -2.834260 0.370999 1.055436
v -2.834260 0.519120 1.055436
v -2.831945 0.273795 1.372507
v -2.783343 0.482090 1.358621
v -2.864347 0.292309 1.775210
v -2.822688 0.468203 1.742809
v -3.311024 0.296939 0.763822
v -3.047184 0.296939 0.749936
v -3.317967 0.370999 0.749936
v -3.042555 0.357113 0.722163
v -3.095786 0.296938 1.721979
v -2.834260 0.296939 1.055436
v -2.878233 0.296939 0.877227
v -3.456831 0.283052 1.849271
v -3.058755 0.283052 1.430367
v -3.165217 0.296939 1.104038
v -3.519319 0.296939 0.856398
v -3.459145 0.278423 1.219757
v -1.933962 0.375628 0.955917
v -1.846015 0.375628 1.120238
v -2.838889 0.357113 0.861027
v -3.093472 0.370999 0.298630
v -3.315653 0.370999 0.384262
v -3.086528 0.370999 0.504611
v -1.832129 0.370999 0.437493
v -2.003394 0.370999 0.312516
v -1.922390 0.380257 0.560156
v -2.271863 0.370999 0.296316
v -2.220947 0.384885 0.627273
v -2.892119 0.370999 0.525440
v -2.871290 0.357113 0.240770
v -1.704838 0.389514 1.657177
v -1.771955 0.394143 1.393336
v -2.056625 0.394143 0.786966
v -1.774270 0.380257 0.768451
v -2.572734 0.361741 0.548584
v -2.542647 0.361741 0.280115
v -3.317967 0.533006 0.749936
v -3.315653 0.519120 0.384262
v -3.542463 0.523749 0.571728
v -3.549406 0.519120 0.842512
v -3.540148 0.533006 0.402778
v -2.565791 0.495976 1.668749
v -2.220947 0.495976 1.407223
v -2.230204 0.523749 1.708093
v -2.538018 0.495976 1.351677
v -2.540332 0.514491 1.053121
v -3.334168 0.445059 0.393520
v -3.338797 0.449688 0.749936
v -1.927019 -0.073364 0.212998
v -1.977936 0.222878 0.289372
v -1.739553 0.222878 0.375005
v -1.697895 -0.073364 0.298630
v -3.503118 0.819991 0.122737
v -3.315653 0.815362 0.125051
v -3.463774 0.815362 -0.080930
v -3.315653 0.824619 0.384262
v -3.540148 0.806104 0.335660
v -3.496175 1.120861 -0.166562
v -3.510061 1.407845 -0.254509
v -3.537834 0.634839 0.335660
v -3.322596 0.620953 0.365747
v -3.496175 0.222878 1.231329
v -3.482289 0.222878 1.518313
v -3.540148 0.408029 0.830940
v -3.473031 0.222878 1.812241
v -3.343425 0.222878 1.546086
v -3.311024 0.269166 1.536828
v -2.713912 1.111603 -0.411887
v -2.646794 0.815362 -0.340141
v -3.003210 1.407845 -0.328569
v -2.945351 1.111603 -0.247566
v -2.889805 0.815362 -0.166562
v -3.167532 0.815362 -0.080930
v -3.213820 1.120861 -0.164248
v -3.241592 1.407845 -0.259138
v -2.875919 0.815362 0.044047
v -2.748627 0.792218 0.007017
v -2.873604 0.801475 0.240770
v -3.128187 0.815362 0.099593
v -3.095786 0.796847 0.298630
v -2.646794 0.370999 -0.340141
v -2.646794 0.519120 -0.340141
v -2.896748 0.519120 -0.143418
v -2.892119 0.370999 -0.164248
v -2.139943 0.370999 0.055619
v -2.746313 0.357113 0.007017
v -2.086712 0.370999 -0.421145
v -2.473215 0.357113 0.041733
v -2.359810 0.352484 -0.240623
v -2.114485 0.370999 -0.173505
v -3.111987 0.611695 0.294001
v -2.899063 0.620953 0.236142
v -2.778714 0.593180 0.013960
v -2.047368 0.222878 -0.467433
v -2.072826 0.222878 -0.196649
v -1.984879 -0.073364 -0.217479
v -2.112170 0.222878 0.048676
v -2.042738 -0.073364 0.025532
vt 0.562500 0.625000
vt 0.500000 0.625000
vt 0.562500 0.750000
vt 0.500000 0.750000
vt 0.562500 0.625000
vt 0.500000 0.625000
vt 0.562500 0.750000
vt 0.500000 0.750000
vt 0.562500 0.625000
vt 0.500000 0.625000
vt 0.562500 0.750000
vt 0.500000 0.750000
vt 0.562500 0.625000
vt 0.500000 0.625000
vt 0.562500 0.750000
vt 0.500000 0.750000
vt 0.562500 0.625000
vt 0.500000 0.625000
vt 0.562500 0.750000
vt 0.500000 0.750000
vt 0.562500 0.625000
vt 0.500000 0.625000
vt 0.562500 0.750000
vt 0.500000 0.750000
vt 0.312500 0.500000
vt 0.250000 0.500000
vt 0.312500 0.625000
vt 0.250000 0.625000
vt 0.562500 0.625000
vt 0.500000 0.625000
vt 0.562500 0.750000
vt 0.500000 0.750000
vt 0.375000 0.500000
vt 0.312500 0.500000
vt 0.375000 0.625000
vt 0.312500 0.625000
vt 0.500000 0.625000
vt 0.562500 0.625000
vt 0.500000 0.500000
vt 0.437500 0.500000
vt 0.500000 0.625000
vt 0.500000 0.500000
vt 0.562500 0.500000
vt 0.500000 0.500000
vt 0.500000 0.500000
vt 0.562500 0.625000
vt 0.562500 0.500000
vt 0.500000 0.625000
vt 0.500000 0.500000
vt 0.500000 0.625000
vt 0.562500 0.625000
vt 0.500000 0.500000
vt 0.500000 0.625000
vt 0.562500 0.625000
vt 0.500000 0.500000
vt 0.500000 0.625000
vt 0.562500 0.625000
vt 0.500000 0.500000
vt 0.500000 0.625000
vt 0.562500 0.625000
vt 0.500000 0.500000
vt 0.500000 0.625000
vt 0.562500 0.500000
vt 0.500000 0.500000
vt 0.437500 0.625000
vt 0.437500 0.500000
vt 0.500000 0.500000
vt 0.562500 0.625000
vt 0.562500 0.500000
vt 0.500000 0.500000
vt 0.562500 0.500000
vt 0.500000 0.500000
vt 0.562500 0.500000
vt 0.437500 0.625000
vt 0.500000 0.500000
vt 0.437500 0.500000
vt 0.500000 0.625000
vt 0.562500 0.500000
vt 0.500000 0.500000
vt 0.500000 0.625000
vt 0.562500 0.500000
vt 0.500000 0.500000
vt 0.500000 0.625000
vt 0.562500 0.500000
vt 0.500000 0.625000
vt 0.562500 0.500000
vt 0.500000 0.500000
vt 0.500000 0.625000
vt 0.562500 0.500000
vt 0.437500 0.625000
vt 0.500000 0.500000
vt 0.437500 0.500000
vt 0.437500 0.500000
vt 0.500000 0.625000
vt 0.500000 0.500000
vt 0.500000 0.625000
vt 0.562500 0.625000
vt 0.500000 0.500000
vt 0.500000 0.625000
vt 0.562500 0.625000
vt 0.500000 0.500000
vt 0.500000 0.500000
vt 0.562500 0.625000
vt 0.562500 0.500000
vt 0.500000 0.500000
vt 0.562500 0.500000
vt 0.500000 0.625000
vt 0.562500 0.625000
vt 0.500000 0.500000
vt 0.562500 0.625000
vt 0.562500 0.500000
vt 0.437500 0.500000
vt 0.500000 0.625000
vt 0.437500 0.500000
vt 0.500000 0.625000
vt 0.500000 0.500000
vt 0.437500 0.500000
vt 0.500000 0.625000
vt 0.500000 0.500000
vt 0.500000 0.625000
vt 0.562500 0.625000
vt 0.500000 0.500000
vt 0.125000 0.625000
vt 0.187500 0.500000
vt 0.125000 0.500000
vt 0.500000 0.625000
vt 0.562500 0.750000
vt 0.562500 0.625000
vt 0.125000 0.625000
vt 0.062500 0.500000
vt 0.125000 0.500000
vt 0.062500 0.625000
vt 0.125000 0.500000
vt 0.062500 0.500000
vt 0.125000 0.500000
vt 0.187500 0.625000
vt 0.187500 0.500000
vt 0.062500 0.500000
vt 0.000000 0.625000
vt 0.062500 0.750000
vt 0.062500 0.625000
vt 0.187500 0.500000
vt 0.250000 0.625000
vt 0.250000 0.500000
vt 0.500000 0.625000
vt 0.562500 0.625000
vt 0.500000 0.500000
vt 0.500000 0.625000
vt 0.562500 0.500000
vt 0.500000 0.500000
vt 0.187500 0.500000
vt 0.250000 0.625000
vt 0.250000 0.500000
vt 0.812500 0.625000
vt 0.875000 0.750000
vt 0.812500 0.750000
vt 0.500000 0.625000
vt 0.562500 0.625000
vt 0.500000 0.500000
vt 0.500000 0.625000
vt 0.562500 0.625000
vt 0.562500 0.625000
vt 0.562500 0.500000
vt 0.500000 0.500000
vt 0.562500 0.625000
vt 0.562500 0.500000
vt 0.437500 0.500000
vt 0.500000 0.625000
vt 0.500000 0.500000
vt 0.500000 0.625000
vt 0.562500 0.750000
vt 0.562500 0.625000
vt 0.500000 0.625000
vt 0.562500 0.750000
vt 0.562500 0.625000
vt 0.625000 0.625000
vt 0.562500 0.750000
vt 0.250000 0.625000
vt 0.250000 0.500000
vt 0.187500 0.750000
vt 0.250000 0.625000
vt 0.187500 0.625000
vt 0.187500 0.625000
vt 0.250000 0.750000
vt 0.187500 0.750000
vt 0.312500 0.750000
vt 0.375000 0.625000
vt 0.312500 0.625000
vt 0.062500 0.750000
vt 0.125000 0.625000
vt 0.062500 0.625000
vt 0.125000 0.625000
vt 0.187500 0.750000
vt 0.125000 0.750000
vt 0.500000 0.625000
vt 0.562500 0.625000
vt 0.500000 0.500000
vt 0.500000 0.625000
vt 0.500000 0.500000
vt 0.500000 0.500000
vt 0.562500 0.625000
vt 0.562500 0.500000
vt 0.500000 0.625000
vt 0.562500 0.500000
vt 0.500000 0.500000
vt 0.562500 0.625000
vt 0.562500 0.500000
vt 0.437500 0.500000
vt 0.000000 0.750000
vt 0.062500 0.875000
vt 0.000000 0.875000
vt 0.625000 0.750000
vt 0.687500 0.875000
vt 0.687500 0.750000
vt 0.500000 0.625000
vt 0.562500 0.625000
vt 0.500000 0.625000
vt 0.562500 0.625000
vt 0.500000 0.500000
vt 0.437500 0.625000
vt 0.437500 0.500000
vt 0.500000 0.500000
vt 0.562500 0.625000
vt 0.562500 0.500000
vt 0.500000 0.500000
vt 0.562500 0.625000
vt 0.562500 0.500000
vt 0.500000 0.500000
vt 0.562500 0.625000
vt 0.562500 0.500000
vt 0.500000 0.500000
vt 0.562500 0.625000
vt 0.562500 0.500000
vt 0.250000 0.625000
vt 0.312500 0.500000
vt 0.250000 0.500000
vt 0.187500 0.500000
vt 0.187500 0.500000
vt 0.250000 0.625000
vt 0.250000 0.500000
vt 0.000000 1.000000
vt 0.062500 1.000000
vt 0.000000 0.875000
vt 0.000000 1.000000
vt 0.000000 0.875000
vt 0.187500 0.625000
vt 0.250000 0.500000
vt 0.187500 0.500000
vt 0.812500 0.625000
vt 0.875000 0.750000
vt 0.812500 0.750000
vt 0.875000 0.750000
vt 0.937500 0.625000
vt 0.875000 0.625000
vt 0.812500 0.750000
vt 0.875000 0.625000
vt 0.812500 0.625000
vt 0.000000 1.000000
vt 0.062500 0.875000
vt 0.000000 0.875000
vt 0.000000 0.750000
vt 0.062500 0.625000
vt 0.000000 0.625000
vt 0.187500 0.625000
vt 0.250000 0.500000
vt 0.187500 0.500000
vt 0.250000 0.625000
vt 0.312500 0.500000
vt 0.250000 0.625000
vt 0.312500 0.500000
vt 0.250000 0.500000
vt 0.000000 0.750000
vt 0.062500 0.625000
vt 0.000000 0.625000
vt 0.437500 0.625000
vt 0.562500 0.625000
vt 0.500000 0.625000
vt 0.500000 0.625000
vt 0.500000 0.625000
vt 0.500000 0.625000
vt 0.562500 0.625000
vt 0.562500 0.625000
vt 0.562500 0.625000
vt 0.500000 0.625000
vt 0.437500 0.625000
vt 0.500000 0.625000
vt 0.500000 0.625000
vt 0.437500 0.625000
vt 0.437500 0.625000
vt 0.437500 0.625000
vt 0.187500 0.625000
vt 0.500000 0.750000
vt 0.125000 0.625000
vt 0.125000 0.625000
vt 0.000000 0.750000
vt 0.187500 0.625000
vt 0.562500 0.625000
vt 0.187500 0.625000
vt 0.875000 0.625000
vt 0.500000 0.625000
vt 0.437500 0.625000
vt 0.500000 0.750000
vt 0.500000 0.750000
vt 0.625000 0.750000
vt 0.250000 0.750000
vt 0.250000 0.625000
vt 0.375000 0.750000
vt 0.125000 0.750000
vt 0.562500 0.625000
vt 0.500000 0.625000
vt 0.437500 0.625000
vt 0.062500 0.750000
vt 0.625000 0.875000
vt 0.500000 0.625000
vt 0.500000 0.625000
vt 0.500000 0.625000
vt 0.312500 0.625000
vt 0.187500 0.625000
vt 0.187500 0.625000
vt 0.250000 0.625000
vt 0.875000 0.625000
vt 0.937500 0.750000
vt 0.875000 0.750000
vt 0.062500 1.000000
vt 0.062500 0.750000
vt 0.312500 0.625000
vt 0.312500 0.625000
vt 0.062500 0.750000
vn 0.5999 0.7957 -0.0837
vn 0.5168 0.8511 -0.0920
vn 0.7214 0.6723 -0.1661
vn 0.6388 0.7627 -0.1010
vn 0.4721 0.8395 -0.2689
vn 0.7180 0.5845 -0.3778
vn 0.6203 0.6598 -0.4241
vn 0.5970 0.7008 -0.3905
vn 0.3336 0.8510 -0.4056
vn 0.5606 0.5895 -0.5816
vn -0.1743 0.8107 -0.5588
vn -0.1739 0.6500 -0.7397
vn -0.9614 0.2059 -0.1823
vn -0.6942 0.6501 -0.3090
vn -0.6252 0.7803 0.0134
vn -0.6129 0.7871 0.0690
vn -0.6093 0.7881 -0.0870
vn -0.7664 0.6399 -0.0554
vn 0.1533 0.7398 0.6551
vn -0.1703 0.7854 0.5950
vn 0.4879 0.4780 0.7303
vn -0.0983 0.8845 0.4560
vn -0.7308 0.6729 0.1141
vn -0.4881 0.8256 0.2828
vn -0.0016 1.0000 -0.0028
vn -0.0258 0.9981 -0.0561
vn -0.0103 0.9993 0.0345
vn 0.2109 0.8117 0.5446
vn -0.3224 0.9290 0.1814
vn 0.0196 0.9983 0.0543
vn -0.0317 0.9992 -0.0215
vn -0.3277 0.9349 0.1360
vn 0.2384 0.7039 0.6690
vn 0.5895 0.6403 0.4924
vn 0.0070 0.9997 0.0211
vn 0.2652 0.8046 -0.5313
vn 0.4252 0.8190 -0.3853
vn 0.0226 0.9988 -0.0437
vn -0.0250 0.9994 -0.0230
vn -0.0307 0.9990 -0.0328
vn 0.0088 0.9999 0.0122
vn -0.0200 0.9997 0.0129
vn -0.0396 0.9991 -0.0158
vn 0.0499 0.9987 0.0123
vn 0.0121 0.9998 0.0146
vn -0.0197 0.9998 -0.0078
vn 0.7105 0.5448 0.4453
vn -0.0023 1.0000 0.0035
vn 0.2802 0.5750 0.7686
vn 0.0211 0.8473 0.5307
vn 0.5001 0.2981 0.8130
vn -0.0617 0.9980 -0.0124
vn 0.1020 0.9877 -0.1180
vn 0.1094 0.9906 -0.0817
vn 0.0097 0.9999 -0.0016
vn 0.0934 0.9955 0.0162
vn 0.8657 0.0039 0.5005
vn 0.7903 -0.0009 0.6127
vn 0.6204 0.2808 -0.7322
vn 0.3144 0.3881 -0.8663
vn 0.3362 0.2792 -0.8995
vn 0.6513 0.2958 -0.6987
vn 0.0243 0.9992 0.0303
vn 0.0146 0.9998 0.0076
vn 0.0052 0.8099 0.5865
vn -0.1483 0.6807 0.7173
vn 0.0705 0.6488 0.7577
vn 0.1344 0.0987 0.9860
vn -0.1163 0.2687 0.9562
vn 0.0000 1.0000 0.0000
vn -0.7019 0.6231 -0.3451
vn -0.5569 0.8300 -0.0323
vn -0.6296 0.7143 0.3055
vn -0.3866 0.9222 -0.0029
vn -0.5663 0.7682 -0.2984
vn 0.3795 0.0955 0.9203
vn 0.5508 0.3135 0.7735
vn 0.6493 0.5183 0.5565
vn 0.5741 0.1560 0.8038
vn 0.1389 0.2990 0.9441
vn -0.0020 0.2876 0.9577
vn 0.1323 0.3169 0.9392
vn 0.2774 0.3159 0.9073
vn 0.3800 0.3082 0.8721
vn 0.0901 0.8292 0.5517
vn 0.0992 0.9945 0.0323
vn 0.8807 0.4665 -0.0823
vn 0.5162 0.5648 0.6438
vn 0.0054 0.9990 0.0444
vn 0.2392 0.6572 0.7147
vn 0.5965 -0.0016 0.8025
vn 0.8141 0.5608 0.1503
vn 0.3590 0.7947 0.4895
vn 0.5200 0.8455 -0.1211
vn 0.4598 0.8876 -0.0268
vn -0.0141 0.9998 -0.0161
vn -0.0107 0.9999 -0.0107
vn 0.3630 0.8427 0.3974
vn 0.0012 0.9999 -0.0081
vn 0.3069 0.0082 0.9517
vn 0.6008 -0.0177 0.7992
vn 0.9968 -0.0071 -0.0791
vn 0.9973 0.0219 0.0702
vn 0.9593 0.2419 0.1458
vn 0.9534 0.2550 -0.1612
vn 0.9386 0.2629 0.2235
vn 0.9667 0.2368 0.0964
vn 0.9691 0.2289 0.0911
vn 0.7584 0.6443 0.0988
vn 0.9571 0.2244 -0.1831
vn 0.0164 0.2937 0.9557
usemtl Material__25
s 1
f 1/1/1 2/2/2 3/3/3
f 4/4/4 3/3/3 2/2/2
f 2/5/2 5/6/5 4/7/4
f 6/8/6 4/7/4 5/6/5
f 5/9/5 7/10/7 6/11/6
f 8/12/8 6/11/6 7/10/7
f 7/13/7 9/14/9 8/15/8
f 10/16/10 8/15/8 9/14/9
f 9/17/9 11/18/11 10/19/10
f 12/20/12 10/19/10 11/18/11
f 11/21/11 13/22/13 12/23/12
f 14/24/14 12/23/12 13/22/13
f 13/25/13 15/26/15 14/27/14
f 16/28/16 14/27/14 15/26/15
f 15/29/15 17/30/17 16/31/16
f 18/32/18 16/31/16 17/30/17
f 19/33/19 20/34/20 21/35/21
f 22/36/22 21/35/21 20/34/20
f 20/37/20 24/38/23 25/39/24
f 17/40/17 27/41/25 23/42/26
f 20/37/20 28/43/27 24/44/23
f 28/45/27 29/46/28 30/47/29
f 31/48/30 5/9/5 32/49/31
f 33/50/32 13/51/13 11/52/11
f 34/53/33 35/54/34 36/55/35
f 37/56/36 38/57/37 39/58/38
f 40/59/39 41/60/40 38/61/37
f 36/62/35 21/63/21 22/64/22
f 42/65/41 22/64/22 33/66/32
f 42/67/41 34/68/33 36/69/35
f 44/70/42 2/5/2 1/71/1
f 45/72/43 5/9/5 2/73/2
f 31/74/30 7/75/7 5/76/5
f 47/77/44 46/78/45 31/79/30
f 39/80/38 41/81/40 46/82/45
f 46/83/45 9/84/9 7/75/7
f 41/85/40 11/86/11 9/87/9
f 48/88/46 33/89/32 11/52/11
f 40/90/39 48/91/46 41/92/40
f 50/93/47 52/94/48 53/95/49
f 54/96/50 52/97/48 51/98/51
f 18/99/18 55/100/52 16/101/16
f 4/102/4 57/103/53 3/104/3
f 56/105/54 55/100/52 57/106/53
f 55/107/52 58/108/55 16/101/16
f 6/109/6 56/110/54 4/111/4
f 8/112/8 58/113/55 56/105/54
f 59/114/56 16/115/16 58/116/55
f 10/117/10 59/118/56 8/119/8
f 14/120/14 59/121/56 12/122/12
f 13/123/13 25/124/24 24/125/23
f 25/126/24 22/127/22 20/128/20
f 21/129/21 29/130/28 19/131/19
f 60/132/57 21/133/21 35/134/34
f 60/135/57 50/136/47 61/137/58
f 24/125/23 15/138/15 13/123/13
f 62/139/59 64/140/60 65/141/61
f 63/142/62 37/143/36 64/144/60
f 66/145/63 67/146/64 68/147/65
f 67/148/64 70/149/66 69/150/67
f 74/151/68 70/152/66 73/153/69
f 54/154/50 74/155/68 73/156/69
f 76/157/70 78/158/71 79/159/72
f 75/160/73 76/161/70 79/159/72
f 23/42/26 80/162/74 26/163/75
f 15/164/15 28/165/27 27/166/25
f 27/167/25 30/168/29 80/169/74
f 78/170/71 80/171/74 79/172/72
f 79/173/72 30/174/29 75/175/73
f 21/176/21 77/177/76 29/46/28
f 61/137/58 53/178/49 77/179/76
f 81/180/77 85/181/78 82/182/79
f 68/183/65 87/184/80 71/185/81
f 88/186/82 71/187/81 87/188/80
f 83/189/83 87/190/80 84/191/84
f 86/192/85 84/193/84 87/194/80
f 85/195/78 89/196/86 90/197/87
f 90/198/87 89/196/86 91/199/88
f 89/200/86 86/201/85 92/202/89
f 86/203/85 67/204/64 92/205/89
f 91/199/88 92/206/89 93/207/90
f 93/208/90 67/148/64 69/150/67
f 95/209/91 97/210/92 94/211/93
f 85/212/78 95/213/91 82/214/79
f 98/215/94 40/216/39 38/61/37
f 94/217/93 97/218/92 99/219/95
f 49/220/96 42/67/41 48/221/46
f 40/222/39 101/223/97 49/224/96
f 49/225/96 99/226/95 43/227/98
f 101/228/97 94/229/93 99/230/95
f 98/231/94 102/232/99 101/233/97
f 93/234/90 74/235/68 104/236/100
f 105/237/101 93/234/90 104/236/100
f 106/238/102 91/239/88 105/240/101
f 60/241/57 34/242/33 51/243/51
f 35/244/34 34/242/33 60/245/57
f 85/246/78 106/247/102 96/248/103
f 99/249/95 96/250/103 106/251/102
f 106/252/102 43/253/98 99/254/95
f 105/255/101 34/256/33 43/257/98
f 104/258/100 51/259/51 34/260/33
f 108/261/104 111/262/105 109/263/106
f 100/264/107 108/265/104 107/266/108
f 103/267/109 110/268/110 108/265/104
f 98/269/94 63/270/62 110/271/110
f 110/272/110 62/273/59 111/274/105
f 17/40/17 15/275/15 27/41/25
f 20/37/20 19/276/19 28/43/27
f 28/45/27 19/277/19 29/46/28
f 36/62/35 35/54/34 21/63/21
f 42/65/41 36/62/35 22/64/22
f 42/67/41 43/278/98 34/68/33
f 44/70/42 45/279/43 2/5/2
f 45/72/43 32/280/31 5/9/5
f 31/74/30 46/83/45 7/75/7
f 47/77/44 39/281/38 46/78/45
f 39/80/38 38/57/37 41/81/40
f 46/83/45 41/60/40 9/84/9
f 41/85/40 48/282/46 11/86/11
f 48/88/46 42/283/41 33/89/32
f 40/90/39 49/284/96 48/91/46
f 50/93/47 51/285/51 52/94/48
f 4/102/4 56/286/54 57/103/53
f 56/105/54 58/113/55 55/100/52
f 6/109/6 8/287/8 56/110/54
f 8/112/8 59/288/56 58/113/55
f 59/114/56 14/289/14 16/115/16
f 10/117/10 12/290/12 59/118/56
f 13/123/13 33/291/32 25/124/24
f 25/126/24 33/292/32 22/127/22
f 60/132/57 61/293/58 21/133/21
f 60/135/57 51/294/51 50/136/47
f 62/139/59 63/295/62 64/140/60
f 63/142/62 38/296/37 37/143/36
f 67/148/64 66/297/63 70/149/66
f 74/151/68 69/298/67 70/152/66
f 54/154/50 51/299/51 74/155/68
f 23/42/26 27/41/25 80/162/74
f 15/164/15 24/300/23 28/165/27
f 27/167/25 28/301/27 30/168/29
f 78/170/71 26/302/75 80/171/74
f 79/173/72 80/303/74 30/174/29
f 21/176/21 61/304/58 77/177/76
f 61/137/58 50/136/47 53/178/49
f 81/180/77 84/305/84 85/181/78
f 68/183/65 86/306/85 87/184/80
f 88/186/82 72/307/111 71/187/81
f 83/189/83 88/308/82 87/190/80
f 86/192/85 85/246/78 84/193/84
f 89/200/86 85/195/78 86/201/85
f 86/203/85 68/309/65 67/204/64
f 91/199/88 89/310/86 92/206/89
f 93/208/90 92/311/89 67/148/64
f 95/209/91 96/312/103 97/210/92
f 85/212/78 96/313/103 95/213/91
f 49/220/96 43/278/98 42/67/41
f 40/222/39 98/215/94 101/223/97
f 49/225/96 101/314/97 99/226/95
f 101/228/97 102/315/99 94/229/93
f 98/231/94 103/316/109 102/232/99
f 93/234/90 69/317/67 74/235/68
f 105/237/101 91/318/88 93/234/90
f 106/238/102 90/319/87 91/239/88
f 85/246/78 90/320/87 106/247/102
f 99/249/95 97/321/92 96/250/103
f 106/252/102 105/322/101 43/253/98
f 105/255/101 104/323/100 34/256/33
f 104/258/100 74/324/68 51/259/51
f 108/261/104 110/325/110 111/262/105
f 100/264/107 103/267/109 108/265/104
f 103/267/109 98/326/94 110/268/110
f 98/269/94 38/327/37 63/270/62
f 110/272/110 63/328/62 62/273/59
