# Blender v2.79 (sub 0) OBJ File: ''
# www.blender.org
mtllib hurricos.012.mtl
o hurricos.012_tex_72.229
v 6.501987 0.435802 2.312149
v 6.497357 0.408029 2.298263
v 6.490415 0.408029 2.335293
v 6.495043 0.426544 2.328350
v 6.508929 0.449688 2.335293
v 6.504301 0.445059 2.339921
v 6.513558 0.445059 2.337607
v 6.513558 0.426544 2.323721
v 6.522816 0.408029 2.323721
v 6.513558 0.449688 2.358437
vt 0.625000 0.875000
vt 0.687500 0.750000
vt 0.625000 0.750000
vt 0.625000 0.875000
vt 0.687500 0.750000
vt 0.625000 0.750000
vt 0.625000 0.875000
vt 0.687500 0.750000
vt 0.625000 0.750000
vt 0.687500 0.875000
vt 0.687500 0.750000
vt 0.625000 0.875000
vt 0.625000 0.750000
vt 0.625000 0.750000
vt 0.687500 0.750000
vt 0.625000 0.875000
vt 0.687500 0.875000
vt 0.625000 0.750000
vt 0.687500 0.875000
vt 0.687500 0.875000
vt 0.625000 0.750000
vt 0.687500 0.875000
vt 0.687500 0.875000
vt 0.687500 0.875000
vt 0.625000 0.875000
vn -0.2370 0.4803 -0.8445
vn -0.7794 0.2751 0.5629
vn -0.1303 0.6645 -0.7358
vn -0.7967 0.0112 0.6042
vn 0.0325 0.9434 -0.3299
vn 0.9611 0.2105 0.1788
vn 0.8826 0.4413 0.1622
vn -0.6015 0.3686 0.7087
vn 0.9893 -0.1097 0.0963
vn 0.2163 0.1488 0.9649
usemtl Material__25
s 1
f 2/1/1 4/2/2 1/3/3
f 1/4/3 6/5/4 5/6/5
f 5/7/5 8/8/6 1/3/3
f 2/9/1 8/10/6 9/11/7
f 3/12/8 8/8/6 4/13/2
f 6/14/4 8/10/6 7/15/9
f 6/16/4 7/17/9 10/18/10
f 5/7/5 6/19/4 10/18/10
f 5/7/5 10/20/10 7/21/9
f 2/1/1 3/22/8 4/2/2
f 1/4/3 4/23/2 6/5/4
f 5/7/5 7/17/9 8/8/6
f 2/9/1 1/4/3 8/10/6
f 3/12/8 9/24/7 8/8/6
f 6/14/4 4/25/2 8/10/6
