# Blender v2.79 (sub 0) OBJ File: ''
# www.blender.org
mtllib hurricos.127.mtl
o hurricos.127_tex_72.344
v 0.563264 0.667242 -5.336907
v 0.375798 0.667242 -5.325336
v 0.375798 0.926454 -5.343851
v 0.563264 0.963484 -5.336907
v 0.375798 1.500423 -5.343851
v 0.563264 1.509680 -5.336906
v 0.753043 1.481908 -5.327650
v 0.753043 0.963484 -5.327650
v 0.753043 0.667242 -5.327650
v 1.278410 0.519121 -4.480584
v 0.440601 0.616326 -5.605377
v 0.294794 0.667242 -5.776641
v -0.100966 0.667242 -5.630835
v 0.091128 0.667242 -5.677123
v -0.165769 0.667242 -5.765069
v -0.262974 0.667242 -5.607691
v 0.165189 0.667242 -5.334593
v -0.073194 0.667242 -5.292934
v 0.165189 0.944969 -5.355422
v 1.074743 0.889424 -5.010579
v 0.952081 0.963484 -5.204988
v 1.074743 1.037545 -5.010579
v 0.952081 1.430991 -5.204987
v 1.121032 1.430991 -5.010579
v 1.215921 0.556152 -4.783769
v 1.121032 0.593182 -5.010579
v 1.169634 0.852394 -4.783769
v 1.169634 1.074575 -4.783769
v 1.215921 1.472650 -4.783768
v 0.952081 0.630212 -5.204988
v 0.352654 1.477279 -5.137869
v 0.695184 1.435620 -5.121669
v 0.859506 1.440248 -4.790711
v 0.415143 0.222880 -5.373938
v 0.607237 0.222880 -5.404025
v 0.785445 0.222880 -5.366994
v 1.002997 0.222880 -5.265162
v 1.160376 0.222880 -5.061495
v 1.255266 0.222880 -4.841628
v 1.296925 0.222880 -4.596303
v 0.503090 -0.073362 -5.452627
v 0.644267 -0.073362 -5.473456
v 0.817846 -0.073362 -5.424854
v 1.042342 -0.073362 -5.318392
v 1.204350 -0.073362 -5.130927
v 1.294611 -0.073362 -4.887916
v 1.324697 -0.073362 -4.665735
v 0.505404 0.222880 -5.605377
v 0.558635 -0.073362 -5.598433
v -0.230572 0.667242 -5.167957
v -0.230572 0.667242 -5.318392
v -0.390265 0.944969 -4.700450
v -0.304632 0.944969 -4.994378
v -0.230572 0.977371 -5.186472
v -0.073194 0.954227 -5.313764
v 0.352654 0.981999 -5.137870
v 0.373484 0.981999 -4.526871
v 0.500775 1.449506 -4.797655
v 0.500775 0.972742 -4.797655
v 0.058726 0.968113 -5.179529
v -0.066250 0.958856 -4.936518
v -0.179655 0.963484 -4.654163
v 0.095757 0.977370 -4.591674
v 0.220734 0.958856 -4.867086
vt 0.562500 0.625000
vt 0.625000 0.750000
vt 0.562500 0.750000
vt 0.250000 0.625000
vt 0.312500 0.500000
vt 0.250000 0.500000
vt 0.187500 0.500000
vt 0.250000 0.625000
vt 0.250000 0.500000
vt 0.625000 0.750000
vt 0.687500 0.625000
vt 0.625000 0.625000
vt 0.500000 0.625000
vt 0.562500 0.625000
vt 0.500000 0.500000
vt 0.500000 0.625000
vt 0.562500 0.625000
vt 0.500000 0.500000
vt 0.500000 0.500000
vt 0.562500 0.625000
vt 0.562500 0.500000
vt 0.437500 0.625000
vt 0.500000 0.500000
vt 0.437500 0.500000
vt 0.187500 0.500000
vt 0.125000 0.625000
vt 0.125000 0.500000
vt 0.000000 1.000000
vt 0.062500 1.000000
vt 0.000000 0.875000
vt 0.250000 0.625000
vt 0.312500 0.500000
vt 0.250000 0.500000
vt 0.750000 0.625000
vt 0.687500 0.750000
vt 0.687500 0.625000
vt 0.000000 0.875000
vt 0.062500 1.000000
vt 0.062500 0.875000
vt 0.187500 0.625000
vt 0.250000 0.500000
vt 0.187500 0.500000
vt 0.750000 0.750000
vt 0.750000 0.625000
vt 0.812500 0.750000
vt 0.812500 0.625000
vt 0.187500 0.500000
vt 0.437500 0.625000
vt 0.500000 0.500000
vt 0.437500 0.500000
vt 0.500000 0.625000
vt 0.562500 0.625000
vt 0.562500 0.625000
vt 0.500000 0.500000
vt 0.562500 0.625000
vt 0.500000 0.500000
vt 0.437500 0.500000
vt 0.500000 0.625000
vt 0.500000 0.500000
vt 0.000000 0.875000
vt 0.062500 1.000000
vt 0.062500 0.875000
vt 0.000000 0.875000
vt 0.062500 1.000000
vt 0.062500 0.875000
vt 0.000000 0.875000
vt 0.062500 1.000000
vt 0.062500 0.875000
vt 0.000000 0.875000
vt 0.062500 1.000000
vt 0.062500 0.875000
vt 0.000000 1.000000
vt 0.062500 0.875000
vt 0.000000 0.875000
vt 0.000000 1.000000
vt 0.062500 0.875000
vt 0.000000 0.875000
vt 0.000000 0.625000
vt 0.062500 0.750000
vt 0.062500 0.625000
vt 0.000000 0.625000
vt 0.062500 0.750000
vt 0.062500 0.625000
vt 0.000000 0.625000
vt 0.062500 0.750000
vt 0.062500 0.625000
vt 0.000000 0.750000
vt 0.062500 0.625000
vt 0.000000 0.625000
vt 0.000000 0.750000
vt 0.062500 0.625000
vt 0.000000 0.625000
vt 0.000000 0.750000
vt 0.062500 0.625000
vt 0.000000 0.625000
vt 0.125000 0.500000
vt 0.187500 0.625000
vt 0.125000 0.625000
vt 0.000000 0.750000
vt 0.062500 0.625000
vt 0.000000 0.625000
vt 0.500000 0.625000
vt 0.562500 0.625000
vt 0.500000 0.500000
vt 0.500000 0.625000
vt 0.562500 0.500000
vt 0.562500 0.750000
vt 0.500000 0.625000
vt 0.562500 0.750000
vt 0.562500 0.625000
vt 0.187500 0.500000
vt 0.312500 0.500000
vt 0.375000 0.625000
vt 0.312500 0.625000
vt 0.500000 0.625000
vt 0.562500 0.625000
vt 0.500000 0.500000
vt 0.437500 0.500000
vt 0.500000 0.625000
vt 0.500000 0.500000
vt 0.437500 0.500000
vt 0.500000 0.625000
vt 0.500000 0.500000
vt 0.500000 0.500000
vt 0.562500 0.625000
vt 0.562500 0.500000
vt 0.500000 0.500000
vt 0.562500 0.625000
vt 0.562500 0.500000
vt 0.437500 0.625000
vt 0.500000 0.625000
vt 0.437500 0.500000
vt 0.500000 0.500000
vt 0.562500 0.500000
vt 0.500000 0.500000
vt 0.562500 0.625000
vt 0.562500 0.500000
vt 0.562500 0.625000
vt 0.500000 0.500000
vt 0.437500 0.625000
vt 0.500000 0.500000
vt 0.437500 0.500000
vt 0.625000 0.625000
vt 0.312500 0.625000
vt 0.187500 0.625000
vt 0.687500 0.750000
vt 0.500000 0.625000
vt 0.500000 0.625000
vt 0.187500 0.625000
vt 0.312500 0.625000
vt 0.750000 0.750000
vt 0.000000 1.000000
vt 0.250000 0.625000
vt 0.187500 0.625000
vt 0.437500 0.625000
vt 0.000000 1.000000
vt 0.000000 1.000000
vt 0.000000 1.000000
vt 0.000000 1.000000
vt 0.062500 1.000000
vt 0.062500 1.000000
vt 0.000000 0.750000
vt 0.000000 0.750000
vt 0.000000 0.750000
vt 0.062500 0.750000
vt 0.062500 0.750000
vt 0.062500 0.750000
vt 0.187500 0.500000
vt 0.062500 0.750000
vt 0.500000 0.750000
vt 0.500000 0.750000
vt 0.187500 0.625000
vt 0.375000 0.500000
vt 0.437500 0.625000
vt 0.437500 0.625000
vt 0.500000 0.625000
vt 0.500000 0.625000
vt 0.500000 0.625000
vn -0.0046 0.0552 -0.9984
vn -0.1840 0.2290 -0.9559
vn 0.0428 0.0000 -0.9991
vn -0.5412 0.6003 -0.5888
vn 0.3087 0.7174 -0.6245
vn 0.2960 0.0000 -0.9552
vn 0.3054 0.0636 -0.9501
vn 0.2666 0.3615 -0.8934
vn 0.7700 0.6311 0.0932
vn 0.1256 0.9918 -0.0225
vn 0.0000 1.0000 0.0000
vn -0.0452 0.7067 -0.7060
vn -0.2762 0.7456 -0.6065
vn 0.8793 0.0468 -0.4739
vn 0.7034 0.0000 -0.7108
vn 0.8809 -0.0323 -0.4720
vn 0.5394 0.6443 -0.5421
vn 0.8545 0.1544 -0.4960
vn 0.9241 0.0802 -0.3735
vn 0.9429 0.1516 -0.2964
vn 0.9244 -0.0600 -0.3765
vn 0.6559 0.6057 -0.4504
vn 0.6590 0.1010 -0.7453
vn -0.7279 0.6595 0.1876
vn 0.0918 0.7942 -0.6007
vn 0.0768 0.9910 0.1097
vn -0.0039 0.9986 -0.0523
vn 0.6977 0.5936 -0.4009
vn 0.7438 0.2854 -0.6044
vn 0.0136 0.1792 -0.9837
vn 0.3262 0.1816 -0.9277
vn 0.6057 0.2083 -0.7679
vn 0.8498 0.1925 -0.4906
vn 0.9490 0.1560 -0.2739
vn 0.9759 0.1354 -0.1709
vn 0.7355 0.3630 -0.5720
vn 0.0635 0.2213 -0.9731
vn 0.3428 0.2149 -0.9145
vn 0.5907 0.2180 -0.7769
vn 0.8379 0.2266 -0.4965
vn 0.9496 0.1791 -0.2574
vn 0.9789 0.1422 -0.1469
vn 0.9194 0.1643 0.3572
vn 0.9203 0.1736 0.3506
vn -0.5522 0.4715 -0.6875
vn -0.2955 0.5832 -0.7566
vn -0.0318 0.6004 -0.7990
vn -0.6787 0.7327 0.0495
vn -0.5449 0.7966 0.2616
vn -0.0010 0.9989 -0.0458
vn -0.0222 0.9997 0.0110
vn -0.3345 0.8672 -0.3688
vn -0.0754 0.9961 0.0456
vn -0.0569 0.9979 -0.0311
vn -0.0823 0.9963 -0.0240
vn -0.0087 0.9984 -0.0558
vn -0.0182 0.9980 -0.0597
vn -0.0252 0.9997 -0.0048
vn -0.5419 0.8133 0.2118
vn 0.9738 0.1329 -0.1845
usemtl Material__25
s 1
f 1/1/1 3/2/2 4/3/3
f 5/4/4 4/5/3 3/6/2
f 4/7/3 7/8/5 8/9/6
f 4/10/3 9/11/7 1/12/1
f 2/13/8 11/14/9 12/15/10
f 13/16/11 15/17/11 16/18/11
f 17/19/12 13/20/11 18/21/13
f 14/22/11 2/23/8 12/24/10
f 17/25/12 3/26/2 2/27/8
f 20/28/14 21/29/15 22/30/16
f 23/31/17 22/32/16 21/33/15
f 26/34/18 27/35/19 25/36/20
f 28/37/21 20/38/14 22/39/16
f 24/40/22 28/41/21 22/42/16
f 9/11/7 21/43/15 30/44/23
f 30/44/23 20/45/14 26/46/18
f 8/47/6 23/31/17 21/33/15
f 31/48/24 6/49/25 5/50/4
f 32/51/26 7/52/5 6/49/25
f 32/51/26 23/53/17 7/54/5
f 32/51/26 24/55/22 23/56/17
f 24/57/22 33/58/27 29/59/28
f 34/60/29 1/61/1 35/62/30
f 35/63/30 9/64/7 36/65/31
f 36/66/31 30/67/23 37/68/32
f 37/69/32 26/70/18 38/71/33
f 26/72/18 39/73/34 38/74/33
f 25/75/20 40/76/35 39/77/34
f 41/78/36 35/79/30 42/80/37
f 42/81/37 36/82/31 43/83/38
f 43/84/38 37/85/32 44/86/39
f 37/87/32 45/88/40 44/89/39
f 38/90/33 46/91/41 45/92/40
f 39/93/34 47/94/42 46/95/41
f 34/96/29 11/97/9 2/98/8
f 48/99/43 41/100/36 49/101/44
f 50/102/45 18/103/13 51/104/11
f 51/105/11 13/106/11 16/18/11
f 50/102/45 55/107/46 18/103/13
f 18/108/13 19/109/47 17/110/12
f 56/111/48 5/4/4 3/6/2
f 56/112/48 58/113/49 31/114/24
f 55/115/46 60/116/50 19/117/47
f 61/118/51 54/119/52 53/120/53
f 62/121/54 53/122/53 52/123/55
f 63/124/56 61/125/51 62/126/54
f 57/127/57 64/128/58 63/129/56
f 56/130/48 64/131/58 59/132/59
f 64/133/58 60/116/50 61/134/51
f 56/135/48 19/136/47 60/137/50
f 55/115/46 54/138/52 60/139/50
f 58/140/49 32/141/26 31/142/24
f 1/1/1 2/143/8 3/2/2
f 5/4/4 6/144/25 4/5/3
f 4/7/3 6/145/25 7/8/5
f 4/10/3 8/146/6 9/11/7
f 17/19/12 14/147/11 13/20/11
f 14/22/11 17/148/12 2/23/8
f 17/25/12 19/149/47 3/26/2
f 23/31/17 24/150/22 22/32/16
f 26/34/18 20/151/14 27/35/19
f 28/37/21 27/152/19 20/38/14
f 24/40/22 29/153/28 28/41/21
f 9/11/7 8/146/6 21/43/15
f 30/44/23 21/43/15 20/45/14
f 8/47/6 7/154/5 23/31/17
f 31/48/24 32/51/26 6/49/25
f 24/57/22 32/155/26 33/58/27
f 34/60/29 2/156/8 1/61/1
f 35/63/30 1/157/1 9/64/7
f 36/66/31 9/158/7 30/67/23
f 37/69/32 30/159/23 26/70/18
f 26/72/18 25/160/20 39/73/34
f 25/75/20 10/161/60 40/76/35
f 41/78/36 34/162/29 35/79/30
f 42/81/37 35/163/30 36/82/31
f 43/84/38 36/164/31 37/85/32
f 37/87/32 38/165/33 45/88/40
f 38/90/33 39/166/34 46/91/41
f 39/93/34 40/167/35 47/94/42
f 34/96/29 48/168/43 11/97/9
f 48/99/43 34/169/29 41/100/36
f 51/105/11 18/103/13 13/106/11
f 50/102/45 54/170/52 55/107/46
f 18/108/13 55/171/46 19/109/47
f 56/111/48 31/172/24 5/4/4
f 56/112/48 59/173/59 58/113/49
f 61/118/51 60/174/50 54/119/52
f 62/121/54 61/175/51 53/122/53
f 63/124/56 64/131/58 61/125/51
f 57/127/57 59/176/59 64/128/58
f 64/133/58 56/177/48 60/116/50
f 56/135/48 3/178/2 19/136/47
f 58/140/49 33/58/27 32/141/26
