# Blender v2.79 (sub 0) OBJ File: ''
# www.blender.org
mtllib hurricos.059.mtl
o hurricos.059_tex_72.276
v 7.802673 0.583923 -1.258954
v 7.802673 0.556150 -1.245067
v 7.818874 0.556150 -1.277469
v 7.811932 0.574665 -1.272840
v 7.802673 0.597809 -1.282098
v 7.807302 0.593181 -1.286726
v 7.798044 0.593181 -1.286726
v 7.793415 0.574665 -1.275154
v 7.784159 0.556150 -1.277469
v 7.802673 0.597809 -1.307556
vt 0.625000 0.875000
vt 0.687500 0.750000
vt 0.625000 0.750000
vt 0.625000 0.750000
vt 0.687500 0.875000
vt 0.687500 0.750000
vt 0.625000 0.875000
vt 0.687500 0.750000
vt 0.625000 0.750000
vt 0.687500 0.875000
vt 0.687500 0.750000
vt 0.625000 0.875000
vt 0.625000 0.750000
vt 0.625000 0.750000
vt 0.687500 0.750000
vt 0.625000 0.875000
vt 0.687500 0.875000
vt 0.625000 0.750000
vt 0.687500 0.875000
vt 0.687500 0.875000
vt 0.625000 0.750000
vt 0.687500 0.875000
vt 0.625000 0.875000
vt 0.687500 0.875000
vt 0.625000 0.875000
vn 0.0034 0.4923 0.8704
vn 0.9146 0.2423 -0.3237
vn -0.0184 0.6611 0.7501
vn -0.0068 0.9330 0.3597
vn 0.9286 -0.0439 -0.3683
vn -0.8472 0.2342 -0.4769
vn -0.7951 0.4486 -0.4081
vn 0.8004 0.3634 -0.4767
vn -0.9330 -0.0372 -0.3580
vn -0.0005 0.1446 -0.9895
usemtl Material__25
s 1
f 2/1/1 4/2/2 1/3/3
f 5/4/4 4/5/2 6/6/5
f 5/7/4 8/8/6 1/3/3
f 2/9/1 8/10/6 9/11/7
f 3/12/8 8/8/6 4/13/2
f 6/14/5 8/10/6 7/15/9
f 6/16/5 7/17/9 10/18/10
f 5/7/4 6/19/5 10/18/10
f 5/7/4 10/20/10 7/21/9
f 2/1/1 3/22/8 4/2/2
f 5/4/4 1/23/3 4/5/2
f 5/7/4 7/17/9 8/8/6
f 2/9/1 1/23/3 8/10/6
f 3/12/8 9/24/7 8/8/6
f 6/14/5 4/25/2 8/10/6
