# Blender v2.79 (sub 0) OBJ File: ''
# www.blender.org
mtllib hurricos.004.mtl
o hurricos.004_tex_72.221
v -5.021358 0.370998 4.841776
v -5.125505 0.370998 4.564050
v -5.252797 0.370998 4.605709
v -5.222709 0.370998 4.307153
v -5.106990 0.370997 5.478234
v -5.255111 0.370998 4.906579
v -5.197251 0.370998 5.195878
v -5.458777 -0.073365 4.082656
v -5.368516 0.222877 4.052570
v -5.405546 -0.073365 4.351126
v -5.296770 0.222877 4.332611
v -5.437947 -0.073365 4.656625
v -5.315285 0.222877 4.621910
v -5.387031 -0.073365 4.934352
v -5.299084 0.222877 4.915837
v -5.375459 -0.073365 5.265309
v -5.271312 0.222877 5.232908
v -5.273626 -0.073365 5.568494
v -5.181050 0.222876 5.515264
vt 0.500000 0.625000
vt 0.562500 0.625000
vt 0.500000 0.500000
vt 0.562500 0.500000
vt 0.500000 0.500000
vt 0.000000 0.625000
vt 0.062500 0.750000
vt 0.000000 0.750000
vt 0.000000 0.625000
vt 0.062500 0.750000
vt 0.000000 0.750000
vt 0.000000 0.625000
vt 0.062500 0.750000
vt 0.000000 0.750000
vt 0.000000 0.625000
vt 0.062500 0.750000
vt 0.000000 0.750000
vt 0.000000 0.625000
vt 0.062500 0.750000
vt 0.000000 0.750000
vt 0.187500 0.625000
vt 0.250000 0.500000
vt 0.187500 0.500000
vt 0.187500 0.625000
vt 0.250000 0.500000
vt 0.187500 0.500000
vt 0.250000 0.625000
vt 0.312500 0.500000
vt 0.187500 0.625000
vt 0.250000 0.500000
vt 0.187500 0.500000
vt 0.562500 0.625000
vt 0.062500 0.625000
vt 0.062500 0.625000
vt 0.062500 0.625000
vt 0.062500 0.625000
vt 0.062500 0.625000
vt 0.250000 0.625000
vt 0.312500 0.625000
vt 0.250000 0.625000
vn -0.5610 0.8274 -0.0248
vn 0.0000 1.0000 0.0000
vn -0.7568 0.6491 -0.0763
vn -0.9214 0.3285 0.2079
vn -0.9297 0.3676 0.0201
vn -0.9225 0.3051 0.2363
vn -0.9332 0.3561 0.0479
vn -0.9286 0.3705 -0.0201
vn -0.9345 0.3555 0.0147
vn -0.9428 0.3179 0.0998
vn -0.9465 0.3016 0.1147
vn -0.8983 0.4026 0.1759
vn -0.9253 0.3399 0.1681
vn -0.8679 0.4093 0.2813
vn -0.8338 0.4835 0.2665
vn -0.8745 0.4488 0.1835
vn -0.7958 0.5984 0.0922
vn -0.8938 0.3332 0.3002
usemtl Material__25
s 1
f 3/1/1 2/2/2 4/3/3
f 3/1/1 1/4/2 2/5/2
f 8/6/4 11/7/5 9/8/6
f 10/9/7 13/10/8 11/11/5
f 12/12/9 15/13/10 13/14/8
f 14/15/11 17/16/12 15/17/10
f 16/18/13 19/19/14 17/20/12
f 5/21/15 17/22/12 19/23/14
f 7/24/16 15/25/10 17/26/12
f 6/27/17 13/28/8 15/25/10
f 3/29/1 11/30/5 13/31/8
f 3/1/1 6/32/17 1/4/2
f 8/6/4 10/33/7 11/7/5
f 10/9/7 12/34/9 13/10/8
f 12/12/9 14/35/11 15/13/10
f 14/15/11 16/36/13 17/16/12
f 16/18/13 18/37/18 19/19/14
f 5/21/15 7/38/16 17/22/12
f 7/24/16 6/27/17 15/25/10
f 6/27/17 3/39/1 13/28/8
f 3/29/1 4/40/3 11/30/5
