# Blender v2.79 (sub 0) OBJ File: ''
# www.blender.org
mtllib hurricos.130.mtl
o hurricos.130_tex_72.347
v -4.595510 0.519122 -4.721280
v -4.595510 0.222880 -4.721280
v -4.657999 0.667242 -4.654163
v -4.806119 0.222880 -4.494470
v -4.921839 0.667242 -4.596303
v -5.125505 0.667242 -4.813856
v -4.993585 0.667242 -4.955033
v -4.780661 0.667242 -4.746738
v -5.150963 0.519122 -5.218874
v -4.935725 0.519122 -5.015207
v -4.720487 0.519122 -4.813856
v -5.340743 0.519122 -5.017522
v -5.150963 0.222880 -5.218874
v -5.340743 0.222880 -5.017522
v -4.935725 0.222880 -5.015207
v -4.720487 0.222880 -4.813856
v -4.910267 0.222880 -4.610189
v -5.125505 0.222880 -4.813856
v -5.324543 0.667242 -4.600932
v -5.123191 0.667242 -4.378750
v -5.123191 0.222880 -4.378750
v -5.324543 0.222880 -4.600932
vt 0.375000 0.750000
vt 0.437500 0.625000
vt 0.375000 0.625000
vt 0.375000 0.625000
vt 0.312500 0.625000
vt 0.375000 0.750000
vt 0.375000 0.625000
vt 0.312500 0.625000
vt 0.062500 0.750000
vt 0.125000 0.625000
vt 0.062500 0.625000
vt 0.312500 0.750000
vt 0.250000 0.875000
vt 0.187500 1.000000
vt 0.187500 0.875000
vt 0.312500 0.875000
vt 0.250000 1.000000
vt 0.375000 0.625000
vt 0.437500 0.750000
vt 0.625000 0.750000
vt 0.687500 0.875000
vt 0.687500 0.750000
vt 0.187500 0.750000
vt 0.250000 0.625000
vt 0.187500 0.625000
vt 0.687500 0.875000
vt 0.625000 1.000000
vt 0.625000 0.875000
vt 0.625000 1.000000
vt 0.625000 0.875000
vt 0.437500 0.750000
vt 0.437500 0.625000
vt 0.687500 0.875000
vt 0.625000 1.000000
vt 0.625000 0.875000
vt 0.437500 0.750000
vt 0.125000 0.750000
vt 0.312500 1.000000
vt 0.375000 0.750000
vt 0.625000 0.875000
vt 0.250000 0.750000
vt 0.687500 1.000000
vt 0.687500 1.000000
vt 0.375000 0.750000
vt 0.687500 1.000000
vn 0.1113 -0.9883 0.1039
vn -0.4146 -0.7721 0.4815
vn 0.0000 -1.0000 0.0000
vn -0.3765 -0.5633 0.7355
vn -0.6628 -0.2539 0.7044
vn -0.1911 -0.8802 0.4344
vn -0.6194 -0.2707 0.7369
vn 0.3263 -0.8941 0.3066
vn -0.4841 0.7077 0.5145
vn -0.4863 0.7067 0.5139
vn -0.4441 0.7202 0.5329
vn -0.5113 -0.5210 0.6834
vn 0.0000 1.0000 0.0000
vn -0.5736 -0.2671 0.7743
vn -0.4360 0.6808 0.5886
usemtl Material__25
s 1
f 6/1/1 8/2/2 5/3/3
f 9/4/4 10/5/5 7/6/6
f 10/7/5 11/8/7 7/6/6
f 7/9/6 12/10/8 9/11/4
f 8/12/2 7/6/6 11/8/7
f 15/13/9 9/14/4 13/15/10
f 16/16/11 10/17/5 15/13/9
f 11/18/7 3/19/12 8/2/2
f 4/20/13 16/21/11 17/22/13
f 1/23/14 16/24/11 2/25/15
f 15/26/9 14/27/13 18/28/13
f 16/21/11 18/29/13 17/30/13
f 5/3/3 19/31/3 6/32/1
f 17/33/13 22/34/13 21/35/13
f 6/1/1 7/36/6 8/2/2
f 7/9/6 6/37/1 12/10/8
f 15/13/9 10/17/5 9/14/4
f 16/16/11 11/38/7 10/17/5
f 11/18/7 1/39/14 3/19/12
f 4/20/13 2/40/15 16/21/11
f 1/23/14 11/41/7 16/24/11
f 15/26/9 13/42/10 14/27/13
f 16/21/11 15/43/9 18/29/13
f 5/3/3 20/44/3 19/31/3
f 17/33/13 18/45/13 22/34/13
