# Blender v2.79 (sub 0) OBJ File: ''
# www.blender.org
mtllib hurricos.083.mtl
o hurricos.083_tex_72.300
v 6.809799 1.366188 -3.332646
v 7.293507 1.333786 -3.166010
v 7.207874 1.319900 -3.351161
v 6.455699 1.375444 -2.455493
v 6.802856 1.370815 -2.147679
v 7.001894 1.361558 -2.270342
v 7.177788 1.366186 -2.436978
v 6.606134 1.347672 -2.673046
v 7.323595 1.398588 -2.661474
v 6.795914 1.347672 -2.934572
v 6.515873 1.407847 -3.413650
v 6.404782 1.407846 -3.128980
v 6.296005 1.403217 -2.226368
v 6.606134 1.361558 -1.999558
v 7.358311 1.375445 -2.911427
v 7.332851 1.134749 -3.307188
v 7.462458 1.134748 -3.029461
v 7.515688 1.111604 -2.360603
v 7.399969 1.190293 -2.256455
v 7.133814 1.241210 -2.145365
v 6.876917 1.259725 -2.029645
v 6.742683 1.278240 -1.874581
v 7.434685 1.111604 -2.214797
v 7.168530 1.111604 -2.103706
v 6.911633 1.111604 -1.960214
v 6.786655 1.111604 -1.823665
v 6.418669 1.352300 -1.761176
v 6.083082 1.430989 -1.990301
v 7.395340 0.667242 -3.330332
v 5.715094 1.421732 -2.163880
v 5.934961 1.417103 -2.423091
v 6.152514 1.407846 -2.684618
v 6.177972 1.111604 -2.673046
v 6.177972 0.815362 -2.673046
v 6.180286 1.407846 -2.916056
v 6.235831 0.815362 -2.890598
v 6.235831 1.111604 -2.890598
v 6.425611 1.111604 -3.115094
v 6.152514 0.519120 -2.684618
v 6.180286 0.519120 -2.916057
v 6.425611 0.815363 -3.115094
v 6.404782 0.519121 -3.128980
v 5.930332 0.519121 -3.385878
v 7.513374 0.667241 -3.057234
v 7.476345 0.519120 -1.916240
v 7.187046 0.519120 -1.916240
v 7.455515 0.519120 -2.189338
v 6.927834 0.519120 -1.939384
v 7.205561 0.519120 -2.052789
v 7.434685 0.667241 -2.214797
v 7.168530 0.667241 -2.103706
v 6.911633 0.667241 -1.960214
v 6.015965 0.519120 -3.015575
v 6.194173 0.519121 -3.429851
v 6.127055 0.519121 -3.209984
v 6.515873 0.519121 -3.413650
v 6.515873 1.111605 -3.413650
v 6.515873 0.815363 -3.413650
vt 0.437500 0.625000
vt 0.500000 0.625000
vt 0.437500 0.500000
vt 0.500000 0.625000
vt 0.562500 0.625000
vt 0.500000 0.500000
vt 0.500000 0.625000
vt 0.562500 0.500000
vt 0.500000 0.500000
vt 0.500000 0.625000
vt 0.562500 0.500000
vt 0.500000 0.500000
vt 0.500000 0.625000
vt 0.562500 0.500000
vt 0.500000 0.500000
vt 0.562500 0.500000
vt 0.500000 0.500000
vt 0.562500 0.625000
vt 0.500000 0.500000
vt 0.500000 0.500000
vt 0.562500 0.625000
vt 0.562500 0.500000
vt 0.187500 0.500000
vt 0.250000 0.625000
vt 0.250000 0.500000
vt 0.375000 0.500000
vt 0.437500 0.625000
vt 0.437500 0.500000
vt 0.437500 0.625000
vt 0.500000 0.500000
vt 0.437500 0.500000
vt 0.437500 0.625000
vt 0.500000 0.500000
vt 0.437500 0.500000
vt 0.562500 0.625000
vt 0.562500 0.500000
vt 0.562500 0.625000
vt 0.562500 0.500000
vt 0.500000 0.625000
vt 0.750000 0.750000
vt 0.812500 0.875000
vt 0.812500 0.750000
vt 0.500000 0.625000
vt 0.562500 0.500000
vt 0.500000 0.500000
vt 0.375000 0.500000
vt 0.312500 0.625000
vt 0.312500 0.500000
vt 0.500000 0.625000
vt 0.562500 0.500000
vt 0.500000 0.500000
vt 0.500000 0.500000
vt 0.562500 0.625000
vt 0.562500 0.500000
vt 0.500000 0.625000
vt 0.562500 0.500000
vt 0.500000 0.500000
vt 0.500000 0.500000
vt 0.562500 0.625000
vt 0.562500 0.500000
vt 0.375000 0.500000
vt 0.312500 0.625000
vt 0.312500 0.500000
vt 0.437500 0.500000
vt 0.500000 0.500000
vt 0.375000 0.625000
vt 0.375000 0.500000
vt 0.500000 0.625000
vt 0.562500 0.500000
vt 0.500000 0.500000
vt 0.875000 0.625000
vt 0.812500 0.750000
vt 0.812500 0.625000
vt 0.187500 0.625000
vt 0.250000 0.500000
vt 0.187500 0.500000
vt 0.875000 0.750000
vt 0.937500 0.625000
vt 0.875000 0.625000
vt 0.812500 0.625000
vt 0.875000 0.750000
vt 0.875000 0.625000
vt 0.437500 0.625000
vt 0.500000 0.500000
vt 0.437500 0.500000
vt 0.500000 0.625000
vt 0.562500 0.625000
vt 0.500000 0.500000
vt 0.875000 0.750000
vt 0.937500 0.625000
vt 0.875000 0.625000
vt 0.250000 0.625000
vt 0.312500 0.500000
vt 0.250000 0.500000
vt 0.187500 0.500000
vt 0.125000 0.625000
vt 0.125000 0.500000
vt 0.875000 0.625000
vt 0.937500 0.750000
vt 0.875000 0.750000
vt 0.500000 0.500000
vt 0.562500 0.625000
vt 0.500000 0.625000
vt 0.750000 0.750000
vt 0.812500 0.875000
vt 0.750000 0.875000
vt 0.437500 0.500000
vt 0.500000 0.625000
vt 0.437500 0.625000
vt 0.250000 0.625000
vt 0.312500 0.500000
vt 0.875000 0.625000
vt 0.937500 0.750000
vt 0.937500 0.625000
vt 0.437500 0.625000
vt 0.437500 0.500000
vt 0.562500 0.625000
vt 0.500000 0.625000
vt 0.187500 0.625000
vt 0.375000 0.625000
vt 0.500000 0.625000
vt 0.500000 0.625000
vt 0.750000 0.875000
vt 0.562500 0.625000
vt 0.375000 0.625000
vt 0.500000 0.625000
vt 0.375000 0.625000
vt 0.437500 0.625000
vt 0.562500 0.625000
vt 0.875000 0.750000
vt 0.937500 0.750000
vt 0.812500 0.750000
vt 0.500000 0.625000
vt 0.312500 0.625000
vt 0.187500 0.625000
vt 0.812500 0.750000
vt 0.500000 0.500000
vt 0.312500 0.625000
vt 0.875000 0.750000
vt 0.500000 0.625000
vn 0.0970 0.9948 0.0303
vn 0.4177 0.8719 -0.2556
vn 0.4188 0.8703 -0.2590
vn 0.0988 0.9944 -0.0355
vn 0.1859 0.9463 0.2646
vn 0.1893 0.9504 0.2468
vn 0.0637 0.9980 -0.0050
vn 0.2129 0.9505 0.2264
vn 0.0367 0.9991 0.0180
vn 0.0889 0.9878 0.1280
vn -0.5379 0.7791 -0.3218
vn -0.5865 0.7769 -0.2289
vn 0.1457 0.9789 0.1433
vn -0.0439 0.9915 -0.1227
vn 0.8584 0.3108 -0.4082
vn 0.8821 0.2415 -0.4043
vn 0.6163 0.7380 0.2747
vn 0.3907 0.6500 0.6518
vn 0.5375 0.7165 0.4447
vn 0.4555 0.6782 0.5766
vn 0.5662 0.7042 0.4282
vn 0.5140 0.3766 0.7707
vn 0.4397 0.2046 0.8745
vn 0.5574 0.2950 0.7760
vn 0.6847 0.3721 0.6266
vn 0.1210 0.9897 0.0764
vn 0.1130 0.9936 -0.0020
vn 0.1024 0.9947 -0.0001
vn -0.3180 0.9445 -0.0817
vn -0.7150 0.6011 -0.3569
vn -0.9654 0.0461 -0.2567
vn -0.8842 -0.0716 -0.4615
vn -0.8842 0.0716 -0.4615
vn -0.8777 -0.0417 -0.4774
vn -0.9654 -0.0461 -0.2567
vn 0.0296 0.9993 -0.0233
vn -0.9728 0.1526 -0.1740
vn -0.6751 0.6558 -0.3380
vn -0.8777 0.0417 -0.4774
vn -0.6156 0.6946 -0.3721
vn 0.9060 0.1292 -0.4029
vn 0.9110 0.1226 -0.3937
vn 0.2203 0.8328 0.5078
vn 0.0000 1.0000 0.0000
vn 0.3415 0.7018 0.6251
vn 0.3989 0.4823 0.7799
vn 0.4142 0.1385 0.8996
vn 0.4125 0.1774 0.8935
vn 0.4858 0.0863 0.8698
vn -0.7291 0.6224 -0.2845
vn -0.9510 0.0198 -0.3084
vn -0.9510 -0.0198 -0.3084
vn -0.0119 0.9995 -0.0280
usemtl Material__25
s 1
f 1/1/1 2/2/2 3/3/3
f 4/4/4 5/5/5 6/6/6
f 8/7/7 6/8/6 7/9/8
f 10/10/9 7/11/8 9/12/10
f 12/13/11 1/14/1 11/15/12
f 4/4/4 14/16/13 5/17/5
f 10/10/9 9/18/10 15/19/14
f 2/20/2 10/21/9 15/22/14
f 16/23/15 2/24/2 17/25/16
f 7/26/8 18/27/17 9/28/10
f 7/29/8 20/30/18 19/31/19
f 6/32/6 21/33/20 20/34/18
f 21/33/20 14/35/13 22/36/21
f 19/37/19 23/38/22 18/39/17
f 24/40/23 19/41/19 20/42/18
f 20/43/18 25/44/24 24/45/23
f 25/46/24 22/47/21 26/48/25
f 27/49/26 13/50/27 28/51/28
f 32/52/29 13/53/27 4/54/4
f 32/55/29 8/56/7 35/57/30
f 12/58/11 8/59/7 10/60/9
f 34/61/31 37/62/32 36/63/33
f 37/64/32 12/13/11 38/65/34
f 32/66/29 37/64/32 33/67/35
f 31/68/36 28/69/28 13/70/27
f 39/71/37 36/72/33 40/73/38
f 37/74/32 41/75/39 36/76/33
f 36/77/33 42/78/40 40/79/38
f 29/80/41 17/81/16 44/82/42
f 49/83/43 45/84/44 47/85/45
f 48/86/46 46/87/44 49/88/43
f 50/89/47 49/90/43 47/91/45
f 23/92/22 51/93/48 50/94/47
f 51/95/48 25/96/24 52/97/49
f 48/98/46 51/99/48 52/100/49
f 54/101/44 43/102/44 55/103/44
f 55/104/44 40/105/38 42/106/40
f 54/107/44 42/108/40 56/109/50
f 38/110/34 58/111/51 41/75/39
f 42/112/40 58/113/51 56/114/50
f 12/58/11 57/115/52 38/116/34
f 8/7/7 4/117/4 6/8/6
f 10/10/9 8/59/7 7/11/8
f 12/13/11 10/21/9 1/14/1
f 4/4/4 13/53/27 14/16/13
f 2/20/2 1/118/1 10/21/9
f 16/23/15 3/119/3 2/24/2
f 7/26/8 19/120/19 18/27/17
f 7/29/8 6/121/6 20/30/18
f 6/32/6 5/122/5 21/33/20
f 21/33/20 5/122/5 14/35/13
f 24/40/23 23/123/22 19/41/19
f 20/43/18 21/124/20 25/44/24
f 25/46/24 21/125/20 22/47/21
f 27/49/26 14/35/13 13/50/27
f 32/52/29 31/68/36 13/53/27
f 32/55/29 4/117/4 8/56/7
f 12/58/11 35/126/30 8/59/7
f 34/61/31 33/127/35 37/62/32
f 37/64/32 35/128/30 12/13/11
f 32/66/29 35/128/30 37/64/32
f 31/68/36 30/129/53 28/69/28
f 39/71/37 34/130/31 36/72/33
f 37/74/32 38/110/34 41/75/39
f 36/77/33 41/131/39 42/78/40
f 29/80/41 16/132/15 17/81/16
f 49/83/43 46/133/44 45/84/44
f 50/89/47 51/99/48 49/90/43
f 23/92/22 24/134/23 51/93/48
f 51/95/48 24/135/23 25/96/24
f 48/98/46 49/90/43 51/99/48
f 55/104/44 53/136/44 40/105/38
f 54/107/44 55/137/44 42/108/40
f 38/110/34 57/138/52 58/111/51
f 42/112/40 41/139/39 58/113/51
f 12/58/11 11/140/12 57/115/52
