# Blender v2.79 (sub 0) OBJ File: ''
# www.blender.org
mtllib hurricos.077.mtl
o hurricos.077_tex_72.294
v -5.067646 0.519120 -0.934939
v -5.067646 0.815362 -0.934939
v -5.287512 0.815362 -1.157121
v -5.287512 0.519120 -1.157121
v -5.067646 0.370999 -0.934939
v -5.287512 0.370999 -1.157121
v -5.058388 0.815362 -1.383931
v -5.058388 0.519120 -1.383931
v -5.058388 0.222878 -1.383931
vt 0.312500 0.875000
vt 0.375000 0.750000
vt 0.312500 0.750000
vt 0.312500 0.875000
vt 0.375000 0.750000
vt 0.312500 0.750000
vt 0.375000 1.000000
vt 0.437500 0.875000
vt 0.375000 0.875000
vt 0.375000 0.875000
vt 0.437500 1.000000
vt 0.437500 0.875000
vt 0.375000 0.875000
vt 0.375000 0.875000
vt 0.437500 1.000000
vt 0.375000 1.000000
vn -0.7108 0.0000 0.7034
vn -1.0000 0.0000 -0.0051
vn -0.9922 0.0000 -0.1248
vn -0.7035 0.0000 -0.7107
usemtl Material__25
s 1
f 2/1/1 4/2/2 1/3/1
f 1/4/1 6/5/3 5/6/1
f 8/7/4 3/8/2 7/9/4
f 8/10/4 6/11/3 4/12/2
f 2/1/1 3/13/2 4/2/2
f 1/4/1 4/14/2 6/5/3
f 8/7/4 4/15/2 3/8/2
f 8/10/4 9/16/4 6/11/3
