# Blender v2.79 (sub 0) OBJ File: ''
# www.blender.org
mtllib hurricos.057.mtl
o hurricos.057_tex_72.274
v 7.494860 1.060687 -1.309870
v 7.494860 1.060687 -1.337643
v 7.524946 1.037543 -1.214980
v 7.587435 1.037543 -1.279783
v 7.587435 1.037543 -1.372359
v 7.522633 1.037543 -1.434847
v 7.536518 0.963483 -1.471878
v 7.622150 0.963483 -1.386245
v 7.416170 0.963483 -1.469563
v 7.418484 0.963483 -1.180264
v 7.538834 0.963483 -1.180264
v 7.622150 0.963483 -1.265897
v 8.045685 0.519120 -0.428088
v 7.779530 0.519120 -0.435031
v 8.075771 0.519120 -0.724330
v 7.779530 0.519120 -0.731273
v 7.483288 0.519120 -0.731273
v 7.483288 0.519120 -0.435031
v 8.362755 0.542264 -0.680356
v 8.339611 0.519120 -0.347085
v 8.515505 -0.073364 -0.666470
v 8.483103 0.222878 -0.668785
v 8.365070 0.222878 -0.388744
v 8.392843 -0.073364 -0.386429
v 9.311655 0.644097 -1.909297
v 9.934225 0.718158 -1.950956
v 9.966627 0.718158 -1.920869
v 9.911081 0.644097 -1.983358
v 9.728245 0.704271 -1.749604
v 9.756018 0.704271 -1.717203
v 9.700472 0.630211 -1.779691
v 9.422745 0.713529 -1.696373
v 9.434317 0.713529 -1.657029
v 9.406546 0.639468 -1.712574
v 9.154276 0.727415 -1.657029
v 9.182049 0.727415 -1.617684
v 9.110304 0.653355 -1.680173
v 8.816376 0.648726 -1.657029
v 8.844149 0.722786 -1.633885
v 8.885807 0.722786 -1.594540
v 9.064014 0.667241 -1.782006
v 8.608080 0.667241 -1.911612
v 9.772219 -0.073364 -1.680173
v 9.762960 0.296939 -1.703317
v 9.441261 0.296939 -1.592226
v 9.448204 -0.073364 -1.562139
v 10.001343 -0.073364 -1.897725
v 9.978199 0.296939 -1.913926
v 9.193621 -0.073364 -1.520480
v 9.188992 0.296939 -1.552881
v 8.892750 0.296939 -1.534366
v 8.899694 -0.073364 -1.501965
v 8.529392 0.667241 -1.636199
v 8.598824 0.741301 -1.573711
v 8.564108 0.741301 -1.615370
v 8.598824 0.519120 -1.545938
v 8.529392 0.519120 -1.608427
v 8.314154 0.667241 -1.879210
v 8.020226 0.639468 -1.967157
v 8.314154 0.519120 -1.879210
v 8.010967 0.519120 -1.916240
v 8.617338 0.296939 -1.534366
v 8.645111 -0.073364 -1.511222
v 7.767958 0.519120 -1.518165
v 7.872105 0.519120 -1.395503
v 7.779530 0.519120 -1.619998
v 7.670753 0.519120 -1.036772
v 7.779530 0.519120 -1.027515
v 7.767958 0.519120 -1.136291
v 8.075771 0.519120 -1.619998
v 8.075771 0.519120 -1.323757
v 7.872105 0.519120 -1.265897
v 8.075771 0.500605 -1.020572
v 7.666124 0.519120 -1.617684
v 8.372013 0.519120 -1.619998
v 8.418301 0.519120 -1.291355
v 7.476345 0.519120 -1.916240
v 7.286564 0.519120 -1.615370
v 8.277122 0.542264 -0.978913
v 7.288879 0.519120 -1.034458
v 7.761015 0.519120 -1.916240
v 8.402100 -0.073364 -0.974284
v 8.376642 0.222878 -0.978913
v 8.540964 -0.073364 -1.272840
v 8.508562 0.222878 -1.286726
v 7.723984 0.741301 -1.427904
v 7.754070 0.556150 -1.441791
v 7.735556 0.741301 -1.497336
v 7.691582 0.963483 -1.414018
v 7.707783 0.926453 -1.478821
v 7.723984 0.741301 -1.224238
v 7.754070 0.556150 -1.212666
v 7.691582 0.963483 -1.238124
v 7.737869 0.741301 -1.157121
v 7.710098 0.926453 -1.175636
v 7.860533 0.556150 -1.386245
v 7.860533 0.556150 -1.272840
v 7.754070 0.519120 -1.201094
v 7.754070 0.519120 -1.453362
v 7.594378 0.519120 -1.050659
v 7.365253 0.519120 -1.048344
v 7.362940 0.519120 -1.601483
v 7.589748 0.519120 -1.601483
v 7.376825 0.741301 -1.078431
v 7.390713 0.963483 -1.113147
v 7.580492 0.741301 -1.080746
v 7.566605 0.963483 -1.113147
v 7.649923 0.741301 -1.066859
v 7.631409 0.926453 -1.096946
v 7.647610 0.741301 -1.585283
v 7.629093 0.926453 -1.557510
v 7.578176 0.741301 -1.573711
v 7.564291 0.963483 -1.538995
v 7.374512 0.741301 -1.571396
v 7.388397 0.963483 -1.538995
vt 0.312500 0.875000
vt 0.375000 0.875000
vt 0.312500 0.750000
vt 0.312500 0.875000
vt 0.375000 0.875000
vt 0.312500 0.750000
vt 0.375000 0.750000
vt 0.312500 0.750000
vt 0.375000 0.875000
vt 0.437500 0.750000
vt 0.375000 0.750000
vt 0.375000 0.750000
vt 0.437500 0.875000
vt 0.437500 0.750000
vt 0.437500 0.750000
vt 0.375000 0.750000
vt 0.937500 1.000000
vt 1.000000 0.875000
vt 0.937500 0.875000
vt 0.937500 1.000000
vt 0.500000 0.500000
vt 0.562500 0.625000
vt 0.562500 0.500000
vt 0.000000 0.750000
vt 0.062500 0.625000
vt 0.000000 0.625000
vt 0.312500 0.625000
vt 0.375000 0.500000
vt 0.312500 0.500000
vt 0.312500 0.750000
vt 0.375000 0.875000
vt 0.312500 0.875000
vt 0.250000 0.750000
vt 0.187500 0.875000
vt 0.187500 0.750000
vt 0.375000 0.750000
vt 0.312500 0.875000
vt 0.312500 0.750000
vt 0.312500 0.750000
vt 0.250000 0.875000
vt 0.250000 0.750000
vt 0.375000 0.750000
vt 0.312500 0.875000
vt 0.312500 0.750000
vt 0.250000 0.750000
vt 0.187500 0.875000
vt 0.187500 0.750000
vt 0.312500 0.750000
vt 0.250000 0.875000
vt 0.250000 0.750000
vt 0.375000 0.750000
vt 0.312500 0.875000
vt 0.312500 0.750000
vt 0.437500 0.625000
vt 0.500000 0.500000
vt 0.437500 0.500000
vt 0.500000 0.625000
vt 0.437500 0.500000
vt 0.000000 0.625000
vt 0.062500 0.750000
vt 0.062500 0.625000
vt 0.312500 0.750000
vt 0.375000 0.875000
vt 0.375000 0.750000
vt 0.000000 0.625000
vt 0.062500 0.750000
vt 0.062500 0.625000
vt 0.312500 0.875000
vt 0.375000 0.750000
vt 0.312500 0.750000
vt 0.000000 0.750000
vt 0.062500 0.625000
vt 0.000000 0.625000
vt 0.312500 0.875000
vt 0.375000 0.750000
vt 0.312500 0.750000
vt 0.000000 0.750000
vt 0.062500 0.625000
vt 0.000000 0.625000
vt 0.312500 0.750000
vt 0.375000 0.875000
vt 0.375000 0.750000
vt 0.312500 0.875000
vt 0.375000 0.875000
vt 0.312500 0.750000
vt 0.312500 0.750000
vt 0.375000 0.875000
vt 0.375000 0.750000
vt 0.250000 0.750000
vt 0.187500 0.875000
vt 0.187500 0.750000
vt 0.375000 0.750000
vt 0.312500 0.875000
vt 0.312500 0.750000
vt 0.437500 0.625000
vt 0.500000 0.500000
vt 0.437500 0.500000
vt 0.375000 0.625000
vt 0.437500 0.500000
vt 0.375000 0.500000
vt 0.375000 0.500000
vt 0.312500 0.625000
vt 0.312500 0.500000
vt 0.312500 0.875000
vt 0.375000 0.750000
vt 0.312500 0.750000
vt 0.375000 0.875000
vt 0.000000 0.750000
vt 0.062500 0.625000
vt 0.000000 0.625000
vt 0.500000 0.625000
vt 0.562500 0.625000
vt 0.500000 0.500000
vt 0.500000 0.625000
vt 0.562500 0.625000
vt 0.500000 0.500000
vt 0.937500 0.875000
vt 1.000000 1.000000
vt 1.000000 0.875000
vt 0.500000 0.625000
vt 0.500000 0.500000
vt 0.500000 0.625000
vt 0.562500 0.500000
vt 0.500000 0.500000
vt 0.500000 0.625000
vt 0.562500 0.625000
vt 0.500000 0.500000
vt 0.562500 0.625000
vt 0.500000 0.500000
vt 0.500000 0.625000
vt 0.562500 0.500000
vt 0.500000 0.500000
vt 0.500000 0.500000
vt 0.562500 0.625000
vt 0.562500 0.500000
vt 0.500000 0.500000
vt 0.562500 0.625000
vt 0.562500 0.500000
vt 0.562500 0.500000
vt 0.500000 0.500000
vt 0.500000 0.625000
vt 0.562500 0.500000
vt 0.500000 0.500000
vt 0.500000 0.625000
vt 0.562500 0.625000
vt 0.500000 0.500000
vt 0.937500 1.000000
vt 1.000000 0.875000
vt 1.000000 1.000000
vt 1.000000 0.875000
vt 0.937500 1.000000
vt 1.000000 0.875000
vt 0.500000 0.500000
vt 0.562500 0.500000
vt 0.500000 0.625000
vt 0.500000 0.500000
vt 0.500000 0.625000
vt 0.562500 0.625000
vt 0.500000 0.500000
vt 0.000000 0.625000
vt 0.062500 0.750000
vt 0.062500 0.625000
vt 0.187500 0.500000
vt 0.250000 0.625000
vt 0.250000 0.500000
vt 0.000000 0.750000
vt 0.062500 0.625000
vt 0.000000 0.625000
vt 0.250000 0.500000
vt 0.312500 0.625000
vt 0.250000 0.625000
vt 0.000000 0.625000
vt 0.062500 0.750000
vt 0.062500 0.625000
vt 0.187500 0.500000
vt 0.250000 0.625000
vt 0.250000 0.500000
vt 0.312500 0.875000
vt 0.375000 0.750000
vt 0.312500 0.750000
vt 0.312500 0.875000
vt 0.375000 0.750000
vt 0.312500 0.750000
vt 0.375000 0.875000
vt 0.437500 0.750000
vt 0.375000 0.750000
vt 0.375000 0.875000
vt 0.437500 0.750000
vt 0.375000 0.750000
vt 0.312500 0.750000
vt 0.375000 0.875000
vt 0.375000 0.750000
vt 0.312500 0.750000
vt 0.375000 0.875000
vt 0.375000 0.750000
vt 0.625000 0.875000
vt 0.687500 0.750000
vt 0.625000 0.750000
vt 0.625000 0.875000
vt 0.687500 0.750000
vt 0.625000 0.750000
vt 0.625000 0.875000
vt 0.687500 0.750000
vt 0.625000 0.750000
vt 0.625000 0.750000
vt 0.687500 0.875000
vt 0.687500 0.750000
vt 0.312500 0.875000
vt 0.375000 0.875000
vt 0.312500 0.750000
vt 0.375000 0.875000
vt 0.312500 0.750000
vt 0.500000 0.625000
vt 0.562500 0.625000
vt 0.500000 0.625000
vt 0.562500 0.500000
vt 0.500000 0.625000
vt 0.562500 0.500000
vt 0.500000 0.500000
vt 0.375000 0.750000
vt 0.437500 0.875000
vt 0.437500 0.750000
vt 0.375000 0.750000
vt 0.437500 0.875000
vt 0.375000 0.875000
vt 0.312500 0.875000
vt 0.375000 0.750000
vt 0.312500 0.750000
vt 0.312500 0.875000
vt 0.375000 0.750000
vt 0.312500 0.750000
vt 0.312500 0.750000
vt 0.375000 0.875000
vt 0.375000 0.750000
vt 0.312500 0.750000
vt 0.375000 0.750000
vt 0.312500 0.750000
vt 0.375000 0.875000
vt 0.375000 0.750000
vt 0.312500 0.875000
vt 0.375000 0.750000
vt 0.312500 0.750000
vt 0.312500 0.750000
vt 0.375000 0.875000
vt 0.375000 0.750000
vt 0.312500 0.750000
vt 0.375000 0.875000
vt 0.375000 0.750000
vt 0.375000 0.750000
vt 0.437500 0.875000
vt 0.437500 0.750000
vt 0.375000 0.750000
vt 0.437500 0.875000
vt 0.437500 0.750000
vt 0.312500 0.875000
vt 0.312500 0.875000
vt 0.312500 0.750000
vt 0.375000 0.875000
vt 0.312500 0.750000
vt 0.375000 0.875000
vt 0.375000 0.750000
vt 0.312500 0.875000
vt 0.375000 0.750000
vt 0.312500 0.750000
vt 0.312500 0.750000
vt 0.375000 0.875000
vt 0.312500 0.750000
vt 0.375000 0.875000
vt 0.437500 0.875000
vt 0.375000 0.875000
vt 0.437500 0.875000
vt 1.000000 1.000000
vt 1.000000 1.000000
vt 0.500000 0.625000
vt 0.062500 0.750000
vt 0.375000 0.625000
vt 0.375000 0.750000
vt 0.250000 0.875000
vt 0.375000 0.875000
vt 0.312500 0.875000
vt 0.375000 0.875000
vt 0.250000 0.875000
vt 0.312500 0.875000
vt 0.375000 0.875000
vt 0.500000 0.625000
vt 0.000000 0.750000
vt 0.312500 0.875000
vt 0.000000 0.750000
vt 0.375000 0.875000
vt 0.062500 0.750000
vt 0.375000 0.875000
vt 0.062500 0.750000
vt 0.312500 0.875000
vt 0.250000 0.875000
vt 0.375000 0.875000
vt 0.500000 0.625000
vt 0.437500 0.625000
vt 0.375000 0.625000
vt 0.375000 0.875000
vt 0.062500 0.750000
vt 0.937500 1.000000
vt 0.562500 0.625000
vt 0.500000 0.625000
vt 0.500000 0.625000
vt 0.562500 0.625000
vt 0.562500 0.625000
vt 1.000000 1.000000
vt 0.937500 1.000000
vt 1.000000 1.000000
vt 0.500000 0.625000
vt 0.000000 0.750000
vt 0.187500 0.625000
vt 0.062500 0.750000
vt 0.312500 0.500000
vt 0.000000 0.750000
vt 0.187500 0.625000
vt 0.375000 0.875000
vt 0.375000 0.875000
vt 0.437500 0.875000
vt 0.437500 0.875000
vt 0.312500 0.875000
vt 0.312500 0.875000
vt 0.687500 0.875000
vt 0.687500 0.875000
vt 0.562500 0.625000
vt 0.562500 0.625000
vt 0.375000 0.875000
vt 0.437500 0.750000
vt 0.375000 0.875000
vt 0.375000 0.875000
vt 0.312500 0.875000
vt 0.312500 0.875000
vt 0.312500 0.875000
vt 0.375000 0.875000
vt 0.312500 0.875000
vt 0.312500 0.875000
vt 0.375000 0.875000
vt 0.312500 0.875000
vt 0.312500 0.875000
vn 0.2241 0.9728 0.0587
vn 0.5189 0.6913 0.5028
vn 0.6265 0.7376 0.2517
vn 0.2215 0.9734 -0.0582
vn 0.6222 0.7365 -0.2653
vn 0.5019 0.6982 -0.5105
vn 0.3826 0.9100 -0.1598
vn 0.1855 0.9650 -0.1855
vn 0.3884 0.9080 0.1571
vn 0.1923 0.9633 0.1870
vn -0.0239 0.9995 0.0170
vn 0.0081 0.9999 -0.0079
vn 0.0000 1.0000 0.0000
vn 0.6113 0.7912 -0.0150
vn 0.6990 0.7084 0.0977
vn 0.9745 0.2220 0.0334
vn 0.9145 0.0958 0.3929
vn 0.9936 0.1089 0.0308
vn 0.9400 0.1560 0.3032
vn 0.4621 0.7132 0.5271
vn -0.2126 0.8983 -0.3845
vn 0.3594 0.6637 0.6560
vn -0.6322 0.4705 -0.6156
vn -0.3873 0.8581 -0.3370
vn 0.1402 0.7549 0.6407
vn -0.3870 0.4542 -0.8024
vn -0.0783 0.7928 -0.6044
vn 0.0954 0.7608 0.6419
vn -0.1231 0.5562 -0.8218
vn -0.0475 0.8250 -0.5631
vn -0.0149 0.8352 -0.5497
vn -0.0148 0.7960 -0.6051
vn 0.0516 0.7489 0.6606
vn 0.0675 0.9975 0.0190
vn 0.0652 0.9922 0.1057
vn -0.0319 0.6313 -0.7749
vn 0.5205 0.0704 0.8509
vn 0.2277 0.1012 0.9684
vn 0.2520 0.0830 0.9641
vn 0.6917 0.0678 0.7190
vn 0.5239 0.0540 0.8500
vn 0.6973 0.0546 0.7147
vn 0.1095 0.1183 0.9869
vn 0.0137 0.0873 0.9961
vn 0.1105 0.0864 0.9901
vn 0.0372 0.1011 0.9942
vn -0.6688 0.6496 0.3615
vn -0.2597 0.6936 0.6719
vn -0.6276 0.7425 -0.2340
vn 0.0764 0.4245 0.9022
vn -0.4627 0.7687 0.4414
vn 0.0295 0.9995 0.0084
vn -0.5185 0.3096 0.7970
vn -0.3999 0.6521 0.6441
vn -0.1639 0.2890 0.9432
vn -0.0442 0.9311 0.3620
vn 0.4990 0.1176 0.8585
vn 0.5204 0.1096 0.8468
vn 0.4776 0.8627 -0.1663
vn 0.3327 0.9186 -0.2132
vn 0.1583 0.8658 0.4746
vn 0.0274 0.9996 0.0047
vn 0.4854 0.8589 0.1633
vn -0.0139 0.9999 0.0070
vn 0.3680 0.9019 0.2261
vn -0.0837 0.9965 0.0056
vn 0.1437 0.8676 -0.4759
vn 0.5379 0.8037 0.2543
vn 0.4199 0.9075 0.0136
vn -0.0535 0.9984 -0.0199
vn 0.9943 0.1007 0.0357
vn 0.9778 0.2042 0.0458
vn 0.8920 0.1807 0.4143
vn 0.9052 0.1181 0.4082
vn 0.9147 0.3601 -0.1833
vn 0.9373 0.1723 -0.3028
vn 0.9859 0.1459 0.0816
vn 0.8267 0.4675 -0.3129
vn 0.6329 0.7722 -0.0560
vn 0.9207 0.3485 0.1758
vn 0.9843 0.1446 -0.1014
vn 0.9444 0.1706 0.2810
vn 0.8357 0.4639 0.2939
vn 0.6294 0.7754 0.0499
vn 0.5834 0.7359 0.3438
vn 0.5755 0.7424 -0.3429
vn 0.7390 0.6297 0.2391
vn 0.7354 0.6295 -0.2508
vn 0.0046 0.9037 0.4280
vn -0.0023 0.9025 -0.4306
vn -0.0920 0.1359 0.9864
vn 0.0040 0.6608 0.7505
vn 0.0112 0.1433 0.9896
vn 0.3121 0.4674 0.8271
vn 0.0549 0.7721 0.6331
vn -0.0621 0.7309 0.6796
vn 0.2905 0.1693 0.9417
vn 0.2981 0.1640 -0.9403
vn 0.2996 0.4718 -0.8292
vn -0.0882 0.1327 -0.9872
vn 0.0470 0.7768 -0.6279
vn -0.0714 0.7283 -0.6815
vn -0.0089 0.1420 -0.9898
vn 0.0000 0.6617 -0.7497
usemtl Material__25
s 1
f 1/1/1 3/2/2 4/3/3
f 2/4/4 5/5/5 6/6/6
f 2/4/4 4/7/3 5/8/5
f 6/9/6 8/10/7 7/11/8
f 12/12/9 3/13/2 11/14/10
f 5/5/5 12/15/9 8/16/7
f 13/17/11 16/18/12 14/19/13
f 16/18/12 18/20/13 14/19/13
f 19/21/14 13/22/11 20/23/15
f 22/24/16 24/25/17 21/26/18
f 19/27/14 23/28/19 22/29/16
f 27/30/20 29/31/21 30/32/22
f 28/33/23 29/34/21 26/35/24
f 29/36/21 33/37/25 30/38/22
f 31/39/26 32/40/27 29/41/21
f 32/42/27 36/43/28 33/44/25
f 34/45/29 35/46/30 32/47/27
f 37/48/31 39/49/32 35/50/30
f 35/51/30 40/52/33 36/53/28
f 37/54/31 25/55/34 41/56/35
f 37/54/31 41/57/35 38/58/36
f 43/59/37 45/60/38 46/61/39
f 45/62/38 30/63/22 33/64/25
f 47/65/40 44/66/41 43/67/37
f 48/68/42 30/69/22 44/70/41
f 50/71/43 52/72/44 49/73/45
f 50/74/43 40/75/33 51/76/46
f 45/77/38 49/78/45 46/79/39
f 50/80/43 33/81/25 36/82/28
f 53/83/47 54/84/48 55/85/49
f 56/86/50 53/87/47 57/88/51
f 38/89/36 55/90/49 39/91/32
f 39/92/32 54/93/48 40/94/33
f 53/95/47 42/96/52 58/97/53
f 53/98/47 60/99/54 57/100/51
f 60/101/54 59/102/55 61/103/56
f 51/104/46 56/105/50 62/106/57
f 54/93/48 56/107/50 40/94/33
f 51/108/46 63/109/58 52/110/44
f 64/111/59 65/112/60 66/113/13
f 67/114/61 68/115/62 69/116/63
f 70/117/13 65/118/60 71/119/64
f 69/120/63 68/115/62 72/121/65
f 72/122/65 73/123/66 71/124/64
f 66/125/13 74/126/67 64/127/59
f 72/122/65 71/128/64 65/129/60
f 76/130/68 57/131/51 75/132/13
f 79/133/69 15/134/70 19/135/14
f 73/136/66 16/137/12 15/138/70
f 67/114/61 16/139/12 68/140/62
f 71/141/64 79/142/69 76/143/68
f 17/144/13 67/145/61 80/146/13
f 71/147/64 75/148/13 70/117/13
f 70/117/13 60/149/54 61/150/56
f 61/151/56 66/152/13 70/117/13
f 81/153/13 74/126/67 66/154/13
f 78/155/13 74/126/67 77/156/13
f 75/157/13 57/158/51 60/159/54
f 82/160/71 22/161/16 21/162/18
f 83/163/72 19/164/14 22/165/16
f 85/166/73 82/167/71 84/168/74
f 83/169/72 76/170/68 79/171/69
f 63/172/58 85/173/73 84/174/74
f 62/175/57 76/176/68 85/177/73
f 87/178/75 88/179/76 86/180/77
f 86/181/77 90/182/78 89/183/79
f 86/184/77 92/185/80 87/186/75
f 89/187/79 91/188/81 86/189/77
f 94/190/82 92/191/80 91/192/81
f 95/193/83 91/194/81 93/195/84
f 87/196/75 97/197/85 96/198/86
f 97/199/85 98/200/87 72/201/65
f 96/202/86 72/203/65 65/204/60
f 99/205/88 96/206/86 65/207/60
f 92/208/80 69/209/63 98/210/87
f 87/178/75 99/211/88 64/212/59
f 98/213/87 69/214/63 72/121/65
f 99/215/88 65/112/60 64/127/59
f 67/114/61 101/216/89 80/146/13
f 102/217/90 74/218/67 78/219/13
f 106/220/91 105/221/92 104/222/93
f 101/223/89 106/224/91 104/225/93
f 106/226/91 109/227/94 107/228/95
f 100/229/96 108/230/97 106/231/91
f 109/232/94 94/233/82 95/234/83
f 108/235/97 69/209/63 94/236/82
f 90/237/78 110/238/98 111/239/99
f 64/240/59 110/241/98 88/242/76
f 111/243/99 112/244/100 113/245/101
f 110/246/98 103/247/102 112/248/100
f 114/249/103 113/250/101 112/251/100
f 102/252/90 112/253/100 103/254/102
f 113/255/101 90/182/78 111/243/99
f 93/256/84 109/227/94 95/193/83
f 8/257/7 113/258/101 7/11/8
f 7/259/8 115/260/104 9/261/13
f 105/262/92 11/263/10 10/264/13
f 11/265/10 93/266/84 12/12/9
f 93/256/84 8/16/7 12/267/9
f 2/4/4 1/268/1 4/7/3
f 6/9/6 5/269/5 8/10/7
f 12/12/9 4/270/3 3/13/2
f 5/5/5 4/271/3 12/15/9
f 13/17/11 15/272/70 16/18/12
f 16/18/12 17/273/13 18/20/13
f 19/21/14 15/274/70 13/22/11
f 22/24/16 23/275/19 24/25/17
f 19/27/14 20/276/15 23/28/19
f 27/30/20 26/277/24 29/31/21
f 28/33/23 31/278/26 29/34/21
f 29/36/21 32/279/27 33/37/25
f 31/39/26 34/280/29 32/40/27
f 32/42/27 35/281/30 36/43/28
f 34/45/29 37/282/31 35/46/30
f 37/48/31 38/283/36 39/49/32
f 35/51/30 39/284/32 40/52/33
f 37/54/31 34/285/29 25/55/34
f 43/59/37 44/286/41 45/60/38
f 45/62/38 44/287/41 30/63/22
f 47/65/40 48/288/42 44/66/41
f 48/68/42 27/289/20 30/69/22
f 50/71/43 51/290/46 52/72/44
f 50/74/43 36/291/28 40/75/33
f 45/77/38 50/292/43 49/78/45
f 50/80/43 45/293/38 33/81/25
f 56/86/50 54/93/48 53/87/47
f 38/89/36 53/294/47 55/90/49
f 39/92/32 55/295/49 54/93/48
f 53/95/47 38/296/36 42/96/52
f 53/98/47 58/297/53 60/99/54
f 60/101/54 58/298/53 59/102/55
f 51/104/46 40/299/33 56/105/50
f 51/108/46 62/300/57 63/109/58
f 70/117/13 66/301/13 65/118/60
f 72/122/65 68/115/62 73/123/66
f 76/130/68 56/302/50 57/131/51
f 79/133/69 73/303/66 15/134/70
f 73/136/66 68/304/62 16/137/12
f 67/114/61 17/305/13 16/139/12
f 71/141/64 73/306/66 79/142/69
f 71/147/64 76/307/68 75/148/13
f 70/117/13 75/308/13 60/149/54
f 61/151/56 81/309/13 66/152/13
f 81/153/13 77/310/13 74/126/67
f 82/160/71 83/311/72 22/161/16
f 83/163/72 79/312/69 19/164/14
f 85/166/73 83/313/72 82/167/71
f 83/169/72 85/314/73 76/170/68
f 63/172/58 62/315/57 85/173/73
f 62/175/57 56/316/50 76/176/68
f 87/178/75 64/317/59 88/179/76
f 86/181/77 88/318/76 90/182/78
f 86/184/77 91/319/81 92/185/80
f 89/187/79 93/320/84 91/188/81
f 94/190/82 69/321/63 92/191/80
f 95/193/83 94/322/82 91/194/81
f 87/196/75 92/323/80 97/197/85
f 97/199/85 92/323/80 98/200/87
f 96/202/86 97/324/85 72/203/65
f 99/205/88 87/196/75 96/206/86
f 67/114/61 100/325/96 101/216/89
f 102/217/90 103/326/102 74/218/67
f 106/220/91 107/327/95 105/221/92
f 101/223/89 100/328/96 106/224/91
f 106/226/91 108/329/97 109/227/94
f 100/229/96 67/330/61 108/230/97
f 109/232/94 108/331/97 94/233/82
f 108/235/97 67/332/61 69/209/63
f 90/237/78 88/333/76 110/238/98
f 64/240/59 74/334/67 110/241/98
f 111/243/99 110/335/98 112/244/100
f 110/246/98 74/336/67 103/247/102
f 114/249/103 115/260/104 113/250/101
f 102/252/90 114/337/103 112/253/100
f 113/255/101 89/187/79 90/182/78
f 93/256/84 107/327/95 109/227/94
f 8/257/7 89/338/79 113/258/101
f 7/259/8 113/255/101 115/260/104
f 105/262/92 107/327/95 11/263/10
f 11/265/10 107/339/95 93/266/84
f 93/256/84 89/187/79 8/16/7
