# Blender v2.79 (sub 0) OBJ File: ''
# www.blender.org
mtllib hurricos.087.mtl
o hurricos.087_tex_72.304
v 0.716013 1.514307 -1.367730
v 0.183703 1.551338 -1.694059
v 0.514662 1.148634 -2.559640
v 0.591036 0.815362 -2.346717
v 0.415143 0.815362 -2.689246
v 0.614181 1.148634 -2.279599
v 0.769244 0.815362 -1.939384
v 0.665096 0.815362 -2.147679
v 0.716013 1.157892 -2.001873
v 0.523919 0.634840 -2.804966
v 0.523919 0.634840 -2.721648
v 0.486889 0.634840 -2.721648
v 0.486889 0.634840 -2.804966
v 0.523919 0.551522 -2.804966
v 0.486889 0.551522 -2.804966
v 0.486889 0.551522 -2.721648
v 0.523919 0.551522 -2.721648
v 0.523919 0.519120 -2.837367
v 0.523919 0.815362 -2.837367
v 0.523919 0.519120 -2.689246
v 0.523919 0.815362 -2.689246
v 0.415143 1.417104 -3.133609
v 0.415143 1.417104 -2.839682
v 0.523919 1.259725 -2.807280
v 0.523919 1.259725 -3.133609
v 0.415143 1.417104 -3.427536
v 0.523919 1.259726 -3.462252
v 0.415143 0.519120 -2.689246
v 0.591036 0.519120 -2.346717
v 0.523919 0.519121 -3.429851
v 0.674355 0.519121 -3.429851
v 0.523919 0.519121 -3.133609
v 0.674355 0.519121 -3.145181
v 0.674355 0.519120 -2.837367
v 0.111958 1.148634 -2.629072
v 0.415143 1.148634 -2.772564
v 0.091128 1.486535 -2.612871
v 0.415143 1.255097 -3.459938
v 0.167503 1.148634 -2.436978
v 0.709070 0.519120 -2.578156
v 0.523919 1.111604 -2.927629
v 0.523919 0.815363 -3.429851
v 0.523919 1.111605 -3.341904
v 0.523919 1.111604 -3.133609
v -0.202799 1.130119 -2.575841
v -0.198171 1.477277 -2.543440
v -0.459697 1.509679 -2.506409
v -0.047735 1.157892 -1.888468
v 0.345711 1.546709 -1.974100
v 0.331824 1.157892 -1.883839
v 0.729899 1.505050 -2.071304
v -0.420352 1.157892 -1.768119
v -0.434238 1.139377 -2.057418
v -0.098652 1.148634 -2.117592
v 0.250821 1.148634 -2.191653
v -0.450438 1.139377 -2.286542
v -0.151882 1.148634 -2.346717
v 0.665096 0.519120 -2.147679
v 0.803960 0.519120 -1.872267
v 0.970596 0.514491 -2.214797
v 0.970596 0.514491 -2.541125
v 1.266838 0.519120 -2.244884
v 1.301554 0.519120 -1.948642
v 0.975224 0.519120 -1.939384
v 1.266838 0.519120 -2.541125
v 1.266838 0.519120 -2.837367
v 0.970596 0.519120 -2.837367
v 1.266838 0.519121 -3.133609
v 0.970596 0.519121 -3.133609
v 1.266838 0.519121 -3.429851
v 0.970596 0.542265 -3.429851
v 0.970596 1.417103 -1.652400
v 0.970596 1.111604 -1.652400
v 0.533176 1.505050 -1.682487
v 0.118901 1.468020 -3.059549
v -0.087080 1.588369 -2.906799
v -0.267602 1.588369 -2.904485
v 0.118901 1.454135 -3.360419
v -0.096337 1.560596 -3.432165
v -0.094023 1.542081 -3.256272
v -0.091708 1.565225 -3.080378
v -0.272231 1.861467 -3.328018
v -0.274546 1.805922 -3.455309
v -0.094023 1.611513 -3.406707
v -0.096337 1.805922 -3.457623
v -0.094023 1.662429 -3.358105
v -0.094023 1.861467 -3.330332
v -0.094023 1.685574 -3.293302
v -0.091708 1.866095 -3.191469
v -0.091708 1.690202 -3.223870
v -0.089395 1.810550 -3.061863
v -0.091708 1.662428 -3.159067
v -0.089395 1.713346 -2.962344
v -0.091708 1.616141 -3.108151
v -0.267602 1.713346 -2.957715
v -0.269917 1.810550 -3.059548
v -0.249087 1.912384 -3.496968
v -0.124110 1.912384 -3.496968
v -0.237515 1.634656 -2.802651
v -0.239829 1.755005 -2.853568
v -0.242144 1.921641 -3.022518
v -0.244458 1.967929 -3.140552
v -0.269917 1.866095 -3.189154
v -0.246773 1.963300 -3.376620
v -0.112538 1.634656 -2.802651
v -0.114852 1.755005 -2.853568
v -0.117167 1.921641 -3.022518
v -0.117167 1.967929 -3.142867
v -0.121796 1.963300 -3.378934
v -0.029220 0.519120 -2.668417
v -0.029220 0.519120 -2.837367
v -0.325461 0.519120 -2.837367
v -0.325461 0.519120 -2.668417
v -0.029220 0.519121 -3.147496
v -0.325461 0.519121 -3.147496
v -0.029220 0.519121 -3.429851
v -0.325461 0.519121 -3.429851
v -0.325461 0.519120 -2.552697
v -0.029220 0.519120 -2.552697
v -0.295375 1.111605 -3.494654
v -0.061622 1.111605 -3.494654
v -0.295375 1.222695 -3.288673
v -0.295375 1.222695 -2.987803
v -0.061622 1.222695 -2.987803
v -0.061622 1.111604 -2.765621
v -0.295375 1.111604 -2.765621
v 0.415143 0.519121 -3.429851
v 0.415143 0.519121 -3.147496
v 0.415143 0.519120 -2.837367
v 0.415143 1.111604 -2.927629
v 0.415143 1.111604 -3.133609
v 0.415143 1.111605 -3.341904
v 0.415143 0.815363 -3.429851
v 0.415143 0.815362 -2.837367
v 0.267022 1.111605 -3.341904
v 0.267022 1.111604 -3.133609
v 0.267022 1.111604 -2.927629
v 0.169818 1.111604 -3.131295
v 0.169818 1.111604 -2.899856
v 0.169818 1.111605 -3.365048
v 0.218420 0.815363 -3.397449
v 0.267022 0.519121 -3.429851
v 0.267022 0.815363 -3.429851
v 0.267022 0.815362 -2.837367
v 0.267022 0.519120 -2.837367
v 0.218420 0.815362 -2.867454
v 0.267022 0.519121 -3.147496
v -0.061622 1.222695 -3.288673
v -0.045421 0.815362 -2.714705
v -0.045421 0.815362 -2.656845
v -0.311576 0.815362 -2.656845
vt 0.375000 0.625000
vt 0.312500 0.500000
vt 0.375000 0.500000
vt 0.312500 0.625000
vt 0.187500 0.625000
vt 0.125000 0.500000
vt 0.187500 0.500000
vt 0.125000 0.625000
vt 0.625000 0.875000
vt 0.687500 0.750000
vt 0.625000 0.750000
vt 0.625000 0.875000
vt 0.687500 0.750000
vt 0.625000 0.750000
vt 0.562500 0.875000
vt 0.500000 1.000000
vt 0.500000 0.875000
vt 0.625000 0.875000
vt 0.625000 0.750000
vt 0.687500 0.875000
vt 0.625000 0.875000
vt 0.375000 0.875000
vt 0.312500 1.000000
vt 0.312500 0.875000
vt 0.625000 0.750000
vt 0.687500 0.875000
vt 0.625000 0.875000
vt 0.625000 0.750000
vt 0.687500 0.875000
vt 0.500000 0.625000
vt 0.562500 0.500000
vt 0.500000 0.500000
vt 0.437500 0.500000
vt 0.500000 0.625000
vt 0.500000 0.500000
vt 0.500000 0.625000
vt 0.562500 0.625000
vt 0.500000 0.500000
vt 0.812500 1.000000
vt 0.875000 0.875000
vt 0.812500 0.875000
vt 0.937500 0.875000
vt 1.000000 1.000000
vt 1.000000 0.875000
vt 0.312500 0.500000
vt 0.375000 0.625000
vt 0.312500 0.625000
vt 0.500000 0.625000
vt 0.562500 0.625000
vt 0.500000 0.500000
vt 0.500000 0.625000
vt 0.562500 0.625000
vt 0.500000 0.500000
vt 0.500000 0.625000
vt 0.562500 0.500000
vt 0.500000 0.500000
vt 0.562500 0.625000
vt 0.500000 0.500000
vt 0.625000 0.875000
vt 0.687500 0.750000
vt 0.625000 0.750000
vt 0.000000 0.750000
vt 0.062500 0.875000
vt 0.062500 0.750000
vt 0.500000 0.625000
vt 0.562500 0.500000
vt 0.500000 0.500000
vt 0.437500 0.750000
vt 0.500000 0.875000
vt 0.500000 0.750000
vt 0.875000 0.875000
vt 0.937500 1.000000
vt 0.875000 1.000000
vt 0.000000 0.750000
vt 0.062500 0.875000
vt 0.062500 0.750000
vt 0.500000 0.750000
vt 0.562500 0.625000
vt 0.500000 0.625000
vt 0.500000 0.625000
vt 0.562500 0.500000
vt 0.500000 0.500000
vt 0.437500 0.625000
vt 0.500000 0.500000
vt 0.437500 0.500000
vt 0.437500 0.625000
vt 0.500000 0.500000
vt 0.437500 0.500000
vt 0.500000 0.625000
vt 0.562500 0.500000
vt 0.500000 0.500000
vt 0.500000 0.500000
vt 0.562500 0.625000
vt 0.562500 0.500000
vt 0.437500 0.500000
vt 0.500000 0.625000
vt 0.500000 0.500000
vt 0.437500 0.500000
vt 0.500000 0.500000
vt 0.562500 0.750000
vt 0.562500 0.625000
vt 0.875000 0.750000
vt 0.937500 0.625000
vt 0.875000 0.625000
vt 0.000000 0.500000
vt 0.062500 0.625000
vt 0.062500 0.500000
vt 0.875000 0.750000
vt 0.937500 0.625000
vt 0.875000 0.625000
vt 0.312500 0.500000
vt 0.250000 0.500000
vt 0.500000 0.625000
vt 0.562500 0.625000
vt 0.500000 0.500000
vt 0.437500 0.500000
vt 0.500000 0.625000
vt 0.500000 0.500000
vt 0.500000 0.625000
vt 0.562500 0.500000
vt 0.500000 0.500000
vt 0.500000 0.625000
vt 0.562500 0.500000
vt 0.500000 0.500000
vt 0.437500 0.500000
vt 0.500000 0.625000
vt 0.500000 0.500000
vt 0.562500 0.625000
vt 0.562500 0.625000
vt 0.562500 0.500000
vt 0.500000 0.500000
vt 0.562500 0.500000
vt 0.500000 0.625000
vt 0.500000 0.500000
vt 0.500000 0.500000
vt 0.562500 0.625000
vt 0.562500 0.500000
vt 0.500000 0.625000
vt 0.500000 0.625000
vt 0.562500 0.500000
vt 0.187500 0.500000
vt 0.250000 0.625000
vt 0.250000 0.500000
vt 0.437500 0.625000
vt 0.500000 0.500000
vt 0.437500 0.500000
vt 0.500000 0.500000
vt 0.437500 0.500000
vt 0.437500 0.500000
vt 0.500000 0.625000
vt 0.500000 0.500000
vt 0.500000 0.625000
vt 0.562500 0.500000
vt 0.500000 0.500000
vt 0.437500 0.625000
vt 0.437500 0.500000
vt 0.500000 0.625000
vt 0.500000 0.500000
vt 0.500000 0.625000
vt 0.562500 0.500000
vt 0.500000 0.500000
vt 0.500000 0.625000
vt 0.562500 0.625000
vt 0.500000 0.500000
vt 0.625000 0.750000
vt 0.687500 0.875000
vt 0.687500 0.750000
vt 0.625000 0.875000
vt 0.687500 0.750000
vt 0.625000 0.750000
vt 0.625000 0.750000
vt 0.687500 0.875000
vt 0.687500 0.750000
vt 0.625000 0.875000
vt 0.687500 0.750000
vt 0.625000 0.750000
vt 0.625000 0.875000
vt 0.687500 0.750000
vt 0.625000 0.750000
vt 0.312500 0.875000
vt 0.375000 0.875000
vt 0.312500 0.750000
vt 0.687500 0.750000
vt 0.625000 0.750000
vt 0.625000 0.875000
vt 0.687500 0.750000
vt 0.625000 0.750000
vt 0.312500 0.875000
vt 0.312500 0.750000
vt 0.312500 0.875000
vt 0.312500 0.750000
vt 0.312500 0.875000
vt 0.312500 0.750000
vt 0.312500 0.875000
vt 0.312500 0.750000
vt 0.312500 0.875000
vt 0.312500 0.750000
vt 0.312500 0.875000
vt 0.312500 0.750000
vt 0.625000 0.750000
vt 0.687500 0.875000
vt 0.687500 0.750000
vt 0.687500 0.875000
vt 0.687500 0.750000
vt 0.625000 0.875000
vt 0.687500 0.750000
vt 0.625000 0.750000
vt 0.625000 0.750000
vt 0.687500 0.875000
vt 0.687500 0.750000
vt 0.625000 0.875000
vt 0.687500 0.750000
vt 0.625000 0.750000
vt 0.687500 0.875000
vt 0.687500 0.750000
vt 0.687500 0.750000
vt 0.625000 0.750000
vt 0.625000 0.750000
vt 0.687500 0.750000
vt 0.625000 0.875000
vt 0.687500 0.750000
vt 0.625000 0.750000
vt 0.625000 0.750000
vt 0.687500 0.875000
vt 0.687500 0.750000
vt 0.625000 0.750000
vt 0.687500 0.875000
vt 0.687500 0.750000
vt 0.687500 0.750000
vt 0.625000 0.750000
vt 0.625000 0.875000
vt 0.687500 0.750000
vt 0.625000 0.750000
vt 0.625000 0.875000
vt 0.687500 0.750000
vt 0.625000 0.750000
vt 0.625000 0.875000
vt 0.687500 0.750000
vt 0.625000 0.750000
vt 0.625000 0.875000
vt 0.687500 0.750000
vt 0.625000 0.750000
vt 0.687500 0.750000
vt 0.625000 0.875000
vt 0.625000 0.750000
vt 0.687500 0.750000
vt 0.625000 0.750000
vt 0.625000 0.875000
vt 0.687500 0.750000
vt 0.625000 0.750000
vt 0.875000 1.000000
vt 0.875000 0.875000
vt 0.437500 1.000000
vt 0.500000 0.875000
vt 0.437500 0.875000
vt 0.437500 1.000000
vt 0.500000 0.875000
vt 0.437500 0.875000
vt 0.437500 1.000000
vt 0.500000 0.875000
vt 0.437500 0.875000
vt 0.437500 1.000000
vt 0.500000 0.875000
vt 0.437500 0.875000
vt 0.437500 1.000000
vt 0.500000 0.875000
vt 0.437500 0.875000
vt 0.437500 1.000000
vt 0.500000 0.875000
vt 0.437500 0.875000
vt 0.625000 0.875000
vt 0.687500 0.750000
vt 0.625000 0.750000
vt 0.625000 0.875000
vt 0.687500 0.750000
vt 0.625000 0.750000
vt 0.625000 0.750000
vt 0.687500 0.875000
vt 0.687500 0.750000
vt 0.625000 0.875000
vt 0.687500 0.750000
vt 0.625000 0.750000
vt 0.625000 0.875000
vt 0.687500 0.875000
vt 0.625000 0.750000
vt 0.625000 0.875000
vt 0.687500 0.875000
vt 0.625000 0.750000
vt 0.687500 0.750000
vt 0.687500 0.750000
vt 0.625000 0.875000
vt 0.687500 0.750000
vt 0.687500 0.750000
vt 0.625000 0.750000
vt 0.625000 0.875000
vt 0.687500 0.750000
vt 0.625000 0.750000
vt 0.687500 0.750000
vt 0.625000 0.750000
vt 0.625000 0.875000
vt 0.687500 0.750000
vt 0.625000 0.750000
vt 0.625000 0.875000
vt 0.687500 0.750000
vt 0.625000 0.750000
vt 0.625000 0.875000
vt 0.687500 0.750000
vt 0.687500 0.875000
vt 0.687500 0.875000
vt 0.625000 0.875000
vt 0.625000 0.750000
vt 0.687500 0.875000
vt 0.625000 0.875000
vt 0.687500 0.875000
vt 0.625000 0.875000
vt 0.812500 0.875000
vt 0.750000 1.000000
vt 0.750000 0.875000
vt 0.687500 0.750000
vt 0.625000 0.875000
vt 0.625000 0.750000
vt 0.625000 0.750000
vt 0.625000 0.750000
vt 0.687500 0.875000
vt 0.437500 0.750000
vt 0.500000 0.875000
vt 0.500000 0.750000
vt 0.687500 0.750000
vt 0.750000 1.000000
vt 0.812500 1.000000
vt 0.750000 0.875000
vt 0.750000 1.000000
vt 0.812500 0.875000
vt 0.812500 0.875000
vt 0.750000 0.875000
vt 0.750000 0.875000
vt 0.812500 1.000000
vt 0.812500 0.875000
vt 0.687500 0.875000
vt 0.687500 0.875000
vt 0.562500 1.000000
vt 0.687500 0.750000
vt 0.375000 1.000000
vt 0.687500 0.750000
vt 0.687500 0.750000
vt 0.562500 0.625000
vt 0.437500 0.625000
vt 0.875000 1.000000
vt 0.937500 1.000000
vt 0.375000 0.500000
vt 0.687500 0.875000
vt 0.000000 0.875000
vt 0.437500 0.875000
vt 0.937500 0.875000
vt 0.000000 0.875000
vt 0.562500 0.750000
vt 0.562500 0.625000
vt 0.562500 0.625000
vt 0.437500 0.625000
vt 0.500000 0.750000
vt 0.937500 0.750000
vt 0.000000 0.625000
vt 0.937500 0.750000
vt 0.437500 0.625000
vt 0.562500 0.625000
vt 0.562500 0.625000
vt 0.437500 0.625000
vt 0.500000 0.625000
vt 0.500000 0.625000
vt 0.562500 0.625000
vt 0.562500 0.625000
vt 0.187500 0.625000
vt 0.500000 0.625000
vt 0.500000 0.625000
vt 0.437500 0.625000
vt 0.562500 0.625000
vt 0.562500 0.625000
vt 0.625000 0.875000
vt 0.687500 0.875000
vt 0.625000 0.875000
vt 0.687500 0.875000
vt 0.625000 0.875000
vt 0.625000 0.875000
vt 0.625000 0.875000
vt 0.625000 0.875000
vt 0.625000 0.875000
vt 0.687500 0.875000
vt 0.687500 0.875000
vt 0.687500 0.875000
vt 0.687500 0.875000
vt 0.687500 0.875000
vt 0.500000 1.000000
vt 0.500000 1.000000
vt 0.500000 1.000000
vt 0.500000 1.000000
vt 0.500000 1.000000
vt 0.500000 1.000000
vt 0.687500 0.875000
vt 0.687500 0.875000
vt 0.625000 0.875000
vt 0.687500 0.875000
vt 0.625000 0.875000
vt 0.687500 0.875000
vt 0.687500 0.875000
vt 0.687500 0.875000
vt 0.687500 0.875000
vt 0.687500 0.875000
vt 0.687500 0.875000
vt 0.687500 0.875000
vt 0.687500 0.875000
vt 0.812500 1.000000
vt 0.437500 0.875000
vt 0.812500 1.000000
vt 0.812500 1.000000
vt 0.750000 1.000000
vn 0.6760 0.6724 -0.3016
vn 0.9201 -0.0123 -0.3914
vn 0.8818 0.0626 0.4673
vn 0.6540 0.7098 -0.2615
vn 0.9033 0.0075 -0.4289
vn 0.9143 -0.0117 -0.4048
vn 0.6185 0.2711 -0.7375
vn 0.9045 -0.3015 -0.3015
vn 0.5773 -0.5773 0.5773
vn 0.9045 -0.3015 0.3015
vn 0.5773 0.5773 0.5773
vn 0.9045 0.3015 0.3015
vn 0.9045 0.3015 -0.3015
vn 0.5773 0.5773 -0.5773
vn 0.5773 -0.5773 -0.5773
vn 0.3015 0.9045 -0.3015
vn 0.7418 -0.0988 -0.6633
vn 0.3015 0.9045 0.3015
vn 0.6806 0.0905 0.7270
vn 0.5593 0.7239 0.4039
vn 0.9546 0.2978 0.0000
vn 0.5310 0.8473 -0.0070
vn 0.5337 0.8227 -0.1954
vn 0.8191 0.4047 -0.4065
vn 0.7091 0.5564 0.4330
vn 0.6381 0.7180 -0.2781
vn -0.0104 0.9999 0.0100
vn 0.0000 0.8944 0.4472
vn 0.0000 1.0000 0.0000
vn 0.2416 0.7440 0.6230
vn 0.3914 0.6072 0.6914
vn 0.3998 0.5022 0.7668
vn -0.0292 0.1960 -0.9801
vn 0.7401 0.3368 0.5820
vn 0.8682 -0.3988 -0.2954
vn 0.6668 -0.5972 0.4457
vn 0.7071 -0.7071 0.0000
vn -0.0550 0.8341 -0.5489
vn -0.1472 0.8564 -0.4948
vn -0.0156 0.9991 -0.0402
vn -0.0260 0.9993 -0.0273
vn -0.0203 0.9978 -0.0629
vn -0.0024 0.9998 -0.0155
vn -0.0175 0.9997 -0.0168
vn -0.0281 0.9996 0.0038
vn -0.0243 0.9996 -0.0110
vn 0.0790 0.6993 0.7104
vn 0.1623 0.7446 0.6475
vn 0.6623 0.6906 -0.2904
vn 0.5544 0.7839 -0.2795
vn -0.0017 0.9999 -0.0080
vn 0.0005 1.0000 0.0074
vn 0.0063 1.0000 0.0032
vn -0.0117 0.9999 -0.0036
vn -0.0007 0.9999 -0.0084
vn -0.0117 0.9999 0.0039
vn 0.0000 1.0000 0.0039
vn 0.0090 0.9995 0.0287
vn 0.0389 0.9985 0.0389
vn 0.0190 0.9981 0.0589
vn 0.6751 0.6324 -0.3798
vn 0.8083 0.0000 -0.5888
vn 0.1636 0.9863 0.0211
vn 0.3597 0.5290 -0.7686
vn 0.1292 0.9899 0.0584
vn 0.7670 0.5922 0.2469
vn 0.0819 0.5483 0.8322
vn 0.2286 0.9730 -0.0312
vn 0.3024 0.9520 -0.0475
vn 0.8951 0.4433 -0.0463
vn 0.8451 0.5278 -0.0844
vn 1.0000 0.0004 -0.0032
vn 0.8495 0.4939 0.1856
vn 0.9998 -0.0037 -0.0162
vn 0.9998 -0.0074 -0.0185
vn 0.8517 0.1954 0.4861
vn 0.9999 -0.0117 -0.0076
vn 0.9999 -0.0083 -0.0107
vn 0.8472 0.5028 0.1715
vn 0.9997 -0.0208 -0.0096
vn 0.9991 -0.0369 -0.0170
vn 0.0122 0.2818 0.9594
vn 0.0061 0.9715 0.2369
vn 0.4910 0.3678 -0.7897
vn -0.0058 -0.3572 -0.9340
vn 0.0000 0.3240 -0.9460
vn 0.0025 -0.4294 0.9031
vn 0.5108 -0.2862 0.8107
vn 0.5012 0.7856 0.3626
vn -0.0045 0.9482 0.3177
vn 0.5033 0.3919 0.7701
vn 0.0021 0.3701 0.9290
vn 0.5014 0.8130 -0.2959
vn -0.0076 0.9075 -0.4200
vn -0.0079 0.8610 -0.5085
vn 0.0076 0.8794 0.4759
vn 0.5058 0.8208 0.2653
vn 0.0099 0.9097 0.4151
vn -0.5207 0.8076 -0.2767
vn 0.0000 0.5944 -0.8042
vn -0.1870 -0.9618 -0.2000
vn 0.0000 -0.6617 -0.7497
vn 0.0000 -0.9732 -0.2297
vn 0.0000 0.7071 0.7071
vn 0.0000 0.7071 -0.7071
vn 0.0000 -1.0000 0.0000
vn 0.0000 -0.8036 -0.5952
vn 0.0000 -0.8014 0.5981
vn 0.0000 -0.1438 0.9896
vn 0.0000 -0.1473 -0.9891
vn -0.0421 -0.8056 0.5909
vn -0.0542 -0.8122 -0.5808
vn -0.2219 -0.9751 0.0000
vn -0.3743 -0.7048 -0.6026
vn -0.2748 -0.8533 0.4430
vn 0.4845 -0.1330 0.8646
vn 0.0301 0.8752 0.4827
vn 0.2807 -0.1351 0.9502
vn 0.2650 -0.1391 -0.9541
vn -0.1357 0.7440 -0.6542
vn -0.0232 -0.1748 -0.9843
vn -0.1873 -0.9583 0.2156
vn -0.2349 -0.6015 -0.7635
vn 0.0000 -0.9696 0.2448
vn -0.1082 -0.8750 0.4719
vn 0.0000 -0.8801 0.4747
vn -0.8621 -0.1276 -0.4904
vn -0.6980 -0.2755 -0.6609
vn 0.0000 -0.3380 -0.9411
vn -0.0390 0.9992 0.0000
vn 0.2047 0.9677 -0.1473
vn 0.1552 0.9522 0.2631
vn 0.8900 -0.0440 -0.4539
vn 0.8359 0.4937 -0.2398
vn -0.5760 0.4676 -0.6705
usemtl Material__25
s 1
f 3/1/1 4/2/2 5/3/3
f 4/2/2 3/1/1 6/4/4
f 6/5/4 7/6/5 8/7/6
f 7/6/5 6/5/4 9/8/7
f 11/9/8 13/10/9 10/11/10
f 10/12/10 15/13/11 14/14/12
f 17/15/13 15/16/11 16/17/14
f 15/13/11 12/18/15 16/19/14
f 10/11/10 18/20/16 19/21/17
f 18/22/16 17/23/13 20/24/18
f 20/25/18 11/26/8 21/27/19
f 11/28/8 19/29/17 21/27/19
f 23/30/20 25/31/21 22/32/22
f 26/33/23 25/34/21 27/35/24
f 28/36/25 29/37/26 20/38/18
f 33/39/27 30/40/28 32/41/29
f 32/42/29 34/43/29 33/44/27
f 35/45/30 23/46/20 37/47/31
f 36/48/32 3/49/1 5/50/3
f 27/51/24 38/52/33 26/53/23
f 35/54/30 3/55/1 36/56/32
f 23/30/20 36/57/32 24/58/34
f 5/59/3 20/60/18 21/61/19
f 21/62/19 36/63/32 5/64/3
f 20/65/18 34/66/29 18/67/16
f 41/68/35 21/69/19 19/70/17
f 43/71/36 25/72/21 44/73/37
f 41/74/35 25/75/21 24/76/34
f 49/77/38 9/78/7 50/79/39
f 48/80/40 53/81/41 52/82/42
f 48/83/40 55/84/43 54/85/44
f 6/86/4 50/87/39 9/88/7
f 54/89/44 56/90/45 53/91/41
f 54/92/44 39/93/29 57/94/46
f 3/95/1 55/96/43 6/97/4
f 57/98/46 35/54/30 45/99/47
f 35/54/30 46/100/48 45/101/47
f 5/102/3 29/103/26 28/104/25
f 58/105/49 7/106/5 59/107/50
f 4/108/2 58/109/49 29/110/26
f 8/111/6 4/112/2 6/4/4
f 60/113/51 61/114/52 40/115/53
f 62/116/54 64/117/55 63/118/29
f 58/119/49 64/120/55 60/121/51
f 61/122/52 62/123/54 65/124/56
f 60/125/51 29/126/26 58/127/49
f 29/126/26 40/128/53 20/38/18
f 65/124/56 67/129/57 61/130/52
f 67/131/57 40/128/53 61/130/52
f 69/132/58 66/133/29 68/134/29
f 69/135/58 34/136/29 67/137/57
f 70/138/59 69/132/58 68/134/29
f 71/139/60 33/140/27 69/135/58
f 9/141/7 72/142/61 73/143/62
f 74/144/63 72/145/61 51/146/64
f 74/144/63 49/147/38 2/148/65
f 37/149/31 76/150/66 46/151/48
f 77/152/67 46/153/48 76/154/66
f 78/155/68 22/32/22 26/33/23
f 23/156/20 75/157/69 37/158/31
f 80/159/70 75/160/69 78/161/68
f 81/162/71 76/163/66 75/164/69
f 86/165/72 87/166/73 88/167/74
f 87/168/73 90/169/75 88/170/74
f 90/171/75 91/172/76 92/173/77
f 91/174/76 94/175/78 92/176/77
f 93/177/79 81/178/71 94/179/78
f 84/180/80 80/181/70 79/182/81
f 93/177/79 96/183/82 95/184/83
f 98/185/84 83/186/85 97/187/86
f 90/188/75 80/181/70 88/189/74
f 92/190/77 80/181/70 90/191/75
f 94/192/78 80/181/70 92/193/77
f 81/194/71 80/181/70 94/195/78
f 86/196/72 80/181/70 84/197/80
f 88/198/74 80/181/70 86/199/72
f 99/200/87 76/201/66 105/202/88
f 99/200/87 106/203/89 100/204/90
f 76/205/66 106/206/89 105/207/88
f 100/208/90 93/209/79 95/210/83
f 96/211/82 107/212/91 101/213/92
f 101/213/92 108/214/93 102/215/94
f 91/174/76 108/216/93 107/217/91
f 103/218/95 87/166/73 82/219/96
f 108/220/93 103/221/95 102/222/94
f 82/223/96 109/224/97 104/225/98
f 104/226/98 98/227/84 97/228/86
f 87/168/73 98/229/84 109/230/97
f 111/231/29 113/232/29 110/233/99
f 114/234/29 112/235/29 111/236/29
f 116/237/29 115/238/29 114/239/29
f 118/240/100 110/241/99 113/242/29
f 124/243/101 126/244/102 123/245/103
f 16/246/14 11/9/8 17/247/13
f 128/248/29 30/249/28 127/250/104
f 129/251/105 32/42/29 128/252/29
f 131/253/106 41/254/35 130/255/107
f 44/256/37 132/257/108 43/258/36
f 43/259/36 133/260/109 42/261/109
f 42/262/109 127/263/104 30/264/28
f 134/265/110 18/266/16 129/267/105
f 130/268/107 19/269/17 134/270/110
f 132/271/108 136/272/106 135/273/111
f 131/274/106 137/275/112 136/276/106
f 138/277/113 137/278/112 139/279/114
f 135/280/111 138/281/113 140/282/115
f 141/283/116 142/284/117 143/285/118
f 144/286/119 145/287/120 146/288/121
f 146/288/121 137/278/112 144/289/119
f 135/280/111 141/290/116 143/285/118
f 133/291/109 142/292/117 127/250/104
f 132/271/108 143/293/118 133/294/109
f 145/295/120 134/296/110 129/297/105
f 144/286/119 130/298/107 134/299/110
f 142/300/117 114/301/29 147/302/29
f 129/303/105 147/304/29 145/305/120
f 128/248/29 142/292/117 147/302/29
f 147/306/29 111/307/29 145/305/120
f 111/231/29 110/308/99 145/305/120
f 138/277/113 148/309/122 140/310/115
f 139/311/114 125/312/123 124/313/101
f 139/311/114 124/314/101 138/315/113
f 148/316/122 123/317/103 122/318/124
f 121/319/125 122/320/124 120/321/126
f 124/322/101 148/309/122 138/315/113
f 148/323/122 121/324/125 140/310/115
f 139/325/114 149/326/127 125/327/123
f 146/288/121 110/308/99 149/328/127
f 150/329/128 125/330/123 149/331/127
f 110/332/99 150/333/128 149/331/127
f 150/329/128 126/334/102 125/335/123
f 150/336/128 118/337/100 151/338/129
f 11/9/8 12/339/15 13/10/9
f 10/12/10 13/340/9 15/13/11
f 17/15/13 14/341/12 15/16/11
f 15/13/11 13/340/9 12/18/15
f 10/11/10 14/342/12 18/20/16
f 18/22/16 14/343/12 17/23/13
f 20/25/18 17/344/13 11/26/8
f 11/28/8 10/345/10 19/29/17
f 23/30/20 24/346/34 25/31/21
f 26/33/23 22/347/22 25/34/21
f 33/39/27 31/348/130 30/40/28
f 32/42/29 18/349/16 34/43/29
f 35/45/30 36/350/32 23/46/20
f 35/54/30 39/93/29 3/55/1
f 5/59/3 28/351/25 20/60/18
f 21/62/19 24/352/34 36/63/32
f 20/65/18 40/128/53 34/66/29
f 41/68/35 24/353/34 21/69/19
f 43/71/36 27/354/24 25/72/21
f 41/74/35 44/355/37 25/75/21
f 49/77/38 51/356/64 9/78/7
f 48/80/40 54/357/44 53/81/41
f 48/83/40 50/79/39 55/84/43
f 6/86/4 55/96/43 50/87/39
f 54/89/44 57/358/46 56/90/45
f 54/92/44 55/96/43 39/93/29
f 3/95/1 39/359/29 55/96/43
f 57/98/46 39/359/29 35/54/30
f 35/54/30 37/360/31 46/100/48
f 5/102/3 4/361/2 29/103/26
f 58/105/49 8/362/6 7/106/5
f 4/108/2 8/363/6 58/109/49
f 62/116/54 60/364/51 64/117/55
f 58/119/49 59/365/50 64/120/55
f 61/122/52 60/366/51 62/123/54
f 60/125/51 40/367/53 29/126/26
f 65/124/56 66/133/29 67/129/57
f 67/131/57 34/368/29 40/128/53
f 69/132/58 67/129/57 66/133/29
f 69/135/58 33/369/27 34/136/29
f 70/138/59 71/370/60 69/132/58
f 71/139/60 31/371/130 33/140/27
f 9/141/7 51/372/64 72/142/61
f 74/144/63 1/373/131 72/145/61
f 74/144/63 51/374/64 49/147/38
f 37/149/31 75/375/69 76/150/66
f 77/152/67 47/376/132 46/153/48
f 78/155/68 75/157/69 22/32/22
f 23/156/20 22/347/22 75/157/69
f 80/159/70 81/377/71 75/160/69
f 86/165/72 85/378/133 87/166/73
f 87/168/73 89/379/134 90/169/75
f 90/171/75 89/380/134 91/172/76
f 91/174/76 93/209/79 94/175/78
f 93/177/79 76/201/66 81/178/71
f 93/177/79 91/172/76 96/183/82
f 98/185/84 85/381/133 83/186/85
f 99/200/87 77/382/67 76/201/66
f 99/200/87 105/383/88 106/203/89
f 76/205/66 93/209/79 106/206/89
f 100/208/90 106/384/89 93/209/79
f 96/211/82 91/172/76 107/212/91
f 101/213/92 107/385/91 108/214/93
f 91/174/76 89/379/134 108/216/93
f 103/218/95 89/380/134 87/166/73
f 108/220/93 89/379/134 103/221/95
f 82/223/96 87/168/73 109/224/97
f 104/226/98 109/386/97 98/227/84
f 87/168/73 85/381/133 98/229/84
f 111/231/29 112/387/29 113/232/29
f 114/234/29 115/388/29 112/235/29
f 116/237/29 117/389/29 115/238/29
f 118/240/100 119/390/135 110/241/99
f 124/243/101 125/312/123 126/244/102
f 16/246/14 12/339/15 11/9/8
f 128/248/29 32/391/29 30/249/28
f 129/251/105 18/349/16 32/42/29
f 131/253/106 44/392/37 41/254/35
f 44/256/37 131/393/106 132/257/108
f 43/259/36 132/394/108 133/260/109
f 42/262/109 133/395/109 127/263/104
f 134/265/110 19/396/17 18/266/16
f 130/268/107 41/397/35 19/269/17
f 132/271/108 131/398/106 136/272/106
f 131/274/106 130/399/107 137/275/112
f 138/277/113 136/400/106 137/278/112
f 135/280/111 136/401/106 138/281/113
f 146/288/121 139/402/114 137/278/112
f 135/280/111 140/403/115 141/290/116
f 133/291/109 143/404/118 142/292/117
f 132/271/108 135/405/111 143/293/118
f 145/295/120 144/406/119 134/296/110
f 144/286/119 137/278/112 130/298/107
f 142/300/117 116/407/29 114/301/29
f 129/303/105 128/408/29 147/304/29
f 128/248/29 127/409/104 142/292/117
f 147/306/29 114/410/29 111/307/29
f 148/316/122 124/411/101 123/317/103
f 121/319/125 148/309/122 122/320/124
f 139/325/114 146/412/121 149/326/127
f 146/288/121 145/295/120 110/308/99
f 110/332/99 119/413/135 150/333/128
f 150/329/128 151/414/129 126/334/102
f 150/336/128 119/415/135 118/337/100
