# Blender v2.79 (sub 0) OBJ File: ''
# www.blender.org
mtllib hurricos.126.mtl
o hurricos.126_tex_72.343
v 2.204165 0.519122 -5.329964
v 2.053730 0.519122 -5.167957
v 2.079188 0.815363 -5.142499
v 2.218052 0.815363 -5.297563
v 1.956526 0.519122 -4.915689
v 1.961155 0.519122 -4.668049
v 1.977355 0.815363 -4.649534
v 1.984299 0.815363 -4.908746
v 2.458749 0.815363 -5.413282
v 2.456434 0.519122 -5.450313
v 2.692502 0.815363 -5.302192
v 2.731846 0.519122 -5.323021
v 2.896168 0.815363 -5.045294
v 2.708702 1.106976 -5.329964
v 2.738790 1.343044 -5.390138
v 2.456434 1.106976 -5.450313
v 2.449491 1.315272 -5.529002
v 2.197223 1.106976 -5.325336
v 2.155563 1.347673 -5.385509
v 2.049102 1.106976 -5.158700
v 1.986613 1.384703 -5.195730
v 1.947268 1.106976 -4.911060
v 1.868579 1.407847 -4.911060
v 1.940325 1.106976 -4.631019
v 1.861636 1.435620 -4.591674
v 2.315256 1.444877 -4.721280
v 2.491150 1.463392 -4.897173
v 2.271283 1.454135 -4.795340
v 2.058359 1.426362 -4.691193
v 2.407832 1.444877 -4.688879
v 2.535123 1.449506 -4.688879
v 2.667044 1.444877 -4.712022
v 2.717960 1.454135 -4.779140
v 2.706388 1.444877 -4.855515
v 2.907740 1.412476 -4.806912
v 2.667044 1.435620 -4.966605
v 2.833679 1.393961 -5.022151
v 2.579097 1.440248 -5.077696
v 2.662415 1.403218 -5.239703
v 2.477263 1.454135 -5.126298
v 2.463377 1.426362 -5.334593
v 2.373116 1.444877 -5.077696
v 2.259711 1.407847 -5.237389
v 2.315256 1.435620 -5.008264
v 2.143991 1.389332 -5.105468
v 2.273598 1.444877 -4.908745
v 2.062988 1.407847 -4.908745
v 1.840806 -0.073362 -4.753682
v 1.863951 0.222880 -4.721280
v 1.894037 0.222880 -4.945776
v 1.836178 -0.073362 -5.015207
v 2.009757 0.222880 -5.218874
v 1.938011 -0.073362 -5.281362
v 2.162507 0.222880 -5.376252
v 2.100019 -0.073362 -5.452627
v 2.447176 0.222880 -5.519744
v 2.447176 -0.073362 -5.623892
v 2.787392 0.222880 -5.390139
v 2.870709 -0.073362 -5.461884
vt 0.687500 0.625000
vt 0.625000 0.750000
vt 0.625000 0.625000
vt 0.687500 0.625000
vt 0.625000 0.750000
vt 0.625000 0.625000
vt 0.750000 0.625000
vt 0.687500 0.750000
vt 0.687500 0.625000
vt 0.750000 0.750000
vt 0.750000 0.625000
vt 0.812500 0.750000
vt 0.812500 0.625000
vt 0.187500 0.500000
vt 0.250000 0.625000
vt 0.250000 0.500000
vt 0.000000 0.875000
vt 0.062500 1.000000
vt 0.062500 0.875000
vt 0.187500 0.500000
vt 0.250000 0.625000
vt 0.250000 0.500000
vt 0.000000 0.875000
vt 0.062500 1.000000
vt 0.000000 1.000000
vt 0.187500 0.500000
vt 0.250000 0.625000
vt 0.250000 0.500000
vt 0.062500 0.875000
vt 0.000000 1.000000
vt 0.000000 0.875000
vt 0.187500 0.500000
vt 0.250000 0.625000
vt 0.250000 0.500000
vt 0.062500 0.875000
vt 0.000000 1.000000
vt 0.000000 0.875000
vt 0.187500 0.500000
vt 0.250000 0.625000
vt 0.250000 0.500000
vt 0.062500 0.875000
vt 0.000000 1.000000
vt 0.000000 0.875000
vt 0.500000 0.625000
vt 0.562500 0.625000
vt 0.500000 0.500000
vt 0.500000 0.625000
vt 0.500000 0.500000
vt 0.500000 0.625000
vt 0.500000 0.500000
vt 0.500000 0.625000
vt 0.500000 0.500000
vt 0.500000 0.625000
vt 0.500000 0.500000
vt 0.500000 0.625000
vt 0.500000 0.500000
vt 0.500000 0.625000
vt 0.500000 0.500000
vt 0.562500 0.625000
vt 0.562500 0.500000
vt 0.500000 0.625000
vt 0.500000 0.500000
vt 0.500000 0.625000
vt 0.562500 0.500000
vt 0.500000 0.625000
vt 0.500000 0.500000
vt 0.500000 0.625000
vt 0.562500 0.500000
vt 0.500000 0.625000
vt 0.562500 0.500000
vt 0.500000 0.500000
vt 0.500000 0.625000
vt 0.500000 0.500000
vt 0.562500 0.625000
vt 0.562500 0.500000
vt 0.500000 0.500000
vt 0.562500 0.625000
vt 0.562500 0.500000
vt 0.500000 0.625000
vt 0.500000 0.500000
vt 0.562500 0.625000
vt 0.562500 0.500000
vt 0.500000 0.500000
vt 0.562500 0.625000
vt 0.562500 0.500000
vt 0.500000 0.625000
vt 0.500000 0.500000
vt 0.500000 0.625000
vt 0.562500 0.500000
vt 0.500000 0.625000
vt 0.562500 0.500000
vt 0.500000 0.500000
vt 0.500000 0.625000
vt 0.500000 0.500000
vt 0.500000 0.625000
vt 0.562500 0.500000
vt 0.500000 0.625000
vt 0.562500 0.500000
vt 0.500000 0.500000
vt 0.000000 0.625000
vt 0.062500 0.750000
vt 0.062500 0.625000
vt 0.062500 0.875000
vt 0.000000 1.000000
vt 0.000000 0.875000
vt 0.000000 0.625000
vt 0.062500 0.750000
vt 0.062500 0.625000
vt 0.062500 0.875000
vt 0.000000 1.000000
vt 0.000000 0.875000
vt 0.000000 0.625000
vt 0.062500 0.750000
vt 0.062500 0.625000
vt 0.000000 1.000000
vt 0.062500 0.875000
vt 0.062500 1.000000
vt 0.000000 0.625000
vt 0.062500 0.750000
vt 0.062500 0.625000
vt 0.000000 1.000000
vt 0.062500 0.875000
vt 0.062500 1.000000
vt 0.000000 0.625000
vt 0.062500 0.750000
vt 0.062500 0.625000
vt 0.062500 0.875000
vt 0.000000 0.875000
vt 0.687500 0.750000
vt 0.750000 0.750000
vt 0.687500 0.750000
vt 0.187500 0.625000
vt 0.000000 1.000000
vt 0.187500 0.625000
vt 0.062500 0.875000
vt 0.187500 0.625000
vt 0.062500 1.000000
vt 0.187500 0.625000
vt 0.062500 1.000000
vt 0.187500 0.625000
vt 0.062500 1.000000
vt 0.500000 0.625000
vt 0.562500 0.625000
vt 0.562500 0.625000
vt 0.562500 0.625000
vt 0.500000 0.625000
vt 0.500000 0.625000
vt 0.500000 0.625000
vt 0.500000 0.625000
vt 0.562500 0.625000
vt 0.562500 0.625000
vt 0.562500 0.625000
vt 0.562500 0.625000
vt 0.000000 0.750000
vt 0.062500 1.000000
vt 0.000000 0.750000
vt 0.062500 1.000000
vt 0.000000 0.750000
vt 0.000000 0.875000
vt 0.000000 0.750000
vt 0.000000 0.750000
vt 0.062500 1.000000
vn -0.8361 0.1683 -0.5221
vn -0.6005 0.0004 -0.7996
vn -0.5805 0.1629 -0.7978
vn -0.9828 0.1847 0.0071
vn -0.9794 -0.0196 -0.2010
vn -0.9661 0.1797 -0.1854
vn -0.8502 -0.0020 -0.5264
vn 0.0003 -0.0002 -1.0000
vn -0.0155 0.1879 -0.9821
vn 0.4267 0.0051 -0.9044
vn 0.4110 0.2007 -0.8892
vn 0.0073 -0.2443 -0.9697
vn 0.4066 0.4346 -0.8036
vn 0.4222 -0.1930 -0.8857
vn -0.5935 -0.2119 -0.7764
vn -0.0030 0.2675 -0.9635
vn -0.8352 -0.1915 -0.5155
vn -0.5325 0.4059 -0.7427
vn -0.9607 -0.1899 -0.2024
vn -0.6967 0.5508 -0.4595
vn -0.9821 -0.1874 -0.0181
vn -0.7990 0.5642 -0.2080
vn -0.9989 -0.0383 -0.0262
vn -0.0059 0.9951 0.0988
vn 0.0099 0.9998 -0.0182
vn -0.0916 0.9956 -0.0204
vn -0.0310 0.9966 0.0762
vn 0.0077 0.9978 0.0649
vn 0.0056 0.9955 0.0942
vn 0.0320 0.9993 0.0169
vn 0.1447 0.9797 -0.1386
vn 0.1631 0.9797 -0.1160
vn 0.1969 0.9709 -0.1360
vn 0.1762 0.9799 -0.0930
vn 0.0236 0.9949 -0.0978
vn 0.2078 0.9619 -0.1773
vn 0.0128 0.9487 -0.3160
vn -0.1624 0.9849 -0.0603
vn -0.1691 0.9736 -0.1531
vn -0.1636 0.9825 -0.0885
vn -0.1043 0.9931 -0.0528
vn -0.1310 0.9846 -0.1159
vn -0.0735 0.9923 -0.0995
vn -0.0584 0.9945 -0.0866
vn -0.9878 0.1494 -0.0433
vn -0.9511 0.2055 -0.2305
vn -0.9500 0.2419 -0.1975
vn -0.9786 0.1811 -0.0976
vn -0.8094 0.2533 -0.5299
vn -0.8019 0.3054 -0.5134
vn -0.5705 0.2632 -0.7780
vn -0.5666 0.3138 -0.7619
vn -0.0524 0.2857 -0.9568
vn -0.0408 0.3310 -0.9427
vn 0.3566 0.2781 -0.8919
vn 0.3396 0.3105 -0.8878
vn -0.8665 0.4953 -0.0619
vn 0.1921 0.9699 -0.1495
usemtl Material__25
s 1
f 2/1/1 4/2/2 1/3/3
f 6/4/4 8/5/5 5/6/6
f 5/7/6 3/8/7 2/1/1
f 1/9/3 9/10/8 10/11/9
f 10/11/9 11/12/10 12/13/11
f 16/14/12 15/15/13 14/16/14
f 14/17/14 9/18/8 16/19/12
f 18/20/15 17/21/16 16/22/12
f 9/23/8 18/24/15 16/25/12
f 20/26/17 19/27/18 18/28/15
f 3/29/7 18/30/15 4/31/2
f 22/32/19 21/33/20 20/34/17
f 8/35/5 20/36/17 3/37/7
f 24/38/21 23/39/22 22/40/19
f 7/41/23 22/42/19 8/43/5
f 26/44/24 27/45/25 28/46/26
f 30/47/27 27/45/25 26/48/24
f 31/49/28 27/45/25 30/50/27
f 32/51/29 27/45/25 31/52/28
f 33/53/30 27/45/25 32/54/29
f 34/55/31 27/45/25 33/56/30
f 36/57/32 27/45/25 34/58/31
f 34/58/31 37/59/33 36/60/32
f 38/61/34 27/45/25 36/62/32
f 37/63/33 38/64/34 36/62/32
f 40/65/35 27/45/25 38/66/34
f 39/67/36 40/68/35 38/66/34
f 15/69/13 41/70/37 39/71/36
f 42/72/38 27/45/25 40/73/35
f 40/73/35 43/74/39 42/75/38
f 41/76/37 19/77/18 43/78/39
f 44/79/40 27/45/25 42/80/38
f 42/80/38 45/81/41 44/82/40
f 43/83/39 21/84/20 45/85/41
f 46/86/42 27/45/25 44/87/40
f 45/88/41 46/89/42 44/87/40
f 21/90/20 47/91/43 45/92/41
f 28/93/26 27/45/25 46/94/42
f 47/95/43 28/96/26 46/94/42
f 23/97/22 29/98/44 47/99/43
f 48/100/45 50/101/46 51/102/47
f 49/103/48 5/104/6 50/105/46
f 51/106/47 52/107/49 53/108/50
f 50/109/46 2/110/1 52/111/49
f 53/112/50 54/113/51 55/114/52
f 1/115/3 52/116/49 2/117/1
f 55/118/52 56/119/53 57/120/54
f 10/121/9 54/122/51 1/123/3
f 57/124/54 58/125/55 59/126/56
f 10/121/9 58/127/55 56/128/53
f 2/1/1 3/8/7 4/2/2
f 6/4/4 7/129/23 8/5/5
f 5/7/6 8/130/5 3/8/7
f 1/9/3 4/131/2 9/10/8
f 10/11/9 9/10/8 11/12/10
f 16/14/12 17/132/16 15/15/13
f 14/17/14 11/133/10 9/18/8
f 18/20/15 19/134/18 17/21/16
f 9/23/8 4/135/2 18/24/15
f 20/26/17 21/136/20 19/27/18
f 3/29/7 20/137/17 18/30/15
f 22/32/19 23/138/22 21/33/20
f 8/35/5 22/139/19 20/36/17
f 24/38/21 25/140/57 23/39/22
f 7/41/23 24/141/21 22/42/19
f 34/58/31 35/142/58 37/59/33
f 37/63/33 39/143/36 38/64/34
f 39/67/36 41/144/37 40/68/35
f 15/69/13 17/145/16 41/70/37
f 40/73/35 41/146/37 43/74/39
f 41/76/37 17/147/16 19/77/18
f 42/80/38 43/148/39 45/81/41
f 43/83/39 19/149/18 21/84/20
f 45/88/41 47/150/43 46/89/42
f 21/90/20 23/151/22 47/91/43
f 47/95/43 29/152/44 28/96/26
f 23/97/22 25/153/57 29/98/44
f 48/100/45 49/154/48 50/101/46
f 49/103/48 6/155/4 5/104/6
f 51/106/47 50/156/46 52/107/49
f 50/109/46 5/157/6 2/110/1
f 53/112/50 52/158/49 54/113/51
f 1/115/3 54/159/51 52/116/49
f 55/118/52 54/160/51 56/119/53
f 10/121/9 56/128/53 54/122/51
f 57/124/54 56/161/53 58/125/55
f 10/121/9 12/162/11 58/127/55
l 11 13
