# Blender v2.79 (sub 0) OBJ File: ''
# www.blender.org
mtllib hurricos.132.mtl
o hurricos.132_tex_72.349
v -5.426375 0.815363 -5.105469
v -5.218081 0.815363 -5.320707
v -5.243539 0.519122 -5.341537
v -5.451834 0.519122 -5.128613
v -5.130134 0.519122 -5.461884
v -5.127820 0.222880 -5.508173
v -5.266683 0.222880 -5.362366
v -5.474977 0.222880 -5.149442
v -5.567554 0.519122 -5.010579
v -5.590697 0.222880 -5.031408
v -5.127820 0.815363 -5.413282
v -5.215766 0.815363 -4.894859
v -5.609212 -0.073362 -5.110097
v -5.518951 -0.073362 -5.193416
v -5.310656 -0.073362 -5.408654
v -5.134763 -0.073362 -5.589176
v -5.912397 0.815363 -4.846257
v -5.912397 1.111605 -4.846257
v -5.715674 1.111605 -4.795341
v -5.715674 0.815363 -4.795341
v -5.465720 0.815363 -4.626390
v -6.278071 1.407847 -4.714336
v -6.322044 1.111605 -4.793026
v -6.092920 1.407847 -4.755996
v -6.127635 1.111605 -4.836999
v -5.889254 1.407847 -4.765253
v -5.704103 1.407847 -4.716651
v -5.912397 0.667242 -4.846257
v -5.715674 0.667242 -4.795341
v -6.322044 0.815363 -4.793026
v -6.127635 0.815363 -4.836999
v -6.322044 0.667242 -4.793026
v -6.127635 0.667242 -4.836999
v -6.477108 0.667242 -4.948090
v -6.187810 0.667242 -5.059181
v -5.891568 0.667242 -5.075382
v -5.555982 0.667242 -4.999007
v -6.192439 0.667242 -5.103154
v -5.896196 0.667242 -5.121669
v -5.898511 0.222880 -5.144813
v -5.896196 0.519122 -5.133241
v -5.891568 0.519122 -5.086954
v -5.893882 0.222880 -5.100840
v -6.194753 0.222880 -5.128613
v -6.194753 0.519122 -5.117041
v -6.190124 0.222880 -5.082325
v -6.190124 0.519122 -5.070753
v -6.465536 0.519122 -4.959662
v -6.440078 0.222880 -4.987435
v -6.440078 -0.073362 -5.061495
v -6.224840 -0.073362 -5.149442
v -6.229469 -0.073362 -5.195730
v -5.882310 -0.073362 -5.211931
v -5.877682 -0.073362 -5.167957
v -7.301031 0.519122 -4.677307
v -7.192255 0.667242 -4.793026
v -7.097364 0.519122 -4.892545
v -6.988588 0.667242 -4.999007
v -6.893699 0.519122 -5.107783
v -6.708548 0.667242 -4.922632
v -6.708548 0.519122 -4.922632
v -6.490994 0.519122 -4.725909
v -6.632173 0.667242 -4.649534
v -7.194569 0.815363 -4.793026
v -6.988588 0.815363 -4.999007
v -7.113565 0.815363 -4.515299
v -6.632173 0.815363 -4.649534
v -6.706233 0.815363 -4.920318
v -7.097364 0.222880 -4.892545
v -6.893699 0.222880 -5.107783
v -7.111251 0.222880 -4.494470
v -6.703918 0.222880 -4.924946
v -6.490994 0.222880 -4.725909
v -7.301031 0.222880 -4.677307
v -6.907585 0.222880 -4.709708
v -6.694661 0.222880 -4.510671
v -6.488680 0.815363 -4.934204
v -7.331118 0.815363 -4.957348
v -7.266315 0.815363 -4.894859
v -7.062649 0.815363 -5.107783
v -7.129766 0.815363 -5.167957
v -7.393606 0.222880 -5.015207
v -7.361205 0.519122 -4.982806
v -7.157539 0.519122 -5.195730
v -7.189940 0.222880 -5.228131
v -7.092736 0.519122 -5.133241
v -7.125137 0.222880 -5.165643
v -7.326489 0.222880 -4.952719
v -7.294087 0.519122 -4.920318
v -7.317232 0.815363 -4.512985
v -6.891384 0.519122 -5.336907
v -6.896013 0.222880 -5.397082
v -6.884441 0.815363 -5.283677
v -6.720119 0.815363 -5.140184
v -6.699290 0.519122 -5.165643
v -7.581072 0.222880 -4.670363
v -7.525527 0.519122 -4.668049
v -6.671517 0.222880 -5.193416
v -7.474610 0.815363 -4.663420
v -6.625229 0.815363 -4.651848
v -7.662076 -0.073362 -4.679621
v -7.407493 -0.073362 -4.961977
v -7.472296 -0.073362 -5.024465
v -7.196883 -0.073362 -5.306820
v -7.129766 -0.073362 -5.246646
v -6.902956 -0.073362 -5.475771
v -6.634487 -0.073362 -5.228131
v -6.736320 0.852394 -4.904117
v -6.666888 0.852394 -4.661106
v -6.706233 0.815363 -4.934204
v -6.815009 0.889424 -4.823113
v -6.775664 0.889424 -4.688879
v -6.981645 0.852394 -4.966605
v -6.993217 0.815363 -5.005950
v -6.951558 0.889424 -4.857829
v -7.159853 0.852394 -4.783769
v -7.199198 0.815363 -4.793026
v -7.048762 0.889424 -4.755996
v -7.009418 0.889424 -4.621761
v -6.870554 0.889424 -4.589360
v -6.842782 0.792220 -4.793026
v -6.981645 0.792220 -4.649534
v -7.009418 0.792220 -4.746738
v -6.939986 0.792220 -4.818484
v -6.815009 0.792220 -4.698136
v -6.771036 0.815363 -4.869401
v -6.713176 0.815363 -4.672678
v -7.111251 0.815363 -4.772197
v -6.970073 0.815363 -4.920318
vt 0.625000 0.750000
vt 0.687500 0.875000
vt 0.687500 0.750000
vt 0.625000 0.750000
vt 0.687500 0.875000
vt 0.687500 0.750000
vt 0.625000 0.750000
vt 0.687500 0.750000
vt 0.625000 0.750000
vt 0.687500 0.875000
vt 0.687500 0.750000
vt 0.625000 0.750000
vt 0.687500 0.750000
vt 0.625000 0.750000
vt 0.687500 0.750000
vt 0.625000 0.750000
vt 0.687500 0.750000
vt 0.625000 0.750000
vt 0.687500 0.875000
vt 0.687500 0.750000
vt 0.125000 0.750000
vt 0.187500 0.625000
vt 0.125000 0.625000
vt 0.062500 0.750000
vt 0.125000 0.625000
vt 0.062500 0.625000
vt 0.312500 0.750000
vt 0.375000 0.625000
vt 0.312500 0.625000
vt 0.062500 0.750000
vt 0.125000 0.625000
vt 0.062500 0.625000
vt 0.625000 0.875000
vt 0.687500 0.750000
vt 0.625000 0.750000
vt 0.125000 0.750000
vt 0.187500 0.625000
vt 0.125000 0.625000
vt 0.187500 0.750000
vt 0.250000 0.625000
vt 0.625000 0.875000
vt 0.687500 0.750000
vt 0.625000 0.750000
vt 0.625000 0.875000
vt 0.687500 0.750000
vt 0.625000 0.750000
vt 0.687500 0.875000
vt 0.625000 1.000000
vt 0.625000 0.875000
vt 0.687500 0.875000
vt 0.625000 1.000000
vt 0.625000 0.875000
vt 0.625000 0.875000
vt 0.687500 1.000000
vt 0.625000 1.000000
vt 0.375000 0.750000
vt 0.437500 0.625000
vt 0.375000 0.625000
vt 0.375000 0.750000
vt 0.437500 0.625000
vt 0.375000 0.625000
vt 0.312500 0.750000
vt 0.375000 0.625000
vt 0.312500 0.625000
vt 0.250000 0.750000
vt 0.312500 0.625000
vt 0.250000 0.625000
vt 0.312500 0.750000
vt 0.375000 0.625000
vt 0.312500 0.625000
vt 0.375000 0.625000
vt 0.437500 0.750000
vt 0.437500 0.625000
vt 0.312500 0.625000
vt 0.375000 0.750000
vt 0.375000 0.625000
vt 0.312500 0.625000
vt 0.375000 0.625000
vt 0.312500 0.750000
vt 0.375000 0.625000
vt 0.312500 0.625000
vt 0.125000 0.625000
vt 0.187500 0.750000
vt 0.187500 0.625000
vt 0.125000 0.750000
vt 0.187500 0.625000
vt 0.125000 0.625000
vt 0.625000 0.750000
vt 0.687500 0.875000
vt 0.687500 0.750000
vt 0.375000 0.625000
vt 0.437500 0.750000
vt 0.437500 0.625000
vt 0.375000 0.750000
vt 0.437500 0.625000
vt 0.375000 0.625000
vt 0.375000 0.750000
vt 0.437500 0.625000
vt 0.375000 0.625000
vt 0.625000 0.875000
vt 0.687500 0.750000
vt 0.625000 0.750000
vt 0.625000 0.750000
vt 0.687500 0.875000
vt 0.687500 0.750000
vt 0.625000 0.875000
vt 0.687500 0.750000
vt 0.625000 0.750000
vt 0.687500 0.875000
vt 0.625000 1.000000
vt 0.625000 0.875000
vt 0.375000 0.625000
vt 0.312500 0.625000
vt 0.375000 0.750000
vt 0.312500 0.750000
vt 0.375000 0.625000
vt 0.312500 0.625000
vt 0.375000 0.750000
vt 0.125000 0.750000
vt 0.125000 0.625000
vt 0.062500 0.750000
vt 0.125000 0.750000
vt 0.062500 0.625000
vt 0.125000 0.625000
vt 0.375000 0.625000
vt 0.312500 0.625000
vt 0.375000 0.750000
vt 0.375000 0.625000
vt 0.312500 0.750000
vt 0.125000 0.750000
vt 0.187500 0.625000
vt 0.125000 0.625000
vt 0.187500 0.625000
vt 0.125000 0.750000
vt 0.125000 0.625000
vt 0.250000 0.625000
vt 0.187500 0.750000
vt 0.312500 0.875000
vt 0.250000 1.000000
vt 0.250000 0.875000
vt 0.562500 1.000000
vt 0.625000 0.875000
vt 0.562500 0.875000
vt 0.187500 0.750000
vt 0.250000 0.625000
vt 0.187500 0.625000
vt 0.187500 1.000000
vt 0.187500 0.875000
vt 0.687500 0.875000
vt 0.625000 1.000000
vt 0.625000 0.875000
vt 0.687500 0.875000
vt 0.625000 1.000000
vt 0.625000 0.875000
vt 0.625000 0.875000
vt 0.687500 1.000000
vt 0.625000 1.000000
vt 0.625000 0.875000
vt 0.687500 0.750000
vt 0.625000 0.750000
vt 0.375000 0.750000
vt 0.437500 0.625000
vt 0.375000 0.625000
vt 0.375000 0.625000
vt 0.437500 0.750000
vt 0.437500 0.625000
vt 0.250000 0.750000
vt 0.312500 0.625000
vt 0.250000 0.625000
vt 0.375000 0.750000
vt 0.437500 0.625000
vt 0.375000 0.625000
vt 0.312500 0.750000
vt 0.375000 0.625000
vt 0.375000 0.625000
vt 0.437500 0.750000
vt 0.437500 0.625000
vt 0.312500 0.625000
vt 0.375000 0.750000
vt 0.375000 0.625000
vt 0.625000 0.750000
vt 0.687500 0.875000
vt 0.687500 0.750000
vt 0.625000 0.875000
vt 0.687500 0.750000
vt 0.625000 0.875000
vt 0.687500 0.750000
vt 0.625000 0.750000
vt 0.625000 0.875000
vt 0.687500 0.750000
vt 0.625000 0.750000
vt 0.625000 0.875000
vt 0.687500 0.875000
vt 0.625000 0.750000
vt 0.687500 0.875000
vt 0.625000 0.750000
vt 0.687500 0.875000
vt 0.625000 0.875000
vt 0.687500 0.750000
vt 0.625000 0.750000
vt 0.687500 0.875000
vt 0.687500 0.750000
vt 0.625000 0.750000
vt 0.687500 0.875000
vt 0.625000 0.875000
vt 0.625000 0.750000
vt 0.687500 0.875000
vt 0.625000 0.875000
vt 0.625000 0.750000
vt 0.687500 0.875000
vt 0.625000 0.750000
vt 0.625000 0.875000
vt 0.687500 0.750000
vt 0.687500 0.750000
vt 0.625000 0.875000
vt 0.687500 0.750000
vt 0.625000 0.750000
vt 0.625000 0.875000
vt 0.687500 0.750000
vt 0.625000 0.750000
vt 0.375000 0.625000
vt 0.437500 0.750000
vt 0.437500 0.625000
vt 0.375000 0.625000
vt 0.437500 0.750000
vt 0.437500 0.625000
vt 0.375000 0.750000
vt 0.437500 0.625000
vt 0.375000 0.625000
vt 0.625000 0.750000
vt 0.687500 0.875000
vt 0.687500 0.750000
vt 0.625000 0.875000
vt 0.687500 0.750000
vt 0.625000 0.750000
vt 0.687500 0.750000
vt 0.625000 0.750000
vt 0.312500 0.750000
vt 0.375000 0.875000
vt 0.375000 0.750000
vt 0.312500 0.875000
vt 0.375000 0.750000
vt 0.312500 0.750000
vt 0.312500 0.875000
vt 0.375000 0.750000
vt 0.312500 0.750000
vt 0.312500 0.875000
vt 0.375000 0.750000
vt 0.312500 0.750000
vt 0.312500 0.750000
vt 0.375000 0.875000
vt 0.375000 0.750000
vt 0.312500 0.875000
vt 0.375000 0.750000
vt 0.312500 0.750000
vt 0.312500 0.875000
vt 0.375000 0.750000
vt 0.312500 0.750000
vt 0.375000 0.875000
vt 0.375000 0.750000
vt 0.312500 0.750000
vt 0.375000 0.875000
vt 0.375000 0.750000
vt 0.312500 0.875000
vt 0.375000 0.750000
vt 0.312500 0.750000
vt 0.312500 0.875000
vt 0.375000 0.750000
vt 0.312500 0.750000
vt 0.312500 0.875000
vt 0.312500 0.750000
vt 0.312500 0.750000
vt 0.375000 0.875000
vt 0.375000 0.750000
vt 0.312500 0.750000
vt 0.375000 0.875000
vt 0.375000 0.750000
vt 0.312500 0.750000
vt 0.375000 0.875000
vt 0.375000 0.750000
vt 0.625000 0.875000
vt 0.625000 0.875000
vt 0.625000 0.875000
vt 0.625000 0.875000
vt 0.625000 0.875000
vt 0.625000 0.875000
vt 0.625000 0.875000
vt 0.625000 0.875000
vt 0.187500 0.750000
vt 0.125000 0.750000
vt 0.375000 0.750000
vt 0.125000 0.750000
vt 0.687500 0.875000
vt 0.250000 0.750000
vt 0.687500 0.875000
vt 0.687500 0.875000
vt 0.687500 1.000000
vt 0.687500 1.000000
vt 0.687500 0.875000
vt 0.437500 0.750000
vt 0.437500 0.750000
vt 0.375000 0.750000
vt 0.312500 0.750000
vt 0.375000 0.750000
vt 0.375000 0.750000
vt 0.312500 0.750000
vt 0.312500 0.750000
vt 0.375000 0.750000
vt 0.125000 0.750000
vt 0.187500 0.750000
vt 0.625000 0.875000
vt 0.375000 0.750000
vt 0.437500 0.750000
vt 0.437500 0.750000
vt 0.687500 0.875000
vt 0.625000 0.875000
vt 0.687500 1.000000
vt 0.187500 0.750000
vt 0.250000 0.750000
vt 0.312500 1.000000
vt 0.625000 1.000000
vt 0.250000 0.750000
vt 0.687500 1.000000
vt 0.687500 1.000000
vt 0.687500 0.875000
vt 0.687500 0.875000
vt 0.437500 0.750000
vt 0.375000 0.750000
vt 0.437500 0.750000
vt 0.375000 0.750000
vt 0.375000 0.750000
vt 0.312500 0.750000
vt 0.687500 0.875000
vt 0.687500 0.875000
vt 0.625000 0.875000
vt 0.687500 0.750000
vt 0.687500 0.875000
vt 0.687500 0.875000
vt 0.687500 0.875000
vt 0.375000 0.750000
vt 0.375000 0.750000
vt 0.437500 0.750000
vt 0.625000 0.875000
vt 0.687500 0.875000
vt 0.312500 0.875000
vt 0.375000 0.875000
vt 0.375000 0.875000
vt 0.375000 0.875000
vt 0.312500 0.875000
vt 0.375000 0.875000
vt 0.375000 0.875000
vt 0.312500 0.875000
vt 0.375000 0.875000
vt 0.375000 0.875000
vt 0.375000 0.875000
vt 0.312500 0.875000
vt 0.312500 0.875000
vt 0.312500 0.875000
vn -0.6121 0.5237 -0.5925
vn -0.7167 0.1093 -0.6887
vn -0.7097 0.1092 -0.6959
vn -0.7226 0.1099 -0.6824
vn -0.7114 0.1565 -0.6851
vn -0.7033 0.1588 -0.6929
vn -0.2776 0.0941 -0.9561
vn -0.2654 0.1706 -0.9489
vn -0.7151 0.1123 -0.6899
vn -0.7129 0.1100 -0.6925
vn -0.2629 0.2497 -0.9319
vn -0.6826 0.2067 -0.7009
vn -0.7031 0.2082 -0.6799
vn -0.7130 0.1595 -0.6827
vn -0.7013 0.2033 -0.6833
vn 0.0994 0.1278 -0.9868
vn -0.0970 0.3445 -0.9337
vn 0.1049 0.0000 -0.9945
vn -0.2111 0.2805 -0.9363
vn -0.1330 0.1380 -0.9814
vn -0.2185 0.1377 -0.9661
vn -0.1232 0.2746 -0.9536
vn 0.1111 0.2548 -0.9606
vn 0.2492 0.1239 -0.9605
vn -0.2559 0.6021 -0.7562
vn 0.0703 0.7419 -0.6668
vn -0.1323 0.0000 -0.9912
vn 0.0728 0.2574 -0.9635
vn -0.0907 0.7278 -0.6797
vn 0.1984 0.6205 -0.7587
vn -0.3988 0.8814 -0.2532
vn 0.4582 0.3061 -0.8344
vn 0.3576 0.8745 -0.3276
vn -0.5266 0.3012 -0.7950
vn 0.5315 0.6009 -0.5969
vn -0.6237 0.6008 -0.4999
vn 0.6463 0.0439 -0.7618
vn 0.7346 0.1078 -0.6699
vn 0.6595 0.1166 -0.7426
vn 0.7537 0.0391 -0.6560
vn -0.7546 0.0492 -0.6543
vn -0.7650 0.1310 -0.6306
vn -0.8388 0.1123 -0.5328
vn -0.8568 0.0395 -0.5141
vn 0.1706 0.1017 -0.9800
vn 0.1578 0.1658 -0.9734
vn 0.1803 0.2397 -0.9539
vn -0.8656 0.2049 -0.4568
vn -0.7121 0.2334 -0.6621
vn 0.6055 0.2099 -0.7676
vn 0.7658 0.1816 -0.6169
vn 0.0000 1.0000 0.0000
vn 0.7263 0.0011 0.6873
vn 0.7226 -0.0085 0.6912
vn 0.7161 0.0010 0.6980
vn 0.3787 -0.1603 0.9115
vn 0.0038 -0.1986 0.9800
vn -0.6846 -0.1679 0.7093
vn -0.6876 -0.0060 0.7261
vn -0.7422 -0.2725 0.6122
vn -0.8946 -0.3719 0.2478
vn 0.1399 0.8399 0.5243
vn 0.2447 0.9382 0.2447
vn -0.3925 0.8345 0.3868
vn -0.9646 0.0000 0.2638
vn 0.0154 0.5751 0.8179
vn 0.5136 0.7071 0.4860
vn -0.4864 0.7045 0.5168
vn -0.4838 0.7057 0.5176
vn 0.5121 0.7091 0.4846
vn 0.4512 0.7436 -0.4934
vn -0.4049 0.9143 -0.0006
vn 0.0057 0.6110 -0.7916
vn -0.7895 0.6117 0.0505
vn -0.9814 0.1914 0.0168
vn -0.0116 0.1022 -0.9947
vn -0.0352 0.1984 -0.9795
vn -0.9941 0.1006 0.0392
vn 0.0141 0.1784 -0.9838
vn -0.0087 0.1031 -0.9946
vn -0.9828 0.1733 0.0636
vn -0.9941 0.1007 0.0393
vn -0.0302 0.1879 -0.9817
vn -0.0172 0.6452 -0.7638
vn 0.6576 0.1218 -0.7435
vn -0.7312 0.1419 -0.6672
vn 0.6579 0.1522 -0.7376
vn 0.4405 0.7446 -0.5015
vn -0.4982 0.7393 -0.4530
vn -0.0266 0.9113 -0.4107
vn 0.5462 0.8230 -0.1561
vn -0.7300 0.1841 -0.6582
vn -0.9643 0.2588 0.0559
vn -0.7247 0.2186 -0.6534
vn -0.9673 0.2534 0.0040
vn -0.0374 0.2574 -0.9656
vn -0.0212 0.2582 -0.9658
vn -0.0219 0.2297 -0.9730
vn -0.0281 0.2572 -0.9659
vn 0.6532 0.1701 -0.7378
vn 0.3738 0.8414 -0.3904
vn 0.6691 -0.2800 -0.6883
vn 0.1730 0.9836 -0.0497
vn 0.1438 0.9782 -0.1496
vn -0.2620 -0.2871 -0.9214
vn -0.1470 0.8355 -0.5294
vn -0.0572 0.9781 -0.2000
vn -0.4384 0.7925 -0.4240
vn -0.6955 -0.2522 -0.6728
vn -0.1271 0.9844 -0.1213
vn 0.1211 -0.9850 -0.1224
vn -0.0889 -0.9924 -0.0851
vn -0.0376 -0.9898 -0.1371
vn 0.0803 -0.9965 -0.0235
vn 0.0506 -0.9973 -0.0527
vn -0.0197 -0.9974 -0.0685
vn -0.0604 -0.9965 -0.0575
vn 0.2465 0.2398 -0.9390
vn 0.5683 0.8066 -0.1624
vn 0.0000 -1.0000 0.0000
vn 0.2376 -0.9689 -0.0695
usemtl Material__25
s 1
f 1/1/1 3/2/2 4/3/3
f 5/4/4 7/5/5 3/6/2
f 4/7/3 7/5/5 8/8/6
f 9/9/7 8/10/6 10/11/8
f 11/12/9 3/2/2 2/13/10
f 13/14/11 8/10/6 14/15/12
f 14/16/12 7/5/5 15/17/13
f 15/18/13 6/19/14 16/20/15
f 18/21/16 20/22/17 17/23/18
f 22/24/19 25/25/20 23/26/21
f 24/27/22 18/28/16 25/29/20
f 26/30/23 19/31/24 18/32/16
f 17/33/18 29/34/25 28/35/26
f 23/36/21 31/37/27 30/38/28
f 25/39/20 17/40/18 31/37/27
f 30/41/28 33/42/29 32/43/30
f 31/44/27 28/45/26 33/46/29
f 32/47/30 35/48/31 34/49/32
f 33/50/29 36/51/33 35/52/31
f 36/53/33 29/54/25 37/55/34
f 35/56/31 39/57/35 38/58/36
f 41/59/37 43/60/38 40/61/39
f 39/62/35 42/63/40 41/64/37
f 45/65/41 40/66/39 44/67/42
f 38/68/36 41/69/37 45/70/41
f 46/71/43 45/72/41 44/73/42
f 47/74/44 38/75/36 45/76/41
f 48/77/45 35/56/31 47/78/44
f 36/79/33 9/80/7 42/81/40
f 49/82/46 47/83/44 46/84/43
f 42/85/40 10/86/8 43/87/38
f 50/88/47 46/89/43 51/90/48
f 51/91/48 44/92/42 52/93/49
f 44/94/42 53/95/50 52/96/49
f 40/97/39 54/98/51 53/99/50
f 43/100/38 13/101/11 54/102/51
f 37/103/34 4/104/3 9/105/7
f 20/106/17 37/107/34 29/108/25
f 1/109/1 21/110/52 12/111/52
f 55/112/53 57/113/54 56/114/55
f 58/115/56 56/114/55 57/113/54
f 57/116/54 59/117/57 58/118/56
f 58/119/56 59/120/57 60/121/58
f 60/122/58 59/123/57 61/124/59
f 61/125/59 62/126/60 60/127/58
f 60/127/58 62/128/60 63/129/61
f 56/130/55 65/131/62 64/132/63
f 68/133/64 63/134/61 67/135/65
f 65/136/62 60/137/58 68/133/64
f 70/138/66 57/139/54 69/140/67
f 61/141/59 70/142/66 72/143/68
f 62/144/60 72/145/68 73/146/69
f 69/140/67 55/147/53 74/148/70
f 75/149/52 74/150/70 71/151/52
f 72/152/68 69/153/67 75/154/52
f 76/155/52 72/156/68 75/157/52
f 77/158/71 32/159/30 34/160/32
f 79/161/72 81/162/73 78/163/74
f 82/164/75 84/165/76 85/166/77
f 78/167/74 84/168/76 83/169/78
f 84/170/76 87/171/79 85/172/77
f 81/173/73 86/174/80 84/168/76
f 88/175/81 83/176/78 82/177/75
f 89/178/82 78/179/74 83/180/78
f 91/181/83 87/182/79 86/183/80
f 93/184/84 95/185/85 91/181/83
f 88/186/81 97/187/86 89/188/82
f 98/189/87 91/190/83 95/191/85
f 94/192/88 77/193/71 34/160/32
f 86/194/80 93/195/84 91/190/83
f 48/196/45 98/197/87 95/185/85
f 99/198/89 89/199/82 97/200/86
f 34/160/32 95/201/85 94/202/88
f 99/203/89 90/204/52 79/205/72
f 79/206/72 65/207/62 80/208/90
f 80/209/90 94/210/88 93/184/84
f 77/211/71 94/210/88 68/212/64
f 65/213/62 94/192/88 80/209/90
f 90/214/52 64/215/63 79/206/72
f 100/216/91 77/158/71 68/217/64
f 96/218/92 102/219/93 101/220/94
f 102/221/93 82/222/75 103/223/95
f 103/224/95 85/225/77 104/226/96
f 85/227/77 105/228/97 104/229/96
f 105/230/97 92/231/98 106/232/99
f 92/233/98 107/234/100 106/235/99
f 98/189/87 50/236/47 107/237/100
f 108/238/101 100/239/91 110/240/102
f 112/241/103 108/242/101 111/243/104
f 108/244/101 114/245/105 113/246/106
f 111/247/104 113/248/106 115/249/107
f 116/250/108 114/251/105 117/252/109
f 115/253/107 116/254/108 118/255/110
f 120/256/52 111/257/104 119/258/52
f 111/243/104 118/259/110 119/260/52
f 121/261/111 123/262/112 124/263/113
f 127/264/114 121/265/111 126/266/115
f 129/267/116 123/268/112 128/269/117
f 126/270/115 124/263/113 129/271/116
f 114/272/105 126/273/115 129/274/116
f 110/275/102 127/276/114 126/277/115
f 117/278/109 129/279/116 128/280/117
f 1/1/1 2/281/10 3/2/2
f 5/4/4 6/282/14 7/5/5
f 4/7/3 3/283/2 7/5/5
f 9/9/7 4/284/3 8/10/6
f 11/12/9 5/285/4 3/2/2
f 13/14/11 10/286/8 8/10/6
f 14/16/12 8/287/6 7/5/5
f 15/18/13 7/288/5 6/19/14
f 18/21/16 19/289/24 20/22/17
f 22/24/19 24/290/22 25/25/20
f 24/27/22 26/291/23 18/28/16
f 26/30/23 27/292/118 19/31/24
f 17/33/18 20/293/17 29/34/25
f 23/36/21 25/39/20 31/37/27
f 25/39/20 18/294/16 17/40/18
f 30/41/28 31/295/27 33/42/29
f 31/44/27 17/296/18 28/45/26
f 32/47/30 33/297/29 35/48/31
f 33/50/29 28/298/26 36/51/33
f 36/53/33 28/299/26 29/54/25
f 35/56/31 36/300/33 39/57/35
f 41/59/37 42/301/40 43/60/38
f 39/62/35 36/302/33 42/63/40
f 45/65/41 41/303/37 40/66/39
f 38/68/36 39/304/35 41/69/37
f 46/71/43 47/305/44 45/72/41
f 47/74/44 35/306/31 38/75/36
f 48/77/45 34/307/32 35/56/31
f 36/79/33 37/308/34 9/80/7
f 49/82/46 48/309/45 47/83/44
f 42/85/40 9/310/7 10/86/8
f 50/88/47 49/311/46 46/89/43
f 51/91/48 46/312/43 44/92/42
f 44/94/42 40/313/39 53/95/50
f 40/97/39 43/314/38 54/98/51
f 43/100/38 10/315/8 13/101/11
f 37/103/34 1/316/1 4/104/3
f 20/106/17 1/109/1 37/107/34
f 1/109/1 20/317/17 21/110/52
f 56/130/55 58/318/56 65/131/62
f 68/133/64 60/137/58 63/134/61
f 65/136/62 58/319/56 60/137/58
f 70/138/66 59/320/57 57/139/54
f 61/141/59 59/321/57 70/142/66
f 62/144/60 61/322/59 72/145/68
f 69/140/67 57/139/54 55/147/53
f 75/149/52 69/323/67 74/150/70
f 72/152/68 70/324/66 69/153/67
f 76/155/52 73/325/69 72/156/68
f 77/158/71 30/326/28 32/159/30
f 79/161/72 80/327/90 81/162/73
f 82/164/75 83/328/78 84/165/76
f 78/167/74 81/173/73 84/168/76
f 84/170/76 86/329/80 87/171/79
f 81/173/73 80/330/90 86/174/80
f 88/175/81 89/331/82 83/176/78
f 89/178/82 79/332/72 78/179/74
f 91/181/83 92/233/98 87/182/79
f 93/184/84 94/210/88 95/185/85
f 88/186/81 96/333/92 97/187/86
f 98/189/87 92/231/98 91/190/83
f 86/194/80 80/208/90 93/195/84
f 48/196/45 49/311/46 98/197/87
f 99/198/89 79/334/72 89/199/82
f 34/160/32 48/335/45 95/201/85
f 79/206/72 64/336/63 65/207/62
f 65/213/62 68/337/64 94/192/88
f 90/214/52 66/338/52 64/215/63
f 100/216/91 30/326/28 77/158/71
f 96/218/92 88/339/81 102/219/93
f 102/221/93 88/340/81 82/222/75
f 103/224/95 82/341/75 85/225/77
f 85/227/77 87/342/79 105/228/97
f 105/230/97 87/343/79 92/231/98
f 92/233/98 98/197/87 107/234/100
f 98/189/87 49/344/46 50/236/47
f 108/238/101 109/345/119 100/239/91
f 112/241/103 109/346/119 108/242/101
f 108/244/101 110/347/102 114/245/105
f 111/247/104 108/348/101 113/248/106
f 116/250/108 113/349/106 114/251/105
f 115/253/107 113/350/106 116/254/108
f 120/256/52 112/351/103 111/257/104
f 111/243/104 115/253/107 118/259/110
f 121/261/111 122/352/120 123/262/112
f 127/264/114 125/353/121 121/265/111
f 129/267/116 124/354/113 123/268/112
f 126/270/115 121/355/111 124/263/113
f 114/272/105 110/356/102 126/273/115
f 110/275/102 100/357/91 127/276/114
f 117/278/109 114/358/105 129/279/116
