# Blender v2.79 (sub 0) OBJ File: ''
# www.blender.org
mtllib hurricos.110.mtl
o hurricos.110_tex_72.327
v 0.415143 1.417104 -3.427536
v 0.523919 1.259726 -3.462252
v 0.683612 0.519121 -3.846441
v 0.415143 0.519121 -3.577972
v 0.523919 0.519121 -3.577972
v 0.674355 0.519121 -3.649718
v 0.523919 0.519121 -3.429851
v 0.674355 0.519121 -3.429851
v 0.415143 1.255097 -3.459938
v 0.415143 0.815363 -3.577972
v 0.466060 1.153264 -3.628888
v 0.498461 1.421733 -3.612688
v 0.523919 0.815363 -3.577972
v 0.523919 0.815363 -3.429851
v 0.523919 1.111605 -3.341904
v 1.102516 1.111605 -4.297747
v 1.121032 1.468021 -4.256086
v 0.845619 1.430991 -4.101024
v 0.808589 1.111605 -4.149626
v 0.683612 1.430991 -3.846441
v 0.625752 1.111605 -3.918187
v 0.808589 0.815363 -4.149626
v 1.102516 0.815363 -4.297747
v 0.845619 0.519121 -4.101024
v 1.121032 0.519121 -4.256088
v 0.625752 0.815363 -3.918187
v 0.972911 0.519121 -3.693691
v 1.266838 0.519121 -3.429851
v 0.970596 0.542265 -3.429851
v 1.266838 0.519121 -3.712206
v 1.266838 0.519121 -4.015391
v 1.030770 0.519121 -3.950589
v 0.748415 1.421733 -4.392636
v 0.581779 1.430991 -4.228315
v 0.449859 1.407847 -3.901986
v 1.208979 1.111605 -4.480584
v 1.278410 1.505051 -4.480583
v 1.208979 0.815363 -4.480584
v 1.278410 0.519121 -4.480584
v 1.266838 0.519121 -4.290803
v 1.215921 0.556152 -4.783769
v 1.169634 0.852394 -4.783769
v 1.169634 1.074575 -4.783769
v 1.215921 1.472650 -4.783768
v 0.859506 1.440248 -4.790711
v 0.889592 1.421733 -4.640276
v 1.296925 0.222880 -4.596303
v 1.324697 -0.073362 -4.665735
v -0.269917 0.667242 -4.193599
v -0.237515 0.667242 -4.408837
v -0.390265 0.944969 -4.700450
v 0.028640 0.815363 -4.371807
v -0.228257 0.963484 -4.434296
v 0.035583 0.963484 -4.385694
v 0.373484 0.981999 -4.526871
v 0.373484 1.481907 -4.526871
v 0.500775 1.449506 -4.797655
v 0.500775 0.972742 -4.797655
v 0.241564 1.111605 -4.140368
v 0.241564 1.407847 -4.140368
v 0.317939 1.486536 -4.355606
v 0.313310 0.963484 -4.316262
v -0.179655 0.963484 -4.654163
v 0.095757 0.977370 -4.591674
v 0.021696 0.667242 -4.332463
v 0.304052 0.815363 -4.276917
v -0.269917 1.111605 -4.193599
v -0.001448 0.667242 -4.209800
v -0.008390 0.815363 -4.161198
v -0.008390 1.111605 -4.161198
v 0.248507 0.815363 -4.170455
v -0.269917 1.393960 -4.193599
v -0.008390 1.412476 -4.161198
v -0.045421 1.514309 -3.767752
v -0.316204 1.481907 -3.846441
v 0.188333 1.463392 -3.580286
v 0.118901 1.454135 -3.360419
v -0.276859 1.579112 -3.605744
v -0.098652 1.579112 -3.608059
v -0.096337 1.560596 -3.432165
v -0.094023 1.542081 -3.256272
v -0.274546 1.805922 -3.455309
v -0.276859 1.708718 -3.552513
v -0.096337 1.708718 -3.554828
v -0.094023 1.611513 -3.406707
v -0.096337 1.805922 -3.457623
v -0.094023 1.662429 -3.358105
v -0.251401 1.745748 -3.661290
v -0.126425 1.745748 -3.663604
v -0.126425 1.625399 -3.709892
v -0.251401 1.625399 -3.709892
v 1.435788 0.222880 -4.654163
v 1.419588 -0.073362 -4.684250
vt 0.500000 0.500000
vt 0.562500 0.625000
vt 0.562500 0.500000
vt 0.937500 1.000000
vt 1.000000 0.875000
vt 0.937500 0.875000
vt 0.500000 0.625000
vt 0.562500 0.625000
vt 0.500000 0.500000
vt 0.500000 0.500000
vt 0.562500 0.625000
vt 0.562500 0.500000
vt 0.000000 0.750000
vt 0.062500 0.875000
vt 0.062500 0.750000
vt 0.625000 0.875000
vt 0.687500 0.750000
vt 0.625000 0.750000
vt 0.312500 1.000000
vt 0.375000 0.875000
vt 0.312500 0.875000
vt 0.437500 0.750000
vt 0.500000 0.875000
vt 0.500000 0.750000
vt 0.312500 0.500000
vt 0.375000 0.625000
vt 0.375000 0.500000
vt 0.500000 0.625000
vt 0.562500 0.500000
vt 0.500000 0.500000
vt 0.375000 0.625000
vt 0.437500 0.500000
vt 0.375000 0.500000
vt 0.000000 1.000000
vt 0.062500 0.875000
vt 0.000000 0.875000
vt 0.875000 0.625000
vt 0.937500 0.750000
vt 0.875000 0.750000
vt 0.125000 0.625000
vt 0.187500 0.500000
vt 0.125000 0.500000
vt 0.937500 0.625000
vt 1.000000 0.750000
vt 1.000000 0.625000
vt 0.312500 0.500000
vt 0.375000 0.625000
vt 0.375000 0.500000
vt 0.000000 0.500000
vt 0.062500 0.625000
vt 0.062500 0.500000
vt 0.500000 0.625000
vt 0.562500 0.625000
vt 0.500000 0.625000
vt 0.562500 0.500000
vt 0.500000 0.500000
vt 0.437500 0.625000
vt 0.500000 0.500000
vt 0.437500 0.500000
vt 0.500000 0.625000
vt 0.562500 0.500000
vt 0.500000 0.500000
vt 0.437500 0.625000
vt 0.500000 0.500000
vt 0.437500 0.500000
vt 0.500000 0.625000
vt 0.562500 0.500000
vt 0.500000 0.500000
vt 0.500000 0.625000
vt 0.562500 0.500000
vt 0.500000 0.500000
vt 0.250000 0.500000
vt 0.312500 0.625000
vt 0.000000 1.000000
vt 0.062500 0.875000
vt 0.000000 0.875000
vt 0.875000 0.750000
vt 0.937500 0.625000
vt 0.875000 0.625000
vt 0.437500 0.625000
vt 0.500000 0.625000
vt 0.437500 0.500000
vt 0.437500 0.500000
vt 0.500000 0.625000
vt 0.500000 0.500000
vt 0.562500 0.625000
vt 0.500000 0.500000
vt 0.687500 0.625000
vt 0.625000 0.750000
vt 0.625000 0.625000
vt 0.000000 0.875000
vt 0.062500 1.000000
vt 0.062500 0.875000
vt 0.187500 0.625000
vt 0.187500 0.500000
vt 0.500000 0.500000
vt 0.562500 0.625000
vt 0.562500 0.500000
vt 0.500000 0.625000
vt 0.562500 0.500000
vt 0.500000 0.500000
vt 0.437500 0.500000
vt 0.375000 0.500000
vt 0.437500 0.625000
vt 0.375000 0.625000
vt 0.375000 0.500000
vt 0.437500 0.625000
vt 0.437500 0.500000
vt 0.187500 0.500000
vt 0.250000 0.625000
vt 0.250000 0.500000
vt 0.312500 0.625000
vt 0.312500 0.500000
vt 0.500000 0.500000
vt 0.562500 0.625000
vt 0.562500 0.500000
vt 0.500000 0.500000
vt 0.562500 0.625000
vt 0.562500 0.500000
vt 0.500000 0.625000
vt 0.562500 0.625000
vt 0.500000 0.500000
vt 0.312500 0.500000
vt 0.125000 0.500000
vt 0.062500 0.500000
vt 0.125000 0.625000
vt 0.000000 1.000000
vt 0.062500 0.875000
vt 0.000000 0.875000
vt 0.375000 0.500000
vt 0.437500 0.625000
vt 0.437500 0.500000
vt 0.500000 0.625000
vt 0.562500 0.750000
vt 0.500000 0.625000
vt 0.562500 0.500000
vt 0.500000 0.500000
vt 0.062500 0.500000
vt 0.125000 0.625000
vt 0.125000 0.500000
vt 0.062500 0.500000
vt 0.125000 0.625000
vt 0.125000 0.500000
vt 0.250000 0.625000
vt 0.312500 0.500000
vt 0.250000 0.500000
vt 0.187500 0.500000
vt 0.250000 0.625000
vt 0.250000 0.500000
vt 0.562500 0.625000
vt 0.500000 0.500000
vt 0.562500 0.625000
vt 0.562500 0.500000
vt 0.437500 0.500000
vt 0.500000 0.500000
vt 0.437500 0.625000
vt 0.500000 0.500000
vt 0.437500 0.500000
vt 0.500000 0.625000
vt 0.562500 0.625000
vt 0.500000 0.500000
vt 0.500000 0.625000
vt 0.562500 0.500000
vt 0.500000 0.500000
vt 0.437500 0.500000
vt 0.500000 0.625000
vt 0.500000 0.500000
vt 0.500000 0.625000
vt 0.562500 0.500000
vt 0.437500 0.500000
vt 0.500000 0.500000
vt 0.500000 0.625000
vt 0.562500 0.500000
vt 0.500000 0.500000
vt 0.500000 0.625000
vt 0.562500 0.500000
vt 0.500000 0.625000
vt 0.562500 0.500000
vt 0.625000 0.750000
vt 0.687500 0.875000
vt 0.687500 0.750000
vt 0.625000 0.750000
vt 0.687500 0.875000
vt 0.687500 0.750000
vt 0.625000 0.875000
vt 0.687500 0.750000
vt 0.625000 0.750000
vt 0.625000 0.875000
vt 0.687500 0.750000
vt 0.625000 0.750000
vt 0.625000 0.875000
vt 0.687500 0.750000
vt 0.625000 0.750000
vt 0.687500 0.875000
vt 0.687500 0.750000
vt 0.625000 0.875000
vt 0.687500 0.750000
vt 0.625000 0.750000
vt 0.000000 0.625000
vt 0.062500 0.750000
vt 0.062500 0.625000
vt 0.500000 0.625000
vt 1.000000 1.000000
vt 0.500000 0.625000
vt 0.000000 0.875000
vt 0.687500 0.875000
vt 0.375000 1.000000
vt 0.437500 0.875000
vt 0.562500 0.625000
vt 0.437500 0.625000
vt 0.062500 1.000000
vt 0.187500 0.625000
vt 0.937500 0.750000
vt 0.312500 0.625000
vt 0.000000 0.625000
vt 0.562500 0.625000
vt 0.500000 0.625000
vt 0.562500 0.625000
vt 0.562500 0.625000
vt 0.250000 0.625000
vt 0.062500 1.000000
vt 0.437500 0.625000
vt 0.687500 0.750000
vt 0.000000 1.000000
vt 0.500000 0.625000
vt 0.375000 0.625000
vt 0.187500 0.625000
vt 0.500000 0.625000
vt 0.500000 0.625000
vt 0.312500 0.625000
vt 0.062500 1.000000
vt 0.375000 0.625000
vt 0.500000 0.750000
vt 0.562500 0.625000
vt 0.062500 0.625000
vt 0.062500 0.625000
vt 0.312500 0.625000
vt 0.187500 0.625000
vt 0.500000 0.625000
vt 0.437500 0.625000
vt 0.562500 0.625000
vt 0.437500 0.625000
vt 0.562500 0.625000
vt 0.562500 0.625000
vt 0.562500 0.625000
vt 0.562500 0.625000
vt 0.625000 0.875000
vt 0.625000 0.875000
vt 0.687500 0.875000
vt 0.000000 0.750000
vn 0.4874 0.8037 0.3412
vn 0.3015 0.9045 -0.3015
vn -0.0132 0.9998 -0.0110
vn -0.0390 0.9992 0.0000
vn 0.7071 0.7071 0.0000
vn 0.9887 0.0285 -0.1471
vn 0.9026 0.1614 -0.3991
vn 0.8873 -0.1119 0.4473
vn 0.6598 0.6669 0.3463
vn 0.6788 0.0956 -0.7280
vn 0.5014 0.2180 -0.8373
vn 0.7734 0.5469 -0.3204
vn 1.0000 0.0000 0.0000
vn 0.6922 -0.0680 0.7185
vn 0.4540 0.6962 0.5559
vn 0.6292 -0.0931 0.7716
vn 0.8289 -0.1152 0.5473
vn 0.6285 0.6339 0.4506
vn 0.6287 0.1001 0.7711
vn 0.4494 0.7338 0.5095
vn 0.6911 0.0785 0.7185
vn 0.8224 0.1243 0.5552
vn 0.0076 0.9995 -0.0314
vn 0.0363 0.9985 -0.0404
vn 0.0000 1.0000 0.0000
vn 0.0189 0.9974 -0.0693
vn 0.0141 0.9999 -0.0028
vn 0.4740 0.6430 0.6015
vn 0.0325 0.9974 0.0646
vn 0.9763 -0.0725 0.2037
vn 0.9732 0.0973 0.2083
vn 0.3980 0.8096 0.4315
vn 0.8916 0.4046 0.2031
vn 0.9720 0.1890 -0.1393
vn 0.9903 0.0706 -0.1199
vn 0.6601 0.7377 -0.1413
vn 0.9911 -0.0528 -0.1222
vn -0.0656 0.9971 0.0391
vn 0.7365 0.6583 0.1557
vn -0.1488 0.7317 0.6652
vn -0.4608 0.3841 0.8000
vn -0.1266 0.7293 0.6723
vn -0.1719 0.7407 0.6494
vn -0.8617 0.4180 -0.2875
vn -0.5270 0.8030 -0.2781
vn -0.9050 0.0000 -0.4254
vn -0.5282 0.0109 -0.8490
vn -0.6058 0.7906 -0.0890
vn -0.9157 0.4018 0.0064
vn -0.0264 0.9994 0.0212
vn -0.0418 0.9973 0.0595
vn -0.6898 0.6404 0.3377
vn -0.7580 0.6110 0.2284
vn -0.5579 0.6572 -0.5066
vn 0.0453 0.6980 -0.7146
vn -0.1905 0.3389 -0.9213
vn 0.1229 0.0000 -0.9924
vn -0.4464 0.6279 -0.6376
vn 0.0566 0.5984 -0.7992
vn 0.1030 0.0000 -0.9947
vn -0.2785 0.8513 -0.4446
vn -0.0268 0.9915 0.1274
vn -0.5950 0.7542 -0.2776
vn 0.1226 0.9638 -0.2365
vn 0.0629 0.6272 -0.7762
vn 0.0180 0.9995 -0.0271
vn -0.0255 0.9534 -0.3007
vn 0.2358 0.9714 0.0273
vn 0.5881 0.7577 0.2829
vn -0.0072 0.2913 -0.9566
vn 0.7262 0.5932 -0.3474
vn 0.7437 0.6650 0.0682
vn 0.3218 0.9387 0.1236
vn 0.8409 0.4961 -0.2161
vn 0.9997 -0.0091 -0.0217
vn 0.6527 0.5357 -0.5357
vn 0.9999 0.0093 -0.0098
vn -0.0030 0.9621 -0.2727
vn -0.0092 0.7072 -0.7070
vn 0.4939 0.7716 -0.4008
vn -0.0065 0.9356 -0.3529
vn -0.0054 -0.4360 -0.8999
vn 0.4972 -0.2999 -0.8141
vn -0.2449 0.1294 -0.9608
vn -0.3424 0.1646 -0.9250
vn -0.1903 0.1095 -0.9756
vn 0.4174 0.9043 0.0897
vn -0.3785 0.1774 -0.9084
usemtl Material__25
s 1
f 3/1/1 5/2/2 6/3/3
f 8/4/4 5/5/2 7/6/5
f 9/7/6 10/8/7 11/9/8
f 12/10/9 9/11/6 11/12/8
f 13/13/10 9/14/6 2/15/11
f 13/16/10 4/17/12 10/18/7
f 13/19/10 7/20/5 5/21/2
f 13/22/10 15/23/13 14/24/13
f 16/25/14 18/26/15 19/27/16
f 18/28/15 21/29/17 19/30/16
f 20/31/18 11/32/8 21/33/17
f 22/34/19 16/35/14 19/36/16
f 24/37/20 23/38/21 22/39/19
f 19/40/16 26/41/22 22/42/19
f 24/43/20 26/44/22 3/45/1
f 26/46/22 11/47/8 10/48/7
f 3/49/1 10/50/7 4/51/12
f 6/52/3 27/53/23 3/1/1
f 27/54/23 28/55/24 30/56/25
f 6/57/3 29/58/26 27/59/23
f 32/60/25 30/61/25 31/62/25
f 3/63/1 32/64/25 24/65/20
f 33/66/27 18/67/15 17/68/28
f 34/69/29 20/70/18 18/71/15
f 36/72/30 17/73/28 16/25/14
f 23/74/21 36/75/30 16/76/14
f 38/77/31 25/78/32 39/79/33
f 25/80/32 31/81/25 40/82/25
f 32/83/25 25/84/32 24/85/20
f 25/84/32 40/86/25 39/87/33
f 41/88/34 38/89/31 39/90/33
f 42/91/35 36/92/30 38/93/31
f 44/94/36 36/72/30 43/95/37
f 44/96/36 46/97/38 37/98/39
f 46/99/38 17/100/28 37/101/39
f 50/102/40 52/103/41 53/104/42
f 54/105/43 53/104/42 52/103/41
f 55/106/44 57/107/45 58/108/46
f 59/109/47 61/110/48 62/111/49
f 61/112/48 55/106/44 62/113/49
f 54/114/43 63/115/50 53/116/42
f 62/117/49 64/118/51 54/119/43
f 50/120/40 65/121/52 52/122/41
f 66/123/53 54/105/43 52/103/41
f 68/124/54 49/125/55 69/126/56
f 67/127/57 69/128/56 49/129/55
f 68/130/54 50/131/40 49/132/55
f 68/133/54 52/134/41 65/121/52
f 71/135/58 52/136/41 69/137/56
f 69/138/56 59/139/47 71/140/58
f 71/141/58 62/142/49 66/143/53
f 72/144/59 70/145/60 67/146/57
f 70/147/60 60/148/61 59/149/47
f 46/99/38 45/150/62 57/151/45
f 57/151/45 33/152/27 46/153/38
f 56/154/63 34/69/29 33/155/27
f 60/156/61 34/157/29 61/158/48
f 74/159/64 60/160/61 73/161/65
f 35/162/66 12/163/9 20/164/18
f 73/165/65 75/166/67 74/167/64
f 76/168/68 1/169/69 12/10/9
f 35/170/66 74/159/64 76/171/68
f 78/172/70 74/173/64 75/174/67
f 79/175/71 76/176/68 74/167/64
f 80/177/72 77/178/73 76/171/68
f 80/179/72 84/180/74 85/181/75
f 85/182/75 86/183/76 87/184/77
f 86/185/76 83/186/78 82/187/79
f 83/188/78 89/189/80 88/190/81
f 89/191/80 91/192/82 88/190/81
f 89/193/80 79/194/71 90/195/83
f 90/196/83 78/197/70 91/198/82
f 48/199/84 92/200/85 93/201/86
f 3/1/1 4/202/12 5/2/2
f 8/4/4 6/203/3 5/5/2
f 12/10/9 1/204/69 9/11/6
f 13/13/10 10/205/7 9/14/6
f 13/16/10 5/206/2 4/17/12
f 13/19/10 14/207/13 7/20/5
f 13/22/10 2/208/11 15/23/13
f 16/25/14 17/73/28 18/26/15
f 18/28/15 20/209/18 21/29/17
f 20/31/18 12/210/9 11/32/8
f 22/34/19 23/211/21 16/35/14
f 24/37/20 25/78/32 23/38/21
f 19/40/16 21/212/17 26/41/22
f 24/43/20 22/213/19 26/44/22
f 26/46/22 21/214/17 11/47/8
f 3/49/1 26/215/22 10/50/7
f 27/54/23 29/216/26 28/55/24
f 6/57/3 8/217/4 29/58/26
f 32/60/25 27/53/23 30/61/25
f 3/63/1 27/54/23 32/64/25
f 33/66/27 34/218/29 18/67/15
f 34/69/29 35/219/66 20/70/18
f 36/72/30 37/220/39 17/73/28
f 23/74/21 38/221/31 36/75/30
f 38/77/31 23/38/21 25/78/32
f 32/83/25 31/222/25 25/84/32
f 41/88/34 42/223/35 38/89/31
f 42/91/35 43/224/37 36/92/30
f 44/94/36 37/220/39 36/72/30
f 44/96/36 45/225/62 46/97/38
f 46/99/38 33/152/27 17/100/28
f 55/106/44 56/226/63 57/107/45
f 59/109/47 60/227/61 61/110/48
f 61/112/48 56/226/63 55/106/44
f 54/114/43 64/228/51 63/115/50
f 62/117/49 55/229/44 64/118/51
f 66/123/53 62/230/49 54/105/43
f 67/127/57 70/231/60 69/128/56
f 68/130/54 65/232/52 50/131/40
f 68/133/54 69/233/56 52/134/41
f 71/135/58 66/234/53 52/136/41
f 69/138/56 70/235/60 59/139/47
f 71/141/58 59/236/47 62/142/49
f 72/144/59 73/237/65 70/145/60
f 70/147/60 73/238/65 60/148/61
f 57/151/45 56/239/63 33/152/27
f 56/154/63 61/240/48 34/69/29
f 60/156/61 35/162/66 34/157/29
f 35/162/66 76/241/68 12/163/9
f 73/165/65 72/242/59 75/166/67
f 76/168/68 77/243/73 1/169/69
f 35/170/66 60/156/61 74/159/64
f 78/172/70 79/244/71 74/173/64
f 79/175/71 80/245/72 76/176/68
f 80/177/72 81/246/87 77/178/73
f 80/179/72 79/247/71 84/180/74
f 85/182/75 84/248/74 86/183/76
f 86/185/76 84/180/74 83/186/78
f 83/188/78 84/180/74 89/189/80
f 89/191/80 90/249/83 91/192/82
f 89/193/80 84/248/74 79/194/71
f 90/196/83 79/194/71 78/197/70
f 48/199/84 47/250/88 92/200/85
l 39 47
l 51 63
