# Blender v2.79 (sub 0) OBJ File: ''
# www.blender.org
mtllib spiketorq.mtl
o Cube
v 1.000000 -1.000000 -1.000000
v 1.000000 -1.000000 1.000000
v -1.000000 -1.000000 1.000000
v -1.000000 -1.000000 -1.000000
v 1.000000 0.041568 -0.999999
v 0.999999 0.041568 1.000001
v -1.000000 0.041568 1.000000
v -1.000000 0.041568 -1.000000
v -0.339586 -1.000000 1.000000
v -1.000000 -1.000000 0.263313
v -1.000000 -1.000000 -0.365119
v -0.444375 -1.000000 -1.000000
v 1.000000 -1.000000 0.513846
v 0.342279 -1.000000 1.000000
v 0.522963 -1.000000 -1.000000
v 1.000000 -1.000000 -0.427933
v 0.780760 -2.008646 0.837949
v -0.814792 -2.008646 -0.788373
v -0.779862 -2.008646 0.754437
v 0.840988 -2.008646 -0.809311
v 1.000000 1.083135 -1.000000
v 1.000000 1.083135 1.000000
v -1.000000 1.083135 1.000000
v -1.000000 1.083135 -1.000000
v -0.339586 1.083135 1.000000
v -1.000000 1.083135 0.263313
v -1.000000 1.083135 -0.365119
v -0.444375 1.083135 -1.000000
v 1.000000 1.083135 0.513846
v 0.342279 1.083135 1.000000
v 0.522963 1.083135 -1.000000
v 1.000000 1.083135 -0.427933
v 0.780760 2.091781 0.837949
v -0.814792 2.091781 -0.788373
v -0.779862 2.091781 0.754437
v 0.840988 2.091781 -0.809311
vt 0.000000 0.501649
vt 0.082215 0.501649
vt 0.027405 0.665305
vt 1.000000 0.332652
vt 0.750000 0.163655
vt 0.810769 0.163655
vt 0.000000 0.332652
vt 0.250000 0.501649
vt 0.167448 0.501649
vt 0.750000 0.332652
vt 0.500000 0.163655
vt 0.579360 0.163655
vt 0.440370 0.501649
vt 0.250000 0.501649
vt 0.250000 0.332652
vt 0.526453 0.000000
vt 1.000000 0.163655
vt 0.928492 0.163655
vt 0.976164 0.000000
vt 0.319453 0.501649
vt 0.273151 0.665305
vt 0.500000 0.772021
vt 0.407914 0.989809
vt 0.250000 0.899658
vt 0.836019 0.828960
vt 0.764511 0.828960
vt 0.788347 0.665305
vt 0.750000 0.163655
vt 0.657914 0.163655
vt 0.719305 0.000000
vt 0.222483 0.665305
vt 0.684172 0.687971
vt 0.764511 0.665305
vt 0.764511 0.832781
vt 0.761841 1.000000
vt 0.684172 0.978848
vt 0.761841 0.832781
vt 0.770256 0.000000
vt 0.684172 0.828960
vt 0.592086 0.828960
vt 0.622781 0.665305
vt 0.500000 0.501649
vt 0.480123 0.665305
vt 0.750000 0.332652
vt 0.250000 0.332652
vt 0.500000 0.332652
vt 0.500000 0.332652
vt 0.250000 0.742705
vt 0.321508 0.665305
vt 0.439231 0.665305
vt 0.500000 0.882656
vt 0.329360 0.989809
vt 0.000000 0.163655
vt 0.027405 0.000000
vt 0.082215 0.163655
vt 0.810769 0.501649
vt 0.167448 0.163655
vt 0.579360 0.501649
vt 0.319453 0.163655
vt 0.440370 0.163655
vt 0.526453 0.665305
vt 0.500000 0.501649
vt 1.000000 0.501649
vt 0.976164 0.665305
vt 0.928492 0.501649
vt 0.250000 0.163655
vt 0.273151 0.000000
vt 0.092086 0.989809
vt 0.000000 0.772021
vt 0.178492 0.665305
vt 0.761841 0.996437
vt 0.809513 0.832781
vt 0.833349 0.996437
vt 0.750000 0.501649
vt 0.719305 0.665305
vt 0.657914 0.501649
vt 0.222483 0.000000
vt 0.250000 0.163655
vt 0.500000 0.992615
vt 0.554810 0.828960
vt 0.582215 0.992615
vt 0.582215 0.992615
vt 0.608668 0.828960
vt 0.661575 0.992615
vt 0.770256 0.665305
vt 0.750000 0.501649
vt 0.500000 0.828960
vt 0.561391 0.665305
vt 0.592086 0.828960
vt 0.480123 0.000000
vt 0.500000 0.163655
vt 0.250000 0.742705
vt 0.250000 0.899658
vt 0.170640 0.989809
vt 0.000000 0.882656
vt 0.060769 0.665305
vn 0.0000 -0.1586 0.9873
vn 1.0000 -0.0000 0.0000
vn 0.0000 -0.0000 1.0000
vn -1.0000 -0.0000 -0.0000
vn 0.0000 0.0000 -1.0000
vn -0.9836 -0.1806 -0.0000
vn 0.9878 -0.1557 0.0000
vn 0.0000 -0.2053 -0.9787
vn 0.0000 -1.0000 0.0000
vn -0.7624 -0.1202 0.6358
vn -0.9770 -0.2132 -0.0000
vn -0.0000 -0.2365 0.9716
vn -0.5895 -0.1281 -0.7975
vn 0.7454 -0.1369 0.6524
vn 0.9772 -0.2124 0.0000
vn 0.7350 -0.1604 -0.6589
vn 0.0000 -0.1858 -0.9826
vn 0.0000 1.0000 0.0000
vn 0.0000 0.1586 0.9873
vn -0.9836 0.1806 -0.0000
vn 0.9878 0.1557 0.0000
vn 0.0000 0.2053 -0.9787
vn -0.7624 0.1202 0.6358
vn -0.9770 0.2132 -0.0000
vn -0.0000 0.2365 0.9716
vn -0.5895 0.1281 -0.7975
vn 0.7454 0.1369 0.6524
vn 0.9772 0.2124 0.0000
vn 0.7350 0.1604 -0.6589
vn 0.0000 0.1858 -0.9826
usemtl Material
s off
f 2/1/1 14/2/1 17/3/1
f 5/4/2 2/5/2 13/6/2
f 6/7/3 3/8/3 9/9/3
f 7/10/4 4/11/4 11/12/4
f 15/13/5 4/14/5 8/15/5
f 11/12/6 4/11/6 18/16/6
f 1/17/7 16/18/7 20/19/7
f 4/14/8 12/20/8 18/21/8
f 14/22/9 10/23/9 12/24/9
f 16/25/10 15/26/10 20/27/10
f 3/28/11 10/29/11 19/30/11
f 9/9/12 3/8/12 19/31/12
f 14/32/13 13/33/13 17/34/13
f 12/35/14 11/36/14 18/37/14
f 13/6/15 2/5/15 17/38/15
f 10/39/16 9/40/16 19/41/16
f 15/13/17 1/42/17 20/43/17
f 16/18/2 1/17/2 5/4/2
f 5/4/2 6/44/2 2/5/2
f 13/6/2 16/18/2 5/4/2
f 14/2/3 2/1/3 6/7/3
f 6/7/3 7/45/3 3/8/3
f 9/9/3 14/2/3 6/7/3
f 10/29/4 3/28/4 7/10/4
f 7/10/4 8/46/4 4/11/4
f 11/12/4 10/29/4 7/10/4
f 8/15/5 5/47/5 1/42/5
f 15/13/18 12/20/18 4/14/18
f 8/15/5 1/42/5 15/13/5
f 12/24/9 15/48/9 16/49/9
f 16/49/9 13/50/9 14/22/9
f 14/22/9 9/51/9 10/23/9
f 10/23/9 11/52/9 12/24/9
f 12/24/9 16/49/9 14/22/9
usemtl Material.001
f 22/53/19 33/54/19 30/55/19
f 29/56/2 6/44/2 5/4/2
f 25/57/3 7/45/3 6/7/3
f 27/58/4 8/46/4 7/10/4
f 8/15/5 28/59/5 31/60/5
f 27/58/20 34/61/20 24/62/20
f 21/63/21 36/64/21 32/65/21
f 24/66/22 34/67/22 28/59/22
f 26/68/18 30/69/18 32/70/18
f 32/71/23 36/72/23 31/73/23
f 23/74/24 35/75/24 26/76/24
f 25/57/25 35/77/25 23/78/25
f 30/79/26 33/80/26 29/81/26
f 28/82/27 34/83/27 27/84/27
f 29/56/28 33/85/28 22/86/28
f 26/87/29 35/88/29 25/89/29
f 31/60/30 36/90/30 21/91/30
f 5/4/2 21/63/2 32/65/2
f 29/56/2 22/86/2 6/44/2
f 5/4/2 32/65/2 29/56/2
f 6/7/3 22/53/3 30/55/3
f 25/57/3 23/78/3 7/45/3
f 6/7/3 30/55/3 25/57/3
f 7/10/4 23/74/4 26/76/4
f 27/58/4 24/62/4 8/46/4
f 7/10/4 26/76/4 27/58/4
f 21/91/5 5/47/5 8/15/5
f 8/15/5 24/66/5 28/59/5
f 31/60/5 21/91/5 8/15/5
f 32/70/18 31/92/18 28/93/18
f 28/93/18 27/94/18 26/68/18
f 26/68/18 25/95/18 30/69/18
f 30/69/18 29/96/18 32/70/18
f 32/70/18 28/93/18 26/68/18
