# Blender v2.79 (sub 0) OBJ File: ''
# www.blender.org
mtllib hanging_moss.mtl
o Cube.003
v 2.520061 -0.082101 -0.031533
v 2.221124 -0.082101 -0.235004
v 2.923784 -0.082101 -0.235004
v 0.252012 -0.082101 0.132584
v 0.508334 -0.082101 -0.208688
v 1.354562 -0.082100 -0.148778
v 1.436988 -0.082101 0.042399
v 1.907902 -0.082101 0.132584
v 2.923784 -0.082101 0.132584
v 2.732615 -3.475494 -0.044651
v 1.678687 -0.082100 -0.092861
v 2.075553 -2.886696 -0.044651
v 1.661705 -2.127260 -0.038014
v -0.007704 -0.082101 0.132584
v 0.089670 -0.082101 -0.170765
v 0.283339 -2.776245 -0.112475
v -0.936935 -0.082101 0.132584
v -1.246905 -0.082101 -0.278523
v -0.212526 -0.082101 0.005466
v -0.159843 -1.487047 -0.032318
v -1.466198 -0.082101 0.132584
v -1.970333 -0.082101 0.132584
v -1.865448 -0.082101 -0.141846
v -2.151346 -0.082101 -0.078672
v -1.979111 -0.082101 0.132584
v -2.859861 -0.082101 0.132584
v -1.216679 -3.624153 0.010055
v -2.623689 -3.104771 -0.112475
v -2.859861 -0.082101 -0.235004
v -1.998635 -2.099250 -0.029311
vt 0.371142 0.931380
vt 0.370923 0.928852
vt 0.371111 0.928088
vt 0.380824 0.924703
vt 0.378907 0.924522
vt 0.380824 0.901839
vt 0.376529 0.924293
vt 0.376529 0.924606
vt 0.372216 0.924606
vt 0.374295 0.901839
vt 0.389406 0.936085
vt 0.387045 0.935735
vt 0.389406 0.920215
vt 0.385137 0.935449
vt 0.393681 0.936063
vt 0.389406 0.935470
vt 0.393681 0.920215
vt 0.394076 0.908668
vt 0.395647 0.908434
vt 0.395647 0.915098
vt 0.393428 0.908767
vt 0.395671 0.908434
vt 0.393428 0.908434
vt 0.394729 0.901839
vt 0.381260 0.938517
vt 0.380824 0.938423
vt 0.384747 0.924568
vt 0.393428 0.916265
vt 0.389436 0.915936
vt 0.393428 0.901839
vt 0.384747 0.939245
vt 0.364043 0.926787
vt 0.366074 0.926389
vt 0.366074 0.935187
vt 0.362579 0.927076
vt 0.380025 0.933503
vt 0.376529 0.932816
vt 0.380025 0.924703
vt 0.371142 0.931380
vt 0.359700 0.926421
vt 0.359305 0.926421
vt 0.359491 0.901839
vt 0.367403 0.902135
vt 0.372216 0.901839
vt 0.372216 0.926433
vt 0.367403 0.926389
vt 0.362579 0.926389
vt 0.365960 0.901839
vt 0.387611 0.920070
vt 0.385137 0.919863
vt 0.389436 0.901839
vt 0.385137 0.920159
vt 0.380824 0.920159
vt 0.382261 0.901839
vt 0.389406 0.920215
vt 0.372216 0.935273
vt 0.373536 0.929015
vt 0.375436 0.935273
vt 0.367403 0.927408
vt 0.368112 0.927185
vt 0.370479 0.932986
vt 0.370479 0.926433
vn 0.0000 -1.0000 0.0000
vn -0.3764 -0.0272 0.9260
vn -0.4499 -0.0247 -0.8927
vn 0.9984 -0.0562 0.0000
vn 0.5606 -0.0850 -0.8237
vn 0.2587 -0.0455 0.9649
vn -0.7611 -0.0045 -0.6486
vn 0.4883 0.0193 0.8725
vn 0.1699 -0.0278 -0.9851
vn -0.9121 -0.1157 0.3933
vn -0.0902 -0.0280 -0.9955
vn 0.7988 -0.0453 0.5999
vn -0.8804 -0.0531 0.4712
vn -0.5038 0.0043 -0.8638
vn -0.5268 -0.0426 0.8489
vn 0.9431 -0.1377 0.3027
vn 0.0000 -0.0346 0.9994
vn 0.7978 -0.0422 -0.6015
vn -0.8814 -0.0458 -0.4702
vn 0.2853 -0.0553 0.9568
vn -0.9970 -0.0779 0.0000
vn 0.2154 -0.0227 -0.9763
vn -0.9232 0.0396 -0.3824
vn 0.2156 0.0402 0.9757
vn 0.7743 0.0432 -0.6313
usemtl None.004
s off
f 25/1/1 24/2/1 23/3/1
f 9/4/2 1/5/2 10/6/2
f 1/5/3 3/7/3 10/6/3
f 3/8/4 9/9/4 10/10/4
f 2/11/5 1/12/5 12/13/5
f 1/12/6 8/14/6 12/13/6
f 8/15/7 2/16/7 12/17/7
f 11/18/8 7/19/8 13/20/8
f 6/21/9 11/18/9 13/20/9
f 7/22/10 6/23/10 13/24/10
f 15/25/11 5/26/11 16/27/11
f 5/28/12 4/29/12 16/30/12
f 4/31/13 15/25/13 16/27/13
f 19/32/14 15/33/14 20/34/14
f 14/35/15 19/32/15 20/34/15
f 15/36/16 14/37/16 20/38/16
f 25/1/1 23/3/1 22/39/1
f 17/40/17 21/41/17 27/42/17
f 18/43/18 17/44/18 27/45/18
f 21/46/19 18/47/19 27/48/19
f 24/49/20 26/50/20 28/51/20
f 26/52/21 29/53/21 28/54/21
f 29/55/22 24/49/22 28/51/22
f 23/56/23 30/57/23 25/58/23
f 23/59/24 24/60/24 30/61/24
f 24/60/25 25/62/25 30/61/25
