# Blender v2.79 (sub 0) OBJ File: 'icos.obj'
# www.blender.org
mtllib icos.mtl
o Icosphere
v 0.000000 -1.358992 -0.000000
v 0.621609 -1.140723 0.451620
v -0.237429 -1.140723 0.730743
v 1.057552 -0.551103 0.768348
v 1.243222 -0.665854 -0.000000
v -0.768354 -1.140719 -0.000000
v -0.237429 -1.140723 -0.730743
v 0.621609 -1.140723 -0.451620
v 1.389971 0.102509 0.451622
v -0.403941 -0.551103 1.243224
v 0.384183 -0.665857 1.182371
v 0.000000 0.102509 1.461500
v -1.307204 -0.551097 -0.000000
v -1.005789 -0.665855 0.730746
v -1.389971 0.102509 0.451622
v -0.403941 -0.551103 -1.243224
v -1.005789 -0.665855 -0.730746
v -0.859049 0.102509 -1.182378
v 1.057552 -0.551103 -0.768348
v 0.384183 -0.665857 -1.182371
v 0.859049 0.102509 -1.182378
v 0.859049 0.102509 1.182378
v -0.859049 0.102509 1.182378
v -1.389971 0.102509 -0.451622
v 0.000000 0.102509 -1.461500
v 1.389971 0.102509 -0.451622
v 0.403941 0.756121 1.243224
v 1.005789 0.870873 0.730746
v 0.237429 1.345741 0.730743
v -1.057552 0.756120 0.768348
v -0.384183 0.870875 1.182371
v -0.621609 1.345740 0.451620
v -1.057552 0.756120 -0.768348
v -1.243222 0.870872 0.000000
v -0.621609 1.345740 -0.451620
v 0.403941 0.756121 -1.243224
v -0.384183 0.870875 -1.182371
v 0.237429 1.345741 -0.730743
v 1.307204 0.756115 0.000000
v 1.005789 0.870873 -0.730746
v 0.768354 1.345737 0.000000
v 0.000000 1.564009 0.000000
vt 0.248707 0.844099
vt 0.193936 0.680686
vt 0.324993 0.713788
vt 0.127333 0.543157
vt 0.047750 0.680684
vt 0.331147 0.911137
vt 0.203892 1.000000
vt 0.119092 0.857572
vt 0.017115 0.536898
vt 0.443639 0.442899
vt 0.404492 0.536898
vt 0.335396 0.370986
vt 0.661592 0.268450
vt 0.558994 0.370988
vt 0.558994 0.165910
vt 0.751450 0.153584
vt 0.881332 0.146536
vt 0.801977 0.319609
vt 0.108244 0.442900
vt 0.000001 0.370991
vt 0.095488 0.268450
vt 0.797299 0.997247
vt 0.714222 0.863745
vt 0.860317 0.856507
vt 0.430883 0.268448
vt 0.670791 0.102540
vt 0.671855 0.280037
vt 0.223598 0.370988
vt 0.910844 0.690482
vt 0.780962 0.683434
vt 0.862040 0.536898
vt 0.662294 0.844097
vt 0.604589 1.000000
vt 0.543201 0.857572
vt 0.534961 0.543157
vt 0.614544 0.680684
vt 0.468358 0.680686
vt 0.108243 0.093999
vt 0.069096 0.000000
vt 0.207286 0.000000
vt 0.326196 0.268448
vt 0.223598 0.165910
vt 0.335396 0.102538
vt 0.331147 0.911137
vt 0.337301 0.713789
vt 0.413586 0.844099
vt 0.408642 0.536899
vt 0.458402 1.000000
vt 0.991503 0.619404
vt 0.715946 0.544137
vt 0.662294 0.702798
vt 0.000000 0.165912
vt 0.738596 0.460349
vt 0.864995 0.460349
vt 0.645178 0.536898
vt 0.542681 0.000000
vt 0.443639 0.093998
vt 0.335396 0.165907
vt 0.990438 0.816935
vt 0.670791 0.082506
vt 0.948072 0.326848
vt 1.000000 0.165900
vt 0.923698 0.997247
vt 0.335396 0.434358
vt 0.207286 0.536898
vt 0.057705 1.000000
vt 0.000000 0.844097
vt 0.800254 0.000000
vt 0.946348 0.007240
vt 0.670791 0.434359
vt 0.542682 0.536898
vt 0.253651 0.536899
vn 0.1024 -0.9435 0.3151
vn 0.7002 -0.6617 0.2680
vn -0.2680 -0.9435 0.1947
vn -0.2680 -0.9435 -0.1947
vn 0.1024 -0.9435 -0.3151
vn 0.9050 -0.3304 0.2680
vn 0.0247 -0.3304 0.9435
vn -0.8897 -0.3304 0.3151
vn -0.5746 -0.3304 -0.7488
vn 0.5346 -0.3304 -0.7779
vn 0.8026 -0.1256 0.5831
vn -0.3066 -0.1256 0.9435
vn -0.9921 -0.1256 0.0000
vn -0.3066 -0.1256 -0.9435
vn 0.8026 -0.1256 -0.5831
vn 0.4089 0.6617 0.6284
vn -0.4713 0.6617 0.5831
vn -0.7002 0.6617 -0.2680
vn 0.0385 0.6617 -0.7488
vn 0.7240 0.6617 -0.1947
vn 0.2680 0.9435 -0.1947
vn 0.4911 0.7947 -0.3568
vn 0.4089 0.6617 -0.6284
vn -0.1024 0.9435 -0.3151
vn -0.1876 0.7947 -0.5773
vn -0.4713 0.6617 -0.5831
vn -0.3313 0.9435 0.0000
vn -0.6071 0.7947 0.0000
vn -0.7002 0.6617 0.2680
vn -0.1024 0.9435 0.3151
vn -0.1876 0.7947 0.5773
vn 0.0385 0.6617 0.7488
vn 0.2680 0.9435 0.1947
vn 0.4911 0.7947 0.3568
vn 0.7240 0.6617 0.1947
vn 0.8897 0.3304 -0.3151
vn 0.7947 0.1876 -0.5773
vn 0.5746 0.3304 -0.7488
vn -0.0247 0.3304 -0.9435
vn -0.3035 0.1876 -0.9342
vn -0.5346 0.3304 -0.7779
vn -0.9050 0.3304 -0.2680
vn -0.9822 0.1876 0.0000
vn -0.9050 0.3304 0.2680
vn -0.5346 0.3304 0.7779
vn -0.3035 0.1876 0.9342
vn -0.0247 0.3304 0.9435
vn 0.5746 0.3304 0.7488
vn 0.7947 0.1876 0.5773
vn 0.8897 0.3304 0.3151
vn 0.3066 0.1256 -0.9435
vn 0.3035 -0.1876 -0.9342
vn 0.0247 -0.3304 -0.9435
vn -0.8026 0.1256 -0.5831
vn -0.7947 -0.1876 -0.5773
vn -0.8897 -0.3304 -0.3151
vn -0.8026 0.1256 0.5831
vn -0.7947 -0.1876 0.5773
vn -0.5746 -0.3304 0.7488
vn 0.3066 0.1256 0.9435
vn 0.3035 -0.1876 0.9342
vn 0.5346 -0.3304 0.7779
vn 0.9921 0.1256 0.0000
vn 0.9822 -0.1876 -0.0000
vn 0.9050 -0.3304 -0.2680
vn 0.4713 -0.6617 -0.5831
vn 0.1876 -0.7947 -0.5773
vn -0.0385 -0.6617 -0.7488
vn -0.4089 -0.6617 -0.6284
vn -0.4911 -0.7947 -0.3568
vn -0.7240 -0.6617 -0.1947
vn -0.7240 -0.6617 0.1947
vn -0.4911 -0.7947 0.3568
vn -0.4089 -0.6617 0.6284
vn 0.7002 -0.6617 -0.2680
vn 0.6071 -0.7947 0.0000
vn 0.3313 -0.9435 0.0000
vn -0.0385 -0.6617 0.7488
vn 0.1876 -0.7947 0.5773
vn 0.4713 -0.6617 0.5831
usemtl None
s 1
f 1/1/1 2/2/1 3/3/1
f 4/4/2 2/2/2 5/5/2
f 1/1/3 3/3/3 6/6/3
f 1/1/4 6/6/4 7/7/4
f 1/1/5 7/7/5 8/8/5
f 4/4/6 5/5/6 9/9/6
f 10/10/7 11/11/7 12/12/7
f 13/13/8 14/14/8 15/15/8
f 16/16/9 17/17/9 18/18/9
f 19/19/10 20/20/10 21/21/10
f 4/22/11 9/23/11 22/24/11
f 10/10/12 12/12/12 23/25/12
f 13/13/13 15/15/13 24/26/13
f 16/16/14 18/18/14 25/27/14
f 19/19/15 21/21/15 26/28/15
f 27/29/16 28/30/16 29/31/16
f 30/32/17 31/33/17 32/34/17
f 33/35/18 34/36/18 35/37/18
f 36/38/19 37/39/19 38/40/19
f 39/41/20 40/42/20 41/43/20
f 41/44/21 38/45/21 42/46/21
f 41/43/22 40/42/22 38/40/22
f 40/42/23 36/38/23 38/40/23
f 38/45/24 35/37/24 42/46/24
f 38/45/25 37/47/25 35/37/25
f 37/47/26 33/35/26 35/37/26
f 35/37/27 32/34/27 42/46/27
f 35/37/28 34/36/28 32/34/28
f 34/36/29 30/32/29 32/34/29
f 32/34/30 29/48/30 42/46/30
f 32/34/31 31/33/31 29/48/31
f 31/49/32 27/29/32 29/31/32
f 29/48/33 41/44/33 42/46/33
f 29/31/34 28/30/34 41/50/34
f 28/30/35 39/51/35 41/50/35
f 26/28/36 40/42/36 39/41/36
f 26/28/37 21/21/37 40/42/37
f 21/21/38 36/38/38 40/42/38
f 25/52/39 37/39/39 36/38/39
f 25/27/40 18/18/40 37/53/40
f 18/18/41 33/54/41 37/53/41
f 24/55/42 34/36/42 33/35/42
f 24/26/43 15/15/43 34/56/43
f 15/15/44 30/57/44 34/56/44
f 23/25/45 31/58/45 30/57/45
f 23/25/46 12/12/46 31/58/46
f 12/59/47 27/29/47 31/49/47
f 22/24/48 28/30/48 27/29/48
f 22/24/49 9/23/49 28/30/49
f 9/23/50 39/51/50 28/30/50
f 21/21/51 25/52/51 36/38/51
f 21/21/52 20/20/52 25/52/52
f 20/60/53 16/16/53 25/27/53
f 18/18/54 24/61/54 33/54/54
f 18/18/55 17/17/55 24/61/55
f 17/17/56 13/62/56 24/61/56
f 15/15/57 23/25/57 30/57/57
f 15/15/58 14/14/58 23/25/58
f 14/14/59 10/10/59 23/25/59
f 12/59/60 22/24/60 27/29/60
f 12/59/61 11/63/61 22/24/61
f 11/63/62 4/22/62 22/24/62
f 9/64/63 26/28/63 39/41/63
f 9/64/64 5/65/64 26/28/64
f 5/65/65 19/19/65 26/28/65
f 8/8/66 20/66/66 19/67/66
f 8/8/67 7/7/67 20/66/67
f 7/68/68 16/16/68 20/60/68
f 7/68/69 17/17/69 16/16/69
f 7/68/70 6/69/70 17/17/70
f 6/69/71 13/62/71 17/17/71
f 6/70/72 14/14/72 13/13/72
f 6/70/73 3/71/73 14/14/73
f 3/71/74 10/10/74 14/14/74
f 5/5/75 8/8/75 19/67/75
f 5/5/76 2/2/76 8/8/76
f 2/2/77 1/1/77 8/8/77
f 3/71/78 11/11/78 10/10/78
f 3/3/79 2/2/79 11/72/79
f 2/2/80 4/4/80 11/72/80
