# Blender v2.79 (sub 0) OBJ File: ''
# www.blender.org
mtllib pipe.mtl
o Cube.002
v 0.031961 3.840849 0.948790
v -0.968039 3.840849 -0.051210
v -0.668039 3.840849 0.648790
v 1.031961 3.840849 -0.051210
v 0.731961 3.840849 0.648790
v 0.031961 3.840849 -1.051210
v 0.731961 3.840849 -0.751210
v -0.668039 3.840849 -0.751210
v 0.031961 -3.637463 -1.051210
v 1.031961 -3.637463 -0.051210
v 0.031961 -3.637463 0.948790
v -0.968039 -3.637463 -0.051210
v 0.731961 -3.637463 -0.751210
v -0.668039 -3.637463 -0.751210
v -0.668039 -3.637463 0.648790
v 0.731961 -3.637463 0.648790
vt 0.774116 0.326682
vt 0.790646 0.365865
vt 0.774116 0.349408
vt 0.815442 0.311009
vt 0.791473 0.311009
vt 0.831972 0.350192
vt 0.831972 0.327466
vt 0.814615 0.365865
vt 0.815442 0.365865
vt 0.790646 0.420721
vt 0.774116 0.381538
vt 0.750147 0.534168
vt 0.774116 0.311009
vt 0.774116 0.534168
vt 0.691464 0.534168
vt 0.674108 0.311009
vt 0.691464 0.311009
vt 0.650139 0.534168
vt 0.650139 0.311009
vt 0.632782 0.311009
vt 0.632782 0.534168
vt 0.608813 0.311009
vt 0.608813 0.534168
vt 0.691464 0.311009
vt 0.708821 0.534168
vt 0.691464 0.534168
vt 0.732790 0.311009
vt 0.732790 0.534168
vt 0.774116 0.404264
vt 0.791473 0.365865
vt 0.814615 0.420721
vt 0.831972 0.405048
vt 0.831972 0.382322
vt 0.750147 0.311009
vt 0.674108 0.534168
vt 0.708821 0.311009
vn 0.0000 1.0000 0.0000
vn 0.0000 -1.0000 -0.0000
vn 0.3939 0.0000 -0.9191
vn -0.3939 0.0000 -0.9191
vn -0.9191 0.0000 -0.3939
vn -0.9191 -0.0000 0.3939
vn -0.3939 -0.0000 0.9191
vn 0.3939 -0.0000 0.9191
vn 0.9191 -0.0000 0.3939
vn 0.9191 0.0000 -0.3939
usemtl None.002
s off
f 1/1/1 2/2/1 3/3/1
f 4/4/1 1/1/1 5/5/1
f 6/6/1 4/4/1 7/7/1
f 2/2/1 6/6/1 8/8/1
f 10/9/2 12/10/2 9/11/2
f 2/2/1 4/4/1 6/6/1
f 7/12/3 9/13/3 6/14/3
f 9/15/4 8/16/4 6/17/4
f 8/16/5 12/18/5 2/19/5
f 3/20/6 12/18/6 15/21/6
f 1/22/7 15/21/7 11/23/7
f 11/24/8 5/25/8 1/26/8
f 5/25/9 10/27/9 4/28/9
f 10/27/10 7/12/10 4/28/10
f 14/29/2 9/11/2 12/10/2
f 13/30/2 10/9/2 9/11/2
f 15/31/2 12/10/2 11/32/2
f 16/33/2 11/32/2 10/9/2
f 10/9/2 11/32/2 12/10/2
f 2/2/1 1/1/1 4/4/1
f 7/12/3 13/34/3 9/13/3
f 9/15/4 14/35/4 8/16/4
f 8/16/5 14/35/5 12/18/5
f 3/20/6 2/19/6 12/18/6
f 1/22/7 3/20/7 15/21/7
f 11/24/8 16/36/8 5/25/8
f 5/25/9 16/36/9 10/27/9
f 10/27/10 13/34/10 7/12/10
