# Blender v2.79 (sub 0) OBJ File: ''
# www.blender.org
mtllib spaceship4.mtl
o Cube_Cube.008
v -7.480955 -3.035130 25.538725
v -7.346441 -4.798896 25.536484
v -7.725577 -2.634651 28.801888
v -7.815922 -1.450029 28.803394
v -9.427312 -2.603360 17.524439
v -7.350987 -3.286621 17.484327
v -9.655733 -2.821925 25.605543
v -9.755059 -4.552737 17.508696
v -9.549450 -4.795865 25.604595
v -7.572277 -4.889965 17.470619
v -6.236805 -3.071330 29.543617
v -6.500587 0.387451 29.548018
v -9.205214 -2.632616 28.847635
v -9.276596 -1.429786 28.848270
v -6.236805 -3.071331 30.829464
v -6.298942 -2.256601 30.134588
v -6.389328 -1.071401 30.194738
v -6.448510 -0.295364 30.860449
v -6.451581 -0.255101 32.204533
v -6.402848 -0.894088 33.193127
v -6.304124 -2.188627 33.113373
v -6.236805 -3.071331 32.393902
v -6.236805 -3.071331 33.610641
v -6.500587 0.387451 33.615044
v -10.556950 -3.065387 29.677191
v -10.765369 0.446556 29.679041
v -10.556950 -3.065387 33.744213
v -10.765369 0.446556 33.746067
v -10.556950 -3.065387 30.742476
v -10.556950 -3.065387 32.614922
v -10.658395 -1.355989 32.650276
v -10.658905 -1.347331 30.770023
v -13.867439 -3.065387 30.742476
v -13.969397 -1.347331 30.770023
v -13.968885 -1.355989 32.650276
v -13.867439 -3.065387 32.614922
vt 0.113363 0.670272
vt 0.173159 0.761558
vt 0.132997 0.781922
vt 0.706514 0.496540
vt 0.695877 0.410373
vt 0.706514 0.409731
vt 0.730956 0.462840
vt 0.682515 0.367371
vt 0.730956 0.363606
vt 0.760988 0.475537
vt 0.667189 0.381738
vt 0.753226 0.382409
vt 0.683085 0.496760
vt 0.659708 0.409882
vt 0.691570 0.410373
vt 0.434584 0.757092
vt 0.356283 0.739381
vt 0.521990 0.739276
vt 0.204008 0.641053
vt 0.183288 0.761313
vt 0.173159 0.639953
vt 0.046481 0.747686
vt 0.113363 0.660645
vt 0.113363 0.781644
vt 0.204008 0.645400
vt 0.234769 0.752582
vt 0.214636 0.754638
vt 0.491206 0.675716
vt 0.521990 0.641968
vt 0.416584 0.761674
vt 0.370652 0.738667
vt 0.441600 0.741967
vt 0.432047 0.623528
vt 0.354155 0.645591
vt 0.374429 0.623512
vt 0.446109 0.787790
vt 0.407213 0.739705
vt 0.477608 0.739705
vt 0.460083 0.653751
vt 0.390440 0.735117
vt 0.389486 0.652545
vt 0.649034 0.666744
vt 0.761188 0.638735
vt 0.761188 0.673268
vt 0.522386 0.645637
vt 0.522386 0.739705
vt 0.436454 0.670869
vt 0.401808 0.661832
vt 0.471922 0.756005
vt 0.401808 0.759140
vt 0.184317 0.402109
vt 0.123478 0.445596
vt 0.123171 0.401652
vt 0.155118 0.440267
vt 0.195471 0.400833
vt 0.195471 0.440892
vt 0.135415 0.441548
vt 0.175772 0.397426
vt 0.175772 0.441555
vt 0.114853 0.400880
vt 0.155117 0.440473
vt 0.114853 0.441146
vt 0.193432 0.189048
vt 0.070270 0.096697
vt 0.193432 0.096840
vt 0.671906 0.496760
vt 0.686958 0.466578
vt 0.667189 0.475251
vt 0.654095 0.496441
vt 0.377829 0.757128
vt 0.204008 0.762051
vt 0.072605 0.639953
vt 0.234769 0.639953
vt 0.356283 0.708616
vt 0.395316 0.725242
vt 0.452098 0.723803
vt 0.398573 0.653971
vt 0.356283 0.671185
vt 0.356283 0.642073
vt 0.460593 0.652063
vt 0.489277 0.707875
vt 0.392285 0.760543
vt 0.421999 0.787790
vt 0.460083 0.737576
vt 0.761188 0.717669
vt 0.761188 0.754163
vt 0.649034 0.750121
vt 0.649034 0.719887
vt 0.649034 0.634694
vt 0.354155 0.670230
vt 0.354155 0.739659
vt 0.436040 0.714358
vt 0.354155 0.713539
vt 0.471922 0.658697
vt 0.184317 0.446238
vt 0.155117 0.400209
vt 0.135415 0.397420
vt 0.155117 0.400209
vt 0.070270 0.188904
vn -0.9950 -0.0758 -0.0653
vn -0.0984 -0.9947 -0.0297
vn 0.9983 0.0538 -0.0237
vn 0.0010 0.9999 -0.0113
vn -0.9970 -0.0760 -0.0137
vn -0.4540 -0.0358 0.8903
vn -0.0160 0.8326 -0.5537
vn 0.9886 0.0533 -0.1405
vn -0.0006 -0.9189 0.3946
vn -0.9971 -0.0760 -0.0000
vn 0.0161 0.8755 0.4830
vn 0.5158 0.0302 0.8562
vn 0.0229 -0.3895 0.9207
vn -0.0309 -0.0011 -0.9995
vn 0.0014 1.0000 0.0000
vn 0.9982 0.0592 0.0000
vn -0.0139 -0.9999 -0.0000
vn 0.0000 0.0207 -0.9998
vn 0.0000 -1.0000 -0.0046
vn 0.0000 -0.0160 0.9999
vn 0.0000 1.0000 0.0000
vn -0.3121 -0.9497 0.0246
vn 0.9859 -0.1659 0.0234
vn 0.1531 0.9879 0.0258
vn -0.9903 0.1365 0.0262
vn 0.9883 0.0587 -0.1408
vn -0.0750 -0.9000 0.4293
vn -0.0307 -0.0013 -0.9995
usemtl None.022
s off
f 1/1/1 3/2/1 4/3/1
f 5/4/2 1/5/2 7/6/2
f 8/7/3 7/8/3 9/9/3
f 10/10/4 9/11/4 2/12/4
f 6/13/5 2/14/5 1/15/5
f 4/16/6 11/17/6 12/18/6
f 9/19/7 3/20/7 2/21/7
f 7/22/8 13/23/8 9/24/8
f 7/25/9 4/26/9 14/27/9
f 12/18/10 19/28/10 24/29/10
f 3/30/11 25/31/11 11/32/11
f 14/33/12 25/34/12 13/35/12
f 14/36/13 12/37/13 26/38/13
f 27/39/14 24/40/14 23/41/14
f 30/42/15 23/43/15 22/44/15
f 26/45/16 28/46/16 32/47/16
f 26/48/17 24/49/17 28/50/17
f 34/51/16 36/52/16 33/53/16
f 31/54/18 36/55/18 35/56/18
f 32/57/19 35/58/19 34/59/19
f 32/60/20 33/61/20 29/62/20
f 29/63/21 36/64/21 30/65/21
f 1/1/1 2/21/1 3/2/1
f 5/4/22 6/66/22 1/5/22
f 8/7/23 5/67/23 7/8/23
f 10/10/24 8/68/24 9/11/24
f 6/13/25 10/69/25 2/14/25
f 4/16/6 3/70/6 11/17/6
f 9/19/7 13/71/7 3/20/7
f 7/22/26 14/72/26 13/23/26
f 7/25/27 1/73/27 4/26/27
f 11/17/10 15/74/10 16/75/10
f 11/17/10 16/75/10 17/76/10
f 21/77/10 22/78/10 23/79/10
f 20/80/10 21/77/10 23/79/10
f 12/18/10 11/17/10 17/76/10
f 12/18/10 17/76/10 18/81/10
f 20/80/10 23/79/10 24/29/10
f 12/18/10 18/81/10 19/28/10
f 19/28/10 20/80/10 24/29/10
f 3/30/11 13/82/11 25/31/11
f 14/33/12 26/45/12 25/34/12
f 14/36/13 4/83/13 12/37/13
f 27/39/28 28/84/28 24/40/28
f 15/85/15 11/86/15 25/87/15
f 29/88/15 30/42/15 22/44/15
f 15/85/15 25/87/15 29/88/15
f 27/89/15 23/43/15 30/42/15
f 22/44/15 15/85/15 29/88/15
f 29/90/16 25/34/16 32/47/16
f 28/46/16 27/91/16 31/92/16
f 27/91/16 30/93/16 31/92/16
f 32/47/16 25/34/16 26/45/16
f 28/46/16 31/92/16 32/47/16
f 26/48/17 12/94/17 24/49/17
f 34/51/16 35/95/16 36/52/16
f 31/54/18 30/96/18 36/55/18
f 32/57/19 31/97/19 35/58/19
f 32/60/20 34/98/20 33/61/20
f 29/63/21 33/99/21 36/64/21
