# Blender v2.79 (sub 0) OBJ File: ''
# www.blender.org
mtllib Cube_Cube.003.mtl
o Cube_Cube.003
v -2.906729 -1.217917 -1.011596
v -6.744366 -2.276309 -1.035128
v -6.693468 -2.276310 0.583240
v 0.798796 -1.217916 -2.989900
v 0.750948 -0.371697 -6.737896
v -0.657520 -0.379367 -6.737896
v 2.970652 -1.217917 -0.658961
v 7.100397 -2.294962 -0.661890
v 7.100397 -0.940316 -0.559087
v 2.024279 1.619155 2.229605
v 1.902111 1.619154 -1.982909
v 1.902109 1.094306 -1.982909
v -0.650856 0.163063 -2.989900
v -0.650856 0.975663 -6.756490
v 0.812086 0.969745 -6.756489
v 0.812084 0.157146 -2.989899
v 7.100401 -0.951527 0.769004
v 2.970654 0.128086 0.770574
v 7.100397 -2.294962 0.804518
v 2.970652 -1.217917 0.805427
v -6.698414 -0.955955 0.425968
v -6.746426 -0.966397 -1.100625
v -2.906729 0.071853 -1.024020
v -2.906729 -1.217917 0.525734
v -1.726744 1.619154 -2.006819
v -1.761867 1.619153 2.003182
v -1.761867 1.094305 2.003182
v 2.024279 1.094307 2.229605
v 0.109446 2.306598 0.060765
v 0.802610 -0.264288 6.263292
v 0.802610 0.904474 6.263292
v 0.690023 0.252082 2.887480
v -0.753628 0.904474 6.263292
v -0.712036 0.216030 2.887480
v -0.753630 -0.264288 6.263293
v 0.701809 -1.217917 2.887480
v 2.970654 0.137864 -0.560026
v 2.970652 0.561353 2.887480
v 2.970654 0.561354 -2.989900
v -0.721973 -1.217916 -2.989900
v -2.906729 0.561354 2.887480
v -2.906729 0.561354 -2.989900
v -2.906729 0.071797 0.390240
v -1.726744 1.094306 -2.006819
v -0.794367 -1.217917 2.887480
v 2.970652 -1.217916 -2.989900
v 2.970652 -1.217917 2.887480
v -2.906730 -1.217917 2.887480
v -2.906729 -1.217916 -2.989900
vt 0.252132 0.099657
vt 0.106566 0.238686
vt 0.050757 0.180231
vt 0.120040 0.042177
vt 0.256776 0.185396
vt 0.198961 0.240615
vt 0.500603 0.766056
vt 0.380575 0.765147
vt 0.380871 0.725726
vt 0.316778 0.666585
vt 0.552179 0.668010
vt 0.551650 0.708000
vt 0.437404 0.085008
vt 0.429426 0.235086
vt 0.371149 0.231989
vt 0.499419 0.766625
vt 0.389972 0.765797
vt 0.390272 0.725848
vt 0.429491 0.238005
vt 0.376484 0.235185
vt 0.385232 0.070603
vt 0.502130 0.725744
vt 0.501833 0.764862
vt 0.381815 0.763953
vt 0.201582 0.046993
vt 0.254742 0.102675
vt 0.097708 0.252657
vt 0.379587 0.072971
vt 0.435927 0.075966
vt 0.427817 0.228528
vt 0.496985 0.722769
vt 0.496700 0.760233
vt 0.385438 0.759390
vt 0.495744 0.767200
vt 0.384490 0.766358
vt 0.384739 0.728799
vt 0.335348 0.705091
vt 0.335874 0.665105
vt 0.538629 0.666333
vt 0.552201 0.706783
vt 0.328148 0.705426
vt 0.328667 0.665446
vt 0.335024 0.667866
vt 0.546703 0.669148
vt 0.546248 0.709125
vt 0.520534 0.053658
vt 0.439982 0.135731
vt 0.362194 0.053253
vt 0.363180 0.222253
vt 0.517721 0.224462
vt 0.391023 0.768853
vt 0.391349 0.726146
vt 0.487976 0.726877
vt 0.375179 0.211201
vt 0.382222 0.078702
vt 0.438082 0.081673
vt 0.487171 0.770357
vt 0.390542 0.769625
vt 0.390855 0.727924
vt 0.070172 0.105946
vt 0.127053 0.051620
vt 0.247772 0.178064
vt 0.383352 0.764732
vt 0.383654 0.724576
vt 0.493103 0.725404
vt 0.259844 0.442258
vt 0.259520 0.388942
vt 0.273857 0.304119
vt 0.043602 0.254626
vt 0.043602 0.029945
vt 0.084442 0.216130
vt 0.200652 0.778570
vt 0.226578 0.654355
vt 0.231374 0.746810
vt 0.079773 0.055094
vt 0.268239 0.029943
vt 0.224481 0.063749
vt 0.038354 0.539622
vt 0.038354 0.304119
vt 0.048588 0.395502
vt 0.142926 0.449230
vt 0.142730 0.390611
vt 0.156106 0.304119
vt 0.156106 0.539622
vt 0.156106 0.304119
vt 0.172305 0.404182
vt 0.196324 0.041203
vt 0.062226 0.097396
vt 0.500898 0.726634
vt 0.316249 0.706574
vt 0.379126 0.081910
vt 0.499719 0.726676
vt 0.438239 0.073423
vt 0.382111 0.724836
vt 0.044547 0.196975
vt 0.371478 0.225533
vt 0.385723 0.721927
vt 0.495993 0.729641
vt 0.538105 0.706319
vt 0.552721 0.666803
vt 0.334569 0.707842
vt 0.487651 0.769584
vt 0.431039 0.214172
vt 0.487484 0.728655
vt 0.190893 0.232390
vt 0.492801 0.765560
vt 0.214981 0.539622
vt 0.214981 0.446222
vt 0.214981 0.304119
vt 0.273857 0.539622
vt 0.214981 0.387545
vt 0.223139 0.217043
vt 0.268239 0.254624
vt 0.083109 0.753164
vt 0.033795 0.705444
vt 0.076468 0.661329
vt 0.115209 0.784226
vt 0.156517 0.824198
vt 0.275249 0.701452
vt 0.106692 0.630082
vt 0.196000 0.624767
vt 0.152526 0.582699
vt 0.049781 0.451682
vt 0.097230 0.454980
vt 0.097230 0.539622
vt 0.097230 0.304119
vt 0.097230 0.395030
vt 0.097230 0.539622
vt 0.097230 0.452080
vt 0.097230 0.304119
vt 0.097230 0.391144
vt 0.172303 0.460850
vt 0.214981 0.460352
vt 0.214981 0.539622
vt 0.214981 0.304119
vt 0.214981 0.398752
vn -0.2659 0.9640 0.0084
vn -0.0053 0.9754 0.2203
vn -0.0190 -0.0757 0.9970
vn -0.9996 0.0000 0.0290
vn -0.0040 -0.9775 -0.2109
vn -0.9989 0.0457 0.0099
vn -0.2529 -0.9675 -0.0082
vn -0.0071 -0.0264 -0.9996
vn 0.2524 0.9676 0.0000
vn 0.2611 -0.9653 -0.0016
vn -0.0225 0.0096 0.9997
vn 0.0180 -0.1182 -0.9928
vn -0.0066 -0.0000 1.0000
vn 1.0000 0.0000 0.0088
vn 0.0597 0.0000 -0.9982
vn 0.0190 -0.9481 -0.3173
vn -0.0021 -0.9484 0.3172
vn -0.3480 -0.9374 0.0101
vn 0.3476 -0.9376 0.0030
vn -0.9994 0.0000 0.0333
vn 0.0000 -0.9818 0.1897
vn 0.9999 -0.0000 0.0123
vn 0.0000 0.9623 -0.2719
vn 1.0000 -0.0049 -0.0011
vn -1.0000 -0.0000 -0.0000
vn -0.4463 -0.8949 -0.0000
vn 0.0000 1.0000 0.0000
vn 0.0292 -0.8724 -0.4880
vn 0.0000 0.0000 -1.0000
vn -0.0000 0.0000 1.0000
vn 1.0000 0.0000 0.0000
vn -0.2692 0.9631 0.0000
vn 0.0000 0.9759 0.2183
vn -0.0192 -0.0728 0.9972
vn -0.9998 0.0097 0.0149
vn -0.2526 -0.9675 -0.0071
vn -0.0071 -0.0259 -0.9996
vn 0.2616 -0.9652 -0.0000
vn -0.0199 0.0499 0.9986
vn 0.0189 -0.1045 -0.9943
vn -0.9995 -0.0080 0.0321
vn 0.0252 -0.9795 0.2001
vn 0.9983 -0.0573 0.0041
vn 0.9987 -0.0514 0.0057
vn 0.0000 -0.8791 0.4766
vn -0.4983 -0.8669 0.0145
vn -0.0031 -0.8852 0.4652
vn 0.4091 -0.9125 0.0036
vn -0.0000 -0.7770 -0.6295
vn 0.4220 -0.9066 -0.0000
usemtl None.001
s off
f 1/1/1 2/2/1 3/3/1
f 4/4/2 5/5/2 6/6/2
f 7/7/3 8/8/3 9/9/3
f 10/10/4 11/11/4 12/12/4
f 13/13/5 14/14/5 15/15/5
f 16/16/6 15/17/6 5/18/6
f 9/19/7 17/20/7 18/21/7
f 17/22/8 19/23/8 20/24/8
f 19/25/9 8/26/9 7/27/9
f 21/28/10 22/29/10 23/30/10
f 1/31/11 23/32/11 22/33/11
f 24/34/12 3/35/12 21/36/12
f 12/37/13 11/38/13 25/39/13
f 25/40/14 26/41/14 27/42/14
f 26/43/15 10/44/15 28/45/15
f 26/46/16 29/47/16 10/48/16
f 11/49/17 29/47/17 25/50/17
f 10/48/18 29/47/18 11/49/18
f 25/50/19 29/47/19 26/46/19
f 30/51/20 31/52/20 32/53/20
f 32/54/21 31/55/21 33/56/21
f 34/57/22 33/58/22 35/59/22
f 35/60/23 30/61/23 36/62/23
f 6/63/24 14/64/24 13/65/24
f 37/66/25 18/67/25 38/68/25
f 39/69/26 38/70/26 12/71/26
f 40/72/27 7/73/27 4/74/27
f 28/75/28 41/76/28 27/77/28
f 41/78/29 38/79/29 32/80/29
f 13/81/30 16/82/30 39/83/30
f 42/84/31 41/85/31 43/86/31
f 24/87/32 1/1/32 3/3/32
f 40/88/33 4/4/33 6/6/33
f 37/89/34 7/7/34 9/9/34
f 28/90/4 10/10/4 12/12/4
f 16/91/5 13/13/5 15/15/5
f 4/92/35 16/16/35 5/18/35
f 37/93/36 9/19/36 18/21/36
f 18/94/37 17/22/37 20/24/37
f 20/95/9 19/25/9 7/27/9
f 43/96/38 21/28/38 23/30/38
f 2/97/39 1/31/39 22/33/39
f 43/98/40 24/34/40 21/36/40
f 44/99/13 12/37/13 25/39/13
f 44/100/14 25/40/14 27/42/14
f 27/101/15 26/43/15 28/45/15
f 36/102/41 30/51/41 32/53/41
f 34/103/42 32/54/42 33/56/42
f 45/104/43 34/57/43 35/59/43
f 45/105/23 35/60/23 36/62/23
f 40/106/44 6/63/44 13/65/44
f 46/107/25 7/108/25 37/66/25
f 18/67/25 47/109/25 38/68/25
f 39/110/25 46/107/25 37/66/25
f 18/67/25 20/111/25 47/109/25
f 38/68/25 39/110/25 37/66/25
f 44/112/45 42/113/45 39/69/45
f 38/70/46 28/75/46 12/71/46
f 12/71/47 44/112/47 39/69/47
f 24/114/27 48/115/27 45/116/27
f 40/72/27 1/117/27 24/114/27
f 1/117/27 40/72/27 49/118/27
f 7/73/27 46/119/27 4/74/27
f 36/120/27 20/121/27 7/73/27
f 20/121/27 36/120/27 47/122/27
f 36/120/27 24/114/27 45/116/27
f 24/114/27 7/73/27 40/72/27
f 24/114/27 36/120/27 7/73/27
f 42/113/48 44/112/48 27/77/48
f 41/76/49 28/75/49 38/70/49
f 41/76/50 42/113/50 27/77/50
f 34/123/29 45/124/29 48/125/29
f 47/126/29 36/127/29 32/80/29
f 34/123/29 48/125/29 41/78/29
f 38/79/29 47/126/29 32/80/29
f 32/80/29 34/123/29 41/78/29
f 13/81/30 49/128/30 40/129/30
f 16/82/30 46/130/30 39/83/30
f 42/84/30 49/128/30 13/81/30
f 16/82/30 4/131/30 46/130/30
f 39/83/30 42/84/30 13/81/30
f 23/132/31 1/133/31 49/134/31
f 48/135/31 24/136/31 43/86/31
f 23/132/31 49/134/31 42/84/31
f 41/85/31 48/135/31 43/86/31
f 43/86/31 23/132/31 42/84/31
