# Blender v2.79 (sub 0) OBJ File: ''
# www.blender.org
mtllib Cube_Cube.000.mtl
o Cube_Cube.000_Cube_Cube.010
v 0.145466 -0.229162 30.134588
v 0.207602 -1.043891 30.829464
v 1.737654 -1.043891 29.790936
v 1.050373 -0.229162 29.671104
v -6.298942 -2.256605 30.134588
v -6.236805 -3.071334 30.829464
v -6.389328 -1.071405 30.194738
v 0.055080 0.956039 30.194738
v -6.448510 -0.295368 30.860449
v -0.004103 1.732075 30.860449
v -6.451581 -0.255105 32.204533
v -0.007174 1.772338 32.204533
v -6.402848 -0.894092 33.193127
v 0.041559 1.133351 33.193127
v -6.304124 -2.188631 33.113373
v 0.140284 -0.161187 33.113373
v -2.671034 -1.045642 33.113373
v -2.669789 -0.861327 33.124435
v -3.844666 -0.892578 33.144794
v -3.912548 -1.436228 33.113373
v -6.236805 -3.071334 32.393902
v -4.071928 -2.390253 32.393902
v -2.695531 -1.957231 32.393902
v 0.207602 -1.043891 32.393902
v 1.737654 -1.043890 22.562323
v 1.050373 -0.229161 22.442492
v 1.085081 0.956039 29.773979
v 1.712790 1.732075 30.003443
v 3.010279 1.772338 30.354284
v 3.248779 -1.043891 30.195839
v 3.926313 -0.161187 30.447079
v 3.977798 1.133351 30.563080
v 3.248779 -1.043890 22.967226
v 3.926313 -0.161186 23.218466
v 3.977798 1.133352 23.334467
v 3.010279 1.772339 23.125671
v 1.712790 1.732076 22.774830
v 1.085081 0.956040 22.545366
v 1.776714 0.454861 22.691124
v 3.169167 0.455304 23.064260
v 3.248779 -1.043890 28.107338
v 3.248779 -1.043890 26.552280
v 3.926313 -0.161187 27.993336
v 3.926313 -0.161186 26.565157
v 3.947485 0.371204 26.555777
v 3.947039 0.359959 27.992895
v 8.625647 1.732052 26.334917
v 8.782581 0.595210 29.434774
v 9.142181 -0.476913 29.034475
v 11.800322 0.544615 29.271826
v 12.159920 -0.527508 28.871527
v 8.993935 0.629877 25.945297
v 12.011671 0.579281 25.782351
v 11.643383 0.768961 27.137136
v 8.212225 -1.666422 27.407501
v 8.373644 -2.871539 28.492222
v 11.391378 -2.922136 29.338766
v 11.229961 -1.717018 24.965654
v -2.669789 -0.861328 34.382519
v -3.844666 -0.892579 34.402878
v -2.671034 -1.045643 34.371456
v -1.805408 -0.067727 36.445217
v -4.681864 -0.144237 36.495064
v -1.808453 -0.518984 36.418129
v -3.856629 -1.436229 34.371456
v -3.863436 -1.893181 34.379238
v -2.695531 -1.957232 34.286346
v -1.805408 -0.067728 40.066200
v -4.681864 -0.144238 40.116047
v -1.808453 -0.518984 40.039112
v -4.711155 -1.475260 36.418129
v -1.868429 -2.750834 36.209759
v -4.727818 -2.594018 36.437176
v -4.711155 -1.475261 40.039112
v -4.727818 -2.594018 40.058159
v -1.868429 -2.750834 39.830742
vt 0.184153 0.113553
vt 0.147121 0.165783
vt 0.147184 0.144922
vt 0.178535 0.744685
vt 0.160455 0.640388
vt 0.178535 0.617745
vt 0.235553 0.639942
vt 0.258876 0.733942
vt 0.235553 0.766881
vt 0.219188 0.661509
vt 0.219188 0.788448
vt 0.091941 0.744684
vt 0.057949 0.618864
vt 0.091941 0.617745
vt 0.119751 0.635504
vt 0.119751 0.762443
vt 0.195736 0.605050
vt 0.202570 0.697572
vt 0.194064 0.707669
vt 0.193197 0.773114
vt 0.214305 0.763948
vt 0.207214 0.805001
vt 0.434107 0.142984
vt 0.434107 0.062202
vt 0.491608 0.062202
vt 0.171082 0.639944
vt 0.187444 0.781637
vt 0.171128 0.784049
vt 0.093316 0.161157
vt 0.093390 0.142231
vt 0.165708 0.078423
vt 0.174331 0.180825
vt 0.149877 0.172727
vt 0.441213 0.196318
vt 0.466463 0.117680
vt 0.471185 0.152695
vt 0.239670 0.172558
vt 0.198577 0.081170
vt 0.238891 0.070568
vt 0.199555 0.204981
vt 0.139796 0.086284
vt 0.140828 0.208612
vt 0.111143 0.077813
vt 0.058158 0.112209
vt 0.058037 0.150779
vt 0.141950 0.747598
vt 0.111259 0.701319
vt 0.147440 0.700781
vt 0.147356 0.782006
vt 0.147310 0.637900
vt 0.127195 0.631945
vt 0.125163 0.769405
vt 0.106279 0.625450
vt 0.368455 0.117883
vt 0.372876 0.092902
vt 0.405994 0.145218
vt 0.131378 0.760084
vt 0.113683 0.715952
vt 0.131478 0.718534
vt 0.087596 0.767027
vt 0.103073 0.687332
vt 0.103231 0.715924
vt 0.074936 0.763285
vt 0.087940 0.623217
vt 0.131768 0.777420
vt 0.131723 0.633315
vt 0.131552 0.687597
vt 0.113911 0.620958
vt 0.131723 0.616274
vt 0.494850 0.759194
vt 0.519861 0.733377
vt 0.520769 0.780498
vt 0.488829 0.615245
vt 0.501222 0.598224
vt 0.504501 0.614692
vt 0.384229 0.784913
vt 0.410262 0.793453
vt 0.405205 0.809289
vt 0.520769 0.727571
vt 0.535108 0.745334
vt 0.460562 0.614534
vt 0.485550 0.598777
vt 0.385424 0.776929
vt 0.410262 0.757218
vt 0.488199 0.652356
vt 0.458475 0.627995
vt 0.756095 0.464108
vt 0.712718 0.433141
vt 0.767538 0.420968
vt 0.511778 0.708080
vt 0.545119 0.656208
vt 0.545119 0.724780
vt 0.499749 0.677757
vt 0.508021 0.658628
vt 0.666106 0.480755
vt 0.701689 0.357827
vt 0.504501 0.650455
vt 0.327470 0.790117
vt 0.362931 0.805588
vt 0.328118 0.792542
vt 0.536440 0.777707
vt 0.248930 0.626672
vt 0.209380 0.664521
vt 0.209380 0.587438
vt 0.215067 0.509432
vt 0.207826 0.495321
vt 0.215067 0.495088
vt 0.094146 0.457235
vt 0.090844 0.443048
vt 0.094146 0.442920
vt 0.201765 0.471867
vt 0.219493 0.471297
vt 0.100394 0.419968
vt 0.108479 0.419653
vt 0.121863 0.457925
vt 0.131605 0.443938
vt 0.131607 0.458284
vt 0.139794 0.443850
vt 0.148707 0.466489
vt 0.090844 0.457364
vt 0.074509 0.444025
vt 0.435229 0.625036
vt 0.448534 0.667749
vt 0.427674 0.669114
vt 0.201765 0.430582
vt 0.219493 0.430012
vt 0.100394 0.378766
vt 0.108479 0.378452
vt 0.121863 0.443580
vt 0.132331 0.420615
vt 0.060401 0.422359
vt 0.403304 0.717868
vt 0.152379 0.420398
vt 0.201484 0.364671
vt 0.183843 0.360410
vt 0.201484 0.349475
vt 0.183979 0.334852
vt 0.201362 0.336782
vt 0.108479 0.419653
vt 0.132331 0.379329
vt 0.060401 0.381157
vt 0.454378 0.714526
vt 0.388847 0.802206
vt 0.152379 0.379112
vt 0.184049 0.160324
vt 0.160455 0.767327
vt 0.258876 0.607003
vt 0.057949 0.745803
vt 0.201031 0.727761
vt 0.174629 0.727258
vt 0.214305 0.650906
vt 0.205097 0.704218
vt 0.491608 0.241523
vt 0.434107 0.181283
vt 0.434107 0.241523
vt 0.187398 0.637532
vt 0.186337 0.135482
vt 0.434393 0.122990
vt 0.111952 0.164117
vt 0.151058 0.647529
vt 0.167750 0.678595
vt 0.167750 0.724529
vt 0.108278 0.746685
vt 0.092770 0.719386
vt 0.093093 0.677326
vt 0.111793 0.648131
vt 0.146079 0.775900
vt 0.426546 0.029098
vt 0.362517 0.151432
vt 0.383069 0.035312
vt 0.113566 0.764768
vt 0.113751 0.687539
vt 0.075280 0.619475
vt 0.494395 0.737406
vt 0.536440 0.724780
vt 0.459863 0.606690
vt 0.384130 0.763189
vt 0.701333 0.464844
vt 0.494395 0.709741
vt 0.362931 0.768612
vt 0.248930 0.701317
vt 0.207826 0.509665
vt 0.074509 0.465558
vt 0.459128 0.621868
vt 0.183884 0.365563
vt 0.108479 0.378452
vt 0.439921 0.798863
vn 0.3570 0.6218 0.6971
vn -0.1974 0.6274 0.7533
vn 0.0156 -0.0495 0.9987
vn 0.1980 -0.6295 0.7514
vn 0.3000 -0.9535 0.0292
vn 0.2538 -0.8066 -0.5339
vn -0.0189 0.0600 -0.9980
vn -0.1923 0.6112 -0.7678
vn -0.3001 0.9539 0.0000
vn 0.7644 0.6448 0.0000
vn 0.3781 -0.0181 0.9256
vn 0.0215 -0.9992 0.0351
vn 0.0000 1.0000 0.0000
vn -0.4843 0.5625 -0.6701
vn -0.5731 0.0957 -0.8138
vn -0.3713 -0.7438 -0.5557
vn 0.3786 -0.5305 0.7585
vn -0.2581 -0.0760 0.9631
vn 0.9996 -0.0293 -0.0000
vn 0.0310 -0.9995 -0.0000
vn -0.7933 0.6089 0.0000
vn -0.9992 0.0397 0.0000
vn -0.5511 -0.8344 -0.0000
vn 0.7775 -0.6289 -0.0000
vn 0.1486 -0.9260 -0.3471
vn -0.0452 0.3361 -0.9407
vn 0.1296 -0.2917 0.9477
vn -0.3551 -0.4148 0.8378
vn 0.2026 0.4014 -0.8932
vn 0.0205 0.5320 0.8465
vn 0.0226 -0.1451 -0.9892
vn 0.1244 0.9922 0.0000
vn -0.9375 0.3251 0.1242
vn -0.8319 -0.5339 -0.1514
vn 0.2194 0.9426 0.2517
vn 0.2698 0.1295 -0.9542
vn 0.0447 -0.3482 0.9363
vn -0.0222 -0.9944 -0.1029
vn 0.0266 -0.9996 -0.0000
vn -1.0000 0.0068 0.0000
vn 0.0310 -0.9371 0.3476
vn -0.9198 -0.0173 0.3921
vn 0.9916 -0.1213 -0.0441
vn 0.9912 -0.1074 -0.0772
vn -0.9996 0.0269 0.0000
vn 0.0548 0.9985 0.0000
vn -1.0000 0.0067 0.0000
vn 0.9223 -0.0425 0.3842
vn -0.9204 -0.0118 0.3909
vn 0.0791 0.9330 0.3510
vn 0.9228 -0.0072 0.3852
vn -0.0191 0.0581 -0.9981
vn -0.0801 -0.0158 -0.9967
vn 0.9998 -0.0220 -0.0000
vn 0.9999 -0.0149 -0.0000
vn 0.4825 0.5116 0.7109
vn 0.4540 -0.0902 0.8864
vn 0.0150 -0.9994 0.0300
vn -0.4888 0.5285 -0.6941
vn -0.5555 0.0089 -0.8314
vn -0.3098 -0.8054 -0.5053
vn 0.3003 -0.6077 0.7352
vn 0.2790 -0.9603 -0.0074
vn 0.1194 0.0127 0.9928
vn -0.0093 -0.9906 0.1362
vn 0.2863 -0.0122 -0.9581
vn -0.1560 0.1054 0.9821
vn 0.2024 0.1541 -0.9671
vn 0.1854 0.6710 0.7179
vn -0.9513 0.2728 0.1434
vn -0.9435 -0.3294 0.0347
vn -0.1973 0.6411 0.7416
vn -0.0560 -0.1739 -0.9832
vn 0.6087 0.2683 0.7467
vn -0.2071 -0.9218 -0.3276
vn 0.9989 -0.0156 -0.0444
vn -0.2939 0.9340 -0.2030
vn -0.0309 0.0937 -0.9951
usemtl None
s off
f 2/1/1 4/2/1 1/3/1
f 5/4/2 2/5/2 1/6/2
f 7/7/3 1/8/3 8/9/3
f 9/10/4 8/9/4 10/11/4
f 11/12/5 10/13/5 12/14/5
f 11/12/6 14/15/6 13/16/6
f 14/17/7 18/18/7 19/19/7
f 15/20/8 22/21/8 21/22/8
f 23/23/9 24/24/9 2/25/9
f 4/26/10 25/27/10 26/28/10
f 1/3/11 27/29/11 8/30/11
f 12/31/12 28/32/12 29/33/12
f 24/34/13 3/35/13 2/36/13
f 24/37/14 31/38/14 30/39/14
f 16/40/15 32/41/15 31/38/15
f 14/42/16 29/43/16 32/41/16
f 10/44/17 27/29/17 28/45/17
f 36/46/18 39/47/18 40/48/18
f 4/26/19 38/49/19 27/50/19
f 28/51/20 36/52/20 29/53/20
f 41/54/13 42/55/13 3/56/13
f 30/57/21 43/58/21 41/59/21
f 32/60/22 45/61/22 46/62/22
f 29/63/23 35/64/23 32/60/23
f 27/50/24 37/65/24 28/66/24
f 42/67/21 34/68/21 33/69/21
f 46/70/25 47/71/25 48/72/25
f 49/73/26 50/74/26 51/75/26
f 45/76/27 52/77/27 47/78/27
f 52/79/28 54/80/28 47/71/28
f 43/81/29 48/82/29 49/73/29
f 44/83/30 55/84/30 52/77/30
f 43/81/31 56/85/31 41/86/31
f 41/87/32 55/88/32 42/89/32
f 51/90/33 58/91/33 57/92/33
f 51/90/34 54/93/34 53/94/34
f 55/88/35 57/95/35 58/96/35
f 49/73/36 57/97/36 56/85/36
f 52/98/37 58/99/37 53/100/37
f 48/72/38 54/80/38 50/101/38
f 17/102/8 24/103/8 23/104/8
f 19/105/39 59/106/39 60/107/39
f 18/108/40 61/109/40 59/110/40
f 60/107/41 62/111/41 63/112/41
f 59/110/42 64/113/42 62/114/42
f 19/115/43 65/116/43 20/117/43
f 20/117/44 66/118/44 22/119/44
f 17/120/45 67/121/45 61/109/45
f 23/122/46 66/123/46 67/124/46
f 63/112/39 68/125/39 69/126/39
f 62/114/47 70/127/47 68/128/47
f 60/129/48 71/130/48 65/116/48
f 61/109/49 72/131/49 64/113/49
f 66/123/50 72/132/50 67/124/50
f 66/118/51 71/130/51 73/133/51
f 69/134/52 70/135/52 74/136/52
f 74/136/53 76/137/53 75/138/53
f 63/139/54 74/140/54 71/130/54
f 64/113/45 76/141/45 70/127/45
f 73/142/46 76/143/46 72/132/46
f 73/133/55 74/140/55 75/144/55
f 2/1/56 3/145/56 4/2/56
f 5/4/2 6/146/2 2/5/2
f 7/7/3 5/147/3 1/8/3
f 9/10/4 7/7/4 8/9/4
f 11/12/5 9/148/5 10/13/5
f 11/12/6 12/14/6 14/15/6
f 20/149/7 15/20/7 13/150/7
f 13/150/7 14/17/7 19/19/7
f 16/151/7 17/152/7 18/18/7
f 19/19/7 20/149/7 13/150/7
f 16/151/7 18/18/7 14/17/7
f 15/20/8 20/149/8 22/21/8
f 2/25/9 6/153/9 23/23/9
f 22/154/9 23/23/9 6/153/9
f 6/153/9 21/155/9 22/154/9
f 4/26/10 3/156/10 25/27/10
f 1/3/57 4/2/57 27/29/57
f 12/31/58 10/157/58 28/32/58
f 24/34/13 30/158/13 3/35/13
f 24/37/59 16/40/59 31/38/59
f 16/40/60 14/42/60 32/41/60
f 14/42/61 12/159/61 29/43/61
f 10/44/62 8/30/62 27/29/62
f 40/48/18 33/160/18 34/161/18
f 34/161/18 35/162/18 40/48/18
f 36/46/18 37/163/18 39/47/18
f 38/164/18 26/165/18 39/47/18
f 26/165/18 25/166/18 39/47/18
f 40/48/18 35/162/18 36/46/18
f 38/164/18 39/47/18 37/163/18
f 4/26/19 26/28/19 38/49/19
f 28/51/20 37/167/20 36/52/20
f 25/168/13 3/56/13 42/55/13
f 30/169/13 41/54/13 3/56/13
f 33/170/13 25/168/13 42/55/13
f 30/57/21 31/171/21 43/58/21
f 43/58/22 31/171/22 46/62/22
f 32/60/22 35/64/22 45/61/22
f 34/68/22 44/172/22 45/61/22
f 46/62/22 31/171/22 32/60/22
f 35/64/22 34/68/22 45/61/22
f 29/63/23 36/173/23 35/64/23
f 27/50/24 38/49/24 37/65/24
f 42/67/21 44/172/21 34/68/21
f 46/70/63 45/174/63 47/71/63
f 49/73/26 48/82/26 50/74/26
f 45/76/64 44/83/64 52/77/64
f 52/79/65 53/175/65 54/80/65
f 43/81/66 46/176/66 48/82/66
f 44/83/67 42/177/67 55/84/67
f 43/81/68 49/73/68 56/85/68
f 41/87/69 56/178/69 55/88/69
f 51/90/70 53/94/70 58/91/70
f 51/90/71 50/179/71 54/93/71
f 55/88/72 56/178/72 57/95/72
f 49/73/73 51/75/73 57/97/73
f 52/98/74 55/180/74 58/99/74
f 48/72/75 47/71/75 54/80/75
f 17/102/8 16/181/8 24/103/8
f 19/105/39 18/182/39 59/106/39
f 18/108/40 17/120/40 61/109/40
f 60/107/41 59/106/41 62/111/41
f 59/110/42 61/109/42 64/113/42
f 19/115/54 60/129/54 65/116/54
f 20/117/76 65/116/76 66/118/76
f 17/120/45 23/183/45 67/121/45
f 23/122/77 22/184/77 66/123/77
f 63/112/39 62/111/39 68/125/39
f 62/114/47 64/113/47 70/127/47
f 60/129/48 63/139/48 71/130/48
f 61/109/49 67/121/49 72/131/49
f 66/123/50 73/142/50 72/132/50
f 66/118/51 65/116/51 71/130/51
f 69/134/7 68/185/7 70/135/7
f 74/136/78 70/135/78 76/137/78
f 63/139/54 69/186/54 74/140/54
f 64/113/45 72/131/45 76/141/45
f 73/142/46 75/187/46 76/143/46
f 73/133/55 71/130/55 74/140/55
