# Blender v2.79 (sub 0) OBJ File: ''
# www.blender.org
mtllib Cube_Cube.007.mtl
o Cube_Cube.007_Cube_Cube.016
v 5.116732 -0.970669 -3.454800
v 5.157881 0.339363 -3.459809
v 6.589994 0.354781 -3.458435
v 6.571381 -0.989503 -3.454800
v 6.589994 0.354781 -6.741532
v 6.470707 -1.337522 -6.737896
v 6.536118 -1.111402 -4.604759
v 6.589994 0.354781 -4.584062
v 5.157881 0.339363 -6.742905
v 5.059853 -0.970669 -6.737896
v 13.250706 -0.396194 -4.604759
v 13.304583 1.069989 -4.584062
v 14.968271 -0.396194 -4.604759
v 15.022148 1.069989 -4.584062
v 13.304583 1.069989 -3.458435
v 13.285969 -0.274294 -3.454800
v 15.003536 -0.274294 -3.454800
v 15.022148 1.069989 -3.458435
v 13.959797 1.069989 -3.458435
v 13.987492 -0.274294 -3.454800
v 13.959797 1.069988 0.577315
v 13.987492 -0.274295 0.580950
v 13.987492 -0.274295 -0.306401
v 15.022148 1.069988 0.577315
v 15.003536 -0.274295 0.580950
v 15.003536 -0.274295 -0.225694
v 14.105316 -0.515669 -0.251749
v 15.077564 -0.516268 -0.155831
v 15.079182 -0.520748 0.561802
v 13.997923 -0.520384 0.503412
v 7.099508 -0.294153 1.746868
v 7.099508 -2.294153 1.746869
v 7.100397 -2.294962 0.804518
v 7.100401 -0.951527 0.769004
v 7.100397 -0.940316 -0.559087
v 7.100397 -2.294962 -0.661890
v 7.099508 -2.294153 -1.619530
v 7.099508 -0.294153 -1.619530
v 10.459923 -2.294153 -1.619530
v 10.459923 -0.294153 -1.619530
v 10.459923 -2.294153 -1.228831
v 10.459925 -0.866945 -1.157593
v 10.459923 -0.881895 1.236987
v 10.459923 -2.294153 1.238213
v 10.459923 -2.294153 1.746871
v 10.459923 -0.294153 1.746870
v 12.695709 -2.654752 -1.852155
v 12.695715 -0.506347 -1.744919
v 15.573723 -2.654752 -1.852155
v 15.573727 -0.506347 -1.744920
v 12.695715 -0.528851 1.859692
v 12.695711 -2.654751 1.861538
v 15.573727 -2.654751 1.861537
v 15.573723 -0.528851 1.859691
vt 0.552185 0.721605
vt 0.519839 0.724645
vt 0.523157 0.713809
vt 0.480181 0.794658
vt 0.446397 0.746282
vt 0.480079 0.745742
vt 0.394322 0.713277
vt 0.394322 0.687755
vt 0.405602 0.687787
vt 0.519867 0.596376
vt 0.549944 0.670689
vt 0.519855 0.670810
vt 0.483292 0.671026
vt 0.471821 0.671073
vt 0.471900 0.644866
vt 0.408842 0.754305
vt 0.438071 0.800229
vt 0.405602 0.808792
vt 0.441311 0.813153
vt 0.408842 0.821716
vt 0.340215 0.687755
vt 0.549674 0.732467
vt 0.522349 0.779246
vt 0.419219 0.646429
vt 0.484034 0.596517
vt 0.514759 0.622309
vt 0.483873 0.622037
vt 0.326722 0.713277
vt 0.326722 0.687755
vt 0.335067 0.687755
vt 0.550879 0.791998
vt 0.520951 0.784524
vt 0.413610 0.672674
vt 0.405682 0.646523
vt 0.519839 0.805310
vt 0.488948 0.805396
vt 0.488948 0.785278
vt 0.405602 0.672730
vt 0.528399 0.676493
vt 0.519960 0.706867
vt 0.520391 0.676415
vt 0.332361 0.762977
vt 0.326761 0.769938
vt 0.326722 0.762224
vt 0.335067 0.596253
vt 0.514295 0.695521
vt 0.414040 0.743862
vt 0.406043 0.745742
vt 0.514179 0.713809
vt 0.519855 0.697140
vt 0.519855 0.713411
vt 0.483292 0.803638
vt 0.483379 0.786512
vt 0.528399 0.670852
vt 0.134303 0.470543
vt 0.156467 0.400048
vt 0.134303 0.367629
vt 0.262150 0.360578
vt 0.146897 0.463300
vt 0.262150 0.463300
vt 0.133320 0.469623
vt 0.154566 0.377594
vt 0.133320 0.361166
vt 0.112672 0.456357
vt 0.219718 0.360950
vt 0.112672 0.360950
vt 0.772482 0.463203
vt 0.772482 0.380875
vt 0.697632 0.399795
vt 0.389176 0.630685
vt 0.481209 0.768754
vt 0.481209 0.630685
vt 0.209178 0.430437
vt 0.245307 0.387007
vt 0.238515 0.430437
vt 0.201147 0.333039
vt 0.245307 0.333039
vt 0.188408 0.430004
vt 0.127144 0.387310
vt 0.201147 0.387310
vt 0.163374 0.527443
vt 0.127144 0.483944
vt 0.170788 0.483944
vt 0.228667 0.590636
vt 0.135142 0.653586
vt 0.154006 0.590636
vt 0.205615 0.377554
vt 0.154025 0.454741
vt 0.205615 0.457036
vt 0.201147 0.333039
vt 0.174501 0.342365
vt 0.159768 0.342395
vt 0.127144 0.430004
vt 0.170788 0.430004
vt 0.247531 0.653586
vt 0.135142 0.733583
vt 0.173302 0.362754
vt 0.441311 0.794658
vt 0.405602 0.762224
vt 0.394322 0.762193
vt 0.549944 0.596253
vt 0.472048 0.596253
vt 0.483292 0.596790
vt 0.441311 0.745742
vt 0.340215 0.713277
vt 0.552185 0.787069
vt 0.419140 0.672636
vt 0.517720 0.596253
vt 0.488948 0.713895
vt 0.519839 0.713809
vt 0.528333 0.706949
vt 0.332361 0.771002
vt 0.326722 0.596253
vt 0.483292 0.713538
vt 0.519855 0.670810
vt 0.202903 0.470543
vt 0.156851 0.440649
vt 0.202931 0.441734
vt 0.202931 0.396905
vt 0.202903 0.367629
vt 0.146897 0.360578
vt 0.205615 0.469623
vt 0.154025 0.454741
vt 0.205615 0.457036
vt 0.205615 0.377554
vt 0.205615 0.361166
vt 0.219718 0.456357
vt 0.697632 0.448730
vt 0.697599 0.480178
vt 0.772482 0.480178
vt 0.772482 0.367837
vt 0.697599 0.367837
vt 0.389176 0.768754
vt 0.201147 0.387007
vt 0.139248 0.430004
vt 0.134381 0.527443
vt 0.154566 0.377594
vt 0.157799 0.360729
vt 0.127144 0.333039
vt 0.247531 0.733583
vn -0.0000 -0.0038 -1.0000
vn -0.9993 0.0367 0.0000
vn 0.0108 -0.9999 -0.0000
vn 0.9994 -0.0315 -0.0173
vn 0.0129 0.9943 -0.1058
vn 0.0015 -0.0142 0.9999
vn 0.0000 -0.0141 0.9999
vn 0.1059 -0.9944 -0.0000
vn 0.0003 -0.0027 -1.0000
vn -0.1054 0.9892 -0.1016
vn -0.9999 0.0138 0.0000
vn 0.0000 -1.0000 -0.0000
vn 0.0000 -0.0027 -1.0000
vn 0.0000 0.9944 -0.1054
vn 0.9998 0.0206 0.0000
vn -0.0949 0.2492 0.9638
vn 0.0000 1.0000 0.0000
vn -0.9560 -0.2934 0.0003
vn 0.8795 0.4583 0.1279
vn 0.0000 0.3005 -0.9538
vn 1.0000 0.0014 0.0000
vn 0.0000 -0.0000 1.0000
vn -1.0000 -0.0000 0.0000
vn 0.0000 -0.0000 -1.0000
vn -0.0002 1.0000 0.0000
vn 0.2610 -0.0481 0.9641
vn 0.0000 -0.0499 0.9988
vn 0.1576 -0.9875 -0.0062
vn 0.2684 -0.0008 -0.9633
vn 0.1592 0.9872 0.0000
vn -0.0000 -1.0000 -0.0062
vn -0.0000 -0.0009 -1.0000
vn 0.0010 -0.0027 -1.0000
vn -0.9973 0.0703 0.0231
vn 0.9972 -0.0746 -0.0000
vn 0.2501 0.9620 -0.1096
vn 0.0973 0.9953 -0.0017
vn -0.9990 0.0363 0.0268
vn -0.0778 0.1839 0.9799
vn -0.9562 -0.2926 -0.0000
vn 0.9991 0.0423 0.0000
vn 0.0537 0.0937 -0.9941
vn 1.0000 0.0000 0.0009
vn 1.0000 0.0001 -0.0009
vn 1.0000 0.0013 0.0000
vn 1.0000 -0.0000 -0.0008
vn -0.0001 1.0000 -0.0009
vn -0.0001 1.0000 0.0008
usemtl None.004
s off
f 2/1/1 4/2/1 1/3/1
f 5/4/2 7/5/2 8/6/2
f 8/7/3 3/8/3 2/9/3
f 10/10/4 2/11/4 1/12/4
f 1/13/5 4/14/5 7/15/5
f 8/16/6 11/17/6 12/18/6
f 12/18/7 13/19/7 14/20/7
f 8/7/8 15/21/8 3/8/8
f 3/22/9 16/23/9 4/2/9
f 4/14/10 11/24/10 7/15/10
f 14/25/11 17/26/11 18/27/11
f 14/28/12 18/29/12 19/30/12
f 16/23/13 19/31/13 20/32/13
f 11/24/14 20/33/14 13/34/14
f 21/35/15 22/36/15 23/37/15
f 13/34/14 20/33/14 17/38/14
f 22/39/13 24/40/13 25/41/13
f 26/42/16 27/43/16 28/44/16
f 18/29/12 21/45/12 19/30/12
f 17/26/11 26/46/11 18/27/11
f 17/38/17 23/47/17 26/48/17
f 25/49/18 28/50/18 29/51/18
f 23/37/19 30/52/19 27/53/19
f 25/41/20 30/54/20 22/39/20
f 31/55/21 35/56/21 38/57/21
f 37/58/22 40/59/22 38/60/22
f 40/61/23 43/62/23 46/63/23
f 45/64/24 31/65/24 46/66/24
f 44/67/25 41/68/25 36/69/25
f 31/70/12 40/71/12 46/72/12
f 41/73/26 48/74/26 42/75/26
f 48/74/27 49/76/27 50/77/27
f 43/78/28 48/79/28 51/80/28
f 44/81/29 51/82/29 52/83/29
f 44/84/30 47/85/30 41/86/30
f 53/87/23 50/88/23 49/89/23
f 54/90/31 29/91/31 28/92/31
f 52/83/32 54/93/32 53/94/32
f 52/95/17 49/96/17 47/85/17
f 51/80/31 30/97/31 54/90/31
f 2/1/33 3/22/33 4/2/33
f 5/4/34 6/98/34 7/5/34
f 2/9/3 9/99/3 8/7/3
f 5/100/3 8/7/3 9/99/3
f 10/10/35 9/101/35 2/11/35
f 7/15/36 6/102/36 10/103/36
f 10/103/37 1/13/37 7/15/37
f 8/16/6 7/104/6 11/17/6
f 12/18/7 11/17/7 13/19/7
f 8/7/8 12/105/8 15/21/8
f 3/22/9 15/106/9 16/23/9
f 4/14/10 16/107/10 11/24/10
f 14/25/38 13/108/38 17/26/38
f 19/30/12 15/21/12 12/105/12
f 12/105/12 14/28/12 19/30/12
f 16/23/13 15/106/13 19/31/13
f 11/24/14 16/107/14 20/33/14
f 23/37/15 20/109/15 19/110/15
f 19/110/15 21/35/15 23/37/15
f 22/39/13 21/111/13 24/40/13
f 26/42/39 23/112/39 27/43/39
f 18/29/12 24/113/12 21/45/12
f 24/114/11 18/27/11 26/46/11
f 26/46/11 25/49/11 24/114/11
f 17/38/17 20/33/17 23/47/17
f 25/49/40 26/46/40 28/50/40
f 23/37/41 22/36/41 30/52/41
f 25/41/42 29/115/42 30/54/42
f 31/55/43 32/116/43 34/117/43
f 32/116/43 33/118/43 34/117/43
f 36/119/44 37/120/44 35/56/44
f 31/55/45 34/117/45 35/56/45
f 35/56/46 37/120/46 38/57/46
f 37/58/22 39/121/22 40/59/22
f 40/61/23 39/122/23 42/123/23
f 39/122/23 41/124/23 42/123/23
f 44/125/23 45/126/23 43/62/23
f 40/61/23 42/123/23 43/62/23
f 43/62/23 45/126/23 46/63/23
f 45/64/24 32/127/24 31/65/24
f 33/128/47 32/129/47 44/67/47
f 45/130/17 44/67/17 32/129/17
f 41/68/17 39/131/17 37/132/17
f 36/69/25 33/128/25 44/67/25
f 41/68/48 37/132/48 36/69/48
f 31/70/12 38/133/12 40/71/12
f 41/73/26 47/134/26 48/74/26
f 48/74/27 47/134/27 49/76/27
f 43/78/28 42/135/28 48/79/28
f 44/81/29 43/136/29 51/82/29
f 44/84/30 52/95/30 47/85/30
f 53/87/23 54/137/23 50/88/23
f 27/138/31 48/79/31 50/139/31
f 50/139/31 54/90/31 28/92/31
f 28/92/31 27/138/31 50/139/31
f 52/83/32 51/82/32 54/93/32
f 52/95/17 53/140/17 49/96/17
f 51/80/31 48/79/31 30/97/31
f 30/97/31 29/91/31 54/90/31
f 48/79/31 27/138/31 30/97/31
