# Blender v2.79 (sub 0) OBJ File: ''
# www.blender.org
mtllib Cube_Cube.002.mtl
o Cube_Cube.002_Cube_Cube.012
v 0.720875 -0.802869 19.699617
v 4.265558 -0.802869 20.649412
v 4.143620 1.130234 16.945070
v 0.780334 1.115479 16.042721
v 4.078806 1.464055 17.024065
v 3.024204 1.390391 16.058931
v 0.812498 1.463015 16.148787
v 1.597307 1.389938 15.676564
v -2.858112 1.645034 8.594974
v -2.858114 -0.264287 8.594974
v -0.753630 -0.264287 6.263293
v -0.753628 0.904475 6.263292
v 0.802610 0.904475 6.263292
v 0.802610 -0.264287 6.263292
v 2.907097 -0.264287 8.594975
v 2.907097 1.645035 8.594974
v -2.858114 -0.264288 10.231380
v 2.907095 -0.264288 10.231380
v 2.907097 1.645034 10.231380
v 0.692135 1.645034 10.231380
v 0.668764 1.645035 8.594974
v -0.680162 -0.264288 12.539454
v 0.729145 -0.264288 12.539454
v 0.729147 0.904474 12.539454
v -0.680162 0.904474 12.539454
v -2.858112 1.645034 10.231380
v -0.797976 1.645034 10.231380
v 3.169167 0.455305 21.370331
v 1.776714 0.454862 20.997194
v 0.812498 1.463015 20.001751
v 4.078806 1.464055 20.877028
v 3.248779 -1.043889 21.273296
v 1.532408 1.463246 19.676119
v 2.967318 1.463702 20.006466
v 1.597307 2.054781 14.621614
v 3.024204 2.032111 14.621160
v 0.391623 2.032111 11.529593
v -1.035274 2.054781 11.530046
v 1.532408 3.565807 14.621633
v 2.967318 3.529168 14.621177
v 0.391623 2.032111 10.249321
v -1.035274 2.054781 10.249774
v 0.334738 3.529168 11.529611
v -1.100173 3.565807 11.530066
v 0.655890 1.680228 10.127671
v 0.334738 3.529168 10.074454
v -1.100173 3.565807 10.074909
v 0.546152 2.079993 8.949351
v -0.828224 1.645035 8.594974
v 1.737654 -1.043889 20.868393
vt 0.364142 0.750278
vt 0.481804 0.659321
vt 0.369745 0.637283
vt 0.772928 0.663096
vt 0.772928 0.737538
vt 0.692945 0.669566
vt 0.775697 0.713466
vt 0.694073 0.703941
vt 0.775697 0.673956
vt 0.443970 0.634393
vt 0.426185 0.688313
vt 0.484756 0.655057
vt 0.425540 0.635153
vt 0.485545 0.720139
vt 0.426185 0.688313
vt 0.426829 0.741472
vt 0.618640 0.681450
vt 0.797436 0.734034
vt 0.793641 0.684774
vt 0.677113 0.612473
vt 0.791468 0.728987
vt 0.728490 0.680814
vt 0.723733 0.729905
vt 0.693898 0.801445
vt 0.622434 0.730710
vt 0.692677 0.612128
vt 0.621056 0.682269
vt 0.683398 0.681424
vt 0.385446 0.741974
vt 0.384801 0.688814
vt 0.436335 0.720936
vt 0.405427 0.751865
vt 0.436426 0.751799
vt 0.384801 0.688814
vt 0.326827 0.722062
vt 0.326038 0.656980
vt 0.384157 0.635654
vt 0.687513 0.692447
vt 0.659014 0.667230
vt 0.687513 0.677551
vt 0.738355 0.630192
vt 0.662905 0.652607
vt 0.693124 0.633212
vt 0.771435 0.746021
vt 0.734174 0.627220
vt 0.771435 0.630404
vt 0.769005 0.645522
vt 0.732183 0.763361
vt 0.789907 0.771305
vt 0.625546 0.743643
vt 0.733976 0.743793
vt 0.517480 0.687488
vt 0.512414 0.630100
vt 0.528090 0.628416
vt 0.464937 0.663283
vt 0.397898 0.696348
vt 0.462113 0.602048
vt 0.528731 0.674588
vt 0.544143 0.602048
vt 0.544143 0.676137
vt 0.397898 0.753403
vt 0.332457 0.713260
vt 0.381221 0.713955
vt 0.528090 0.719966
vt 0.501804 0.689172
vt 0.519463 0.602048
vt 0.382637 0.656034
vt 0.485822 0.700193
vt 0.480919 0.663435
vt 0.501804 0.701226
vt 0.449050 0.753766
vt 0.399810 0.754475
vt 0.465613 0.703134
vt 0.476863 0.701320
vt 0.479227 0.710649
vt 0.333873 0.655339
vt 0.383891 0.629137
vt 0.468747 0.645964
vt 0.484730 0.646998
vt 0.450281 0.780640
vt 0.401041 0.781349
vt 0.395426 0.630358
vt 0.397898 0.602048
vt 0.396499 0.632302
vt 0.485325 0.602048
vt 0.501804 0.603679
vt 0.497328 0.613775
vt 0.464937 0.807706
vt 0.678433 0.730518
vt 0.617006 0.731350
vt 0.383374 0.608365
vt 0.674921 0.800401
vt 0.741049 0.775929
vt 0.665296 0.736953
vt 0.451764 0.683724
vt 0.401903 0.765690
vt 0.401903 0.635135
vt 0.481804 0.773662
vt 0.396593 0.624985
vt 0.485150 0.687598
vt 0.485150 0.687598
vt 0.724353 0.613370
vt 0.795518 0.679906
vt 0.736677 0.802258
vt 0.735325 0.611550
vt 0.405337 0.721003
vt 0.326432 0.689521
vt 0.326432 0.689521
vt 0.659014 0.702173
vt 0.665296 0.667449
vt 0.769005 0.760902
vt 0.625546 0.621884
vt 0.661772 0.733353
vt 0.665101 0.606943
vt 0.736903 0.619027
vt 0.789907 0.649546
vt 0.447138 0.695640
vt 0.528090 0.602273
vt 0.395058 0.813735
vt 0.514672 0.728547
vt 0.503788 0.603732
vt 0.464937 0.662402
vt 0.464937 0.712172
vt 0.479227 0.701226
vt 0.335127 0.628443
vt 0.463560 0.777472
vt 0.722014 0.799763
vt 0.695801 0.772063
vt 0.451764 0.739380
vn -0.1270 0.8792 0.4592
vn -0.6344 -0.2925 0.7155
vn 0.4718 -0.2970 0.8301
vn -0.1139 0.9051 0.4096
vn 0.7423 -0.0000 0.6700
vn -0.7423 0.0000 0.6700
vn 0.0000 1.0000 0.0000
vn 0.0000 -1.0000 -0.0000
vn 0.0000 -0.9522 -0.3055
vn -1.0000 -0.0000 0.0000
vn 1.0000 -0.0000 -0.0000
vn 0.0000 0.0000 -1.0000
vn -0.7273 0.0000 -0.6863
vn 0.7273 -0.0000 -0.6863
vn 0.2116 -0.5767 -0.7891
vn -0.5274 0.0270 -0.8492
vn 0.9957 -0.0922 -0.0000
vn -0.9967 -0.0811 -0.0095
vn 0.0003 -1.0000 -0.0000
vn 0.0159 0.9998 -0.0135
vn 0.9992 0.0373 0.0155
vn 0.0825 -0.9305 -0.3569
vn -0.9991 -0.0380 -0.0169
vn 0.0136 0.8459 0.5331
vn 0.0159 0.9999 0.0000
vn -0.7610 -0.0289 0.6481
vn -0.0255 -0.9994 0.0217
vn 0.7610 0.0327 -0.6480
vn -0.0750 0.2750 -0.9585
vn -0.9993 -0.0380 0.0000
vn -0.0255 -0.9997 0.0000
vn 0.9991 0.0429 0.0000
vn -0.7114 -0.7027 0.0102
vn 0.0000 -0.6316 0.7753
vn 0.9923 0.0554 0.1104
vn -0.8132 -0.5700 -0.1177
vn 0.0000 -0.9531 0.3027
vn 0.7459 0.0583 -0.6635
vn -0.0694 0.9634 0.2590
vn -0.1239 0.8780 0.4623
vn -0.1133 0.8997 0.4216
vn -0.5133 0.0438 -0.8571
vn 0.9992 -0.0398 -0.0046
vn -0.9817 -0.1906 -0.0000
vn -0.0826 -0.9964 0.0169
vn 0.0521 -0.9985 0.0193
vn 0.9987 0.0429 0.0270
vn -0.0237 -0.9230 -0.3840
vn -0.9993 -0.0358 -0.0137
vn -0.1089 0.9077 0.4052
vn 0.0004 0.0451 -0.9990
vn 0.0000 -0.9470 -0.3214
vn -0.9629 -0.2699 -0.0019
vn -0.0154 -0.6146 0.7887
vn -0.0106 -0.6112 0.7914
vn 0.8649 0.5016 -0.0160
vn -0.9915 -0.0517 -0.1198
vn 0.7577 0.0363 -0.6516
usemtl None.007
s off
f 1/1/1 3/2/1 4/3/1
f 5/4/2 6/5/2 3/6/2
f 7/7/3 4/8/3 8/9/3
f 6/10/4 4/3/4 3/2/4
f 10/11/5 12/12/5 9/13/5
f 13/14/6 15/15/6 16/16/6
f 10/17/7 18/18/7 15/19/7
f 15/19/7 11/20/7 10/17/7
f 16/21/8 20/22/8 21/23/8
f 22/24/7 18/18/7 17/25/7
f 25/26/9 26/27/9 27/28/9
f 15/15/10 19/29/10 16/16/10
f 9/13/11 17/30/11 10/11/11
f 23/31/12 25/32/12 24/33/12
f 18/34/13 24/35/13 19/29/13
f 25/36/14 17/30/14 26/37/14
f 29/38/15 31/39/15 28/40/15
f 28/41/16 2/42/16 32/43/16
f 30/44/17 4/45/17 7/46/17
f 31/47/18 3/48/18 2/42/18
f 31/49/19 30/50/19 34/51/19
f 35/52/20 37/53/20 38/54/20
f 8/55/21 39/56/21 33/57/21
f 33/58/22 40/59/22 34/60/22
f 6/61/23 40/62/23 36/63/23
f 8/64/24 36/65/24 35/52/24
f 37/53/25 42/66/25 38/54/25
f 40/62/26 37/67/26 36/63/26
f 39/68/27 43/69/27 40/70/27
f 39/56/28 38/71/28 44/72/28
f 41/73/29 45/74/29 27/75/29
f 43/76/30 41/77/30 37/67/30
f 43/69/31 47/78/31 46/79/31
f 44/72/32 42/80/32 47/81/32
f 45/82/33 21/83/33 20/84/33
f 49/85/34 21/86/34 48/87/34
f 42/80/35 49/88/35 47/81/35
f 49/89/8 26/27/8 9/90/8
f 41/77/36 48/91/36 45/82/36
f 49/89/37 12/92/37 21/23/37
f 29/93/38 1/94/38 30/44/38
f 50/95/39 2/96/39 1/97/39
f 1/1/40 2/98/40 3/2/40
f 6/10/41 8/99/41 4/3/41
f 10/11/5 11/100/5 12/12/5
f 13/14/6 14/101/6 15/15/6
f 10/17/7 17/25/7 18/18/7
f 15/19/7 14/102/7 11/20/7
f 16/21/8 19/103/8 20/22/8
f 22/24/7 23/104/7 18/18/7
f 20/22/9 19/103/9 24/105/9
f 24/105/9 25/26/9 20/22/9
f 27/28/9 20/22/9 25/26/9
f 15/15/10 18/34/10 19/29/10
f 9/13/11 26/37/11 17/30/11
f 23/31/12 22/106/12 25/32/12
f 18/34/13 23/107/13 24/35/13
f 25/36/14 22/108/14 17/30/14
f 29/38/15 30/109/15 31/39/15
f 28/41/42 31/47/42 2/42/42
f 30/44/43 1/110/43 4/45/43
f 31/47/44 5/111/44 3/48/44
f 30/50/19 7/112/19 33/113/19
f 7/112/45 8/114/45 33/113/45
f 6/115/46 5/116/46 34/51/46
f 30/50/19 33/113/19 34/51/19
f 34/51/19 5/116/19 31/49/19
f 35/52/20 36/65/20 37/53/20
f 8/55/47 35/117/47 39/56/47
f 33/58/48 39/118/48 40/59/48
f 6/61/49 34/119/49 40/62/49
f 8/64/50 6/120/50 36/65/50
f 37/53/25 41/121/25 42/66/25
f 40/62/26 43/76/26 37/67/26
f 39/68/27 44/122/27 43/69/27
f 39/56/28 35/117/28 38/71/28
f 27/75/51 42/123/51 41/73/51
f 45/74/52 20/124/52 27/75/52
f 43/76/30 46/125/30 41/77/30
f 43/69/31 44/122/31 47/78/31
f 44/72/32 38/71/32 42/80/32
f 45/82/53 48/91/53 21/83/53
f 48/87/54 46/79/54 47/78/54
f 47/78/55 49/85/55 48/87/55
f 42/80/56 27/126/56 49/88/56
f 49/89/8 27/28/8 26/27/8
f 41/77/57 46/125/57 48/91/57
f 13/127/37 16/21/37 21/23/37
f 21/23/37 12/92/37 13/127/37
f 9/90/37 12/92/37 49/89/37
f 29/93/58 50/128/58 1/94/58
f 50/95/39 32/129/39 2/96/39
